<svg xmlns="http://www.w3.org/2000/svg" xmlns:xlink="http://www.w3.org/1999/xlink" version="1.1" width="218.000" height="204.000" viewBox="314.283 88.821 218.000 204.000">
<defs>
<clipPath id="clip_2">
<path transform="matrix(1,0,0,-1,324.283,282.82106)" d="M0 0H198V184H0Z" />
</clipPath>

<path id="font_3_13" d="M.16999817-.17001343C.16799927-.17700196 .16699219-.18101502 .1659851-.18301392 .16499329-.18501282 .16499329-.18701172 .16499329-.19000244 .16499329-.20100403 .16899109-.2090149 .17599488-.2130127 .18299866-.21600342 .18899536-.21800232 .19400025-.21800232 .19699097-.21800232 .20199585-.2170105 .21099854-.21400452 .21899414-.2110138 .22599793-.20300293 .23098755-.19200135 .23199463-.19000244 .23298645-.18600464 .23399353-.18000794 .23498535-.17401123 .23699951-.16400147 .23999024-.15100098 .24198914-.13800049 .24499512-.120010379 .25-.09701538 .2539978-.07400513 .25898744-.044006349 .2659912-.009002686 .2709961-.010009766 .2749939-.010009766 .27999879-.011001587 .28399659-.011001587 .2899933-.011001587 .29899598-.011001587 .33999635-.011001587 .37998963-.0020141602 .4189911 .015991211 .45799256 .033996583 .49198915 .057998659 .5219879 .08699036 .5509949 .115997318 .57499697 .1499939 .59298709 .18798828 .6100006 .22599793 .61898806 .2649994 .61898806 .3039856 .61898806 .32299806 .61698916 .34199525 .6119995 .35899354 .6069946 .37599183 .598999 .3899994 .58999636 .40299989 .58099368 .4149933 .56900027 .4249878 .5549927 .43199159 .5399933 .43899537 .5239868 .44198609 .5049896 .44198609 .46899415 .44198609 .43798829 .43099977 .41099549 .40899659 .38398744 .38598634 .36099244 .35699464 .34098817 .32099916 .31999208 .28399659 .3019867 .24299622 .28599549 .19599915 .269989 .14898682 .25498963 .101989749 .23999024 .052993776 .18598938 .06298828 .14498902 .08099365 .117996219 .10798645 .08999634 .13398743 .07598877 .16499329 .07598877 .20098877 .07598877 .20799256 .07798767 .21899414 .08099365 .23498535 .083999637 .25099183 .08799744 .2689972 .09498596 .2889862 .101989749 .30899049 .10998535 .32998658 .12098694 .35099793 .1309967 .37199403 .14399719 .3909912 .15899658 .4079895 .16299439 .41299439 .16499329 .41600038 .1659851 .4169922 .16699219 .41799928 .16699219 .41999818 .16699219 .42099 .16699219 .4229889 .1659851 .4249878 .16499329 .42799378 .1639862 .42999269 .1599884 .43099977 .15499878 .43099977 .147995 .43099977 .13798523 .4229889 .1269989 .40699769 .114990238 .3909912 .102996829 .37098695 .09199524 .34700013 .08099365 .32199098 .070999149 .29599 .06298828 .2679901 .053985597 .23999024 .049987794 .21398926 .049987794 .18998719 .049987794 .14299011 .06498718 .101989749 .09599304 .067993167 .1269989 .033996583 .16899109 .010986328 .22299195-.0020141602L.16999817-.17001343M.30799867 .04699707C.3039856 .04699707 .30099488 .04699707 .29899598 .04699707 .29699708 .04699707 .2939911 .04699707 .2899933 .04798889 .28399659 .04798889 .27999879 .04798889 .2789917 .04899597 .27799989 .049987794 .2769928 .050994874 .2769928 .051986696 .2769928 .052993776 .27799989 .057998659 .27999879 .067993167 .2809906 .07699585 .2829895 .08799744 .28599549 .100997928 .28799439 .11399841 .2899933 .12599182 .29299928 .13699341 .29499818 .147995 .29599 .1559906 .29699708 .1599884 .30499269 .19198609 .31599427 .22200012 .32899476 .24899292 .34199525 .27598573 .35699464 .2999878 .37399293 .31999208 .3909912 .33999635 .4099884 .35598756 .43099977 .36698915 .45199586 .37799073 .47299195 .38398744 .49499513 .38398744 .5119934 .38398744 .5269928 .3809967 .5389862 .375 .5509949 .36898805 .5609894 .36099244 .56900027 .35099793 .57598879 .34098817 .58200076 .32998658 .58599856 .31799317 .58898928 .30599977 .59098818 .2939911 .59098818 .28199769 .59098818 .2539978 .58399966 .22599793 .56900027 .19799805 .55400088 .16999817 .5329895 .14498902 .5079956 .12298584 .48199464 .099990848 .45199586 .08198547 .41799928 .067993167 .3829956 .053985597 .34700013 .04699707 .30799867 .04699707Z" />

<path id="font_3_9" d="M.73999026 .43598939C.73999026 .47599793 .73399356 .5130005 .72099307 .54599 .70799258 .57899478 .69099429 .60798647 .6689911 .6309967 .6459961 .6539917 .61898806 .6729889 .58799746 .6859894 .5569916 .69898989 .5219879 .7049866 .4850006 .7049866 .44898988 .7049866 .41299439 .69898989 .37799073 .68699648 .34199525 .6749878 .30799867 .6589966 .27598573 .6380005 .24398804 .61698916 .21398926 .59199526 .18598938 .5629883 .1579895 .5339966 .13398743 .5019989 .11399841 .46798707 .09399414 .43399049 .07798767 .397995 .066986087 .3600006 .054992677 .32199098 .04899597 .28399659 .04899597 .24499512 .04899597 .20399475 .055999757 .16699219 .068984989 .13398743 .08198547 .100997928 .099990848 .07299805 .12298584 .049987794 .1459961 .026992798 .17298889 .008987427 .20399475-.0040130617 .23498535-.01600647 .2689972-.022003174 .30499269-.022003174 .33999635-.022003174 .37599183-.01600647 .41099549-.005004883 .44599916 .0069885256 .47999574 .022994996 .5119934 .04399109 .5439911 .06498718 .57398989 .08898926 .60198977 .117996219 .6299896 .1459961 .6539917 .1769867 .6749878 .21099854 .69499209 .24499512 .71099856 .2809906 .72299197 .31900025 .73399356 .35699464 .73999026 .3959961 .73999026 .43598939M.31098939 .0029907227C.28599549 .0029907227 .2639923 .0079956059 .24299622 .017990113 .22200012 .026992798 .20498657 .040985109 .18998719 .05999756 .1749878 .07899475 .16299439 .100997928 .15499878 .1269989 .1459961 .15299988 .14199829 .18299866 .14199829 .21598816 .14199829 .22698975 .14299011 .24398804 .1459961 .2659912 .147995 .2889862 .1519928 .31498719 .15899658 .34298707 .16499329 .37098695 .17399597 .40098573 .18598938 .43299867 .19799805 .46398927 .21398926 .49398805 .23298645 .5239868 .25 .5499878 .2689972 .57299807 .2899933 .59199526 .30999757 .61099246 .33099366 .6279907 .35198976 .6409912 .37298585 .6539917 .394989 .6629944 .4169922 .66999819 .43798829 .6769867 .45899964 .6799927 .47898866 .6799927 .5 .6799927 .519989 .6759949 .54100039 .6689911 .5609894 .6619873 .57899478 .6499939 .59599307 .6339874 .6119995 .61698916 .625 .59599307 .6359863 .56999209 .6459961 .5439911 .651001 .5119934 .651001 .47499085 .651001 .45700074 .6489868 .43399049 .644989 .40699769 .6409912 .3789978 .6339874 .34999085 .625 .31799317 .6159973 .28599549 .6029968 .2539978 .58699038 .21998596 .56999209 .18598938 .5499878 .1539917 .5249939 .12298584 .5130005 .10798645 .49899293 .09298706 .48298646 .07899475 .46699525 .06399536 .44999696 .050994874 .43199159 .039993287 .41299439 .0289917 .3939972 .019989014 .37298585 .0129852299 .35198976 .005996704 .33198548 .0029907227 .31098939 .0029907227Z" />

<path id="font_4_1" d="M.46199037 .21798706C.47299195 .21798706 .48199464 .21899414 .4869995 .22200012 .49198915 .22399903 .49398805 .23199463 .49398805 .24499512 .49398805 .25299073 .49398805 .2630005 .49299623 .27598573 .49198915 .28799439 .4889984 .30099488 .4850006 .31498719 .48098756 .32899476 .47499085 .34298707 .46798707 .35798646 .46099855 .37298585 .45098878 .38598634 .43798829 .39898683 .40098573 .43499757 .34799195 .45298768 .2789917 .45298768 .23899842 .45298768 .20399475 .44699098 .17298889 .43499757 .14199829 .4229889 .116989139 .40699769 .09599304 .38598634 .07499695 .36499024 .05899048 .34098817 .04798889 .31399537 .036987306 .28599549 .03199768 .2559967 .03199768 .22499085 .03199768 .19198609 .037994386 .16099549 .049987794 .1329956 .06199646 .10398865 .07899475 .07998657 .101989749 .05899048 .125 .037994386 .1519928 .021987915 .18499756 .010986328 .21699524 0 .25299073-.006011963 .29299928-.006011963 .33198548-.006011963 .36499024 0 .3909912 .010986328 .4169922 .021987915 .43798829 .034988405 .45298768 .049987794 .46798707 .06399536 .47898866 .07798767 .4850006 .09098816 .4909973 .10398865 .49398805 .11299133 .49398805 .116989139 .49398805 .12599182 .4909973 .1309967 .48399354 .1329956 .47698976 .13398743 .47299195 .1349945 .46998597 .1349945 .46099855 .1349945 .45599366 .13398743 .45399476 .1309967 .45098878 .12799073 .44799806 .12199402 .44499208 .11399841 .43399049 .08999634 .41600038 .070999149 .3899994 .055999757 .3639984 .040985109 .33499146 .033996583 .3019867 .033996583 .2669983 .033996583 .23999024 .040985109 .22099304 .055999757 .20199585 .069992069 .18798828 .08699036 .1789856 .10699463 .16999817 .1269989 .1639862 .14698792 .16299439 .16799927 .16099549 .18899536 .1599884 .20498657 .1599884 .21798706H.46199037M.1599884 .25099183C.16099549 .269989 .16299439 .2899933 .16499329 .30999757 .16699219 .32998658 .17298889 .34799195 .18399048 .36499024 .19699097 .3849945 .21299744 .39898683 .23098755 .4059906 .24798584 .41299439 .2639923 .4169922 .2789917 .4169922 .30799867 .4169922 .33099366 .4099884 .34700013 .3959961 .36299134 .38198854 .375 .3659973 .3829956 .34700013 .3899994 .32798768 .394989 .30999757 .39698792 .2919922 .397995 .272995 .39898683 .2599945 .39898683 .25099183H.1599884Z" />

<path id="font_3_8" d="M.48599244 .3809967C.48799134 .3880005 .4889984 .3929901 .48999024 .3959961 .48999024 .397995 .48999024 .40098573 .48999024 .4039917 .48999024 .41299439 .4869995 .41999818 .48098756 .4249878 .47499085 .42900086 .46798707 .43099977 .46099855 .43099977 .45599366 .43099977 .44999696 .42900086 .44299317 .42599488 .43598939 .4229889 .43099977 .4169922 .42599488 .4099884 .4249878 .40699769 .4229889 .3999939 .41999818 .3880005 .4169922 .37599183 .4139862 .36499024 .4119873 .35598756 .40899659 .34298707 .40499879 .32899476 .4019928 .31599427 .39898683 .30299378 .394989 .2889862 .3919983 .27598573L.34700013 .09599304C.34599305 .09199524 .34199525 .084991458 .33699037 .07598877 .33099366 .066986087 .32299806 .056991579 .31399537 .04798889 .3039856 .037994386 .2919922 .0289917 .2789917 .021987915 .2659912 .01499939 .25099183 .010986328 .23399353 .010986328 .22099304 .010986328 .21099854 .01399231 .20298767 .018997193 .19499207 .023986817 .18899536 .02999878 .18399048 .037994386 .1789856 .04499817 .17599488 .053985597 .1749878 .06399536 .17298889 .07299805 .17199707 .08299255 .17199707 .09199524 .17199707 .114990238 .17599488 .14299011 .18499756 .1749878 .19299317 .20599365 .20599365 .24398804 .22299195 .28799439 .22698975 .2979889 .22999573 .30699159 .23298645 .31399537 .23599243 .32099916 .23799134 .32699586 .23899842 .33198548 .23999024 .33699037 .24099732 .34199525 .24198914 .34599305 .24299622 .34999085 .24299622 .35499574 .24299622 .3600006 .24299622 .3829956 .23599243 .4019928 .22099304 .41799928 .20599365 .43399049 .18598938 .44198609 .16099549 .44198609 .14498902 .44198609 .1309967 .43798829 .117996219 .43099977 .10499573 .42399598 .09399414 .4149933 .084991458 .4039917 .07499695 .3929901 .066986087 .38198854 .05999756 .36898805 .052993776 .35598756 .04699707 .34298707 .041992189 .33198548 .036987306 .32099916 .033996583 .31098939 .03199768 .30299378 .02999878 .2939911 .0289917 .2889862 .0289917 .28799439 .0289917 .2829895 .0309906 .27999879 .033996583 .2789917 .036987306 .27799989 .039993287 .27799989 .040985109 .27799989 .04598999 .27799989 .049987794 .2789917 .050994874 .2809906 .051986696 .2829895 .053985597 .28799439 .056991579 .29599 .069992069 .34298707 .085998538 .375 .10499573 .3929901 .12298584 .41099549 .14099121 .41999818 .1579895 .41999818 .1619873 .41999818 .16699219 .4189911 .17399597 .41600038 .17999268 .41299439 .18299866 .4039917 .18299866 .3880005 .18299866 .375 .18099976 .36299134 .1769867 .35099793 .17298889 .33799745 .16899109 .32699586 .1659851 .31799317 .1559906 .29100038 .14698792 .2679901 .13999939 .24699402 .1329956 .22599793 .1269989 .20799256 .12199402 .19099427 .116989139 .17399597 .11399841 .15899658 .11199951 .1459961 .10899353 .1329956 .10798645 .11999512 .10798645 .10798645 .10798645 .085998538 .11199951 .066986087 .11898804 .051986696 .12599182 .036987306 .13598633 .023986817 .14698792 .01499939 .1579895 .005996704 .17098999-.0010070801 .18598938-.005004883 .20098877-.009002686 .21499634-.011001587 .22999573-.011001587 .24899292-.011001587 .2679901-.007003784 .2849884 .0009918213 .3019867 .008987427 .31698609 .019989014 .33099366 .033996583 .32398988 .0079956059 .31698609-.018005372 .30899049-.043014528 .2999878-.06800842 .28599549-.09300232 .2659912-.120010379 .25299073-.13700867 .23699951-.15200806 .21899414-.16500855 .19999695-.17700196 .1789856-.18301392 .1559906-.18301392 .15299988-.18301392 .147995-.18301392 .14099121-.18200684 .13398743-.18101502 .12599182-.18000794 .11898804-.17700196 .11199951-.17401123 .10398865-.16900635 .09700012-.16400147 .08999634-.15901184 .083999637-.15100098 .07998657-.14100647 .08799744-.14100647 .09498596-.14100647 .101989749-.14001465 .10899353-.13900757 .115997318-.13500977 .12298584-.12901306 .12799073-.12400818 .1329956-.119003299 .13699341-.11201477 .14099121-.10501099 .14299011-.09701538 .14299011-.088012699 .14299011-.08000183 .14199829-.07400513 .13899231-.070007327 .13598633-.06500244 .13198853-.06201172 .12799073-.059005739 .12399292-.056015016 .11999512-.055007936 .115997318-.054000856 .11199951-.053009035 .10899353-.053009035 .10598755-.053009035 .099990848-.053009035 .09399414-.054000856 .08799744-.057006837 .08099365-.059005739 .07499695-.06300354 .069992069-.06800842 .06399536-.073013309 .05899048-.07901001 .055999757-.088012699 .051986696-.0960083 .049987794-.10600281 .049987794-.118011478 .049987794-.14300537 .05999756-.16400147 .07998657-.18101502 .09899902-.19700623 .125-.20500183 .1559906-.20500183 .18199158-.20500183 .20799256-.2000122 .23298645-.18901062 .2579956-.17800904 .2809906-.16400147 .3019867-.14601135 .32299806-.12701416 .34098817-.10600281 .35598756-.08100891 .37098695-.056015016 .3829956-.029006958 .3899994-.0010070801L.48599244 .3809967Z" />

<path id="font_3_4" d="M.37399293 .60598757C.37599183 .61499026 .37799073 .621994 .3809967 .6279907 .3829956 .6339874 .3869934 .6389923 .3929901 .6429901 .39898683 .6459961 .4079895 .6489868 .4189911 .6499939 .42999269 .651001 .44499208 .6519928 .46499635 .6519928 .47698976 .6519928 .4850006 .6529999 .48999024 .6549988 .49499513 .6559906 .49699403 .6619873 .49699403 .67099 .49699403 .6769867 .49499513 .68099978 .4909973 .6819916 .4869995 .68299868 .48399354 .68299868 .48199464 .68299868 .47499085 .68299868 .46499635 .68299868 .45298768 .68299868 .44099427 .6819916 .42900086 .6819916 .41600038 .6819916 .40299989 .68099978 .3909912 .68099978 .3789978 .68099978 .36698915 .6799927 .35699464 .6799927 .34999085 .6799927 .34298707 .6799927 .33299256 .6799927 .32099916 .68099978 .30899049 .68099978 .29699708 .68099978 .28399659 .6819916 .2709961 .6819916 .2579956 .6819916 .24598694 .68299868 .23399353 .68299868 .22399903 .68299868 .21699524 .68299868 .21398926 .68299868 .20999146 .6819916 .20498657 .68099978 .19999695 .67900088 .19699097 .6729889 .19699097 .6629944 .19699097 .6579895 .19898987 .6549988 .20399475 .6539917 .20899964 .6529999 .21598816 .6519928 .22499085 .6519928 .24598694 .6519928 .2630005 .651001 .27598573 .6499939 .28799439 .647995 .2939911 .6419983 .2939911 .6329956 .2939911 .6299896 .2939911 .6279907 .2939911 .6259918 .2939911 .625 .29299928 .621994 .2919922 .61698916L.15699768 .07798767C.15499878 .068984989 .15299988 .06098938 .15098572 .054992677 .147995 .04899597 .14399719 .04399109 .13798523 .040985109 .13198853 .036987306 .12399292 .033996583 .11299133 .032989503 .101989749 .03199768 .085998538 .0309906 .06599426 .0309906 .054992677 .0309906 .04699707 .02999878 .041992189 .0289917 .036987306 .026992798 .033996583 .020996094 .033996583 .010986328 .033996583 .005996704 .035995485 .0029907227 .040985109 .0019989014 .04499817 .0009918213 .04798889 0 .04899597 0 .055999757 0 .06599426 0 .07798767 .0009918213 .08898926 .0009918213 .101989749 .0009918213 .114990238 .0019989014 .12799073 .0019989014 .13999939 .0019989014 .1519928 .0029907227 .16299439 .0029907227 .17298889 .0029907227 .17999268 .0029907227 .18699646 .0029907227 .19699097 .0029907227 .20899964 .0029907227 .22099304 .0019989014 .23399353 .0019989014 .24699402 .0019989014 .2599945 .0009918213 .27198792 .0009918213 .2849884 .0009918213 .29699708 0 .30699159 0 .31399537 0 .31799317 0 .32199098 .0009918213 .32699586 .0029907227 .33198548 .0039978029 .33399964 .009994507 .33399964 .018997193 .33399964 .024993897 .33198548 .0289917 .32798768 .02999878 .32299806 .0309906 .31498719 .0309906 .3039856 .0309906 .29499818 .0309906 .28799439 .0309906 .2829895 .0309906 .27799989 .0309906 .2709961 .03199768 .26098634 .032989503 .25 .033996583 .24398804 .035995485 .24099732 .038986207 .23799134 .040985109 .23599243 .04499817 .23599243 .049987794 .23599243 .053985597 .23599243 .057998659 .23699951 .06199646 .23799134 .06599426 .23899842 .069992069 .23999024 .07299805L.37399293 .60598757Z" />

<path id="font_3_7" d="M.33399964 .3019867C.33499146 .30899049 .33799745 .31900025 .34199525 .33198548 .34599305 .34498597 .35198976 .35798646 .3600006 .37098695 .36698915 .38398744 .3769989 .394989 .3889923 .40499879 .40098573 .4149933 .41600038 .41999818 .43299867 .41999818 .43598939 .41999818 .44198609 .41999818 .45199586 .4189911 .46199037 .41799928 .47200013 .4139862 .48298646 .40699769 .46899415 .4039917 .45799256 .397995 .44898988 .3869934 .43998719 .37599183 .43499757 .36499024 .43499757 .35299684 .43499757 .34498597 .43798829 .33699037 .44400025 .32998658 .44999696 .32199098 .45999146 .31799317 .47299195 .31799317 .47799684 .31799317 .48399354 .31900025 .4909973 .32199098 .49699403 .32398988 .5029907 .32699586 .5079956 .33198548 .5130005 .33699037 .5179901 .34298707 .5219879 .34999085 .5249939 .35699464 .5269928 .3659973 .5269928 .37599183 .5269928 .3889923 .5239868 .39898683 .5169983 .4079895 .5099945 .4169922 .5019989 .42399598 .49299623 .42900086 .48399354 .43399049 .47399903 .43699647 .46299745 .43899537 .45199586 .44099427 .44299317 .44198609 .43399049 .44198609 .4189911 .44198609 .4059906 .43899537 .394989 .43399049 .3829956 .42799378 .37298585 .42099 .3639984 .41299439 .35499574 .40499879 .34799195 .39698792 .34199525 .3880005 .33599855 .3789978 .33198548 .37199403 .32899476 .3659973 .32299806 .3829956 .31498719 .3959961 .30599977 .4059906 .29699708 .41600038 .2869873 .42399598 .2769928 .42900086 .2659912 .43399049 .2559967 .43798829 .24699402 .43998719 .23699951 .44099427 .22799683 .44198609 .22099304 .44198609 .19499207 .44198609 .17199707 .43499757 .1519928 .42199708 .13198853 .4079895 .114990238 .3919983 .101989749 .375 .08799744 .35699464 .07798767 .33999635 .070999149 .32299806 .06399536 .30599977 .05999756 .2939911 .05999756 .28799439 .05999756 .2829895 .06199646 .27999879 .06498718 .2789917 .067993167 .27799989 .070999149 .27799989 .07199097 .27799989 .07899475 .27799989 .083999637 .28199769 .084991458 .2889862 .09399414 .31599427 .10398865 .33799745 .115997318 .35499574 .1269989 .37199403 .13899231 .3849945 .1519928 .394989 .16499329 .4039917 .1769867 .41099549 .18899536 .4149933 .19999695 .41799928 .20999146 .41999818 .21899414 .41999818 .22399903 .41999818 .22898865 .4189911 .23599243 .41799928 .24198914 .41600038 .24798584 .41299439 .25299073 .4079895 .2579956 .40299989 .2630005 .39698792 .2669983 .3880005 .2709961 .3789978 .272995 .36799623 .272995 .35299684 .272995 .33799745 .2689972 .31199647 .2599945 .2749939 .25099183 .23799134 .23799134 .18499756 .21899414 .114990238 .21099854 .083999637 .19898987 .05899048 .18199158 .039993287 .16499329 .020996094 .1459961 .010986328 .12399292 .010986328 .12098694 .010986328 .11399841 .011993408 .10499573 .0129852299 .09498596 .01399231 .084991458 .016998291 .07398987 .023986817 .08699036 .026992798 .09799194 .032989503 .10699463 .042999269 .115997318 .051986696 .12098694 .06399536 .12098694 .07798767 .12098694 .09098816 .116989139 .100997928 .10798645 .10598755 .09899902 .11099243 .09098816 .11299133 .083999637 .11299133 .068984989 .11299133 .055999757 .10699463 .04499817 .09599304 .033996583 .084991458 .0289917 .070999149 .0289917 .054992677 .0289917 .04399109 .03199768 .033996583 .037994386 .025985718 .042999269 .016998291 .050994874 .009994507 .05999756 .004989624 .068984989 0 .07899475-.0040130617 .08999634-.007003784 .100997928-.010009766 .11199951-.011001587 .12298584-.011001587 .13999939-.011001587 .1539917-.007003784 .16699219 0 .17999268 .0069885256 .18998719 .015991211 .19898987 .024993897 .20799256 .033996583 .21499634 .041992189 .21998596 .050994874 .22499085 .05899048 .22698975 .06399536 .22799683 .06498718 .23399353 .04598999 .24598694 .0289917 .2639923 .0129852299 .28199769-.0030059815 .30599977-.011001587 .33599855-.011001587 .3619995-.011001587 .3849945-.0040130617 .40499879 .009994507 .42399598 .022994996 .44099427 .038986207 .45498658 .056991579 .46798707 .07398987 .47898866 .09199524 .48599244 .10899353 .49299623 .12599182 .49598695 .13699341 .49598695 .14299011 .49598695 .147995 .49398805 .15098572 .4909973 .1519928 .48799134 .15299988 .4850006 .15299988 .48399354 .15299988 .47898866 .15299988 .47599793 .1519928 .47499085 .1499939 .47399903 .147995 .47200013 .14498902 .47099305 .14199829 .46299745 .114990238 .45298768 .09399414 .44099427 .07699585 .42900086 .05999756 .4169922 .04598999 .4039917 .036987306 .3909912 .026992798 .3789978 .019989014 .36799623 .016998291 .35598756 .0129852299 .34599305 .010986328 .33799745 .010986328 .31900025 .010986328 .30499269 .017990113 .29599 .0309906 .2869873 .04399109 .2829895 .05999756 .2829895 .07699585 .2829895 .08799744 .2849884 .099990848 .28799439 .11299133 .29100038 .12599182 .29499818 .14299011 .2999878 .16499329L.33399964 .3019867Z" />

<path id="font_3_2" d="M.08799744 .05899048C.08699036 .051986696 .084991458 .042999269 .08299255 .033996583 .07998657 .024993897 .07899475 .018997193 .07899475 .015991211 .07899475 .0069885256 .08198547 0 .08799744-.005004883 .09399414-.009002686 .100997928-.011001587 .10798645-.011001587 .11399841-.011001587 .12098694-.009002686 .1289978-.005004883 .13598633 0 .14199829 .0069885256 .14498902 .016998291 .1459961 .017990113 .147995 .025985718 .1519928 .040985109 .15499878 .055999757 .15899658 .07199097 .1639862 .09098816 .16899109 .10899353 .17298889 .12599182 .1769867 .14299011 .18099976 .1599884 .18399048 .16999817 .18499756 .1749878 .18699646 .18299866 .18998719 .19299317 .19299317 .20498657 .19599915 .21699524 .19898987 .22898865 .20199585 .24198914 .20498657 .25498963 .20799256 .2669983 .21099854 .27799989 .21398926 .2889862 .21598816 .2979889 .21699524 .30499269 .21798706 .30799867 .21998596 .31399537 .22399903 .32099916 .22799683 .32798768 .23298645 .33499146 .23799134 .34298707 .24299622 .35099793 .24798584 .35899354 .25498963 .36698915 .26098634 .375 .2669983 .38198854 .272995 .3869934 .2749939 .3889923 .27799989 .3919983 .2829895 .3959961 .28799439 .39898683 .29299928 .40299989 .2999878 .40699769 .30699159 .4099884 .31498719 .41299439 .32398988 .41600038 .33299256 .4189911 .34199525 .41999818 .35299684 .41999818 .3659973 .41999818 .3769989 .41799928 .38398744 .4139862 .3909912 .4099884 .3939972 .4079895 .394989 .4079895 .37998963 .40499879 .36698915 .39898683 .35798646 .3889923 .34799195 .37799073 .34298707 .3659973 .34298707 .35299684 .34298707 .34498597 .34599305 .33699037 .35198976 .32998658 .35798646 .32199098 .36799623 .31799317 .3809967 .31799317 .3939972 .31799317 .40699769 .32299806 .4189911 .33399964 .42999269 .34498597 .43598939 .35899354 .43598939 .3769989 .43598939 .3939972 .42900086 .4099884 .4139862 .4229889 .39898683 .43598939 .37799073 .44198609 .35299684 .44198609 .33699037 .44198609 .32199098 .43899537 .30899049 .43399049 .29499818 .42900086 .2829895 .42199708 .27198792 .4139862 .26098634 .4059906 .2519989 .397995 .24398804 .3889923 .23599243 .37998963 .22999573 .37199403 .22499085 .36499024 .22099304 .3880005 .21099854 .4059906 .19400025 .42099 .1769867 .43499757 .15699768 .44198609 .13398743 .44198609 .12298584 .44198609 .11299133 .43998719 .10499573 .43598939 .09599304 .43099977 .08898926 .42599488 .08299255 .41999818 .07699585 .4139862 .07199097 .4079895 .068984989 .4019928 .06498718 .394989 .06199646 .3899994 .05999756 .3849945 .054992677 .37599183 .050994874 .36698915 .04798889 .35598756 .04399109 .34498597 .040985109 .33499146 .037994386 .32499696 .034988405 .31498719 .032989503 .30699159 .03199768 .2999878 .02999878 .29299928 .0289917 .2889862 .0289917 .28799439 .0289917 .2829895 .0309906 .27999879 .033996583 .2789917 .036987306 .27799989 .039993287 .27799989 .040985109 .27799989 .04598999 .27799989 .049987794 .2789917 .050994874 .2809906 .051986696 .2829895 .054992677 .2899933 .057998659 .30099488 .066986087 .33699037 .07699585 .3659973 .08799744 .3880005 .09899902 .40899659 .11299133 .41999818 .1309967 .41999818 .13999939 .41999818 .14698792 .4169922 .15299988 .4119873 .15899658 .4059906 .1619873 .3929901 .1619873 .37399293 .1619873 .36898805 .1619873 .3639984 .1619873 .3600006 .16099549 .35499574 .1599884 .34999085 .15899658 .34399415 .1579895 .33799745 .1559906 .33099366 .1539917 .32199098 .1519928 .31298829 .14898682 .30299378 .1459961 .2899933L.08799744 .05899048Z" />

<path id="font_3_3" d="M.20599365 .3999939H.2999878C.30999757 .3999939 .31799317 .40098573 .32299806 .40299989 .32798768 .4039917 .32998658 .4099884 .32998658 .41999818 .32998658 .4249878 .32798768 .42900086 .32299806 .42999269 .31799317 .43099977 .31098939 .43099977 .3019867 .43099977H.21398926C.22299195 .46598817 .22999573 .49499513 .23599243 .5159912 .24099732 .5369873 .24499512 .55400088 .24798584 .56599429 .25099183 .5779877 .25299073 .58599856 .2539978 .59098818 .25498963 .59498599 .25498963 .59799197 .25498963 .598999 .25498963 .60798647 .2519989 .6139984 .24699402 .61898806 .24198914 .6239929 .23498535 .6259918 .22599793 .6259918 .22499085 .6259918 .22299195 .6259918 .21998596 .6259918 .21699524 .625 .21299744 .6239929 .20899964 .621994 .20399475 .61898806 .19999695 .6159973 .19599915 .61099246 .19099427 .60598757 .18798828 .598999 .18598938 .58999636L.14698792 .43099977H.052993776C.042999269 .43099977 .035995485 .42999269 .0309906 .42900086 .025985718 .4269867 .022994996 .42099 .022994996 .4119873 .022994996 .4059906 .024993897 .40299989 .02999878 .4019928 .033996583 .40098573 .040985109 .3999939 .050994874 .3999939H.13899231C.1269989 .35299684 .116989139 .31199647 .10899353 .2789917 .099990848 .24598694 .09298706 .21798706 .08799744 .19499207 .08198547 .17199707 .07699585 .1539917 .07398987 .14099121 .070999149 .1269989 .067993167 .115997318 .066986087 .10899353 .06498718 .100997928 .06399536 .09498596 .06399536 .09098816 .06298828 .08699036 .06298828 .083999637 .06298828 .08099365 .06298828 .053985597 .07199097 .03199768 .08898926 .01499939 .10598755-.0030059815 .12799073-.011001587 .15499878-.011001587 .17999268-.011001587 .20298767-.0030059815 .22299195 .011993408 .24198914 .026992798 .25898744 .04399109 .272995 .06298828 .28599549 .08198547 .29699708 .09899902 .3039856 .115997318 .31098939 .13198853 .31399537 .14099121 .31399537 .14299011 .31399537 .147995 .31298829 .15098572 .30999757 .1519928 .30699159 .15299988 .3039856 .15299988 .3019867 .15299988 .29699708 .15299988 .2939911 .1519928 .29299928 .1499939 .2919922 .147995 .2899933 .14399719 .2869873 .13899231 .27598573 .11299133 .2649994 .09199524 .2539978 .07499695 .24198914 .057998659 .22999573 .04499817 .21899414 .035995485 .20698548 .026992798 .19599915 .019989014 .18598938 .016998291 .1749878 .0129852299 .1659851 .010986328 .15699768 .010986328 .1459961 .010986328 .13899231 .01499939 .13398743 .021987915 .1289978 .0289917 .12599182 .039993287 .12599182 .056991579 .12599182 .068984989 .1269989 .07798767 .12799073 .083999637 .1289978 .08898926 .12998963 .09599304 .13198853 .10499573L.20599365 .3999939Z" />

<path id="font_5_3" d="M.68699648 .32699586C.69400027 .32699586 .70199587 .32798768 .70999148 .32998658 .71699526 .33099366 .72099307 .33699037 .72099307 .34700013 .72099307 .35699464 .71699526 .36299134 .70999148 .36499024 .7029877 .3659973 .69499209 .36698915 .6879883 .36698915H.08898926C.08198547 .36698915 .07398987 .3659973 .066986087 .36499024 .05999756 .36299134 .055999757 .35699464 .055999757 .34700013 .055999757 .33699037 .05999756 .33099366 .067993167 .32998658 .07499695 .32798768 .08299255 .32699586 .08999634 .32699586H.68699648M.6879883 .1329956C.69499209 .1329956 .7029877 .13398743 .70999148 .13598633 .71699526 .13699341 .72099307 .14299011 .72099307 .15299988 .72099307 .16299439 .71699526 .16899109 .70999148 .17098999 .70199587 .17199707 .69400027 .17298889 .68699648 .17298889H.08999634C.08299255 .17298889 .07499695 .17199707 .067993167 .17098999 .05999756 .16899109 .055999757 .16299439 .055999757 .15299988 .055999757 .14299011 .05999756 .13699341 .066986087 .13598633 .07398987 .13398743 .08198547 .1329956 .08898926 .1329956H.6879883Z" />

<path id="font_5_2" d="M.45999146 .31999208C.45999146 .3600006 .45799256 .3999939 .45298768 .43899537 .44799806 .47799684 .43699647 .5169983 .41999818 .55400088 .40899659 .5779877 .394989 .5970001 .37998963 .6119995 .36499024 .6269989 .34899903 .6380005 .33399964 .6459961 .31799317 .6539917 .30299378 .6589966 .28799439 .6619873 .272995 .6649933 .26098634 .66600039 .25 .66600039 .23498535 .66600039 .21899414 .6639862 .20298767 .6609955 .18699646 .6569977 .17098999 .651001 .1559906 .6419983 .14099121 .6329956 .12599182 .6199951 .11199951 .6049957 .09799194 .58999636 .085998538 .56999209 .07598877 .5469971 .05999756 .5119934 .049987794 .47599793 .04598999 .43798829 .040985109 .39898683 .038986207 .3600006 .038986207 .31999208 .038986207 .30099488 .039993287 .28199769 .040985109 .2619934 .041992189 .24099732 .04399109 .22099304 .04699707 .19999695 .049987794 .1789856 .053985597 .15899658 .05999756 .13798523 .06599426 .116989139 .07398987 .09799194 .083999637 .07899475 .09498596 .05899048 .10699463 .041992189 .12098694 .0289917 .1349945 .015991211 .1499939 .004989624 .16499329-.0020141602 .17999268-.009002686 .19400025-.015014648 .20899964-.018005372 .22399903-.021011353 .23699951-.022003174 .24899292-.022003174 .2619934-.022003174 .2769928-.020004273 .29299928-.01701355 .30799867-.014007568 .32398988-.008010864 .33999635 .0009918213 .35499574 .008987427 .36999513 .020996094 .3849945 .035995485 .39898683 .050994874 .4119873 .069992069 .4229889 .09399414 .43899537 .1289978 .44898988 .16499329 .45399476 .20298767 .45799256 .24099732 .45999146 .27999879 .45999146 .31999208M.24899292 0C.23899842 0 .22799683 .0019989014 .21699524 .005996704 .20599365 .008987427 .19499207 .015991211 .18399048 .024993897 .17298889 .033996583 .16299439 .04598999 .1539917 .06199646 .14498902 .07699585 .13798523 .09700012 .1329956 .12098694 .12998963 .13598633 .12799073 .1519928 .1269989 .17098999 .125 .18899536 .12399292 .20799256 .12298584 .22698975 .12199402 .24598694 .12199402 .2639923 .12199402 .28199769 .12199402 .30099488 .12199402 .31698609 .12199402 .33198548 .12199402 .3639984 .12199402 .3959961 .12298584 .42799378 .12399292 .45899964 .12599182 .4889984 .12998963 .5159912 .1349945 .54599 .14199829 .56999209 .15299988 .58699038 .1639862 .60398867 .1749878 .6159973 .18699646 .625 .19898987 .6329956 .21099854 .6380005 .22299195 .6409912 .23399353 .6429901 .24299622 .6439972 .24899292 .6439972 .25698854 .6439972 .2669983 .6429901 .2789917 .6399994 .2899933 .6369934 .3019867 .6309967 .31298829 .6230011 .32398988 .6139984 .33499146 .60198977 .34498597 .58699038 .35499574 .57199099 .3619995 .5519867 .36698915 .5269928 .37199403 .49899293 .375 .46798707 .37599183 .43299867 .3769989 .397995 .3769989 .3639984 .3769989 .33198548 .3769989 .2939911 .3769989 .2579956 .37599183 .22399903 .375 .18998719 .37098695 .15699768 .3659973 .125 .3619995 .100997928 .35598756 .08099365 .34799195 .06498718 .33898927 .04899597 .32998658 .035995485 .31900025 .026992798 .30799867 .016998291 .29599 .009994507 .28399659 .005996704 .27198792 .0019989014 .2599945 0 .24899292 0Z" />

<path id="font_3_12" d="M.375 .6139984C.37799073 .6259918 .38198854 .6349945 .3849945 .6409912 .3880005 .6459961 .3939972 .6499939 .40299989 .651001 .4079895 .6519928 .41600038 .6519928 .42900086 .6519928 .44198609 .6519928 .45399476 .6519928 .46398927 .6519928 .48199464 .6519928 .5019989 .6519928 .522995 .651001 .5439911 .6499939 .5629883 .6459961 .58200076 .6399994 .59999087 .6329956 .61499026 .6230011 .6279907 .6100006 .6399994 .5970001 .6459961 .5779877 .6459961 .5529938 .6459961 .5439911 .644989 .5339966 .6429901 .5219879 .6409912 .5099945 .6380005 .49699403 .6329956 .48399354 .6279907 .47099305 .6230011 .45799256 .6159973 .44499208 .60899356 .43199159 .6009979 .42099 .59098818 .41099549 .5779877 .397995 .5569916 .3849945 .5299988 .37199403 .5029907 .35899354 .46699525 .35299684 .42199708 .35299684H.30999757L.375 .6139984M.5189972 .33999635C.5439911 .34498597 .56999209 .35398866 .59599307 .36499024 .621994 .37599183 .6459961 .3899994 .6669922 .40699769 .6879883 .42399598 .70599368 .44299317 .71899417 .46398927 .7319946 .4850006 .7389984 .5079956 .7389984 .5329895 .7389984 .55400088 .73399356 .57398989 .72299197 .59298709 .71199038 .61099246 .69699099 .6269989 .6779938 .6399994 .6579895 .6529999 .6349945 .6639862 .60798647 .6719971 .58099368 .67900088 .5509949 .68299868 .5179901 .68299868H.23298645C.22299195 .68299868 .21598816 .6819916 .21099854 .68099978 .20599365 .67900088 .20399475 .6729889 .20399475 .6629944 .20399475 .6579895 .20599365 .6549988 .21099854 .6539917 .21598816 .6529999 .22299195 .6519928 .23199463 .6519928 .23298645 .6519928 .23799134 .6519928 .24499512 .6519928 .25299073 .6519928 .26098634 .651001 .269989 .6499939 .2789917 .6489868 .28599549 .6469879 .29100038 .6459961 .29499818 .644989 .29699708 .6409912 .29699708 .6339874 .29699708 .6319885 .29699708 .6299896 .29599 .6279907 .29499818 .625 .2939911 .62098696 .29299928 .61499026L.15899658 .07798767C.1559906 .067993167 .1539917 .05999756 .1519928 .053985597 .14898682 .04798889 .14498902 .042999269 .13999939 .039993287 .13398743 .036987306 .12599182 .033996583 .114990238 .032989503 .10398865 .03199768 .08799744 .0309906 .067993167 .0309906 .05899048 .0309906 .051986696 .02999878 .04798889 .0289917 .042999269 .026992798 .040985109 .020996094 .040985109 .010986328 .040985109 .005996704 .042999269 .0029907227 .04699707 .0019989014 .050994874 .0009918213 .053985597 0 .054992677 0 .06199646 0 .070999149 0 .08299255 .0009918213 .09399414 .0009918213 .10598755 .0009918213 .117996219 .0019989014 .12998963 .0019989014 .14199829 .0019989014 .15299988 .0029907227 .1639862 .0029907227 .17399597 .0029907227 .18099976 .0029907227 .18798828 .0029907227 .19699097 .0029907227 .20899964 .0029907227 .21998596 .0019989014 .23199463 .0019989014 .24499512 .0019989014 .25698854 .0009918213 .2689972 .0009918213 .27999879 .0009918213 .29100038 0 .30099488 0 .30799867 0 .31199647 0 .31599427 .0009918213 .32099916 .0029907227 .32598878 .0039978029 .32798768 .009994507 .32798768 .019989014 .32798768 .024993897 .32598878 .0289917 .32099916 .02999878 .31599427 .0309906 .30899049 .0309906 .2999878 .0309906 .2809906 .0309906 .2659912 .03199768 .2539978 .032989503 .24099732 .033996583 .23498535 .039993287 .23498535 .04899597 .23498535 .051986696 .23498535 .054992677 .23599243 .057998659 .23699951 .05999756 .23699951 .06298828 .23799134 .06599426L.3039856 .33099366H.4229889C.44599916 .33099366 .46398927 .32798768 .47898866 .32199098 .49299623 .31498719 .5039978 .30799867 .5119934 .29899598 .519989 .2899933 .5249939 .27999879 .5279999 .2689972 .5309906 .2579956 .5319977 .24899292 .5319977 .23999024 .5319977 .23298645 .5309906 .22200012 .5279999 .20899964 .5249939 .19499207 .5209961 .18199158 .5179901 .17098999 .5149994 .15699768 .5109863 .14199829 .5079956 .12599182 .5039978 .10899353 .5019989 .09599304 .5019989 .085998538 .5019989 .05899048 .5079956 .037994386 .5209961 .023986817 .5339966 .008987427 .5479889-.0020141602 .56399539-.009002686 .57899478-.01600647 .59399417-.020004273 .60899356-.021011353 .6230011-.022003174 .6319885-.022003174 .6349945-.022003174 .6559906-.022003174 .6749878-.01701355 .6899872-.006011963 .7049866 .004989624 .71699526 .016998291 .72698977 .02999878 .73599246 .042999269 .7429962 .055999757 .7480011 .068984989 .7529907 .08198547 .7549896 .08999634 .7549896 .09298706 .7549896 .09899902 .7529907 .102996829 .75 .10398865 .74598696 .10499573 .74398806 .10499573 .7429962 .10499573 .73799136 .10499573 .7350006 .10398865 .73399356 .100997928 .73298647 .09799194 .73098757 .09399414 .7299957 .09098816 .723999 .07199097 .71699526 .056991579 .70899966 .04598999 .69999697 .033996583 .69200137 .024993897 .6839905 .017990113 .6749878 .010986328 .6669922 .0069885256 .6599884 .0039978029 .6519928 .0009918213 .644989 0 .6389923 0 .621994 0 .6119995 .004989624 .6069946 .015991211 .60198977 .026992798 .598999 .041992189 .598999 .06098938 .598999 .068984989 .598999 .07798767 .59999087 .08799744 .6009979 .09700012 .60198977 .10699463 .6029968 .117996219 .60398867 .12799073 .6049957 .13798523 .60598757 .147995 .6069946 .1579895 .60798647 .16699219 .60899356 .1749878 .6100006 .18199158 .61099246 .18998719 .6119995 .19898987 .61299136 .20698548 .61299136 .21499634 .61299136 .22200012 .61299136 .24099732 .60899356 .2579956 .60198977 .27198792 .59498599 .2849884 .58599856 .29699708 .57598879 .30599977 .56599429 .31498719 .55599978 .32299806 .54499819 .32798768 .5339966 .33299256 .526001 .33699037 .5189972 .33999635Z" />

<path id="font_3_1" d="M.7200012 .6589966C.72099307 .6609955 .72099307 .6629944 .7220001 .66600039 .72299197 .66799929 .72299197 .67099 .72299197 .673996 .72299197 .67900088 .72099307 .68099978 .71798709 .6819916 .71499636 .68299868 .70799258 .68299868 .69799807 .68299868H.27598573C.2639923 .68299868 .25698854 .6819916 .2539978 .6799927 .25099183 .6779938 .24798584 .6719971 .24499512 .6629944L.18998719 .48298646C.18899536 .47999574 .18798828 .47799684 .18798828 .47499085 .18699646 .47200013 .18699646 .46998597 .18699646 .46899415 .18699646 .46798707 .18798828 .46598817 .18899536 .46299745 .18998719 .45999146 .19299317 .45799256 .19898987 .45799256 .20399475 .45799256 .20698548 .45899964 .20799256 .46199037 .20899964 .46499635 .21099854 .46699525 .21199036 .46798707 .22099304 .49699403 .23199463 .5239868 .24499512 .5469971 .25698854 .56999209 .27198792 .58898928 .29100038 .6049957 .30999757 .6199951 .33198548 .6319885 .35899354 .6399994 .38598634 .647995 .4189911 .6519928 .45799256 .6519928H.62098696L.06199646 .026992798C.06199646 .025985718 .06098938 .023986817 .05999756 .018997193 .05899048 .01399231 .057998659 .009994507 .057998659 .008987427 .057998659 .0039978029 .05999756 .0019989014 .06399536 .0009918213 .066986087 0 .07398987 0 .08299255 0H.5179901C.5299988 0 .5369873 .0009918213 .5399933 .0029907227 .54299929 .004989624 .54599 .010986328 .548996 .019989014L.6199951 .24099732C.62098696 .24299622 .621994 .24598694 .6230011 .24899292 .6239929 .2519989 .6239929 .2539978 .6239929 .2559967 .6239929 .25898744 .6230011 .26098634 .62098696 .2639923 .61898806 .2659912 .6159973 .2669983 .61099246 .2669983 .60598757 .2669983 .6029968 .2659912 .60198977 .2630005 .59999087 .2599945 .5970001 .25299073 .59399417 .24198914 .58299258 .20799256 .57099917 .17799378 .55799868 .1519928 .54499819 .12599182 .5289917 .10398865 .5099945 .08699036 .4909973 .069992069 .46699525 .056991579 .43899537 .04798889 .4099884 .038986207 .375 .033996583 .33198548 .033996583H.16099549L.7200012 .6589966Z" />

<path id="font_3_14" d="M.027999878-.16900635C.026992798-.17100525 .026992798-.17300415 .025985718-.17601013 .024993897-.17900086 .024993897-.18101502 .024993897-.18400574 .024993897-.18901062 .026992798-.19200135 .02999878-.19300843 .032989503-.1940155 .035995485-.1940155 .036987306-.1940155 .040985109-.1940155 .04399109-.19300843 .04699707-.19000244 .04798889-.18901062 .050994874-.18000794 .054992677-.16500855 .05899048-.14900208 .06399536-.12800598 .070999149-.102005008 .07699585-.07501221 .084991458-.044006349 .09399414-.009002686 .102996829 .025985718 .11199951 .06399536 .12298584 .10499573 .1269989 .08999634 .1329956 .07598877 .14199829 .06199646 .1499939 .04798889 .16099549 .035995485 .17399597 .024993897 .18699646 .01399231 .20298767 .004989624 .22099304-.0020141602 .23899842-.009002686 .2599945-.012008667 .2829895-.012008667 .31599427-.012008667 .34799195-.0040130617 .37998963 .010986328 .4119873 .025985718 .44099427 .04699707 .46598817 .07299805 .4909973 .09799194 .5109863 .12799073 .526001 .16099549 .54100039 .19400025 .548996 .22898865 .548996 .2639923 .548996 .2999878 .5419922 .32899476 .5289917 .35198976 .5149994 .37399293 .49899293 .3909912 .48199464 .40299989 .5169983 .42399598 .54299929 .45098878 .56199648 .48298646 .58099368 .5149994 .58999636 .54599 .58999636 .57699587 .58999636 .59298709 .58699038 .60899356 .58200076 .6239929 .57598879 .6389923 .5669861 .6529999 .55599978 .6649933 .54499819 .6769867 .5309906 .68699648 .5139923 .69400027 .49699403 .70098879 .47799684 .7049866 .45599366 .7049866 .4229889 .7049866 .3919983 .69699099 .36299134 .6819916 .33299256 .66600039 .30599977 .644989 .28199769 .6199951 .25698854 .59498599 .23599243 .56599429 .21899414 .5339966 .20098877 .5019989 .18798828 .46998597 .17999268 .43699647L.027999878-.16900635M.32798768 .40098573C.33299256 .4039917 .33898927 .4059906 .34498597 .40699769 .34999085 .4079895 .3619995 .40899659 .3789978 .40899659 .38598634 .40899659 .3929901 .40899659 .3999939 .40899659 .4059906 .4079895 .4119873 .4059906 .4189911 .40299989 .4099884 .39898683 .3999939 .39698792 .3909912 .3959961 .38198854 .394989 .375 .394989 .37098695 .394989 .36499024 .394989 .3600006 .394989 .35598756 .394989 .35299684 .394989 .34999085 .394989 .34700013 .3959961 .34399415 .3959961 .34098817 .39698792 .33799745 .397995 .33499146 .39898683 .33198548 .3999939 .32798768 .40098573M.44999696 .42099C.43598939 .42599488 .42199708 .42900086 .40899659 .42999269 .394989 .43099977 .38598634 .43099977 .3809967 .43099977 .375 .43099977 .36799623 .43099977 .35899354 .43099977 .34999085 .42999269 .34098817 .42900086 .33299256 .4269867 .32499696 .4249878 .31799317 .42199708 .31199647 .41799928 .30599977 .41299439 .30299378 .40699769 .30299378 .39898683 .30299378 .3919983 .30499269 .3869934 .30999757 .38398744 .31498719 .3809967 .32099916 .37799073 .32798768 .3769989 .33499146 .375 .34199525 .37399293 .34999085 .37399293 .35798646 .37298585 .36499024 .37298585 .37098695 .37298585 .37799073 .37298585 .3889923 .37399293 .4019928 .375 .4149933 .37599183 .42999269 .3789978 .44599916 .38598634 .45700074 .375 .46499635 .3619995 .46998597 .34799195 .47399903 .33299256 .47599793 .31799317 .47599793 .3019867 .47599793 .2919922 .47499085 .2789917 .47299195 .2639923 .46998597 .24798584 .46699525 .23098755 .46299745 .21398926 .45799256 .19599915 .45298768 .17799378 .44699098 .16099549 .44099427 .14299011 .43399049 .1269989 .4269867 .11299133 .42099 .101989749 .4139862 .09098816 .40499879 .07899475 .3959961 .066986087 .3849945 .055999757 .37298585 .04598999 .3600006 .034988405 .34599305 .026992798 .33099366 .019989014 .31599427 .0129852299 .29899598 .009994507 .2809906 .009994507 .25898744 .009994507 .23899842 .01399231 .22200012 .021987915 .20498657 .0289917 .18998719 .039993287 .17799378 .052993776 .1659851 .06599426 .15699768 .08198547 .15098572 .099990848 .14399719 .116989139 .14099121 .13598633 .14099121 .1559906 .14099121 .16799927 .14199829 .1789856 .14399719 .18899536 .1459961 .19898987 .14898682 .21299744 .1539917 .23098755 .1559906 .23999024 .15899658 .2539978 .1639862 .272995 .16899109 .29100038 .17298889 .30999757 .17799378 .32899476 .18299866 .34799195 .18699646 .3659973 .19198609 .3829956 .19599915 .39898683 .19898987 .4099884 .19999695 .41600038 .21199036 .46199037 .22799683 .5019989 .24798584 .5359955 .2669983 .56900027 .2889862 .5970001 .31199647 .61898806 .33499146 .6409912 .3600006 .6569977 .3849945 .66799929 .4099884 .6779938 .43299867 .68299868 .45498658 .68299868 .46199037 .68299868 .46998597 .6819916 .47898866 .6799927 .48799134 .6769867 .49598695 .6729889 .5029907 .6669922 .5099945 .6609955 .5149994 .6529999 .519989 .6429901 .5249939 .6319885 .5269928 .61898806 .5269928 .60198977 .5269928 .59599307 .526001 .58599856 .5239868 .57099917 .5219879 .55599978 .5179901 .5389862 .5130005 .5209961 .5079956 .5029907 .5 .4850006 .48999024 .46699525 .47898866 .44799806 .46598817 .43299867 .44999696 .42099Z" />

<path id="font_3_10" d="M.30299378 .31599427H.47299195C.5079956 .31599427 .54299929 .32199098 .57699587 .33399964 .6100006 .34599305 .6399994 .3619995 .6669922 .38198854 .69299319 .4019928 .71398928 .4249878 .7299957 .45098878 .74598696 .47698976 .7539978 .5039978 .7539978 .5319977 .7539978 .5509949 .75 .56999209 .74198916 .58799746 .73298647 .60598757 .72099307 .621994 .7049866 .6359863 .6879883 .6499939 .66799929 .6609955 .6429901 .66999819 .6179962 .67900088 .58999636 .68299868 .5569916 .68299868H.23298645C.22399903 .68299868 .21598816 .6819916 .21099854 .68099978 .20599365 .67900088 .20298767 .6729889 .20298767 .6639862 .20298767 .6579895 .20498657 .6549988 .20999146 .6539917 .21499634 .6529999 .22200012 .6519928 .23199463 .6519928 .23899842 .6519928 .24598694 .6519928 .2539978 .6519928 .2619934 .651001 .2689972 .651001 .2749939 .6499939 .2829895 .6489868 .2889862 .6469879 .2919922 .644989 .29499818 .6429901 .29699708 .6389923 .29699708 .6339874 .29699708 .6319885 .29699708 .6299896 .29599 .6279907 .29499818 .625 .2939911 .62098696 .29299928 .61499026L.15899658 .07798767C.1559906 .067993167 .1539917 .05999756 .1519928 .053985597 .14898682 .04798889 .14498902 .042999269 .13999939 .039993287 .13398743 .036987306 .12599182 .033996583 .114990238 .032989503 .10398865 .03199768 .08799744 .0309906 .067993167 .0309906 .05899048 .0309906 .052993776 .02999878 .04798889 .0289917 .042999269 .026992798 .039993287 .020996094 .039993287 .011993408 .039993287 .005996704 .041992189 .0029907227 .04699707 .0019989014 .050994874 .0009918213 .053985597 0 .054992677 0 .06199646 0 .070999149 0 .08299255 .0009918213 .09399414 .0009918213 .10598755 .0009918213 .11898804 .0019989014 .1309967 .0019989014 .14299011 .0019989014 .1539917 .0029907227 .16499329 .0029907227 .1749878 .0029907227 .18199158 .0029907227 .19299317 .0029907227 .20298767 .0029907227 .21398926 .0029907227 .22499085 .0019989014 .23498535 .0019989014 .24598694 .0019989014 .25698854 .0019989014 .2679901 .0019989014 .2789917 .0009918213 .2899933 0 .2999878 0 .31098939 0 .31399537 0 .31900025 .0009918213 .32398988 .0029907227 .32899476 .0039978029 .33099366 .009994507 .33099366 .019989014 .33099366 .024993897 .32899476 .0289917 .32398988 .02999878 .31900025 .0309906 .31199647 .0309906 .30299378 .0309906 .28399659 .0309906 .2689972 .03199768 .25698854 .032989503 .24398804 .033996583 .23799134 .039993287 .23799134 .04899597 .23799134 .051986696 .23799134 .054992677 .23899842 .057998659 .23999024 .05999756 .23999024 .06298828 .24099732 .06599426L.30299378 .31599427M.375 .6139984C.3769989 .6230011 .3789978 .6299896 .3809967 .6349945 .3829956 .6399994 .38598634 .6429901 .3889923 .6459961 .3919983 .6489868 .39698792 .6499939 .4039917 .651001 .4099884 .6519928 .41799928 .6519928 .42900086 .6519928H.5249939C.5669861 .6519928 .59999087 .644989 .625 .6299896 .6489868 .61499026 .6609955 .59098818 .6609955 .55599978 .6609955 .54599 .6599884 .5339966 .6579895 .5189972 .6549988 .5049896 .6519928 .48999024 .6469879 .47399903 .6419983 .45799256 .6349945 .44299317 .6279907 .42900086 .62098696 .4139862 .6119995 .40299989 .60198977 .3939972 .57699587 .37199403 .5499878 .35699464 .522995 .35099793 .49499513 .34399415 .46998597 .34098817 .44799806 .34098817H.30699159L.375 .6139984Z" />

<path id="font_3_11" d="M.47099305 .3769989C.47200013 .37998963 .47200013 .3829956 .47299195 .38598634 .47399903 .3889923 .47399903 .3919983 .47399903 .394989 .47399903 .4039917 .47099305 .4099884 .46598817 .4149933 .46099855 .41999818 .45399476 .42199708 .44499208 .42199708 .44198609 .42199708 .43899537 .42199708 .43499757 .42099 .43099977 .41999818 .4269867 .4169922 .4229889 .4139862 .41799928 .41099549 .4139862 .4059906 .41099549 .40098573 .40699769 .394989 .40499879 .3880005 .4039917 .3789978 .394989 .397995 .38198854 .41299439 .3659973 .4249878 .34899903 .43598939 .33099366 .44198609 .31098939 .44198609 .28199769 .44198609 .2539978 .43399049 .22599793 .41799928 .19699097 .4019928 .17199707 .3809967 .14898682 .35398866 .12599182 .32699586 .10798645 .29699708 .09399414 .2630005 .07998657 .22898865 .07299805 .19400025 .07299805 .1579895 .07299805 .1329956 .07699585 .11099243 .083999637 .09199524 .09098816 .07199097 .099990848 .054992677 .11299133 .041992189 .125 .0289917 .13899231 .017990113 .15499878 .010986328 .17098999 .0039978029 .18798828 0 .20599365 0 .22099304 0 .23498535 .0029907227 .24798584 .0079956059 .26098634 .0129852299 .27198792 .017990113 .2829895 .024993897 .29299928 .03199768 .30099488 .037994386 .30799867 .04499817 .31498719 .050994874 .31900025 .054992677 .32199098 .057998659L.32299806 .056991579C.31199647 .011993408 .3039856-.021011353 .29899598-.042007448 .29299928-.06300354 .2899933-.07400513 .2899933-.07501221 .2889862-.07701111 .28599549-.08401489 .2809906-.0960083 .27598573-.10700989 .2679901-.120010379 .25698854-.13301087 .24598694-.14601135 .23098755-.15701294 .21299744-.16801453 .19499207-.17800904 .17298889-.18301392 .1459961-.18301392 .13699341-.18301392 .125-.18301392 .10998535-.18200684 .09498596-.18101502 .07998657-.17800904 .06599426-.17300415 .08099365-.16801453 .09199524-.16101074 .09799194-.15000916 .10398865-.13900757 .10699463-.13000489 .10699463-.1210022 .10699463-.11300659 .10398865-.10501099 .09799194-.0980072 .09199524-.0900116 .08198547-.086013797 .068984989-.086013797 .06399536-.086013797 .057998659-.087005618 .051986696-.0900116 .04499817-.0920105 .038986207-.09500122 .033996583-.1000061 .0289917-.10501099 .023986817-.11100769 .020996094-.118011478 .016998291-.12501526 .01499939-.13400269 .01499939-.14401245 .01499939-.16500855 .024993897-.18000794 .04598999-.19000244 .06599426-.2000122 .099990848-.20500183 .147995-.20500183 .1789856-.20500183 .20698548-.20100403 .23199463-.19200135 .25698854-.18301392 .27799989-.17201233 .29599-.15901184 .31298829-.14500427 .32699586-.13000489 .33799745-.11401367 .34899903-.0980072 .35598756-.08200073 .3600006-.06700134L.47099305 .3769989M.34098817 .12799073C.33799745 .114990238 .33099366 .101989749 .32199098 .08999634 .31199647 .07798767 .30099488 .066986087 .2899933 .057998659 .2789917 .04899597 .2669983 .039993287 .25299073 .032989503 .23799134 .025985718 .22399903 .021987915 .20899964 .021987915 .19599915 .021987915 .18598938 .024993897 .17799378 .0309906 .16899109 .035995485 .16299439 .04399109 .1579895 .052993776 .15299988 .06199646 .14898682 .07199097 .14698792 .08299255 .14498902 .09399414 .14399719 .10398865 .14399719 .11399841 .14399719 .12599182 .1459961 .14199829 .14898682 .16099549 .1519928 .17999268 .15699768 .20098877 .1619873 .22200012 .16699219 .24299622 .17298889 .2630005 .17999268 .2829895 .18699646 .3019867 .19299317 .31799317 .19999695 .33099366 .21299744 .35598756 .22999573 .3769989 .25 .3939972 .269989 .41099549 .29100038 .41999818 .31199647 .41999818 .32899476 .41999818 .34199525 .41600038 .35299684 .4079895 .36299134 .39898683 .37098695 .3899994 .3769989 .3789978 .3829956 .36799623 .3869934 .35899354 .3889923 .34999085 .3909912 .34098817 .3919983 .33499146 .3919983 .33399964 .3919983 .33099366 .3919983 .32899476 .3909912 .32598878 .3899994 .32299806 .3899994 .32099916 .3889923 .31900025L.34098817 .12799073Z" />

<path id="font_3_5" d="M.46798707 .37199403C.46798707 .3849945 .46699525 .39698792 .46398927 .4059906 .46099855 .4149933 .45700074 .42199708 .45298768 .4269867 .44799806 .43199159 .44400025 .43598939 .43899537 .43899537 .43399049 .44099427 .42900086 .44198609 .42399598 .44198609 .41099549 .44198609 .3999939 .43699647 .3899994 .4269867 .37998963 .41600038 .375 .40499879 .375 .3939972 .375 .3869934 .37599183 .38198854 .3789978 .37799073 .38198854 .37399293 .38598634 .36898805 .3909912 .3639984 .4019928 .35398866 .4099884 .34199525 .41600038 .32899476 .42199708 .31599427 .4249878 .2999878 .4249878 .28199769 .4249878 .2749939 .4229889 .2630005 .41999818 .24699402 .4169922 .23098755 .4119873 .21299744 .40499879 .19299317 .397995 .17298889 .3899994 .1519928 .37998963 .1309967 .36999513 .10998535 .35798646 .08999634 .34498597 .07199097 .33198548 .053985597 .31698609 .038986207 .30099488 .027999878 .28399659 .016998291 .2659912 .010986328 .24699402 .010986328 .22200012 .010986328 .20298767 .018997193 .19099427 .034988405 .1789856 .050994874 .17298889 .07199097 .17298889 .09799194 .17298889 .12599182 .1789856 .1579895 .19099427 .19400025 .20199585 .22898865 .21598816 .2679901 .23098755 .30999757 .23399353 .31900025 .23699951 .32699586 .23999024 .33499146 .24198914 .34199525 .24299622 .35099793 .24299622 .3600006 .24299622 .3829956 .23599243 .4019928 .22099304 .41799928 .20599365 .43399049 .18598938 .44198609 .16099549 .44198609 .14498902 .44198609 .1309967 .43798829 .11898804 .43099977 .10598755 .42399598 .09498596 .4149933 .084991458 .4039917 .07499695 .3929901 .066986087 .38198854 .05999756 .36898805 .052993776 .35598756 .04699707 .34298707 .042999269 .33198548 .037994386 .32099916 .034988405 .31098939 .032989503 .30299378 .02999878 .2939911 .0289917 .2889862 .0289917 .28799439 .0289917 .2829895 .0309906 .27999879 .033996583 .2789917 .036987306 .27799989 .039993287 .27799989 .040985109 .27799989 .04598999 .27799989 .049987794 .2789917 .050994874 .2809906 .051986696 .2829895 .053985597 .28799439 .056991579 .29599 .06399536 .32099916 .07199097 .34199525 .08099365 .35798646 .08999634 .37399293 .09899902 .3869934 .10798645 .3959961 .116989139 .40499879 .125 .4119873 .13398743 .4149933 .14299011 .41799928 .15098572 .41999818 .1579895 .41999818 .1619873 .41999818 .16699219 .4189911 .17399597 .41600038 .17999268 .41299439 .18299866 .4039917 .18299866 .3880005 .18299866 .375 .18099976 .36299134 .1769867 .35099793 .17298889 .33799745 .16899109 .32699586 .1659851 .31799317 .15499878 .2889862 .1459961 .2639923 .13899231 .24299622 .13198853 .22200012 .12599182 .20399475 .12098694 .18899536 .115997318 .17298889 .11299133 .15899658 .11199951 .14698792 .10998535 .1349945 .10899353 .12399292 .10899353 .11299133 .10899353 .085998538 .11399841 .06399536 .12399292 .04798889 .1329956 .03199768 .14498902 .019989014 .15899658 .010986328 .17298889 .0019989014 .18798828-.0040130617 .20298767-.007003784 .21798706-.010009766 .23199463-.011001587 .24299622-.011001587 .2709961-.011001587 .29599-.0030059815 .31799317 .01399231 .33999635 .0309906 .35899354 .051986696 .37599183 .07699585 .3929901 .101989749 .40699769 .12998963 .4189911 .16099549 .42999269 .19198609 .43998719 .22099304 .44699098 .25 .45399476 .27799989 .45999146 .30299378 .46299745 .32598878 .46598817 .34799195 .46798707 .36299134 .46798707 .37199403Z" />

<path id="font_3_6" d="M.46199037 .33898927C.46499635 .34999085 .46798707 .36299134 .47200013 .37799073 .47499085 .3919983 .47698976 .40098573 .47698976 .4039917 .47698976 .41299439 .47399903 .41999818 .46798707 .4249878 .46199037 .42900086 .45498658 .43099977 .44799806 .43099977 .44198609 .43099977 .43499757 .42900086 .42799378 .4249878 .41999818 .41999818 .4139862 .41299439 .41099549 .40299989 .4099884 .4019928 .40899659 .3959961 .4059906 .38598634 .40299989 .375 .3999939 .36299134 .39698792 .34799195 .3929901 .33299256 .3889923 .31599427 .38398744 .2979889 .3789978 .27999879 .375 .2630005 .37098695 .24699402 .36698915 .23098755 .3639984 .21699524 .36099244 .20399475 .35798646 .19099427 .35499574 .18299866 .35398866 .1789856 .35099793 .1639862 .34799195 .15098572 .34700013 .14199829 .34599305 .13198853 .34498597 .12199402 .34498597 .11299133 .34498597 .10798645 .34498597 .10398865 .34498597 .101989749 .34498597 .099990848 .34498597 .09799194 .34599305 .09498596 .33499146 .067993167 .32099916 .04798889 .30599977 .032989503 .29100038 .017990113 .272995 .010986328 .2539978 .010986328 .23399353 .010986328 .21899414 .01499939 .20799256 .022994996 .19699097 .0309906 .18899536 .039993287 .18399048 .050994874 .1789856 .06098938 .17599488 .070999149 .1749878 .08099365 .17399597 .09098816 .17399597 .09799194 .17399597 .101989749 .17399597 .10998535 .1749878 .11898804 .17599488 .1289978 .1769867 .13798523 .1789856 .1499939 .18299866 .16499329 .18598938 .17999268 .19099427 .19799805 .19799805 .21899414 .20498657 .23999024 .21398926 .2649994 .22599793 .29599 .23098755 .31098939 .23599243 .32299806 .23899842 .33198548 .24198914 .34098817 .24299622 .34999085 .24299622 .3600006 .24299622 .3829956 .23599243 .4019928 .22099304 .41799928 .20599365 .43399049 .18598938 .44198609 .16099549 .44198609 .14498902 .44198609 .1309967 .43798829 .117996219 .43099977 .10499573 .42399598 .09399414 .4149933 .084991458 .4039917 .07499695 .3929901 .066986087 .38198854 .05999756 .36898805 .052993776 .35598756 .04699707 .34298707 .041992189 .33198548 .036987306 .32099916 .033996583 .31098939 .03199768 .30299378 .02999878 .2939911 .0289917 .2889862 .0289917 .28799439 .0289917 .2829895 .0309906 .27999879 .033996583 .2789917 .036987306 .27799989 .039993287 .27799989 .040985109 .27799989 .04598999 .27799989 .049987794 .2789917 .050994874 .2809906 .051986696 .2829895 .053985597 .28799439 .056991579 .29599 .069992069 .34298707 .085998538 .375 .10499573 .3929901 .12298584 .41099549 .14099121 .41999818 .1579895 .41999818 .16299439 .41999818 .16799927 .4189911 .17399597 .41600038 .17999268 .41299439 .18299866 .40299989 .18299866 .3869934 .18299866 .37399293 .18099976 .3619995 .1769867 .34899903 .17199707 .33599855 .16799927 .32598878 .16499329 .31698609 .1539917 .28799439 .14498902 .2619934 .13798523 .24099732 .1309967 .21998596 .125 .20098877 .12098694 .18598938 .115997318 .17098999 .11299133 .15699768 .11199951 .1459961 .10998535 .1349945 .10899353 .12399292 .10899353 .114990238 .10899353 .09199524 .11299133 .07299805 .12098694 .056991579 .12799073 .040985109 .13899231 .027999878 .1519928 .017990113 .16499329 .0079956059 .17999268 .0009918213 .19699097-.0040130617 .21398926-.009002686 .23199463-.011001587 .25099183-.011001587 .25498963-.011001587 .26098634-.011001587 .2689972-.010009766 .27598573-.009002686 .2849884-.007003784 .29499818-.0030059815 .3039856 .0019989014 .31399537 .008987427 .32499696 .018997193 .33499146 .027999878 .34498597 .041992189 .35499574 .05899048 .3619995 .042999269 .37098695 .02999878 .38198854 .020996094 .3929901 .011993408 .4039917 .004989624 .41600038 0 .42799378-.005004883 .43998719-.008010864 .45199586-.009002686 .46299745-.010009766 .47299195-.011001587 .47999574-.011001587 .49899293-.011001587 .5159912-.007003784 .5309906 0 .54599 .0069885256 .5589905 .016998291 .57099917 .027999878 .58299258 .038986207 .59298709 .051986696 .60198977 .066986087 .61099246 .08198547 .6179962 .09700012 .625 .11199951 .6339874 .1309967 .6419983 .1539917 .6499939 .1789856 .6579895 .20399475 .6649933 .22799683 .67099 .25299073 .6769867 .27799989 .6819916 .30099488 .6859894 .32199098 .68899539 .34298707 .69099429 .3600006 .69099429 .37199403 .69099429 .39898683 .6859894 .41799928 .6759949 .42799378 .6649933 .43699647 .6559906 .44198609 .6469879 .44198609 .6339874 .44198609 .6230011 .43699647 .61299136 .4269867 .60198977 .41600038 .5970001 .40499879 .5970001 .3939972 .5970001 .3869934 .59799197 .38198854 .6009979 .3789978 .60398867 .375 .6069946 .37098695 .6119995 .36698915 .61698916 .3619995 .625 .35198976 .6339874 .33898927 .6429901 .32499696 .647995 .30599977 .647995 .28199769 .647995 .272995 .6459961 .26098634 .6429901 .24598694 .6399994 .23098755 .6349945 .21398926 .6299896 .19699097 .625 .17999268 .61898806 .1619873 .61299136 .14498902 .60598757 .1269989 .59999087 .11199951 .59298709 .09899902 .5799866 .07199097 .56399539 .050994874 .5469971 .034988405 .5289917 .018997193 .5079956 .010986328 .48298646 .010986328 .45999146 .010986328 .44198609 .017990113 .42900086 .032989503 .41600038 .04798889 .40899659 .068984989 .40899659 .09799194 .40899659 .11199951 .4099884 .12599182 .41299439 .13999939 .41600038 .15299988 .41799928 .1639862 .41999818 .17098999L.46199037 .33898927Z" />

<path id="font_5_1" d="M.23498535 .24899292C.23498535 .27999879 .23999024 .30799867 .25099183 .33299256 .26098634 .35798646 .272995 .3789978 .28799439 .397995 .3019867 .4169922 .31698609 .43199159 .33198548 .44400025 .34700013 .45599366 .35798646 .46499635 .36698915 .47200013 .37998963 .48199464 .3919983 .49598695 .40098573 .5130005 .4099884 .5299988 .4149933 .548996 .4149933 .56999209 .4149933 .58499148 .4119873 .59999087 .40699769 .6159973 .40098573 .6309967 .3909912 .6459961 .3769989 .6589966 .3619995 .6719971 .34298707 .68299868 .31900025 .69200137 .2939911 .70098879 .2630005 .7049866 .22599793 .7049866 .19898987 .7049866 .1749878 .70098879 .1539917 .69400027 .1329956 .6859894 .114990238 .6759949 .100997928 .6629944 .085998538 .6499939 .07499695 .6359863 .067993167 .6199951 .05999756 .60398867 .055999757 .58799746 .055999757 .57199099 .055999757 .5549927 .06098938 .5419922 .070999149 .5349884 .07998657 .5279999 .09098816 .5239868 .101989749 .5239868 .115997318 .5239868 .1269989 .5279999 .13598633 .5369873 .14399719 .54599 .147995 .5569916 .147995 .56999209 .147995 .58099368 .1459961 .58999636 .14099121 .59599307 .13598633 .60198977 .1309967 .6069946 .125 .6100006 .11898804 .61299136 .11299133 .6139984 .10699463 .61499026 .099990848 .61499026 .09498596 .61499026 .09199524 .61499026 .099990848 .6279907 .10899353 .6389923 .11999512 .647995 .1309967 .6569977 .14199829 .6639862 .1539917 .6689911 .16499329 .673996 .1769867 .6779938 .18899536 .6799927 .20098877 .6819916 .21199036 .68299868 .22299195 .68299868 .25 .68299868 .2709961 .67900088 .28599549 .6719971 .30099488 .6649933 .31199647 .6559906 .31900025 .644989 .32598878 .6339874 .32998658 .621994 .33099366 .6100006 .33198548 .5970001 .33198548 .58599856 .33198548 .57598879 .33198548 .5469971 .32899476 .526001 .32199098 .5130005 .31498719 .5 .30699159 .48999024 .2979889 .48098756 .2809906 .46299745 .2679901 .44400025 .25698854 .42399598 .24598694 .4039917 .23699951 .38398744 .22999573 .36499024 .22299195 .34498597 .21798706 .32598878 .21499634 .30699159 .21199036 .28799439 .20999146 .2709961 .20999146 .2559967V.21099854C.20999146 .20199585 .21099854 .19499207 .21199036 .19198609 .21299744 .18899536 .21598816 .18699646 .22200012 .18699646 .22898865 .18699646 .23298645 .18899536 .23399353 .19400025 .23498535 .19799805 .23498535 .20498657 .23498535 .21398926V.24899292M.2749939 .052993776C.2749939 .067993167 .269989 .07998657 .2599945 .09098816 .24899292 .100997928 .23699951 .10598755 .22200012 .10598755 .20698548 .10598755 .19499207 .100997928 .18499756 .09098816 .17399597 .07998657 .16899109 .067993167 .16899109 .052993776 .16899109 .037994386 .17399597 .025985718 .18499756 .015991211 .19499207 .004989624 .20698548 0 .22200012 0 .23699951 0 .24899292 .004989624 .2599945 .015991211 .269989 .025985718 .2749939 .037994386 .2749939 .052993776Z" />

</defs>
<g clip-path="url(#clip_2)">
<path transform="matrix(.1,0,0,-.1,324.283,282.82106)" stroke-width="11.3386" stroke-linecap="butt" stroke-miterlimit="22.9256" stroke-linejoin="miter" fill="none" stroke="#231f20" d="M1661.18 1835.03C1668.27 1780.43 1671.82 1725.44 1671.82 1670.39 1671.82 963.449 1098.73 390.355 391.781 390.355 261.469 390.355 131.914 410.254 7.60938 449.363" />
<path transform="matrix(.1,0,0,-.1,324.283,282.82106)" d="M377.301 1699.7C386.73 1699.7 394.371 1692.07 394.371 1682.64 394.371 1673.21 386.73 1665.57 377.301 1665.57 367.879 1665.57 360.234 1673.21 360.234 1682.64 360.234 1692.07 367.879 1699.7 377.301 1699.7" fill="#231f20" fill-rule="evenodd" />
<path transform="matrix(.1,0,0,-.1,324.283,282.82106)" stroke-width="5.6693" stroke-linecap="butt" stroke-miterlimit="22.9256" stroke-linejoin="miter" fill="none" stroke="#231f20" d="M377.301 1699.7C386.73 1699.7 394.371 1692.07 394.371 1682.64 394.371 1673.21 386.73 1665.57 377.301 1665.57 367.879 1665.57 360.234 1673.21 360.234 1682.64 360.234 1692.07 367.879 1699.7 377.301 1699.7Z" />
<path transform="matrix(.1,0,0,-.1,324.283,282.82106)" d="M1869.59 450.77C1879.02 450.77 1886.66 443.129 1886.66 433.699 1886.66 424.277 1879.02 416.633 1869.59 416.633 1860.16 416.633 1852.52 424.277 1852.52 433.699 1852.52 443.129 1860.16 450.77 1869.59 450.77" fill="#231f20" fill-rule="evenodd" />
<path transform="matrix(.1,0,0,-.1,324.283,282.82106)" stroke-width="5.6693" stroke-linecap="butt" stroke-miterlimit="22.9256" stroke-linejoin="miter" fill="none" stroke="#231f20" d="M1869.59 450.77C1879.02 450.77 1886.66 443.129 1886.66 433.699 1886.66 424.277 1879.02 416.633 1869.59 416.633 1860.16 416.633 1852.52 424.277 1852.52 433.699 1852.52 443.129 1860.16 450.77 1869.59 450.77Z" />
<path transform="matrix(.1,0,0,-.1,324.283,282.82106)" d="M1164.39 667.277C1173.82 667.277 1181.46 659.637 1181.46 650.207 1181.46 640.781 1173.82 633.141 1164.39 633.141 1154.97 633.141 1147.32 640.781 1147.32 650.207 1147.32 659.637 1154.97 667.277 1164.39 667.277" fill="#231f20" fill-rule="evenodd" />
<path transform="matrix(.1,0,0,-.1,324.283,282.82106)" stroke-width="5.6693" stroke-linecap="butt" stroke-miterlimit="22.9256" stroke-linejoin="miter" fill="none" stroke="#231f20" d="M1164.39 667.277C1173.82 667.277 1181.46 659.637 1181.46 650.207 1181.46 640.781 1173.82 633.141 1164.39 633.141 1154.97 633.141 1147.32 640.781 1147.32 650.207 1147.32 659.637 1154.97 667.277 1164.39 667.277Z" />
<path transform="matrix(.1,0,0,-.1,324.283,282.82106)" d="M376.98 407.762C386.41 407.762 394.051 400.121 394.051 390.695 394.051 381.27 386.41 373.625 376.98 373.625 367.559 373.625 359.914 381.27 359.914 390.695 359.914 400.121 367.559 407.762 376.98 407.762" fill="#231f20" fill-rule="evenodd" />
<path transform="matrix(.1,0,0,-.1,324.283,282.82106)" stroke-width="5.6693" stroke-linecap="butt" stroke-miterlimit="22.9256" stroke-linejoin="miter" fill="none" stroke="#231f20" d="M376.98 407.762C386.41 407.762 394.051 400.121 394.051 390.695 394.051 381.27 386.41 373.625 376.98 373.625 367.559 373.625 359.914 381.27 359.914 390.695 359.914 400.121 367.559 407.762 376.98 407.762Z" />
<path transform="matrix(.1,0,0,-.1,324.283,282.82106)" stroke-width="5.6693" stroke-linecap="butt" stroke-miterlimit="22.9256" stroke-linejoin="miter" fill="none" stroke="#231f20" d="M377 1226.25V403.277" />
<path transform="matrix(.1,0,0,-.1,324.283,282.82106)" stroke-width="5.6693" stroke-linecap="butt" stroke-miterlimit="22.9256" stroke-linejoin="miter" fill="none" stroke="#231f20" d="M409.129 1639.36 1149.76 668.621" />
<path transform="matrix(.1,0,0,-.1,324.283,282.82106)" d="M415.336 1631.22C420.438 1635.11 426.984 1637.11 433.344 1636.63L381.645 1675.38 405.355 1615.28C406.574 1621.54 410.234 1627.33 415.336 1631.22" fill="#231f20" fill-rule="evenodd" />
<path transform="matrix(.1,0,0,-.1,324.283,282.82106)" d="M1123.8 702.648C1128.9 706.543 1132.56 712.328 1133.78 718.59L1157.49 658.492 1105.79 697.234C1112.15 696.758 1118.7 698.758 1123.8 702.648" fill="#231f20" fill-rule="evenodd" />
<path transform="matrix(.1,0,0,-.1,324.283,282.82106)" stroke-width="5.6693" stroke-linecap="butt" stroke-miterlimit="22.9256" stroke-linejoin="miter" fill="none" stroke="#231f20" d="M690.148 1250.11C599.203 1183.49 489.395 1147.57 376.656 1147.57" />
<path transform="matrix(.1,0,0,-.1,324.283,282.82106)" d="M655.621 1224.82C659.414 1219.64 661.281 1213.06 660.684 1206.71L700.426 1257.64 639.879 1235.11C646.113 1233.77 651.828 1229.99 655.621 1224.82" fill="#231f20" fill-rule="evenodd" />
<use data-text="'" xlink:href="#font_3_13" transform="matrix(11.9997,0,0,-11.9997,377.48649,176.50405)" fill="#231f20" />
<use data-text="O" xlink:href="#font_3_9" transform="matrix(11.9997,0,0,-11.9997,346.43339,116.98604)" fill="#231f20" />
<path transform="matrix(.1,0,0,-.1,324.283,282.82106)" stroke-width="5.6693" stroke-linecap="butt" stroke-miterlimit="22.9256" stroke-linejoin="miter" fill="none" stroke="#231f20" d="M853.695 1676.7 377.484 1678.15 377.445 1271.05" />
<path transform="matrix(.1,0,0,-.1,324.283,282.82106)" d="M810.895 1676.83C810.875 1670.41 808.477 1664 804.219 1659.25L866.438 1676.66 804.328 1694.45C808.555 1689.67 810.914 1683.24 810.895 1676.83" fill="#231f20" fill-rule="evenodd" />
<path transform="matrix(.1,0,0,-.1,324.283,282.82106)" d="M377.449 1313.86C383.867 1313.85 390.281 1316.23 395.051 1320.47L377.445 1258.31 359.848 1320.47C364.613 1316.24 371.031 1313.86 377.449 1313.86" fill="#231f20" fill-rule="evenodd" />
<use data-text="e" xlink:href="#font_4_1" transform="matrix(11.9997,0,0,-11.9997,413.1557,118.70105)" fill="#231f20" />
<use data-text="y" xlink:href="#font_3_8" transform="matrix(7.99952,0,0,-7.99952,419.47953,121.3409)" fill="#231f20" />
<use data-text="I" xlink:href="#font_3_4" transform="matrix(7.99952,0,0,-7.99952,419.79945,113.42137)" fill="#231f20" />
<use data-text="e" xlink:href="#font_4_1" transform="matrix(11.9997,0,0,-11.9997,345.33775,155.83188)" fill="#231f20" />
<use data-text="x" xlink:href="#font_3_7" transform="matrix(7.99952,0,0,-7.99952,351.6612,158.47171)" fill="#231f20" />
<use data-text="I" xlink:href="#font_3_4" transform="matrix(7.99952,0,0,-7.99952,352.62956,150.55219)" fill="#231f20" />
<use data-text="r" xlink:href="#font_3_2" transform="matrix(11.9997,0,0,-11.9997,406.81434,164.42798)" fill="#231f20" />
<use data-text="t" xlink:href="#font_3_3" transform="matrix(11.9997,0,0,-11.9997,338.56556,236.15459)" fill="#231f20" />
<use data-text="=" xlink:href="#font_5_3" transform="matrix(11.9997,0,0,-11.9997,342.89759,236.15459)" fill="#231f20" />
<use data-text="0" xlink:href="#font_5_2" transform="matrix(11.9997,0,0,-11.9997,352.22135,236.15459)" fill="#231f20" />
<path transform="matrix(.1,0,0,-.1,324.283,282.82106)" stroke-width="5.6693" stroke-linecap="butt" stroke-miterlimit="22.9256" stroke-linejoin="miter" fill="none" stroke="#231f20" d="M951.066 387.211H377.199L773.66 135.52" />
<path transform="matrix(.1,0,0,-.1,324.283,282.82106)" d="M986.527 387.211 932.563 370.93C940.273 381.785 940.273 392.637 932.563 403.488L986.527 387.211" fill="#231f20" fill-rule="evenodd" />
<path transform="matrix(.1,0,0,-.1,324.283,282.82106)" d="M803.598 116.516 766.762 159.184C767.453 145.887 761.637 136.727 749.309 131.695L803.598 116.516" fill="#231f20" fill-rule="evenodd" />
<path transform="matrix(.1,0,0,-.1,324.283,282.82106)" stroke-width="5.6693" stroke-linecap="butt" stroke-miterlimit="22.9256" stroke-linejoin="miter" fill="none" stroke="#231f20" d="M1425.13 308.156 1164.6 646.324 1482.99 890.945" />
<path transform="matrix(.1,0,0,-.1,324.283,282.82106)" d="M1399 342.063C1393.92 338.141 1387.39 336.117 1381.02 336.563L1432.91 298.059 1408.91 358.047C1407.72 351.781 1404.09 345.977 1399 342.063" fill="#231f20" fill-rule="evenodd" />
<path transform="matrix(.1,0,0,-.1,324.283,282.82106)" d="M1449.05 864.867C1445.14 869.957 1439.34 873.594 1433.07 874.793L1493.09 898.707 1454.52 846.875C1454.98 853.238 1452.95 859.777 1449.05 864.867" fill="#231f20" fill-rule="evenodd" />
<use data-text="e" xlink:href="#font_4_1" transform="matrix(11.9997,0,0,-11.9997,475.413,196.43125)" fill="#231f20" />
<use data-text="y" xlink:href="#font_3_8" transform="matrix(7.99952,0,0,-7.99952,481.73683,199.07108)" fill="#231f20" />
<use data-text="R" xlink:href="#font_3_12" transform="matrix(7.99952,0,0,-7.99952,482.05677,191.15155)" fill="#231f20" />
<use data-text="e" xlink:href="#font_4_1" transform="matrix(11.9997,0,0,-11.9997,468.13404,260.02107)" fill="#231f20" />
<use data-text="x" xlink:href="#font_3_7" transform="matrix(7.99952,0,0,-7.99952,474.4579,262.6609)" fill="#231f20" />
<use data-text="R" xlink:href="#font_3_12" transform="matrix(7.99952,0,0,-7.99952,475.42585,254.74137)" fill="#231f20" />
<use data-text="Z" xlink:href="#font_3_1" transform="matrix(11.9997,0,0,-11.9997,424.92787,221.35816)" fill="#231f20" />
<path transform="matrix(.1,0,0,-.1,324.283,282.82106)" stroke-width="5.6693" stroke-linecap="butt" stroke-miterlimit="22.9256" stroke-linejoin="miter" fill="none" stroke="#231f20" d="M711.117 352.422C708.934 312.441 696.191 273.746 674.188 240.293" />
<path transform="matrix(.1,0,0,-.1,324.283,282.82106)" d="M713.047 387.832 726.359 333.059C715.945 341.344 705.105 341.938 693.852 334.832L713.047 387.832" fill="#231f20" fill-rule="evenodd" />
<path transform="matrix(.1,0,0,-.1,324.283,282.82106)" d="M654.703 210.664 697.961 246.809C684.656 246.332 675.59 252.293 670.758 264.699L654.703 210.664" fill="#231f20" fill-rule="evenodd" />
<use data-text="¯" xlink:href="#font_3_14" transform="matrix(11.9997,0,0,-11.9997,395.56849,260.09175)" fill="#231f20" />
<path transform="matrix(.1,0,0,-.1,324.283,282.82106)" stroke-width="5.6693" stroke-linecap="butt" stroke-dasharray="56.693,28.3465" stroke-miterlimit="22.9256" stroke-linejoin="miter" fill="none" stroke="#231f20" d="M378.988 389.316C677.668 309.504 981.98 392.109 1245.59 125.961 1506.05-137.004 1861.4 50.5547 1869.04 442.109" />
<use data-text="P" xlink:href="#font_3_10" transform="matrix(11.9997,0,0,-11.9997,507.82899,234.43555)" fill="#231f20" />
<path transform="matrix(.1,0,0,-.1,324.283,282.82106)" stroke-width="5.6693" stroke-linecap="butt" stroke-miterlimit="22.9256" stroke-linejoin="miter" fill="none" stroke="#231f20" d="M1793.54 1248.85C1820.86 1251.54 1845.2 1231.57 1847.89 1204.25 1850.58 1176.93 1830.61 1152.59 1803.29 1149.9 1775.97 1147.21 1751.64 1167.18 1748.94 1194.5 1746.25 1221.82 1766.21 1246.16 1793.54 1248.85Z" />
<use data-text="g" xlink:href="#font_3_11" transform="matrix(11.9997,0,0,-11.9997,515.614,164.05005)" fill="#231f20" />
<path transform="matrix(.1,0,0,-.1,324.283,282.82106)" stroke-width="5.6693" stroke-linecap="butt" stroke-miterlimit="22.9256" stroke-linejoin="miter" fill="none" stroke="#231f20" d="M1766.13 1235.75 1831.88 1163.32" />
<path transform="matrix(.1,0,0,-.1,324.283,282.82106)" stroke-width="5.6693" stroke-linecap="butt" stroke-miterlimit="22.9256" stroke-linejoin="miter" fill="none" stroke="#231f20" d="M1764.64 1164.04 1832.64 1236.19" />
<use data-text="v" xlink:href="#font_3_5" transform="matrix(11.9997,0,0,-11.9997,418.47129,241.69605)" fill="#231f20" />
<use data-text="0" xlink:href="#font_5_2" transform="matrix(7.99952,0,0,-7.99952,424.2791,244.33588)" fill="#231f20" />
<use data-text="w" xlink:href="#font_3_6" transform="matrix(11.9997,0,0,-11.9997,388.37989,275.7757)" fill="#231f20" />
<use data-text="0" xlink:href="#font_5_2" transform="matrix(7.99952,0,0,-7.99952,396.9596,278.41554)" fill="#231f20" />
<path transform="matrix(.1,0,0,-.1,324.283,282.82106)" d="M1097.94 156.445H1230.319V258.836H1097.94Z" fill="#ffffff" fill-rule="evenodd" />
<use data-text="?" xlink:href="#font_5_1" transform="matrix(11.9997,0,0,-11.9997,434.97999,266.27186)" fill="#231f20" />
<use data-text="?" xlink:href="#font_5_1" transform="matrix(11.9997,0,0,-11.9997,440.64387,266.27186)" fill="#231f20" />
<path transform="matrix(.1,0,0,-.1,324.283,282.82106)" stroke-width="5.6693" stroke-linecap="butt" stroke-miterlimit="22.9256" stroke-linejoin="miter" fill="none" stroke="#231f20" d="M1720.89 85.5703 1761.01 125.781" />
<path transform="matrix(.1,0,0,-.1,324.283,282.82106)" d="M1730.78 95.4805C1726.24 100.016 1720.02 102.859 1713.64 103.227L1770.01 134.801 1738.57 78.3633C1738.18 84.7305 1735.32 90.9492 1730.78 95.4805" fill="#231f20" fill-rule="evenodd" />
</g>

</svg>