<svg xmlns="http://www.w3.org/2000/svg" xmlns:xlink="http://www.w3.org/1999/xlink" version="1.1" width="210.000" height="169.000" viewBox="325.622 233.305 210.000 169.000">
<defs>
<clipPath id="clip_10">
<path transform="matrix(1,0,0,-1,335.622,392.30503)" d="M0 0H190V149H0Z" />
</clipPath>

<path id="font_11_1" d="M.1789856 .114990238C.15899658 .08198547 .13899231 .05999756 .11898804 .04899597 .09899902 .037994386 .07798767 .03199768 .055999757 .0309906 .049987794 .02999878 .04499817 .0289917 .040985109 .027999878 .036987306 .025985718 .034988405 .019989014 .034988405 .010986328 .034988405 .0039978029 .038986207 0 .04798889 0 .06098938 0 .07598877 .0009918213 .09098816 .0019989014 .10598755 .0029907227 .11999512 .0029907227 .13398743 .0029907227 .15098572 .0029907227 .16799927 .0029907227 .18499756 .0019989014 .20199585 .0009918213 .21798706 0 .23399353 0 .23699951 0 .24099732 .0009918213 .24598694 .0029907227 .25099183 .0039978029 .25299073 .009994507 .25299073 .018997193 .25299073 .023986817 .25099183 .027999878 .24798584 .0289917 .24398804 .02999878 .23999024 .0309906 .23699951 .0309906 .22599793 .03199768 .21499634 .034988405 .20498657 .039993287 .19499207 .04499817 .18998719 .052993776 .18998719 .06599426 .18998719 .07199097 .19099427 .07798767 .19400025 .083999637 .19699097 .08898926 .19999695 .09599304 .20399475 .102996829 .20599365 .10598755 .20799256 .10899353 .20999146 .11199951 .21099854 .114990238 .21398926 .11999512 .21899414 .12799073 .22399903 .13598633 .23098755 .147995 .23999024 .1639862 .24899292 .1789856 .2630005 .20199585 .27999879 .23098755H.5309906C.5319977 .22599793 .5329895 .21499634 .5349884 .19799805 .5359955 .18099976 .5379944 .16299439 .5399933 .14399719 .5419922 .125 .5439911 .10699463 .54499819 .09199524 .54599 .07598877 .5469971 .066986087 .5469971 .06399536 .5469971 .056991579 .5439911 .050994874 .5389862 .04699707 .5329895 .041992189 .526001 .038986207 .5189972 .036987306 .5109863 .033996583 .5029907 .032989503 .49499513 .03199768 .48599244 .0309906 .47999574 .0309906 .47499085 .0309906 .46798707 .0309906 .46199037 .02999878 .45799256 .0289917 .45298768 .026992798 .45098878 .020996094 .45098878 .010986328 .45098878 .005996704 .45298768 .0029907227 .45700074 .0019989014 .46099855 .0009918213 .46398927 0 .46499635 0 .48599244 0 .5069885 .0009918213 .5279999 .0019989014 .548996 .0029907227 .56900027 .0029907227 .58999636 .0029907227 .59599307 .0029907227 .60398867 .0029907227 .61499026 .0029907227 .625 .0019989014 .6359863 .0019989014 .6469879 .0019989014 .6579895 .0009918213 .66799929 .0009918213 .67900088 .0009918213 .68899539 0 .69699099 0 .7029877 0 .70599368 0 .70999148 .0009918213 .71499636 .0029907227 .71899417 .0039978029 .72099307 .009994507 .72099307 .019989014 .72099307 .024993897 .71899417 .0289917 .71499636 .02999878 .70999148 .0309906 .7049866 .0309906 .69799807 .0309906 .68299868 .0309906 .67099 .03199768 .6619873 .032989503 .6529999 .033996583 .6469879 .034988405 .6429901 .037994386 .6389923 .040985109 .6369934 .04399109 .6359863 .04899597 .6349945 .053985597 .6339874 .05999756 .6329956 .066986087L.57199099 .69200137C.57099917 .70199587 .56900027 .70899966 .56799319 .71199038 .5669861 .71499636 .56199648 .71598818 .5529938 .71598818 .54499819 .71598818 .5399933 .71499636 .5369873 .71199038 .5339966 .70899966 .5299988 .70399478 .5269928 .69898989L.1789856 .114990238M.29899598 .2619934 .49598695 .59199526 .5279999 .2619934H.29899598Z" />

<path id="font_12_1" d="M.46199037 .21798706C.47299195 .21798706 .48199464 .21899414 .4869995 .22200012 .49198915 .22399903 .49398805 .23199463 .49398805 .24499512 .49398805 .25299073 .49398805 .2630005 .49299623 .27598573 .49198915 .28799439 .4889984 .30099488 .4850006 .31498719 .48098756 .32899476 .47499085 .34298707 .46798707 .35798646 .46099855 .37298585 .45098878 .38598634 .43798829 .39898683 .40098573 .43499757 .34799195 .45298768 .2789917 .45298768 .23899842 .45298768 .20399475 .44699098 .17298889 .43499757 .14199829 .4229889 .116989139 .40699769 .09599304 .38598634 .07499695 .36499024 .05899048 .34098817 .04798889 .31399537 .036987306 .28599549 .03199768 .2559967 .03199768 .22499085 .03199768 .19198609 .037994386 .16099549 .049987794 .1329956 .06199646 .10398865 .07899475 .07998657 .101989749 .05899048 .125 .037994386 .1519928 .021987915 .18499756 .010986328 .21699524 0 .25299073-.006011963 .29299928-.006011963 .33198548-.006011963 .36499024 0 .3909912 .010986328 .4169922 .021987915 .43798829 .034988405 .45298768 .049987794 .46798707 .06399536 .47898866 .07798767 .4850006 .09098816 .4909973 .10398865 .49398805 .11299133 .49398805 .116989139 .49398805 .12599182 .4909973 .1309967 .48399354 .1329956 .47698976 .13398743 .47299195 .1349945 .46998597 .1349945 .46099855 .1349945 .45599366 .13398743 .45399476 .1309967 .45098878 .12799073 .44799806 .12199402 .44499208 .11399841 .43399049 .08999634 .41600038 .070999149 .3899994 .055999757 .3639984 .040985109 .33499146 .033996583 .3019867 .033996583 .2669983 .033996583 .23999024 .040985109 .22099304 .055999757 .20199585 .069992069 .18798828 .08699036 .1789856 .10699463 .16999817 .1269989 .1639862 .14698792 .16299439 .16799927 .16099549 .18899536 .1599884 .20498657 .1599884 .21798706H.46199037M.1599884 .25099183C.16099549 .269989 .16299439 .2899933 .16499329 .30999757 .16699219 .32998658 .17298889 .34799195 .18399048 .36499024 .19699097 .3849945 .21299744 .39898683 .23098755 .4059906 .24798584 .41299439 .2639923 .4169922 .2789917 .4169922 .30799867 .4169922 .33099366 .4099884 .34700013 .3959961 .36299134 .38198854 .375 .3659973 .3829956 .34700013 .3899994 .32798768 .394989 .30999757 .39698792 .2919922 .397995 .272995 .39898683 .2599945 .39898683 .25099183H.1599884Z" />

<path id="font_13_5" d="M.33399964 .3019867C.33499146 .30899049 .33799745 .31900025 .34199525 .33198548 .34599305 .34498597 .35198976 .35798646 .3600006 .37098695 .36698915 .38398744 .3769989 .394989 .3889923 .40499879 .40098573 .4149933 .41600038 .41999818 .43299867 .41999818 .43598939 .41999818 .44198609 .41999818 .45199586 .4189911 .46199037 .41799928 .47200013 .4139862 .48298646 .40699769 .46899415 .4039917 .45799256 .397995 .44898988 .3869934 .43998719 .37599183 .43499757 .36499024 .43499757 .35299684 .43499757 .34498597 .43798829 .33699037 .44400025 .32998658 .44999696 .32199098 .45999146 .31799317 .47299195 .31799317 .47799684 .31799317 .48399354 .31900025 .4909973 .32199098 .49699403 .32398988 .5029907 .32699586 .5079956 .33198548 .5130005 .33699037 .5179901 .34298707 .5219879 .34999085 .5249939 .35699464 .5269928 .3659973 .5269928 .37599183 .5269928 .3889923 .5239868 .39898683 .5169983 .4079895 .5099945 .4169922 .5019989 .42399598 .49299623 .42900086 .48399354 .43399049 .47399903 .43699647 .46299745 .43899537 .45199586 .44099427 .44299317 .44198609 .43399049 .44198609 .4189911 .44198609 .4059906 .43899537 .394989 .43399049 .3829956 .42799378 .37298585 .42099 .3639984 .41299439 .35499574 .40499879 .34799195 .39698792 .34199525 .3880005 .33599855 .3789978 .33198548 .37199403 .32899476 .3659973 .32299806 .3829956 .31498719 .3959961 .30599977 .4059906 .29699708 .41600038 .2869873 .42399598 .2769928 .42900086 .2659912 .43399049 .2559967 .43798829 .24699402 .43998719 .23699951 .44099427 .22799683 .44198609 .22099304 .44198609 .19499207 .44198609 .17199707 .43499757 .1519928 .42199708 .13198853 .4079895 .114990238 .3919983 .101989749 .375 .08799744 .35699464 .07798767 .33999635 .070999149 .32299806 .06399536 .30599977 .05999756 .2939911 .05999756 .28799439 .05999756 .2829895 .06199646 .27999879 .06498718 .2789917 .067993167 .27799989 .070999149 .27799989 .07199097 .27799989 .07899475 .27799989 .083999637 .28199769 .084991458 .2889862 .09399414 .31599427 .10398865 .33799745 .115997318 .35499574 .1269989 .37199403 .13899231 .3849945 .1519928 .394989 .16499329 .4039917 .1769867 .41099549 .18899536 .4149933 .19999695 .41799928 .20999146 .41999818 .21899414 .41999818 .22399903 .41999818 .22898865 .4189911 .23599243 .41799928 .24198914 .41600038 .24798584 .41299439 .25299073 .4079895 .2579956 .40299989 .2630005 .39698792 .2669983 .3880005 .2709961 .3789978 .272995 .36799623 .272995 .35299684 .272995 .33799745 .2689972 .31199647 .2599945 .2749939 .25099183 .23799134 .23799134 .18499756 .21899414 .114990238 .21099854 .083999637 .19898987 .05899048 .18199158 .039993287 .16499329 .020996094 .1459961 .010986328 .12399292 .010986328 .12098694 .010986328 .11399841 .011993408 .10499573 .0129852299 .09498596 .01399231 .084991458 .016998291 .07398987 .023986817 .08699036 .026992798 .09799194 .032989503 .10699463 .042999269 .115997318 .051986696 .12098694 .06399536 .12098694 .07798767 .12098694 .09098816 .116989139 .100997928 .10798645 .10598755 .09899902 .11099243 .09098816 .11299133 .083999637 .11299133 .068984989 .11299133 .055999757 .10699463 .04499817 .09599304 .033996583 .084991458 .0289917 .070999149 .0289917 .054992677 .0289917 .04399109 .03199768 .033996583 .037994386 .025985718 .042999269 .016998291 .050994874 .009994507 .05999756 .004989624 .068984989 0 .07899475-.0040130617 .08999634-.007003784 .100997928-.010009766 .11199951-.011001587 .12298584-.011001587 .13999939-.011001587 .1539917-.007003784 .16699219 0 .17999268 .0069885256 .18998719 .015991211 .19898987 .024993897 .20799256 .033996583 .21499634 .041992189 .21998596 .050994874 .22499085 .05899048 .22698975 .06399536 .22799683 .06498718 .23399353 .04598999 .24598694 .0289917 .2639923 .0129852299 .28199769-.0030059815 .30599977-.011001587 .33599855-.011001587 .3619995-.011001587 .3849945-.0040130617 .40499879 .009994507 .42399598 .022994996 .44099427 .038986207 .45498658 .056991579 .46798707 .07398987 .47898866 .09199524 .48599244 .10899353 .49299623 .12599182 .49598695 .13699341 .49598695 .14299011 .49598695 .147995 .49398805 .15098572 .4909973 .1519928 .48799134 .15299988 .4850006 .15299988 .48399354 .15299988 .47898866 .15299988 .47599793 .1519928 .47499085 .1499939 .47399903 .147995 .47200013 .14498902 .47099305 .14199829 .46299745 .114990238 .45298768 .09399414 .44099427 .07699585 .42900086 .05999756 .4169922 .04598999 .4039917 .036987306 .3909912 .026992798 .3789978 .019989014 .36799623 .016998291 .35598756 .0129852299 .34599305 .010986328 .33799745 .010986328 .31900025 .010986328 .30499269 .017990113 .29599 .0309906 .2869873 .04399109 .2829895 .05999756 .2829895 .07699585 .2829895 .08799744 .2849884 .099990848 .28799439 .11299133 .29100038 .12599182 .29499818 .14299011 .2999878 .16499329L.33399964 .3019867Z" />

<path id="font_13_4" d="M.37399293 .60598757C.37599183 .61499026 .37799073 .621994 .3809967 .6279907 .3829956 .6339874 .3869934 .6389923 .3929901 .6429901 .39898683 .6459961 .4079895 .6489868 .4189911 .6499939 .42999269 .651001 .44499208 .6519928 .46499635 .6519928 .47698976 .6519928 .4850006 .6529999 .48999024 .6549988 .49499513 .6559906 .49699403 .6619873 .49699403 .67099 .49699403 .6769867 .49499513 .68099978 .4909973 .6819916 .4869995 .68299868 .48399354 .68299868 .48199464 .68299868 .47499085 .68299868 .46499635 .68299868 .45298768 .68299868 .44099427 .6819916 .42900086 .6819916 .41600038 .6819916 .40299989 .68099978 .3909912 .68099978 .3789978 .68099978 .36698915 .6799927 .35699464 .6799927 .34999085 .6799927 .34298707 .6799927 .33299256 .6799927 .32099916 .68099978 .30899049 .68099978 .29699708 .68099978 .28399659 .6819916 .2709961 .6819916 .2579956 .6819916 .24598694 .68299868 .23399353 .68299868 .22399903 .68299868 .21699524 .68299868 .21398926 .68299868 .20999146 .6819916 .20498657 .68099978 .19999695 .67900088 .19699097 .6729889 .19699097 .6629944 .19699097 .6579895 .19898987 .6549988 .20399475 .6539917 .20899964 .6529999 .21598816 .6519928 .22499085 .6519928 .24598694 .6519928 .2630005 .651001 .27598573 .6499939 .28799439 .647995 .2939911 .6419983 .2939911 .6329956 .2939911 .6299896 .2939911 .6279907 .2939911 .6259918 .2939911 .625 .29299928 .621994 .2919922 .61698916L.15699768 .07798767C.15499878 .068984989 .15299988 .06098938 .15098572 .054992677 .147995 .04899597 .14399719 .04399109 .13798523 .040985109 .13198853 .036987306 .12399292 .033996583 .11299133 .032989503 .101989749 .03199768 .085998538 .0309906 .06599426 .0309906 .054992677 .0309906 .04699707 .02999878 .041992189 .0289917 .036987306 .026992798 .033996583 .020996094 .033996583 .010986328 .033996583 .005996704 .035995485 .0029907227 .040985109 .0019989014 .04499817 .0009918213 .04798889 0 .04899597 0 .055999757 0 .06599426 0 .07798767 .0009918213 .08898926 .0009918213 .101989749 .0009918213 .114990238 .0019989014 .12799073 .0019989014 .13999939 .0019989014 .1519928 .0029907227 .16299439 .0029907227 .17298889 .0029907227 .17999268 .0029907227 .18699646 .0029907227 .19699097 .0029907227 .20899964 .0029907227 .22099304 .0019989014 .23399353 .0019989014 .24699402 .0019989014 .2599945 .0009918213 .27198792 .0009918213 .2849884 .0009918213 .29699708 0 .30699159 0 .31399537 0 .31799317 0 .32199098 .0009918213 .32699586 .0029907227 .33198548 .0039978029 .33399964 .009994507 .33399964 .018997193 .33399964 .024993897 .33198548 .0289917 .32798768 .02999878 .32299806 .0309906 .31498719 .0309906 .3039856 .0309906 .29499818 .0309906 .28799439 .0309906 .2829895 .0309906 .27799989 .0309906 .2709961 .03199768 .26098634 .032989503 .25 .033996583 .24398804 .035995485 .24099732 .038986207 .23799134 .040985109 .23599243 .04499817 .23599243 .049987794 .23599243 .053985597 .23599243 .057998659 .23699951 .06199646 .23799134 .06599426 .23899842 .069992069 .23999024 .07299805L.37399293 .60598757Z" />

<path id="font_13_6" d="M.48599244 .3809967C.48799134 .3880005 .4889984 .3929901 .48999024 .3959961 .48999024 .397995 .48999024 .40098573 .48999024 .4039917 .48999024 .41299439 .4869995 .41999818 .48098756 .4249878 .47499085 .42900086 .46798707 .43099977 .46099855 .43099977 .45599366 .43099977 .44999696 .42900086 .44299317 .42599488 .43598939 .4229889 .43099977 .4169922 .42599488 .4099884 .4249878 .40699769 .4229889 .3999939 .41999818 .3880005 .4169922 .37599183 .4139862 .36499024 .4119873 .35598756 .40899659 .34298707 .40499879 .32899476 .4019928 .31599427 .39898683 .30299378 .394989 .2889862 .3919983 .27598573L.34700013 .09599304C.34599305 .09199524 .34199525 .084991458 .33699037 .07598877 .33099366 .066986087 .32299806 .056991579 .31399537 .04798889 .3039856 .037994386 .2919922 .0289917 .2789917 .021987915 .2659912 .01499939 .25099183 .010986328 .23399353 .010986328 .22099304 .010986328 .21099854 .01399231 .20298767 .018997193 .19499207 .023986817 .18899536 .02999878 .18399048 .037994386 .1789856 .04499817 .17599488 .053985597 .1749878 .06399536 .17298889 .07299805 .17199707 .08299255 .17199707 .09199524 .17199707 .114990238 .17599488 .14299011 .18499756 .1749878 .19299317 .20599365 .20599365 .24398804 .22299195 .28799439 .22698975 .2979889 .22999573 .30699159 .23298645 .31399537 .23599243 .32099916 .23799134 .32699586 .23899842 .33198548 .23999024 .33699037 .24099732 .34199525 .24198914 .34599305 .24299622 .34999085 .24299622 .35499574 .24299622 .3600006 .24299622 .3829956 .23599243 .4019928 .22099304 .41799928 .20599365 .43399049 .18598938 .44198609 .16099549 .44198609 .14498902 .44198609 .1309967 .43798829 .117996219 .43099977 .10499573 .42399598 .09399414 .4149933 .084991458 .4039917 .07499695 .3929901 .066986087 .38198854 .05999756 .36898805 .052993776 .35598756 .04699707 .34298707 .041992189 .33198548 .036987306 .32099916 .033996583 .31098939 .03199768 .30299378 .02999878 .2939911 .0289917 .2889862 .0289917 .28799439 .0289917 .2829895 .0309906 .27999879 .033996583 .2789917 .036987306 .27799989 .039993287 .27799989 .040985109 .27799989 .04598999 .27799989 .049987794 .2789917 .050994874 .2809906 .051986696 .2829895 .053985597 .28799439 .056991579 .29599 .069992069 .34298707 .085998538 .375 .10499573 .3929901 .12298584 .41099549 .14099121 .41999818 .1579895 .41999818 .1619873 .41999818 .16699219 .4189911 .17399597 .41600038 .17999268 .41299439 .18299866 .4039917 .18299866 .3880005 .18299866 .375 .18099976 .36299134 .1769867 .35099793 .17298889 .33799745 .16899109 .32699586 .1659851 .31799317 .1559906 .29100038 .14698792 .2679901 .13999939 .24699402 .1329956 .22599793 .1269989 .20799256 .12199402 .19099427 .116989139 .17399597 .11399841 .15899658 .11199951 .1459961 .10899353 .1329956 .10798645 .11999512 .10798645 .10798645 .10798645 .085998538 .11199951 .066986087 .11898804 .051986696 .12599182 .036987306 .13598633 .023986817 .14698792 .01499939 .1579895 .005996704 .17098999-.0010070801 .18598938-.005004883 .20098877-.009002686 .21499634-.011001587 .22999573-.011001587 .24899292-.011001587 .2679901-.007003784 .2849884 .0009918213 .3019867 .008987427 .31698609 .019989014 .33099366 .033996583 .32398988 .0079956059 .31698609-.018005372 .30899049-.043014528 .2999878-.06800842 .28599549-.09300232 .2659912-.120010379 .25299073-.13700867 .23699951-.15200806 .21899414-.16500855 .19999695-.17700196 .1789856-.18301392 .1559906-.18301392 .15299988-.18301392 .147995-.18301392 .14099121-.18200684 .13398743-.18101502 .12599182-.18000794 .11898804-.17700196 .11199951-.17401123 .10398865-.16900635 .09700012-.16400147 .08999634-.15901184 .083999637-.15100098 .07998657-.14100647 .08799744-.14100647 .09498596-.14100647 .101989749-.14001465 .10899353-.13900757 .115997318-.13500977 .12298584-.12901306 .12799073-.12400818 .1329956-.119003299 .13699341-.11201477 .14099121-.10501099 .14299011-.09701538 .14299011-.088012699 .14299011-.08000183 .14199829-.07400513 .13899231-.070007327 .13598633-.06500244 .13198853-.06201172 .12799073-.059005739 .12399292-.056015016 .11999512-.055007936 .115997318-.054000856 .11199951-.053009035 .10899353-.053009035 .10598755-.053009035 .099990848-.053009035 .09399414-.054000856 .08799744-.057006837 .08099365-.059005739 .07499695-.06300354 .069992069-.06800842 .06399536-.073013309 .05899048-.07901001 .055999757-.088012699 .051986696-.0960083 .049987794-.10600281 .049987794-.118011478 .049987794-.14300537 .05999756-.16400147 .07998657-.18101502 .09899902-.19700623 .125-.20500183 .1559906-.20500183 .18199158-.20500183 .20799256-.2000122 .23298645-.18901062 .2579956-.17800904 .2809906-.16400147 .3019867-.14601135 .32299806-.12701416 .34098817-.10600281 .35598756-.08100891 .37098695-.056015016 .3829956-.029006958 .3899994-.0010070801L.48599244 .3809967Z" />

<path id="font_13_3" d="M.20599365 .3999939H.2999878C.30999757 .3999939 .31799317 .40098573 .32299806 .40299989 .32798768 .4039917 .32998658 .4099884 .32998658 .41999818 .32998658 .4249878 .32798768 .42900086 .32299806 .42999269 .31799317 .43099977 .31098939 .43099977 .3019867 .43099977H.21398926C.22299195 .46598817 .22999573 .49499513 .23599243 .5159912 .24099732 .5369873 .24499512 .55400088 .24798584 .56599429 .25099183 .5779877 .25299073 .58599856 .2539978 .59098818 .25498963 .59498599 .25498963 .59799197 .25498963 .598999 .25498963 .60798647 .2519989 .6139984 .24699402 .61898806 .24198914 .6239929 .23498535 .6259918 .22599793 .6259918 .22499085 .6259918 .22299195 .6259918 .21998596 .6259918 .21699524 .625 .21299744 .6239929 .20899964 .621994 .20399475 .61898806 .19999695 .6159973 .19599915 .61099246 .19099427 .60598757 .18798828 .598999 .18598938 .58999636L.14698792 .43099977H.052993776C.042999269 .43099977 .035995485 .42999269 .0309906 .42900086 .025985718 .4269867 .022994996 .42099 .022994996 .4119873 .022994996 .4059906 .024993897 .40299989 .02999878 .4019928 .033996583 .40098573 .040985109 .3999939 .050994874 .3999939H.13899231C.1269989 .35299684 .116989139 .31199647 .10899353 .2789917 .099990848 .24598694 .09298706 .21798706 .08799744 .19499207 .08198547 .17199707 .07699585 .1539917 .07398987 .14099121 .070999149 .1269989 .067993167 .115997318 .066986087 .10899353 .06498718 .100997928 .06399536 .09498596 .06399536 .09098816 .06298828 .08699036 .06298828 .083999637 .06298828 .08099365 .06298828 .053985597 .07199097 .03199768 .08898926 .01499939 .10598755-.0030059815 .12799073-.011001587 .15499878-.011001587 .17999268-.011001587 .20298767-.0030059815 .22299195 .011993408 .24198914 .026992798 .25898744 .04399109 .272995 .06298828 .28599549 .08198547 .29699708 .09899902 .3039856 .115997318 .31098939 .13198853 .31399537 .14099121 .31399537 .14299011 .31399537 .147995 .31298829 .15098572 .30999757 .1519928 .30699159 .15299988 .3039856 .15299988 .3019867 .15299988 .29699708 .15299988 .2939911 .1519928 .29299928 .1499939 .2919922 .147995 .2899933 .14399719 .2869873 .13899231 .27598573 .11299133 .2649994 .09199524 .2539978 .07499695 .24198914 .057998659 .22999573 .04499817 .21899414 .035995485 .20698548 .026992798 .19599915 .019989014 .18598938 .016998291 .1749878 .0129852299 .1659851 .010986328 .15699768 .010986328 .1459961 .010986328 .13899231 .01499939 .13398743 .021987915 .1289978 .0289917 .12599182 .039993287 .12599182 .056991579 .12599182 .068984989 .1269989 .07798767 .12799073 .083999637 .1289978 .08898926 .12998963 .09599304 .13198853 .10499573L.20599365 .3999939Z" />

<path id="font_14_3" d="M.33099366-.2400055C.33099366-.23901367 .32998658-.23701477 .32899476-.23500061 .32798768-.23200989 .32299806-.227005 .31399537-.21800232 .2829895-.18701172 .25698854-.15200806 .23699951-.11401367 .21598816-.07501221 .19999695-.036010744 .18899536 .005996704 .1769867 .04699707 .16899109 .08799744 .1639862 .12998963 .15899658 .17199707 .15699768 .21199036 .15699768 .25 .15699768 .29299928 .1599884 .33699037 .16499329 .37998963 .16999817 .4229889 .1789856 .46398927 .19198609 .5049896 .20399475 .54599 .21998596 .58399966 .24099732 .62098696 .2619934 .6579895 .2869873 .69200137 .31799317 .72299197 .32499696 .72898867 .32899476 .73298647 .32998658 .7350006 .33099366 .7369995 .33099366 .7389984 .33099366 .73999026 .33099366 .746994 .32798768 .75 .32099916 .75 .31799317 .75 .31098939 .74598696 .2999878 .73799136 .2889862 .72898867 .2749939 .71699526 .2599945 .69999697 .24499512 .68299868 .22799683 .6629944 .21099854 .6389923 .19299317 .61499026 .1769867 .58699038 .1619873 .5549927 .13699341 .5 .11999512 .44599916 .11199951 .3929901 .102996829 .33999635 .09899902 .2919922 .09899902 .25 .09899902 .23098755 .099990848 .20899964 .101989749 .18499756 .102996829 .1599884 .10699463 .1349945 .11199951 .10798645 .116989139 .08099365 .12298584 .052993776 .13198853 .023986817 .13999939-.006011963 .15098572-.03401184 .16499329-.06201172 .17999268-.09300232 .19599915-.120010379 .21299744-.14300537 .22999573-.16600037 .24699402-.18600464 .2619934-.20201111 .2769928-.21800232 .2899933-.23001099 .30099488-.23800659 .31199647-.2460022 .31799317-.25001527 .32099916-.25001527 .32798768-.25001527 .33099366-.24700928 .33099366-.2400055Z" />

<path id="font_14_2" d="M.2889862 .25C.2889862 .2689972 .28799439 .29100038 .2869873 .31599427 .2849884 .33999635 .28199769 .3659973 .2769928 .3929901 .27198792 .41999818 .2649994 .44799806 .25698854 .47698976 .24798584 .5059967 .23699951 .5339966 .22299195 .56199648 .20799256 .59298709 .19198609 .6199951 .1749878 .6429901 .1579895 .66600039 .14199829 .6859894 .1269989 .70199587 .11199951 .71798709 .09899902 .7299957 .08799744 .73799136 .07699585 .74598696 .069992069 .75 .066986087 .75 .05999756 .75 .056991579 .746994 .056991579 .73999026 .056991579 .7389984 .057998659 .7369995 .05999756 .7350006 .06098938 .7319946 .066986087 .7259979 .07598877 .71699526 .125 .6669922 .1639862 .6029968 .19099427 .5249939 .21798706 .44699098 .23098755 .35499574 .23098755 .25 .23098755 .20698548 .22898865 .16499329 .22399903 .12199402 .21899414 .07899475 .20999146 .036987306 .19699097-.0040130617 .18399048-.044006349 .16799927-.08300781 .14698792-.120010379 .12599182-.15701294 .100997928-.19200135 .069992069-.2230072 .06298828-.2290039 .05999756-.23300171 .05899048-.23500061 .057998659-.23701477 .056991579-.23901367 .056991579-.2400055 .056991579-.24700928 .05999756-.25001527 .066986087-.25001527 .069992069-.25001527 .07699585-.2460022 .08799744-.23800659 .09899902-.2290039 .11299133-.2170105 .12799073-.2000122 .14299011-.18301392 .1599884-.16300965 .17799378-.13900757 .19499207-.11500549 .21099854-.087005618 .22599793-.055007936 .25099183 0 .2679901 .054992677 .2769928 .10798645 .2849884 .16099549 .2889862 .20799256 .2889862 .25Z" />

<path id="font_13_2" d="M.3909912 .37399293C.3769989 .37298585 .3659973 .36898805 .35699464 .3600006 .34799195 .35099793 .34298707 .33999635 .34298707 .32899476 .34298707 .32199098 .34498597 .31498719 .34999085 .30899049 .35499574 .30299378 .36299134 .2999878 .37399293 .2999878 .3849945 .2999878 .3959961 .30499269 .4059906 .31399537 .4149933 .32299806 .41999818 .33699037 .41999818 .35598756 .41999818 .3789978 .4099884 .39898683 .3889923 .41600038 .36799623 .43299867 .33898927 .44198609 .30099488 .44198609 .2679901 .44198609 .23999024 .43699647 .21899414 .42599488 .19699097 .4149933 .17999268 .40098573 .16699219 .38598634 .1539917 .36999513 .14498902 .35398866 .13999939 .33699037 .1349945 .31999208 .13198853 .30699159 .13198853 .29599 .13198853 .2769928 .13598633 .26098634 .14399719 .24899292 .1519928 .23599243 .1619873 .22698975 .17298889 .21998596 .18399048 .21299744 .19499207 .20698548 .20698548 .20399475 .21798706 .20098877 .22799683 .19799805 .23498535 .19699097 .24798584 .19400025 .2599945 .19198609 .272995 .18899536 .28599549 .18598938 .29699708 .18099976 .30699159 .17599488 .31599427 .17098999 .32398988 .1639862 .32998658 .15499878 .33599855 .1459961 .33898927 .1349945 .33898927 .12098694 .33898927 .11399841 .33699037 .10499573 .33399964 .09298706 .32998658 .07998657 .32299806 .067993167 .31298829 .055999757 .3019867 .04399109 .28799439 .033996583 .2689972 .024993897 .25 .015991211 .22599793 .010986328 .19599915 .010986328 .19299317 .010986328 .18598938 .010986328 .17599488 .011993408 .16499329 .0129852299 .1539917 .01499939 .14199829 .017990113 .12998963 .020996094 .11898804 .026992798 .10798645 .033996583 .09700012 .040985109 .08799744 .050994874 .08198547 .06399536 .100997928 .06098938 .116989139 .06599426 .12799073 .07798767 .13899231 .08999634 .14498902 .102996829 .14498902 .116989139 .14498902 .12799073 .14199829 .13699341 .1349945 .14299011 .12799073 .14898682 .11898804 .1519928 .10798645 .1519928 .09498596 .1519928 .08198547 .14698792 .069992069 .13598633 .057998659 .125 .051986696 .10899353 .051986696 .085998538 .051986696 .056991579 .06498718 .033996583 .09098816 .015991211 .116989139-.0020141602 .1519928-.011001587 .19499207-.011001587 .23599243-.011001587 .2689972-.005004883 .29499818 .008987427 .32099916 .021987915 .34199525 .036987306 .35699464 .054992677 .37199403 .07299805 .38198854 .09098816 .3880005 .10998535 .3929901 .1289978 .3959961 .14399719 .3959961 .15499878 .3959961 .17298889 .3919983 .18798828 .3849945 .20098877 .37799073 .21299744 .37098695 .22200012 .36499024 .22799683 .35198976 .24198914 .33699037 .25099183 .32199098 .2559967 .30599977 .26098634 .2869873 .2649994 .2649994 .269989 .2559967 .27198792 .24699402 .27398683 .23799134 .2769928 .22898865 .2789917 .22099304 .28199769 .21398926 .28599549 .20698548 .2899933 .20098877 .29599 .19599915 .30299378 .19099427 .30999757 .18899536 .31900025 .18899536 .32998658 .18899536 .33699037 .19099427 .34599305 .19400025 .35699464 .19699097 .36698915 .20298767 .3769989 .21199036 .38598634 .22099304 .394989 .23199463 .40299989 .24699402 .4099884 .26098634 .4169922 .2789917 .41999818 .30099488 .41999818 .30699159 .41999818 .31498719 .41999818 .32398988 .4189911 .33299256 .41799928 .34098817 .4149933 .34999085 .4119873 .35899354 .40899659 .36698915 .4039917 .37399293 .397995 .3809967 .3919983 .3869934 .38398744 .3909912 .37399293Z" />

<path id="font_13_1" d="M.1599884 .07798767C.15699768 .067993167 .15499878 .05999756 .15299988 .053985597 .1499939 .04798889 .1459961 .042999269 .14099121 .039993287 .1349945 .036987306 .1269989 .033996583 .115997318 .032989503 .10499573 .03199768 .08898926 .0309906 .068984989 .0309906 .05999756 .0309906 .053985597 .02999878 .04899597 .0289917 .04399109 .026992798 .041992189 .020996094 .041992189 .010986328 .041992189 .005996704 .04399109 .0029907227 .04899597 .0019989014 .052993776 .0009918213 .05999756 0 .068984989 0H.42599488C.46499635 0 .5019989 .0069885256 .5359955 .019989014 .56900027 .032989503 .59799197 .050994874 .6230011 .07199097 .647995 .09298706 .6669922 .115997318 .68099978 .14099121 .69499209 .1659851 .70199587 .19099427 .70199587 .21598816 .70199587 .2519989 .6879883 .2829895 .6609955 .30999757 .6339874 .33599855 .59599307 .35198976 .5469971 .35699464 .57299807 .3619995 .598999 .36999513 .6239929 .3809967 .6489868 .3919983 .67099 .4059906 .69099429 .4229889 .70999148 .43899537 .7259979 .45700074 .73799136 .47799684 .75 .49899293 .7559967 .5209961 .7559967 .54499819 .7559967 .56399539 .7519989 .58099368 .74398806 .59799197 .73599246 .61499026 .723999 .6289978 .70799258 .6419983 .69200137 .6549988 .6729889 .6649933 .6499939 .6719971 .6269989 .67900088 .59999087 .68299868 .56999209 .68299868H.23399353C.22499085 .68299868 .21798706 .6819916 .21299744 .68099978 .20799256 .67900088 .20498657 .6729889 .20498657 .6629944 .20498657 .6579895 .20698548 .6549988 .21199036 .6539917 .21699524 .6529999 .22399903 .6519928 .23298645 .6519928 .23399353 .6519928 .23899842 .6519928 .24598694 .6519928 .2539978 .6519928 .2619934 .651001 .2709961 .6499939 .27999879 .6489868 .2869873 .6469879 .2919922 .6459961 .29599 .644989 .2979889 .6409912 .2979889 .6339874 .2979889 .6319885 .2979889 .6299896 .29699708 .6279907 .29599 .625 .29499818 .62098696 .2939911 .61499026L.1599884 .07798767M.31098939 .3659973 .37298585 .6139984C.375 .6230011 .3769989 .6299896 .3789978 .6349945 .3809967 .6399994 .38398744 .6429901 .3869934 .6459961 .3899994 .6489868 .394989 .6499939 .4019928 .651001 .4079895 .6519928 .41600038 .6519928 .4269867 .6519928H.55599978C.5779877 .6519928 .59599307 .6489868 .6100006 .6419983 .6239929 .6349945 .6349945 .6269989 .6439972 .61698916 .6519928 .6069946 .6579895 .59599307 .6609955 .58399966 .6639862 .57099917 .6649933 .55999758 .6649933 .548996 .6649933 .5269928 .6599884 .5049896 .6499939 .48399354 .6389923 .46199037 .625 .44198609 .6069946 .4249878 .58799746 .40699769 .56599429 .3929901 .54100039 .38198854 .5159912 .37098695 .48799134 .3659973 .45700074 .3659973H.31098939M.2659912 .0309906C.25898744 .0309906 .2539978 .0309906 .2519989 .0309906 .25 .0309906 .24699402 .0309906 .24398804 .03199768 .23899842 .032989503 .23498535 .033996583 .23399353 .034988405 .23199463 .035995485 .23098755 .037994386 .23098755 .041992189 .23098755 .042999269 .23098755 .04499817 .23199463 .04798889 .23199463 .049987794 .23298645 .055999757 .23599243 .06498718L.30499269 .34399415H.49398805C.5179901 .34399415 .5379944 .33999635 .5529938 .33198548 .56799319 .32398988 .57899478 .31399537 .58799746 .3019867 .59599307 .2899933 .60198977 .2769928 .6049957 .2639923 .60798647 .25 .60899356 .23799134 .60899356 .22698975 .60899356 .20199585 .60398867 .17799378 .59298709 .15499878 .58200076 .1309967 .56799319 .10998535 .5499878 .09199524 .5309906 .07299805 .5089874 .05899048 .48399354 .04798889 .45899964 .036987306 .43099977 .0309906 .4019928 .0309906H.2659912Z" />

<path id="font_11_2" d="M.1599884 .07798767C.15699768 .067993167 .15499878 .05999756 .15299988 .053985597 .1499939 .04798889 .1459961 .042999269 .14099121 .039993287 .1349945 .036987306 .1269989 .033996583 .115997318 .032989503 .10499573 .03199768 .08898926 .0309906 .068984989 .0309906 .05999756 .0309906 .053985597 .02999878 .04899597 .0289917 .04399109 .026992798 .041992189 .020996094 .041992189 .010986328 .041992189 .005996704 .04399109 .0029907227 .04899597 .0019989014 .052993776 .0009918213 .05999756 0 .068984989 0H.42599488C.46499635 0 .5019989 .0069885256 .5359955 .019989014 .56900027 .032989503 .59799197 .050994874 .6230011 .07199097 .647995 .09298706 .6669922 .115997318 .68099978 .14099121 .69499209 .1659851 .70199587 .19099427 .70199587 .21598816 .70199587 .2519989 .6879883 .2829895 .6609955 .30999757 .6339874 .33599855 .59599307 .35198976 .5469971 .35699464 .57299807 .3619995 .598999 .36999513 .6239929 .3809967 .6489868 .3919983 .67099 .4059906 .69099429 .4229889 .70999148 .43899537 .7259979 .45700074 .73799136 .47799684 .75 .49899293 .7559967 .5209961 .7559967 .54499819 .7559967 .56399539 .7519989 .58099368 .74398806 .59799197 .73599246 .61499026 .723999 .6289978 .70799258 .6419983 .69200137 .6549988 .6729889 .6649933 .6499939 .6719971 .6269989 .67900088 .59999087 .68299868 .56999209 .68299868H.23399353C.22499085 .68299868 .21798706 .6819916 .21299744 .68099978 .20799256 .67900088 .20498657 .6729889 .20498657 .6629944 .20498657 .6579895 .20698548 .6549988 .21199036 .6539917 .21699524 .6529999 .22399903 .6519928 .23298645 .6519928 .23399353 .6519928 .23899842 .6519928 .24598694 .6519928 .2539978 .6519928 .2619934 .651001 .2709961 .6499939 .27999879 .6489868 .2869873 .6469879 .2919922 .6459961 .29599 .644989 .2979889 .6409912 .2979889 .6339874 .2979889 .6319885 .2979889 .6299896 .29699708 .6279907 .29599 .625 .29499818 .62098696 .2939911 .61499026L.1599884 .07798767M.31098939 .3659973 .37298585 .6139984C.375 .6230011 .3769989 .6299896 .3789978 .6349945 .3809967 .6399994 .38398744 .6429901 .3869934 .6459961 .3899994 .6489868 .394989 .6499939 .4019928 .651001 .4079895 .6519928 .41600038 .6519928 .4269867 .6519928H.55599978C.5779877 .6519928 .59599307 .6489868 .6100006 .6419983 .6239929 .6349945 .6349945 .6269989 .6439972 .61698916 .6519928 .6069946 .6579895 .59599307 .6609955 .58399966 .6639862 .57099917 .6649933 .55999758 .6649933 .548996 .6649933 .5269928 .6599884 .5049896 .6499939 .48399354 .6389923 .46199037 .625 .44198609 .6069946 .4249878 .58799746 .40699769 .56599429 .3929901 .54100039 .38198854 .5159912 .37098695 .48799134 .3659973 .45700074 .3659973H.31098939M.2659912 .0309906C.25898744 .0309906 .2539978 .0309906 .2519989 .0309906 .25 .0309906 .24699402 .0309906 .24398804 .03199768 .23899842 .032989503 .23498535 .033996583 .23399353 .034988405 .23199463 .035995485 .23098755 .037994386 .23098755 .041992189 .23098755 .042999269 .23098755 .04499817 .23199463 .04798889 .23199463 .049987794 .23298645 .055999757 .23599243 .06498718L.30499269 .34399415H.49398805C.5179901 .34399415 .5379944 .33999635 .5529938 .33198548 .56799319 .32398988 .57899478 .31399537 .58799746 .3019867 .59599307 .2899933 .60198977 .2769928 .6049957 .2639923 .60798647 .25 .60899356 .23799134 .60899356 .22698975 .60899356 .20199585 .60398867 .17799378 .59298709 .15499878 .58200076 .1309967 .56799319 .10998535 .5499878 .09199524 .5309906 .07299805 .5089874 .05899048 .48399354 .04798889 .45899964 .036987306 .43099977 .0309906 .4019928 .0309906H.2659912Z" />

<path id="font_11_3" d="M.47099305 .3769989C.47200013 .37998963 .47200013 .3829956 .47299195 .38598634 .47399903 .3889923 .47399903 .3919983 .47399903 .394989 .47399903 .4039917 .47099305 .4099884 .46598817 .4149933 .46099855 .41999818 .45399476 .42199708 .44499208 .42199708 .44198609 .42199708 .43899537 .42199708 .43499757 .42099 .43099977 .41999818 .4269867 .4169922 .4229889 .4139862 .41799928 .41099549 .4139862 .4059906 .41099549 .40098573 .40699769 .394989 .40499879 .3880005 .4039917 .3789978 .394989 .397995 .38198854 .41299439 .3659973 .4249878 .34899903 .43598939 .33099366 .44198609 .31098939 .44198609 .28199769 .44198609 .2539978 .43399049 .22599793 .41799928 .19699097 .4019928 .17199707 .3809967 .14898682 .35398866 .12599182 .32699586 .10798645 .29699708 .09399414 .2630005 .07998657 .22898865 .07299805 .19400025 .07299805 .1579895 .07299805 .1329956 .07699585 .11099243 .083999637 .09199524 .09098816 .07199097 .099990848 .054992677 .11299133 .041992189 .125 .0289917 .13899231 .017990113 .15499878 .010986328 .17098999 .0039978029 .18798828 0 .20599365 0 .22099304 0 .23498535 .0029907227 .24798584 .0079956059 .26098634 .0129852299 .27198792 .017990113 .2829895 .024993897 .29299928 .03199768 .30099488 .037994386 .30799867 .04499817 .31498719 .050994874 .31900025 .054992677 .32199098 .057998659L.32299806 .056991579C.31199647 .011993408 .3039856-.021011353 .29899598-.042007448 .29299928-.06300354 .2899933-.07400513 .2899933-.07501221 .2889862-.07701111 .28599549-.08401489 .2809906-.0960083 .27598573-.10700989 .2679901-.120010379 .25698854-.13301087 .24598694-.14601135 .23098755-.15701294 .21299744-.16801453 .19499207-.17800904 .17298889-.18301392 .1459961-.18301392 .13699341-.18301392 .125-.18301392 .10998535-.18200684 .09498596-.18101502 .07998657-.17800904 .06599426-.17300415 .08099365-.16801453 .09199524-.16101074 .09799194-.15000916 .10398865-.13900757 .10699463-.13000489 .10699463-.1210022 .10699463-.11300659 .10398865-.10501099 .09799194-.0980072 .09199524-.0900116 .08198547-.086013797 .068984989-.086013797 .06399536-.086013797 .057998659-.087005618 .051986696-.0900116 .04499817-.0920105 .038986207-.09500122 .033996583-.1000061 .0289917-.10501099 .023986817-.11100769 .020996094-.118011478 .016998291-.12501526 .01499939-.13400269 .01499939-.14401245 .01499939-.16500855 .024993897-.18000794 .04598999-.19000244 .06599426-.2000122 .099990848-.20500183 .147995-.20500183 .1789856-.20500183 .20698548-.20100403 .23199463-.19200135 .25698854-.18301392 .27799989-.17201233 .29599-.15901184 .31298829-.14500427 .32699586-.13000489 .33799745-.11401367 .34899903-.0980072 .35598756-.08200073 .3600006-.06700134L.47099305 .3769989M.34098817 .12799073C.33799745 .114990238 .33099366 .101989749 .32199098 .08999634 .31199647 .07798767 .30099488 .066986087 .2899933 .057998659 .2789917 .04899597 .2669983 .039993287 .25299073 .032989503 .23799134 .025985718 .22399903 .021987915 .20899964 .021987915 .19599915 .021987915 .18598938 .024993897 .17799378 .0309906 .16899109 .035995485 .16299439 .04399109 .1579895 .052993776 .15299988 .06199646 .14898682 .07199097 .14698792 .08299255 .14498902 .09399414 .14399719 .10398865 .14399719 .11399841 .14399719 .12599182 .1459961 .14199829 .14898682 .16099549 .1519928 .17999268 .15699768 .20098877 .1619873 .22200012 .16699219 .24299622 .17298889 .2630005 .17999268 .2829895 .18699646 .3019867 .19299317 .31799317 .19999695 .33099366 .21299744 .35598756 .22999573 .3769989 .25 .3939972 .269989 .41099549 .29100038 .41999818 .31199647 .41999818 .32899476 .41999818 .34199525 .41600038 .35299684 .4079895 .36299134 .39898683 .37098695 .3899994 .3769989 .3789978 .3829956 .36799623 .3869934 .35899354 .3889923 .34999085 .3909912 .34098817 .3919983 .33499146 .3919983 .33399964 .3919983 .33099366 .3919983 .32899476 .3909912 .32598878 .3899994 .32299806 .3899994 .32099916 .3889923 .31900025L.34098817 .12799073Z" />

<clipPath id="clip_15">
<path transform="matrix(.1,0,0,-.1,335.622,392.30503)" d="M846.781 680.691C878.914 680.691 905.125 654.48 905.125 622.348 905.125 590.215 878.914 564.004 846.781 564.004 814.648 564.004 788.438 590.215 788.438 622.348 788.438 654.48 814.648 680.691 846.781 680.691Z" clip-rule="evenodd" />
</clipPath>

<path id="font_11_4" d="M.08799744 .05899048C.08699036 .051986696 .084991458 .042999269 .08299255 .033996583 .07998657 .024993897 .07899475 .018997193 .07899475 .015991211 .07899475 .0069885256 .08198547 0 .08799744-.005004883 .09399414-.009002686 .100997928-.011001587 .10798645-.011001587 .11399841-.011001587 .12098694-.009002686 .1289978-.005004883 .13598633 0 .14199829 .0069885256 .14498902 .016998291 .14498902 .017990113 .1459961 .020996094 .147995 .025985718 .14898682 .0309906 .15098572 .037994386 .15299988 .04598999 .15499878 .052993776 .15699768 .06098938 .15899658 .069992069 .16099549 .07798767 .16299439 .084991458 .1639862 .09098816 .16699219 .10598755 .17098999 .12098694 .1749878 .13598633 .1789856 .15098572 .18299866 .1659851 .18598938 .18099976 .18899536 .19198609 .19198609 .20399475 .19499207 .21499634 .19799805 .22599793 .19999695 .23699951 .20298767 .24798584 .20498657 .25698854 .20799256 .2669983 .21099854 .27799989 .21398926 .2889862 .21499634 .29599 .21598816 .2979889 .21998596 .30599977 .22599793 .31698609 .23498535 .33099366 .24299622 .34399415 .2539978 .35798646 .2679901 .37098695 .2809906 .38398744 .29699708 .3959961 .31599427 .4059906 .33399964 .4149933 .35499574 .41999818 .3789978 .41999818 .3899994 .41999818 .3999939 .41799928 .40699769 .4139862 .4139862 .40899659 .4189911 .4039917 .4229889 .39698792 .4269867 .3899994 .42999269 .3829956 .43099977 .375 .43199159 .3659973 .43299867 .35798646 .43299867 .34999085 .43299867 .33699037 .43199159 .32398988 .42900086 .31098939 .42599488 .29699708 .42199708 .28199769 .41799928 .2669983 .4149933 .2539978 .4119873 .24299622 .4099884 .23399353 .4079895 .22399903 .4059906 .21499634 .4039917 .20698548 .4019928 .19799805 .3999939 .18998719 .397995 .18099976 .394989 .17199707 .3929901 .1619873 .3899994 .15098572 .3869934 .14199829 .3849945 .13398743 .38398744 .12799073 .3829956 .12199402 .3809967 .116989139 .37998963 .11199951 .3789978 .10699463 .3769989 .100997928 .37599183 .09599304 .37399293 .08999634 .37199403 .08299255 .36999513 .07499695 .36898805 .069992069 .36698915 .06399536 .3659973 .057998659 .36499024 .051986696 .36299134 .04598999 .3619995 .039993287 .36099244 .033996583 .3600006 .0289917 .35899354 .024993897 .35798646 .019989014 .35699464 .016998291 .35699464 .015991211 .35699464 .0069885256 .3600006 0 .3659973-.005004883 .37199403-.009002686 .3789978-.011001587 .38598634-.011001587 .40098573-.011001587 .4119873-.006011963 .4169922 .005996704 .42199708 .016998291 .4269867 .02999878 .43099977 .04598999 .43399049 .05999756 .43899537 .07899475 .44499208 .101989749 .45098878 .125 .45700074 .14898682 .46299745 .17298889 .46899415 .19699097 .47499085 .21998596 .47999574 .24099732 .4850006 .2619934 .4889984 .2769928 .4909973 .2869873 .49198915 .2899933 .49598695 .29899598 .5029907 .31399537 .5099945 .32798768 .519989 .34298707 .5339966 .35899354 .5469971 .37399293 .56399539 .3880005 .58499148 .40098573 .6049957 .4139862 .6289978 .41999818 .6559906 .41999818 .6769867 .41999818 .69200137 .41299439 .69898989 .39898683 .70599368 .38398744 .70999148 .36799623 .70999148 .34999085 .70999148 .33599855 .70799258 .31900025 .7029877 .29899598 .69799807 .27799989 .69299319 .2579956 .68699648 .23699951 .6799927 .21598816 .6729889 .19499207 .66600039 .17599488 .6589966 .1559906 .6529999 .13899231 .647995 .12599182 .6429901 .11399841 .6399994 .10398865 .6380005 .09700012 .6359863 .08999634 .6349945 .08099365 .6349945 .070999149 .6349945 .04798889 .6429901 .027999878 .6589966 .0129852299 .673996-.0030059815 .69400027-.011001587 .71699526-.011001587 .73999026-.011001587 .7599945-.0030059815 .7769928 .011993408 .7939911 .026992798 .8069916 .04399109 .81799319 .06298828 .8279877 .08198547 .83599856 .09899902 .84098818 .115997318 .84599307 .13198853 .84799197 .14099121 .84799197 .14299011 .84799197 .147995 .84599307 .15098572 .84298709 .1519928 .83999636 .15299988 .83699038 .15299988 .83599856 .15299988 .83099368 .15299988 .8279877 .1519928 .82699587 .1499939 .82598879 .14698792 .82398989 .14199829 .82099917 .1349945 .81700137 .12199402 .81199648 .10798645 .8069916 .09298706 .8009949 .07798767 .7939911 .06498718 .7849884 .052993776 .776001 .040985109 .7669983 .0309906 .7559967 .022994996 .7449951 .01499939 .73298647 .010986328 .71899417 .010986328 .7029877 .010986328 .69499209 .021987915 .69499209 .04399109 .69499209 .056991579 .69699099 .068984989 .70098879 .08099365 .70399478 .09199524 .70799258 .10398865 .71299746 .114990238 .71798709 .12799073 .723999 .14399719 .73098757 .16299439 .73799136 .18199158 .74398806 .20199585 .7509918 .22299195 .7569885 .24398804 .7619934 .2639923 .7669983 .28399659 .7719879 .3039856 .7739868 .32099916 .7739868 .33499146 .7739868 .36799623 .7639923 .3939972 .7449951 .41299439 .7259979 .43199159 .69699099 .44198609 .6589966 .44198609 .62098696 .44198609 .58898928 .43299867 .5629883 .4139862 .5369873 .394989 .5149994 .37199403 .49598695 .34498597 .49499513 .35198976 .49299623 .3619995 .48999024 .3769989 .4869995 .3909912 .47799684 .4039917 .46398927 .41600038 .45098878 .4269867 .43798829 .43399049 .4229889 .43699647 .4079895 .43998719 .394989 .44198609 .38198854 .44198609 .35899354 .44198609 .33898927 .43899537 .32199098 .43199159 .30499269 .4249878 .2899933 .41600038 .2769928 .40699769 .2639923 .397995 .25299073 .3880005 .24499512 .3789978 .23599243 .36898805 .22999573 .36099244 .22599793 .35499574 .22299195 .38398744 .21299744 .40499879 .19499207 .41999818 .1769867 .43499757 .15699768 .44198609 .13398743 .44198609 .12298584 .44198609 .11299133 .43998719 .10499573 .43598939 .09599304 .43099977 .08898926 .42599488 .08299255 .41999818 .07699585 .4139862 .07199097 .4079895 .068984989 .4019928 .06498718 .394989 .06199646 .3899994 .05999756 .3849945 .054992677 .37599183 .050994874 .36698915 .04798889 .35598756 .04399109 .34498597 .040985109 .33399964 .037994386 .32499696 .034988405 .31498719 .032989503 .30699159 .03199768 .2999878 .02999878 .29299928 .0289917 .2889862 .0289917 .28799439 .0289917 .2829895 .0309906 .27999879 .033996583 .2789917 .036987306 .27799989 .039993287 .27799989 .040985109 .27799989 .04598999 .27799989 .049987794 .2789917 .050994874 .2809906 .051986696 .2829895 .054992677 .2899933 .057998659 .30099488 .066986087 .33699037 .07699585 .3659973 .08799744 .3880005 .09899902 .40899659 .11299133 .41999818 .1309967 .41999818 .13899231 .41999818 .1459961 .4169922 .15299988 .4119873 .15899658 .4059906 .1619873 .3929901 .1619873 .37399293 .1619873 .36898805 .1619873 .3639984 .1619873 .3600006 .16099549 .35499574 .1599884 .34999085 .15899658 .34399415 .1579895 .33799745 .1559906 .33099366 .1539917 .32199098 .1519928 .31298829 .14898682 .30299378 .1459961 .2899933L.08799744 .05899048Z" />

<path id="font_14_1" d="M.23498535 .24899292C.23498535 .27999879 .23999024 .30799867 .25099183 .33299256 .26098634 .35798646 .272995 .3789978 .28799439 .397995 .3019867 .4169922 .31698609 .43199159 .33198548 .44400025 .34700013 .45599366 .35798646 .46499635 .36698915 .47200013 .37998963 .48199464 .3919983 .49598695 .40098573 .5130005 .4099884 .5299988 .4149933 .548996 .4149933 .56999209 .4149933 .58499148 .4119873 .59999087 .40699769 .6159973 .40098573 .6309967 .3909912 .6459961 .3769989 .6589966 .3619995 .6719971 .34298707 .68299868 .31900025 .69200137 .2939911 .70098879 .2630005 .7049866 .22599793 .7049866 .19898987 .7049866 .1749878 .70098879 .1539917 .69400027 .1329956 .6859894 .114990238 .6759949 .100997928 .6629944 .085998538 .6499939 .07499695 .6359863 .067993167 .6199951 .05999756 .60398867 .055999757 .58799746 .055999757 .57199099 .055999757 .5549927 .06098938 .5419922 .070999149 .5349884 .07998657 .5279999 .09098816 .5239868 .101989749 .5239868 .115997318 .5239868 .1269989 .5279999 .13598633 .5369873 .14399719 .54599 .147995 .5569916 .147995 .56999209 .147995 .58099368 .1459961 .58999636 .14099121 .59599307 .13598633 .60198977 .1309967 .6069946 .125 .6100006 .11898804 .61299136 .11299133 .6139984 .10699463 .61499026 .099990848 .61499026 .09498596 .61499026 .09199524 .61499026 .099990848 .6279907 .10899353 .6389923 .11999512 .647995 .1309967 .6569977 .14199829 .6639862 .1539917 .6689911 .16499329 .673996 .1769867 .6779938 .18899536 .6799927 .20098877 .6819916 .21199036 .68299868 .22299195 .68299868 .25 .68299868 .2709961 .67900088 .28599549 .6719971 .30099488 .6649933 .31199647 .6559906 .31900025 .644989 .32598878 .6339874 .32998658 .621994 .33099366 .6100006 .33198548 .5970001 .33198548 .58599856 .33198548 .57598879 .33198548 .5469971 .32899476 .526001 .32199098 .5130005 .31498719 .5 .30699159 .48999024 .2979889 .48098756 .2809906 .46299745 .2679901 .44400025 .25698854 .42399598 .24598694 .4039917 .23699951 .38398744 .22999573 .36499024 .22299195 .34498597 .21798706 .32598878 .21499634 .30699159 .21199036 .28799439 .20999146 .2709961 .20999146 .2559967V.21099854C.20999146 .20199585 .21099854 .19499207 .21199036 .19198609 .21299744 .18899536 .21598816 .18699646 .22200012 .18699646 .22898865 .18699646 .23298645 .18899536 .23399353 .19400025 .23498535 .19799805 .23498535 .20498657 .23498535 .21398926V.24899292M.2749939 .052993776C.2749939 .067993167 .269989 .07998657 .2599945 .09098816 .24899292 .100997928 .23699951 .10598755 .22200012 .10598755 .20698548 .10598755 .19499207 .100997928 .18499756 .09098816 .17399597 .07998657 .16899109 .067993167 .16899109 .052993776 .16899109 .037994386 .17399597 .025985718 .18499756 .015991211 .19499207 .004989624 .20698548 0 .22200012 0 .23699951 0 .24899292 .004989624 .2599945 .015991211 .269989 .025985718 .2749939 .037994386 .2749939 .052993776Z" />

</defs>
<g clip-path="url(#clip_10)">
<path transform="matrix(.1,0,0,-.1,335.622,392.30503)" stroke-width="11.3386" stroke-linecap="butt" stroke-miterlimit="2.6131" stroke-linejoin="miter" fill="none" stroke="#231f20" d="M167.051 1329.39C227.766 1105.86 357.77 735.066 711.551 650.969 1065.33 566.875 1361.04 557.949 1497.33 270.863" />
<path transform="matrix(.1,0,0,-.1,335.622,392.30503)" d="M846.781 680.691C878.914 680.691 905.125 654.48 905.125 622.348 905.125 590.215 878.914 564.004 846.781 564.004 814.648 564.004 788.438 590.215 788.438 622.348 788.438 654.48 814.648 680.691 846.781 680.691" fill="#ffffff" fill-rule="evenodd" />
<use data-text="A" xlink:href="#font_11_1" transform="matrix(11.9997,0,0,-11.9997,340.62593,257.143)" fill="#231f20" />
<use data-text="e" xlink:href="#font_12_1" transform="matrix(11.9997,0,0,-11.9997,512.9369,254.64614)" fill="#231f20" />
<use data-text="x" xlink:href="#font_13_5" transform="matrix(7.99952,0,0,-7.99952,519.2604,257.28599)" fill="#231f20" />
<use data-text="I" xlink:href="#font_13_4" transform="matrix(7.99952,0,0,-7.99952,520.7084,252.00629)" fill="#231f20" />
<use data-text="e" xlink:href="#font_12_1" transform="matrix(11.9997,0,0,-11.9997,336.7094,387.97029)" fill="#231f20" />
<use data-text="y" xlink:href="#font_13_6" transform="matrix(7.99952,0,0,-7.99952,343.03285,390.61015)" fill="#231f20" />
<use data-text="I" xlink:href="#font_13_4" transform="matrix(7.99952,0,0,-7.99952,343.83287,385.33045)" fill="#231f20" />
<path transform="matrix(.1,0,0,-.1,335.622,392.30503)" stroke-width="5.6693" stroke-linecap="butt" stroke-miterlimit="2.6131" stroke-linejoin="miter" fill="none" stroke="#231f20" d="M5.26563 1326.86H833.855" />
<path transform="matrix(.1,0,0,-.1,335.622,392.30503)" d="M791.055 1326.86C791.059 1333.27 788.676 1339.69 784.434 1344.45L846.598 1326.86 784.434 1309.25C788.676 1314.02 791.055 1320.44 791.055 1326.86" fill="#231f20" fill-rule="evenodd" />
<path transform="matrix(.1,0,0,-.1,335.622,392.30503)" stroke-width="5.6693" stroke-linecap="butt" stroke-miterlimit="2.6131" stroke-linejoin="miter" fill="none" stroke="#231f20" d="M168.207 1480.44V38.1133" />
<path transform="matrix(.1,0,0,-.1,335.622,392.30503)" d="M168.207 80.918C174.625 80.9141 181.043 83.293 185.809 87.5352L168.207 25.3711 150.609 87.5352C155.375 83.293 161.793 80.918 168.207 80.918" fill="#231f20" fill-rule="evenodd" />
<path transform="matrix(.1,0,0,-.1,335.622,392.30503)" d="M164.004 1338.78C170.344 1341.05 177.375 1337.74 179.648 1331.4 181.926 1325.06 178.613 1318.03 172.27 1315.76 165.934 1313.48 158.906 1316.79 156.625 1323.13 154.352 1329.47 157.664 1336.5 164.004 1338.78" fill="#231f20" fill-rule="evenodd" />
<path transform="matrix(.1,0,0,-.1,335.622,392.30503)" stroke-width="5.6693" stroke-linecap="butt" stroke-miterlimit="2.6131" stroke-linejoin="miter" fill="none" stroke="#231f20" d="M164.004 1338.78C170.344 1341.05 177.375 1337.74 179.648 1331.4 181.926 1325.06 178.613 1318.03 172.27 1315.76 165.934 1313.48 158.906 1316.79 156.625 1323.13 154.352 1329.47 157.664 1336.5 164.004 1338.78Z" />
<use data-text="x" xlink:href="#font_13_5" transform="matrix(11.9997,0,0,-11.9997,381.9263,271.72505)" fill="#231f20" />
<use data-text="t" xlink:href="#font_13_3" transform="matrix(11.9997,0,0,-11.9997,393.4341,271.72505)" fill="#231f20" />
<use data-text="(" xlink:href="#font_14_3" transform="matrix(11.9997,0,0,-11.9997,388.77827,271.72505)" fill="#231f20" />
<use data-text=")" xlink:href="#font_14_2" transform="matrix(11.9997,0,0,-11.9997,397.76576,271.72505)" fill="#231f20" />
<use data-text="s" xlink:href="#font_13_2" transform="matrix(11.9997,0,0,-11.9997,399.54777,303.96455)" fill="#231f20" />
<use data-text="t" xlink:href="#font_13_3" transform="matrix(11.9997,0,0,-11.9997,409.81925,303.96455)" fill="#231f20" />
<use data-text="(" xlink:href="#font_14_3" transform="matrix(11.9997,0,0,-11.9997,405.1634,303.96455)" fill="#231f20" />
<use data-text=")" xlink:href="#font_14_2" transform="matrix(11.9997,0,0,-11.9997,414.15129,303.96455)" fill="#231f20" />
<use data-text="x" xlink:href="#font_13_5" transform="matrix(11.9997,0,0,-11.9997,482.2888,254.64693)" fill="#231f20" />
<use data-text="B" xlink:href="#font_13_1" transform="matrix(7.99952,0,0,-7.99952,489.14036,257.28678)" fill="#231f20" />
<use data-text="y" xlink:href="#font_13_6" transform="matrix(11.9997,0,0,-11.9997,335.71638,365.95979)" fill="#231f20" />
<use data-text="B" xlink:href="#font_13_1" transform="matrix(7.99952,0,0,-7.99952,341.59605,368.5996)" fill="#231f20" />
<use data-text="B" xlink:href="#font_11_2" transform="matrix(11.9997,0,0,-11.9997,486.95805,371.21525)" fill="#231f20" />
<use data-text="g" xlink:href="#font_11_3" transform="matrix(11.9997,0,0,-11.9997,511.62324,299.62696)" fill="#231f20" />
<g clip-path="url(#clip_15)">
<path transform="matrix(.1,0,0,-.1,335.622,392.30503)" stroke-width="3.6" stroke-linecap="butt" stroke-miterlimit="2.6131" stroke-linejoin="miter" fill="none" stroke="#231f20" d="M862.113 520.512 744.754 637.875" />
<path transform="matrix(.1,0,0,-.1,335.622,392.30503)" stroke-width="3.6" stroke-linecap="butt" stroke-miterlimit="2.6131" stroke-linejoin="miter" fill="none" stroke="#231f20" d="M877.387 535.785 760.027 653.148" />
<path transform="matrix(.1,0,0,-.1,335.622,392.30503)" stroke-width="3.6" stroke-linecap="butt" stroke-miterlimit="2.6131" stroke-linejoin="miter" fill="none" stroke="#231f20" d="M892.66 551.059 775.301 668.422" />
<path transform="matrix(.1,0,0,-.1,335.622,392.30503)" stroke-width="3.6" stroke-linecap="butt" stroke-miterlimit="2.6131" stroke-linejoin="miter" fill="none" stroke="#231f20" d="M907.934 566.332 790.574 683.695" />
<path transform="matrix(.1,0,0,-.1,335.622,392.30503)" stroke-width="3.6" stroke-linecap="butt" stroke-miterlimit="2.6131" stroke-linejoin="miter" fill="none" stroke="#231f20" d="M923.207 581.609 805.848 698.969" />
<path transform="matrix(.1,0,0,-.1,335.622,392.30503)" stroke-width="3.6" stroke-linecap="butt" stroke-miterlimit="2.6131" stroke-linejoin="miter" fill="none" stroke="#231f20" d="M938.48 596.883 821.121 714.242" />
<path transform="matrix(.1,0,0,-.1,335.622,392.30503)" stroke-width="3.6" stroke-linecap="butt" stroke-miterlimit="2.6131" stroke-linejoin="miter" fill="none" stroke="#231f20" d="M953.754 612.156 836.395 729.516" />
<path transform="matrix(.1,0,0,-.1,335.622,392.30503)" stroke-width="3.6" stroke-linecap="butt" stroke-miterlimit="2.6131" stroke-linejoin="miter" fill="none" stroke="#231f20" d="M969.027 627.43 851.668 744.789" />
</g>
<path transform="matrix(.1,0,0,-.1,335.622,392.30503)" stroke-width="11.3386" stroke-linecap="butt" stroke-miterlimit="2.6131" stroke-linejoin="miter" fill="none" stroke="#231f20" d="M846.781 680.691C878.914 680.691 905.125 654.48 905.125 622.348 905.125 590.215 878.914 564.004 846.781 564.004 814.648 564.004 788.438 590.215 788.438 622.348 788.438 654.48 814.648 680.691 846.781 680.691Z" />
<path transform="matrix(.1,0,0,-.1,335.622,392.30503)" stroke-width="5.6693" stroke-linecap="butt" stroke-miterlimit="2.6131" stroke-linejoin="miter" fill="none" stroke="#231f20" d="M879.531 1326.86H1838.8" />
<path transform="matrix(.1,0,0,-.1,335.622,392.30503)" d="M1796 1326.86C1796 1333.27 1793.62 1339.69 1789.38 1344.45L1851.54 1326.86 1789.38 1309.25C1793.62 1314.02 1796 1320.44 1796 1326.86" fill="#231f20" fill-rule="evenodd" />
<path transform="matrix(.1,0,0,-.1,335.622,392.30503)" stroke-width="5.6693" stroke-linecap="butt" stroke-miterlimit="2.6131" stroke-linejoin="miter" fill="none" stroke="#231f20" d="M846.883 1326.86V692.793" />
<path transform="matrix(.1,0,0,-.1,335.622,392.30503)" d="M846.883 735.594C853.301 735.594 859.715 737.973 864.484 742.215L846.883 680.051 829.281 742.215C834.047 737.973 840.469 735.594 846.883 735.594" fill="#231f20" fill-rule="evenodd" />
<path transform="matrix(.1,0,0,-.1,335.622,392.30503)" d="M1493.46 282.254C1499.8 284.535 1506.83 281.223 1509.11 274.879 1511.38 268.539 1508.07 261.512 1501.73 259.234 1495.39 256.957 1488.36 260.273 1486.08 266.609 1483.81 272.953 1487.12 279.98 1493.46 282.254" fill="#231f20" fill-rule="evenodd" />
<path transform="matrix(.1,0,0,-.1,335.622,392.30503)" stroke-width="5.6693" stroke-linecap="butt" stroke-miterlimit="2.6131" stroke-linejoin="miter" fill="none" stroke="#231f20" d="M1493.46 282.254C1499.8 284.535 1506.83 281.223 1509.11 274.879 1511.38 268.539 1508.07 261.512 1501.73 259.234 1495.39 256.957 1488.36 260.273 1486.08 266.609 1483.81 272.953 1487.12 279.98 1493.46 282.254Z" />
<use data-text="m" xlink:href="#font_11_4" transform="matrix(11.9997,0,0,-11.9997,428.6693,328.61283)" fill="#231f20" />
<path transform="matrix(.1,0,0,-.1,335.622,392.30503)" stroke-width="5.6693" stroke-linecap="butt" stroke-miterlimit="2.6131" stroke-linejoin="miter" fill="none" stroke="#231f20" d="M1497.59 1296.59V1357.12" />
<path transform="matrix(.1,0,0,-.1,335.622,392.30503)" stroke-width="5.6693" stroke-linecap="butt" stroke-miterlimit="2.6131" stroke-linejoin="miter" fill="none" stroke="#231f20" d="M137.945 270.746H198.473" />
<path transform="matrix(.1,0,0,-.1,335.622,392.30503)" stroke-width="11.3386" stroke-linecap="butt" stroke-miterlimit="2.6131" stroke-linejoin="miter" fill="none" stroke="#231f20" d="M1710.68 1145.68V704.801" />
<path transform="matrix(.1,0,0,-.1,335.622,392.30503)" d="M1710.68 732.316C1717.89 732.313 1725.11 734.992 1730.48 739.762L1710.68 669.836 1690.88 739.762C1696.24 734.992 1703.46 732.316 1710.68 732.316" fill="#231f20" fill-rule="evenodd" />
<use data-text="?" xlink:href="#font_14_1" transform="matrix(15.9996,0,0,-15.9996,445.599,360.26243)" fill="#231f20" />
<path transform="matrix(.1,0,0,-.1,335.622,392.30503)" stroke-width="5.6693" stroke-linecap="butt" stroke-miterlimit="2.6131" stroke-linejoin="miter" fill="none" stroke="#231f20" d="M1199.54 405.332 1358.04 449.664" />
</g>
<g clip-path="url(#clip_15)">
<path transform="matrix(.1,0,0,-.1,335.622,392.30503)" stroke-width="3.6" stroke-linecap="butt" stroke-miterlimit="2.6131" stroke-linejoin="miter" fill="none" stroke="#231f20" d="M862.113 520.512 744.754 637.875" />
<path transform="matrix(.1,0,0,-.1,335.622,392.30503)" stroke-width="3.6" stroke-linecap="butt" stroke-miterlimit="2.6131" stroke-linejoin="miter" fill="none" stroke="#231f20" d="M877.387 535.785 760.027 653.148" />
<path transform="matrix(.1,0,0,-.1,335.622,392.30503)" stroke-width="3.6" stroke-linecap="butt" stroke-miterlimit="2.6131" stroke-linejoin="miter" fill="none" stroke="#231f20" d="M892.66 551.059 775.301 668.422" />
<path transform="matrix(.1,0,0,-.1,335.622,392.30503)" stroke-width="3.6" stroke-linecap="butt" stroke-miterlimit="2.6131" stroke-linejoin="miter" fill="none" stroke="#231f20" d="M907.934 566.332 790.574 683.695" />
<path transform="matrix(.1,0,0,-.1,335.622,392.30503)" stroke-width="3.6" stroke-linecap="butt" stroke-miterlimit="2.6131" stroke-linejoin="miter" fill="none" stroke="#231f20" d="M923.207 581.609 805.848 698.969" />
<path transform="matrix(.1,0,0,-.1,335.622,392.30503)" stroke-width="3.6" stroke-linecap="butt" stroke-miterlimit="2.6131" stroke-linejoin="miter" fill="none" stroke="#231f20" d="M938.48 596.883 821.121 714.242" />
<path transform="matrix(.1,0,0,-.1,335.622,392.30503)" stroke-width="3.6" stroke-linecap="butt" stroke-miterlimit="2.6131" stroke-linejoin="miter" fill="none" stroke="#231f20" d="M953.754 612.156 836.395 729.516" />
<path transform="matrix(.1,0,0,-.1,335.622,392.30503)" stroke-width="3.6" stroke-linecap="butt" stroke-miterlimit="2.6131" stroke-linejoin="miter" fill="none" stroke="#231f20" d="M969.027 627.43 851.668 744.789" />
</g>

</svg>