<svg xmlns="http://www.w3.org/2000/svg" xmlns:xlink="http://www.w3.org/1999/xlink" version="1.1" width="253.520" height="366.384" viewBox="274.598 164.805 253.520 366.384">
<defs>
<clipPath id="clip_2">
<path transform="matrix(1,0,0,-1,327.118,306.805)" d="M0 0H191V132H0Z" />
</clipPath>

<path id="font_3_2" d="M.3939972 .37998963C.38598634 .37998963 .3789978 .37998963 .37199403 .3789978 .36499024 .37799073 .35699464 .37298585 .34999085 .3659973 .34199525 .35899354 .33699037 .35099793 .33499146 .34399415 .33299256 .33599855 .33198548 .32998658 .33198548 .32699586 .33198548 .31498719 .33599855 .30599977 .34399415 .30099488 .35099793 .29499818 .3600006 .2919922 .36898805 .2919922 .38398744 .2919922 .39698792 .2979889 .4079895 .30899049 .4189911 .31999208 .4249878 .33599855 .4249878 .35598756 .4249878 .3809967 .4139862 .40098573 .3929901 .41799928 .37199403 .43399049 .34298707 .44198609 .30699159 .44198609 .272995 .44198609 .23999024 .43399049 .20799256 .41799928 .17599488 .40098573 .147995 .37998963 .12298584 .35299684 .09799194 .32598878 .07798767 .29599 .06298828 .2619934 .04899597 .22799683 .040985109 .19299317 .040985109 .1579895 .040985109 .1349945 .04399109 .11399841 .050994874 .09399414 .057998659 .07299805 .067993167 .054992677 .08198547 .039993287 .09599304 .023986817 .11199951 .011993408 .13198853 .0029907227 .1519928-.007003784 .1749878-.011001587 .20098877-.011001587 .23699951-.011001587 .2689972-.006011963 .29699708 .005996704 .32499696 .016998291 .34899903 .0289917 .36799623 .042999269 .3869934 .056991579 .4019928 .069992069 .41299439 .08299255 .4229889 .09599304 .42799378 .10398865 .42799378 .10699463 .42799378 .10998535 .4269867 .11299133 .4249878 .115997318 .42199708 .11898804 .4189911 .11999512 .41600038 .11999512 .41299439 .11999512 .41099549 .11898804 .4099884 .117996219 .40899659 .116989139 .4059906 .11399841 .40299989 .10998535 .3829956 .084991458 .3619995 .06599426 .33999635 .052993776 .31799317 .039993287 .29699708 .02999878 .27799989 .023986817 .25898744 .016998291 .24198914 .01399231 .22799683 .0129852299 .21398926 .011993408 .20599365 .010986328 .20298767 .010986328 .17199707 .010986328 .14898682 .021987915 .1349945 .042999269 .11999512 .06399536 .11299133 .08999634 .11299133 .11999512 .11299133 .12998963 .11399841 .14299011 .116989139 .1599884 .11898804 .17599488 .12199402 .19299317 .1269989 .21199036 .13198853 .23098755 .13699341 .25 .14399719 .2689972 .15098572 .28799439 .1579895 .30499269 .16699219 .31999208 .18199158 .34899903 .20298767 .37298585 .22799683 .3919983 .25299073 .41099549 .27999879 .41999818 .30799867 .41999818 .32499696 .41999818 .34199525 .4169922 .35899354 .4099884 .375 .40299989 .3869934 .3929901 .3939972 .37998963Z" />

<path id="font_4_1" d="M.2939911 .6399994C.2939911 .6519928 .29299928 .6589966 .29100038 .6619873 .2889862 .6649933 .28199769 .66600039 .2709961 .66600039 .2559967 .6499939 .23899842 .6380005 .22099304 .6289978 .20298767 .6199951 .18598938 .6139984 .16899109 .6100006 .1519928 .60598757 .13598633 .60398867 .12199402 .6029968 .10798645 .60198977 .09700012 .60198977 .08898926 .60198977V.57099917C.09399414 .57099917 .100997928 .57099917 .11099243 .57199099 .11999512 .57199099 .1309967 .57299807 .14299011 .57499697 .1539917 .57598879 .16699219 .57899478 .17999268 .58200076 .19299317 .58499148 .20698548 .58999636 .21998596 .5970001V.07899475C.21998596 .069992069 .21899414 .06199646 .21798706 .055999757 .21699524 .049987794 .21299744 .04499817 .20698548 .041992189 .20098877 .037994386 .19198609 .034988405 .17999268 .033996583 .16699219 .03199768 .1499939 .0309906 .1269989 .0309906H.09498596V0C.10398865 .0009918213 .114990238 .0009918213 .12998963 .0019989014 .14399719 .0019989014 .15899658 .0019989014 .17399597 .0029907227 .18899536 .0029907227 .20399475 .0029907227 .21899414 .0029907227 .23399353 .0029907227 .24699402 .0029907227 .25698854 .0029907227 .2669983 .0029907227 .2789917 .0029907227 .2939911 .0029907227 .30899049 .0029907227 .32499696 .0029907227 .33999635 .0029907227 .35499574 .0019989014 .36999513 .0019989014 .3849945 .0019989014 .39898683 .0009918213 .4099884 .0009918213 .4189911 0V.0309906H.3869934C.3639984 .0309906 .34700013 .03199768 .33499146 .033996583 .32199098 .034988405 .31298829 .037994386 .30699159 .041992189 .30099488 .04499817 .29699708 .049987794 .29599 .055999757 .29499818 .06199646 .2939911 .069992069 .2939911 .07899475V.6399994Z" />

<path id="font_4_2" d="M.44699098 .17399597H.42199708C.42099 .16699219 .4189911 .15899658 .41799928 .1499939 .4169922 .14099121 .4149933 .13198853 .41299439 .12399292 .41099549 .114990238 .40899659 .10798645 .40699769 .100997928 .40499879 .09399414 .40299989 .08898926 .3999939 .084991458 .397995 .08299255 .3929901 .08198547 .3849945 .08099365 .3769989 .07998657 .36799623 .07899475 .35798646 .07798767 .34799195 .07699585 .33799745 .07699585 .32798768 .07699585 .31799317 .07699585 .30999757 .07699585 .30499269 .07699585H.125L.23098755 .17999268C.269989 .21499634 .30299378 .24499512 .33099366 .269989 .35798646 .29499818 .3809967 .31900025 .397995 .34098817 .4149933 .3619995 .4269867 .3829956 .43499757 .4039917 .44299317 .42399598 .44699098 .44699098 .44699098 .47200013 .44699098 .5009918 .44198609 .5269928 .43099977 .5509949 .42099 .57398989 .4059906 .59498599 .3869934 .6119995 .36799623 .6289978 .34599305 .6419983 .31999208 .6519928 .29499818 .6609955 .2669983 .66600039 .23599243 .66600039 .20799256 .66600039 .18299866 .6609955 .1599884 .6499939 .13699341 .6389923 .117996219 .6259918 .100997928 .60899356 .084991458 .59199526 .07199097 .57199099 .06399536 .5509949 .054992677 .5289917 .049987794 .5069885 .049987794 .4850006 .049987794 .47099305 .052993776 .45999146 .057998659 .45298768 .06298828 .44499208 .068984989 .43899537 .07598877 .43598939 .08198547 .43299867 .08799744 .43099977 .09399414 .42999269 .09899902 .42900086 .101989749 .42900086 .102996829 .42900086 .10699463 .42900086 .11199951 .42999269 .117996219 .43199159 .12399292 .43299867 .12998963 .43598939 .13598633 .43998719 .14099121 .44400025 .1459961 .44999696 .1499939 .45700074 .15299988 .46398927 .15499878 .47200013 .15499878 .48199464 .15499878 .49499513 .15098572 .5069885 .14199829 .5179901 .1329956 .5289917 .11898804 .5339966 .101989749 .5339966 .09498596 .5339966 .09098816 .5339966 .08898926 .5329895 .099990848 .56599429 .117996219 .59098818 .14299011 .60899356 .16799927 .6259918 .19499207 .6349945 .22399903 .6349945 .24699402 .6349945 .2669983 .6299896 .28399659 .62098696 .30099488 .6119995 .31498719 .598999 .32598878 .58399966 .33699037 .56900027 .34498597 .5509949 .34999085 .5319977 .35499574 .5130005 .35798646 .49299623 .35798646 .47200013 .35798646 .45199586 .35499574 .43199159 .34999085 .41299439 .34399415 .3929901 .33599855 .37399293 .32699586 .35499574 .31698609 .33599855 .30599977 .31799317 .29299928 .30099488 .27999879 .2829895 .2669983 .2659912 .25299073 .25099183L.06098938 .036987306C.055999757 .03199768 .052993776 .026992798 .051986696 .023986817 .050994874 .019989014 .049987794 .011993408 .049987794 0H.4189911L.44699098 .17399597Z" />

<path id="font_3_1" d="M.30299378 .32499696H.3999939C.4189911 .32499696 .43399049 .32398988 .44499208 .32199098 .45599366 .31999208 .46398927 .31698609 .46998597 .31399537 .47499085 .30999757 .47898866 .30499269 .48098756 .2999878 .48199464 .2939911 .48298646 .2869873 .48298646 .27999879 .48298646 .2769928 .48298646 .27198792 .48199464 .2649994 .48098756 .2579956 .47898866 .24598694 .47599793 .23098755 .47399903 .22599793 .47299195 .22200012 .47299195 .21998596 .47299195 .21598816 .47399903 .21299744 .47698976 .21099854 .47898866 .20899964 .48199464 .20799256 .4850006 .20799256 .48999024 .20799256 .49398805 .20899964 .49499513 .21199036 .49598695 .21398926 .49699403 .21998596 .5 .22898865L.5549927 .44599916C.55599978 .45098878 .5569916 .45498658 .55799868 .45700074 .55799868 .45899964 .55799868 .46099855 .55799868 .46199037 .55799868 .46299745 .5569916 .46598817 .55599978 .46899415 .5549927 .47200013 .5509949 .47299195 .54599 .47299195 .54100039 .47299195 .5369873 .47200013 .5359955 .46899415 .5349884 .46598817 .5329895 .45999146 .5309906 .45199586 .526001 .43299867 .519989 .4169922 .5139923 .4039917 .5079956 .3909912 .5 .38198854 .4909973 .375 .48098756 .36799623 .46899415 .36299134 .45498658 .3600006 .44099427 .35699464 .4229889 .35598756 .4019928 .35598756H.31098939L.375 .6100006C.3769989 .61898806 .3789978 .6259918 .3809967 .6309967 .3829956 .6359863 .38598634 .6399994 .3889923 .6429901 .3919983 .6459961 .39698792 .6469879 .40299989 .647995 .40899659 .6489868 .41799928 .6489868 .42900086 .6489868H.5609894C.59199526 .6489868 .61698916 .6469879 .6359863 .6429901 .6549988 .6380005 .6689911 .6319885 .6799927 .6230011 .69099429 .6139984 .69799807 .60198977 .70199587 .58898928 .7049866 .57499697 .70700076 .55799868 .70700076 .5389862 .70700076 .5279999 .70700076 .5189972 .70700076 .5139923 .70599368 .5079956 .7049866 .49798585 .70399478 .4850006 .7029877 .47799684 .70199587 .47399903 .70199587 .47200013 .70199587 .46998597 .70199587 .46798707 .70199587 .46699525 .70199587 .46398927 .7029877 .46199037 .7049866 .45899964 .70599368 .45599366 .70899966 .45498658 .71398928 .45498658 .71899417 .45498658 .72299197 .45700074 .723999 .46099855 .72499087 .46398927 .72698977 .47099305 .7279968 .47999574L.7480011 .6529999C.7489929 .66600039 .7480011 .673996 .7449951 .6769867 .74198916 .67900088 .73399356 .6799927 .72099307 .6799927H.23098755C.22099304 .6799927 .21398926 .67900088 .20899964 .6779938 .20399475 .6759949 .20098877 .66999819 .20098877 .6599884 .20098877 .6549988 .20298767 .6519928 .20799256 .651001 .21299744 .6499939 .21998596 .6489868 .22898865 .6489868 .24798584 .6489868 .2630005 .647995 .27598573 .6469879 .28799439 .6459961 .2939911 .6399994 .2939911 .6309967 .2939911 .6289978 .2939911 .6269989 .2939911 .625 .29299928 .621994 .2919922 .6159973 .2889862 .6069946L.15699768 .07798767C.1539917 .067993167 .1519928 .05999756 .1499939 .053985597 .14698792 .04798889 .14299011 .042999269 .13798523 .039993287 .13198853 .036987306 .12399292 .033996583 .11299133 .032989503 .101989749 .03199768 .085998538 .0309906 .06599426 .0309906 .056991579 .0309906 .050994874 .02999878 .04598999 .0289917 .040985109 .026992798 .037994386 .020996094 .037994386 .011993408 .037994386 .005996704 .039993287 .0029907227 .04499817 .0019989014 .04899597 .0009918213 .051986696 0 .052993776 0 .05999756 0 .069992069 0 .08198547 .0009918213 .09399414 .0009918213 .10598755 .0009918213 .11898804 .0019989014 .13198853 .0019989014 .14399719 .0019989014 .1559906 .0029907227 .16799927 .0029907227 .17799378 .0029907227 .18499756 .0029907227 .19299317 .0029907227 .20399475 .0029907227 .21798706 .0029907227 .23098755 .0019989014 .24499512 .0019989014 .2599945 .0019989014 .27398683 .0009918213 .28799439 .0009918213 .3019867 .0009918213 .31498719 0 .32598878 0 .33399964 0 .33898927 0 .34298707 .0009918213 .34799195 .0029907227 .35299684 .0039978029 .35499574 .009994507 .35499574 .018997193 .35499574 .022994996 .35398866 .025985718 .35198976 .026992798 .34999085 .027999878 .34899903 .0289917 .34899903 .02999878 .34799195 .0309906 .34498597 .0309906 .34199525 .0309906 .33898927 .0309906 .33198548 .0309906 .32099916 .0309906 .31599427 .0309906 .31098939 .0309906 .30699159 .0309906 .30299378 .0309906 .29899598 .0309906 .29599 .0309906 .29299928 .0309906 .2889862 .0309906 .2849884 .03199768 .27999879 .03199768 .2749939 .03199768 .2689972 .032989503 .2539978 .033996583 .24499512 .035995485 .24198914 .038986207 .23899842 .041992189 .23699951 .04598999 .23699951 .052993776 .23699951 .053985597 .23699951 .056991579 .23799134 .05999756 .23799134 .06298828 .23899842 .068984989 .24099732 .07598877L.30299378 .32499696Z" />

<path id="font_3_3" d="M.47099305 .3769989C.47200013 .37998963 .47200013 .3829956 .47299195 .38598634 .47399903 .3889923 .47399903 .3919983 .47399903 .394989 .47399903 .4039917 .47099305 .4099884 .46598817 .4149933 .46099855 .41999818 .45399476 .42199708 .44499208 .42199708 .44198609 .42199708 .43899537 .42199708 .43499757 .42099 .43099977 .41999818 .4269867 .4169922 .4229889 .4139862 .41799928 .41099549 .4139862 .4059906 .41099549 .40098573 .40699769 .394989 .40499879 .3880005 .4039917 .3789978 .394989 .397995 .38198854 .41299439 .3659973 .4249878 .34899903 .43598939 .33099366 .44198609 .31098939 .44198609 .28199769 .44198609 .2539978 .43399049 .22599793 .41799928 .19699097 .4019928 .17199707 .3809967 .14898682 .35398866 .12599182 .32699586 .10798645 .29699708 .09399414 .2630005 .07998657 .22898865 .07299805 .19400025 .07299805 .1579895 .07299805 .1329956 .07699585 .11099243 .083999637 .09199524 .09098816 .07199097 .099990848 .054992677 .11299133 .041992189 .125 .0289917 .13899231 .017990113 .15499878 .010986328 .17098999 .0039978029 .18798828 0 .20599365 0 .22099304 0 .23498535 .0029907227 .24798584 .0079956059 .26098634 .0129852299 .27198792 .017990113 .2829895 .024993897 .29299928 .03199768 .30099488 .037994386 .30799867 .04499817 .31498719 .050994874 .31900025 .054992677 .32199098 .057998659L.32299806 .056991579C.31199647 .011993408 .3039856-.021011353 .29899598-.042007448 .29299928-.06300354 .2899933-.07400513 .2899933-.07501221 .2889862-.07701111 .28599549-.08401489 .2809906-.0960083 .27598573-.10700989 .2679901-.120010379 .25698854-.13301087 .24598694-.14601135 .23098755-.15701294 .21299744-.16801453 .19499207-.17800904 .17298889-.18301392 .1459961-.18301392 .13699341-.18301392 .125-.18301392 .10998535-.18200684 .09498596-.18101502 .07998657-.17800904 .06599426-.17300415 .08099365-.16801453 .09199524-.16101074 .09799194-.15000916 .10398865-.13900757 .10699463-.13000489 .10699463-.1210022 .10699463-.11300659 .10398865-.10501099 .09799194-.0980072 .09199524-.0900116 .08198547-.086013797 .068984989-.086013797 .06399536-.086013797 .057998659-.087005618 .051986696-.0900116 .04499817-.0920105 .038986207-.09500122 .033996583-.1000061 .0289917-.10501099 .023986817-.11100769 .020996094-.118011478 .016998291-.12501526 .01499939-.13400269 .01499939-.14401245 .01499939-.16500855 .024993897-.18000794 .04598999-.19000244 .06599426-.2000122 .099990848-.20500183 .147995-.20500183 .1789856-.20500183 .20698548-.20100403 .23199463-.19200135 .25698854-.18301392 .27799989-.17201233 .29599-.15901184 .31298829-.14500427 .32699586-.13000489 .33799745-.11401367 .34899903-.0980072 .35598756-.08200073 .3600006-.06700134L.47099305 .3769989M.34098817 .12799073C.33799745 .114990238 .33099366 .101989749 .32199098 .08999634 .31199647 .07798767 .30099488 .066986087 .2899933 .057998659 .2789917 .04899597 .2669983 .039993287 .25299073 .032989503 .23799134 .025985718 .22399903 .021987915 .20899964 .021987915 .19599915 .021987915 .18598938 .024993897 .17799378 .0309906 .16899109 .035995485 .16299439 .04399109 .1579895 .052993776 .15299988 .06199646 .14898682 .07199097 .14698792 .08299255 .14498902 .09399414 .14399719 .10398865 .14399719 .11399841 .14399719 .12599182 .1459961 .14199829 .14898682 .16099549 .1519928 .17999268 .15699768 .20098877 .1619873 .22200012 .16699219 .24299622 .17298889 .2630005 .17999268 .2829895 .18699646 .3019867 .19299317 .31799317 .19999695 .33099366 .21299744 .35598756 .22999573 .3769989 .25 .3939972 .269989 .41099549 .29100038 .41999818 .31199647 .41999818 .32899476 .41999818 .34199525 .41600038 .35299684 .4079895 .36299134 .39898683 .37098695 .3899994 .3769989 .3789978 .3829956 .36799623 .3869934 .35899354 .3889923 .34999085 .3909912 .34098817 .3919983 .33499146 .3919983 .33399964 .3919983 .33099366 .3919983 .32899476 .3909912 .32598878 .3899994 .32299806 .3899994 .32099916 .3889923 .31900025L.34098817 .12799073Z" />

<clipPath id="clip_10">
<path transform="matrix(1,0,0,-1,284.59803,521.189)" d="M0 0H225V178H0Z" />
</clipPath>

<clipPath id="clip_11">
<path transform="matrix(.1,0,0,-.1,284.59803,521.189)" d="M2246.06 1774.86V1491.39H2172.13V1774.86H2246.06Z" clip-rule="evenodd" />
</clipPath>

<clipPath id="clip_12">
<path transform="matrix(.1,0,0,-.1,284.59803,521.189)" d="M2.64844 1774.86V1491.39H76.582V1774.86H2.64844Z" clip-rule="evenodd" />
</clipPath>

<clipPath id="clip_13">
<path transform="matrix(.1,0,0,-.1,284.59803,521.189)" d="M462.574 1397.51V1136.02H514.906V1397.51H462.574Z" clip-rule="evenodd" />
</clipPath>

</defs>
<g clip-path="url(#clip_2)">
<use data-text="c" xlink:href="#font_3_2" transform="matrix(11.9997,0,0,-11.9997,418.1965,180.342)" />
<use data-text="1" xlink:href="#font_4_1" transform="matrix(7.99981,0,0,-7.99981,423.3805,182.98184)" />
<path transform="matrix(.1,0,0,-.1,327.118,306.805)" stroke-width="5.6693" stroke-linecap="butt" stroke-miterlimit="22.9256" stroke-linejoin="miter" fill="none" stroke="#000000" d="M644.227 1170.45H801.07L818.273 1125.33 852.688 1215.57 887.102 1125.33 921.512 1215.57 955.926 1125.33 990.34 1215.57 1024.75 1125.33 1059.16 1215.57 1093.57 1125.33 1110.78 1170.45H1267.63" />
<path transform="matrix(.1,0,0,-.1,327.118,306.805)" stroke-width="5.6693" stroke-linecap="butt" stroke-miterlimit="22.9256" stroke-linejoin="miter" fill="none" stroke="#000000" d="M1283.66 1154.41C1274.8 1154.41 1267.63 1161.59 1267.63 1170.45 1267.63 1179.31 1274.8 1186.49 1283.66 1186.49" />
<path transform="matrix(.1,0,0,-.1,327.118,306.805)" stroke-width="5.6693" stroke-linecap="butt" stroke-miterlimit="22.9256" stroke-linejoin="miter" fill="none" stroke="#000000" d="M628.188 1154.41C637.047 1154.41 644.227 1161.59 644.227 1170.45 644.227 1179.31 637.047 1186.49 628.188 1186.49" />
<use data-text="c" xlink:href="#font_3_2" transform="matrix(11.9997,0,0,-11.9997,418.0848,208.6886)" />
<use data-text="2" xlink:href="#font_4_2" transform="matrix(7.99981,0,0,-7.99981,423.2688,211.32843)" />
<path transform="matrix(.1,0,0,-.1,327.118,306.805)" stroke-width="5.6693" stroke-linecap="butt" stroke-miterlimit="22.9256" stroke-linejoin="miter" fill="none" stroke="#000000" d="M644.227 886.988H801.07L818.273 841.863 852.688 932.109 887.102 841.863 921.512 932.109 955.926 841.863 990.34 932.109 1024.75 841.863 1059.16 932.109 1093.57 841.863 1110.78 886.988H1267.63" />
<path transform="matrix(.1,0,0,-.1,327.118,306.805)" stroke-width="5.6693" stroke-linecap="butt" stroke-miterlimit="22.9256" stroke-linejoin="miter" fill="none" stroke="#000000" d="M1283.66 870.949C1274.8 870.949 1267.63 878.129 1267.63 886.988 1267.63 895.848 1274.8 903.027 1283.66 903.027" />
<path transform="matrix(.1,0,0,-.1,327.118,306.805)" stroke-width="5.6693" stroke-linecap="butt" stroke-miterlimit="22.9256" stroke-linejoin="miter" fill="none" stroke="#000000" d="M628.188 870.949C637.047 870.949 644.227 878.129 644.227 886.988 644.227 895.848 637.047 903.027 628.188 903.027" />
<path transform="matrix(.1,0,0,-.1,327.118,306.805)" stroke-width="11.3386" stroke-linecap="butt" stroke-miterlimit="22.9256" stroke-linejoin="miter" fill="none" stroke="#000000" d="M628.188 1215.57V841.863" />
<use data-text="F" xlink:href="#font_3_1" transform="matrix(11.9997,0,0,-11.9997,361.03013,199.349)" />
<path transform="matrix(.1,0,0,-.1,327.118,306.805)" stroke-width="5.6693" stroke-linecap="butt" stroke-miterlimit="22.9256" stroke-linejoin="miter" fill="none" stroke="#000000" d="M628.188 1012.68C619.328 1012.68 612.148 1019.86 612.148 1028.72 612.148 1037.58 619.328 1044.76 628.188 1044.76" />
<path transform="matrix(.1,0,0,-.1,327.118,306.805)" stroke-width="11.3386" stroke-linecap="butt" stroke-miterlimit="22.9256" stroke-linejoin="miter" fill="none" stroke="#000000" d="M612.148 1028.72H368.574" />
<path transform="matrix(.1,0,0,-.1,327.118,306.805)" d="M330.953 1028.72 414.508 1006.74C402.57 1021.39 402.57 1036.05 414.508 1050.7L330.953 1028.72" fill-rule="evenodd" />
<path transform="matrix(.1,0,0,-.1,327.118,306.805)" stroke-width="11.3386" stroke-linecap="butt" stroke-miterlimit="22.9256" stroke-linejoin="miter" fill="none" stroke="#000000" d="M1283.66 1215.57V841.863" />
<path transform="matrix(.1,0,0,-.1,327.118,306.805)" stroke-width="5.6693" stroke-linecap="butt" stroke-miterlimit="22.9256" stroke-linejoin="miter" fill="none" stroke="#000000" d="M1283.66 1012.68C1292.52 1012.68 1299.7 1019.86 1299.7 1028.72 1299.7 1037.58 1292.52 1044.76 1283.66 1044.76" />
<path transform="matrix(.1,0,0,-.1,327.118,306.805)" stroke-width="11.3386" stroke-linecap="butt" stroke-miterlimit="22.9256" stroke-linejoin="miter" fill="none" stroke="#000000" d="M1299.7 1028.72H1543.28" />
<path transform="matrix(.1,0,0,-.1,327.118,306.805)" d="M1580.9 1028.72 1497.34 1050.7C1509.28 1036.05 1509.28 1021.39 1497.34 1006.74L1580.9 1028.72" fill-rule="evenodd" />
<use data-text="F" xlink:href="#font_3_1" transform="matrix(11.9997,0,0,-11.9997,476.032,199.349)" />
<use data-text="g" xlink:href="#font_3_3" transform="matrix(11.9997,0,0,-11.9997,419.5996,242.8131)" />
<path transform="matrix(.1,0,0,-.1,327.118,306.805)" stroke-width="5.6693" stroke-linecap="butt" stroke-miterlimit="22.9256" stroke-linejoin="miter" fill="none" stroke="#000000" d="M628.188 776.793V663.406" />
<path transform="matrix(.1,0,0,-.1,327.118,306.805)" stroke-width="5.6693" stroke-linecap="butt" stroke-miterlimit="22.9256" stroke-linejoin="miter" fill="none" stroke="#000000" d="M628.188 720.102H1244.66" />
<path transform="matrix(.1,0,0,-.1,327.118,306.805)" d="M1278.11 720.102 1203.83 739.641C1214.44 726.613 1214.44 713.586 1203.83 700.563L1278.11 720.102" fill-rule="evenodd" />
<path transform="matrix(.1,0,0,-.1,327.118,306.805)" stroke-width="5.6693" stroke-linecap="butt" stroke-miterlimit="22.9256" stroke-linejoin="miter" fill="none" stroke="#000000" d="M1283.66 776.793V663.406" />
<use data-text="c" xlink:href="#font_3_2" transform="matrix(11.9997,0,0,-11.9997,385.4227,270.1655)" />
<use data-text="1" xlink:href="#font_4_1" transform="matrix(7.99981,0,0,-7.99981,390.6063,272.80534)" />
<path transform="matrix(.1,0,0,-.1,327.118,306.805)" stroke-width="5.6693" stroke-linecap="butt" stroke-miterlimit="22.9256" stroke-linejoin="miter" fill="none" stroke="#000000" d="M316.488 272.219H473.332L490.535 227.094 524.949 317.34 559.363 227.094 593.773 317.34 628.188 227.094 662.598 317.34 697.012 227.094 731.426 317.34 765.836 227.094 783.043 272.219H939.887" />
<path transform="matrix(.1,0,0,-.1,327.118,306.805)" stroke-width="5.6693" stroke-linecap="butt" stroke-miterlimit="22.9256" stroke-linejoin="miter" fill="none" stroke="#000000" d="M955.926 256.18C947.066 256.18 939.887 263.359 939.887 272.219 939.887 281.078 947.066 288.258 955.926 288.258" />
<path transform="matrix(.1,0,0,-.1,327.118,306.805)" stroke-width="5.6693" stroke-linecap="butt" stroke-miterlimit="22.9256" stroke-linejoin="miter" fill="none" stroke="#000000" d="M300.449 256.18C309.305 256.18 316.488 263.359 316.488 272.219 316.488 281.078 309.305 288.258 300.449 288.258" />
<use data-text="c" xlink:href="#font_3_2" transform="matrix(11.9997,0,0,-11.9997,450.859,270.1655)" />
<use data-text="2" xlink:href="#font_4_2" transform="matrix(7.99981,0,0,-7.99981,456.04298,272.80534)" />
<path transform="matrix(.1,0,0,-.1,327.118,306.805)" stroke-width="5.6693" stroke-linecap="butt" stroke-miterlimit="22.9256" stroke-linejoin="miter" fill="none" stroke="#000000" d="M971.965 272.219H1128.81L1146.02 227.094 1180.43 317.34 1214.84 227.094 1249.25 317.34 1283.66 227.094 1318.08 317.34 1352.49 227.094 1386.9 317.34 1421.32 227.094 1438.52 272.219H1595.36" />
<path transform="matrix(.1,0,0,-.1,327.118,306.805)" stroke-width="5.6693" stroke-linecap="butt" stroke-miterlimit="22.9256" stroke-linejoin="miter" fill="none" stroke="#000000" d="M1611.4 256.18C1602.55 256.18 1595.36 263.359 1595.36 272.219 1595.36 281.078 1602.55 288.258 1611.4 288.258" />
<path transform="matrix(.1,0,0,-.1,327.118,306.805)" stroke-width="5.6693" stroke-linecap="butt" stroke-miterlimit="22.9256" stroke-linejoin="miter" fill="none" stroke="#000000" d="M955.926 256.18C964.785 256.18 971.965 263.359 971.965 272.219 971.965 281.078 964.785 288.258 955.926 288.258" />
<use data-text="F" xlink:href="#font_3_1" transform="matrix(11.9997,0,0,-11.9997,328.2563,274.99909)" />
<path transform="matrix(.1,0,0,-.1,327.118,306.805)" stroke-width="5.6693" stroke-linecap="butt" stroke-miterlimit="22.9256" stroke-linejoin="miter" fill="none" stroke="#000000" d="M300.449 256.18C291.59 256.18 284.41 263.359 284.41 272.219 284.41 281.078 291.59 288.258 300.449 288.258" />
<path transform="matrix(.1,0,0,-.1,327.118,306.805)" stroke-width="11.3386" stroke-linecap="butt" stroke-miterlimit="22.9256" stroke-linejoin="miter" fill="none" stroke="#000000" d="M284.41 272.219H40.8359" />
<path transform="matrix(.1,0,0,-.1,327.118,306.805)" d="M3.21094 272.219 86.7695 250.238C74.832 264.891 74.832 279.547 86.7695 294.199L3.21094 272.219" fill-rule="evenodd" />
<path transform="matrix(.1,0,0,-.1,327.118,306.805)" stroke-width="5.6693" stroke-linecap="butt" stroke-miterlimit="22.9256" stroke-linejoin="miter" fill="none" stroke="#000000" d="M1611.4 256.18C1620.26 256.18 1627.44 263.359 1627.44 272.219 1627.44 281.078 1620.26 288.258 1611.4 288.258" />
<path transform="matrix(.1,0,0,-.1,327.118,306.805)" stroke-width="11.3386" stroke-linecap="butt" stroke-miterlimit="22.9256" stroke-linejoin="miter" fill="none" stroke="#000000" d="M1627.44 272.219H1871.02" />
<path transform="matrix(.1,0,0,-.1,327.118,306.805)" d="M1908.64 272.219 1825.08 294.199C1837.02 279.547 1837.02 264.891 1825.08 250.238L1908.64 272.219" fill-rule="evenodd" />
<use data-text="F" xlink:href="#font_3_1" transform="matrix(11.9997,0,0,-11.9997,508.80604,274.99909)" />
<use data-text="g" xlink:href="#font_3_3" transform="matrix(11.9997,0,0,-11.9997,419.77674,304.2901)" />
<path transform="matrix(.1,0,0,-.1,327.118,306.805)" stroke-width="5.6693" stroke-linecap="butt" stroke-miterlimit="22.9256" stroke-linejoin="miter" fill="none" stroke="#000000" d="M300.453 162.023V48.6367" />
<path transform="matrix(.1,0,0,-.1,327.118,306.805)" stroke-width="5.6693" stroke-linecap="butt" stroke-miterlimit="22.9256" stroke-linejoin="miter" fill="none" stroke="#000000" d="M300.453 105.332H1575.94" />
<path transform="matrix(.1,0,0,-.1,327.118,306.805)" d="M1609.39 105.332 1535.11 124.871C1545.71 111.844 1545.71 98.8164 1535.11 85.793L1609.39 105.332" fill-rule="evenodd" />
<path transform="matrix(.1,0,0,-.1,327.118,306.805)" stroke-width="5.6693" stroke-linecap="butt" stroke-miterlimit="22.9256" stroke-linejoin="miter" fill="none" stroke="#000000" d="M1611.4 162.023V48.6367" />
</g>
<g clip-path="url(#clip_11)">
<path transform="matrix(.1,0,0,-.1,284.59803,521.189)" stroke-width="5.04" stroke-linecap="butt" stroke-miterlimit="10" stroke-linejoin="miter" fill="none" stroke="#231f20" d="M2231.91 1448.09 2024.09 1655.91" />
<path transform="matrix(.1,0,0,-.1,284.59803,521.189)" stroke-width="5.04" stroke-linecap="butt" stroke-miterlimit="10" stroke-linejoin="miter" fill="none" stroke="#231f20" d="M2254.82 1471 2047 1678.82" />
<path transform="matrix(.1,0,0,-.1,284.59803,521.189)" stroke-width="5.04" stroke-linecap="butt" stroke-miterlimit="10" stroke-linejoin="miter" fill="none" stroke="#231f20" d="M2277.73 1493.91 2069.91 1701.73" />
<path transform="matrix(.1,0,0,-.1,284.59803,521.189)" stroke-width="5.04" stroke-linecap="butt" stroke-miterlimit="10" stroke-linejoin="miter" fill="none" stroke="#231f20" d="M2300.64 1516.82 2092.82 1724.64" />
<path transform="matrix(.1,0,0,-.1,284.59803,521.189)" stroke-width="5.04" stroke-linecap="butt" stroke-miterlimit="10" stroke-linejoin="miter" fill="none" stroke="#231f20" d="M2323.55 1539.73 2115.73 1747.55" />
<path transform="matrix(.1,0,0,-.1,284.59803,521.189)" stroke-width="5.04" stroke-linecap="butt" stroke-miterlimit="10" stroke-linejoin="miter" fill="none" stroke="#231f20" d="M2346.46 1562.64 2138.64 1770.46" />
<path transform="matrix(.1,0,0,-.1,284.59803,521.189)" stroke-width="5.04" stroke-linecap="butt" stroke-miterlimit="10" stroke-linejoin="miter" fill="none" stroke="#231f20" d="M2369.37 1585.55 2161.55 1793.37" />
<path transform="matrix(.1,0,0,-.1,284.59803,521.189)" stroke-width="5.04" stroke-linecap="butt" stroke-miterlimit="10" stroke-linejoin="miter" fill="none" stroke="#231f20" d="M2392.28 1608.46 2184.46 1816.28" />
<path transform="matrix(.1,0,0,-.1,284.59803,521.189)" stroke-width="5.04" stroke-linecap="butt" stroke-miterlimit="10" stroke-linejoin="miter" fill="none" stroke="#231f20" d="M2415.19 1631.37 2207.37 1839.19" />
<path transform="matrix(.1,0,0,-.1,284.59803,521.189)" stroke-width="5.04" stroke-linecap="butt" stroke-miterlimit="10" stroke-linejoin="miter" fill="none" stroke="#231f20" d="M2438.1 1654.28 2230.28 1862.1" />
</g>
<g clip-path="url(#clip_10)">
<path transform="matrix(.1,0,0,-.1,284.59803,521.189)" stroke-width="5.6693" stroke-linecap="butt" stroke-miterlimit="22.9256" stroke-linejoin="miter" fill="none" stroke="#231f20" d="M76.582 1633.13H360.047L377.254 1588 411.664 1678.25 446.078 1588 480.488 1678.25 514.902 1588 549.316 1678.25 583.727 1588 618.141 1678.25 652.555 1588 669.758 1633.13H953.223" />
<path transform="matrix(.1,0,0,-.1,284.59803,521.189)" stroke-width="11.3386" stroke-linecap="butt" stroke-miterlimit="22.9256" stroke-linejoin="miter" fill="none" stroke="#231f20" d="M953.223 1519.74H1378.422V1746.513H953.223Z" />
<path transform="matrix(.1,0,0,-.1,284.59803,521.189)" stroke-width="5.6693" stroke-linecap="butt" stroke-miterlimit="22.9256" stroke-linejoin="miter" fill="none" stroke="#231f20" d="M1661.89 1576.43H1888.66V1689.817H1661.89Z" />
<path transform="matrix(.1,0,0,-.1,284.59803,521.189)" stroke-width="5.6693" stroke-linecap="butt" stroke-miterlimit="22.9256" stroke-linejoin="miter" fill="none" stroke="#231f20" d="M1378.42 1633.13H1661.89" />
<path transform="matrix(.1,0,0,-.1,284.59803,521.189)" stroke-width="5.6693" stroke-linecap="butt" stroke-miterlimit="22.9256" stroke-linejoin="miter" fill="none" stroke="#231f20" d="M1888.66 1633.13H2172.12" />
<g clip-path="url(#clip_11)">
<path transform="matrix(.1,0,0,-.1,284.59803,521.189)" stroke-width="5.04" stroke-linecap="butt" stroke-miterlimit="10" stroke-linejoin="miter" fill="none" stroke="#231f20" d="M2231.91 1448.09 2024.09 1655.91" />
<path transform="matrix(.1,0,0,-.1,284.59803,521.189)" stroke-width="5.04" stroke-linecap="butt" stroke-miterlimit="10" stroke-linejoin="miter" fill="none" stroke="#231f20" d="M2254.82 1471 2047 1678.82" />
<path transform="matrix(.1,0,0,-.1,284.59803,521.189)" stroke-width="5.04" stroke-linecap="butt" stroke-miterlimit="10" stroke-linejoin="miter" fill="none" stroke="#231f20" d="M2277.73 1493.91 2069.91 1701.73" />
<path transform="matrix(.1,0,0,-.1,284.59803,521.189)" stroke-width="5.04" stroke-linecap="butt" stroke-miterlimit="10" stroke-linejoin="miter" fill="none" stroke="#231f20" d="M2300.64 1516.82 2092.82 1724.64" />
<path transform="matrix(.1,0,0,-.1,284.59803,521.189)" stroke-width="5.04" stroke-linecap="butt" stroke-miterlimit="10" stroke-linejoin="miter" fill="none" stroke="#231f20" d="M2323.55 1539.73 2115.73 1747.55" />
<path transform="matrix(.1,0,0,-.1,284.59803,521.189)" stroke-width="5.04" stroke-linecap="butt" stroke-miterlimit="10" stroke-linejoin="miter" fill="none" stroke="#231f20" d="M2346.46 1562.64 2138.64 1770.46" />
<path transform="matrix(.1,0,0,-.1,284.59803,521.189)" stroke-width="5.04" stroke-linecap="butt" stroke-miterlimit="10" stroke-linejoin="miter" fill="none" stroke="#231f20" d="M2369.37 1585.55 2161.55 1793.37" />
<path transform="matrix(.1,0,0,-.1,284.59803,521.189)" stroke-width="5.04" stroke-linecap="butt" stroke-miterlimit="10" stroke-linejoin="miter" fill="none" stroke="#231f20" d="M2392.28 1608.46 2184.46 1816.28" />
<path transform="matrix(.1,0,0,-.1,284.59803,521.189)" stroke-width="5.04" stroke-linecap="butt" stroke-miterlimit="10" stroke-linejoin="miter" fill="none" stroke="#231f20" d="M2415.19 1631.37 2207.37 1839.19" />
<path transform="matrix(.1,0,0,-.1,284.59803,521.189)" stroke-width="5.04" stroke-linecap="butt" stroke-miterlimit="10" stroke-linejoin="miter" fill="none" stroke="#231f20" d="M2438.1 1654.28 2230.28 1862.1" />
</g>
<path transform="matrix(.1,0,0,-.1,284.59803,521.189)" stroke-width="11.3386" stroke-linecap="butt" stroke-miterlimit="22.9256" stroke-linejoin="miter" fill="none" stroke="#231f20" d="M2172.13 1491.39V1774.86" />
<g clip-path="url(#clip_12)">
<path transform="matrix(.1,0,0,-.1,284.59803,521.189)" stroke-width="5.04" stroke-linecap="butt" stroke-miterlimit="10" stroke-linejoin="miter" fill="none" stroke="#231f20" d="M62.5508 1448.09-145.277 1655.91" />
<path transform="matrix(.1,0,0,-.1,284.59803,521.189)" stroke-width="5.04" stroke-linecap="butt" stroke-miterlimit="10" stroke-linejoin="miter" fill="none" stroke="#231f20" d="M85.4609 1471-122.367 1678.82" />
<path transform="matrix(.1,0,0,-.1,284.59803,521.189)" stroke-width="5.04" stroke-linecap="butt" stroke-miterlimit="10" stroke-linejoin="miter" fill="none" stroke="#231f20" d="M108.371 1493.91-99.4531 1701.73" />
<path transform="matrix(.1,0,0,-.1,284.59803,521.189)" stroke-width="5.04" stroke-linecap="butt" stroke-miterlimit="10" stroke-linejoin="miter" fill="none" stroke="#231f20" d="M131.281 1516.82-76.543 1724.64" />
<path transform="matrix(.1,0,0,-.1,284.59803,521.189)" stroke-width="5.04" stroke-linecap="butt" stroke-miterlimit="10" stroke-linejoin="miter" fill="none" stroke="#231f20" d="M154.191 1539.73-53.6328 1747.55" />
<path transform="matrix(.1,0,0,-.1,284.59803,521.189)" stroke-width="5.04" stroke-linecap="butt" stroke-miterlimit="10" stroke-linejoin="miter" fill="none" stroke="#231f20" d="M177.102 1562.64-30.7227 1770.46" />
<path transform="matrix(.1,0,0,-.1,284.59803,521.189)" stroke-width="5.04" stroke-linecap="butt" stroke-miterlimit="10" stroke-linejoin="miter" fill="none" stroke="#231f20" d="M200.012 1585.55-7.8125 1793.37" />
<path transform="matrix(.1,0,0,-.1,284.59803,521.189)" stroke-width="5.04" stroke-linecap="butt" stroke-miterlimit="10" stroke-linejoin="miter" fill="none" stroke="#231f20" d="M222.922 1608.46 15.0977 1816.28" />
<path transform="matrix(.1,0,0,-.1,284.59803,521.189)" stroke-width="5.04" stroke-linecap="butt" stroke-miterlimit="10" stroke-linejoin="miter" fill="none" stroke="#231f20" d="M245.832 1631.37 38.0078 1839.19" />
<path transform="matrix(.1,0,0,-.1,284.59803,521.189)" stroke-width="5.04" stroke-linecap="butt" stroke-miterlimit="10" stroke-linejoin="miter" fill="none" stroke="#231f20" d="M268.742 1654.28 60.918 1862.1" />
</g>
<path transform="matrix(.1,0,0,-.1,284.59803,521.189)" stroke-width="11.3386" stroke-linecap="butt" stroke-miterlimit="22.9256" stroke-linejoin="miter" fill="none" stroke="#231f20" d="M76.582 1491.39V1774.86" />
<path transform="matrix(.1,0,0,-.1,284.59803,521.189)" stroke-width="5.6693" stroke-linecap="butt" stroke-miterlimit="22.9256" stroke-linejoin="miter" fill="none" stroke="#231f20" d="M2172.13 1463.05V1136.02" />
<path transform="matrix(.1,0,0,-.1,284.59803,521.189)" stroke-width="5.6693" stroke-linecap="butt" stroke-miterlimit="22.9256" stroke-linejoin="miter" fill="none" stroke="#231f20" d="M550.363 1178.54H2136.66" />
<path transform="matrix(.1,0,0,-.1,284.59803,521.189)" d="M514.902 1178.54 565.27 1194.04C558.07 1183.71 558.07 1173.38 565.27 1163.04L514.902 1178.54" fill="#231f20" fill-rule="evenodd" />
<path transform="matrix(.1,0,0,-.1,284.59803,521.189)" d="M2172.13 1178.54 2121.76 1194.04C2128.96 1183.71 2128.96 1173.38 2121.76 1163.04L2172.13 1178.54" fill="#231f20" fill-rule="evenodd" />
<path transform="matrix(.1,0,0,-.1,284.59803,521.189)" stroke-width="5.6693" stroke-linecap="butt" stroke-miterlimit="22.9256" stroke-linejoin="miter" fill="none" stroke="#231f20" d="M514.902 1328.16H1130.36" />
<path transform="matrix(.1,0,0,-.1,284.59803,521.189)" d="M1165.82 1328.16 1115.46 1343.66C1122.65 1333.32 1122.65 1323 1115.46 1312.66L1165.82 1328.16" fill="#231f20" fill-rule="evenodd" />
<path transform="matrix(.1,0,0,-.1,284.59803,521.189)" stroke-width="5.6693" stroke-linecap="butt" stroke-miterlimit="22.9256" stroke-linejoin="miter" fill="none" stroke="#231f20" d="M1165.82 1491.39V1285.64" />
<path transform="matrix(.1,0,0,-.1,284.59803,521.189)" stroke-width="5.6693" stroke-linecap="butt" stroke-miterlimit="22.9256" stroke-linejoin="miter" fill="none" stroke="#231f20" d="M1165.82 1328.16H2136.66" />
<path transform="matrix(.1,0,0,-.1,284.59803,521.189)" d="M2172.13 1328.16 2121.76 1343.66C2128.96 1333.32 2128.96 1323 2121.76 1312.66L2172.13 1328.16" fill="#231f20" fill-rule="evenodd" />
<g clip-path="url(#clip_13)">
<path transform="matrix(.1,0,0,-.1,284.59803,521.189)" stroke-width="5.04" stroke-linecap="butt" stroke-miterlimit="10" stroke-linejoin="miter" fill="none" stroke="#231f20" d="M511.469 1100.68 322.359 1289.79" />
<path transform="matrix(.1,0,0,-.1,284.59803,521.189)" stroke-width="5.04" stroke-linecap="butt" stroke-miterlimit="10" stroke-linejoin="miter" fill="none" stroke="#231f20" d="M534.379 1123.59 345.27 1312.7" />
<path transform="matrix(.1,0,0,-.1,284.59803,521.189)" stroke-width="5.04" stroke-linecap="butt" stroke-miterlimit="10" stroke-linejoin="miter" fill="none" stroke="#231f20" d="M557.289 1146.5 368.18 1335.61" />
<path transform="matrix(.1,0,0,-.1,284.59803,521.189)" stroke-width="5.04" stroke-linecap="butt" stroke-miterlimit="10" stroke-linejoin="miter" fill="none" stroke="#231f20" d="M580.199 1169.41 391.09 1358.52" />
<path transform="matrix(.1,0,0,-.1,284.59803,521.189)" stroke-width="5.04" stroke-linecap="butt" stroke-miterlimit="10" stroke-linejoin="miter" fill="none" stroke="#231f20" d="M603.109 1192.32 414 1381.43" />
<path transform="matrix(.1,0,0,-.1,284.59803,521.189)" stroke-width="5.04" stroke-linecap="butt" stroke-miterlimit="10" stroke-linejoin="miter" fill="none" stroke="#231f20" d="M626.02 1215.23 436.914 1404.34" />
<path transform="matrix(.1,0,0,-.1,284.59803,521.189)" stroke-width="5.04" stroke-linecap="butt" stroke-miterlimit="10" stroke-linejoin="miter" fill="none" stroke="#231f20" d="M648.934 1238.14 459.824 1427.25" />
<path transform="matrix(.1,0,0,-.1,284.59803,521.189)" stroke-width="5.04" stroke-linecap="butt" stroke-miterlimit="10" stroke-linejoin="miter" fill="none" stroke="#231f20" d="M671.844 1261.05 482.734 1450.16" />
<path transform="matrix(.1,0,0,-.1,284.59803,521.189)" stroke-width="5.04" stroke-linecap="butt" stroke-miterlimit="10" stroke-linejoin="miter" fill="none" stroke="#231f20" d="M694.754 1283.96 505.645 1473.07" />
</g>
<path transform="matrix(.1,0,0,-.1,284.59803,521.189)" stroke-width="11.3386" stroke-linecap="butt" stroke-miterlimit="22.9256" stroke-linejoin="miter" fill="none" stroke="#231f20" d="M514.902 1136.02V1397.51" />
<path transform="matrix(.1,0,0,-.1,284.59803,521.189)" d="M534.27 1768C532 1768 530.926 1768 529.25 1766.56 528.531 1765.96 527.215 1764.17 527.215 1762.26 527.215 1759.87 529.012 1758.43 531.281 1758.43 534.148 1758.43 537.379 1760.82 537.379 1765.61 537.379 1771.34 531.879 1775.77 523.629 1775.77 507.969 1775.77 492.309 1758.67 492.309 1741.7 492.309 1731.29 498.762 1721.85 510.957 1721.85 527.215 1721.85 537.496 1734.52 537.496 1736.08 537.496 1736.79 536.781 1737.39 536.301 1737.39 535.945 1737.39 535.824 1737.27 534.746 1736.2 527.098 1726.03 515.738 1724.24 511.199 1724.24 502.949 1724.24 500.316 1731.41 500.316 1737.39 500.316 1741.57 502.352 1753.17 506.652 1761.3 509.762 1766.92 516.219 1773.38 523.75 1773.38 525.305 1773.38 531.879 1773.14 534.27 1768" />
<path transform="matrix(.1,0,0,-.1,284.59803,521.189)" d="M1139.4 1642.39C1139.64 1643.11 1142.63 1649.09 1147.05 1652.91 1150.16 1655.78 1154.23 1657.69 1158.89 1657.69 1163.67 1657.69 1165.34 1654.11 1165.34 1649.32 1165.34 1648.61 1165.34 1646.21 1163.91 1640.6L1160.92 1628.29C1159.96 1624.7 1157.69 1615.85 1157.45 1614.53 1156.98 1612.74 1156.26 1609.63 1156.26 1609.16 1156.26 1607.48 1157.57 1606.16 1159.36 1606.16 1162.95 1606.16 1163.55 1608.91 1164.63 1613.22L1171.8 1641.79C1172.04 1642.75 1178.25 1657.69 1191.41 1657.69 1196.19 1657.69 1197.86 1654.11 1197.86 1649.32 1197.86 1642.63 1193.2 1629.6 1190.57 1622.43 1189.49 1619.55 1188.89 1618 1188.89 1615.85 1188.89 1610.47 1192.6 1606.16 1198.34 1606.16 1209.46 1606.16 1213.64 1623.74 1213.64 1624.46 1213.64 1625.05 1213.16 1625.54 1212.45 1625.54 1211.37 1625.54 1211.25 1625.17 1210.65 1623.14 1207.9 1613.58 1203.48 1608.56 1198.7 1608.56 1197.5 1608.56 1195.59 1608.68 1195.59 1612.5 1195.59 1615.61 1197.02 1619.44 1197.5 1620.75 1199.65 1626.49 1205.04 1640.6 1205.04 1647.53 1205.04 1654.7 1200.85 1660.08 1191.77 1660.08 1183.75 1660.08 1177.3 1655.54 1172.52 1648.48 1172.16 1654.94 1168.21 1660.08 1159.25 1660.08 1148.61 1660.08 1142.98 1652.55 1140.84 1649.56 1140.48 1656.38 1135.57 1660.08 1130.32 1660.08 1126.85 1660.08 1124.1 1658.41 1121.82 1653.87 1119.68 1649.56 1118 1642.27 1118 1641.79 1118 1641.31 1118.48 1640.71 1119.32 1640.71 1120.27 1640.71 1120.39 1640.84 1121.11 1643.59 1122.9 1650.64 1125.17 1657.69 1129.96 1657.69 1132.7 1657.69 1133.66 1655.78 1133.66 1652.2 1133.66 1649.56 1132.47 1644.9 1131.63 1641.2L1128.28 1628.29C1127.8 1626.01 1126.49 1620.63 1125.89 1618.48 1125.05 1615.37 1123.74 1609.75 1123.74 1609.16 1123.74 1607.48 1125.05 1606.16 1126.85 1606.16 1128.28 1606.16 1129.96 1606.88 1130.91 1608.68 1131.15 1609.27 1132.23 1613.46 1132.82 1615.85L1135.45 1626.61 1139.4 1642.39" />
<path transform="matrix(.1,0,0,-.1,284.59803,521.189)" d="M1780.05 1640.6C1779.93 1640.96 1779.45 1641.91 1779.45 1642.27 1779.45 1642.39 1779.57 1642.51 1781.61 1644.07L1793.2 1653.15C1809.22 1665.59 1814.48 1669.77 1822.73 1670.48 1823.57 1670.61 1824.77 1670.61 1824.77 1672.64 1824.77 1673.36 1824.4 1673.96 1823.45 1673.96 1822.13 1673.96 1820.7 1673.71 1819.38 1673.71H1814.84C1811.14 1673.71 1807.19 1673.96 1803.6 1673.96 1802.77 1673.96 1801.33 1673.96 1801.33 1671.8 1801.33 1670.61 1802.17 1670.48 1802.89 1670.48 1804.2 1670.37 1805.75 1669.89 1805.75 1668.21 1805.75 1665.82 1802.17 1662.95 1801.21 1662.24L1754.35 1625.77 1764.27 1665.23C1765.35 1669.29 1765.59 1670.48 1774.07 1670.48 1776.34 1670.48 1777.42 1670.48 1777.42 1672.76 1777.42 1673.96 1776.23 1673.96 1775.63 1673.96 1773.48 1673.96 1770.96 1673.71 1768.7 1673.71H1754.59C1752.43 1673.71 1749.8 1673.96 1747.65 1673.96 1746.7 1673.96 1745.38 1673.96 1745.38 1671.68 1745.38 1670.48 1746.46 1670.48 1748.25 1670.48 1755.54 1670.48 1755.54 1669.53 1755.54 1668.21 1755.54 1667.98 1755.54 1667.26 1755.07 1665.46L1738.93 1601.15C1737.85 1596.96 1737.61 1595.77 1729.24 1595.77 1726.97 1595.77 1725.77 1595.77 1725.77 1593.62 1725.77 1592.3 1726.85 1592.3 1727.57 1592.3 1729.84 1592.3 1732.23 1592.54 1734.5 1592.54H1748.49C1750.76 1592.54 1753.27 1592.3 1755.54 1592.3 1756.5 1592.3 1757.82 1592.3 1757.82 1594.57 1757.82 1595.77 1756.74 1595.77 1754.95 1595.77 1747.65 1595.77 1747.65 1596.72 1747.65 1597.92 1747.65 1598.75 1748.37 1601.75 1748.85 1603.66L1753.51 1622.19 1771.68 1636.41C1775.15 1628.76 1781.49 1613.46 1786.39 1601.75 1786.75 1601.03 1786.99 1600.31 1786.99 1599.47 1786.99 1595.89 1782.2 1595.77 1781.13 1595.77 1780.05 1595.77 1778.86 1595.77 1778.86 1593.5 1778.86 1592.3 1780.17 1592.3 1780.53 1592.3 1784.71 1592.3 1789.14 1592.54 1793.32 1592.54H1799.06C1800.86 1592.54 1802.89 1592.3 1804.68 1592.3 1805.4 1592.3 1806.71 1592.3 1806.71 1594.57 1806.71 1595.77 1805.64 1595.77 1804.44 1595.77 1800.02 1595.89 1798.46 1596.84 1796.67 1601.15L1780.05 1640.6" />
<path transform="matrix(.1,0,0,-.1,284.59803,521.189)" d="M864.629 1407.18C860.805 1406.46 859.367 1403.59 859.367 1401.32 859.367 1398.45 861.641 1397.49 863.313 1397.49 866.898 1397.49 869.41 1400.6 869.41 1403.83 869.41 1408.85 863.676 1411.12 858.652 1411.12 851.359 1411.12 847.297 1403.95 846.219 1401.68 843.469 1410.64 836.055 1411.12 833.906 1411.12 821.711 1411.12 815.254 1395.46 815.254 1392.83 815.254 1392.35 815.73 1391.75 816.57 1391.75 817.527 1391.75 817.766 1392.47 818.004 1392.95 822.07 1406.22 830.078 1408.73 833.547 1408.73 838.926 1408.73 840.004 1403.71 840.004 1400.84 840.004 1398.21 839.285 1395.46 837.852 1389.72L833.785 1373.34C831.992 1366.17 828.523 1359.6 822.188 1359.6 821.59 1359.6 818.605 1359.6 816.094 1361.15 820.395 1361.98 821.352 1365.57 821.352 1367.01 821.352 1369.4 819.559 1370.83 817.289 1370.83 814.418 1370.83 811.309 1368.32 811.309 1364.5 811.309 1359.48 816.93 1357.2 822.07 1357.2 827.809 1357.2 831.871 1361.75 834.383 1366.65 836.293 1359.6 842.273 1357.2 846.699 1357.2 858.891 1357.2 865.348 1372.86 865.348 1375.5 865.348 1376.09 864.867 1376.57 864.152 1376.57 863.078 1376.57 862.953 1375.97 862.598 1375.02 859.367 1364.5 852.434 1359.6 847.055 1359.6 842.871 1359.6 840.602 1362.7 840.602 1367.61 840.602 1370.23 841.078 1372.15 842.988 1380.04L847.176 1396.3C848.969 1403.47 853.035 1408.73 858.531 1408.73 858.77 1408.73 862.117 1408.73 864.629 1407.18" />
<path transform="matrix(.1,0,0,-.1,284.59803,521.189)" d="M1680.39 1385.18C1679.91 1383.27 1679.67 1382.79 1678.12 1381 1673.22 1374.66 1668.2 1372.39 1664.49 1372.39 1660.54 1372.39 1656.84 1375.5 1656.84 1383.74 1656.84 1390.08 1660.43 1403.47 1663.05 1408.85 1666.52 1415.55 1671.9 1420.33 1676.92 1420.33 1684.82 1420.33 1686.37 1410.52 1686.37 1409.8L1686.01 1408.13 1680.39 1385.18ZM1687.8 1414.83C1686.25 1418.3 1682.9 1422.72 1676.92 1422.72 1663.89 1422.72 1649.07 1406.34 1649.07 1388.53 1649.07 1376.09 1656.6 1370 1664.25 1370 1670.59 1370 1676.21 1375.02 1678.36 1377.41L1675.73 1366.65C1674.05 1360.07 1673.34 1357.09 1669.04 1352.9 1664.13 1348 1659.59 1348 1656.96 1348 1653.37 1348 1650.38 1348.24 1647.39 1349.2 1651.22 1350.27 1652.18 1353.62 1652.18 1354.93 1652.18 1356.85 1650.74 1358.76 1648.11 1358.76 1645.24 1358.76 1642.13 1356.37 1642.13 1352.42 1642.13 1347.52 1647.04 1345.61 1657.2 1345.61 1672.62 1345.61 1680.63 1355.53 1682.18 1361.98L1695.45 1415.55C1695.81 1416.98 1695.81 1417.22 1695.81 1417.46 1695.81 1419.13 1694.5 1420.45 1692.7 1420.45 1689.84 1420.45 1688.16 1418.05 1687.8 1414.83" />
<path transform="matrix(.1,0,0,-.1,284.59803,521.189)" d="M1355.77 1279.27C1355.89 1279.75 1356.13 1280.47 1356.13 1281.07 1356.13 1282.26 1354.93 1282.26 1354.69 1282.26 1354.57 1282.26 1350.27 1281.9 1348.12 1281.66 1346.08 1281.54 1344.29 1281.3 1342.14 1281.19 1339.27 1280.95 1338.43 1280.83 1338.43 1278.68 1338.43 1277.48 1339.63 1277.48 1340.82 1277.48 1346.92 1277.48 1346.92 1276.41 1346.92 1275.21 1346.92 1274.73 1346.92 1274.49 1346.32 1272.34L1331.5 1213.04C1331.14 1211.73 1330.9 1210.77 1330.9 1208.86 1330.9 1202.88 1335.32 1198.1 1341.42 1198.1 1345.37 1198.1 1348 1200.73 1349.91 1204.44 1351.94 1208.38 1353.61 1215.91 1353.61 1216.39 1353.61 1216.99 1353.14 1217.46 1352.42 1217.46 1351.34 1217.46 1351.23 1216.87 1350.75 1215.07 1348.59 1206.82 1346.44 1200.49 1341.66 1200.49 1338.07 1200.49 1338.07 1204.31 1338.07 1205.99 1338.07 1206.46 1338.07 1208.98 1338.91 1212.32L1355.77 1279.27" />
<path transform="matrix(.1,0,0,-.1,284.59803,521.189)" stroke-width="5.6693" stroke-linecap="butt" stroke-miterlimit="22.9256" stroke-linejoin="miter" fill="none" stroke="#231f20" d="M469.637 2.71875V884.641" />
<path transform="matrix(.1,0,0,-.1,284.59803,521.189)" d="M469.637 920.105 454.141 869.738C464.473 876.934 474.801 876.934 485.133 869.738L469.637 920.105" fill="#231f20" fill-rule="evenodd" />
<path transform="matrix(.1,0,0,-.1,284.59803,521.189)" stroke-width="5.6693" stroke-linecap="butt" stroke-miterlimit="22.9256" stroke-linejoin="miter" fill="none" stroke="#231f20" d="M892.867 461.414H10.9453" />
<path transform="matrix(.1,0,0,-.1,284.59803,521.189)" d="M928.328 461.414 877.961 445.914C885.156 456.246 885.156 466.578 877.961 476.91L928.328 461.414" fill="#231f20" fill-rule="evenodd" />
<path transform="matrix(.1,0,0,-.1,284.59803,521.189)" stroke-width="17.0079" stroke-linecap="round" stroke-linejoin="round" fill="none" stroke="#231f20" d="M469.637 77.2266V461.414H853.82" />
<path transform="matrix(.1,0,0,-.1,284.59803,521.189)" d="M347.094 909.824C349.125 909.824 351.277 909.824 351.277 912.219 351.277 914.605 349.125 914.605 347.094 914.605H282.418C280.387 914.605 278.234 914.605 278.234 912.219 278.234 909.824 280.387 909.824 282.418 909.824H347.094ZM398.145 956.809C395.156 965.297 385.711 965.297 384.156 965.297 383.441 965.297 382.125 965.297 382.125 964.102 382.125 963.145 382.844 963.027 383.441 962.906 385.23 962.668 386.664 962.43 388.578 958.961 389.777 956.691 402.09 920.945 402.09 920.703 402.09 920.586 401.969 920.465 401.012 919.508L369.93 888.066C368.496 886.633 367.539 885.676 367.539 884.125 367.539 882.449 368.973 881.016 370.887 881.016 371.363 881.016 372.68 881.254 373.398 881.969 375.309 883.762 392.406 904.688 403.285 917.598 406.391 908.273 410.219 897.273 413.926 887.23 414.523 885.438 415.121 883.762 416.793 882.211 417.988 881.133 418.227 881.133 421.574 881.133H423.848C424.324 881.133 425.164 881.133 425.164 882.09 425.164 882.566 425.043 882.688 424.566 883.164 423.488 884.48 422.652 886.633 422.172 888.066L398.145 956.809" />
<path transform="matrix(.1,0,0,-.1,284.59803,521.189)" d="M917.758 354.055C917.277 352.141 917.039 351.664 915.484 349.871 910.586 343.535 905.563 341.262 901.855 341.262 897.91 341.262 894.207 344.371 894.207 352.617 894.207 358.953 897.793 372.344 900.422 377.727 903.891 384.422 909.27 389.203 914.289 389.203 922.18 389.203 923.734 379.398 923.734 378.68L923.375 377.008 917.758 354.055ZM925.168 383.703C923.617 387.172 920.27 391.594 914.289 391.594 901.258 391.594 886.434 375.215 886.434 357.402 886.434 344.969 893.965 338.871 901.617 338.871 907.953 338.871 913.574 343.891 915.723 346.285L913.094 335.523C911.422 328.945 910.703 325.961 906.402 321.773 901.496 316.875 896.957 316.875 894.324 316.875 890.738 316.875 887.75 317.113 884.762 318.07 888.586 319.145 889.543 322.492 889.543 323.809 889.543 325.723 888.109 327.633 885.477 327.633 882.609 327.633 879.5 325.242 879.5 321.297 879.5 316.395 884.402 314.48 894.563 314.48 909.988 314.48 917.996 324.406 919.551 330.859L932.82 384.422C933.18 385.855 933.18 386.094 933.18 386.332 933.18 388.008 931.863 389.32 930.07 389.32 927.203 389.32 925.527 386.93 925.168 383.703" />
<path transform="matrix(.1,0,0,-.1,284.59803,521.189)" stroke-width="5.6693" stroke-linecap="butt" stroke-miterlimit="22.9256" stroke-linejoin="miter" fill="none" stroke="#231f20" d="M1603.06 3.67578V885.598" />
<path transform="matrix(.1,0,0,-.1,284.59803,521.189)" d="M1603.06 921.059 1587.56 870.691C1597.89 877.891 1608.23 877.891 1618.56 870.691L1603.06 921.059" fill="#231f20" fill-rule="evenodd" />
<path transform="matrix(.1,0,0,-.1,284.59803,521.189)" stroke-width="5.6693" stroke-linecap="butt" stroke-miterlimit="22.9256" stroke-linejoin="miter" fill="none" stroke="#231f20" d="M2026.3 462.367H1144.37" />
<path transform="matrix(.1,0,0,-.1,284.59803,521.189)" d="M2061.76 462.367 2011.39 446.871C2018.59 457.203 2018.59 467.531 2011.39 477.863L2061.76 462.367" fill="#231f20" fill-rule="evenodd" />
<path transform="matrix(.1,0,0,-.1,284.59803,521.189)" stroke-width="17.0079" stroke-linecap="round" stroke-linejoin="round" fill="none" stroke="#231f20" d="M1279 234.098H1603.06V690.641 688.895 693.453H1927.12" />
<path transform="matrix(.1,0,0,-.1,284.59803,521.189)" d="M1480.52 910.781C1482.55 910.781 1484.71 910.781 1484.71 913.172 1484.71 915.563 1482.55 915.563 1480.52 915.563H1415.85C1413.81 915.563 1411.66 915.563 1411.66 913.172 1411.66 910.781 1413.81 910.781 1415.85 910.781H1480.52ZM1531.57 957.766C1528.58 966.25 1519.14 966.25 1517.59 966.25 1516.87 966.25 1515.55 966.25 1515.55 965.059 1515.55 964.102 1516.27 963.98 1516.87 963.863 1518.66 963.625 1520.09 963.383 1522.01 959.918 1523.2 957.645 1535.52 921.902 1535.52 921.66 1535.52 921.539 1535.4 921.422 1534.44 920.465L1503.36 889.023C1501.92 887.586 1500.96 886.633 1500.96 885.078 1500.96 883.402 1502.4 881.969 1504.31 881.969 1504.79 881.969 1506.11 882.207 1506.82 882.926 1508.74 884.719 1525.83 905.641 1536.71 918.555 1539.82 909.227 1543.64 898.23 1547.35 888.188 1547.95 886.395 1548.55 884.719 1550.22 883.164 1551.42 882.09 1551.66 882.09 1555 882.09H1557.27C1557.75 882.09 1558.59 882.09 1558.59 883.047 1558.59 883.523 1558.47 883.645 1557.99 884.121 1556.91 885.438 1556.08 887.586 1555.6 889.023L1531.57 957.766" />
<path transform="matrix(.1,0,0,-.1,284.59803,521.189)" d="M1709.68 224.488C1711.71 224.488 1713.86 224.488 1713.86 226.883 1713.86 229.273 1711.71 229.273 1709.68 229.273H1645C1642.96 229.273 1640.82 229.273 1640.82 226.883 1640.82 224.488 1642.96 224.488 1645 224.488H1709.68ZM1758.21 273.625C1758.21 276.375 1758.21 276.496 1755.82 276.496 1752.95 273.27 1746.98 268.844 1734.66 268.844V265.379C1737.41 265.379 1743.39 265.379 1749.96 268.488V206.199C1749.96 201.895 1749.61 200.461 1739.09 200.461H1735.38V196.992C1738.61 197.23 1750.2 197.23 1754.15 197.23 1758.09 197.23 1769.57 197.23 1772.8 196.992V200.461H1769.09C1758.57 200.461 1758.21 201.895 1758.21 206.199V273.625" />
<path transform="matrix(.1,0,0,-.1,284.59803,521.189)" d="M2051.19 355.008C2050.71 353.094 2050.47 352.617 2048.92 350.824 2044.02 344.488 2038.99 342.215 2035.29 342.215 2031.34 342.215 2027.64 345.324 2027.64 353.574 2027.64 359.91 2031.22 373.301 2033.85 378.68 2037.32 385.375 2042.7 390.156 2047.72 390.156 2055.61 390.156 2057.16 380.352 2057.16 379.637L2056.8 377.965 2051.19 355.008ZM2058.6 384.66C2057.05 388.125 2053.7 392.547 2047.72 392.547 2034.69 392.547 2019.86 376.168 2019.86 358.355 2019.86 345.922 2027.39 339.824 2035.05 339.824 2041.38 339.824 2047 344.848 2049.16 347.238L2046.52 336.477C2044.85 329.902 2044.13 326.914 2039.83 322.73 2034.93 317.828 2030.39 317.828 2027.76 317.828 2024.17 317.828 2021.18 318.066 2018.19 319.027 2022.02 320.102 2022.97 323.449 2022.97 324.762 2022.97 326.676 2021.54 328.59 2018.91 328.59 2016.04 328.59 2012.93 326.199 2012.93 322.25 2012.93 317.352 2017.83 315.438 2027.99 315.438 2043.42 315.438 2051.43 325.359 2052.98 331.816L2066.25 385.375C2066.61 386.809 2066.61 387.047 2066.61 387.285 2066.61 388.961 2065.3 390.277 2063.5 390.277 2060.63 390.277 2058.96 387.883 2058.6 384.66" />
<path transform="matrix(.1,0,0,-.1,284.59803,521.189)" d="M1542.17 725.234C1542.17 727.984 1542.17 728.105 1539.78 728.105 1536.91 724.879 1530.94 720.453 1518.62 720.453V716.988C1521.37 716.988 1527.35 716.988 1533.92 720.098V657.809C1533.92 653.504 1533.57 652.07 1523.04 652.07H1519.34V648.605C1522.57 648.844 1534.16 648.844 1538.11 648.844 1542.05 648.844 1553.53 648.844 1556.76 648.605V652.07H1553.05C1542.53 652.07 1542.17 653.504 1542.17 657.809V725.234" />
<path transform="matrix(.1,0,0,-.1,284.59803,521.189)" d="M1760.68 772.027C1762.71 772.027 1764.86 772.027 1764.86 774.422 1764.86 776.809 1762.71 776.809 1760.68 776.809H1696C1693.97 776.809 1691.82 776.809 1691.82 774.422 1691.82 772.027 1693.97 772.027 1696 772.027H1760.68ZM1811.73 819.012C1808.74 827.5 1799.3 827.5 1797.74 827.5 1797.03 827.5 1795.71 827.5 1795.71 826.305 1795.71 825.348 1796.43 825.227 1797.03 825.109 1798.82 824.871 1800.25 824.629 1802.17 821.164 1803.36 818.895 1815.68 783.148 1815.68 782.906 1815.68 782.789 1815.56 782.668 1814.6 781.711L1783.52 750.27C1782.08 748.836 1781.13 747.879 1781.13 746.324 1781.13 744.652 1782.56 743.215 1784.47 743.215 1784.95 743.215 1786.27 743.453 1786.98 744.172 1788.9 745.965 1805.99 766.887 1816.87 779.801 1819.98 770.473 1823.8 759.477 1827.51 749.434 1828.11 747.641 1828.71 745.965 1830.38 744.414 1831.57 743.336 1831.81 743.336 1835.16 743.336H1837.43C1837.91 743.336 1838.75 743.336 1838.75 744.293 1838.75 744.77 1838.63 744.891 1838.15 745.367 1837.07 746.684 1836.24 748.836 1835.76 750.27L1811.73 819.012ZM1908.57 772.027C1910.6 772.027 1912.75 772.027 1912.75 774.422 1912.75 776.809 1910.6 776.809 1908.57 776.809H1857.88C1859.31 792.832 1873.06 804.305 1889.92 804.305H1908.57C1910.6 804.305 1912.75 804.305 1912.75 806.699 1912.75 809.086 1910.6 809.086 1908.57 809.086H1889.68C1869.23 809.086 1852.98 793.547 1852.98 774.422 1852.98 755.293 1869.23 739.75 1889.68 739.75H1908.57C1910.6 739.75 1912.75 739.75 1912.75 742.141 1912.75 744.531 1910.6 744.531 1908.57 744.531H1889.92C1873.06 744.531 1859.31 756.008 1857.88 772.027H1908.57ZM1947.54 794.383C1941.45 795.938 1936.07 801.918 1936.07 809.566 1936.07 817.934 1942.76 825.465 1952.09 825.465 1971.69 825.465 1974.32 806.102 1975.04 800.961 1975.28 799.523 1975.28 799.047 1976.47 799.047 1977.79 799.047 1977.79 799.645 1977.79 801.797V825.945C1977.79 828.098 1977.79 828.695 1976.59 828.695 1976.23 828.695 1975.76 828.695 1974.92 827.141L1970.98 819.848C1965.23 827.262 1957.35 828.695 1952.09 828.695 1938.82 828.695 1929.13 818.055 1929.13 805.863 1929.13 800.121 1931.16 794.863 1935.59 790.082 1939.77 785.418 1943.96 784.34 1952.45 782.191 1956.63 781.234 1963.2 779.559 1964.88 778.844 1970.5 776.094 1974.2 769.637 1974.2 762.941 1974.2 753.977 1967.87 745.488 1957.95 745.488 1952.56 745.488 1945.15 746.801 1939.29 751.945 1932.36 758.16 1931.88 766.77 1931.76 770.711 1931.64 771.672 1930.69 771.672 1930.45 771.672 1929.13 771.672 1929.13 771.07 1929.13 768.922V744.77C1929.13 742.617 1929.13 742.02 1930.32 742.02 1931.04 742.02 1931.16 742.262 1932 743.695 1932.48 744.652 1934.99 749.074 1935.95 750.867 1940.25 746.086 1947.78 742.02 1958.06 742.02 1971.45 742.02 1981.14 753.379 1981.14 766.527 1981.14 773.82 1978.39 779.203 1975.16 783.148 1970.73 788.523 1965.36 789.84 1960.7 791.035L1947.54 794.383ZM2001.82 766.172C2007.44 762.465 2012.22 762.465 2013.54 762.465 2024.29 762.465 2032.3 770.594 2032.3 779.801 2032.3 783.027 2031.35 787.57 2027.52 791.398 2032.18 796.18 2037.8 796.18 2038.4 796.18 2038.88 796.18 2039.48 796.18 2039.96 795.938 2038.76 795.461 2038.16 794.266 2038.16 792.949 2038.16 791.273 2039.36 789.84 2041.27 789.84 2042.23 789.84 2044.38 790.438 2044.38 793.07 2044.38 795.219 2042.71 798.57 2038.52 798.57 2032.3 798.57 2027.64 794.742 2025.97 792.949 2022.38 795.699 2018.2 797.254 2013.65 797.254 2002.89 797.254 1994.89 789.125 1994.89 779.918 1994.89 773.105 1999.07 768.68 2000.27 767.605 1998.83 765.813 1996.68 762.344 1996.68 757.68 1996.68 750.746 2000.86 747.762 2001.82 747.16 1996.32 745.609 1990.82 741.305 1990.82 735.086 1990.82 726.836 2002.06 720.023 2016.76 720.023 2030.99 720.023 2042.82 726.359 2042.82 735.328 2042.82 738.316 2041.99 745.367 2034.81 749.074 2028.71 752.184 2022.74 752.184 2012.46 752.184 2005.17 752.184 2004.33 752.184 2002.18 754.457 2000.98 755.648 1999.91 757.922 1999.91 760.43 1999.91 762.465 2000.62 764.496 2001.82 766.172ZM2013.65 764.977C2003.13 764.977 2003.13 777.051 2003.13 779.801 2003.13 781.953 2003.13 786.852 2005.17 790.082 2007.44 793.547 2011.02 794.742 2013.54 794.742 2024.05 794.742 2024.05 782.668 2024.05 779.918 2024.05 777.77 2024.05 772.863 2022.02 769.637 2019.75 766.172 2016.16 764.977 2013.65 764.977ZM2016.88 722.535C2005.41 722.535 1996.68 728.391 1996.68 735.207 1996.68 736.164 1996.92 740.828 2001.46 743.934 2004.09 745.609 2005.17 745.609 2013.54 745.609 2023.46 745.609 2036.96 745.609 2036.96 735.207 2036.96 728.152 2027.88 722.535 2016.88 722.535ZM2099.25 773.582C2099.25 784.703 2099.25 788.051 2096.5 791.871 2093.04 796.535 2087.42 797.254 2083.36 797.254 2071.76 797.254 2067.21 787.332 2066.26 784.938H2066.14V797.254L2049.88 795.938V792.473C2058.01 792.473 2058.96 791.637 2058.96 785.777V753.379C2058.96 748 2057.65 748 2049.88 748V744.531C2052.99 744.77 2059.45 744.77 2062.79 744.77 2066.26 744.77 2072.71 744.77 2075.82 744.531V748C2068.17 748 2066.73 748 2066.73 753.379V775.613C2066.73 788.168 2074.98 794.863 2082.39 794.863 2089.81 794.863 2091.48 788.766 2091.48 781.473V753.379C2091.48 748 2090.17 748 2082.39 748V744.531C2085.5 744.77 2091.96 744.77 2095.31 744.77 2098.77 744.77 2105.23 744.77 2108.34 744.531V748C2102.36 748 2099.37 748 2099.25 751.586V773.582ZM2149.82 715.48C2149.82 715.84 2149.82 716.078 2147.79 718.109 2135.84 730.184 2129.14 749.91 2129.14 774.301 2129.14 797.492 2134.76 817.457 2148.63 831.563 2149.82 832.641 2149.82 832.879 2149.82 833.238 2149.82 833.957 2149.23 834.195 2148.75 834.195 2147.2 834.195 2137.39 825.59 2131.53 813.871 2125.43 801.797 2122.68 789.004 2122.68 774.301 2122.68 763.66 2124.36 749.434 2130.58 736.641 2137.63 722.293 2147.43 714.523 2148.75 714.523 2149.23 714.523 2149.82 714.762 2149.82 715.48ZM2196.8 759.715C2196.33 757.801 2196.09 757.324 2194.54 755.531 2189.63 749.195 2184.61 746.922 2180.91 746.922 2176.96 746.922 2173.25 750.031 2173.25 758.281 2173.25 764.613 2176.84 778.004 2179.47 783.387 2182.94 790.082 2188.32 794.863 2193.34 794.863 2201.23 794.863 2202.79 785.059 2202.79 784.34L2202.43 782.668 2196.8 759.715ZM2204.22 789.363C2202.66 792.832 2199.32 797.254 2193.34 797.254 2180.31 797.254 2165.48 780.875 2165.48 763.063 2165.48 750.629 2173.02 744.531 2180.67 744.531 2187 744.531 2192.62 749.551 2194.77 751.945L2192.14 741.184C2190.47 734.605 2189.75 731.621 2185.45 727.438 2180.55 722.535 2176 722.535 2173.38 722.535 2169.79 722.535 2166.8 722.773 2163.81 723.73 2167.63 724.805 2168.59 728.152 2168.59 729.469 2168.59 731.383 2167.16 733.297 2164.53 733.297 2161.66 733.297 2158.55 730.902 2158.55 726.957 2158.55 722.055 2163.45 720.141 2173.61 720.141 2189.04 720.141 2197.04 730.066 2198.6 736.52L2211.87 790.082C2212.23 791.516 2212.23 791.754 2212.23 791.992 2212.23 793.668 2210.91 794.984 2209.12 794.984 2206.25 794.984 2204.58 792.59 2204.22 789.363ZM2246.06 774.301C2246.06 783.387 2244.87 798.211 2238.17 812.078 2231.12 826.426 2221.31 834.195 2220 834.195 2219.52 834.195 2218.93 833.957 2218.93 833.238 2218.93 832.879 2218.93 832.641 2220.96 830.609 2232.91 818.531 2239.61 798.805 2239.61 774.422 2239.61 751.227 2233.99 731.262 2220.12 717.156 2218.93 716.078 2218.93 715.84 2218.93 715.48 2218.93 714.762 2219.52 714.523 2220 714.523 2221.55 714.523 2231.36 723.133 2237.21 734.848 2243.31 747.043 2246.06 759.953 2246.06 774.301" />
<path transform="matrix(.1,0,0,-.1,284.59803,521.189)" d="M594.836 552.566C596.867 552.566 599.02 552.566 599.02 554.957 599.02 557.348 596.867 557.348 594.836 557.348H530.16C528.129 557.348 525.977 557.348 525.977 554.957 525.977 552.566 528.129 552.566 530.16 552.566H594.836ZM645.887 599.551C642.898 608.039 633.453 608.039 631.898 608.039 631.184 608.039 629.867 608.039 629.867 606.844 629.867 605.887 630.586 605.766 631.184 605.648 632.973 605.41 634.41 605.168 636.32 601.703 637.52 599.43 649.832 563.688 649.832 563.445 649.832 563.328 649.711 563.207 648.754 562.25L617.672 530.809C616.238 529.375 615.281 528.418 615.281 526.863 615.281 525.188 616.715 523.754 618.629 523.754 619.105 523.754 620.422 523.992 621.141 524.711 623.055 526.504 640.148 547.426 651.027 560.34 654.133 551.012 657.961 540.016 661.668 529.973 662.266 528.18 662.863 526.504 664.535 524.953 665.73 523.875 665.969 523.875 669.316 523.875H671.59C672.066 523.875 672.906 523.875 672.906 524.832 672.906 525.309 672.785 525.43 672.309 525.906 671.23 527.223 670.395 529.375 669.914 530.809L645.887 599.551ZM742.723 552.566C744.754 552.566 746.906 552.566 746.906 554.957 746.906 557.348 744.754 557.348 742.723 557.348H692.035C693.469 573.371 707.215 584.844 724.074 584.844H742.723C744.754 584.844 746.906 584.844 746.906 587.238 746.906 589.625 744.754 589.625 742.723 589.625H723.832C703.391 589.625 687.133 574.086 687.133 554.957 687.133 535.832 703.391 520.289 723.832 520.289H742.723C744.754 520.289 746.906 520.289 746.906 522.68 746.906 525.07 744.754 525.07 742.723 525.07H724.074C707.215 525.07 693.469 536.547 692.035 552.566H742.723ZM824.977 552.566C824.977 535.832 813.617 526.027 802.383 526.027 795.207 526.027 782.773 530.809 782.773 551.73V597.637C782.773 602.063 783.129 603.254 791.738 603.254H794.133V606.727C791.262 606.484 781.457 606.484 777.992 606.484 774.406 606.484 764.602 606.484 761.73 606.727V603.254H764.125C772.73 603.254 773.09 602.063 773.09 597.637V552.449C773.09 535.113 786.957 522.559 802.141 522.559 818.758 522.559 828.203 538.82 828.203 550.773V595.965C828.203 603.254 837.41 603.254 839.559 603.254V606.727C836.453 606.484 829.996 606.484 826.648 606.484 823.18 606.484 816.727 606.484 813.617 606.727V603.254C824.977 603.254 824.977 597.637 824.977 594.41V552.566ZM873.871 505.344C866.219 505.344 864.785 505.344 864.785 510.723V531.523C866.938 528.535 871.84 523.875 879.488 523.875 893.238 523.875 905.313 535.469 905.313 550.895 905.313 566.078 894.074 577.793 881.043 577.793 870.523 577.793 864.906 570.262 864.543 569.781V577.793L847.93 576.477V573.012C856.297 573.012 857.012 572.172 857.012 566.914V510.723C857.012 505.344 855.699 505.344 847.93 505.344V501.879C851.035 502.117 857.492 502.117 860.84 502.117 864.305 502.117 870.762 502.117 873.871 501.879V505.344ZM864.785 563.207C864.785 565.477 864.785 565.598 866.098 567.512 869.688 572.891 875.543 575.16 880.086 575.16 889.055 575.16 896.227 564.281 896.227 550.895 896.227 536.668 888.098 526.266 878.891 526.266 875.188 526.266 871.719 527.82 869.328 530.09 866.578 532.84 864.785 535.234 864.785 538.582V563.207ZM929.461 552.926C929.461 564.523 934.242 575.402 943.449 575.402 944.406 575.402 944.645 575.402 945.121 575.281 944.168 574.805 942.254 574.086 942.254 570.859 942.254 567.391 945.004 566.078 946.918 566.078 949.305 566.078 951.699 567.629 951.699 570.859 951.699 574.445 948.469 577.793 943.332 577.793 933.168 577.793 929.703 566.793 928.984 564.523H928.863V577.793L912.844 576.477V573.012C920.973 573.012 921.93 572.172 921.93 566.313V533.918C921.93 528.535 920.613 528.535 912.844 528.535V525.07C916.191 525.309 922.766 525.309 926.355 525.309 929.578 525.309 938.07 525.309 940.82 525.07V528.535H938.426C929.703 528.535 929.461 529.852 929.461 534.156V552.926ZM993.777 496.02C993.777 496.379 993.777 496.617 991.746 498.648 979.789 510.723 973.098 530.449 973.098 554.84 973.098 578.031 978.715 597.996 992.582 612.102 993.777 613.18 993.777 613.418 993.777 613.777 993.777 614.496 993.18 614.734 992.703 614.734 991.148 614.734 981.348 606.125 975.488 594.41 969.391 582.336 966.641 569.543 966.641 554.84 966.641 544.199 968.316 529.973 974.531 517.18 981.586 502.832 991.387 495.063 992.703 495.063 993.18 495.063 993.777 495.301 993.777 496.02ZM1040.76 540.254C1040.28 538.34 1040.04 537.863 1038.49 536.07 1033.59 529.734 1028.57 527.461 1024.86 527.461 1020.91 527.461 1017.21 530.57 1017.21 538.82 1017.21 545.152 1020.8 558.543 1023.43 563.926 1026.89 570.621 1032.27 575.402 1037.29 575.402 1045.18 575.402 1046.74 565.598 1046.74 564.879L1046.38 563.207 1040.76 540.254ZM1048.17 569.902C1046.62 573.371 1043.27 577.793 1037.29 577.793 1024.26 577.793 1009.44 561.414 1009.44 543.602 1009.44 531.168 1016.97 525.07 1024.62 525.07 1030.96 525.07 1036.58 530.09 1038.73 532.484L1036.1 521.723C1034.43 515.145 1033.71 512.16 1029.41 507.977 1024.5 503.074 1019.96 503.074 1017.33 503.074 1013.74 503.074 1010.75 503.313 1007.77 504.27 1011.59 505.344 1012.55 508.691 1012.55 510.008 1012.55 511.922 1011.11 513.832 1008.48 513.832 1005.61 513.832 1002.5 511.441 1002.5 507.496 1002.5 502.594 1007.41 500.68 1017.57 500.68 1032.99 500.68 1041 510.605 1042.55 517.059L1055.82 570.621C1056.18 572.055 1056.18 572.293 1056.18 572.531 1056.18 574.207 1054.87 575.52 1053.07 575.52 1050.21 575.52 1048.53 573.129 1048.17 569.902ZM1090.02 554.84C1090.02 563.926 1088.82 578.75 1082.13 592.617 1075.07 606.965 1065.27 614.734 1063.95 614.734 1063.47 614.734 1062.88 614.496 1062.88 613.777 1062.88 613.418 1062.88 613.18 1064.91 611.148 1076.87 599.07 1083.56 579.344 1083.56 554.957 1083.56 531.766 1077.94 511.801 1064.07 497.691 1062.88 496.617 1062.88 496.379 1062.88 496.02 1062.88 495.301 1063.47 495.063 1063.95 495.063 1065.51 495.063 1075.31 503.672 1081.17 515.387 1087.27 527.582 1090.02 540.492 1090.02 554.84" />
</g>
<g clip-path="url(#clip_12)">
<path transform="matrix(.1,0,0,-.1,284.59803,521.189)" stroke-width="5.04" stroke-linecap="butt" stroke-miterlimit="10" stroke-linejoin="miter" fill="none" stroke="#231f20" d="M62.5508 1448.09-145.277 1655.91" />
<path transform="matrix(.1,0,0,-.1,284.59803,521.189)" stroke-width="5.04" stroke-linecap="butt" stroke-miterlimit="10" stroke-linejoin="miter" fill="none" stroke="#231f20" d="M85.4609 1471-122.367 1678.82" />
<path transform="matrix(.1,0,0,-.1,284.59803,521.189)" stroke-width="5.04" stroke-linecap="butt" stroke-miterlimit="10" stroke-linejoin="miter" fill="none" stroke="#231f20" d="M108.371 1493.91-99.4531 1701.73" />
<path transform="matrix(.1,0,0,-.1,284.59803,521.189)" stroke-width="5.04" stroke-linecap="butt" stroke-miterlimit="10" stroke-linejoin="miter" fill="none" stroke="#231f20" d="M131.281 1516.82-76.543 1724.64" />
<path transform="matrix(.1,0,0,-.1,284.59803,521.189)" stroke-width="5.04" stroke-linecap="butt" stroke-miterlimit="10" stroke-linejoin="miter" fill="none" stroke="#231f20" d="M154.191 1539.73-53.6328 1747.55" />
<path transform="matrix(.1,0,0,-.1,284.59803,521.189)" stroke-width="5.04" stroke-linecap="butt" stroke-miterlimit="10" stroke-linejoin="miter" fill="none" stroke="#231f20" d="M177.102 1562.64-30.7227 1770.46" />
<path transform="matrix(.1,0,0,-.1,284.59803,521.189)" stroke-width="5.04" stroke-linecap="butt" stroke-miterlimit="10" stroke-linejoin="miter" fill="none" stroke="#231f20" d="M200.012 1585.55-7.8125 1793.37" />
<path transform="matrix(.1,0,0,-.1,284.59803,521.189)" stroke-width="5.04" stroke-linecap="butt" stroke-miterlimit="10" stroke-linejoin="miter" fill="none" stroke="#231f20" d="M222.922 1608.46 15.0977 1816.28" />
<path transform="matrix(.1,0,0,-.1,284.59803,521.189)" stroke-width="5.04" stroke-linecap="butt" stroke-miterlimit="10" stroke-linejoin="miter" fill="none" stroke="#231f20" d="M245.832 1631.37 38.0078 1839.19" />
<path transform="matrix(.1,0,0,-.1,284.59803,521.189)" stroke-width="5.04" stroke-linecap="butt" stroke-miterlimit="10" stroke-linejoin="miter" fill="none" stroke="#231f20" d="M268.742 1654.28 60.918 1862.1" />
</g>
<g clip-path="url(#clip_13)">
<path transform="matrix(.1,0,0,-.1,284.59803,521.189)" stroke-width="5.04" stroke-linecap="butt" stroke-miterlimit="10" stroke-linejoin="miter" fill="none" stroke="#231f20" d="M511.469 1100.68 322.359 1289.79" />
<path transform="matrix(.1,0,0,-.1,284.59803,521.189)" stroke-width="5.04" stroke-linecap="butt" stroke-miterlimit="10" stroke-linejoin="miter" fill="none" stroke="#231f20" d="M534.379 1123.59 345.27 1312.7" />
<path transform="matrix(.1,0,0,-.1,284.59803,521.189)" stroke-width="5.04" stroke-linecap="butt" stroke-miterlimit="10" stroke-linejoin="miter" fill="none" stroke="#231f20" d="M557.289 1146.5 368.18 1335.61" />
<path transform="matrix(.1,0,0,-.1,284.59803,521.189)" stroke-width="5.04" stroke-linecap="butt" stroke-miterlimit="10" stroke-linejoin="miter" fill="none" stroke="#231f20" d="M580.199 1169.41 391.09 1358.52" />
<path transform="matrix(.1,0,0,-.1,284.59803,521.189)" stroke-width="5.04" stroke-linecap="butt" stroke-miterlimit="10" stroke-linejoin="miter" fill="none" stroke="#231f20" d="M603.109 1192.32 414 1381.43" />
<path transform="matrix(.1,0,0,-.1,284.59803,521.189)" stroke-width="5.04" stroke-linecap="butt" stroke-miterlimit="10" stroke-linejoin="miter" fill="none" stroke="#231f20" d="M626.02 1215.23 436.914 1404.34" />
<path transform="matrix(.1,0,0,-.1,284.59803,521.189)" stroke-width="5.04" stroke-linecap="butt" stroke-miterlimit="10" stroke-linejoin="miter" fill="none" stroke="#231f20" d="M648.934 1238.14 459.824 1427.25" />
<path transform="matrix(.1,0,0,-.1,284.59803,521.189)" stroke-width="5.04" stroke-linecap="butt" stroke-miterlimit="10" stroke-linejoin="miter" fill="none" stroke="#231f20" d="M671.844 1261.05 482.734 1450.16" />
<path transform="matrix(.1,0,0,-.1,284.59803,521.189)" stroke-width="5.04" stroke-linecap="butt" stroke-miterlimit="10" stroke-linejoin="miter" fill="none" stroke="#231f20" d="M694.754 1283.96 505.645 1473.07" />
</g>

</svg>