<svg xmlns="http://www.w3.org/2000/svg" xmlns:xlink="http://www.w3.org/1999/xlink" version="1.1" width="157.000" height="169.000" viewBox="369.091 535.298 157.000 169.000">
<defs>
<clipPath id="clip_9">
<path transform="matrix(1,0,0,-1,379.091,694.29806)" d="M0 0H137V149H0Z" clip-rule="evenodd" />
</clipPath>

<path id="font_10_12" d="M.16999817-.17001343C.16799927-.17700196 .16699219-.18101502 .1659851-.18301392 .16499329-.18501282 .16499329-.18701172 .16499329-.19000244 .16499329-.20100403 .16899109-.2090149 .17599488-.2130127 .18299866-.21600342 .18899536-.21800232 .19400025-.21800232 .19699097-.21800232 .20199585-.2170105 .21099854-.21400452 .21899414-.2110138 .22599793-.20300293 .23098755-.19200135 .23199463-.19000244 .23298645-.18600464 .23399353-.18000794 .23498535-.17401123 .23699951-.16400147 .23999024-.15100098 .24198914-.13800049 .24499512-.120010379 .25-.09701538 .2539978-.07400513 .25898744-.044006349 .2659912-.009002686 .2709961-.010009766 .2749939-.010009766 .27999879-.011001587 .28399659-.011001587 .2899933-.011001587 .29899598-.011001587 .33999635-.011001587 .37998963-.0020141602 .4189911 .015991211 .45799256 .033996583 .49198915 .057998659 .5219879 .08699036 .5509949 .115997318 .57499697 .1499939 .59298709 .18798828 .6100006 .22599793 .61898806 .2649994 .61898806 .3039856 .61898806 .32299806 .61698916 .34199525 .6119995 .35899354 .6069946 .37599183 .598999 .3899994 .58999636 .40299989 .58099368 .4149933 .56900027 .4249878 .5549927 .43199159 .5399933 .43899537 .5239868 .44198609 .5049896 .44198609 .46899415 .44198609 .43798829 .43099977 .41099549 .40899659 .38398744 .38598634 .36099244 .35699464 .34098817 .32099916 .31999208 .28399659 .3019867 .24299622 .28599549 .19599915 .269989 .14898682 .25498963 .101989749 .23999024 .052993776 .18598938 .06298828 .14498902 .08099365 .117996219 .10798645 .08999634 .13398743 .07598877 .16499329 .07598877 .20098877 .07598877 .20799256 .07798767 .21899414 .08099365 .23498535 .083999637 .25099183 .08799744 .2689972 .09498596 .2889862 .101989749 .30899049 .10998535 .32998658 .12098694 .35099793 .1309967 .37199403 .14399719 .3909912 .15899658 .4079895 .16299439 .41299439 .16499329 .41600038 .1659851 .4169922 .16699219 .41799928 .16699219 .41999818 .16699219 .42099 .16699219 .4229889 .1659851 .4249878 .16499329 .42799378 .1639862 .42999269 .1599884 .43099977 .15499878 .43099977 .147995 .43099977 .13798523 .4229889 .1269989 .40699769 .114990238 .3909912 .102996829 .37098695 .09199524 .34700013 .08099365 .32199098 .070999149 .29599 .06298828 .2679901 .053985597 .23999024 .049987794 .21398926 .049987794 .18998719 .049987794 .14299011 .06498718 .101989749 .09599304 .067993167 .1269989 .033996583 .16899109 .010986328 .22299195-.0020141602L.16999817-.17001343M.30799867 .04699707C.3039856 .04699707 .30099488 .04699707 .29899598 .04699707 .29699708 .04699707 .2939911 .04699707 .2899933 .04798889 .28399659 .04798889 .27999879 .04798889 .2789917 .04899597 .27799989 .049987794 .2769928 .050994874 .2769928 .051986696 .2769928 .052993776 .27799989 .057998659 .27999879 .067993167 .2809906 .07699585 .2829895 .08799744 .28599549 .100997928 .28799439 .11399841 .2899933 .12599182 .29299928 .13699341 .29499818 .147995 .29599 .1559906 .29699708 .1599884 .30499269 .19198609 .31599427 .22200012 .32899476 .24899292 .34199525 .27598573 .35699464 .2999878 .37399293 .31999208 .3909912 .33999635 .4099884 .35598756 .43099977 .36698915 .45199586 .37799073 .47299195 .38398744 .49499513 .38398744 .5119934 .38398744 .5269928 .3809967 .5389862 .375 .5509949 .36898805 .5609894 .36099244 .56900027 .35099793 .57598879 .34098817 .58200076 .32998658 .58599856 .31799317 .58898928 .30599977 .59098818 .2939911 .59098818 .28199769 .59098818 .2539978 .58399966 .22599793 .56900027 .19799805 .55400088 .16999817 .5329895 .14498902 .5079956 .12298584 .48199464 .099990848 .45199586 .08198547 .41799928 .067993167 .3829956 .053985597 .34700013 .04699707 .30799867 .04699707Z" />

<path id="font_10_11" d="M.48199464 .66799929C.48298646 .66999819 .48298646 .6719971 .48399354 .6749878 .4850006 .6779938 .4850006 .6799927 .4850006 .68299868 .4850006 .6879883 .48399354 .69200137 .48098756 .69299319 .47799684 .69400027 .47599793 .69400027 .47299195 .69400027 .46798707 .69400027 .46398927 .69299319 .46299745 .69099429 .46199037 .68899539 .45999146 .68299868 .45799256 .673996L.2919922 .0129852299C.21598816 .021987915 .17799378 .05899048 .17799378 .125 .17799378 .12998963 .17799378 .13598633 .1789856 .14299011 .17999268 .1499939 .18199158 .1599884 .18499756 .17298889 .18798828 .18598938 .19400025 .20399475 .20098877 .22599793 .20799256 .24699402 .21899414 .27598573 .23199463 .31098939 .23399353 .31698609 .23599243 .32398988 .23899842 .33299256 .24198914 .34098817 .24299622 .34999085 .24299622 .3600006 .24299622 .3829956 .23599243 .4019928 .22099304 .41799928 .20599365 .43399049 .18598938 .44198609 .16099549 .44198609 .14498902 .44198609 .1309967 .43798829 .117996219 .43099977 .10499573 .42399598 .09399414 .4149933 .084991458 .4039917 .07499695 .3929901 .066986087 .38198854 .05999756 .36898805 .052993776 .35598756 .04699707 .34298707 .041992189 .33198548 .036987306 .32099916 .033996583 .31098939 .03199768 .30299378 .02999878 .2939911 .0289917 .2889862 .0289917 .28799439 .0289917 .2829895 .0309906 .27999879 .033996583 .2789917 .036987306 .27799989 .039993287 .27799989 .040985109 .27799989 .04598999 .27799989 .049987794 .2789917 .050994874 .2809906 .051986696 .2829895 .053985597 .28799439 .056991579 .29599 .069992069 .34298707 .085998538 .37599183 .10499573 .3939972 .12298584 .41099549 .14099121 .41999818 .1579895 .41999818 .1619873 .41999818 .16699219 .4189911 .17399597 .41600038 .17999268 .41299439 .18299866 .4039917 .18299866 .3880005 .18299866 .375 .18099976 .36099244 .1769867 .34799195 .17199707 .33499146 .16699219 .31900025 .1599884 .3019867 .147995 .2709961 .13899231 .24499512 .13198853 .22499085 .125 .20498657 .12098694 .18899536 .117996219 .1769867 .114990238 .1639862 .11299133 .15499878 .11299133 .14898682 .11199951 .14199829 .11199951 .13699341 .11199951 .1329956 .11199951 .10899353 .116989139 .08898926 .12599182 .07199097 .1349945 .054992677 .14698792 .039993287 .16299439 .0289917 .1789856 .016998291 .19799805 .0079956059 .21899414 .0019989014 .23999024-.0040130617 .2619934-.008010864 .28599549-.009002686 .28399659-.018005372 .28199769-.026000977 .2809906-.03100586 .27999879-.036010744 .27799989-.042007448 .2769928-.04800415 .27598573-.054000856 .27398683-.06100464 .27198792-.069000247 .269989-.07600403 .2669983-.087005618 .2639923-.1000061 .2630005-.103012088 .2619934-.10900879 .25898744-.119003299 .2559967-.12901306 .2539978-.14001465 .25099183-.15100098 .24798584-.16200257 .24598694-.17201233 .24398804-.18101502 .24198914-.19000244 .24099732-.1940155 .24099732-.19500733 .24099732-.1960144 .24198914-.1980133 .24299622-.20100403 .24398804-.20401001 .24699402-.20500183 .25299073-.20500183 .2539978-.20500183 .2559967-.20500183 .2579956-.20500183 .25898744-.20401001 .26098634-.20300293 .2619934-.20100403 .2630005-.2000122 .2649994-.1940155 .2679901-.18501282 .2709961-.17601013 .272995-.16700745 .27398683-.16000366 .2809906-.13500977 .2869873-.11100769 .29299928-.086013797 .29899598-.06100464 .30499269-.036010744 .31199647-.011001587 .32099916-.011001587 .33399964-.011001587 .34899903-.010009766 .3639984-.009002686 .3809967-.005004883 .3999939 .0019989014 .4189911 .008987427 .43998719 .018997193 .46299745 .033996583 .4850006 .04899597 .5079956 .068984989 .5309906 .09599304 .5519867 .11898804 .56799319 .14099121 .57899478 .1619873 .58999636 .18299866 .598999 .20098877 .60398867 .21598816 .60598757 .22200012 .60899356 .23199463 .61299136 .24499512 .6159973 .2579956 .6199951 .27198792 .6230011 .2869873 .6259918 .3019867 .6289978 .31799317 .6319885 .33299256 .6339874 .34799195 .6349945 .36099244 .6349945 .37199403 .6349945 .38598634 .6339874 .397995 .6309967 .40699769 .6279907 .41600038 .6239929 .4229889 .6199951 .42799378 .61499026 .43299867 .6100006 .43699647 .6049957 .43899537 .59999087 .44099427 .59498599 .44198609 .59098818 .44198609 .5779877 .44198609 .5669861 .43699647 .5569916 .4269867 .54599 .41600038 .54100039 .40499879 .54100039 .3939972 .54100039 .3869934 .5419922 .38198854 .54499819 .3789978 .5479889 .375 .5509949 .37098695 .55599978 .36698915 .5609894 .3619995 .56900027 .35198976 .5779877 .33898927 .58699038 .32499696 .59199526 .30599977 .59199526 .28199769 .59199526 .2659912 .58898928 .24899292 .58399966 .23199463 .5779877 .21398926 .57099917 .19699097 .56199648 .18099976 .5529938 .1639862 .5439911 .14898682 .5339966 .1349945 .522995 .11999512 .5139923 .10899353 .5049896 .099990848 .48298646 .07798767 .46299745 .06098938 .44400025 .04899597 .4249878 .035995485 .40699769 .026992798 .3919983 .021987915 .37599183 .016998291 .3619995 .01399231 .34899903 .0129852299 .33599855 .011993408 .32598878 .010986328 .31698609 .010986328L.48199464 .66799929Z" />

<path id="font_10_2" d="M.30299378 .32499696H.3999939C.4189911 .32499696 .43399049 .32398988 .44499208 .32199098 .45599366 .31999208 .46398927 .31698609 .46998597 .31399537 .47499085 .30999757 .47898866 .30499269 .48098756 .2999878 .48199464 .2939911 .48298646 .2869873 .48298646 .27999879 .48298646 .2769928 .48298646 .27198792 .48199464 .2649994 .48098756 .2579956 .47898866 .24598694 .47599793 .23098755 .47399903 .22599793 .47299195 .22200012 .47299195 .21998596 .47299195 .21598816 .47399903 .21299744 .47698976 .21099854 .47898866 .20899964 .48199464 .20799256 .4850006 .20799256 .48999024 .20799256 .49398805 .20899964 .49499513 .21199036 .49598695 .21398926 .49699403 .21998596 .5 .22898865L.5549927 .44599916C.55599978 .45098878 .5569916 .45498658 .55799868 .45700074 .55799868 .45899964 .55799868 .46099855 .55799868 .46199037 .55799868 .46299745 .5569916 .46598817 .55599978 .46899415 .5549927 .47200013 .5509949 .47299195 .54599 .47299195 .54100039 .47299195 .5369873 .47200013 .5359955 .46899415 .5349884 .46598817 .5329895 .45999146 .5309906 .45199586 .526001 .43299867 .519989 .4169922 .5139923 .4039917 .5079956 .3909912 .5 .38198854 .4909973 .375 .48098756 .36799623 .46899415 .36299134 .45498658 .3600006 .44099427 .35699464 .4229889 .35598756 .4019928 .35598756H.31098939L.375 .6100006C.3769989 .61898806 .3789978 .6259918 .3809967 .6309967 .3829956 .6359863 .38598634 .6399994 .3889923 .6429901 .3919983 .6459961 .39698792 .6469879 .40299989 .647995 .40899659 .6489868 .41799928 .6489868 .42900086 .6489868H.5609894C.59199526 .6489868 .61698916 .6469879 .6359863 .6429901 .6549988 .6380005 .6689911 .6319885 .6799927 .6230011 .69099429 .6139984 .69799807 .60198977 .70199587 .58898928 .7049866 .57499697 .70700076 .55799868 .70700076 .5389862 .70700076 .5279999 .70700076 .5189972 .70700076 .5139923 .70599368 .5079956 .7049866 .49798585 .70399478 .4850006 .7029877 .47799684 .70199587 .47399903 .70199587 .47200013 .70199587 .46998597 .70199587 .46798707 .70199587 .46699525 .70199587 .46398927 .7029877 .46199037 .7049866 .45899964 .70599368 .45599366 .70899966 .45498658 .71398928 .45498658 .71899417 .45498658 .72299197 .45700074 .723999 .46099855 .72499087 .46398927 .72698977 .47099305 .7279968 .47999574L.7480011 .6529999C.7489929 .66600039 .7480011 .673996 .7449951 .6769867 .74198916 .67900088 .73399356 .6799927 .72099307 .6799927H.23098755C.22099304 .6799927 .21398926 .67900088 .20899964 .6779938 .20399475 .6759949 .20098877 .66999819 .20098877 .6599884 .20098877 .6549988 .20298767 .6519928 .20799256 .651001 .21299744 .6499939 .21998596 .6489868 .22898865 .6489868 .24798584 .6489868 .2630005 .647995 .27598573 .6469879 .28799439 .6459961 .2939911 .6399994 .2939911 .6309967 .2939911 .6289978 .2939911 .6269989 .2939911 .625 .29299928 .621994 .2919922 .6159973 .2889862 .6069946L.15699768 .07798767C.1539917 .067993167 .1519928 .05999756 .1499939 .053985597 .14698792 .04798889 .14299011 .042999269 .13798523 .039993287 .13198853 .036987306 .12399292 .033996583 .11299133 .032989503 .101989749 .03199768 .085998538 .0309906 .06599426 .0309906 .056991579 .0309906 .050994874 .02999878 .04598999 .0289917 .040985109 .026992798 .037994386 .020996094 .037994386 .011993408 .037994386 .005996704 .039993287 .0029907227 .04499817 .0019989014 .04899597 .0009918213 .051986696 0 .052993776 0 .05999756 0 .069992069 0 .08198547 .0009918213 .09399414 .0009918213 .10598755 .0009918213 .11898804 .0019989014 .13198853 .0019989014 .14399719 .0019989014 .1559906 .0029907227 .16799927 .0029907227 .17799378 .0029907227 .18499756 .0029907227 .19299317 .0029907227 .20399475 .0029907227 .21798706 .0029907227 .23098755 .0019989014 .24499512 .0019989014 .2599945 .0019989014 .27398683 .0009918213 .28799439 .0009918213 .3019867 .0009918213 .31498719 0 .32598878 0 .33399964 0 .33898927 0 .34298707 .0009918213 .34799195 .0029907227 .35299684 .0039978029 .35499574 .009994507 .35499574 .018997193 .35499574 .022994996 .35398866 .025985718 .35198976 .026992798 .34999085 .027999878 .34899903 .0289917 .34899903 .02999878 .34799195 .0309906 .34498597 .0309906 .34199525 .0309906 .33898927 .0309906 .33198548 .0309906 .32099916 .0309906 .31599427 .0309906 .31098939 .0309906 .30699159 .0309906 .30299378 .0309906 .29899598 .0309906 .29599 .0309906 .29299928 .0309906 .2889862 .0309906 .2849884 .03199768 .27999879 .03199768 .2749939 .03199768 .2689972 .032989503 .2539978 .033996583 .24499512 .035995485 .24198914 .038986207 .23899842 .041992189 .23699951 .04598999 .23699951 .052993776 .23699951 .053985597 .23699951 .056991579 .23799134 .05999756 .23799134 .06298828 .23899842 .068984989 .24099732 .07598877L.30299378 .32499696Z" />

<path id="font_10_4" d="M.33399964 .3019867C.33499146 .30899049 .33799745 .31900025 .34199525 .33198548 .34599305 .34498597 .35198976 .35798646 .3600006 .37098695 .36698915 .38398744 .3769989 .394989 .3889923 .40499879 .40098573 .4149933 .41600038 .41999818 .43299867 .41999818 .43598939 .41999818 .44198609 .41999818 .45199586 .4189911 .46199037 .41799928 .47200013 .4139862 .48298646 .40699769 .46899415 .4039917 .45799256 .397995 .44898988 .3869934 .43998719 .37599183 .43499757 .36499024 .43499757 .35299684 .43499757 .34498597 .43798829 .33699037 .44400025 .32998658 .44999696 .32199098 .45999146 .31799317 .47299195 .31799317 .47799684 .31799317 .48399354 .31900025 .4909973 .32199098 .49699403 .32398988 .5029907 .32699586 .5079956 .33198548 .5130005 .33699037 .5179901 .34298707 .5219879 .34999085 .5249939 .35699464 .5269928 .3659973 .5269928 .37599183 .5269928 .3889923 .5239868 .39898683 .5169983 .4079895 .5099945 .4169922 .5019989 .42399598 .49299623 .42900086 .48399354 .43399049 .47399903 .43699647 .46299745 .43899537 .45199586 .44099427 .44299317 .44198609 .43399049 .44198609 .4189911 .44198609 .4059906 .43899537 .394989 .43399049 .3829956 .42799378 .37298585 .42099 .3639984 .41299439 .35499574 .40499879 .34799195 .39698792 .34199525 .3880005 .33599855 .3789978 .33198548 .37199403 .32899476 .3659973 .32299806 .3829956 .31498719 .3959961 .30599977 .4059906 .29699708 .41600038 .2869873 .42399598 .2769928 .42900086 .2659912 .43399049 .2559967 .43798829 .24699402 .43998719 .23699951 .44099427 .22799683 .44198609 .22099304 .44198609 .19499207 .44198609 .17199707 .43499757 .1519928 .42199708 .13198853 .4079895 .114990238 .3919983 .101989749 .375 .08799744 .35699464 .07798767 .33999635 .070999149 .32299806 .06399536 .30599977 .05999756 .2939911 .05999756 .28799439 .05999756 .2829895 .06199646 .27999879 .06498718 .2789917 .067993167 .27799989 .070999149 .27799989 .07199097 .27799989 .07899475 .27799989 .083999637 .28199769 .084991458 .2889862 .09399414 .31599427 .10398865 .33799745 .115997318 .35499574 .1269989 .37199403 .13899231 .3849945 .1519928 .394989 .16499329 .4039917 .1769867 .41099549 .18899536 .4149933 .19999695 .41799928 .20999146 .41999818 .21899414 .41999818 .22399903 .41999818 .22898865 .4189911 .23599243 .41799928 .24198914 .41600038 .24798584 .41299439 .25299073 .4079895 .2579956 .40299989 .2630005 .39698792 .2669983 .3880005 .2709961 .3789978 .272995 .36799623 .272995 .35299684 .272995 .33799745 .2689972 .31199647 .2599945 .2749939 .25099183 .23799134 .23799134 .18499756 .21899414 .114990238 .21099854 .083999637 .19898987 .05899048 .18199158 .039993287 .16499329 .020996094 .1459961 .010986328 .12399292 .010986328 .12098694 .010986328 .11399841 .011993408 .10499573 .0129852299 .09498596 .01399231 .084991458 .016998291 .07398987 .023986817 .08699036 .026992798 .09799194 .032989503 .10699463 .042999269 .115997318 .051986696 .12098694 .06399536 .12098694 .07798767 .12098694 .09098816 .116989139 .100997928 .10798645 .10598755 .09899902 .11099243 .09098816 .11299133 .083999637 .11299133 .068984989 .11299133 .055999757 .10699463 .04499817 .09599304 .033996583 .084991458 .0289917 .070999149 .0289917 .054992677 .0289917 .04399109 .03199768 .033996583 .037994386 .025985718 .042999269 .016998291 .050994874 .009994507 .05999756 .004989624 .068984989 0 .07899475-.0040130617 .08999634-.007003784 .100997928-.010009766 .11199951-.011001587 .12298584-.011001587 .13999939-.011001587 .1539917-.007003784 .16699219 0 .17999268 .0069885256 .18998719 .015991211 .19898987 .024993897 .20799256 .033996583 .21499634 .041992189 .21998596 .050994874 .22499085 .05899048 .22698975 .06399536 .22799683 .06498718 .23399353 .04598999 .24598694 .0289917 .2639923 .0129852299 .28199769-.0030059815 .30599977-.011001587 .33599855-.011001587 .3619995-.011001587 .3849945-.0040130617 .40499879 .009994507 .42399598 .022994996 .44099427 .038986207 .45498658 .056991579 .46798707 .07398987 .47898866 .09199524 .48599244 .10899353 .49299623 .12599182 .49598695 .13699341 .49598695 .14299011 .49598695 .147995 .49398805 .15098572 .4909973 .1519928 .48799134 .15299988 .4850006 .15299988 .48399354 .15299988 .47898866 .15299988 .47599793 .1519928 .47499085 .1499939 .47399903 .147995 .47200013 .14498902 .47099305 .14199829 .46299745 .114990238 .45298768 .09399414 .44099427 .07699585 .42900086 .05999756 .4169922 .04598999 .4039917 .036987306 .3909912 .026992798 .3789978 .019989014 .36799623 .016998291 .35598756 .0129852299 .34599305 .010986328 .33799745 .010986328 .31900025 .010986328 .30499269 .017990113 .29599 .0309906 .2869873 .04399109 .2829895 .05999756 .2829895 .07699585 .2829895 .08799744 .2849884 .099990848 .28799439 .11299133 .29100038 .12599182 .29499818 .14299011 .2999878 .16499329L.33399964 .3019867Z" />

<path id="font_10_5" d="M.48599244 .3809967C.48799134 .3880005 .4889984 .3929901 .48999024 .3959961 .48999024 .397995 .48999024 .40098573 .48999024 .4039917 .48999024 .41299439 .4869995 .41999818 .48098756 .4249878 .47499085 .42900086 .46798707 .43099977 .46099855 .43099977 .45599366 .43099977 .44999696 .42900086 .44299317 .42599488 .43598939 .4229889 .43099977 .4169922 .42599488 .4099884 .4249878 .40699769 .4229889 .3999939 .41999818 .3880005 .4169922 .37599183 .4139862 .36499024 .4119873 .35598756 .40899659 .34298707 .40499879 .32899476 .4019928 .31599427 .39898683 .30299378 .394989 .2889862 .3919983 .27598573L.34700013 .09599304C.34599305 .09199524 .34199525 .084991458 .33699037 .07598877 .33099366 .066986087 .32299806 .056991579 .31399537 .04798889 .3039856 .037994386 .2919922 .0289917 .2789917 .021987915 .2659912 .01499939 .25099183 .010986328 .23399353 .010986328 .22099304 .010986328 .21099854 .01399231 .20298767 .018997193 .19499207 .023986817 .18899536 .02999878 .18399048 .037994386 .1789856 .04499817 .17599488 .053985597 .1749878 .06399536 .17298889 .07299805 .17199707 .08299255 .17199707 .09199524 .17199707 .114990238 .17599488 .14299011 .18499756 .1749878 .19299317 .20599365 .20599365 .24398804 .22299195 .28799439 .22698975 .2979889 .22999573 .30699159 .23298645 .31399537 .23599243 .32099916 .23799134 .32699586 .23899842 .33198548 .23999024 .33699037 .24099732 .34199525 .24198914 .34599305 .24299622 .34999085 .24299622 .35499574 .24299622 .3600006 .24299622 .3829956 .23599243 .4019928 .22099304 .41799928 .20599365 .43399049 .18598938 .44198609 .16099549 .44198609 .14498902 .44198609 .1309967 .43798829 .117996219 .43099977 .10499573 .42399598 .09399414 .4149933 .084991458 .4039917 .07499695 .3929901 .066986087 .38198854 .05999756 .36898805 .052993776 .35598756 .04699707 .34298707 .041992189 .33198548 .036987306 .32099916 .033996583 .31098939 .03199768 .30299378 .02999878 .2939911 .0289917 .2889862 .0289917 .28799439 .0289917 .2829895 .0309906 .27999879 .033996583 .2789917 .036987306 .27799989 .039993287 .27799989 .040985109 .27799989 .04598999 .27799989 .049987794 .2789917 .050994874 .2809906 .051986696 .2829895 .053985597 .28799439 .056991579 .29599 .069992069 .34298707 .085998538 .375 .10499573 .3929901 .12298584 .41099549 .14099121 .41999818 .1579895 .41999818 .1619873 .41999818 .16699219 .4189911 .17399597 .41600038 .17999268 .41299439 .18299866 .4039917 .18299866 .3880005 .18299866 .375 .18099976 .36299134 .1769867 .35099793 .17298889 .33799745 .16899109 .32699586 .1659851 .31799317 .1559906 .29100038 .14698792 .2679901 .13999939 .24699402 .1329956 .22599793 .1269989 .20799256 .12199402 .19099427 .116989139 .17399597 .11399841 .15899658 .11199951 .1459961 .10899353 .1329956 .10798645 .11999512 .10798645 .10798645 .10798645 .085998538 .11199951 .066986087 .11898804 .051986696 .12599182 .036987306 .13598633 .023986817 .14698792 .01499939 .1579895 .005996704 .17098999-.0010070801 .18598938-.005004883 .20098877-.009002686 .21499634-.011001587 .22999573-.011001587 .24899292-.011001587 .2679901-.007003784 .2849884 .0009918213 .3019867 .008987427 .31698609 .019989014 .33099366 .033996583 .32398988 .0079956059 .31698609-.018005372 .30899049-.043014528 .2999878-.06800842 .28599549-.09300232 .2659912-.120010379 .25299073-.13700867 .23699951-.15200806 .21899414-.16500855 .19999695-.17700196 .1789856-.18301392 .1559906-.18301392 .15299988-.18301392 .147995-.18301392 .14099121-.18200684 .13398743-.18101502 .12599182-.18000794 .11898804-.17700196 .11199951-.17401123 .10398865-.16900635 .09700012-.16400147 .08999634-.15901184 .083999637-.15100098 .07998657-.14100647 .08799744-.14100647 .09498596-.14100647 .101989749-.14001465 .10899353-.13900757 .115997318-.13500977 .12298584-.12901306 .12799073-.12400818 .1329956-.119003299 .13699341-.11201477 .14099121-.10501099 .14299011-.09701538 .14299011-.088012699 .14299011-.08000183 .14199829-.07400513 .13899231-.070007327 .13598633-.06500244 .13198853-.06201172 .12799073-.059005739 .12399292-.056015016 .11999512-.055007936 .115997318-.054000856 .11199951-.053009035 .10899353-.053009035 .10598755-.053009035 .099990848-.053009035 .09399414-.054000856 .08799744-.057006837 .08099365-.059005739 .07499695-.06300354 .069992069-.06800842 .06399536-.073013309 .05899048-.07901001 .055999757-.088012699 .051986696-.0960083 .049987794-.10600281 .049987794-.118011478 .049987794-.14300537 .05999756-.16400147 .07998657-.18101502 .09899902-.19700623 .125-.20500183 .1559906-.20500183 .18199158-.20500183 .20799256-.2000122 .23298645-.18901062 .2579956-.17800904 .2809906-.16400147 .3019867-.14601135 .32299806-.12701416 .34098817-.10600281 .35598756-.08100891 .37098695-.056015016 .3829956-.029006958 .3899994-.0010070801L.48599244 .3809967Z" />

<path id="font_11_1" d="M.46199037 .21798706C.47299195 .21798706 .48199464 .21899414 .4869995 .22200012 .49198915 .22399903 .49398805 .23199463 .49398805 .24499512 .49398805 .25299073 .49398805 .2630005 .49299623 .27598573 .49198915 .28799439 .4889984 .30099488 .4850006 .31498719 .48098756 .32899476 .47499085 .34298707 .46798707 .35798646 .46099855 .37298585 .45098878 .38598634 .43798829 .39898683 .40098573 .43499757 .34799195 .45298768 .2789917 .45298768 .23899842 .45298768 .20399475 .44699098 .17298889 .43499757 .14199829 .4229889 .116989139 .40699769 .09599304 .38598634 .07499695 .36499024 .05899048 .34098817 .04798889 .31399537 .036987306 .28599549 .03199768 .2559967 .03199768 .22499085 .03199768 .19198609 .037994386 .16099549 .049987794 .1329956 .06199646 .10398865 .07899475 .07998657 .101989749 .05899048 .125 .037994386 .1519928 .021987915 .18499756 .010986328 .21699524 0 .25299073-.006011963 .29299928-.006011963 .33198548-.006011963 .36499024 0 .3909912 .010986328 .4169922 .021987915 .43798829 .034988405 .45298768 .049987794 .46798707 .06399536 .47898866 .07798767 .4850006 .09098816 .4909973 .10398865 .49398805 .11299133 .49398805 .116989139 .49398805 .12599182 .4909973 .1309967 .48399354 .1329956 .47698976 .13398743 .47299195 .1349945 .46998597 .1349945 .46099855 .1349945 .45599366 .13398743 .45399476 .1309967 .45098878 .12799073 .44799806 .12199402 .44499208 .11399841 .43399049 .08999634 .41600038 .070999149 .3899994 .055999757 .3639984 .040985109 .33499146 .033996583 .3019867 .033996583 .2669983 .033996583 .23999024 .040985109 .22099304 .055999757 .20199585 .069992069 .18798828 .08699036 .1789856 .10699463 .16999817 .1269989 .1639862 .14698792 .16299439 .16799927 .16099549 .18899536 .1599884 .20498657 .1599884 .21798706H.46199037M.1599884 .25099183C.16099549 .269989 .16299439 .2899933 .16499329 .30999757 .16699219 .32998658 .17298889 .34799195 .18399048 .36499024 .19699097 .3849945 .21299744 .39898683 .23098755 .4059906 .24798584 .41299439 .2639923 .4169922 .2789917 .4169922 .30799867 .4169922 .33099366 .4099884 .34700013 .3959961 .36299134 .38198854 .375 .3659973 .3829956 .34700013 .3899994 .32798768 .394989 .30999757 .39698792 .2919922 .397995 .272995 .39898683 .2599945 .39898683 .25099183H.1599884Z" />

<path id="font_10_3" d="M.37399293 .60598757C.37599183 .61499026 .37799073 .621994 .3809967 .6279907 .3829956 .6339874 .3869934 .6389923 .3929901 .6429901 .39898683 .6459961 .4079895 .6489868 .4189911 .6499939 .42999269 .651001 .44499208 .6519928 .46499635 .6519928 .47698976 .6519928 .4850006 .6529999 .48999024 .6549988 .49499513 .6559906 .49699403 .6619873 .49699403 .67099 .49699403 .6769867 .49499513 .68099978 .4909973 .6819916 .4869995 .68299868 .48399354 .68299868 .48199464 .68299868 .47499085 .68299868 .46499635 .68299868 .45298768 .68299868 .44099427 .6819916 .42900086 .6819916 .41600038 .6819916 .40299989 .68099978 .3909912 .68099978 .3789978 .68099978 .36698915 .6799927 .35699464 .6799927 .34999085 .6799927 .34298707 .6799927 .33299256 .6799927 .32099916 .68099978 .30899049 .68099978 .29699708 .68099978 .28399659 .6819916 .2709961 .6819916 .2579956 .6819916 .24598694 .68299868 .23399353 .68299868 .22399903 .68299868 .21699524 .68299868 .21398926 .68299868 .20999146 .6819916 .20498657 .68099978 .19999695 .67900088 .19699097 .6729889 .19699097 .6629944 .19699097 .6579895 .19898987 .6549988 .20399475 .6539917 .20899964 .6529999 .21598816 .6519928 .22499085 .6519928 .24598694 .6519928 .2630005 .651001 .27598573 .6499939 .28799439 .647995 .2939911 .6419983 .2939911 .6329956 .2939911 .6299896 .2939911 .6279907 .2939911 .6259918 .2939911 .625 .29299928 .621994 .2919922 .61698916L.15699768 .07798767C.15499878 .068984989 .15299988 .06098938 .15098572 .054992677 .147995 .04899597 .14399719 .04399109 .13798523 .040985109 .13198853 .036987306 .12399292 .033996583 .11299133 .032989503 .101989749 .03199768 .085998538 .0309906 .06599426 .0309906 .054992677 .0309906 .04699707 .02999878 .041992189 .0289917 .036987306 .026992798 .033996583 .020996094 .033996583 .010986328 .033996583 .005996704 .035995485 .0029907227 .040985109 .0019989014 .04499817 .0009918213 .04798889 0 .04899597 0 .055999757 0 .06599426 0 .07798767 .0009918213 .08898926 .0009918213 .101989749 .0009918213 .114990238 .0019989014 .12799073 .0019989014 .13999939 .0019989014 .1519928 .0029907227 .16299439 .0029907227 .17298889 .0029907227 .17999268 .0029907227 .18699646 .0029907227 .19699097 .0029907227 .20899964 .0029907227 .22099304 .0019989014 .23399353 .0019989014 .24699402 .0019989014 .2599945 .0009918213 .27198792 .0009918213 .2849884 .0009918213 .29699708 0 .30699159 0 .31399537 0 .31799317 0 .32199098 .0009918213 .32699586 .0029907227 .33198548 .0039978029 .33399964 .009994507 .33399964 .018997193 .33399964 .024993897 .33198548 .0289917 .32798768 .02999878 .32299806 .0309906 .31498719 .0309906 .3039856 .0309906 .29499818 .0309906 .28799439 .0309906 .2829895 .0309906 .27799989 .0309906 .2709961 .03199768 .26098634 .032989503 .25 .033996583 .24398804 .035995485 .24099732 .038986207 .23799134 .040985109 .23599243 .04499817 .23599243 .049987794 .23599243 .053985597 .23599243 .057998659 .23699951 .06199646 .23799134 .06599426 .23899842 .069992069 .23999024 .07299805L.37399293 .60598757Z" />

<path id="font_10_7" d="M.73999026 .43598939C.73999026 .47599793 .73399356 .5130005 .72099307 .54599 .70799258 .57899478 .69099429 .60798647 .6689911 .6309967 .6459961 .6539917 .61898806 .6729889 .58799746 .6859894 .5569916 .69898989 .5219879 .7049866 .4850006 .7049866 .44898988 .7049866 .41299439 .69898989 .37799073 .68699648 .34199525 .6749878 .30799867 .6589966 .27598573 .6380005 .24398804 .61698916 .21398926 .59199526 .18598938 .5629883 .1579895 .5339966 .13398743 .5019989 .11399841 .46798707 .09399414 .43399049 .07798767 .397995 .066986087 .3600006 .054992677 .32199098 .04899597 .28399659 .04899597 .24499512 .04899597 .20399475 .055999757 .16699219 .068984989 .13398743 .08198547 .100997928 .099990848 .07299805 .12298584 .049987794 .1459961 .026992798 .17298889 .008987427 .20399475-.0040130617 .23498535-.01600647 .2689972-.022003174 .30499269-.022003174 .33999635-.022003174 .37599183-.01600647 .41099549-.005004883 .44599916 .0069885256 .47999574 .022994996 .5119934 .04399109 .5439911 .06498718 .57398989 .08898926 .60198977 .117996219 .6299896 .1459961 .6539917 .1769867 .6749878 .21099854 .69499209 .24499512 .71099856 .2809906 .72299197 .31900025 .73399356 .35699464 .73999026 .3959961 .73999026 .43598939M.31098939 .0029907227C.28599549 .0029907227 .2639923 .0079956059 .24299622 .017990113 .22200012 .026992798 .20498657 .040985109 .18998719 .05999756 .1749878 .07899475 .16299439 .100997928 .15499878 .1269989 .1459961 .15299988 .14199829 .18299866 .14199829 .21598816 .14199829 .22698975 .14299011 .24398804 .1459961 .2659912 .147995 .2889862 .1519928 .31498719 .15899658 .34298707 .16499329 .37098695 .17399597 .40098573 .18598938 .43299867 .19799805 .46398927 .21398926 .49398805 .23298645 .5239868 .25 .5499878 .2689972 .57299807 .2899933 .59199526 .30999757 .61099246 .33099366 .6279907 .35198976 .6409912 .37298585 .6539917 .394989 .6629944 .4169922 .66999819 .43798829 .6769867 .45899964 .6799927 .47898866 .6799927 .5 .6799927 .519989 .6759949 .54100039 .6689911 .5609894 .6619873 .57899478 .6499939 .59599307 .6339874 .6119995 .61698916 .625 .59599307 .6359863 .56999209 .6459961 .5439911 .651001 .5119934 .651001 .47499085 .651001 .45700074 .6489868 .43399049 .644989 .40699769 .6409912 .3789978 .6339874 .34999085 .625 .31799317 .6159973 .28599549 .6029968 .2539978 .58699038 .21998596 .56999209 .18598938 .5499878 .1539917 .5249939 .12298584 .5130005 .10798645 .49899293 .09298706 .48298646 .07899475 .46699525 .06399536 .44999696 .050994874 .43199159 .039993287 .41299439 .0289917 .3939972 .019989014 .37298585 .0129852299 .35198976 .005996704 .33198548 .0029907227 .31098939 .0029907227Z" />

<path id="font_10_9" d="M.08799744 .05899048C.08699036 .051986696 .084991458 .042999269 .08299255 .033996583 .07998657 .024993897 .07899475 .018997193 .07899475 .015991211 .07899475 .0069885256 .08198547 0 .08799744-.005004883 .09399414-.009002686 .100997928-.011001587 .10798645-.011001587 .11399841-.011001587 .12098694-.009002686 .1289978-.005004883 .13598633 0 .14199829 .0069885256 .14498902 .016998291 .14498902 .017990113 .1459961 .020996094 .147995 .025985718 .14898682 .0309906 .15098572 .037994386 .15299988 .04598999 .15499878 .052993776 .15699768 .06098938 .15899658 .069992069 .16099549 .07798767 .16299439 .084991458 .1639862 .09098816 .16699219 .10598755 .17098999 .12098694 .1749878 .13598633 .1789856 .15098572 .18299866 .1659851 .18598938 .18099976 .18899536 .19198609 .19198609 .20399475 .19499207 .21499634 .19799805 .22599793 .19999695 .23699951 .20298767 .24798584 .20498657 .25698854 .20799256 .2669983 .21099854 .27799989 .21398926 .2889862 .21499634 .29599 .21598816 .2979889 .21998596 .30599977 .22599793 .31698609 .23498535 .33099366 .24299622 .34399415 .2539978 .35798646 .2679901 .37098695 .2809906 .38398744 .29699708 .3959961 .31599427 .4059906 .33399964 .4149933 .35499574 .41999818 .3789978 .41999818 .3899994 .41999818 .3999939 .41799928 .40699769 .4139862 .4139862 .40899659 .4189911 .4039917 .4229889 .39698792 .4269867 .3899994 .42999269 .3829956 .43099977 .375 .43199159 .3659973 .43299867 .35798646 .43299867 .34999085 .43299867 .33699037 .43199159 .32398988 .42900086 .31098939 .42599488 .29699708 .42199708 .28199769 .41799928 .2669983 .4149933 .2539978 .4119873 .24299622 .4099884 .23399353 .4079895 .22399903 .4059906 .21499634 .4039917 .20698548 .4019928 .19799805 .3999939 .18998719 .397995 .18099976 .394989 .17199707 .3929901 .1619873 .3899994 .15098572 .3869934 .14199829 .3849945 .13398743 .38398744 .12799073 .3829956 .12199402 .3809967 .116989139 .37998963 .11199951 .3789978 .10699463 .3769989 .100997928 .37599183 .09599304 .37399293 .08999634 .37199403 .08299255 .36999513 .07499695 .36898805 .069992069 .36698915 .06399536 .3659973 .057998659 .36499024 .051986696 .36299134 .04598999 .3619995 .039993287 .36099244 .033996583 .3600006 .0289917 .35899354 .024993897 .35798646 .019989014 .35699464 .016998291 .35699464 .015991211 .35699464 .0069885256 .3600006 0 .3659973-.005004883 .37199403-.009002686 .3789978-.011001587 .38598634-.011001587 .40098573-.011001587 .4119873-.006011963 .4169922 .005996704 .42199708 .016998291 .4269867 .02999878 .43099977 .04598999 .43399049 .05999756 .43899537 .07899475 .44499208 .101989749 .45098878 .125 .45700074 .14898682 .46299745 .17298889 .46899415 .19699097 .47499085 .21998596 .47999574 .24099732 .4850006 .2619934 .4889984 .2769928 .4909973 .2869873 .49198915 .2899933 .49598695 .29899598 .5029907 .31399537 .5099945 .32798768 .519989 .34298707 .5339966 .35899354 .5469971 .37399293 .56399539 .3880005 .58499148 .40098573 .6049957 .4139862 .6289978 .41999818 .6559906 .41999818 .6769867 .41999818 .69200137 .41299439 .69898989 .39898683 .70599368 .38398744 .70999148 .36799623 .70999148 .34999085 .70999148 .33599855 .70799258 .31900025 .7029877 .29899598 .69799807 .27799989 .69299319 .2579956 .68699648 .23699951 .6799927 .21598816 .6729889 .19499207 .66600039 .17599488 .6589966 .1559906 .6529999 .13899231 .647995 .12599182 .6429901 .11399841 .6399994 .10398865 .6380005 .09700012 .6359863 .08999634 .6349945 .08099365 .6349945 .070999149 .6349945 .04798889 .6429901 .027999878 .6589966 .0129852299 .673996-.0030059815 .69400027-.011001587 .71699526-.011001587 .73999026-.011001587 .7599945-.0030059815 .7769928 .011993408 .7939911 .026992798 .8069916 .04399109 .81799319 .06298828 .8279877 .08198547 .83599856 .09899902 .84098818 .115997318 .84599307 .13198853 .84799197 .14099121 .84799197 .14299011 .84799197 .147995 .84599307 .15098572 .84298709 .1519928 .83999636 .15299988 .83699038 .15299988 .83599856 .15299988 .83099368 .15299988 .8279877 .1519928 .82699587 .1499939 .82598879 .14698792 .82398989 .14199829 .82099917 .1349945 .81700137 .12199402 .81199648 .10798645 .8069916 .09298706 .8009949 .07798767 .7939911 .06498718 .7849884 .052993776 .776001 .040985109 .7669983 .0309906 .7559967 .022994996 .7449951 .01499939 .73298647 .010986328 .71899417 .010986328 .7029877 .010986328 .69499209 .021987915 .69499209 .04399109 .69499209 .056991579 .69699099 .068984989 .70098879 .08099365 .70399478 .09199524 .70799258 .10398865 .71299746 .114990238 .71798709 .12799073 .723999 .14399719 .73098757 .16299439 .73799136 .18199158 .74398806 .20199585 .7509918 .22299195 .7569885 .24398804 .7619934 .2639923 .7669983 .28399659 .7719879 .3039856 .7739868 .32099916 .7739868 .33499146 .7739868 .36799623 .7639923 .3939972 .7449951 .41299439 .7259979 .43199159 .69699099 .44198609 .6589966 .44198609 .62098696 .44198609 .58898928 .43299867 .5629883 .4139862 .5369873 .394989 .5149994 .37199403 .49598695 .34498597 .49499513 .35198976 .49299623 .3619995 .48999024 .3769989 .4869995 .3909912 .47799684 .4039917 .46398927 .41600038 .45098878 .4269867 .43798829 .43399049 .4229889 .43699647 .4079895 .43998719 .394989 .44198609 .38198854 .44198609 .35899354 .44198609 .33898927 .43899537 .32199098 .43199159 .30499269 .4249878 .2899933 .41600038 .2769928 .40699769 .2639923 .397995 .25299073 .3880005 .24499512 .3789978 .23599243 .36898805 .22999573 .36099244 .22599793 .35499574 .22299195 .38398744 .21299744 .40499879 .19499207 .41999818 .1769867 .43499757 .15699768 .44198609 .13398743 .44198609 .12298584 .44198609 .11299133 .43998719 .10499573 .43598939 .09599304 .43099977 .08898926 .42599488 .08299255 .41999818 .07699585 .4139862 .07199097 .4079895 .068984989 .4019928 .06498718 .394989 .06199646 .3899994 .05999756 .3849945 .054992677 .37599183 .050994874 .36698915 .04798889 .35598756 .04399109 .34498597 .040985109 .33399964 .037994386 .32499696 .034988405 .31498719 .032989503 .30699159 .03199768 .2999878 .02999878 .29299928 .0289917 .2889862 .0289917 .28799439 .0289917 .2829895 .0309906 .27999879 .033996583 .2789917 .036987306 .27799989 .039993287 .27799989 .040985109 .27799989 .04598999 .27799989 .049987794 .2789917 .050994874 .2809906 .051986696 .2829895 .054992677 .2899933 .057998659 .30099488 .066986087 .33699037 .07699585 .3659973 .08799744 .3880005 .09899902 .40899659 .11299133 .41999818 .1309967 .41999818 .13899231 .41999818 .1459961 .4169922 .15299988 .4119873 .15899658 .4059906 .1619873 .3929901 .1619873 .37399293 .1619873 .36898805 .1619873 .3639984 .1619873 .3600006 .16099549 .35499574 .1599884 .34999085 .15899658 .34399415 .1579895 .33799745 .1559906 .33099366 .1539917 .32199098 .1519928 .31298829 .14898682 .30299378 .1459961 .2899933L.08799744 .05899048Z" />

<path id="font_10_10" d="M.73999026 .43598939C.73999026 .47599793 .73399356 .5130005 .72099307 .54599 .70799258 .57899478 .69099429 .60798647 .6689911 .6309967 .6459961 .6539917 .61898806 .6729889 .58799746 .6859894 .5569916 .69898989 .5219879 .7049866 .4850006 .7049866 .44898988 .7049866 .41299439 .69898989 .37799073 .68699648 .34199525 .6749878 .30799867 .6589966 .27598573 .6380005 .24398804 .61698916 .21398926 .59199526 .18598938 .5629883 .1579895 .5339966 .13398743 .5019989 .11399841 .46798707 .09399414 .43399049 .07798767 .397995 .066986087 .3600006 .054992677 .32199098 .04899597 .28399659 .04899597 .24499512 .04899597 .20399475 .055999757 .16699219 .068984989 .13398743 .08198547 .100997928 .099990848 .07299805 .12298584 .049987794 .1459961 .026992798 .17298889 .008987427 .20399475-.0040130617 .23498535-.01600647 .2689972-.022003174 .30499269-.022003174 .33999635-.022003174 .37599183-.01600647 .41099549-.005004883 .44599916 .0069885256 .47999574 .022994996 .5119934 .04399109 .5439911 .06498718 .57398989 .08898926 .60198977 .117996219 .6299896 .1459961 .6539917 .1769867 .6749878 .21099854 .69499209 .24499512 .71099856 .2809906 .72299197 .31900025 .73399356 .35699464 .73999026 .3959961 .73999026 .43598939M.30999757 .0029907227C.28399659 .0029907227 .2599945 .0079956059 .23899842 .017990113 .21798706 .026992798 .19898987 .040985109 .18399048 .05899048 .16799927 .07798767 .1559906 .099990848 .14698792 .12599182 .13798523 .1519928 .13398743 .18199158 .13398743 .21398926 .13398743 .22299195 .1349945 .23899842 .13798523 .2630005 .13999939 .2869873 .14498902 .31498719 .1539917 .34799195 .1619873 .37998963 .17399597 .4149933 .19099427 .45199586 .20698548 .4889984 .22898865 .5249939 .2579956 .55999758 .2709961 .57598879 .2849884 .59199526 .3019867 .60598757 .31900025 .62098696 .33699037 .6339874 .35598756 .644989 .375 .6559906 .3959961 .66600039 .4169922 .6729889 .43798829 .6799927 .45899964 .68299868 .47999574 .68299868 .5059967 .68299868 .5299988 .6779938 .5519867 .66799929 .57299807 .6569977 .59199526 .6429901 .6069946 .6239929 .621994 .60598757 .6339874 .58299258 .6429901 .5569916 .651001 .5309906 .6549988 .5019989 .6549988 .46998597 .6549988 .45999146 .6539917 .44299317 .6519928 .41999818 .6489868 .39698792 .6439972 .36999513 .6369934 .33898927 .6289978 .30899049 .6179962 .27598573 .60398867 .24099732 .58898928 .20599365 .56999209 .17199707 .54499819 .13999939 .5309906 .11999512 .5149994 .101989749 .49699403 .085998538 .47898866 .068984989 .45999146 .054992677 .43998719 .041992189 .4189911 .02999878 .397995 .020996094 .37599183 .01399231 .35398866 .0069885256 .33198548 .0029907227 .30999757 .0029907227M.5469971 .30599977C.54599 .30499269 .54499819 .30099488 .5439911 .29499818 .54299929 .2889862 .5419922 .2849884 .5419922 .28399659 .5419922 .27999879 .54299929 .2769928 .54599 .2749939 .5479889 .272995 .5509949 .27198792 .55400088 .27198792 .5589905 .27198792 .5629883 .27398683 .5649872 .2769928 .56599429 .27999879 .56799319 .28399659 .56900027 .29100038 .56999209 .2939911 .57199099 .3019867 .57499697 .31298829 .5779877 .32398988 .58099368 .33599855 .58399966 .34899903 .58699038 .36099244 .58898928 .37199403 .59199526 .3829956 .59498599 .3929901 .59599307 .39898683 .59599307 .3999939 .59599307 .4039917 .59498599 .40699769 .59298709 .40899659 .58999636 .41099549 .58699038 .4119873 .58399966 .4119873 .57899478 .4119873 .57499697 .41099549 .57398989 .4079895 .57299807 .40499879 .57199099 .4019928 .57099917 .39898683 .56999209 .3959961 .56799319 .3919983 .5669861 .3869934 .56599429 .38198854 .5649872 .3789978 .5649872 .37799073H.24299622C.24398804 .3789978 .24499512 .3829956 .24598694 .3889923 .24699402 .394989 .24798584 .39898683 .24798584 .3999939 .24798584 .4039917 .24699402 .40699769 .24499512 .40899659 .24198914 .41099549 .23899842 .4119873 .23599243 .4119873 .23098755 .4119873 .22698975 .41099549 .22599793 .4079895 .22399903 .40499879 .22200012 .3999939 .22099304 .3929901 .21998596 .3899994 .21899414 .38198854 .21598816 .37098695 .21299744 .3600006 .20999146 .34799195 .20698548 .33599855 .20399475 .32299806 .20098877 .31199647 .19799805 .3019867 .19499207 .29100038 .19400025 .2849884 .19400025 .28399659 .19400025 .27999879 .19499207 .2769928 .19799805 .2749939 .19999695 .272995 .20298767 .27198792 .20599365 .27198792 .21099854 .27198792 .21499634 .272995 .21598816 .27598573 .21699524 .2789917 .21798706 .28199769 .21899414 .2849884 .21998596 .28799439 .22200012 .2919922 .22299195 .29699708 .22399903 .3019867 .22499085 .30499269 .22499085 .30599977H.5469971Z" />

<path id="font_12_1" d="M.18299866 .016998291C.17999268-.005004883 .17599488-.026000977 .16899109-.045013429 .1619873-.06401062 .15299988-.08100891 .14399719-.09701538 .13398743-.11201477 .12298584-.12600708 .11199951-.13900757 .100997928-.15200806 .08898926-.16400147 .07699585-.17401123 .07299805-.17700196 .070999149-.18000794 .070999149-.18301392 .070999149-.19000244 .07499695-.1940155 .08198547-.1940155 .084991458-.1940155 .09399414-.18800354 .10699463-.17601013 .11999512-.16400147 .13398743-.14801026 .14898682-.12701416 .1639862-.10600281 .1769867-.08200073 .18899536-.055007936 .19999695-.027008057 .20599365 .0019989014 .20599365 .032989503 .20599365 .035995485 .20599365 .040985109 .20498657 .04899597 .20399475 .056991579 .20298767 .06498718 .19999695 .07398987 .19699097 .08299255 .19198609 .08999634 .18499756 .09700012 .17799378 .102996829 .16799927 .10598755 .15499878 .10598755 .13598633 .10598755 .12098694 .099990848 .10998535 .08699036 .09899902 .07398987 .09399414 .05999756 .09399414 .04499817 .09399414 .035995485 .09799194 .025985718 .10499573 .015991211 .11199951 .004989624 .12399292 0 .14099121 0 .1499939 0 .15899658 .0019989014 .16699219 .005996704 .17399597 .008987427 .17999268 .0129852299 .18299866 .016998291Z" />

<path id="font_10_8" d="M.644989 .69499209C.644989 .69599917 .6439972 .69799807 .6429901 .70098879 .6419983 .70399478 .6389923 .7049866 .6339874 .7049866 .6309967 .7049866 .6289978 .70399478 .6279907 .7029877 .6259918 .70199587 .621994 .69699099 .6159973 .6899872L.56799319 .6329956C.5549927 .6559906 .5359955 .673996 .5109863 .68699648 .48599244 .69898989 .45799256 .7049866 .4249878 .7049866 .3929901 .7049866 .3619995 .69799807 .33299256 .68499758 .30299378 .6719971 .2769928 .6539917 .2539978 .6319885 .23098755 .6100006 .21199036 .58499148 .19898987 .5569916 .18499756 .5279999 .17799378 .49899293 .17799378 .46899415 .17799378 .44898988 .18099976 .43099977 .18699646 .4149933 .19299317 .39898683 .20098877 .3849945 .21099854 .37399293 .22099304 .3619995 .23199463 .35198976 .24499512 .34498597 .25698854 .33699037 .2689972 .33099366 .28199769 .32699586L.3889923 .29899598C.397995 .29699708 .4079895 .2939911 .4189911 .29100038 .42999269 .2869873 .43998719 .2809906 .44898988 .27398683 .45799256 .2659912 .46598817 .2559967 .47200013 .24299622 .47799684 .22999573 .48098756 .21398926 .48098756 .19299317 .48098756 .16999817 .47599793 .147995 .46699525 .12599182 .45700074 .10398865 .44400025 .083999637 .42799378 .066986087 .41099549 .049987794 .3919983 .035995485 .37098695 .024993897 .34899903 .01399231 .32598878 .008987427 .30099488 .008987427 .2849884 .008987427 .2669983 .010986328 .24699402 .01499939 .22599793 .017990113 .20698548 .024993897 .18998719 .035995485 .17199707 .04598999 .15699768 .06098938 .14498902 .07998657 .13198853 .09899902 .12599182 .12399292 .12599182 .15499878 .12599182 .16699219 .1269989 .17799378 .1289978 .18899536 .12998963 .19898987 .1309967 .20599365 .13198853 .20899964 .1329956 .21099854 .1329956 .21199036 .13398743 .21299744 .13398743 .21398926 .13398743 .21499634 .13398743 .21598816 .13398743 .22099304 .1329956 .22499085 .12998963 .22599793 .1269989 .22698975 .125 .22698975 .12199402 .22698975 .117996219 .22698975 .114990238 .22599793 .11199951 .22299195 .11099243 .22200012 .10899353 .21598816 .10598755 .20498657 .102996829 .19299317 .09899902 .17799378 .09498596 .16099549 .08999634 .14399719 .085998538 .125 .08099365 .10499573 .07598877 .084991458 .070999149 .066986087 .066986087 .049987794 .06199646 .032989503 .05899048 .017990113 .055999757 .0069885256 .052993776-.005004883 .051986696-.011001587 .051986696-.012008667 .051986696-.019012452 .055999757-.022003174 .06298828-.022003174 .06599426-.022003174 .067993167-.021011353 .069992069-.020004273 .070999149-.019012452 .07499695-.014007568 .08099365-.007003784L.12998963 .049987794C.14099121 .034988405 .15299988 .022994996 .16699219 .01399231 .17999268 .004989624 .19400025-.0030059815 .20899964-.008010864 .22399903-.013000488 .23899842-.01701355 .2539978-.019012452 .2689972-.021011353 .28399659-.022003174 .29899598-.022003174 .33299256-.022003174 .36499024-.015014648 .3959961 .0009918213 .4269867 .015991211 .45399476 .034988405 .47698976 .05999756 .5 .084991458 .5189972 .11199951 .5329895 .14299011 .54599 .17298889 .5529938 .20399475 .5529938 .23498535 .5529938 .2519989 .5509949 .2679901 .5479889 .2809906 .5439911 .2939911 .5389862 .30499269 .5339966 .31399537 .5289917 .32299806 .522995 .33099366 .5179901 .33799745 .5130005 .34399415 .5079956 .34899903 .5039978 .35198976 .49798585 .35798646 .49198915 .36299134 .4869995 .36698915 .48199464 .36999513 .47499085 .37399293 .46598817 .3769989 .45700074 .37998963 .44499208 .38398744 .43099977 .3880005 .4169922 .3909912 .39898683 .3959961 .3769989 .4019928 .3659973 .40499879 .35299684 .40899659 .33898927 .41299439 .32398988 .41600038 .31498719 .4189911 .30999757 .41999818 .30299378 .42199708 .29599 .42599488 .2889862 .43099977 .28199769 .43598939 .2749939 .44198609 .2689972 .44898988 .2630005 .45599366 .2579956 .46499635 .25498963 .47599793 .25099183 .48599244 .24899292 .49798585 .24899292 .5109863 .24899292 .5309906 .2539978 .5509949 .2630005 .57099917 .27198792 .59098818 .2849884 .60899356 .30099488 .625 .31698609 .6399994 .33599855 .6529999 .35699464 .6629944 .37799073 .6719971 .3999939 .6769867 .42399598 .6769867 .44499208 .6769867 .46398927 .673996 .48199464 .6689911 .49899293 .6629944 .5139923 .6539917 .5269928 .6419983 .5399933 .6289978 .5499878 .61299136 .5569916 .59399417 .56399539 .57398989 .56799319 .5499878 .56799319 .5219879 .56799319 .5059967 .5669861 .49398805 .56599429 .4850006 .5649872 .47599793 .56399539 .46899415 .56399539 .46598817 .56399539 .46499635 .5649872 .46398927 .56599429 .46099855 .5669861 .45799256 .56999209 .45599366 .57598879 .45599366 .58099368 .45599366 .58499148 .45700074 .58599856 .45999146 .58699038 .46199037 .58898928 .46699525 .59098818 .47599793L.644989 .69499209Z" />

<path id="font_10_1" d="M.08799744 .05899048C.08699036 .051986696 .084991458 .042999269 .08299255 .033996583 .07998657 .024993897 .07899475 .018997193 .07899475 .015991211 .07899475 .0069885256 .08198547 0 .08799744-.005004883 .09399414-.009002686 .100997928-.011001587 .10798645-.011001587 .11399841-.011001587 .12098694-.009002686 .1289978-.005004883 .13598633 0 .14199829 .0069885256 .14498902 .016998291 .1459961 .017990113 .147995 .025985718 .1519928 .040985109 .15499878 .055999757 .15899658 .07199097 .1639862 .09098816 .16899109 .10899353 .17298889 .12599182 .1769867 .14299011 .18099976 .1599884 .18399048 .16999817 .18499756 .1749878 .18699646 .18299866 .18998719 .19299317 .19299317 .20498657 .19599915 .21699524 .19898987 .22898865 .20199585 .24198914 .20498657 .25498963 .20799256 .2669983 .21099854 .27799989 .21398926 .2889862 .21598816 .2979889 .21699524 .30499269 .21798706 .30799867 .21998596 .31399537 .22399903 .32099916 .22799683 .32798768 .23298645 .33499146 .23799134 .34298707 .24299622 .35099793 .24798584 .35899354 .25498963 .36698915 .26098634 .375 .2669983 .38198854 .272995 .3869934 .2749939 .3889923 .27799989 .3919983 .2829895 .3959961 .28799439 .39898683 .29299928 .40299989 .2999878 .40699769 .30699159 .4099884 .31498719 .41299439 .32398988 .41600038 .33299256 .4189911 .34199525 .41999818 .35299684 .41999818 .3659973 .41999818 .3769989 .41799928 .38398744 .4139862 .3909912 .4099884 .3939972 .4079895 .394989 .4079895 .37998963 .40499879 .36698915 .39898683 .35798646 .3889923 .34799195 .37799073 .34298707 .3659973 .34298707 .35299684 .34298707 .34498597 .34599305 .33699037 .35198976 .32998658 .35798646 .32199098 .36799623 .31799317 .3809967 .31799317 .3939972 .31799317 .40699769 .32299806 .4189911 .33399964 .42999269 .34498597 .43598939 .35899354 .43598939 .3769989 .43598939 .3939972 .42900086 .4099884 .4139862 .4229889 .39898683 .43598939 .37799073 .44198609 .35299684 .44198609 .33699037 .44198609 .32199098 .43899537 .30899049 .43399049 .29499818 .42900086 .2829895 .42199708 .27198792 .4139862 .26098634 .4059906 .2519989 .397995 .24398804 .3889923 .23599243 .37998963 .22999573 .37199403 .22499085 .36499024 .22099304 .3880005 .21099854 .4059906 .19400025 .42099 .1769867 .43499757 .15699768 .44198609 .13398743 .44198609 .12298584 .44198609 .11299133 .43998719 .10499573 .43598939 .09599304 .43099977 .08898926 .42599488 .08299255 .41999818 .07699585 .4139862 .07199097 .4079895 .068984989 .4019928 .06498718 .394989 .06199646 .3899994 .05999756 .3849945 .054992677 .37599183 .050994874 .36698915 .04798889 .35598756 .04399109 .34498597 .040985109 .33499146 .037994386 .32499696 .034988405 .31498719 .032989503 .30699159 .03199768 .2999878 .02999878 .29299928 .0289917 .2889862 .0289917 .28799439 .0289917 .2829895 .0309906 .27999879 .033996583 .2789917 .036987306 .27799989 .039993287 .27799989 .040985109 .27799989 .04598999 .27799989 .049987794 .2789917 .050994874 .2809906 .051986696 .2829895 .054992677 .2899933 .057998659 .30099488 .066986087 .33699037 .07699585 .3659973 .08799744 .3880005 .09899902 .40899659 .11299133 .41999818 .1309967 .41999818 .13999939 .41999818 .14698792 .4169922 .15299988 .4119873 .15899658 .4059906 .1619873 .3929901 .1619873 .37399293 .1619873 .36898805 .1619873 .3639984 .1619873 .3600006 .16099549 .35499574 .1599884 .34999085 .15899658 .34399415 .1579895 .33799745 .1559906 .33099366 .1539917 .32199098 .1519928 .31298829 .14898682 .30299378 .1459961 .2899933L.08799744 .05899048Z" />

<path id="font_10_6" d="M.9259949 .60598757C.9279938 .61499026 .9299927 .621994 .93299868 .6279907 .93499758 .6339874 .93899539 .6389923 .94400027 .6429901 .94898989 .6459961 .95700076 .6489868 .96798709 .6499939 .97898867 .651001 .9929962 .6519928 1.0119934 .6519928 1.022995 .6519928 1.0319977 .6529999 1.0369873 .6549988 1.0419922 .6559906 1.0439911 .6619873 1.0439911 .6719971 1.0439911 .6769867 1.0419922 .68099978 1.0369873 .6819916 1.0319977 .68299868 1.026001 .68299868 1.0169983 .68299868H.8849945C.8779907 .68299868 .8730011 .68299868 .8699951 .68299868 .8659973 .6819916 .86299136 .6819916 .8600006 .68099978 .8569946 .6799927 .8549957 .6779938 .8529968 .6749878 .8509979 .6719971 .848999 .6689911 .84599307 .6639862L.48098756 .09399414 .40299989 .6599884C.4019928 .67099 .39898683 .6779938 .3959961 .6799927 .3929901 .6819916 .3849945 .68299868 .37199403 .68299868H.23498535C.22599793 .68299868 .21798706 .6819916 .21299744 .68099978 .20799256 .67900088 .20498657 .6729889 .20498657 .6639862 .20498657 .6579895 .20698548 .6549988 .21199036 .6539917 .21699524 .6529999 .22399903 .6519928 .23399353 .6519928 .24099732 .6519928 .24798584 .6519928 .2559967 .6519928 .2639923 .651001 .2709961 .651001 .2769928 .6499939 .2849884 .6489868 .29100038 .6469879 .2939911 .644989 .29699708 .6429901 .29899598 .6389923 .29899598 .6339874 .29899598 .6319885 .29899598 .6299896 .2979889 .6279907 .29699708 .625 .29599 .62098696 .29499818 .61499026L.16799927 .10598755C.16499329 .09599304 .1619873 .08699036 .1579895 .07798767 .1539917 .068984989 .147995 .06199646 .14099121 .054992677 .1329956 .04798889 .12298584 .042999269 .10998535 .038986207 .09700012 .033996583 .07998657 .03199768 .05999756 .0309906 .056991579 .0309906 .053985597 .02999878 .04899597 .0289917 .04399109 .026992798 .041992189 .020996094 .041992189 .011993408 .041992189 .0039978029 .04699707 0 .055999757 0 .07199097 0 .08898926 .0009918213 .10598755 .0019989014 .12298584 .0029907227 .13899231 .0029907227 .1559906 .0029907227 .17298889 .0029907227 .19099427 .0029907227 .20799256 .0019989014 .22499085 .0009918213 .24198914 0 .25898744 0 .2619934 0 .2649994 .0009918213 .269989 .0029907227 .2749939 .0039978029 .2769928 .009994507 .2769928 .019989014 .2769928 .024993897 .2749939 .0289917 .2709961 .02999878 .2659912 .0309906 .2619934 .0309906 .25898744 .0309906 .22999573 .03199768 .21199036 .035995485 .20399475 .04499817 .19499207 .053985597 .19099427 .06399536 .19099427 .07499695 .19099427 .07998657 .19198609 .08799744 .19499207 .09799194L.33099366 .6429901H.33198548L.41799928 .022994996C.4189911 .016998291 .42099 .011993408 .42199708 .0069885256 .4229889 .0019989014 .4269867 0 .43299867 0 .43798829 0 .44299317 .0019989014 .44599916 .0069885256 .44898988 .010986328 .45199586 .01499939 .45498658 .017990113L.85899356 .651001H.8600006L.71699526 .07798767C.71398928 .067993167 .71199038 .05999756 .70999148 .053985597 .70700076 .04798889 .7029877 .042999269 .69799807 .039993287 .69200137 .036987306 .6839905 .033996583 .6729889 .032989503 .6619873 .03199768 .6459961 .0309906 .6259918 .0309906 .61698916 .0309906 .61099246 .02999878 .60598757 .0289917 .6009979 .026992798 .59799197 .020996094 .59799197 .011993408 .59799197 .005996704 .59999087 .0029907227 .6049957 .0019989014 .60899356 .0009918213 .6119995 0 .61299136 0 .6199951 0 .6289978 0 .6399994 .0009918213 .651001 .0009918213 .6629944 .0009918213 .6749878 .0019989014 .68699648 .0019989014 .69898989 .0019989014 .70999148 .0029907227 .72099307 .0029907227 .7299957 .0029907227 .7369995 .0029907227 .7579956 .0029907227 .7789917 .0029907227 .7999878 .0019989014 .82099917 .0009918213 .84098818 0 .8619995 0 .86499026 0 .86898806 .0009918213 .8739929 .0029907227 .8789978 .0039978029 .8809967 .009994507 .8809967 .019989014 .8809967 .024993897 .8789978 .0289917 .8739929 .02999878 .86898806 .0309906 .8619995 .0309906 .8529968 .0309906 .83399966 .0309906 .81900027 .03199768 .8069916 .032989503 .7939911 .033996583 .7879944 .039993287 .7879944 .04899597 .7879944 .050994874 .7879944 .052993776 .78900149 .055999757 .78900149 .057998659 .7899933 .06399536 .79299929 .07299805L.9259949 .60598757Z" />

</defs>
<g clip-path="url(#clip_9)">
<path transform="matrix(.1,0,0,-.1,379.091,694.29806)" stroke-width="11.3386" stroke-linecap="butt" stroke-miterlimit="22.9256" stroke-linejoin="miter" fill="none" stroke="#231f20" d="M345.277 1111.91 1097.1 1394.12 1223.96 1056.16 472.141 773.949 345.277 1111.91Z" />
<path transform="matrix(.1,0,0,-.1,379.091,694.29806)" stroke-width="5.6693" stroke-linecap="butt" stroke-miterlimit="22.9256" stroke-linejoin="miter" fill="none" stroke="#231f20" d="M57.5781 154.395V1412.08" />
<path transform="matrix(.1,0,0,-.1,379.091,694.29806)" d="M57.5781 1401.85C51.1602 1401.85 44.7461 1399.47 39.9766 1395.23L57.5781 1457.39 75.1797 1395.23C70.4141 1399.47 63.9922 1401.85 57.5781 1401.85" fill="#231f20" fill-rule="evenodd" />
<path transform="matrix(.1,0,0,-.1,379.091,694.29806)" d="M57.5742 166.625C64.332 166.625 69.8086 161.148 69.8086 154.395 69.8086 147.637 64.332 142.16 57.5742 142.16 50.8203 142.16 45.3477 147.637 45.3477 154.395 45.3477 161.148 50.8203 166.625 57.5742 166.625" fill="#231f20" fill-rule="evenodd" />
<path transform="matrix(.1,0,0,-.1,379.091,694.29806)" stroke-width="5.6693" stroke-linecap="butt" stroke-miterlimit="22.9256" stroke-linejoin="miter" fill="none" stroke="#231f20" d="M57.5742 166.625C64.332 166.625 69.8086 161.148 69.8086 154.395 69.8086 147.637 64.332 142.16 57.5742 142.16 50.8203 142.16 45.3477 147.637 45.3477 154.395 45.3477 161.148 50.8203 166.625 57.5742 166.625Z" />
<path transform="matrix(.1,0,0,-.1,379.091,694.29806)" stroke-width="5.6693" stroke-linecap="butt" stroke-miterlimit="22.9256" stroke-linejoin="miter" fill="none" stroke="#231f20" d="M57.5781 154.395H738.961" />
<path transform="matrix(.1,0,0,-.1,379.091,694.29806)" d="M728.727 154.395C728.73 160.813 726.348 167.227 722.105 171.992L784.27 154.395 722.105 136.793C726.348 141.559 728.727 147.977 728.727 154.395" fill="#231f20" fill-rule="evenodd" />
<path transform="matrix(.1,0,0,-.1,379.091,694.29806)" stroke-width="28.3465" stroke-linecap="butt" stroke-miterlimit="22.9256" stroke-linejoin="miter" fill="none" stroke="#ffffff" d="M175.133 304.598 775.828 1072.12" />
<path transform="matrix(.1,0,0,-.1,379.091,694.29806)" stroke-width="5.6693" stroke-linecap="butt" stroke-miterlimit="22.9256" stroke-linejoin="miter" fill="none" stroke="#231f20" d="M57.5781 154.395 747.73 1036.21" />
<path transform="matrix(.1,0,0,-.1,379.091,694.29806)" d="M741.418 1028.15C736.367 1032.11 729.848 1034.19 723.48 1033.79L775.652 1071.89 751.199 1012.09C750.059 1018.37 746.473 1024.2 741.418 1028.15" fill="#231f20" fill-rule="evenodd" />
<path transform="matrix(.1,0,0,-.1,379.091,694.29806)" stroke-width="5.6693" stroke-linecap="butt" stroke-miterlimit="22.9256" stroke-linejoin="miter" fill="none" stroke="#231f20" d="M829.031 154.395H1316.41" />
<path transform="matrix(.1,0,0,-.1,379.091,694.29806)" d="M1306.18 154.395C1306.18 160.813 1303.8 167.227 1299.55 171.992L1361.72 154.395 1299.55 136.793C1303.8 141.559 1306.18 147.977 1306.18 154.395" fill="#231f20" fill-rule="evenodd" />
<path transform="matrix(.1,0,0,-.1,379.091,694.29806)" stroke-width="28.3465" stroke-linecap="butt" stroke-miterlimit="22.9256" stroke-linejoin="miter" fill="none" stroke="#ffffff" d="M784.551 291.617V1068.1" />
<path transform="matrix(.1,0,0,-.1,379.091,694.29806)" stroke-width="5.6693" stroke-linecap="butt" stroke-miterlimit="22.9256" stroke-linejoin="miter" fill="none" stroke="#231f20" d="M784.551 154.395V1055.07" />
<path transform="matrix(.1,0,0,-.1,379.091,694.29806)" d="M784.551 1012.27C778.133 1012.27 771.719 1009.89 766.953 1005.65L784.551 1067.81 802.152 1005.65C797.387 1009.89 790.965 1012.27 784.551 1012.27" fill="#231f20" fill-rule="evenodd" />
<path transform="matrix(.1,0,0,-.1,379.091,694.29806)" stroke-width="42.5197" stroke-linecap="butt" stroke-miterlimit="22.9256" stroke-linejoin="miter" fill="none" stroke="#ffffff" d="M784.551 1083.18V1429.31" />
<path transform="matrix(.1,0,0,-.1,379.091,694.29806)" stroke-width="11.3386" stroke-linecap="butt" stroke-miterlimit="22.9256" stroke-linejoin="miter" fill="none" stroke="#231f20" d="M784.551 1083.18V1378.02" />
<path transform="matrix(.1,0,0,-.1,379.091,694.29806)" d="M784.551 1366.51C777.332 1366.51 770.113 1363.84 764.754 1359.07L784.551 1428.99 804.352 1359.07C798.988 1363.84 791.77 1366.51 784.551 1366.51" fill="#231f20" fill-rule="evenodd" />
<path transform="matrix(.1,0,0,-.1,379.091,694.29806)" stroke-width="5.6693" stroke-linecap="butt" stroke-miterlimit="22.9256" stroke-linejoin="miter" fill="none" stroke="#231f20" d="M1141.91 774.598H1292.22" />
<use data-text="'" xlink:href="#font_10_12" transform="matrix(11.9997,0,0,-11.9997,419.716,663.75588)" fill="#231f20" />
<use data-text="Ã" xlink:href="#font_10_11" transform="matrix(11.9997,0,0,-11.9997,499.0937,604.33517)" fill="#231f20" />
<use data-text="F" xlink:href="#font_10_2" transform="matrix(11.9997,0,0,-11.9997,478.4265,580.10159)" fill="#231f20" />
<use data-text="x" xlink:href="#font_10_4" transform="matrix(7.99952,0,0,-7.99952,485.34214,582.7414)" fill="#231f20" />
<use data-text="F" xlink:href="#font_10_2" transform="matrix(11.9997,0,0,-11.9997,443.4948,556.4535)" fill="#231f20" />
<use data-text="y" xlink:href="#font_10_5" transform="matrix(7.99952,0,0,-7.99952,450.41047,559.0933)" fill="#231f20" />
<use data-text="e" xlink:href="#font_11_1" transform="matrix(11.9997,0,0,-11.9997,503.41865,691.5153)" fill="#231f20" />
<use data-text="x" xlink:href="#font_10_4" transform="matrix(7.99952,0,0,-7.99952,509.7421,694.15518)" fill="#231f20" />
<use data-text="I" xlink:href="#font_10_3" transform="matrix(7.99952,0,0,-7.99952,511.11048,687.5153)" fill="#231f20" />
<use data-text="e" xlink:href="#font_11_1" transform="matrix(11.9997,0,0,-11.9997,388.00648,554.8463)" fill="#231f20" />
<use data-text="y" xlink:href="#font_10_5" transform="matrix(7.99952,0,0,-7.99952,394.3299,557.48617)" fill="#231f20" />
<use data-text="I" xlink:href="#font_10_3" transform="matrix(7.99952,0,0,-7.99952,395.04985,550.8463)" fill="#231f20" />
<use data-text="O" xlink:href="#font_10_7" transform="matrix(11.9997,0,0,-11.9997,379.18574,691.53237)" fill="#231f20" />
<use data-text="m" xlink:href="#font_10_9" transform="matrix(11.9997,0,0,-11.9997,410.09004,574.37637)" fill="#231f20" />
<use data-text="£" xlink:href="#font_10_10" transform="matrix(11.9997,0,0,-11.9997,423.9494,574.37637)" fill="#231f20" />
<use data-text="," xlink:href="#font_12_1" transform="matrix(11.9997,0,0,-11.9997,420.62553,574.37637)" fill="#231f20" />
<use data-text="S" xlink:href="#font_10_8" transform="matrix(11.9997,0,0,-11.9997,459.67283,582.8002)" fill="#231f20" />
<use data-text="x" xlink:href="#font_10_4" transform="matrix(11.9997,0,0,-11.9997,441.68144,676.76498)" fill="#231f20" />
<use data-text="y" xlink:href="#font_10_5" transform="matrix(11.9997,0,0,-11.9997,459.93183,633.07046)" fill="#231f20" />
<use data-text="r" xlink:href="#font_10_1" transform="matrix(11.9997,0,0,-11.9997,412.60023,635.3349)" fill="#231f20" />
<path transform="matrix(.1,0,0,-.1,379.091,694.29806)" stroke-width="11.3386" stroke-linecap="butt" stroke-miterlimit="22.9256" stroke-linejoin="miter" fill="none" stroke="#231f20" d="M784.48 1083.92H1058.95" />
<path transform="matrix(.1,0,0,-.1,379.091,694.29806)" d="M1047.43 1083.92C1047.43 1091.14 1044.75 1098.36 1039.99 1103.72L1109.91 1083.92 1039.99 1064.12C1044.75 1069.48 1047.43 1076.7 1047.43 1083.92" fill="#231f20" fill-rule="evenodd" />
<path transform="matrix(.1,0,0,-.1,379.091,694.29806)" stroke-width="5.6693" stroke-linecap="butt" stroke-miterlimit="22.9256" stroke-linejoin="miter" fill="none" stroke="#231f20" d="M1168.93 986.504C1189.55 918.348 1200.03 847.527 1200.03 776.324" />
<path transform="matrix(.1,0,0,-.1,379.091,694.29806)" d="M1171.9 976.707C1178.04 978.566 1184.88 978.145 1190.66 975.469L1155.82 1029.87 1156.97 965.273C1160.3 970.711 1165.76 974.848 1171.9 976.707" fill="#231f20" fill-rule="evenodd" />
<path transform="matrix(.1,0,0,-.1,379.091,694.29806)" stroke-width="11.3386" stroke-linecap="butt" stroke-miterlimit="22.9256" stroke-linejoin="miter" fill="none" stroke="#231f20" d="M649.379 1031.83C643.039 1048.45 639.785 1066.1 639.785 1083.89 639.785 1154.14 689.789 1214.44 758.824 1227.45" />
<path transform="matrix(.1,0,0,-.1,379.091,694.29806)" d="M645.281 1042.58C638.543 1040 630.852 1039.94 624.148 1042.48L667.523 984.258 661.109 1056.57C657.801 1050.21 652.016 1045.15 645.281 1042.58" fill="#231f20" fill-rule="evenodd" />
<use data-text="M" xlink:href="#font_10_6" transform="matrix(11.9997,0,0,-11.9997,427.5465,596.01406)" fill="#231f20" />
<path transform="matrix(.1,0,0,-.1,379.091,694.29806)" stroke-width="5.6693" stroke-linecap="butt" stroke-miterlimit="22.9256" stroke-linejoin="miter" fill="none" stroke="#231f20" d="M422.148 154.957C422.148 250.977 384.367 343.137 316.969 411.523" />
<path transform="matrix(.1,0,0,-.1,379.091,694.29806)" d="M324.152 404.234C319.582 399.73 316.684 393.531 316.266 387.164L285.164 443.793 341.336 411.875C334.965 411.547 328.723 408.738 324.152 404.234" fill="#231f20" fill-rule="evenodd" />
<path transform="matrix(.1,0,0,-.1,379.091,694.29806)" d="M778.641 1099.95C787.43 1103.25 797.23 1098.8 800.535 1090.01 803.832 1081.22 799.383 1071.42 790.594 1068.12 781.801 1064.82 772 1069.27 768.699 1078.06 765.402 1086.85 769.852 1096.66 778.641 1099.95" fill="#231f20" fill-rule="evenodd" />
</g>

</svg>