<svg xmlns="http://www.w3.org/2000/svg" xmlns:xlink="http://www.w3.org/1999/xlink" version="1.1" width="208.000" height="110.000" viewBox="322.787 88.821 208.000 110.000">
<defs>
<clipPath id="clip_2">
<path transform="matrix(1,0,0,-1,332.787,188.82105)" d="M0 0H188V90H0Z" />
</clipPath>

<path id="font_3_3" d="M.37298585 .37799073C.3639984 .39698792 .35198976 .4119873 .33699037 .42399598 .32199098 .43598939 .3039856 .44198609 .2809906 .44198609 .2519989 .44198609 .22299195 .43399049 .19400025 .4169922 .16499329 .3999939 .13999939 .3769989 .116989139 .34999085 .09399414 .32299806 .07499695 .2919922 .06098938 .25698854 .04699707 .22200012 .039993287 .18598938 .039993287 .14898682 .039993287 .12599182 .042999269 .10398865 .049987794 .084991458 .056991579 .06498718 .06599426 .04798889 .07798767 .033996583 .08898926 .019989014 .102996829 .008987427 .11999512 .0009918213 .13598633-.007003784 .1539917-.011001587 .17298889-.011001587 .17799378-.011001587 .18399048-.011001587 .19299317-.010009766 .20199585-.009002686 .21199036-.006011963 .22299195-.0010070801 .23399353 .004989624 .24699402 .011993408 .2599945 .021987915 .272995 .03199768 .28799439 .04598999 .30299378 .06399536 .30699159 .042999269 .31698609 .024993897 .33399964 .010986328 .34999085-.0040130617 .36999513-.011001587 .3939972-.011001587 .41099549-.011001587 .42599488-.006011963 .43798829 .004989624 .44999696 .01499939 .45999146 .027999878 .46798707 .04399109 .47200013 .052993776 .47599793 .06298828 .47999574 .07398987 .48298646 .084991458 .48599244 .09599304 .4889984 .10598755 .49198915 .115997318 .49398805 .125 .49598695 .13198853 .49699403 .13899231 .49798585 .14199829 .49798585 .14299011 .49798585 .147995 .49598695 .15098572 .49299623 .1519928 .48999024 .15299988 .4869995 .15299988 .48599244 .15299988 .48098756 .15299988 .47698976 .1519928 .47599793 .1499939 .47499085 .14698792 .47299195 .14199829 .47200013 .1349945 .46798707 .11898804 .46398927 .10398865 .45899964 .08898926 .45399476 .07398987 .44898988 .05999756 .44299317 .04899597 .43699647 .036987306 .42999269 .027999878 .4229889 .020996094 .4149933 .01399231 .4059906 .010986328 .3959961 .010986328 .3829956 .010986328 .37399293 .015991211 .37098695 .026992798 .36799623 .036987306 .3659973 .04699707 .3659973 .056991579 .3659973 .06199646 .3659973 .066986087 .36698915 .07199097 .36698915 .07598877 .36799623 .08099365 .36898805 .085998538 .36999513 .09098816 .37098695 .09700012 .37298585 .10398865 .37399293 .11099243 .37599183 .11999512 .3789978 .1309967 .38198854 .14199829 .38398744 .15098572 .38598634 .1579895 .3869934 .16499329 .3889923 .17098999 .3909912 .17799378 .3919983 .18399048 .3939972 .18998719 .3959961 .19699097 .39698792 .20399475 .39898683 .21199036 .40098573 .22099304 .40499879 .23699951 .40899659 .25099183 .4119873 .2619934 .4149933 .272995 .4169922 .28399659 .41999818 .2939911 .42199708 .3039856 .42399598 .31399537 .4269867 .32499696 .42999269 .33499146 .43299867 .34700013 .43699647 .36099244 .43998719 .375 .44198609 .38398744 .44299317 .3869934 .44400025 .3899994 .44400025 .3929901 .44400025 .394989 .44400025 .4039917 .44099427 .4099884 .43598939 .4149933 .43099977 .41999818 .42399598 .42199708 .4149933 .42199708 .40299989 .42199708 .3929901 .41799928 .38598634 .40899659 .3789978 .3999939 .37399293 .3889923 .37298585 .37799073M.30799867 .11898804C.30699159 .11399841 .30599977 .11099243 .30499269 .10798645 .3039856 .10499573 .30299378 .102996829 .3019867 .099990848 .30099488 .09700012 .29899598 .09498596 .29699708 .09199524 .29499818 .08898926 .2919922 .085998538 .28799439 .08198547 .2659912 .053985597 .24499512 .034988405 .22599793 .025985718 .20599365 .015991211 .18899536 .010986328 .1749878 .010986328 .1619873 .010986328 .1519928 .01399231 .14399719 .019989014 .13598633 .025985718 .12998963 .033996583 .125 .042999269 .11999512 .051986696 .115997318 .06298828 .11399841 .07398987 .11199951 .084991458 .11099243 .09498596 .11099243 .10499573 .11099243 .117996219 .11299133 .13398743 .116989139 .1539917 .11999512 .17399597 .125 .19499207 .12998963 .21598816 .1349945 .23699951 .14099121 .2579956 .147995 .27799989 .1539917 .29699708 .1599884 .31298829 .1659851 .32398988 .18099976 .35398866 .19999695 .37799073 .22099304 .394989 .24198914 .4119873 .2619934 .41999818 .28199769 .41999818 .2979889 .41999818 .31098939 .41600038 .32199098 .40699769 .33198548 .397995 .33999635 .3889923 .34599305 .37799073 .35198976 .36698915 .35598756 .35699464 .35798646 .34799195 .3600006 .33898927 .36099244 .33299256 .36099244 .33198548 .36099244 .32899476 .36099244 .32598878 .3600006 .32299806 .35899354 .31999208 .35899354 .31799317 .35798646 .31498719L.30799867 .11898804Z" />

<path id="font_3_4" d="M.33399964 .3019867C.33499146 .30899049 .33799745 .31900025 .34199525 .33198548 .34599305 .34498597 .35198976 .35798646 .3600006 .37098695 .36698915 .38398744 .3769989 .394989 .3889923 .40499879 .40098573 .4149933 .41600038 .41999818 .43299867 .41999818 .43598939 .41999818 .44198609 .41999818 .45199586 .4189911 .46199037 .41799928 .47200013 .4139862 .48298646 .40699769 .46899415 .4039917 .45799256 .397995 .44898988 .3869934 .43998719 .37599183 .43499757 .36499024 .43499757 .35299684 .43499757 .34498597 .43798829 .33699037 .44400025 .32998658 .44999696 .32199098 .45999146 .31799317 .47299195 .31799317 .47799684 .31799317 .48399354 .31900025 .4909973 .32199098 .49699403 .32398988 .5029907 .32699586 .5079956 .33198548 .5130005 .33699037 .5179901 .34298707 .5219879 .34999085 .5249939 .35699464 .5269928 .3659973 .5269928 .37599183 .5269928 .3889923 .5239868 .39898683 .5169983 .4079895 .5099945 .4169922 .5019989 .42399598 .49299623 .42900086 .48399354 .43399049 .47399903 .43699647 .46299745 .43899537 .45199586 .44099427 .44299317 .44198609 .43399049 .44198609 .4189911 .44198609 .4059906 .43899537 .394989 .43399049 .3829956 .42799378 .37298585 .42099 .3639984 .41299439 .35499574 .40499879 .34799195 .39698792 .34199525 .3880005 .33599855 .3789978 .33198548 .37199403 .32899476 .3659973 .32299806 .3829956 .31498719 .3959961 .30599977 .4059906 .29699708 .41600038 .2869873 .42399598 .2769928 .42900086 .2659912 .43399049 .2559967 .43798829 .24699402 .43998719 .23699951 .44099427 .22799683 .44198609 .22099304 .44198609 .19499207 .44198609 .17199707 .43499757 .1519928 .42199708 .13198853 .4079895 .114990238 .3919983 .101989749 .375 .08799744 .35699464 .07798767 .33999635 .070999149 .32299806 .06399536 .30599977 .05999756 .2939911 .05999756 .28799439 .05999756 .2829895 .06199646 .27999879 .06498718 .2789917 .067993167 .27799989 .070999149 .27799989 .07199097 .27799989 .07899475 .27799989 .083999637 .28199769 .084991458 .2889862 .09399414 .31599427 .10398865 .33799745 .115997318 .35499574 .1269989 .37199403 .13899231 .3849945 .1519928 .394989 .16499329 .4039917 .1769867 .41099549 .18899536 .4149933 .19999695 .41799928 .20999146 .41999818 .21899414 .41999818 .22399903 .41999818 .22898865 .4189911 .23599243 .41799928 .24198914 .41600038 .24798584 .41299439 .25299073 .4079895 .2579956 .40299989 .2630005 .39698792 .2669983 .3880005 .2709961 .3789978 .272995 .36799623 .272995 .35299684 .272995 .33799745 .2689972 .31199647 .2599945 .2749939 .25099183 .23799134 .23799134 .18499756 .21899414 .114990238 .21099854 .083999637 .19898987 .05899048 .18199158 .039993287 .16499329 .020996094 .1459961 .010986328 .12399292 .010986328 .12098694 .010986328 .11399841 .011993408 .10499573 .0129852299 .09498596 .01399231 .084991458 .016998291 .07398987 .023986817 .08699036 .026992798 .09799194 .032989503 .10699463 .042999269 .115997318 .051986696 .12098694 .06399536 .12098694 .07798767 .12098694 .09098816 .116989139 .100997928 .10798645 .10598755 .09899902 .11099243 .09098816 .11299133 .083999637 .11299133 .068984989 .11299133 .055999757 .10699463 .04499817 .09599304 .033996583 .084991458 .0289917 .070999149 .0289917 .054992677 .0289917 .04399109 .03199768 .033996583 .037994386 .025985718 .042999269 .016998291 .050994874 .009994507 .05999756 .004989624 .068984989 0 .07899475-.0040130617 .08999634-.007003784 .100997928-.010009766 .11199951-.011001587 .12298584-.011001587 .13999939-.011001587 .1539917-.007003784 .16699219 0 .17999268 .0069885256 .18998719 .015991211 .19898987 .024993897 .20799256 .033996583 .21499634 .041992189 .21998596 .050994874 .22499085 .05899048 .22698975 .06399536 .22799683 .06498718 .23399353 .04598999 .24598694 .0289917 .2639923 .0129852299 .28199769-.0030059815 .30599977-.011001587 .33599855-.011001587 .3619995-.011001587 .3849945-.0040130617 .40499879 .009994507 .42399598 .022994996 .44099427 .038986207 .45498658 .056991579 .46798707 .07398987 .47898866 .09199524 .48599244 .10899353 .49299623 .12599182 .49598695 .13699341 .49598695 .14299011 .49598695 .147995 .49398805 .15098572 .4909973 .1519928 .48799134 .15299988 .4850006 .15299988 .48399354 .15299988 .47898866 .15299988 .47599793 .1519928 .47499085 .1499939 .47399903 .147995 .47200013 .14498902 .47099305 .14199829 .46299745 .114990238 .45298768 .09399414 .44099427 .07699585 .42900086 .05999756 .4169922 .04598999 .4039917 .036987306 .3909912 .026992798 .3789978 .019989014 .36799623 .016998291 .35598756 .0129852299 .34599305 .010986328 .33799745 .010986328 .31900025 .010986328 .30499269 .017990113 .29599 .0309906 .2869873 .04399109 .2829895 .05999756 .2829895 .07699585 .2829895 .08799744 .2849884 .099990848 .28799439 .11299133 .29100038 .12599182 .29499818 .14299011 .2999878 .16499329L.33399964 .3019867Z" />

<path id="font_3_1" d="M.20599365 .3999939H.2999878C.30999757 .3999939 .31799317 .40098573 .32299806 .40299989 .32798768 .4039917 .32998658 .4099884 .32998658 .41999818 .32998658 .4249878 .32798768 .42900086 .32299806 .42999269 .31799317 .43099977 .31098939 .43099977 .3019867 .43099977H.21398926C.22299195 .46598817 .22999573 .49499513 .23599243 .5159912 .24099732 .5369873 .24499512 .55400088 .24798584 .56599429 .25099183 .5779877 .25299073 .58599856 .2539978 .59098818 .25498963 .59498599 .25498963 .59799197 .25498963 .598999 .25498963 .60798647 .2519989 .6139984 .24699402 .61898806 .24198914 .6239929 .23498535 .6259918 .22599793 .6259918 .22499085 .6259918 .22299195 .6259918 .21998596 .6259918 .21699524 .625 .21299744 .6239929 .20899964 .621994 .20399475 .61898806 .19999695 .6159973 .19599915 .61099246 .19099427 .60598757 .18798828 .598999 .18598938 .58999636L.14698792 .43099977H.052993776C.042999269 .43099977 .035995485 .42999269 .0309906 .42900086 .025985718 .4269867 .022994996 .42099 .022994996 .4119873 .022994996 .4059906 .024993897 .40299989 .02999878 .4019928 .033996583 .40098573 .040985109 .3999939 .050994874 .3999939H.13899231C.1269989 .35299684 .116989139 .31199647 .10899353 .2789917 .099990848 .24598694 .09298706 .21798706 .08799744 .19499207 .08198547 .17199707 .07699585 .1539917 .07398987 .14099121 .070999149 .1269989 .067993167 .115997318 .066986087 .10899353 .06498718 .100997928 .06399536 .09498596 .06399536 .09098816 .06298828 .08699036 .06298828 .083999637 .06298828 .08099365 .06298828 .053985597 .07199097 .03199768 .08898926 .01499939 .10598755-.0030059815 .12799073-.011001587 .15499878-.011001587 .17999268-.011001587 .20298767-.0030059815 .22299195 .011993408 .24198914 .026992798 .25898744 .04399109 .272995 .06298828 .28599549 .08198547 .29699708 .09899902 .3039856 .115997318 .31098939 .13198853 .31399537 .14099121 .31399537 .14299011 .31399537 .147995 .31298829 .15098572 .30999757 .1519928 .30699159 .15299988 .3039856 .15299988 .3019867 .15299988 .29699708 .15299988 .2939911 .1519928 .29299928 .1499939 .2919922 .147995 .2899933 .14399719 .2869873 .13899231 .27598573 .11299133 .2649994 .09199524 .2539978 .07499695 .24198914 .057998659 .22999573 .04499817 .21899414 .035995485 .20698548 .026992798 .19599915 .019989014 .18598938 .016998291 .1749878 .0129852299 .1659851 .010986328 .15699768 .010986328 .1459961 .010986328 .13899231 .01499939 .13398743 .021987915 .1289978 .0289917 .12599182 .039993287 .12599182 .056991579 .12599182 .068984989 .1269989 .07798767 .12799073 .083999637 .1289978 .08898926 .12998963 .09599304 .13198853 .10499573L.20599365 .3999939Z" />

<path id="font_4_1" d="M.45999146 .31999208C.45999146 .3600006 .45799256 .3999939 .45298768 .43899537 .44799806 .47799684 .43699647 .5169983 .41999818 .55400088 .40899659 .5779877 .394989 .5970001 .37998963 .6119995 .36499024 .6269989 .34899903 .6380005 .33399964 .6459961 .31799317 .6539917 .30299378 .6589966 .28799439 .6619873 .272995 .6649933 .26098634 .66600039 .25 .66600039 .23498535 .66600039 .21899414 .6639862 .20298767 .6609955 .18699646 .6569977 .17098999 .651001 .1559906 .6419983 .14099121 .6329956 .12599182 .6199951 .11199951 .6049957 .09799194 .58999636 .085998538 .56999209 .07598877 .5469971 .05999756 .5119934 .049987794 .47599793 .04598999 .43798829 .040985109 .39898683 .038986207 .3600006 .038986207 .31999208 .038986207 .30099488 .039993287 .28199769 .040985109 .2619934 .041992189 .24099732 .04399109 .22099304 .04699707 .19999695 .049987794 .1789856 .053985597 .15899658 .05999756 .13798523 .06599426 .116989139 .07398987 .09799194 .083999637 .07899475 .09498596 .05899048 .10699463 .041992189 .12098694 .0289917 .1349945 .015991211 .1499939 .004989624 .16499329-.0020141602 .17999268-.009002686 .19400025-.015014648 .20899964-.018005372 .22399903-.021011353 .23699951-.022003174 .24899292-.022003174 .2619934-.022003174 .2769928-.020004273 .29299928-.01701355 .30799867-.014007568 .32398988-.008010864 .33999635 .0009918213 .35499574 .008987427 .36999513 .020996094 .3849945 .035995485 .39898683 .050994874 .4119873 .069992069 .4229889 .09399414 .43899537 .1289978 .44898988 .16499329 .45399476 .20298767 .45799256 .24099732 .45999146 .27999879 .45999146 .31999208M.24899292 0C.23899842 0 .22799683 .0019989014 .21699524 .005996704 .20599365 .008987427 .19499207 .015991211 .18399048 .024993897 .17298889 .033996583 .16299439 .04598999 .1539917 .06199646 .14498902 .07699585 .13798523 .09700012 .1329956 .12098694 .12998963 .13598633 .12799073 .1519928 .1269989 .17098999 .125 .18899536 .12399292 .20799256 .12298584 .22698975 .12199402 .24598694 .12199402 .2639923 .12199402 .28199769 .12199402 .30099488 .12199402 .31698609 .12199402 .33198548 .12199402 .3639984 .12199402 .3959961 .12298584 .42799378 .12399292 .45899964 .12599182 .4889984 .12998963 .5159912 .1349945 .54599 .14199829 .56999209 .15299988 .58699038 .1639862 .60398867 .1749878 .6159973 .18699646 .625 .19898987 .6329956 .21099854 .6380005 .22299195 .6409912 .23399353 .6429901 .24299622 .6439972 .24899292 .6439972 .25698854 .6439972 .2669983 .6429901 .2789917 .6399994 .2899933 .6369934 .3019867 .6309967 .31298829 .6230011 .32398988 .6139984 .33499146 .60198977 .34498597 .58699038 .35499574 .57199099 .3619995 .5519867 .36698915 .5269928 .37199403 .49899293 .375 .46798707 .37599183 .43299867 .3769989 .397995 .3769989 .3639984 .3769989 .33198548 .3769989 .2939911 .3769989 .2579956 .37599183 .22399903 .375 .18998719 .37098695 .15699768 .3659973 .125 .3619995 .100997928 .35598756 .08099365 .34799195 .06498718 .33898927 .04899597 .32998658 .035995485 .31900025 .026992798 .30799867 .016998291 .29599 .009994507 .28399659 .005996704 .27198792 .0019989014 .2599945 0 .24899292 0Z" />

<path id="font_5_1" d="M.72099307 .33399964C.72099307 .35499574 .71598818 .3659973 .70700076 .3659973 .70199587 .3659973 .69799807 .36299134 .69699099 .35699464 .69499209 .35099793 .69400027 .34498597 .69299319 .33999635 .69200137 .31399537 .68699648 .2919922 .6779938 .272995 .6689911 .2539978 .6579895 .23899842 .644989 .22599793 .6319885 .21299744 .61698916 .20399475 .60198977 .19799805 .58599856 .19198609 .56999209 .18899536 .5549927 .18899536 .5389862 .18899536 .5239868 .19099427 .5109863 .19599915 .49798585 .19999695 .48399354 .20599365 .47099305 .21499634 .45700074 .22399903 .44299317 .23399353 .42799378 .24699402 .41299439 .2599945 .3959961 .27398683 .3769989 .29100038 .34498597 .31999208 .31698609 .33999635 .29299928 .35099793 .2689972 .3619995 .24499512 .36698915 .22200012 .36698915 .19599915 .36698915 .17298889 .36099244 .1519928 .34899903 .1309967 .33699037 .11399841 .32099916 .099990848 .3019867 .085998538 .2829895 .07499695 .26098634 .067993167 .23799134 .05999756 .21398926 .055999757 .18998719 .055999757 .1659851 .055999757 .1539917 .057998659 .1459961 .06098938 .14099121 .06399536 .13598633 .066986087 .13398743 .069992069 .13398743 .07499695 .13398743 .07899475 .13798523 .08099365 .14498902 .08299255 .1519928 .083999637 .1559906 .083999637 .15699768 .084991458 .18598938 .09098816 .20999146 .100997928 .22999573 .10998535 .24899292 .12199402 .2649994 .1349945 .2769928 .147995 .2889862 .16299439 .2979889 .1789856 .30299378 .19400025 .30799867 .20899964 .31098939 .22200012 .31098939 .23799134 .31098939 .25299073 .30899049 .2659912 .30499269 .2789917 .2999878 .29299928 .2939911 .30699159 .2849884 .31999208 .27598573 .33499146 .2659912 .34999085 .25299073 .36499024 .23999024 .3809967 .22599793 .3999939 .20899964 .43199159 .17999268 .45999146 .16099549 .48399354 .1499939 .5079956 .13899231 .5319977 .1329956 .5549927 .1329956 .58099368 .1329956 .60398867 .13899231 .625 .15098572 .6459961 .16299439 .6629944 .1789856 .6769867 .19799805 .69099429 .21699524 .70199587 .23899842 .70999148 .2630005 .71699526 .28599549 .72099307 .30999757 .72099307 .33399964Z" />

<path id="font_3_2" d="M.46798707 .37199403C.46798707 .3849945 .46699525 .39698792 .46398927 .4059906 .46099855 .4149933 .45700074 .42199708 .45298768 .4269867 .44799806 .43199159 .44400025 .43598939 .43899537 .43899537 .43399049 .44099427 .42900086 .44198609 .42399598 .44198609 .41099549 .44198609 .3999939 .43699647 .3899994 .4269867 .37998963 .41600038 .375 .40499879 .375 .3939972 .375 .3869934 .37599183 .38198854 .3789978 .37799073 .38198854 .37399293 .38598634 .36898805 .3909912 .3639984 .4019928 .35398866 .4099884 .34199525 .41600038 .32899476 .42199708 .31599427 .4249878 .2999878 .4249878 .28199769 .4249878 .2749939 .4229889 .2630005 .41999818 .24699402 .4169922 .23098755 .4119873 .21299744 .40499879 .19299317 .397995 .17298889 .3899994 .1519928 .37998963 .1309967 .36999513 .10998535 .35798646 .08999634 .34498597 .07199097 .33198548 .053985597 .31698609 .038986207 .30099488 .027999878 .28399659 .016998291 .2659912 .010986328 .24699402 .010986328 .22200012 .010986328 .20298767 .018997193 .19099427 .034988405 .1789856 .050994874 .17298889 .07199097 .17298889 .09799194 .17298889 .12599182 .1789856 .1579895 .19099427 .19400025 .20199585 .22898865 .21598816 .2679901 .23098755 .30999757 .23399353 .31900025 .23699951 .32699586 .23999024 .33499146 .24198914 .34199525 .24299622 .35099793 .24299622 .3600006 .24299622 .3829956 .23599243 .4019928 .22099304 .41799928 .20599365 .43399049 .18598938 .44198609 .16099549 .44198609 .14498902 .44198609 .1309967 .43798829 .11898804 .43099977 .10598755 .42399598 .09498596 .4149933 .084991458 .4039917 .07499695 .3929901 .066986087 .38198854 .05999756 .36898805 .052993776 .35598756 .04699707 .34298707 .042999269 .33198548 .037994386 .32099916 .034988405 .31098939 .032989503 .30299378 .02999878 .2939911 .0289917 .2889862 .0289917 .28799439 .0289917 .2829895 .0309906 .27999879 .033996583 .2789917 .036987306 .27799989 .039993287 .27799989 .040985109 .27799989 .04598999 .27799989 .049987794 .2789917 .050994874 .2809906 .051986696 .2829895 .053985597 .28799439 .056991579 .29599 .06399536 .32099916 .07199097 .34199525 .08099365 .35798646 .08999634 .37399293 .09899902 .3869934 .10798645 .3959961 .116989139 .40499879 .125 .4119873 .13398743 .4149933 .14299011 .41799928 .15098572 .41999818 .1579895 .41999818 .1619873 .41999818 .16699219 .4189911 .17399597 .41600038 .17999268 .41299439 .18299866 .4039917 .18299866 .3880005 .18299866 .375 .18099976 .36299134 .1769867 .35099793 .17298889 .33799745 .16899109 .32699586 .1659851 .31799317 .15499878 .2889862 .1459961 .2639923 .13899231 .24299622 .13198853 .22200012 .12599182 .20399475 .12098694 .18899536 .115997318 .17298889 .11299133 .15899658 .11199951 .14698792 .10998535 .1349945 .10899353 .12399292 .10899353 .11299133 .10899353 .085998538 .11399841 .06399536 .12399292 .04798889 .1329956 .03199768 .14498902 .019989014 .15899658 .010986328 .17298889 .0019989014 .18798828-.0040130617 .20298767-.007003784 .21798706-.010009766 .23199463-.011001587 .24299622-.011001587 .2709961-.011001587 .29599-.0030059815 .31799317 .01399231 .33999635 .0309906 .35899354 .051986696 .37599183 .07699585 .3929901 .101989749 .40699769 .12998963 .4189911 .16099549 .42999269 .19198609 .43998719 .22099304 .44699098 .25 .45399476 .27799989 .45999146 .30299378 .46299745 .32598878 .46598817 .34799195 .46798707 .36299134 .46798707 .37199403Z" />

<path id="font_3_5" d="M.14099121 .22698975C.1579895 .21998596 .17298889 .21598816 .18798828 .21499634 .20199585 .21398926 .21499634 .21299744 .22698975 .21299744 .23399353 .21299744 .24198914 .21299744 .25099183 .21398926 .2599945 .21398926 .2679901 .21499634 .2769928 .21699524 .28599549 .21899414 .29299928 .22200012 .29899598 .22599793 .30499269 .22999573 .30799867 .23599243 .30799867 .24398804 .30799867 .2559967 .30099488 .2639923 .28599549 .2669983 .2709961 .269989 .2539978 .2709961 .23498535 .2709961 .22399903 .2709961 .21099854 .269989 .19499207 .2679901 .17799378 .2659912 .16099549 .26098634 .14199829 .2519989 .1309967 .2579956 .12098694 .2659912 .11399841 .27598573 .10598755 .2849884 .101989749 .29699708 .101989749 .30999757 .101989749 .32499696 .10798645 .33898927 .11898804 .35099793 .12998963 .36299134 .14399719 .37298585 .1619873 .38198854 .17999268 .3899994 .19999695 .3959961 .22299195 .40098573 .24499512 .40499879 .2669983 .40699769 .2899933 .40699769 .2979889 .40699769 .30999757 .4059906 .32699586 .4039917 .34399415 .40098573 .3619995 .3929901 .38198854 .3789978 .3869934 .375 .3909912 .37199403 .3939972 .37098695 .3959961 .36999513 .39898683 .36898805 .4019928 .36898805 .40899659 .36898805 .4149933 .37199403 .42099 .3769989 .42599488 .38198854 .42900086 .3889923 .42900086 .3959961 .42900086 .40098573 .42599488 .4059906 .4189911 .41299439 .4119873 .41999818 .4019928 .42599488 .3899994 .43199159 .37799073 .43798829 .3639984 .44299317 .34899903 .44699098 .33299256 .45098878 .31698609 .45298768 .2999878 .45298768 .2709961 .45298768 .24398804 .44898988 .21699524 .44198609 .18998719 .43399049 .1659851 .4229889 .14498902 .4099884 .12399292 .39698792 .10798645 .3809967 .09599304 .3639984 .08299255 .34700013 .07699585 .32899476 .07699585 .30999757 .07699585 .29899598 .07899475 .2899933 .08299255 .2809906 .085998538 .27198792 .09098816 .2649994 .09599304 .25898744 .100997928 .25299073 .10499573 .24798584 .10899353 .24499512 .11299133 .24198914 .115997318 .23999024 .116989139 .23899842 .08699036 .22200012 .06399536 .20199585 .04899597 .1769867 .033996583 .1519928 .025985718 .1269989 .025985718 .10398865 .025985718 .08799744 .02999878 .07199097 .036987306 .056991579 .04399109 .041992189 .053985597 .027999878 .067993167 .016998291 .08099365 .004989624 .09799194-.005004883 .11898804-.012008667 .13899231-.019012452 .1619873-.022003174 .18899536-.022003174 .22200012-.022003174 .25-.01701355 .27398683-.008010864 .2979889 .0009918213 .31799317 .011993408 .33299256 .023986817 .34799195 .035995485 .35899354 .04798889 .3659973 .05899048 .37298585 .069992069 .3769989 .07699585 .3769989 .08099365 .3769989 .08799744 .37298585 .09098816 .3659973 .09098816 .36299134 .09098816 .36099244 .08999634 .3600006 .08898926 .35899354 .08699036 .35699464 .084991458 .35598756 .083999637 .35299684 .07798767 .34799195 .07199097 .34298707 .06498718 .33699037 .057998659 .32798768 .050994874 .31698609 .04499817 .30599977 .038986207 .29100038 .033996583 .27198792 .02999878 .25299073 .025985718 .22799683 .023986817 .19799805 .023986817 .18299866 .023986817 .16699219 .024993897 .1499939 .027999878 .1329956 .02999878 .116989139 .033996583 .101989749 .040985109 .08699036 .04699707 .07499695 .055999757 .06599426 .066986087 .056991579 .07798767 .051986696 .09199524 .051986696 .10998535 .051986696 .1269989 .05899048 .14698792 .07398987 .16999817 .08799744 .19299317 .10998535 .21199036 .14099121 .22698975M.17399597 .23999024C.18499756 .24398804 .19599915 .24699402 .20698548 .24798584 .21699524 .24899292 .22599793 .24899292 .23498535 .24899292 .24099732 .24899292 .24598694 .24899292 .25 .24899292 .2539978 .24899292 .2579956 .24899292 .26098634 .24798584 .2639923 .24699402 .2679901 .24699402 .2709961 .24598694 .27398683 .24499512 .2769928 .24398804 .28199769 .24299622 .27799989 .24099732 .2749939 .23999024 .27198792 .23899842 .2689972 .23799134 .2659912 .23699951 .2630005 .23699951 .2599945 .23599243 .25498963 .23599243 .25 .23599243 .24398804 .23498535 .23599243 .23498535 .22698975 .23498535 .21598816 .23498535 .20599365 .23498535 .19898987 .23599243 .19198609 .23599243 .18299866 .23699951 .17399597 .23999024Z" />

<path id="font_4_2" d="M.2939911 .6399994C.2939911 .6519928 .29299928 .6589966 .29100038 .6619873 .2889862 .6649933 .28199769 .66600039 .2709961 .66600039 .2559967 .6499939 .23899842 .6380005 .22099304 .6289978 .20298767 .6199951 .18598938 .6139984 .16899109 .6100006 .1519928 .60598757 .13598633 .60398867 .12199402 .6029968 .10798645 .60198977 .09700012 .60198977 .08898926 .60198977V.57099917C.09399414 .57099917 .100997928 .57099917 .11099243 .57199099 .11999512 .57199099 .1309967 .57299807 .14299011 .57499697 .1539917 .57598879 .16699219 .57899478 .17999268 .58200076 .19299317 .58499148 .20698548 .58999636 .21998596 .5970001V.07899475C.21998596 .069992069 .21899414 .06199646 .21798706 .055999757 .21699524 .049987794 .21299744 .04499817 .20698548 .041992189 .20098877 .037994386 .19198609 .034988405 .17999268 .033996583 .16699219 .03199768 .1499939 .0309906 .1269989 .0309906H.09498596V0C.10398865 .0009918213 .114990238 .0009918213 .12998963 .0019989014 .14399719 .0019989014 .15899658 .0019989014 .17399597 .0029907227 .18899536 .0029907227 .20399475 .0029907227 .21899414 .0029907227 .23399353 .0029907227 .24699402 .0029907227 .25698854 .0029907227 .2669983 .0029907227 .2789917 .0029907227 .2939911 .0029907227 .30899049 .0029907227 .32499696 .0029907227 .33999635 .0029907227 .35499574 .0019989014 .36999513 .0019989014 .3849945 .0019989014 .39898683 .0009918213 .4099884 .0009918213 .4189911 0V.0309906H.3869934C.3639984 .0309906 .34700013 .03199768 .33499146 .033996583 .32199098 .034988405 .31298829 .037994386 .30699159 .041992189 .30099488 .04499817 .29699708 .049987794 .29599 .055999757 .29499818 .06199646 .2939911 .069992069 .2939911 .07899475V.6399994Z" />

</defs>
<g clip-path="url(#clip_2)">
<path transform="matrix(.1,0,0,-.1,332.787,188.82105)" stroke-width="5.6693" stroke-linecap="butt" stroke-miterlimit="2.6131" stroke-linejoin="miter" fill="none" stroke="#231f20" d="M347.5 347.684C655.145 392.777 1025.86 429.5 1431.66 437.98" />
<path transform="matrix(.1,0,0,-.1,332.787,188.82105)" stroke-width="5.6693" stroke-linecap="butt" stroke-miterlimit="2.6131" stroke-linejoin="miter" fill="none" stroke="#231f20" d="M351.254 348.199C752.23 348.199 1117.23 328.777 1432.32 301.867" />
<path transform="matrix(.1,0,0,-.1,332.787,188.82105)" stroke-width="11.3386" stroke-linecap="butt" stroke-miterlimit="2.6131" stroke-linejoin="miter" fill="none" stroke="#231f20" d="M350.359 348.566C638.414 426.113 1004.49 503.031 1427.14 540.168" />
<path transform="matrix(.1,0,0,-.1,332.787,188.82105)" stroke-width="5.6693" stroke-linecap="butt" stroke-miterlimit="2.6131" stroke-linejoin="miter" fill="none" stroke="#231f20" d="M346.715 347.922C607.855 488.133 982.504 656.223 1430.38 756.855" />
<path transform="matrix(.1,0,0,-.1,332.787,188.82105)" stroke-width="5.6693" stroke-linecap="butt" stroke-miterlimit="2.6131" stroke-linejoin="miter" fill="none" stroke="#231f20" d="M346.676 348.629C621.574 456.23 991.246 574.641 1429.09 640.273" />
<path transform="matrix(.1,0,0,-.1,332.787,188.82105)" stroke-width="5.6693" stroke-linecap="butt" stroke-miterlimit="2.6131" stroke-linejoin="miter" fill="none" stroke="#231f20" d="M174.035 1.70313V878.477" />
<path transform="matrix(.1,0,0,-.1,332.787,188.82105)" d="M174.035 835.672C167.617 835.676 161.203 833.293 156.434 829.055L174.035 891.219 191.637 829.055C186.871 833.293 180.449 835.672 174.035 835.672" fill="#231f20" fill-rule="evenodd" />
<use data-text="a" xlink:href="#font_3_3" transform="matrix(11.9997,0,0,-11.9997,340.0733,156.56365)" fill="#231f20" />
<path transform="matrix(.1,0,0,-.1,332.787,188.82105)" stroke-width="5.6693" stroke-linecap="butt" stroke-miterlimit="2.6131" stroke-linejoin="miter" fill="none" stroke="#231f20" d="M143.773 348.199H204.297" />
<use data-text="x" xlink:href="#font_3_4" transform="matrix(11.9997,0,0,-11.9997,339.72566,106.087848)" fill="#231f20" />
<use data-text="t" xlink:href="#font_3_1" transform="matrix(11.9997,0,0,-11.9997,364.99555,185.40116)" fill="#231f20" />
<use data-text="0" xlink:href="#font_4_1" transform="matrix(7.99952,0,0,-7.99952,369.32759,188.04099)" fill="#231f20" />
<path transform="matrix(.1,0,0,-.1,332.787,188.82105)" stroke-width="5.6693" stroke-linecap="butt" stroke-miterlimit="2.6131" stroke-linejoin="miter" fill="none" stroke="#231f20" d="M6.77344 156.809H1785.01" />
<path transform="matrix(.1,0,0,-.1,332.787,188.82105)" d="M1742.21 156.809C1742.21 163.227 1739.83 169.641 1735.59 174.41L1797.75 156.809 1735.59 139.207C1739.83 143.973 1742.21 150.395 1742.21 156.809" fill="#231f20" fill-rule="evenodd" />
<path transform="matrix(.1,0,0,-.1,332.787,188.82105)" stroke-width="5.6693" stroke-linecap="butt" stroke-miterlimit="2.6131" stroke-linejoin="miter" fill="none" stroke="#231f20" d="M346.262 187.07V126.547" />
<use data-text="t" xlink:href="#font_3_1" transform="matrix(11.9997,0,0,-11.9997,508.781,183.86635)" fill="#231f20" />
<path transform="matrix(.1,0,0,-.1,332.787,188.82105)" stroke-width="5.6693" stroke-linecap="butt" stroke-miterlimit="2.6131" stroke-linejoin="miter" fill="none" stroke="#231f20" d="M1630.62 497.426C1642.76 477.813 1653.03 453.535 1658.64 431.125" />
<path transform="matrix(.1,0,0,-.1,332.787,188.82105)" d="M1653.67 450.98C1659.89 452.535 1665.54 456.402 1669.14 461.672L1667.15 397.098 1634.99 453.129C1640.64 450.172 1647.44 449.422 1653.67 450.98" fill="#231f20" fill-rule="evenodd" />
<use data-text="»" xlink:href="#font_5_1" transform="matrix(11.9997,0,0,-11.9997,505.552,152.98584)" fill="#231f20" />
<use data-text="v" xlink:href="#font_3_2" transform="matrix(11.9997,0,0,-11.9997,514.87588,152.98584)" fill="#231f20" />
<path transform="matrix(.1,0,0,-.1,332.787,188.82105)" stroke-width="5.6693" stroke-linecap="butt" stroke-miterlimit="2.6131" stroke-linejoin="miter" fill="none" stroke="#231f20" d="M1429.98 372.258H1713.25" />
<path transform="matrix(.1,0,0,-.1,332.787,188.82105)" stroke-width="5.6693" stroke-linecap="butt" stroke-dasharray="56.693,28.3465" stroke-miterlimit="2.6131" stroke-linejoin="miter" fill="none" stroke="#231f20" d="M1430.13 845.844V126.547" />
<path transform="matrix(.1,0,0,-.1,332.787,188.82105)" stroke-width="5.6693" stroke-linecap="butt" stroke-miterlimit="2.6131" stroke-linejoin="miter" fill="none" stroke="#231f20" d="M1382.6 536.492 1481.44 546.25" />
<path transform="matrix(.1,0,0,-.1,332.787,188.82105)" stroke-width="5.6693" stroke-linecap="butt" stroke-miterlimit="2.6131" stroke-linejoin="miter" fill="none" stroke="#231f20" d="M1382.6 479.801 1481.44 489.555" />
<path transform="matrix(.1,0,0,-.1,332.787,188.82105)" stroke-width="5.6693" stroke-linecap="butt" stroke-miterlimit="2.6131" stroke-linejoin="miter" fill="none" stroke="#231f20" d="M1382.6 423.105 1481.44 432.863" />
<path transform="matrix(.1,0,0,-.1,332.787,188.82105)" stroke-width="5.6693" stroke-linecap="butt" stroke-miterlimit="2.6131" stroke-linejoin="miter" fill="none" stroke="#231f20" d="M1382.6 309.723 1481.44 319.477" />
<path transform="matrix(.1,0,0,-.1,332.787,188.82105)" stroke-width="5.6693" stroke-linecap="butt" stroke-miterlimit="2.6131" stroke-linejoin="miter" fill="none" stroke="#231f20" d="M1382.6 366.414 1481.44 376.172" />
<path transform="matrix(.1,0,0,-.1,332.787,188.82105)" stroke-width="5.6693" stroke-linecap="butt" stroke-miterlimit="2.6131" stroke-linejoin="miter" fill="none" stroke="#231f20" d="M1382.6 253.027 1481.44 262.785" />
<path transform="matrix(.1,0,0,-.1,332.787,188.82105)" stroke-width="5.6693" stroke-linecap="butt" stroke-miterlimit="2.6131" stroke-linejoin="miter" fill="none" stroke="#231f20" d="M1382.6 196.336 1481.44 206.094" />
<path transform="matrix(.1,0,0,-.1,332.787,188.82105)" stroke-width="5.6693" stroke-linecap="butt" stroke-miterlimit="2.6131" stroke-linejoin="miter" fill="none" stroke="#231f20" d="M1382.6 593.184 1481.44 602.941" />
<path transform="matrix(.1,0,0,-.1,332.787,188.82105)" stroke-width="5.6693" stroke-linecap="butt" stroke-miterlimit="2.6131" stroke-linejoin="miter" fill="none" stroke="#231f20" d="M1382.6 649.879 1481.44 659.637" />
<path transform="matrix(.1,0,0,-.1,332.787,188.82105)" stroke-width="5.6693" stroke-linecap="butt" stroke-miterlimit="2.6131" stroke-linejoin="miter" fill="none" stroke="#231f20" d="M1382.6 706.57 1481.44 716.328" />
<path transform="matrix(.1,0,0,-.1,332.787,188.82105)" stroke-width="5.6693" stroke-linecap="butt" stroke-miterlimit="2.6131" stroke-linejoin="miter" fill="none" stroke="#231f20" d="M1382.6 763.266 1481.44 773.02" />
<path transform="matrix(.1,0,0,-.1,332.787,188.82105)" stroke-width="5.6693" stroke-linecap="butt" stroke-miterlimit="2.6131" stroke-linejoin="miter" fill="none" stroke="#231f20" d="M1382.6 819.957 1481.44 829.715" />
<path transform="matrix(.1,0,0,-.1,332.787,188.82105)" stroke-width="5.6693" stroke-linecap="butt" stroke-miterlimit="2.6131" stroke-linejoin="miter" fill="none" stroke="#231f20" d="M609.039 287.316C653.203 346.938 786.809 517.934 823.434 612.961" />
<path transform="matrix(.1,0,0,-.1,332.787,188.82105)" d="M816.07 593.863C810.082 596.172 803.238 596.258 797.266 594.016L836.043 645.688 830.113 581.355C827.188 587.027 822.055 591.555 816.07 593.863" fill="#231f20" fill-rule="evenodd" />
<use data-text="&quot;" xlink:href="#font_3_5" transform="matrix(11.9997,0,0,-11.9997,404.2417,127.87064)" fill="#231f20" />
<use data-text="t" xlink:href="#font_3_1" transform="matrix(11.9997,0,0,-11.9997,472.6472,185.40114)" fill="#231f20" />
<use data-text="1" xlink:href="#font_4_2" transform="matrix(7.99952,0,0,-7.99952,476.97923,188.04099)" fill="#231f20" />
<path transform="matrix(.1,0,0,-.1,332.787,188.82105)" stroke-width="5.6693" stroke-linecap="butt" stroke-miterlimit="2.6131" stroke-linejoin="miter" fill="none" stroke="#231f20" d="M1382.59 366.418 1706.65 398.398" />
<path transform="matrix(.1,0,0,-.1,332.787,188.82105)" stroke-width="5.6693" stroke-linecap="butt" stroke-miterlimit="2.6131" stroke-linejoin="miter" fill="none" stroke="#231f20" d="M1664.23 333.078C1660.5 309.73 1652.1 285.453 1641.82 263.977" />
<path transform="matrix(.1,0,0,-.1,332.787,188.82105)" d="M1661 312.863C1667.34 311.855 1673.3 308.488 1677.34 303.551L1669.77 367.711 1642.57 309.109C1647.95 312.543 1654.66 313.879 1661 312.863" fill="#231f20" fill-rule="evenodd" />
<path transform="matrix(.1,0,0,-.1,332.787,188.82105)" d="M342.148 359.445C348.484 361.727 355.516 358.41 357.793 352.07 360.066 345.73 356.754 338.703 350.414 336.426 344.074 334.148 337.047 337.465 334.77 343.801 332.492 350.145 335.805 357.172 342.148 359.445" fill="#231f20" fill-rule="evenodd" />
<path transform="matrix(.1,0,0,-.1,332.787,188.82105)" stroke-width="5.6693" stroke-linecap="butt" stroke-miterlimit="2.6131" stroke-linejoin="miter" fill="none" stroke="#231f20" d="M342.148 359.445C348.484 361.727 355.516 358.41 357.793 352.07 360.066 345.73 356.754 338.703 350.414 336.426 344.074 334.148 337.047 337.465 334.77 343.801 332.492 350.145 335.805 357.172 342.148 359.445Z" />
</g>

</svg>