<svg xmlns="http://www.w3.org/2000/svg" xmlns:xlink="http://www.w3.org/1999/xlink" version="1.1" width="248.000" height="106.000" viewBox="283.102 331.326 248.000 106.000">
<defs>
<clipPath id="clip_12">
<path transform="matrix(1,0,0,-1,293.102,427.32603)" d="M0 0H228V86H0Z" />
</clipPath>

<path id="font_13_6" d="M.33399964 .3019867C.33499146 .30899049 .33799745 .31900025 .34199525 .33198548 .34599305 .34498597 .35198976 .35798646 .3600006 .37098695 .36698915 .38398744 .3769989 .394989 .3889923 .40499879 .40098573 .4149933 .41600038 .41999818 .43299867 .41999818 .43598939 .41999818 .44198609 .41999818 .45199586 .4189911 .46199037 .41799928 .47200013 .4139862 .48298646 .40699769 .46899415 .4039917 .45799256 .397995 .44898988 .3869934 .43998719 .37599183 .43499757 .36499024 .43499757 .35299684 .43499757 .34498597 .43798829 .33699037 .44400025 .32998658 .44999696 .32199098 .45999146 .31799317 .47299195 .31799317 .47799684 .31799317 .48399354 .31900025 .4909973 .32199098 .49699403 .32398988 .5029907 .32699586 .5079956 .33198548 .5130005 .33699037 .5179901 .34298707 .5219879 .34999085 .5249939 .35699464 .5269928 .3659973 .5269928 .37599183 .5269928 .3889923 .5239868 .39898683 .5169983 .4079895 .5099945 .4169922 .5019989 .42399598 .49299623 .42900086 .48399354 .43399049 .47399903 .43699647 .46299745 .43899537 .45199586 .44099427 .44299317 .44198609 .43399049 .44198609 .4189911 .44198609 .4059906 .43899537 .394989 .43399049 .3829956 .42799378 .37298585 .42099 .3639984 .41299439 .35499574 .40499879 .34799195 .39698792 .34199525 .3880005 .33599855 .3789978 .33198548 .37199403 .32899476 .3659973 .32299806 .3829956 .31498719 .3959961 .30599977 .4059906 .29699708 .41600038 .2869873 .42399598 .2769928 .42900086 .2659912 .43399049 .2559967 .43798829 .24699402 .43998719 .23699951 .44099427 .22799683 .44198609 .22099304 .44198609 .19499207 .44198609 .17199707 .43499757 .1519928 .42199708 .13198853 .4079895 .114990238 .3919983 .101989749 .375 .08799744 .35699464 .07798767 .33999635 .070999149 .32299806 .06399536 .30599977 .05999756 .2939911 .05999756 .28799439 .05999756 .2829895 .06199646 .27999879 .06498718 .2789917 .067993167 .27799989 .070999149 .27799989 .07199097 .27799989 .07899475 .27799989 .083999637 .28199769 .084991458 .2889862 .09399414 .31599427 .10398865 .33799745 .115997318 .35499574 .1269989 .37199403 .13899231 .3849945 .1519928 .394989 .16499329 .4039917 .1769867 .41099549 .18899536 .4149933 .19999695 .41799928 .20999146 .41999818 .21899414 .41999818 .22399903 .41999818 .22898865 .4189911 .23599243 .41799928 .24198914 .41600038 .24798584 .41299439 .25299073 .4079895 .2579956 .40299989 .2630005 .39698792 .2669983 .3880005 .2709961 .3789978 .272995 .36799623 .272995 .35299684 .272995 .33799745 .2689972 .31199647 .2599945 .2749939 .25099183 .23799134 .23799134 .18499756 .21899414 .114990238 .21099854 .083999637 .19898987 .05899048 .18199158 .039993287 .16499329 .020996094 .1459961 .010986328 .12399292 .010986328 .12098694 .010986328 .11399841 .011993408 .10499573 .0129852299 .09498596 .01399231 .084991458 .016998291 .07398987 .023986817 .08699036 .026992798 .09799194 .032989503 .10699463 .042999269 .115997318 .051986696 .12098694 .06399536 .12098694 .07798767 .12098694 .09098816 .116989139 .100997928 .10798645 .10598755 .09899902 .11099243 .09098816 .11299133 .083999637 .11299133 .068984989 .11299133 .055999757 .10699463 .04499817 .09599304 .033996583 .084991458 .0289917 .070999149 .0289917 .054992677 .0289917 .04399109 .03199768 .033996583 .037994386 .025985718 .042999269 .016998291 .050994874 .009994507 .05999756 .004989624 .068984989 0 .07899475-.0040130617 .08999634-.007003784 .100997928-.010009766 .11199951-.011001587 .12298584-.011001587 .13999939-.011001587 .1539917-.007003784 .16699219 0 .17999268 .0069885256 .18998719 .015991211 .19898987 .024993897 .20799256 .033996583 .21499634 .041992189 .21998596 .050994874 .22499085 .05899048 .22698975 .06399536 .22799683 .06498718 .23399353 .04598999 .24598694 .0289917 .2639923 .0129852299 .28199769-.0030059815 .30599977-.011001587 .33599855-.011001587 .3619995-.011001587 .3849945-.0040130617 .40499879 .009994507 .42399598 .022994996 .44099427 .038986207 .45498658 .056991579 .46798707 .07398987 .47898866 .09199524 .48599244 .10899353 .49299623 .12599182 .49598695 .13699341 .49598695 .14299011 .49598695 .147995 .49398805 .15098572 .4909973 .1519928 .48799134 .15299988 .4850006 .15299988 .48399354 .15299988 .47898866 .15299988 .47599793 .1519928 .47499085 .1499939 .47399903 .147995 .47200013 .14498902 .47099305 .14199829 .46299745 .114990238 .45298768 .09399414 .44099427 .07699585 .42900086 .05999756 .4169922 .04598999 .4039917 .036987306 .3909912 .026992798 .3789978 .019989014 .36799623 .016998291 .35598756 .0129852299 .34599305 .010986328 .33799745 .010986328 .31900025 .010986328 .30499269 .017990113 .29599 .0309906 .2869873 .04399109 .2829895 .05999756 .2829895 .07699585 .2829895 .08799744 .2849884 .099990848 .28799439 .11299133 .29100038 .12599182 .29499818 .14299011 .2999878 .16499329L.33399964 .3019867Z" />

<path id="font_13_5" d="M.46199037 .33898927C.46499635 .34999085 .46798707 .36299134 .47200013 .37799073 .47499085 .3919983 .47698976 .40098573 .47698976 .4039917 .47698976 .41299439 .47399903 .41999818 .46798707 .4249878 .46199037 .42900086 .45498658 .43099977 .44799806 .43099977 .44198609 .43099977 .43499757 .42900086 .42799378 .4249878 .41999818 .41999818 .4139862 .41299439 .41099549 .40299989 .4099884 .4019928 .40899659 .3959961 .4059906 .38598634 .40299989 .375 .3999939 .36299134 .39698792 .34799195 .3929901 .33299256 .3889923 .31599427 .38398744 .2979889 .3789978 .27999879 .375 .2630005 .37098695 .24699402 .36698915 .23098755 .3639984 .21699524 .36099244 .20399475 .35798646 .19099427 .35499574 .18299866 .35398866 .1789856 .35099793 .1639862 .34799195 .15098572 .34700013 .14199829 .34599305 .13198853 .34498597 .12199402 .34498597 .11299133 .34498597 .10798645 .34498597 .10398865 .34498597 .101989749 .34498597 .099990848 .34498597 .09799194 .34599305 .09498596 .33499146 .067993167 .32099916 .04798889 .30599977 .032989503 .29100038 .017990113 .272995 .010986328 .2539978 .010986328 .23399353 .010986328 .21899414 .01499939 .20799256 .022994996 .19699097 .0309906 .18899536 .039993287 .18399048 .050994874 .1789856 .06098938 .17599488 .070999149 .1749878 .08099365 .17399597 .09098816 .17399597 .09799194 .17399597 .101989749 .17399597 .10998535 .1749878 .11898804 .17599488 .1289978 .1769867 .13798523 .1789856 .1499939 .18299866 .16499329 .18598938 .17999268 .19099427 .19799805 .19799805 .21899414 .20498657 .23999024 .21398926 .2649994 .22599793 .29599 .23098755 .31098939 .23599243 .32299806 .23899842 .33198548 .24198914 .34098817 .24299622 .34999085 .24299622 .3600006 .24299622 .3829956 .23599243 .4019928 .22099304 .41799928 .20599365 .43399049 .18598938 .44198609 .16099549 .44198609 .14498902 .44198609 .1309967 .43798829 .117996219 .43099977 .10499573 .42399598 .09399414 .4149933 .084991458 .4039917 .07499695 .3929901 .066986087 .38198854 .05999756 .36898805 .052993776 .35598756 .04699707 .34298707 .041992189 .33198548 .036987306 .32099916 .033996583 .31098939 .03199768 .30299378 .02999878 .2939911 .0289917 .2889862 .0289917 .28799439 .0289917 .2829895 .0309906 .27999879 .033996583 .2789917 .036987306 .27799989 .039993287 .27799989 .040985109 .27799989 .04598999 .27799989 .049987794 .2789917 .050994874 .2809906 .051986696 .2829895 .053985597 .28799439 .056991579 .29599 .069992069 .34298707 .085998538 .375 .10499573 .3929901 .12298584 .41099549 .14099121 .41999818 .1579895 .41999818 .16299439 .41999818 .16799927 .4189911 .17399597 .41600038 .17999268 .41299439 .18299866 .40299989 .18299866 .3869934 .18299866 .37399293 .18099976 .3619995 .1769867 .34899903 .17199707 .33599855 .16799927 .32598878 .16499329 .31698609 .1539917 .28799439 .14498902 .2619934 .13798523 .24099732 .1309967 .21998596 .125 .20098877 .12098694 .18598938 .115997318 .17098999 .11299133 .15699768 .11199951 .1459961 .10998535 .1349945 .10899353 .12399292 .10899353 .114990238 .10899353 .09199524 .11299133 .07299805 .12098694 .056991579 .12799073 .040985109 .13899231 .027999878 .1519928 .017990113 .16499329 .0079956059 .17999268 .0009918213 .19699097-.0040130617 .21398926-.009002686 .23199463-.011001587 .25099183-.011001587 .25498963-.011001587 .26098634-.011001587 .2689972-.010009766 .27598573-.009002686 .2849884-.007003784 .29499818-.0030059815 .3039856 .0019989014 .31399537 .008987427 .32499696 .018997193 .33499146 .027999878 .34498597 .041992189 .35499574 .05899048 .3619995 .042999269 .37098695 .02999878 .38198854 .020996094 .3929901 .011993408 .4039917 .004989624 .41600038 0 .42799378-.005004883 .43998719-.008010864 .45199586-.009002686 .46299745-.010009766 .47299195-.011001587 .47999574-.011001587 .49899293-.011001587 .5159912-.007003784 .5309906 0 .54599 .0069885256 .5589905 .016998291 .57099917 .027999878 .58299258 .038986207 .59298709 .051986696 .60198977 .066986087 .61099246 .08198547 .6179962 .09700012 .625 .11199951 .6339874 .1309967 .6419983 .1539917 .6499939 .1789856 .6579895 .20399475 .6649933 .22799683 .67099 .25299073 .6769867 .27799989 .6819916 .30099488 .6859894 .32199098 .68899539 .34298707 .69099429 .3600006 .69099429 .37199403 .69099429 .39898683 .6859894 .41799928 .6759949 .42799378 .6649933 .43699647 .6559906 .44198609 .6469879 .44198609 .6339874 .44198609 .6230011 .43699647 .61299136 .4269867 .60198977 .41600038 .5970001 .40499879 .5970001 .3939972 .5970001 .3869934 .59799197 .38198854 .6009979 .3789978 .60398867 .375 .6069946 .37098695 .6119995 .36698915 .61698916 .3619995 .625 .35198976 .6339874 .33898927 .6429901 .32499696 .647995 .30599977 .647995 .28199769 .647995 .272995 .6459961 .26098634 .6429901 .24598694 .6399994 .23098755 .6349945 .21398926 .6299896 .19699097 .625 .17999268 .61898806 .1619873 .61299136 .14498902 .60598757 .1269989 .59999087 .11199951 .59298709 .09899902 .5799866 .07199097 .56399539 .050994874 .5469971 .034988405 .5289917 .018997193 .5079956 .010986328 .48298646 .010986328 .45999146 .010986328 .44198609 .017990113 .42900086 .032989503 .41600038 .04798889 .40899659 .068984989 .40899659 .09799194 .40899659 .11199951 .4099884 .12599182 .41299439 .13999939 .41600038 .15299988 .41799928 .1639862 .41999818 .17098999L.46199037 .33898927Z" />

<path id="font_14_2" d="M.33099366-.2400055C.33099366-.23901367 .32998658-.23701477 .32899476-.23500061 .32798768-.23200989 .32299806-.227005 .31399537-.21800232 .2829895-.18701172 .25698854-.15200806 .23699951-.11401367 .21598816-.07501221 .19999695-.036010744 .18899536 .005996704 .1769867 .04699707 .16899109 .08799744 .1639862 .12998963 .15899658 .17199707 .15699768 .21199036 .15699768 .25 .15699768 .29299928 .1599884 .33699037 .16499329 .37998963 .16999817 .4229889 .1789856 .46398927 .19198609 .5049896 .20399475 .54599 .21998596 .58399966 .24099732 .62098696 .2619934 .6579895 .2869873 .69200137 .31799317 .72299197 .32499696 .72898867 .32899476 .73298647 .32998658 .7350006 .33099366 .7369995 .33099366 .7389984 .33099366 .73999026 .33099366 .746994 .32798768 .75 .32099916 .75 .31799317 .75 .31098939 .74598696 .2999878 .73799136 .2889862 .72898867 .2749939 .71699526 .2599945 .69999697 .24499512 .68299868 .22799683 .6629944 .21099854 .6389923 .19299317 .61499026 .1769867 .58699038 .1619873 .5549927 .13699341 .5 .11999512 .44599916 .11199951 .3929901 .102996829 .33999635 .09899902 .2919922 .09899902 .25 .09899902 .23098755 .099990848 .20899964 .101989749 .18499756 .102996829 .1599884 .10699463 .1349945 .11199951 .10798645 .116989139 .08099365 .12298584 .052993776 .13198853 .023986817 .13999939-.006011963 .15098572-.03401184 .16499329-.06201172 .17999268-.09300232 .19599915-.120010379 .21299744-.14300537 .22999573-.16600037 .24699402-.18600464 .2619934-.20201111 .2769928-.21800232 .2899933-.23001099 .30099488-.23800659 .31199647-.2460022 .31799317-.25001527 .32099916-.25001527 .32798768-.25001527 .33099366-.24700928 .33099366-.2400055Z" />

<path id="font_14_3" d="M.2889862 .25C.2889862 .2689972 .28799439 .29100038 .2869873 .31599427 .2849884 .33999635 .28199769 .3659973 .2769928 .3929901 .27198792 .41999818 .2649994 .44799806 .25698854 .47698976 .24798584 .5059967 .23699951 .5339966 .22299195 .56199648 .20799256 .59298709 .19198609 .6199951 .1749878 .6429901 .1579895 .66600039 .14199829 .6859894 .1269989 .70199587 .11199951 .71798709 .09899902 .7299957 .08799744 .73799136 .07699585 .74598696 .069992069 .75 .066986087 .75 .05999756 .75 .056991579 .746994 .056991579 .73999026 .056991579 .7389984 .057998659 .7369995 .05999756 .7350006 .06098938 .7319946 .066986087 .7259979 .07598877 .71699526 .125 .6669922 .1639862 .6029968 .19099427 .5249939 .21798706 .44699098 .23098755 .35499574 .23098755 .25 .23098755 .20698548 .22898865 .16499329 .22399903 .12199402 .21899414 .07899475 .20999146 .036987306 .19699097-.0040130617 .18399048-.044006349 .16799927-.08300781 .14698792-.120010379 .12599182-.15701294 .100997928-.19200135 .069992069-.2230072 .06298828-.2290039 .05999756-.23300171 .05899048-.23500061 .057998659-.23701477 .056991579-.23901367 .056991579-.2400055 .056991579-.24700928 .05999756-.25001527 .066986087-.25001527 .069992069-.25001527 .07699585-.2460022 .08799744-.23800659 .09899902-.2290039 .11299133-.2170105 .12799073-.2000122 .14299011-.18301392 .1599884-.16300965 .17799378-.13900757 .19499207-.11500549 .21099854-.087005618 .22599793-.055007936 .25099183 0 .2679901 .054992677 .2769928 .10798645 .2849884 .16099549 .2889862 .20799256 .2889862 .25Z" />

<path id="font_14_1" d="M.37998963 .054992677V-.011001587L.5269928 0V.0309906C.5099945 .0309906 .49598695 .03199768 .48599244 .032989503 .47499085 .033996583 .46699525 .036987306 .46199037 .040985109 .45700074 .04499817 .45298768 .050994874 .45199586 .057998659 .44999696 .06498718 .44898988 .07499695 .44898988 .08699036V.69400027L.30499269 .68299868V.6519928C.32199098 .6519928 .33599855 .651001 .34700013 .6499939 .35699464 .6489868 .36499024 .6459961 .36999513 .6419983 .375 .6380005 .3789978 .6319885 .3809967 .625 .38198854 .6179962 .3829956 .60798647 .3829956 .59599307V.37998963C.36799623 .397995 .35099793 .41299439 .32998658 .4249878 .30899049 .43598939 .28399659 .44198609 .25698854 .44198609 .22799683 .44198609 .19999695 .43598939 .17298889 .4249878 .1459961 .41299439 .12199402 .39698792 .100997928 .3769989 .07998657 .35598756 .06399536 .33198548 .051986696 .30499269 .039993287 .2769928 .033996583 .24699402 .033996583 .21499634 .033996583 .18299866 .039993287 .15299988 .050994874 .12599182 .06199646 .09899902 .07798767 .07499695 .09700012 .054992677 .115997318 .033996583 .13899231 .017990113 .16499329 .0069885256 .18998719-.005004883 .21699524-.011001587 .24598694-.011001587 .27799989-.011001587 .30499269-.0040130617 .32798768 .009994507 .34999085 .023986817 .36698915 .038986207 .37998963 .054992677M.37998963 .32299806V.117996219C.37998963 .10899353 .37998963 .101989749 .3789978 .09899902 .37799073 .09599304 .37399293 .08999634 .36898805 .08099365 .35398866 .056991579 .33599855 .038986207 .31498719 .027999878 .2939911 .016998291 .27198792 .010986328 .25099183 .010986328 .22799683 .010986328 .20799256 .016998291 .19099427 .0289917 .17298889 .039993287 .1579895 .055999757 .1459961 .07499695 .1329956 .09599304 .125 .11898804 .12199402 .14498902 .11898804 .16999817 .116989139 .19299317 .116989139 .21398926 .116989139 .22299195 .116989139 .23399353 .117996219 .24598694 .11898804 .25698854 .11999512 .2689972 .12199402 .28199769 .12399292 .29499818 .1269989 .30699159 .1309967 .31999208 .1349945 .33299256 .14099121 .34498597 .147995 .35598756 .15899658 .37098695 .17298889 .38598634 .19198609 .3999939 .21099854 .41299439 .23399353 .41999818 .26098634 .41999818 .27799989 .41999818 .29699708 .41600038 .31698609 .40699769 .33599855 .397995 .35398866 .3829956 .36898805 .3600006 .37399293 .35099793 .37799073 .34498597 .3789978 .34199525 .37998963 .33898927 .37998963 .33198548 .37998963 .32299806Z" />

<path id="font_13_9" d="M.08799744 .05899048C.08699036 .051986696 .084991458 .042999269 .08299255 .033996583 .07998657 .024993897 .07899475 .018997193 .07899475 .015991211 .07899475 .0069885256 .08198547 0 .08799744-.005004883 .09399414-.009002686 .100997928-.011001587 .10798645-.011001587 .11399841-.011001587 .12098694-.009002686 .1289978-.005004883 .13598633 0 .14199829 .0069885256 .14498902 .016998291 .14498902 .017990113 .1459961 .020996094 .147995 .025985718 .14898682 .0309906 .15098572 .037994386 .15299988 .04598999 .15499878 .052993776 .15699768 .06098938 .15899658 .069992069 .16099549 .07798767 .16299439 .084991458 .1639862 .09098816 .16699219 .10598755 .17098999 .12098694 .1749878 .13598633 .1789856 .15098572 .18299866 .1659851 .18598938 .18099976 .18899536 .19198609 .19198609 .20399475 .19499207 .21499634 .19799805 .22599793 .19999695 .23699951 .20298767 .24798584 .20498657 .25698854 .20799256 .2669983 .21099854 .27799989 .21398926 .2889862 .21499634 .29599 .21598816 .2979889 .21998596 .30599977 .22599793 .31698609 .23498535 .33099366 .24299622 .34399415 .2539978 .35798646 .2679901 .37098695 .2809906 .38398744 .29699708 .3959961 .31599427 .4059906 .33399964 .4149933 .35499574 .41999818 .3789978 .41999818 .3899994 .41999818 .3999939 .41799928 .40699769 .4139862 .4139862 .40899659 .4189911 .4039917 .4229889 .39698792 .4269867 .3899994 .42999269 .3829956 .43099977 .375 .43199159 .3659973 .43299867 .35798646 .43299867 .34999085 .43299867 .33699037 .43199159 .32398988 .42900086 .31098939 .42599488 .29699708 .42199708 .28199769 .41799928 .2669983 .4149933 .2539978 .4119873 .24299622 .4099884 .23399353 .4079895 .22399903 .4059906 .21499634 .4039917 .20698548 .4019928 .19799805 .3999939 .18998719 .397995 .18099976 .394989 .17199707 .3929901 .1619873 .3899994 .15098572 .3869934 .14199829 .3849945 .13398743 .38398744 .12799073 .3829956 .12199402 .3809967 .116989139 .37998963 .11199951 .3789978 .10699463 .3769989 .100997928 .37599183 .09599304 .37399293 .08999634 .37199403 .08299255 .36999513 .07499695 .36898805 .069992069 .36698915 .06399536 .3659973 .057998659 .36499024 .051986696 .36299134 .04598999 .3619995 .039993287 .36099244 .033996583 .3600006 .0289917 .35899354 .024993897 .35798646 .019989014 .35699464 .016998291 .35699464 .015991211 .35699464 .0069885256 .3600006 0 .3659973-.005004883 .37199403-.009002686 .3789978-.011001587 .38598634-.011001587 .40098573-.011001587 .4119873-.006011963 .4169922 .005996704 .42199708 .016998291 .4269867 .02999878 .43099977 .04598999 .43399049 .05999756 .43899537 .07899475 .44499208 .101989749 .45098878 .125 .45700074 .14898682 .46299745 .17298889 .46899415 .19699097 .47499085 .21998596 .47999574 .24099732 .4850006 .2619934 .4889984 .2769928 .4909973 .2869873 .49198915 .2899933 .49598695 .29899598 .5029907 .31399537 .5099945 .32798768 .519989 .34298707 .5339966 .35899354 .5469971 .37399293 .56399539 .3880005 .58499148 .40098573 .6049957 .4139862 .6289978 .41999818 .6559906 .41999818 .6769867 .41999818 .69200137 .41299439 .69898989 .39898683 .70599368 .38398744 .70999148 .36799623 .70999148 .34999085 .70999148 .33599855 .70799258 .31900025 .7029877 .29899598 .69799807 .27799989 .69299319 .2579956 .68699648 .23699951 .6799927 .21598816 .6729889 .19499207 .66600039 .17599488 .6589966 .1559906 .6529999 .13899231 .647995 .12599182 .6429901 .11399841 .6399994 .10398865 .6380005 .09700012 .6359863 .08999634 .6349945 .08099365 .6349945 .070999149 .6349945 .04798889 .6429901 .027999878 .6589966 .0129852299 .673996-.0030059815 .69400027-.011001587 .71699526-.011001587 .73999026-.011001587 .7599945-.0030059815 .7769928 .011993408 .7939911 .026992798 .8069916 .04399109 .81799319 .06298828 .8279877 .08198547 .83599856 .09899902 .84098818 .115997318 .84599307 .13198853 .84799197 .14099121 .84799197 .14299011 .84799197 .147995 .84599307 .15098572 .84298709 .1519928 .83999636 .15299988 .83699038 .15299988 .83599856 .15299988 .83099368 .15299988 .8279877 .1519928 .82699587 .1499939 .82598879 .14698792 .82398989 .14199829 .82099917 .1349945 .81700137 .12199402 .81199648 .10798645 .8069916 .09298706 .8009949 .07798767 .7939911 .06498718 .7849884 .052993776 .776001 .040985109 .7669983 .0309906 .7559967 .022994996 .7449951 .01499939 .73298647 .010986328 .71899417 .010986328 .7029877 .010986328 .69499209 .021987915 .69499209 .04399109 .69499209 .056991579 .69699099 .068984989 .70098879 .08099365 .70399478 .09199524 .70799258 .10398865 .71299746 .114990238 .71798709 .12799073 .723999 .14399719 .73098757 .16299439 .73799136 .18199158 .74398806 .20199585 .7509918 .22299195 .7569885 .24398804 .7619934 .2639923 .7669983 .28399659 .7719879 .3039856 .7739868 .32099916 .7739868 .33499146 .7739868 .36799623 .7639923 .3939972 .7449951 .41299439 .7259979 .43199159 .69699099 .44198609 .6589966 .44198609 .62098696 .44198609 .58898928 .43299867 .5629883 .4139862 .5369873 .394989 .5149994 .37199403 .49598695 .34498597 .49499513 .35198976 .49299623 .3619995 .48999024 .3769989 .4869995 .3909912 .47799684 .4039917 .46398927 .41600038 .45098878 .4269867 .43798829 .43399049 .4229889 .43699647 .4079895 .43998719 .394989 .44198609 .38198854 .44198609 .35899354 .44198609 .33898927 .43899537 .32199098 .43199159 .30499269 .4249878 .2899933 .41600038 .2769928 .40699769 .2639923 .397995 .25299073 .3880005 .24499512 .3789978 .23599243 .36898805 .22999573 .36099244 .22599793 .35499574 .22299195 .38398744 .21299744 .40499879 .19499207 .41999818 .1769867 .43499757 .15699768 .44198609 .13398743 .44198609 .12298584 .44198609 .11299133 .43998719 .10499573 .43598939 .09599304 .43099977 .08898926 .42599488 .08299255 .41999818 .07699585 .4139862 .07199097 .4079895 .068984989 .4019928 .06498718 .394989 .06199646 .3899994 .05999756 .3849945 .054992677 .37599183 .050994874 .36698915 .04798889 .35598756 .04399109 .34498597 .040985109 .33399964 .037994386 .32499696 .034988405 .31498719 .032989503 .30699159 .03199768 .2999878 .02999878 .29299928 .0289917 .2889862 .0289917 .28799439 .0289917 .2829895 .0309906 .27999879 .033996583 .2789917 .036987306 .27799989 .039993287 .27799989 .040985109 .27799989 .04598999 .27799989 .049987794 .2789917 .050994874 .2809906 .051986696 .2829895 .054992677 .2899933 .057998659 .30099488 .066986087 .33699037 .07699585 .3659973 .08799744 .3880005 .09899902 .40899659 .11299133 .41999818 .1309967 .41999818 .13899231 .41999818 .1459961 .4169922 .15299988 .4119873 .15899658 .4059906 .1619873 .3929901 .1619873 .37399293 .1619873 .36898805 .1619873 .3639984 .1619873 .3600006 .16099549 .35499574 .1599884 .34999085 .15899658 .34399415 .1579895 .33799745 .1559906 .33099366 .1539917 .32199098 .1519928 .31298829 .14898682 .30299378 .1459961 .2899933L.08799744 .05899048Z" />

<path id="font_13_3" d="M.70799258 .23298645C.70899966 .23599243 .71099856 .23799134 .71199038 .24099732 .71299746 .24398804 .71299746 .24598694 .71299746 .24699402 .71299746 .24798584 .71299746 .25 .71199038 .25299073 .71099856 .2559967 .70700076 .2579956 .70098879 .2579956 .69599917 .2579956 .69299319 .25698854 .69200137 .25498963 .69099429 .2519989 .68899539 .24899292 .6879883 .24598694 .6719971 .20899964 .6569977 .1769867 .6419983 .1499939 .6269989 .12298584 .6100006 .099990848 .59098818 .08299255 .57199099 .06599426 .5479889 .052993776 .5209961 .04399109 .49299623 .034988405 .45799256 .0309906 .4149933 .0309906H.2689972C.2619934 .0309906 .25698854 .0309906 .25498963 .0309906 .25299073 .0309906 .25 .0309906 .24699402 .03199768 .24198914 .032989503 .23799134 .033996583 .23699951 .034988405 .23498535 .035995485 .23399353 .037994386 .23399353 .041992189 .23399353 .042999269 .23399353 .04499817 .23498535 .04798889 .23498535 .049987794 .23599243 .055999757 .23899842 .06498718L.30699159 .33799745H.4059906C.4269867 .33799745 .44400025 .33699037 .45498658 .33499146 .46598817 .33198548 .47499085 .32899476 .47999574 .32499696 .4850006 .31999208 .4889984 .31498719 .48999024 .30999757 .4909973 .3039856 .4909973 .2979889 .4909973 .2919922 .4909973 .2889862 .4909973 .28399659 .48999024 .2769928 .4889984 .269989 .4869995 .2579956 .48399354 .24299622 .48199464 .23799134 .48098756 .23399353 .48098756 .23199463 .48098756 .22898865 .48199464 .22698975 .48399354 .22499085 .48599244 .22200012 .4889984 .22099304 .49398805 .22099304 .5009918 .22099304 .5059967 .22799683 .5089874 .24099732L.56599429 .47499085C.56599429 .48199464 .56199648 .48599244 .55400088 .48599244 .548996 .48599244 .54599 .4850006 .54499819 .48199464 .54299929 .47898866 .54100039 .47399903 .5399933 .46798707 .5349884 .44898988 .5289917 .43299867 .5239868 .41999818 .5179901 .40699769 .5099945 .39698792 .5009918 .3899994 .49198915 .3829956 .47999574 .3769989 .46499635 .37399293 .44999696 .37098695 .43199159 .36898805 .40899659 .36898805H.31498719L.375 .6100006C.3769989 .61898806 .3789978 .6259918 .3809967 .6309967 .3829956 .6359863 .38598634 .6399994 .3889923 .6429901 .3919983 .6459961 .39698792 .6469879 .40299989 .647995 .40899659 .6489868 .41799928 .6489868 .42900086 .6489868H.56999209C.6009979 .6489868 .6259918 .6469879 .6459961 .6429901 .6649933 .6389923 .68099978 .6329956 .69200137 .6239929 .7029877 .61499026 .71099856 .60398867 .71598818 .58999636 .7200012 .57598879 .7220001 .5589905 .7220001 .5379944 .7220001 .5319977 .7220001 .5269928 .7220001 .522995 .7220001 .519989 .7220001 .5159912 .7220001 .5130005 .72099307 .5089874 .72099307 .5049896 .7200012 .5009918 .71899417 .49699403 .71899417 .49198915 .71798709 .4850006 .71798709 .48199464 .71798709 .47898866 .71798709 .47599793 .71699526 .47299195 .71699526 .46998597 .71699526 .46699525 .71699526 .46398927 .71798709 .46199037 .7200012 .45899964 .72099307 .45599366 .723999 .45498658 .72898867 .45498658 .73399356 .45498658 .73799136 .45700074 .7389984 .46099855 .73999026 .46398927 .74198916 .47099305 .7429962 .47999574L.7630005 .6529999C.7639923 .66600039 .7630005 .673996 .7599945 .6769867 .7569885 .67900088 .7489929 .6799927 .73599246 .6799927H.23098755C.22099304 .6799927 .21398926 .67900088 .20899964 .6779938 .20399475 .6759949 .20098877 .66999819 .20098877 .6599884 .20098877 .6549988 .20298767 .6519928 .20799256 .651001 .21299744 .6499939 .21998596 .6489868 .22898865 .6489868 .24798584 .6489868 .2630005 .647995 .27598573 .6469879 .28799439 .6459961 .2939911 .6399994 .2939911 .6309967 .2939911 .6289978 .2939911 .6269989 .2939911 .625 .29299928 .621994 .2919922 .6159973 .2889862 .6069946L.15699768 .07798767C.1539917 .067993167 .1519928 .05999756 .1499939 .053985597 .14698792 .04798889 .14299011 .042999269 .13798523 .039993287 .13198853 .036987306 .12399292 .033996583 .11299133 .032989503 .101989749 .03199768 .085998538 .0309906 .06599426 .0309906 .056991579 .0309906 .050994874 .02999878 .04598999 .0289917 .040985109 .026992798 .037994386 .020996094 .037994386 .011993408 .037994386 .005996704 .039993287 .0029907227 .04499817 .0019989014 .049987794 .0009918213 .056991579 0 .06599426 0H.58499148C.59599307 0 .60398867 .0009918213 .6069946 .0029907227 .6100006 .0039978029 .61299136 .008987427 .6159973 .016998291L.70799258 .23298645Z" />

<path id="font_13_10" d="M.20298767 .0009918213C.20298767 .033996583 .19699097 .05999756 .18598938 .07899475 .17399597 .09700012 .1579895 .10598755 .13899231 .10598755 .12199402 .10598755 .10899353 .100997928 .099990848 .08999634 .09098816 .07899475 .085998538 .066986087 .085998538 .052993776 .085998538 .039993287 .09098816 .027999878 .099990848 .016998291 .10899353 .005996704 .12199402 0 .13899231 0 .14498902 0 .15098572 .0009918213 .15699768 .0029907227 .16299439 .004989624 .16899109 .0079956059 .17399597 .0129852299 .1769867 .01499939 .17799378 .015991211 .1789856 .015991211 .17999268 .015991211 .17999268 .01499939 .18099976 .01399231 .18099976 .0129852299 .18099976 .0079956059 .18099976 .0009918213 .18099976-.036010744 .17399597-.069000247 .1599884-.0980072 .14498902-.12701416 .12998963-.14900208 .11299133-.16600037 .10798645-.17100525 .10499573-.17500305 .10398865-.17700196 .102996829-.17900086 .101989749-.18101502 .101989749-.18200684 .101989749-.18901062 .10499573-.19300843 .11199951-.19300843 .114990238-.19300843 .12098694-.18800354 .1309967-.17900086 .14099121-.17001343 .15098572-.15701294 .1619873-.14001465 .17298889-.1230011 .18199158-.102005008 .19099427-.07901001 .19898987-.055007936 .20298767-.028015137 .20298767 .0009918213Z" />

<path id="font_13_4" d="M.37399293 .60598757C.37599183 .61499026 .37799073 .621994 .3809967 .6279907 .3829956 .6339874 .3869934 .6389923 .3929901 .6429901 .39898683 .6459961 .4079895 .6489868 .4189911 .6499939 .42999269 .651001 .44499208 .6519928 .46499635 .6519928 .47698976 .6519928 .4850006 .6529999 .48999024 .6549988 .49499513 .6559906 .49699403 .6619873 .49699403 .67099 .49699403 .6769867 .49499513 .68099978 .4909973 .6819916 .4869995 .68299868 .48399354 .68299868 .48199464 .68299868 .47499085 .68299868 .46499635 .68299868 .45298768 .68299868 .44099427 .6819916 .42900086 .6819916 .41600038 .6819916 .40299989 .68099978 .3909912 .68099978 .3789978 .68099978 .36698915 .6799927 .35699464 .6799927 .34999085 .6799927 .34298707 .6799927 .33299256 .6799927 .32099916 .68099978 .30899049 .68099978 .29699708 .68099978 .28399659 .6819916 .2709961 .6819916 .2579956 .6819916 .24598694 .68299868 .23399353 .68299868 .22399903 .68299868 .21699524 .68299868 .21398926 .68299868 .20999146 .6819916 .20498657 .68099978 .19999695 .67900088 .19699097 .6729889 .19699097 .6629944 .19699097 .6579895 .19898987 .6549988 .20399475 .6539917 .20899964 .6529999 .21598816 .6519928 .22499085 .6519928 .24598694 .6519928 .2630005 .651001 .27598573 .6499939 .28799439 .647995 .2939911 .6419983 .2939911 .6329956 .2939911 .6299896 .2939911 .6279907 .2939911 .6259918 .2939911 .625 .29299928 .621994 .2919922 .61698916L.15699768 .07798767C.15499878 .068984989 .15299988 .06098938 .15098572 .054992677 .147995 .04899597 .14399719 .04399109 .13798523 .040985109 .13198853 .036987306 .12399292 .033996583 .11299133 .032989503 .101989749 .03199768 .085998538 .0309906 .06599426 .0309906 .054992677 .0309906 .04699707 .02999878 .041992189 .0289917 .036987306 .026992798 .033996583 .020996094 .033996583 .010986328 .033996583 .005996704 .035995485 .0029907227 .040985109 .0019989014 .04499817 .0009918213 .04798889 0 .04899597 0 .055999757 0 .06599426 0 .07798767 .0009918213 .08898926 .0009918213 .101989749 .0009918213 .114990238 .0019989014 .12799073 .0019989014 .13999939 .0019989014 .1519928 .0029907227 .16299439 .0029907227 .17298889 .0029907227 .17999268 .0029907227 .18699646 .0029907227 .19699097 .0029907227 .20899964 .0029907227 .22099304 .0019989014 .23399353 .0019989014 .24699402 .0019989014 .2599945 .0009918213 .27198792 .0009918213 .2849884 .0009918213 .29699708 0 .30699159 0 .31399537 0 .31799317 0 .32199098 .0009918213 .32699586 .0029907227 .33198548 .0039978029 .33399964 .009994507 .33399964 .018997193 .33399964 .024993897 .33198548 .0289917 .32798768 .02999878 .32299806 .0309906 .31498719 .0309906 .3039856 .0309906 .29499818 .0309906 .28799439 .0309906 .2829895 .0309906 .27799989 .0309906 .2709961 .03199768 .26098634 .032989503 .25 .033996583 .24398804 .035995485 .24099732 .038986207 .23799134 .040985109 .23599243 .04499817 .23599243 .049987794 .23599243 .053985597 .23599243 .057998659 .23699951 .06199646 .23799134 .06599426 .23899842 .069992069 .23999024 .07299805L.37399293 .60598757Z" />

<path id="font_13_1" d="M.1789856 .114990238C.15899658 .08198547 .13899231 .05999756 .11898804 .04899597 .09899902 .037994386 .07798767 .03199768 .055999757 .0309906 .049987794 .02999878 .04499817 .0289917 .040985109 .027999878 .036987306 .025985718 .034988405 .019989014 .034988405 .010986328 .034988405 .0039978029 .038986207 0 .04798889 0 .06098938 0 .07598877 .0009918213 .09098816 .0019989014 .10598755 .0029907227 .11999512 .0029907227 .13398743 .0029907227 .15098572 .0029907227 .16799927 .0029907227 .18499756 .0019989014 .20199585 .0009918213 .21798706 0 .23399353 0 .23699951 0 .24099732 .0009918213 .24598694 .0029907227 .25099183 .0039978029 .25299073 .009994507 .25299073 .018997193 .25299073 .023986817 .25099183 .027999878 .24798584 .0289917 .24398804 .02999878 .23999024 .0309906 .23699951 .0309906 .22599793 .03199768 .21499634 .034988405 .20498657 .039993287 .19499207 .04499817 .18998719 .052993776 .18998719 .06599426 .18998719 .07199097 .19099427 .07798767 .19400025 .083999637 .19699097 .08898926 .19999695 .09599304 .20399475 .102996829 .20599365 .10598755 .20799256 .10899353 .20999146 .11199951 .21099854 .114990238 .21398926 .11999512 .21899414 .12799073 .22399903 .13598633 .23098755 .147995 .23999024 .1639862 .24899292 .1789856 .2630005 .20199585 .27999879 .23098755H.5309906C.5319977 .22599793 .5329895 .21499634 .5349884 .19799805 .5359955 .18099976 .5379944 .16299439 .5399933 .14399719 .5419922 .125 .5439911 .10699463 .54499819 .09199524 .54599 .07598877 .5469971 .066986087 .5469971 .06399536 .5469971 .056991579 .5439911 .050994874 .5389862 .04699707 .5329895 .041992189 .526001 .038986207 .5189972 .036987306 .5109863 .033996583 .5029907 .032989503 .49499513 .03199768 .48599244 .0309906 .47999574 .0309906 .47499085 .0309906 .46798707 .0309906 .46199037 .02999878 .45799256 .0289917 .45298768 .026992798 .45098878 .020996094 .45098878 .010986328 .45098878 .005996704 .45298768 .0029907227 .45700074 .0019989014 .46099855 .0009918213 .46398927 0 .46499635 0 .48599244 0 .5069885 .0009918213 .5279999 .0019989014 .548996 .0029907227 .56900027 .0029907227 .58999636 .0029907227 .59599307 .0029907227 .60398867 .0029907227 .61499026 .0029907227 .625 .0019989014 .6359863 .0019989014 .6469879 .0019989014 .6579895 .0009918213 .66799929 .0009918213 .67900088 .0009918213 .68899539 0 .69699099 0 .7029877 0 .70599368 0 .70999148 .0009918213 .71499636 .0029907227 .71899417 .0039978029 .72099307 .009994507 .72099307 .019989014 .72099307 .024993897 .71899417 .0289917 .71499636 .02999878 .70999148 .0309906 .7049866 .0309906 .69799807 .0309906 .68299868 .0309906 .67099 .03199768 .6619873 .032989503 .6529999 .033996583 .6469879 .034988405 .6429901 .037994386 .6389923 .040985109 .6369934 .04399109 .6359863 .04899597 .6349945 .053985597 .6339874 .05999756 .6329956 .066986087L.57199099 .69200137C.57099917 .70199587 .56900027 .70899966 .56799319 .71199038 .5669861 .71499636 .56199648 .71598818 .5529938 .71598818 .54499819 .71598818 .5399933 .71499636 .5369873 .71199038 .5339966 .70899966 .5299988 .70399478 .5269928 .69898989L.1789856 .114990238M.29899598 .2619934 .49598695 .59199526 .5279999 .2619934H.29899598Z" />

<path id="font_13_11" d="M.1269989 .09599304C.13598633 .06399536 .15098572 .037994386 .17399597 .018997193 .19599915-.0010070801 .22299195-.011001587 .25498963-.011001587 .2849884-.011001587 .31498719-.0030059815 .34399415 .01399231 .37298585 .02999878 .3999939 .051986696 .42399598 .07899475 .44699098 .10598755 .46598817 .13699341 .48098756 .17199707 .49499513 .20698548 .5019989 .24198914 .5019989 .2789917 .5019989 .30599977 .49798585 .32899476 .4909973 .34999085 .48298646 .36999513 .47299195 .3869934 .45999146 .40098573 .44699098 .4139862 .43299867 .4249878 .41600038 .43199159 .39898683 .43899537 .3809967 .44198609 .36299134 .44198609 .34298707 .44198609 .32199098 .43798829 .30099488 .42900086 .2789917 .41999818 .2579956 .4079895 .23799134 .3909912 .21699524 .37399293 .19799805 .35398866 .18099976 .32899476 .1639862 .3039856 .14898682 .27598573 .13798523 .24398804 .13699341 .24198914 .1349945 .23498535 .13198853 .22299195 .1289978 .20999146 .125 .19499207 .11999512 .17599488 .114990238 .15699768 .10998535 .13598633 .10499573 .11299133 .09899902 .08999634 .09399414 .066986087 .08999634 .04399109 .084991458 .020996094 .08198547-.0020141602 .07899475-.023010254 .07598877-.044006349 .07398987-.06201172 .07398987-.07701111 .07398987-.0900116 .07598877-.102005008 .07899475-.11401367 .08198547-.12600708 .08799744-.13700867 .09799194-.14601135 .10798645-.15501404 .12199402-.16200257 .14099121-.16700745 .15899658-.17201233 .18299866-.17500305 .21398926-.17500305 .23298645-.17500305 .24899292-.17401123 .2619934-.17300415 .2749939-.17201233 .29100038-.17100525 .31098939-.17100525 .31999208-.17100525 .32598878-.17100525 .32798768-.17100525 .33099366-.17100525 .33399964-.17100525 .33699037-.17201233 .34399415-.17300415 .34899903-.17401123 .35198976-.17500305 .35499574-.17601013 .35598756-.17800904 .35699464-.18200684 .35798646-.18501282 .35899354-.18800354 .3600006-.19100952 .36099244-.19300843 .3639984-.1940155 .36898805-.1940155 .37399293-.1940155 .3769989-.19200135 .37998963-.18901062 .3829956-.18600464 .38398744-.17800904 .38398744-.16600037 .38398744-.15400696 .3809967-.14500427 .37599183-.13800049 .36999513-.13101197 .36099244-.12701416 .34999085-.12400818 .33799745-.1210022 .32299806-.119003299 .30499269-.118011478 .28599549-.117004398 .2649994-.117004398 .23999024-.117004398 .21699524-.117004398 .19799805-.117004398 .18099976-.11601257 .1639862-.11500549 .14898682-.11300659 .13798523-.10900879 .1269989-.104003909 .117996219-.0980072 .11299133-.08900452 .10699463-.08000183 .10398865-.06700134 .10398865-.05000305 .10398865-.04600525 .10499573-.03300476 .10699463-.012008667 .10899353 .009994507 .115997318 .04598999 .1269989 .09599304M.25498963 .010986328C.24699402 .010986328 .23899842 .0129852299 .22999573 .015991211 .22099304 .018997193 .21398926 .024993897 .20698548 .032989503 .19999695 .040985109 .19400025 .051986696 .18899536 .06498718 .18399048 .07798767 .18199158 .09498596 .18199158 .115997318 .18199158 .13198853 .18399048 .1499939 .18699646 .16899109 .18998719 .18798828 .19499207 .20799256 .19999695 .22698975 .20498657 .24598694 .21099854 .2649994 .21798706 .28199769 .22399903 .29899598 .22999573 .31399537 .23699951 .32499696 .2579956 .3600006 .2789917 .3849945 .3019867 .39898683 .32499696 .41299439 .34399415 .41999818 .36099244 .41999818 .37998963 .41999818 .3959961 .4119873 .4099884 .39698792 .4229889 .38198854 .42999269 .35699464 .42999269 .32199098 .42999269 .30799867 .42799378 .29100038 .4249878 .27198792 .42199708 .2519989 .4169922 .23199463 .4119873 .21199036 .40699769 .19099427 .40098573 .17199707 .3939972 .15299988 .3869934 .13398743 .3809967 .117996219 .37399293 .10598755 .35699464 .07398987 .33799745 .049987794 .31698609 .034988405 .29499818 .018997193 .27398683 .010986328 .25498963 .010986328Z" />

<path id="font_14_4" d="M.45999146 .31999208C.45999146 .3600006 .45799256 .3999939 .45298768 .43899537 .44799806 .47799684 .43699647 .5169983 .41999818 .55400088 .40899659 .5779877 .394989 .5970001 .37998963 .6119995 .36499024 .6269989 .34899903 .6380005 .33399964 .6459961 .31799317 .6539917 .30299378 .6589966 .28799439 .6619873 .272995 .6649933 .26098634 .66600039 .25 .66600039 .23498535 .66600039 .21899414 .6639862 .20298767 .6609955 .18699646 .6569977 .17098999 .651001 .1559906 .6419983 .14099121 .6329956 .12599182 .6199951 .11199951 .6049957 .09799194 .58999636 .085998538 .56999209 .07598877 .5469971 .05999756 .5119934 .049987794 .47599793 .04598999 .43798829 .040985109 .39898683 .038986207 .3600006 .038986207 .31999208 .038986207 .30099488 .039993287 .28199769 .040985109 .2619934 .041992189 .24099732 .04399109 .22099304 .04699707 .19999695 .049987794 .1789856 .053985597 .15899658 .05999756 .13798523 .06599426 .116989139 .07398987 .09799194 .083999637 .07899475 .09498596 .05899048 .10699463 .041992189 .12098694 .0289917 .1349945 .015991211 .1499939 .004989624 .16499329-.0020141602 .17999268-.009002686 .19400025-.015014648 .20899964-.018005372 .22399903-.021011353 .23699951-.022003174 .24899292-.022003174 .2619934-.022003174 .2769928-.020004273 .29299928-.01701355 .30799867-.014007568 .32398988-.008010864 .33999635 .0009918213 .35499574 .008987427 .36999513 .020996094 .3849945 .035995485 .39898683 .050994874 .4119873 .069992069 .4229889 .09399414 .43899537 .1289978 .44898988 .16499329 .45399476 .20298767 .45799256 .24099732 .45999146 .27999879 .45999146 .31999208M.24899292 0C.23899842 0 .22799683 .0019989014 .21699524 .005996704 .20599365 .008987427 .19499207 .015991211 .18399048 .024993897 .17298889 .033996583 .16299439 .04598999 .1539917 .06199646 .14498902 .07699585 .13798523 .09700012 .1329956 .12098694 .12998963 .13598633 .12799073 .1519928 .1269989 .17098999 .125 .18899536 .12399292 .20799256 .12298584 .22698975 .12199402 .24598694 .12199402 .2639923 .12199402 .28199769 .12199402 .30099488 .12199402 .31698609 .12199402 .33198548 .12199402 .3639984 .12199402 .3959961 .12298584 .42799378 .12399292 .45899964 .12599182 .4889984 .12998963 .5159912 .1349945 .54599 .14199829 .56999209 .15299988 .58699038 .1639862 .60398867 .1749878 .6159973 .18699646 .625 .19898987 .6329956 .21099854 .6380005 .22299195 .6409912 .23399353 .6429901 .24299622 .6439972 .24899292 .6439972 .25698854 .6439972 .2669983 .6429901 .2789917 .6399994 .2899933 .6369934 .3019867 .6309967 .31298829 .6230011 .32398988 .6139984 .33499146 .60198977 .34498597 .58699038 .35499574 .57199099 .3619995 .5519867 .36698915 .5269928 .37199403 .49899293 .375 .46798707 .37599183 .43299867 .3769989 .397995 .3769989 .3639984 .3769989 .33198548 .3769989 .2939911 .3769989 .2579956 .37599183 .22399903 .375 .18998719 .37098695 .15699768 .3659973 .125 .3619995 .100997928 .35598756 .08099365 .34799195 .06498718 .33898927 .04899597 .32998658 .035995485 .31900025 .026992798 .30799867 .016998291 .29599 .009994507 .28399659 .005996704 .27198792 .0019989014 .2599945 0 .24899292 0Z" />

<path id="font_13_8" d="M.2579956 .68299868C.2579956 .6839905 .2579956 .6859894 .25698854 .68899539 .2559967 .69200137 .2519989 .69400027 .24499512 .69400027 .23899842 .69400027 .23098755 .69400027 .21998596 .69299319 .20899964 .69200137 .19699097 .69099429 .18499756 .6899872 .17298889 .68899539 .16099549 .6879883 .1499939 .68699648 .13899231 .6859894 .12998963 .68499758 .12298584 .6839905 .11898804 .68299868 .114990238 .6819916 .11099243 .6799927 .10598755 .6779938 .10398865 .6719971 .10398865 .6629944 .10398865 .6579895 .10598755 .6549988 .11099243 .6539917 .115997318 .6529999 .12199402 .6519928 .1289978 .6519928 .14099121 .6519928 .1499939 .6519928 .15699768 .651001 .1639862 .6499939 .16899109 .647995 .17199707 .6469879 .1749878 .644989 .17599488 .6429901 .1769867 .6409912 .17799378 .6389923 .17799378 .6369934 .17799378 .6349945L.1749878 .61499026 .04899597 .114990238C.04798889 .10998535 .04699707 .10499573 .04598999 .099990848 .04499817 .09498596 .04399109 .08898926 .04399109 .08099365 .04399109 .066986087 .04699707 .053985597 .051986696 .042999269 .056991579 .03199768 .06298828 .021987915 .07199097 .01399231 .08099365 .005996704 .08999634 0 .100997928-.005004883 .11199951-.009002686 .12298584-.011001587 .1349945-.011001587 .16799927-.011001587 .19299317 .0079956059 .20999146 .04499817 .21499634 .053985597 .21899414 .06498718 .22299195 .07598877 .22599793 .08699036 .22898865 .09799194 .23199463 .10798645 .23498535 .116989139 .23699951 .125 .23799134 .13198853 .23899842 .13899231 .23999024 .14199829 .23999024 .14299011 .23999024 .147995 .23799134 .15098572 .23498535 .1519928 .23199463 .15299988 .22898865 .15299988 .22799683 .15299988 .22299195 .15299988 .21899414 .1519928 .21798706 .1499939 .21699524 .14698792 .21499634 .14199829 .21398926 .1349945 .20999146 .11898804 .20599365 .10398865 .20098877 .08898926 .19599915 .07398987 .19099427 .05999756 .18499756 .04899597 .1789856 .036987306 .17199707 .027999878 .16499329 .020996094 .15699768 .01399231 .147995 .010986328 .13798523 .010986328 .1309967 .010986328 .125 .0129852299 .12098694 .015991211 .116989139 .018997193 .11399841 .023986817 .11199951 .0289917 .10998535 .033996583 .10899353 .038986207 .10899353 .04399109 .10798645 .04899597 .10798645 .053985597 .10798645 .056991579 .10798645 .068984989 .10798645 .07798767 .10899353 .08299255 .10998535 .08799744 .11099243 .09599304 .11399841 .10499573L.2579956 .68299868Z" />

<clipPath id="clip_15">
<path transform="matrix(.1,0,0,-.1,293.102,427.32603)" d="M6.77344 381.574H65.543V773.742H6.77344V381.574Z" clip-rule="evenodd" />
</clipPath>

<path id="font_13_2" d="M.45199586 .43099977C.45199586 .43299867 .45098878 .43499757 .44999696 .43798829 .44799806 .43998719 .44499208 .44099427 .44198609 .44099427 .43899537 .44099427 .43499757 .43899537 .42900086 .43499757 .4229889 .42999269 .4169922 .4249878 .4099884 .41799928 .40299989 .41099549 .39698792 .40299989 .3899994 .394989 .3829956 .3869934 .37799073 .3789978 .37399293 .37199403 .36299134 .39898683 .34799195 .41799928 .33099366 .42799378 .31399537 .43699647 .29699708 .44198609 .2809906 .44198609 .2519989 .44198609 .22299195 .43399049 .19400025 .4169922 .16499329 .3999939 .13899231 .3769989 .115997318 .34999085 .09298706 .32299806 .07499695 .29100038 .06098938 .2559967 .04699707 .22099304 .039993287 .18499756 .039993287 .14898682 .039993287 .12399292 .04399109 .101989749 .050994874 .08299255 .057998659 .06298828 .066986087 .04598999 .07899475 .03199768 .09098816 .017990113 .10499573 .0069885256 .12098694 0 .13699341-.007003784 .1539917-.011001587 .17199707-.011001587 .19299317-.011001587 .21398926-.006011963 .23399353 .005996704 .25299073 .016998291 .27198792 .0309906 .2899933 .04899597 .28799439 .039993287 .2849884 .026992798 .27999879 .0079956059 .2749939-.012008667 .2709961-.03100586 .2659912-.05101013 .26098634-.070007327 .2559967-.088012699 .2519989-.104003909 .24798584-.119003299 .24598694-.12800598 .24499512-.13000489 .24299622-.13700867 .24099732-.14300537 .23799134-.14700318 .23498535-.15100098 .23199463-.15400696 .22698975-.15701294 .22200012-.15901184 .21499634-.16101074 .20698548-.16200257 .19799805-.16300965 .18699646-.16300965 .17298889-.16300965 .1659851-.16300965 .16099549-.16400147 .15699768-.16600037 .1519928-.16700745 .1499939-.17300415 .1499939-.18301392 .1499939-.18400574 .15098572-.18600464 .1519928-.18901062 .15299988-.19200135 .1559906-.1940155 .16299439-.1940155 .1789856-.1940155 .19599915-.1940155 .21299744-.19300843 .22999573-.19200135 .24598694-.19100952 .2630005-.19100952 .27999879-.19100952 .2979889-.19200135 .31498719-.19300843 .33198548-.1940155 .34899903-.1940155 .3659973-.1940155 .36898805-.1940155 .37199403-.19300843 .3769989-.19200135 .38198854-.19000244 .38398744-.18400574 .38398744-.17401123 .38398744-.16900635 .38198854-.16600037 .3769989-.16500855 .37199403-.16400147 .3659973-.16300965 .35798646-.16300965 .34599305-.16300965 .33699037-.16300965 .32998658-.16200257 .32299806-.16101074 .31900025-.16000366 .31599427-.15901184 .31298829-.15701294 .31098939-.15501404 .31098939-.15301514 .30999757-.15100098 .30999757-.14900208 .30999757-.14700318 .30999757-.14401245 .30999757-.14001465 .31098939-.13700867 .31199647-.13400269 .31298829-.13000489 .31399537-.12501526L.45199586 .43099977M.1749878 .010986328C.1599884 .010986328 .147995 .01499939 .13999939 .023986817 .1309967 .03199768 .125 .040985109 .12098694 .051986696 .115997318 .06298828 .11399841 .07299805 .11299133 .083999637 .11199951 .09399414 .11099243 .100997928 .11099243 .10499573 .11099243 .116989139 .11299133 .13198853 .115997318 .15098572 .11898804 .16899109 .12298584 .18798828 .12799073 .20698548 .1329956 .22599793 .13798523 .24499512 .14299011 .2619934 .147995 .2789917 .15299988 .29299928 .15699768 .3039856 .17199707 .34098817 .19198609 .36999513 .21499634 .3899994 .23799134 .4099884 .2599945 .41999818 .2809906 .41999818 .29699708 .41999818 .30999757 .41600038 .32099916 .40699769 .33099366 .397995 .33898927 .3889923 .34498597 .3789978 .35099793 .36799623 .35499574 .35798646 .35699464 .34899903 .35899354 .33999635 .3600006 .33399964 .3600006 .33198548 .3600006 .33099366 .35899354 .32398988 .35598756 .31298829 .35299684 .3019867 .34999085 .28799439 .34599305 .2709961 .34098817 .2539978 .33699037 .23599243 .33198548 .21699524 .32699586 .19799805 .32299806 .17999268 .31900025 .16299439 .31399537 .1459961 .31098939 .13198853 .30799867 .12098694 .30499269 .10998535 .30299378 .10398865 .3019867 .102996829 .2979889 .09599304 .2919922 .08699036 .28399659 .07699585 .2749939 .06599426 .2649994 .055999757 .2539978 .04699707 .24299622 .036987306 .22999573 .0289917 .21699524 .021987915 .20298767 .01499939 .18899536 .010986328 .1749878 .010986328Z" />

<path id="font_13_7" d="M.1329956 .08299255C.1459961 .09799194 .1579895 .10998535 .16899109 .12098694 .17999268 .13198853 .18998719 .14099121 .19898987 .1499939 .20799256 .15899658 .21699524 .16699219 .22599793 .17399597 .23399353 .18099976 .24299622 .18899536 .2519989 .19699097 .2519989 .19699097 .25498963 .19999695 .2619934 .20599365 .2689972 .21199036 .2769928 .21998596 .2869873 .22898865 .29699708 .23799134 .30799867 .24699402 .31900025 .2579956 .32998658 .2679901 .34098817 .27799989 .34999085 .2869873 .37399293 .30999757 .3939972 .33099366 .40899659 .34899903 .42399598 .3659973 .43499757 .3809967 .44400025 .3929901 .45298768 .40499879 .45899964 .4139862 .46199037 .42099 .46499635 .4269867 .46699525 .43099977 .46699525 .43199159 .46699525 .43699647 .46598817 .43998719 .46299745 .44099427 .45999146 .44198609 .45700074 .44198609 .45599366 .44198609 .45298768 .44198609 .44999696 .44099427 .44799806 .43998719 .44599916 .43899537 .44400025 .43598939 .44099427 .43099977 .42599488 .40699769 .4119873 .3899994 .40098573 .3809967 .3899994 .37199403 .37799073 .36698915 .3659973 .36698915 .35398866 .36698915 .34399415 .36999513 .33699037 .3769989 .32998658 .3829956 .32199098 .3899994 .31498719 .39898683 .30599977 .4099884 .29599 .41999818 .28599549 .42900086 .27598573 .43798829 .2630005 .44198609 .24598694 .44198609 .22698975 .44198609 .21099854 .43699647 .19599915 .4269867 .18099976 .4169922 .16799927 .4059906 .1579895 .3929901 .14698792 .37998963 .13899231 .36698915 .13398743 .35499574 .12799073 .34199525 .125 .33299256 .125 .32798768 .125 .32499696 .12599182 .32299806 .12799073 .32099916 .1289978 .31799317 .13198853 .31698609 .13699341 .31698609 .14199829 .31698609 .14498902 .31799317 .1459961 .31999208 .14698792 .32199098 .14898682 .32499696 .1499939 .32798768 .15499878 .33898927 .16099549 .34799195 .16999817 .35499574 .1789856 .36099244 .18798828 .3659973 .19699097 .36898805 .20599365 .37199403 .21398926 .37298585 .22099304 .37399293 .22799683 .375 .23298645 .375 .23498535 .375 .24598694 .375 .2559967 .37399293 .2659912 .37098695 .27598573 .36799623 .2869873 .3639984 .2979889 .3600006 .30799867 .35598756 .31599427 .35299684 .32299806 .35099793 .32998658 .34899903 .33599855 .34799195 .34199525 .34700013 .34700013 .34599305 .35198976 .34498597 .35699464 .34498597 .3619995 .34498597 .36799623 .34498597 .375 .34498597 .3659973 .33399964 .35398866 .32199098 .34098817 .30899049 .32699586 .29499818 .31298829 .28199769 .29899598 .2689972 .2849884 .2559967 .27198792 .24499512 .26098634 .23498535 .24899292 .22499085 .24099732 .21798706 .23599243 .21398926 .22299195 .20298767 .21299744 .19400025 .20599365 .18699646 .19898987 .17999268 .19198609 .17399597 .18699646 .16899109 .18099976 .1639862 .1749878 .1579895 .16999817 .15299988 .1639862 .14698792 .1559906 .13899231 .1459961 .12998963 .11199951 .09700012 .085998538 .066986087 .068984989 .041992189 .051986696 .016998291 .042999269 .0019989014 .042999269-.0010070801 .042999269-.006011963 .04499817-.009002686 .04798889-.010009766 .050994874-.011001587 .053985597-.011001587 .054992677-.011001587 .05899048-.011001587 .06199646-.010009766 .06399536-.009002686 .06498718-.007003784 .067993167-.0030059815 .070999149 .0019989014 .08198547 .018997193 .09498596 .033996583 .10998535 .04598999 .125 .057998659 .13999939 .06399536 .1559906 .06399536 .16699219 .06399536 .1769867 .06098938 .18399048 .055999757 .19099427 .050994874 .20098877 .040985109 .21398926 .025985718 .22299195 .01499939 .23199463 .0069885256 .24198914-.0010070801 .25099183-.008010864 .2630005-.011001587 .27799989-.011001587 .30299378-.011001587 .32499696-.0040130617 .34399415 .009994507 .36299134 .022994996 .37998963 .038986207 .3939972 .055999757 .40699769 .07299805 .41799928 .09098816 .4249878 .10798645 .43199159 .125 .43499757 .13598633 .43499757 .14299011 .43499757 .1499939 .43099977 .15299988 .4229889 .15299988 .41799928 .15299988 .4149933 .1519928 .4139862 .14898682 .4119873 .1459961 .4099884 .14299011 .40899659 .13999939 .40299989 .12399292 .394989 .11099243 .3849945 .099990848 .375 .08898926 .3639984 .07998657 .35299684 .07398987 .34098817 .066986087 .32899476 .06298828 .31799317 .05999756 .30699159 .056991579 .29699708 .055999757 .2889862 .055999757 .2789917 .055999757 .2689972 .056991579 .2599945 .05999756 .25099183 .06298828 .24099732 .06599426 .22999573 .068984989 .21299744 .07598877 .19898987 .07998657 .18998719 .08299255 .18099976 .084991458 .17098999 .085998538 .1599884 .085998538 .15899658 .085998538 .15499878 .085998538 .14898682 .085998538 .14299011 .084991458 .13798523 .083999637 .1329956 .08299255Z" />

</defs>
<g clip-path="url(#clip_12)">
<use data-text="x" xlink:href="#font_13_6" transform="matrix(11.9997,0,0,-11.9997,513.07,365.22523)" fill="#231f20" />
<use data-text="w" xlink:href="#font_13_5" transform="matrix(11.9997,0,0,-11.9997,467.07429,384.62913)" fill="#231f20" />
<use data-text="x" xlink:href="#font_13_6" transform="matrix(11.9997,0,0,-11.9997,480.3098,384.62913)" fill="#231f20" />
<use data-text="(" xlink:href="#font_14_2" transform="matrix(11.9997,0,0,-11.9997,475.654,384.62913)" fill="#231f20" />
<use data-text=")" xlink:href="#font_14_3" transform="matrix(11.9997,0,0,-11.9997,487.1614,384.62913)" fill="#231f20" />
<use data-text="d" xlink:href="#font_14_1" transform="matrix(11.9997,0,0,-11.9997,452.82508,411.37403)" fill="#231f20" />
<use data-text="m" xlink:href="#font_13_9" transform="matrix(11.9997,0,0,-11.9997,459.48487,411.37403)" fill="#231f20" />
<path transform="matrix(.1,0,0,-.1,293.102,427.32603)" stroke-width="5.6693" stroke-linecap="butt" stroke-miterlimit="2.6131" stroke-linejoin="miter" fill="none" stroke="#231f20" d="M65.543 578.137H2259.99" />
<path transform="matrix(.1,0,0,-.1,293.102,427.32603)" d="M2217.19 578.137C2217.19 584.555 2214.81 590.969 2210.57 595.734L2272.73 578.137 2210.57 560.535C2214.81 565.301 2217.19 571.723 2217.19 578.137" fill="#231f20" fill-rule="evenodd" />
<path transform="matrix(.1,0,0,-.1,293.102,427.32603)" stroke-width="11.3386" stroke-linecap="butt" stroke-miterlimit="2.6131" stroke-linejoin="miter" fill="none" stroke="#231f20" d="M1714.4 578.137V399.391" />
<path transform="matrix(.1,0,0,-.1,293.102,427.32603)" d="M1714.4 422.422C1721.62 422.418 1728.84 425.098 1734.2 429.863L1714.4 359.941 1694.6 429.863C1699.96 425.098 1707.18 422.422 1714.4 422.422" fill="#231f20" fill-rule="evenodd" />
<use data-text="E" xlink:href="#font_13_3" transform="matrix(11.9997,0,0,-11.9997,310.7461,387.71083)" fill="#231f20" />
<use data-text=";" xlink:href="#font_13_10" transform="matrix(11.9997,0,0,-11.9997,319.60188,387.71083)" fill="#231f20" />
<use data-text="I" xlink:href="#font_13_4" transform="matrix(11.9997,0,0,-11.9997,322.92579,387.71083)" fill="#231f20" />
<use data-text=";" xlink:href="#font_13_10" transform="matrix(11.9997,0,0,-11.9997,328.19367,387.71083)" fill="#231f20" />
<use data-text="A" xlink:href="#font_13_1" transform="matrix(11.9997,0,0,-11.9997,331.51759,387.71083)" fill="#231f20" />
<use data-text=";" xlink:href="#font_13_10" transform="matrix(11.9997,0,0,-11.9997,340.51734,387.71083)" fill="#231f20" />
<use data-text="%" xlink:href="#font_13_11" transform="matrix(11.9997,0,0,-11.9997,343.84126,387.71083)" fill="#231f20" />
<use data-text="0" xlink:href="#font_14_4" transform="matrix(11.9997,0,0,-11.9997,301.91133,362.7409)" fill="#231f20" />
<use data-text="l" xlink:href="#font_13_8" transform="matrix(11.9997,0,0,-11.9997,496.3523,362.55186)" fill="#231f20" />
<path transform="matrix(.1,0,0,-.1,293.102,427.32603)" stroke-width="5.6693" stroke-linecap="butt" stroke-miterlimit="2.6131" stroke-linejoin="miter" fill="none" stroke="#231f20" d="M2048.75 620.809V578.137" />
<g clip-path="url(#clip_15)">
<path transform="matrix(.1,0,0,-.1,293.102,427.32603)" stroke-width="3.6" stroke-linecap="butt" stroke-miterlimit="2.6131" stroke-linejoin="miter" fill="none" stroke="#231f20" d="M56.3242 316.793-224.848 597.965" />
<path transform="matrix(.1,0,0,-.1,293.102,427.32603)" stroke-width="3.6" stroke-linecap="butt" stroke-miterlimit="2.6131" stroke-linejoin="miter" fill="none" stroke="#231f20" d="M76.6875 337.156-204.48 618.328" />
<path transform="matrix(.1,0,0,-.1,293.102,427.32603)" stroke-width="3.6" stroke-linecap="butt" stroke-miterlimit="2.6131" stroke-linejoin="miter" fill="none" stroke="#231f20" d="M97.0547 357.523-184.117 638.695" />
<path transform="matrix(.1,0,0,-.1,293.102,427.32603)" stroke-width="3.6" stroke-linecap="butt" stroke-miterlimit="2.6131" stroke-linejoin="miter" fill="none" stroke="#231f20" d="M117.418 377.887-163.754 659.059" />
<path transform="matrix(.1,0,0,-.1,293.102,427.32603)" stroke-width="3.6" stroke-linecap="butt" stroke-miterlimit="2.6131" stroke-linejoin="miter" fill="none" stroke="#231f20" d="M137.785 398.254-143.387 679.422" />
<path transform="matrix(.1,0,0,-.1,293.102,427.32603)" stroke-width="3.6" stroke-linecap="butt" stroke-miterlimit="2.6131" stroke-linejoin="miter" fill="none" stroke="#231f20" d="M158.148 418.617-123.023 699.789" />
<path transform="matrix(.1,0,0,-.1,293.102,427.32603)" stroke-width="3.6" stroke-linecap="butt" stroke-miterlimit="2.6131" stroke-linejoin="miter" fill="none" stroke="#231f20" d="M178.512 438.98-102.66 720.152" />
<path transform="matrix(.1,0,0,-.1,293.102,427.32603)" stroke-width="3.6" stroke-linecap="butt" stroke-miterlimit="2.6131" stroke-linejoin="miter" fill="none" stroke="#231f20" d="M198.879 459.348-82.293 740.516" />
<path transform="matrix(.1,0,0,-.1,293.102,427.32603)" stroke-width="3.6" stroke-linecap="butt" stroke-miterlimit="2.6131" stroke-linejoin="miter" fill="none" stroke="#231f20" d="M219.242 479.711-61.9297 760.883" />
<path transform="matrix(.1,0,0,-.1,293.102,427.32603)" stroke-width="3.6" stroke-linecap="butt" stroke-miterlimit="2.6131" stroke-linejoin="miter" fill="none" stroke="#231f20" d="M239.605 500.074-41.5664 781.246" />
<path transform="matrix(.1,0,0,-.1,293.102,427.32603)" stroke-width="3.6" stroke-linecap="butt" stroke-miterlimit="2.6131" stroke-linejoin="miter" fill="none" stroke="#231f20" d="M259.973 520.441-21.1992 801.613" />
<path transform="matrix(.1,0,0,-.1,293.102,427.32603)" stroke-width="3.6" stroke-linecap="butt" stroke-miterlimit="2.6131" stroke-linejoin="miter" fill="none" stroke="#231f20" d="M280.336 540.805-.835938 821.977" />
<path transform="matrix(.1,0,0,-.1,293.102,427.32603)" stroke-width="3.6" stroke-linecap="butt" stroke-miterlimit="2.6131" stroke-linejoin="miter" fill="none" stroke="#231f20" d="M300.699 561.168 19.5313 842.34" />
<path transform="matrix(.1,0,0,-.1,293.102,427.32603)" stroke-width="3.6" stroke-linecap="butt" stroke-miterlimit="2.6131" stroke-linejoin="miter" fill="none" stroke="#231f20" d="M321.066 581.535 39.8945 862.707" />
</g>
<path transform="matrix(.1,0,0,-.1,293.102,427.32603)" stroke-width="5.6693" stroke-linecap="butt" stroke-dasharray="107.717,17.0079,5.6693,17.0079" stroke-miterlimit="2.6131" stroke-linejoin="miter" fill="none" stroke="#231f20" d="M65.543 578.137C1292.93 578.137 1890.73 276.887 2191.98 36.8242" />
<path transform="matrix(.1,0,0,-.1,293.102,427.32603)" stroke-width="11.3386" stroke-linecap="butt" stroke-miterlimit="2.6131" stroke-linejoin="miter" fill="none" stroke="#231f20" d="M2072 174.41C1714.4 401.898 1122.5 620.809 65.543 620.805V535.555C1122.5 535.555 1669.5 322.285 2026.41 103.266L2072 174.41Z" />
<path transform="matrix(.1,0,0,-.1,293.102,427.32603)" d="M1716.66 265.094 1749.33 343.02 1711.48 359.047 1679.37 280.379 1716.66 265.094" fill="#231f20" fill-rule="evenodd" />
<path transform="matrix(.1,0,0,-.1,293.102,427.32603)" stroke-width="11.3386" stroke-linecap="butt" stroke-miterlimit="2.6131" stroke-linejoin="miter" fill="none" stroke="#231f20" d="M610.535 798.773C916.32 776.438 1265.07 707.652 1433.58 660.52" />
<path transform="matrix(.1,0,0,-.1,293.102,427.32603)" stroke-width="5.6693" stroke-linecap="butt" stroke-miterlimit="2.6131" stroke-linejoin="miter" fill="none" stroke="#231f20" d="M712.418 789.344 696.383 628.063" />
<path transform="matrix(.1,0,0,-.1,293.102,427.32603)" d="M698.41 648.434C704.797 647.793 711.418 649.531 716.582 653.277L692.918 593.164 681.551 656.762C685.875 652.07 692.027 649.066 698.41 648.434" fill="#231f20" fill-rule="evenodd" />
<path transform="matrix(.1,0,0,-.1,293.102,427.32603)" stroke-width="5.6693" stroke-linecap="butt" stroke-miterlimit="2.6131" stroke-linejoin="miter" fill="none" stroke="#231f20" d="M1330.74 686.703 1293.48 530.219" />
<path transform="matrix(.1,0,0,-.1,293.102,427.32603)" d="M1298.23 550.133C1304.47 548.645 1311.27 549.477 1316.89 552.496L1285.36 496.102 1282.64 560.648C1286.3 555.422 1291.99 551.617 1298.23 550.133" fill="#231f20" fill-rule="evenodd" />
<path transform="matrix(.1,0,0,-.1,293.102,427.32603)" stroke-width="5.6693" stroke-linecap="butt" stroke-miterlimit="2.6131" stroke-linejoin="miter" fill="none" stroke="#231f20" d="M916.992 763.996 894.52 603.359" />
<path transform="matrix(.1,0,0,-.1,293.102,427.32603)" d="M897.359 623.633C903.715 622.738 910.398 624.211 915.707 627.746L889.664 568.621 880.844 632.625C884.98 627.766 891.004 624.52 897.359 623.633" fill="#231f20" fill-rule="evenodd" />
<path transform="matrix(.1,0,0,-.1,293.102,427.32603)" stroke-width="5.6693" stroke-linecap="butt" stroke-miterlimit="2.6131" stroke-linejoin="miter" fill="none" stroke="#231f20" d="M1126.8 728.52 1096.9 570.766" />
<path transform="matrix(.1,0,0,-.1,293.102,427.32603)" d="M1100.71 590.879C1107.02 589.68 1113.77 590.828 1119.24 594.102L1090.37 536.309 1084.65 600.66C1088.55 595.605 1094.41 592.074 1100.71 590.879" fill="#231f20" fill-rule="evenodd" />
<use data-text="q" xlink:href="#font_13_2" transform="matrix(11.9997,0,0,-11.9997,393.029,347.30885)" fill="#231f20" />
<use data-text="0" xlink:href="#font_14_4" transform="matrix(7.99952,0,0,-7.99952,398.38096,349.94868)" fill="#231f20" />
<path transform="matrix(.1,0,0,-.1,293.102,427.32603)" stroke-width="11.3386" stroke-linecap="butt" stroke-miterlimit="2.6131" stroke-linejoin="miter" fill="none" stroke="#231f20" d="M65.543 774.25V382.117" />
<path transform="matrix(.1,0,0,-.1,293.102,427.32603)" stroke-width="5.6693" stroke-linecap="butt" stroke-miterlimit="2.6131" stroke-linejoin="miter" fill="none" stroke="#231f20" d="M65.543 356.445V13.5781" />
<path transform="matrix(.1,0,0,-.1,293.102,427.32603)" d="M65.543 56.3789C71.9609 56.375 78.375 58.7578 83.1445 63L65.543 .835938 47.9414 63C52.707 58.7578 59.1289 56.3789 65.543 56.3789" fill="#231f20" fill-rule="evenodd" />
<use data-text="z" xlink:href="#font_13_7" transform="matrix(11.9997,0,0,-11.9997,303.2348,426.23228)" fill="#231f20" />
</g>
<g clip-path="url(#clip_15)">
<path transform="matrix(.1,0,0,-.1,293.102,427.32603)" stroke-width="3.6" stroke-linecap="butt" stroke-miterlimit="2.6131" stroke-linejoin="miter" fill="none" stroke="#231f20" d="M56.3242 316.793-224.848 597.965" />
<path transform="matrix(.1,0,0,-.1,293.102,427.32603)" stroke-width="3.6" stroke-linecap="butt" stroke-miterlimit="2.6131" stroke-linejoin="miter" fill="none" stroke="#231f20" d="M76.6875 337.156-204.48 618.328" />
<path transform="matrix(.1,0,0,-.1,293.102,427.32603)" stroke-width="3.6" stroke-linecap="butt" stroke-miterlimit="2.6131" stroke-linejoin="miter" fill="none" stroke="#231f20" d="M97.0547 357.523-184.117 638.695" />
<path transform="matrix(.1,0,0,-.1,293.102,427.32603)" stroke-width="3.6" stroke-linecap="butt" stroke-miterlimit="2.6131" stroke-linejoin="miter" fill="none" stroke="#231f20" d="M117.418 377.887-163.754 659.059" />
<path transform="matrix(.1,0,0,-.1,293.102,427.32603)" stroke-width="3.6" stroke-linecap="butt" stroke-miterlimit="2.6131" stroke-linejoin="miter" fill="none" stroke="#231f20" d="M137.785 398.254-143.387 679.422" />
<path transform="matrix(.1,0,0,-.1,293.102,427.32603)" stroke-width="3.6" stroke-linecap="butt" stroke-miterlimit="2.6131" stroke-linejoin="miter" fill="none" stroke="#231f20" d="M158.148 418.617-123.023 699.789" />
<path transform="matrix(.1,0,0,-.1,293.102,427.32603)" stroke-width="3.6" stroke-linecap="butt" stroke-miterlimit="2.6131" stroke-linejoin="miter" fill="none" stroke="#231f20" d="M178.512 438.98-102.66 720.152" />
<path transform="matrix(.1,0,0,-.1,293.102,427.32603)" stroke-width="3.6" stroke-linecap="butt" stroke-miterlimit="2.6131" stroke-linejoin="miter" fill="none" stroke="#231f20" d="M198.879 459.348-82.293 740.516" />
<path transform="matrix(.1,0,0,-.1,293.102,427.32603)" stroke-width="3.6" stroke-linecap="butt" stroke-miterlimit="2.6131" stroke-linejoin="miter" fill="none" stroke="#231f20" d="M219.242 479.711-61.9297 760.883" />
<path transform="matrix(.1,0,0,-.1,293.102,427.32603)" stroke-width="3.6" stroke-linecap="butt" stroke-miterlimit="2.6131" stroke-linejoin="miter" fill="none" stroke="#231f20" d="M239.605 500.074-41.5664 781.246" />
<path transform="matrix(.1,0,0,-.1,293.102,427.32603)" stroke-width="3.6" stroke-linecap="butt" stroke-miterlimit="2.6131" stroke-linejoin="miter" fill="none" stroke="#231f20" d="M259.973 520.441-21.1992 801.613" />
<path transform="matrix(.1,0,0,-.1,293.102,427.32603)" stroke-width="3.6" stroke-linecap="butt" stroke-miterlimit="2.6131" stroke-linejoin="miter" fill="none" stroke="#231f20" d="M280.336 540.805-.835938 821.977" />
<path transform="matrix(.1,0,0,-.1,293.102,427.32603)" stroke-width="3.6" stroke-linecap="butt" stroke-miterlimit="2.6131" stroke-linejoin="miter" fill="none" stroke="#231f20" d="M300.699 561.168 19.5313 842.34" />
<path transform="matrix(.1,0,0,-.1,293.102,427.32603)" stroke-width="3.6" stroke-linecap="butt" stroke-miterlimit="2.6131" stroke-linejoin="miter" fill="none" stroke="#231f20" d="M321.066 581.535 39.8945 862.707" />
</g>

</svg>