<svg xmlns="http://www.w3.org/2000/svg" xmlns:xlink="http://www.w3.org/1999/xlink" version="1.1" width="139.000" height="211.000" viewBox="373.811 176.416 139.000 211.000">
<defs>
<clipPath id="clip_3">
<path transform="matrix(1,0,0,-1,383.811,377.41603)" d="M0 0H119V191H0Z" />
</clipPath>

<path id="font_4_4" d="M.33399964 .3019867C.33499146 .30899049 .33799745 .31900025 .34199525 .33198548 .34599305 .34498597 .35198976 .35798646 .3600006 .37098695 .36698915 .38398744 .3769989 .394989 .3889923 .40499879 .40098573 .4149933 .41600038 .41999818 .43299867 .41999818 .43598939 .41999818 .44198609 .41999818 .45199586 .4189911 .46199037 .41799928 .47200013 .4139862 .48298646 .40699769 .46899415 .4039917 .45799256 .397995 .44898988 .3869934 .43998719 .37599183 .43499757 .36499024 .43499757 .35299684 .43499757 .34498597 .43798829 .33699037 .44400025 .32998658 .44999696 .32199098 .45999146 .31799317 .47299195 .31799317 .47799684 .31799317 .48399354 .31900025 .4909973 .32199098 .49699403 .32398988 .5029907 .32699586 .5079956 .33198548 .5130005 .33699037 .5179901 .34298707 .5219879 .34999085 .5249939 .35699464 .5269928 .3659973 .5269928 .37599183 .5269928 .3889923 .5239868 .39898683 .5169983 .4079895 .5099945 .4169922 .5019989 .42399598 .49299623 .42900086 .48399354 .43399049 .47399903 .43699647 .46299745 .43899537 .45199586 .44099427 .44299317 .44198609 .43399049 .44198609 .4189911 .44198609 .4059906 .43899537 .394989 .43399049 .3829956 .42799378 .37298585 .42099 .3639984 .41299439 .35499574 .40499879 .34799195 .39698792 .34199525 .3880005 .33599855 .3789978 .33198548 .37199403 .32899476 .3659973 .32299806 .3829956 .31498719 .3959961 .30599977 .4059906 .29699708 .41600038 .2869873 .42399598 .2769928 .42900086 .2659912 .43399049 .2559967 .43798829 .24699402 .43998719 .23699951 .44099427 .22799683 .44198609 .22099304 .44198609 .19499207 .44198609 .17199707 .43499757 .1519928 .42199708 .13198853 .4079895 .114990238 .3919983 .101989749 .375 .08799744 .35699464 .07798767 .33999635 .070999149 .32299806 .06399536 .30599977 .05999756 .2939911 .05999756 .28799439 .05999756 .2829895 .06199646 .27999879 .06498718 .2789917 .067993167 .27799989 .070999149 .27799989 .07199097 .27799989 .07899475 .27799989 .083999637 .28199769 .084991458 .2889862 .09399414 .31599427 .10398865 .33799745 .115997318 .35499574 .1269989 .37199403 .13899231 .3849945 .1519928 .394989 .16499329 .4039917 .1769867 .41099549 .18899536 .4149933 .19999695 .41799928 .20999146 .41999818 .21899414 .41999818 .22399903 .41999818 .22898865 .4189911 .23599243 .41799928 .24198914 .41600038 .24798584 .41299439 .25299073 .4079895 .2579956 .40299989 .2630005 .39698792 .2669983 .3880005 .2709961 .3789978 .272995 .36799623 .272995 .35299684 .272995 .33799745 .2689972 .31199647 .2599945 .2749939 .25099183 .23799134 .23799134 .18499756 .21899414 .114990238 .21099854 .083999637 .19898987 .05899048 .18199158 .039993287 .16499329 .020996094 .1459961 .010986328 .12399292 .010986328 .12098694 .010986328 .11399841 .011993408 .10499573 .0129852299 .09498596 .01399231 .084991458 .016998291 .07398987 .023986817 .08699036 .026992798 .09799194 .032989503 .10699463 .042999269 .115997318 .051986696 .12098694 .06399536 .12098694 .07798767 .12098694 .09098816 .116989139 .100997928 .10798645 .10598755 .09899902 .11099243 .09098816 .11299133 .083999637 .11299133 .068984989 .11299133 .055999757 .10699463 .04499817 .09599304 .033996583 .084991458 .0289917 .070999149 .0289917 .054992677 .0289917 .04399109 .03199768 .033996583 .037994386 .025985718 .042999269 .016998291 .050994874 .009994507 .05999756 .004989624 .068984989 0 .07899475-.0040130617 .08999634-.007003784 .100997928-.010009766 .11199951-.011001587 .12298584-.011001587 .13999939-.011001587 .1539917-.007003784 .16699219 0 .17999268 .0069885256 .18998719 .015991211 .19898987 .024993897 .20799256 .033996583 .21499634 .041992189 .21998596 .050994874 .22499085 .05899048 .22698975 .06399536 .22799683 .06498718 .23399353 .04598999 .24598694 .0289917 .2639923 .0129852299 .28199769-.0030059815 .30599977-.011001587 .33599855-.011001587 .3619995-.011001587 .3849945-.0040130617 .40499879 .009994507 .42399598 .022994996 .44099427 .038986207 .45498658 .056991579 .46798707 .07398987 .47898866 .09199524 .48599244 .10899353 .49299623 .12599182 .49598695 .13699341 .49598695 .14299011 .49598695 .147995 .49398805 .15098572 .4909973 .1519928 .48799134 .15299988 .4850006 .15299988 .48399354 .15299988 .47898866 .15299988 .47599793 .1519928 .47499085 .1499939 .47399903 .147995 .47200013 .14498902 .47099305 .14199829 .46299745 .114990238 .45298768 .09399414 .44099427 .07699585 .42900086 .05999756 .4169922 .04598999 .4039917 .036987306 .3909912 .026992798 .3789978 .019989014 .36799623 .016998291 .35598756 .0129852299 .34599305 .010986328 .33799745 .010986328 .31900025 .010986328 .30499269 .017990113 .29599 .0309906 .2869873 .04399109 .2829895 .05999756 .2829895 .07699585 .2829895 .08799744 .2849884 .099990848 .28799439 .11299133 .29100038 .12599182 .29499818 .14299011 .2999878 .16499329L.33399964 .3019867Z" />

<path id="font_4_3" d="M.34999085 .055999757C.35499574 .034988405 .3659973 .018997193 .3829956 .0069885256 .39898683-.005004883 .41799928-.011001587 .43899537-.011001587 .45599366-.011001587 .47099305-.006011963 .48298646 .004989624 .49499513 .01499939 .5049896 .027999878 .5130005 .04399109 .5169983 .052993776 .5209961 .06298828 .5249939 .07398987 .5279999 .084991458 .5309906 .09599304 .5339966 .10598755 .5369873 .115997318 .5389862 .125 .54100039 .13198853 .5419922 .13899231 .54299929 .14199829 .54299929 .14299011 .54299929 .147995 .54100039 .15098572 .5379944 .1519928 .5349884 .15299988 .5319977 .15299988 .5309906 .15299988 .526001 .15299988 .5219879 .1519928 .5209961 .1499939 .519989 .14698792 .5179901 .14199829 .5169983 .1349945 .5139923 .12098694 .5099945 .10699463 .5059967 .09199524 .5009918 .07699585 .49598695 .06399536 .48999024 .051986696 .48399354 .039993287 .47698976 .02999878 .46998597 .022994996 .46199037 .01499939 .45298768 .010986328 .44198609 .010986328 .43099977 .010986328 .42399598 .01499939 .4189911 .021987915 .4139862 .0289917 .41099549 .039993287 .41099549 .056991579 .41099549 .06199646 .4119873 .068984989 .41299439 .07798767 .4139862 .085998538 .41600038 .09498596 .41799928 .10398865 .41999818 .11299133 .42199708 .12298584 .4249878 .1329956 .4269867 .14299011 .42900086 .1519928 .43099977 .16099549 .43598939 .1789856 .43998719 .19699097 .44499208 .21499634 .44999696 .23298645 .45399476 .25099183 .45899964 .2689972 .45999146 .272995 .46099855 .27799989 .46299745 .28399659 .46398927 .2899933 .46598817 .29599 .46798707 .30299378 .46899415 .30999757 .47099305 .31599427 .47200013 .32199098 .47299195 .32798768 .47499085 .33299256 .47599793 .33699037 .47698976 .34298707 .47898866 .34999085 .48098756 .35699464 .48199464 .3639984 .48399354 .36999513 .48599244 .3769989 .4869995 .38398744 .4889984 .3899994 .48999024 .394989 .4909973 .3999939 .4909973 .40299989 .4909973 .4039917 .4909973 .41299439 .48799134 .41999818 .48199464 .4249878 .47599793 .42900086 .46899415 .43099977 .46199037 .43099977 .46099855 .43099977 .45799256 .43099977 .45498658 .43099977 .45199586 .42999269 .44799806 .42900086 .44400025 .4269867 .43998719 .42399598 .43598939 .42099 .43199159 .41600038 .42799378 .41099549 .4249878 .40499879 .4229889 .3959961 .41799928 .37799073 .4119873 .35499574 .40499879 .32598878 .397995 .29699708 .3899994 .2679901 .3829956 .23799134 .37599183 .20799256 .36898805 .17999268 .3619995 .1539917 .35499574 .12799073 .35099793 .10798645 .34799195 .09498596 .34799195 .09399414 .34498597 .08898926 .33999635 .07998657 .33499146 .070999149 .32699586 .06199646 .31799317 .051986696 .30899049 .040985109 .29699708 .03199768 .2829895 .023986817 .2679901 .01499939 .2519989 .010986328 .23399353 .010986328 .22099304 .010986328 .20999146 .01399231 .20199585 .018997193 .19400025 .023986817 .18798828 .02999878 .18399048 .037994386 .1789856 .04598999 .17599488 .054992677 .1749878 .06498718 .17298889 .07398987 .17199707 .083999637 .17199707 .09298706 .17199707 .10699463 .17399597 .12199402 .1769867 .13899231 .17999268 .1559906 .18499756 .17298889 .18998719 .19099427 .19499207 .20799256 .19999695 .22599793 .20698548 .24398804 .21299744 .2619934 .21899414 .27999879 .22599793 .29699708 .23199463 .31199647 .23599243 .32398988 .23899842 .33299256 .24198914 .34199525 .24299622 .35099793 .24299622 .3600006 .24299622 .3829956 .23599243 .4019928 .22099304 .41799928 .20599365 .43399049 .18598938 .44198609 .16099549 .44198609 .14498902 .44198609 .1309967 .43798829 .117996219 .43099977 .10499573 .42399598 .09399414 .4149933 .084991458 .4039917 .07499695 .3929901 .066986087 .38198854 .05999756 .36898805 .052993776 .35598756 .04699707 .34298707 .041992189 .33198548 .036987306 .32099916 .033996583 .31098939 .03199768 .30299378 .02999878 .2939911 .0289917 .2889862 .0289917 .28799439 .0289917 .2829895 .0309906 .27999879 .033996583 .2789917 .036987306 .27799989 .039993287 .27799989 .040985109 .27799989 .04598999 .27799989 .049987794 .2789917 .050994874 .2809906 .051986696 .2829895 .053985597 .28799439 .056991579 .29599 .069992069 .33999635 .084991458 .37199403 .102996829 .3909912 .11999512 .4099884 .13899231 .41999818 .1579895 .41999818 .16299439 .41999818 .16799927 .4189911 .17399597 .41600038 .17999268 .41299439 .18299866 .40299989 .18299866 .3869934 .18299866 .375 .18099976 .36299134 .1769867 .34999085 .17298889 .33699037 .16899109 .32598878 .1659851 .31900025 .14698792 .2689972 .1329956 .22799683 .12298584 .19499207 .11299133 .1619873 .10798645 .13398743 .10798645 .10899353 .10798645 .084991458 .11199951 .06498718 .11999512 .049987794 .1269989 .034988405 .13699341 .022994996 .14898682 .01399231 .16099549 .004989624 .17399597-.0020141602 .18899536-.006011963 .20399475-.009002686 .21798706-.011001587 .23098755-.011001587 .24798584-.011001587 .2619934-.009002686 .2749939-.0040130617 .28799439 .0019989014 .29899598 .0079956059 .30899049 .01499939 .31799317 .021987915 .32699586 .0289917 .33399964 .036987306 .34098817 .04399109 .34599305 .050994874 .34999085 .055999757Z" />

<path id="font_5_5" d="M.33099366-.2400055C.33099366-.23901367 .32998658-.23701477 .32899476-.23500061 .32798768-.23200989 .32299806-.227005 .31399537-.21800232 .2829895-.18701172 .25698854-.15200806 .23699951-.11401367 .21598816-.07501221 .19999695-.036010744 .18899536 .005996704 .1769867 .04699707 .16899109 .08799744 .1639862 .12998963 .15899658 .17199707 .15699768 .21199036 .15699768 .25 .15699768 .29299928 .1599884 .33699037 .16499329 .37998963 .16999817 .4229889 .1789856 .46398927 .19198609 .5049896 .20399475 .54599 .21998596 .58399966 .24099732 .62098696 .2619934 .6579895 .2869873 .69200137 .31799317 .72299197 .32499696 .72898867 .32899476 .73298647 .32998658 .7350006 .33099366 .7369995 .33099366 .7389984 .33099366 .73999026 .33099366 .746994 .32798768 .75 .32099916 .75 .31799317 .75 .31098939 .74598696 .2999878 .73799136 .2889862 .72898867 .2749939 .71699526 .2599945 .69999697 .24499512 .68299868 .22799683 .6629944 .21099854 .6389923 .19299317 .61499026 .1769867 .58699038 .1619873 .5549927 .13699341 .5 .11999512 .44599916 .11199951 .3929901 .102996829 .33999635 .09899902 .2919922 .09899902 .25 .09899902 .23098755 .099990848 .20899964 .101989749 .18499756 .102996829 .1599884 .10699463 .1349945 .11199951 .10798645 .116989139 .08099365 .12298584 .052993776 .13198853 .023986817 .13999939-.006011963 .15098572-.03401184 .16499329-.06201172 .17999268-.09300232 .19599915-.120010379 .21299744-.14300537 .22999573-.16600037 .24699402-.18600464 .2619934-.20201111 .2769928-.21800232 .2899933-.23001099 .30099488-.23800659 .31199647-.2460022 .31799317-.25001527 .32099916-.25001527 .32798768-.25001527 .33099366-.24700928 .33099366-.2400055Z" />

<path id="font_5_2" d="M.2889862 .25C.2889862 .2689972 .28799439 .29100038 .2869873 .31599427 .2849884 .33999635 .28199769 .3659973 .2769928 .3929901 .27198792 .41999818 .2649994 .44799806 .25698854 .47698976 .24798584 .5059967 .23699951 .5339966 .22299195 .56199648 .20799256 .59298709 .19198609 .6199951 .1749878 .6429901 .1579895 .66600039 .14199829 .6859894 .1269989 .70199587 .11199951 .71798709 .09899902 .7299957 .08799744 .73799136 .07699585 .74598696 .069992069 .75 .066986087 .75 .05999756 .75 .056991579 .746994 .056991579 .73999026 .056991579 .7389984 .057998659 .7369995 .05999756 .7350006 .06098938 .7319946 .066986087 .7259979 .07598877 .71699526 .125 .6669922 .1639862 .6029968 .19099427 .5249939 .21798706 .44699098 .23098755 .35499574 .23098755 .25 .23098755 .20698548 .22898865 .16499329 .22399903 .12199402 .21899414 .07899475 .20999146 .036987306 .19699097-.0040130617 .18399048-.044006349 .16799927-.08300781 .14698792-.120010379 .12599182-.15701294 .100997928-.19200135 .069992069-.2230072 .06298828-.2290039 .05999756-.23300171 .05899048-.23500061 .057998659-.23701477 .056991579-.23901367 .056991579-.2400055 .056991579-.24700928 .05999756-.25001527 .066986087-.25001527 .069992069-.25001527 .07699585-.2460022 .08799744-.23800659 .09899902-.2290039 .11299133-.2170105 .12799073-.2000122 .14299011-.18301392 .1599884-.16300965 .17799378-.13900757 .19499207-.11500549 .21099854-.087005618 .22599793-.055007936 .25099183 0 .2679901 .054992677 .2769928 .10798645 .2849884 .16099549 .2889862 .20799256 .2889862 .25Z" />

<path id="font_5_1" d="M.37998963 .054992677V-.011001587L.5269928 0V.0309906C.5099945 .0309906 .49598695 .03199768 .48599244 .032989503 .47499085 .033996583 .46699525 .036987306 .46199037 .040985109 .45700074 .04499817 .45298768 .050994874 .45199586 .057998659 .44999696 .06498718 .44898988 .07499695 .44898988 .08699036V.69400027L.30499269 .68299868V.6519928C.32199098 .6519928 .33599855 .651001 .34700013 .6499939 .35699464 .6489868 .36499024 .6459961 .36999513 .6419983 .375 .6380005 .3789978 .6319885 .3809967 .625 .38198854 .6179962 .3829956 .60798647 .3829956 .59599307V.37998963C.36799623 .397995 .35099793 .41299439 .32998658 .4249878 .30899049 .43598939 .28399659 .44198609 .25698854 .44198609 .22799683 .44198609 .19999695 .43598939 .17298889 .4249878 .1459961 .41299439 .12199402 .39698792 .100997928 .3769989 .07998657 .35598756 .06399536 .33198548 .051986696 .30499269 .039993287 .2769928 .033996583 .24699402 .033996583 .21499634 .033996583 .18299866 .039993287 .15299988 .050994874 .12599182 .06199646 .09899902 .07798767 .07499695 .09700012 .054992677 .115997318 .033996583 .13899231 .017990113 .16499329 .0069885256 .18998719-.005004883 .21699524-.011001587 .24598694-.011001587 .27799989-.011001587 .30499269-.0040130617 .32798768 .009994507 .34999085 .023986817 .36698915 .038986207 .37998963 .054992677M.37998963 .32299806V.117996219C.37998963 .10899353 .37998963 .101989749 .3789978 .09899902 .37799073 .09599304 .37399293 .08999634 .36898805 .08099365 .35398866 .056991579 .33599855 .038986207 .31498719 .027999878 .2939911 .016998291 .27198792 .010986328 .25099183 .010986328 .22799683 .010986328 .20799256 .016998291 .19099427 .0289917 .17298889 .039993287 .1579895 .055999757 .1459961 .07499695 .1329956 .09599304 .125 .11898804 .12199402 .14498902 .11898804 .16999817 .116989139 .19299317 .116989139 .21398926 .116989139 .22299195 .116989139 .23399353 .117996219 .24598694 .11898804 .25698854 .11999512 .2689972 .12199402 .28199769 .12399292 .29499818 .1269989 .30699159 .1309967 .31999208 .1349945 .33299256 .14099121 .34498597 .147995 .35598756 .15899658 .37098695 .17298889 .38598634 .19198609 .3999939 .21099854 .41299439 .23399353 .41999818 .26098634 .41999818 .27799989 .41999818 .29699708 .41600038 .31698609 .40699769 .33599855 .397995 .35398866 .3829956 .36898805 .3600006 .37399293 .35099793 .37799073 .34498597 .3789978 .34199525 .37998963 .33898927 .37998963 .33198548 .37998963 .32299806Z" />

<path id="font_4_7" d="M.08799744 .05899048C.08699036 .051986696 .084991458 .042999269 .08299255 .033996583 .07998657 .024993897 .07899475 .018997193 .07899475 .015991211 .07899475 .0069885256 .08198547 0 .08799744-.005004883 .09399414-.009002686 .100997928-.011001587 .10798645-.011001587 .11399841-.011001587 .12098694-.009002686 .1289978-.005004883 .13598633 0 .14199829 .0069885256 .14498902 .016998291 .14498902 .017990113 .1459961 .020996094 .147995 .025985718 .14898682 .0309906 .15098572 .037994386 .15299988 .04598999 .15499878 .052993776 .15699768 .06098938 .15899658 .069992069 .16099549 .07798767 .16299439 .084991458 .1639862 .09098816 .16699219 .10598755 .17098999 .12098694 .1749878 .13598633 .1789856 .15098572 .18299866 .1659851 .18598938 .18099976 .18899536 .19198609 .19198609 .20399475 .19499207 .21499634 .19799805 .22599793 .19999695 .23699951 .20298767 .24798584 .20498657 .25698854 .20799256 .2669983 .21099854 .27799989 .21398926 .2889862 .21499634 .29599 .21598816 .2979889 .21998596 .30599977 .22599793 .31698609 .23498535 .33099366 .24299622 .34399415 .2539978 .35798646 .2679901 .37098695 .2809906 .38398744 .29699708 .3959961 .31599427 .4059906 .33399964 .4149933 .35499574 .41999818 .3789978 .41999818 .3899994 .41999818 .3999939 .41799928 .40699769 .4139862 .4139862 .40899659 .4189911 .4039917 .4229889 .39698792 .4269867 .3899994 .42999269 .3829956 .43099977 .375 .43199159 .3659973 .43299867 .35798646 .43299867 .34999085 .43299867 .33699037 .43199159 .32398988 .42900086 .31098939 .42599488 .29699708 .42199708 .28199769 .41799928 .2669983 .4149933 .2539978 .4119873 .24299622 .4099884 .23399353 .4079895 .22399903 .4059906 .21499634 .4039917 .20698548 .4019928 .19799805 .3999939 .18998719 .397995 .18099976 .394989 .17199707 .3929901 .1619873 .3899994 .15098572 .3869934 .14199829 .3849945 .13398743 .38398744 .12799073 .3829956 .12199402 .3809967 .116989139 .37998963 .11199951 .3789978 .10699463 .3769989 .100997928 .37599183 .09599304 .37399293 .08999634 .37199403 .08299255 .36999513 .07499695 .36898805 .069992069 .36698915 .06399536 .3659973 .057998659 .36499024 .051986696 .36299134 .04598999 .3619995 .039993287 .36099244 .033996583 .3600006 .0289917 .35899354 .024993897 .35798646 .019989014 .35699464 .016998291 .35699464 .015991211 .35699464 .0069885256 .3600006 0 .3659973-.005004883 .37199403-.009002686 .3789978-.011001587 .38598634-.011001587 .40098573-.011001587 .4119873-.006011963 .4169922 .005996704 .42199708 .016998291 .4269867 .02999878 .43099977 .04598999 .43399049 .05999756 .43899537 .07899475 .44499208 .101989749 .45098878 .125 .45700074 .14898682 .46299745 .17298889 .46899415 .19699097 .47499085 .21998596 .47999574 .24099732 .4850006 .2619934 .4889984 .2769928 .4909973 .2869873 .49198915 .2899933 .49598695 .29899598 .5029907 .31399537 .5099945 .32798768 .519989 .34298707 .5339966 .35899354 .5469971 .37399293 .56399539 .3880005 .58499148 .40098573 .6049957 .4139862 .6289978 .41999818 .6559906 .41999818 .6769867 .41999818 .69200137 .41299439 .69898989 .39898683 .70599368 .38398744 .70999148 .36799623 .70999148 .34999085 .70999148 .33599855 .70799258 .31900025 .7029877 .29899598 .69799807 .27799989 .69299319 .2579956 .68699648 .23699951 .6799927 .21598816 .6729889 .19499207 .66600039 .17599488 .6589966 .1559906 .6529999 .13899231 .647995 .12599182 .6429901 .11399841 .6399994 .10398865 .6380005 .09700012 .6359863 .08999634 .6349945 .08099365 .6349945 .070999149 .6349945 .04798889 .6429901 .027999878 .6589966 .0129852299 .673996-.0030059815 .69400027-.011001587 .71699526-.011001587 .73999026-.011001587 .7599945-.0030059815 .7769928 .011993408 .7939911 .026992798 .8069916 .04399109 .81799319 .06298828 .8279877 .08198547 .83599856 .09899902 .84098818 .115997318 .84599307 .13198853 .84799197 .14099121 .84799197 .14299011 .84799197 .147995 .84599307 .15098572 .84298709 .1519928 .83999636 .15299988 .83699038 .15299988 .83599856 .15299988 .83099368 .15299988 .8279877 .1519928 .82699587 .1499939 .82598879 .14698792 .82398989 .14199829 .82099917 .1349945 .81700137 .12199402 .81199648 .10798645 .8069916 .09298706 .8009949 .07798767 .7939911 .06498718 .7849884 .052993776 .776001 .040985109 .7669983 .0309906 .7559967 .022994996 .7449951 .01499939 .73298647 .010986328 .71899417 .010986328 .7029877 .010986328 .69499209 .021987915 .69499209 .04399109 .69499209 .056991579 .69699099 .068984989 .70098879 .08099365 .70399478 .09199524 .70799258 .10398865 .71299746 .114990238 .71798709 .12799073 .723999 .14399719 .73098757 .16299439 .73799136 .18199158 .74398806 .20199585 .7509918 .22299195 .7569885 .24398804 .7619934 .2639923 .7669983 .28399659 .7719879 .3039856 .7739868 .32099916 .7739868 .33499146 .7739868 .36799623 .7639923 .3939972 .7449951 .41299439 .7259979 .43199159 .69699099 .44198609 .6589966 .44198609 .62098696 .44198609 .58898928 .43299867 .5629883 .4139862 .5369873 .394989 .5149994 .37199403 .49598695 .34498597 .49499513 .35198976 .49299623 .3619995 .48999024 .3769989 .4869995 .3909912 .47799684 .4039917 .46398927 .41600038 .45098878 .4269867 .43798829 .43399049 .4229889 .43699647 .4079895 .43998719 .394989 .44198609 .38198854 .44198609 .35899354 .44198609 .33898927 .43899537 .32199098 .43199159 .30499269 .4249878 .2899933 .41600038 .2769928 .40699769 .2639923 .397995 .25299073 .3880005 .24499512 .3789978 .23599243 .36898805 .22999573 .36099244 .22599793 .35499574 .22299195 .38398744 .21299744 .40499879 .19499207 .41999818 .1769867 .43499757 .15699768 .44198609 .13398743 .44198609 .12298584 .44198609 .11299133 .43998719 .10499573 .43598939 .09599304 .43099977 .08898926 .42599488 .08299255 .41999818 .07699585 .4139862 .07199097 .4079895 .068984989 .4019928 .06498718 .394989 .06199646 .3899994 .05999756 .3849945 .054992677 .37599183 .050994874 .36698915 .04798889 .35598756 .04399109 .34498597 .040985109 .33399964 .037994386 .32499696 .034988405 .31498719 .032989503 .30699159 .03199768 .2999878 .02999878 .29299928 .0289917 .2889862 .0289917 .28799439 .0289917 .2829895 .0309906 .27999879 .033996583 .2789917 .036987306 .27799989 .039993287 .27799989 .040985109 .27799989 .04598999 .27799989 .049987794 .2789917 .050994874 .2809906 .051986696 .2829895 .054992677 .2899933 .057998659 .30099488 .066986087 .33699037 .07699585 .3659973 .08799744 .3880005 .09899902 .40899659 .11299133 .41999818 .1309967 .41999818 .13899231 .41999818 .1459961 .4169922 .15299988 .4119873 .15899658 .4059906 .1619873 .3929901 .1619873 .37399293 .1619873 .36898805 .1619873 .3639984 .1619873 .3600006 .16099549 .35499574 .1599884 .34999085 .15899658 .34399415 .1579895 .33799745 .1559906 .33099366 .1539917 .32199098 .1519928 .31298829 .14898682 .30299378 .1459961 .2899933L.08799744 .05899048Z" />

<path id="font_4_5" d="M.47099305 .3769989C.47200013 .37998963 .47200013 .3829956 .47299195 .38598634 .47399903 .3889923 .47399903 .3919983 .47399903 .394989 .47399903 .4039917 .47099305 .4099884 .46598817 .4149933 .46099855 .41999818 .45399476 .42199708 .44499208 .42199708 .44198609 .42199708 .43899537 .42199708 .43499757 .42099 .43099977 .41999818 .4269867 .4169922 .4229889 .4139862 .41799928 .41099549 .4139862 .4059906 .41099549 .40098573 .40699769 .394989 .40499879 .3880005 .4039917 .3789978 .394989 .397995 .38198854 .41299439 .3659973 .4249878 .34899903 .43598939 .33099366 .44198609 .31098939 .44198609 .28199769 .44198609 .2539978 .43399049 .22599793 .41799928 .19699097 .4019928 .17199707 .3809967 .14898682 .35398866 .12599182 .32699586 .10798645 .29699708 .09399414 .2630005 .07998657 .22898865 .07299805 .19400025 .07299805 .1579895 .07299805 .1329956 .07699585 .11099243 .083999637 .09199524 .09098816 .07199097 .099990848 .054992677 .11299133 .041992189 .125 .0289917 .13899231 .017990113 .15499878 .010986328 .17098999 .0039978029 .18798828 0 .20599365 0 .22099304 0 .23498535 .0029907227 .24798584 .0079956059 .26098634 .0129852299 .27198792 .017990113 .2829895 .024993897 .29299928 .03199768 .30099488 .037994386 .30799867 .04499817 .31498719 .050994874 .31900025 .054992677 .32199098 .057998659L.32299806 .056991579C.31199647 .011993408 .3039856-.021011353 .29899598-.042007448 .29299928-.06300354 .2899933-.07400513 .2899933-.07501221 .2889862-.07701111 .28599549-.08401489 .2809906-.0960083 .27598573-.10700989 .2679901-.120010379 .25698854-.13301087 .24598694-.14601135 .23098755-.15701294 .21299744-.16801453 .19499207-.17800904 .17298889-.18301392 .1459961-.18301392 .13699341-.18301392 .125-.18301392 .10998535-.18200684 .09498596-.18101502 .07998657-.17800904 .06599426-.17300415 .08099365-.16801453 .09199524-.16101074 .09799194-.15000916 .10398865-.13900757 .10699463-.13000489 .10699463-.1210022 .10699463-.11300659 .10398865-.10501099 .09799194-.0980072 .09199524-.0900116 .08198547-.086013797 .068984989-.086013797 .06399536-.086013797 .057998659-.087005618 .051986696-.0900116 .04499817-.0920105 .038986207-.09500122 .033996583-.1000061 .0289917-.10501099 .023986817-.11100769 .020996094-.118011478 .016998291-.12501526 .01499939-.13400269 .01499939-.14401245 .01499939-.16500855 .024993897-.18000794 .04598999-.19000244 .06599426-.2000122 .099990848-.20500183 .147995-.20500183 .1789856-.20500183 .20698548-.20100403 .23199463-.19200135 .25698854-.18301392 .27799989-.17201233 .29599-.15901184 .31298829-.14500427 .32699586-.13000489 .33799745-.11401367 .34899903-.0980072 .35598756-.08200073 .3600006-.06700134L.47099305 .3769989M.34098817 .12799073C.33799745 .114990238 .33099366 .101989749 .32199098 .08999634 .31199647 .07798767 .30099488 .066986087 .2899933 .057998659 .2789917 .04899597 .2669983 .039993287 .25299073 .032989503 .23799134 .025985718 .22399903 .021987915 .20899964 .021987915 .19599915 .021987915 .18598938 .024993897 .17799378 .0309906 .16899109 .035995485 .16299439 .04399109 .1579895 .052993776 .15299988 .06199646 .14898682 .07199097 .14698792 .08299255 .14498902 .09399414 .14399719 .10398865 .14399719 .11399841 .14399719 .12599182 .1459961 .14199829 .14898682 .16099549 .1519928 .17999268 .15699768 .20098877 .1619873 .22200012 .16699219 .24299622 .17298889 .2630005 .17999268 .2829895 .18699646 .3019867 .19299317 .31799317 .19999695 .33099366 .21299744 .35598756 .22999573 .3769989 .25 .3939972 .269989 .41099549 .29100038 .41999818 .31199647 .41999818 .32899476 .41999818 .34199525 .41600038 .35299684 .4079895 .36299134 .39898683 .37098695 .3899994 .3769989 .3789978 .3829956 .36799623 .3869934 .35899354 .3889923 .34999085 .3909912 .34098817 .3919983 .33499146 .3919983 .33399964 .3919983 .33099366 .3919983 .32899476 .3909912 .32598878 .3899994 .32299806 .3899994 .32099916 .3889923 .31900025L.34098817 .12799073Z" />

<path id="font_4_2" d="M.70799258 .23298645C.70899966 .23599243 .71099856 .23799134 .71199038 .24099732 .71299746 .24398804 .71299746 .24598694 .71299746 .24699402 .71299746 .24798584 .71299746 .25 .71199038 .25299073 .71099856 .2559967 .70700076 .2579956 .70098879 .2579956 .69599917 .2579956 .69299319 .25698854 .69200137 .25498963 .69099429 .2519989 .68899539 .24899292 .6879883 .24598694 .6719971 .20899964 .6569977 .1769867 .6419983 .1499939 .6269989 .12298584 .6100006 .099990848 .59098818 .08299255 .57199099 .06599426 .5479889 .052993776 .5209961 .04399109 .49299623 .034988405 .45799256 .0309906 .4149933 .0309906H.2689972C.2619934 .0309906 .25698854 .0309906 .25498963 .0309906 .25299073 .0309906 .25 .0309906 .24699402 .03199768 .24198914 .032989503 .23799134 .033996583 .23699951 .034988405 .23498535 .035995485 .23399353 .037994386 .23399353 .041992189 .23399353 .042999269 .23399353 .04499817 .23498535 .04798889 .23498535 .049987794 .23599243 .055999757 .23899842 .06498718L.30699159 .33799745H.4059906C.4269867 .33799745 .44400025 .33699037 .45498658 .33499146 .46598817 .33198548 .47499085 .32899476 .47999574 .32499696 .4850006 .31999208 .4889984 .31498719 .48999024 .30999757 .4909973 .3039856 .4909973 .2979889 .4909973 .2919922 .4909973 .2889862 .4909973 .28399659 .48999024 .2769928 .4889984 .269989 .4869995 .2579956 .48399354 .24299622 .48199464 .23799134 .48098756 .23399353 .48098756 .23199463 .48098756 .22898865 .48199464 .22698975 .48399354 .22499085 .48599244 .22200012 .4889984 .22099304 .49398805 .22099304 .5009918 .22099304 .5059967 .22799683 .5089874 .24099732L.56599429 .47499085C.56599429 .48199464 .56199648 .48599244 .55400088 .48599244 .548996 .48599244 .54599 .4850006 .54499819 .48199464 .54299929 .47898866 .54100039 .47399903 .5399933 .46798707 .5349884 .44898988 .5289917 .43299867 .5239868 .41999818 .5179901 .40699769 .5099945 .39698792 .5009918 .3899994 .49198915 .3829956 .47999574 .3769989 .46499635 .37399293 .44999696 .37098695 .43199159 .36898805 .40899659 .36898805H.31498719L.375 .6100006C.3769989 .61898806 .3789978 .6259918 .3809967 .6309967 .3829956 .6359863 .38598634 .6399994 .3889923 .6429901 .3919983 .6459961 .39698792 .6469879 .40299989 .647995 .40899659 .6489868 .41799928 .6489868 .42900086 .6489868H.56999209C.6009979 .6489868 .6259918 .6469879 .6459961 .6429901 .6649933 .6389923 .68099978 .6329956 .69200137 .6239929 .7029877 .61499026 .71099856 .60398867 .71598818 .58999636 .7200012 .57598879 .7220001 .5589905 .7220001 .5379944 .7220001 .5319977 .7220001 .5269928 .7220001 .522995 .7220001 .519989 .7220001 .5159912 .7220001 .5130005 .72099307 .5089874 .72099307 .5049896 .7200012 .5009918 .71899417 .49699403 .71899417 .49198915 .71798709 .4850006 .71798709 .48199464 .71798709 .47898866 .71798709 .47599793 .71699526 .47299195 .71699526 .46998597 .71699526 .46699525 .71699526 .46398927 .71798709 .46199037 .7200012 .45899964 .72099307 .45599366 .723999 .45498658 .72898867 .45498658 .73399356 .45498658 .73799136 .45700074 .7389984 .46099855 .73999026 .46398927 .74198916 .47099305 .7429962 .47999574L.7630005 .6529999C.7639923 .66600039 .7630005 .673996 .7599945 .6769867 .7569885 .67900088 .7489929 .6799927 .73599246 .6799927H.23098755C.22099304 .6799927 .21398926 .67900088 .20899964 .6779938 .20399475 .6759949 .20098877 .66999819 .20098877 .6599884 .20098877 .6549988 .20298767 .6519928 .20799256 .651001 .21299744 .6499939 .21998596 .6489868 .22898865 .6489868 .24798584 .6489868 .2630005 .647995 .27598573 .6469879 .28799439 .6459961 .2939911 .6399994 .2939911 .6309967 .2939911 .6289978 .2939911 .6269989 .2939911 .625 .29299928 .621994 .2919922 .6159973 .2889862 .6069946L.15699768 .07798767C.1539917 .067993167 .1519928 .05999756 .1499939 .053985597 .14698792 .04798889 .14299011 .042999269 .13798523 .039993287 .13198853 .036987306 .12399292 .033996583 .11299133 .032989503 .101989749 .03199768 .085998538 .0309906 .06599426 .0309906 .056991579 .0309906 .050994874 .02999878 .04598999 .0289917 .040985109 .026992798 .037994386 .020996094 .037994386 .011993408 .037994386 .005996704 .039993287 .0029907227 .04499817 .0019989014 .049987794 .0009918213 .056991579 0 .06599426 0H.58499148C.59599307 0 .60398867 .0009918213 .6069946 .0029907227 .6100006 .0039978029 .61299136 .008987427 .6159973 .016998291L.70799258 .23298645Z" />

<path id="font_4_8" d="M.20298767 .0009918213C.20298767 .033996583 .19699097 .05999756 .18598938 .07899475 .17399597 .09700012 .1579895 .10598755 .13899231 .10598755 .12199402 .10598755 .10899353 .100997928 .099990848 .08999634 .09098816 .07899475 .085998538 .066986087 .085998538 .052993776 .085998538 .039993287 .09098816 .027999878 .099990848 .016998291 .10899353 .005996704 .12199402 0 .13899231 0 .14498902 0 .15098572 .0009918213 .15699768 .0029907227 .16299439 .004989624 .16899109 .0079956059 .17399597 .0129852299 .1769867 .01499939 .17799378 .015991211 .1789856 .015991211 .17999268 .015991211 .17999268 .01499939 .18099976 .01399231 .18099976 .0129852299 .18099976 .0079956059 .18099976 .0009918213 .18099976-.036010744 .17399597-.069000247 .1599884-.0980072 .14498902-.12701416 .12998963-.14900208 .11299133-.16600037 .10798645-.17100525 .10499573-.17500305 .10398865-.17700196 .102996829-.17900086 .101989749-.18101502 .101989749-.18200684 .101989749-.18901062 .10499573-.19300843 .11199951-.19300843 .114990238-.19300843 .12098694-.18800354 .1309967-.17900086 .14099121-.17001343 .15098572-.15701294 .1619873-.14001465 .17298889-.1230011 .18199158-.102005008 .19099427-.07901001 .19898987-.055007936 .20298767-.028015137 .20298767 .0009918213Z" />

<path id="font_4_1" d="M.1789856 .114990238C.15899658 .08198547 .13899231 .05999756 .11898804 .04899597 .09899902 .037994386 .07798767 .03199768 .055999757 .0309906 .049987794 .02999878 .04499817 .0289917 .040985109 .027999878 .036987306 .025985718 .034988405 .019989014 .034988405 .010986328 .034988405 .0039978029 .038986207 0 .04798889 0 .06098938 0 .07598877 .0009918213 .09098816 .0019989014 .10598755 .0029907227 .11999512 .0029907227 .13398743 .0029907227 .15098572 .0029907227 .16799927 .0029907227 .18499756 .0019989014 .20199585 .0009918213 .21798706 0 .23399353 0 .23699951 0 .24099732 .0009918213 .24598694 .0029907227 .25099183 .0039978029 .25299073 .009994507 .25299073 .018997193 .25299073 .023986817 .25099183 .027999878 .24798584 .0289917 .24398804 .02999878 .23999024 .0309906 .23699951 .0309906 .22599793 .03199768 .21499634 .034988405 .20498657 .039993287 .19499207 .04499817 .18998719 .052993776 .18998719 .06599426 .18998719 .07199097 .19099427 .07798767 .19400025 .083999637 .19699097 .08898926 .19999695 .09599304 .20399475 .102996829 .20599365 .10598755 .20799256 .10899353 .20999146 .11199951 .21099854 .114990238 .21398926 .11999512 .21899414 .12799073 .22399903 .13598633 .23098755 .147995 .23999024 .1639862 .24899292 .1789856 .2630005 .20199585 .27999879 .23098755H.5309906C.5319977 .22599793 .5329895 .21499634 .5349884 .19799805 .5359955 .18099976 .5379944 .16299439 .5399933 .14399719 .5419922 .125 .5439911 .10699463 .54499819 .09199524 .54599 .07598877 .5469971 .066986087 .5469971 .06399536 .5469971 .056991579 .5439911 .050994874 .5389862 .04699707 .5329895 .041992189 .526001 .038986207 .5189972 .036987306 .5109863 .033996583 .5029907 .032989503 .49499513 .03199768 .48599244 .0309906 .47999574 .0309906 .47499085 .0309906 .46798707 .0309906 .46199037 .02999878 .45799256 .0289917 .45298768 .026992798 .45098878 .020996094 .45098878 .010986328 .45098878 .005996704 .45298768 .0029907227 .45700074 .0019989014 .46099855 .0009918213 .46398927 0 .46499635 0 .48599244 0 .5069885 .0009918213 .5279999 .0019989014 .548996 .0029907227 .56900027 .0029907227 .58999636 .0029907227 .59599307 .0029907227 .60398867 .0029907227 .61499026 .0029907227 .625 .0019989014 .6359863 .0019989014 .6469879 .0019989014 .6579895 .0009918213 .66799929 .0009918213 .67900088 .0009918213 .68899539 0 .69699099 0 .7029877 0 .70599368 0 .70999148 .0009918213 .71499636 .0029907227 .71899417 .0039978029 .72099307 .009994507 .72099307 .019989014 .72099307 .024993897 .71899417 .0289917 .71499636 .02999878 .70999148 .0309906 .7049866 .0309906 .69799807 .0309906 .68299868 .0309906 .67099 .03199768 .6619873 .032989503 .6529999 .033996583 .6469879 .034988405 .6429901 .037994386 .6389923 .040985109 .6369934 .04399109 .6359863 .04899597 .6349945 .053985597 .6339874 .05999756 .6329956 .066986087L.57199099 .69200137C.57099917 .70199587 .56900027 .70899966 .56799319 .71199038 .5669861 .71499636 .56199648 .71598818 .5529938 .71598818 .54499819 .71598818 .5399933 .71499636 .5369873 .71199038 .5339966 .70899966 .5299988 .70399478 .5269928 .69898989L.1789856 .114990238M.29899598 .2619934 .49598695 .59199526 .5279999 .2619934H.29899598Z" />

<path id="font_4_9" d="M.1269989 .09599304C.13598633 .06399536 .15098572 .037994386 .17399597 .018997193 .19599915-.0010070801 .22299195-.011001587 .25498963-.011001587 .2849884-.011001587 .31498719-.0030059815 .34399415 .01399231 .37298585 .02999878 .3999939 .051986696 .42399598 .07899475 .44699098 .10598755 .46598817 .13699341 .48098756 .17199707 .49499513 .20698548 .5019989 .24198914 .5019989 .2789917 .5019989 .30599977 .49798585 .32899476 .4909973 .34999085 .48298646 .36999513 .47299195 .3869934 .45999146 .40098573 .44699098 .4139862 .43299867 .4249878 .41600038 .43199159 .39898683 .43899537 .3809967 .44198609 .36299134 .44198609 .34298707 .44198609 .32199098 .43798829 .30099488 .42900086 .2789917 .41999818 .2579956 .4079895 .23799134 .3909912 .21699524 .37399293 .19799805 .35398866 .18099976 .32899476 .1639862 .3039856 .14898682 .27598573 .13798523 .24398804 .13699341 .24198914 .1349945 .23498535 .13198853 .22299195 .1289978 .20999146 .125 .19499207 .11999512 .17599488 .114990238 .15699768 .10998535 .13598633 .10499573 .11299133 .09899902 .08999634 .09399414 .066986087 .08999634 .04399109 .084991458 .020996094 .08198547-.0020141602 .07899475-.023010254 .07598877-.044006349 .07398987-.06201172 .07398987-.07701111 .07398987-.0900116 .07598877-.102005008 .07899475-.11401367 .08198547-.12600708 .08799744-.13700867 .09799194-.14601135 .10798645-.15501404 .12199402-.16200257 .14099121-.16700745 .15899658-.17201233 .18299866-.17500305 .21398926-.17500305 .23298645-.17500305 .24899292-.17401123 .2619934-.17300415 .2749939-.17201233 .29100038-.17100525 .31098939-.17100525 .31999208-.17100525 .32598878-.17100525 .32798768-.17100525 .33099366-.17100525 .33399964-.17100525 .33699037-.17201233 .34399415-.17300415 .34899903-.17401123 .35198976-.17500305 .35499574-.17601013 .35598756-.17800904 .35699464-.18200684 .35798646-.18501282 .35899354-.18800354 .3600006-.19100952 .36099244-.19300843 .3639984-.1940155 .36898805-.1940155 .37399293-.1940155 .3769989-.19200135 .37998963-.18901062 .3829956-.18600464 .38398744-.17800904 .38398744-.16600037 .38398744-.15400696 .3809967-.14500427 .37599183-.13800049 .36999513-.13101197 .36099244-.12701416 .34999085-.12400818 .33799745-.1210022 .32299806-.119003299 .30499269-.118011478 .28599549-.117004398 .2649994-.117004398 .23999024-.117004398 .21699524-.117004398 .19799805-.117004398 .18099976-.11601257 .1639862-.11500549 .14898682-.11300659 .13798523-.10900879 .1269989-.104003909 .117996219-.0980072 .11299133-.08900452 .10699463-.08000183 .10398865-.06700134 .10398865-.05000305 .10398865-.04600525 .10499573-.03300476 .10699463-.012008667 .10899353 .009994507 .115997318 .04598999 .1269989 .09599304M.25498963 .010986328C.24699402 .010986328 .23899842 .0129852299 .22999573 .015991211 .22099304 .018997193 .21398926 .024993897 .20698548 .032989503 .19999695 .040985109 .19400025 .051986696 .18899536 .06498718 .18399048 .07798767 .18199158 .09498596 .18199158 .115997318 .18199158 .13198853 .18399048 .1499939 .18699646 .16899109 .18998719 .18798828 .19499207 .20799256 .19999695 .22698975 .20498657 .24598694 .21099854 .2649994 .21798706 .28199769 .22399903 .29899598 .22999573 .31399537 .23699951 .32499696 .2579956 .3600006 .2789917 .3849945 .3019867 .39898683 .32499696 .41299439 .34399415 .41999818 .36099244 .41999818 .37998963 .41999818 .3959961 .4119873 .4099884 .39698792 .4229889 .38198854 .42999269 .35699464 .42999269 .32199098 .42999269 .30799867 .42799378 .29100038 .4249878 .27198792 .42199708 .2519989 .4169922 .23199463 .4119873 .21199036 .40699769 .19099427 .40098573 .17199707 .3939972 .15299988 .3869934 .13398743 .3809967 .117996219 .37399293 .10598755 .35699464 .07398987 .33799745 .049987794 .31698609 .034988405 .29499818 .018997193 .27398683 .010986328 .25498963 .010986328Z" />

<path id="font_5_4" d="M.68699648 .32699586C.69400027 .32699586 .70199587 .32798768 .70999148 .32998658 .71699526 .33099366 .72099307 .33699037 .72099307 .34700013 .72099307 .35699464 .71699526 .36299134 .70999148 .36499024 .7029877 .3659973 .69499209 .36698915 .6879883 .36698915H.08898926C.08198547 .36698915 .07398987 .3659973 .066986087 .36499024 .05999756 .36299134 .055999757 .35699464 .055999757 .34700013 .055999757 .33699037 .05999756 .33099366 .067993167 .32998658 .07499695 .32798768 .08299255 .32699586 .08999634 .32699586H.68699648M.6879883 .1329956C.69499209 .1329956 .7029877 .13398743 .70999148 .13598633 .71699526 .13699341 .72099307 .14299011 .72099307 .15299988 .72099307 .16299439 .71699526 .16899109 .70999148 .17098999 .70199587 .17199707 .69400027 .17298889 .68699648 .17298889H.08999634C.08299255 .17298889 .07499695 .17199707 .067993167 .17098999 .05999756 .16899109 .055999757 .16299439 .055999757 .15299988 .055999757 .14299011 .05999756 .13699341 .066986087 .13598633 .07398987 .13398743 .08198547 .1329956 .08898926 .1329956H.6879883Z" />

<path id="font_5_3" d="M.45999146 .31999208C.45999146 .3600006 .45799256 .3999939 .45298768 .43899537 .44799806 .47799684 .43699647 .5169983 .41999818 .55400088 .40899659 .5779877 .394989 .5970001 .37998963 .6119995 .36499024 .6269989 .34899903 .6380005 .33399964 .6459961 .31799317 .6539917 .30299378 .6589966 .28799439 .6619873 .272995 .6649933 .26098634 .66600039 .25 .66600039 .23498535 .66600039 .21899414 .6639862 .20298767 .6609955 .18699646 .6569977 .17098999 .651001 .1559906 .6419983 .14099121 .6329956 .12599182 .6199951 .11199951 .6049957 .09799194 .58999636 .085998538 .56999209 .07598877 .5469971 .05999756 .5119934 .049987794 .47599793 .04598999 .43798829 .040985109 .39898683 .038986207 .3600006 .038986207 .31999208 .038986207 .30099488 .039993287 .28199769 .040985109 .2619934 .041992189 .24099732 .04399109 .22099304 .04699707 .19999695 .049987794 .1789856 .053985597 .15899658 .05999756 .13798523 .06599426 .116989139 .07398987 .09799194 .083999637 .07899475 .09498596 .05899048 .10699463 .041992189 .12098694 .0289917 .1349945 .015991211 .1499939 .004989624 .16499329-.0020141602 .17999268-.009002686 .19400025-.015014648 .20899964-.018005372 .22399903-.021011353 .23699951-.022003174 .24899292-.022003174 .2619934-.022003174 .2769928-.020004273 .29299928-.01701355 .30799867-.014007568 .32398988-.008010864 .33999635 .0009918213 .35499574 .008987427 .36999513 .020996094 .3849945 .035995485 .39898683 .050994874 .4119873 .069992069 .4229889 .09399414 .43899537 .1289978 .44898988 .16499329 .45399476 .20298767 .45799256 .24099732 .45999146 .27999879 .45999146 .31999208M.24899292 0C.23899842 0 .22799683 .0019989014 .21699524 .005996704 .20599365 .008987427 .19499207 .015991211 .18399048 .024993897 .17298889 .033996583 .16299439 .04598999 .1539917 .06199646 .14498902 .07699585 .13798523 .09700012 .1329956 .12098694 .12998963 .13598633 .12799073 .1519928 .1269989 .17098999 .125 .18899536 .12399292 .20799256 .12298584 .22698975 .12199402 .24598694 .12199402 .2639923 .12199402 .28199769 .12199402 .30099488 .12199402 .31698609 .12199402 .33198548 .12199402 .3639984 .12199402 .3959961 .12298584 .42799378 .12399292 .45899964 .12599182 .4889984 .12998963 .5159912 .1349945 .54599 .14199829 .56999209 .15299988 .58699038 .1639862 .60398867 .1749878 .6159973 .18699646 .625 .19898987 .6329956 .21099854 .6380005 .22299195 .6409912 .23399353 .6429901 .24299622 .6439972 .24899292 .6439972 .25698854 .6439972 .2669983 .6429901 .2789917 .6399994 .2899933 .6369934 .3019867 .6309967 .31298829 .6230011 .32398988 .6139984 .33499146 .60198977 .34498597 .58699038 .35499574 .57199099 .3619995 .5519867 .36698915 .5269928 .37199403 .49899293 .375 .46798707 .37599183 .43299867 .3769989 .397995 .3769989 .3639984 .3769989 .33198548 .3769989 .2939911 .3769989 .2579956 .37599183 .22399903 .375 .18998719 .37098695 .15699768 .3659973 .125 .3619995 .100997928 .35598756 .08099365 .34799195 .06498718 .33898927 .04899597 .32998658 .035995485 .31900025 .026992798 .30799867 .016998291 .29599 .009994507 .28399659 .005996704 .27198792 .0019989014 .2599945 0 .24899292 0Z" />

<path id="font_4_6" d="M.2579956 .68299868C.2579956 .6839905 .2579956 .6859894 .25698854 .68899539 .2559967 .69200137 .2519989 .69400027 .24499512 .69400027 .23899842 .69400027 .23098755 .69400027 .21998596 .69299319 .20899964 .69200137 .19699097 .69099429 .18499756 .6899872 .17298889 .68899539 .16099549 .6879883 .1499939 .68699648 .13899231 .6859894 .12998963 .68499758 .12298584 .6839905 .11898804 .68299868 .114990238 .6819916 .11099243 .6799927 .10598755 .6779938 .10398865 .6719971 .10398865 .6629944 .10398865 .6579895 .10598755 .6549988 .11099243 .6539917 .115997318 .6529999 .12199402 .6519928 .1289978 .6519928 .14099121 .6519928 .1499939 .6519928 .15699768 .651001 .1639862 .6499939 .16899109 .647995 .17199707 .6469879 .1749878 .644989 .17599488 .6429901 .1769867 .6409912 .17799378 .6389923 .17799378 .6369934 .17799378 .6349945L.1749878 .61499026 .04899597 .114990238C.04798889 .10998535 .04699707 .10499573 .04598999 .099990848 .04499817 .09498596 .04399109 .08898926 .04399109 .08099365 .04399109 .066986087 .04699707 .053985597 .051986696 .042999269 .056991579 .03199768 .06298828 .021987915 .07199097 .01399231 .08099365 .005996704 .08999634 0 .100997928-.005004883 .11199951-.009002686 .12298584-.011001587 .1349945-.011001587 .16799927-.011001587 .19299317 .0079956059 .20999146 .04499817 .21499634 .053985597 .21899414 .06498718 .22299195 .07598877 .22599793 .08699036 .22898865 .09799194 .23199463 .10798645 .23498535 .116989139 .23699951 .125 .23799134 .13198853 .23899842 .13899231 .23999024 .14199829 .23999024 .14299011 .23999024 .147995 .23799134 .15098572 .23498535 .1519928 .23199463 .15299988 .22898865 .15299988 .22799683 .15299988 .22299195 .15299988 .21899414 .1519928 .21798706 .1499939 .21699524 .14698792 .21499634 .14199829 .21398926 .1349945 .20999146 .11898804 .20599365 .10398865 .20098877 .08898926 .19599915 .07398987 .19099427 .05999756 .18499756 .04899597 .1789856 .036987306 .17199707 .027999878 .16499329 .020996094 .15699768 .01399231 .147995 .010986328 .13798523 .010986328 .1309967 .010986328 .125 .0129852299 .12098694 .015991211 .116989139 .018997193 .11399841 .023986817 .11199951 .0289917 .10998535 .033996583 .10899353 .038986207 .10899353 .04399109 .10798645 .04899597 .10798645 .053985597 .10798645 .056991579 .10798645 .068984989 .10798645 .07798767 .10899353 .08299255 .10998535 .08799744 .11099243 .09599304 .11399841 .10499573L.2579956 .68299868Z" />

<clipPath id="clip_6">
<path transform="matrix(.1,0,0,-.1,383.811,377.41603)" d="M415.73 1798.43H1125.179V1905.442H415.73Z" clip-rule="evenodd" />
</clipPath>

</defs>
<g clip-path="url(#clip_3)">
<path transform="matrix(.1,0,0,-.1,383.811,377.41603)" stroke-width="11.3386" stroke-linecap="butt" stroke-miterlimit="2.6131" stroke-linejoin="miter" fill="none" stroke="#231f20" d="M718.59 114.734H823.31307V1798.424H718.59Z" />
<use data-text="x" xlink:href="#font_4_4" transform="matrix(11.9997,0,0,-11.9997,398.0555,276.073)" fill="#231f20" />
<use data-text="u" xlink:href="#font_4_3" transform="matrix(11.9997,0,0,-11.9997,428.1422,286.75154)" fill="#231f20" />
<use data-text="x" xlink:href="#font_4_4" transform="matrix(11.9997,0,0,-11.9997,439.66175,286.75154)" fill="#231f20" />
<use data-text="(" xlink:href="#font_5_5" transform="matrix(11.9997,0,0,-11.9997,435.00587,286.75154)" fill="#231f20" />
<use data-text=")" xlink:href="#font_5_2" transform="matrix(11.9997,0,0,-11.9997,446.51329,286.75154)" fill="#231f20" />
<path transform="matrix(.1,0,0,-.1,383.811,377.41603)" d="M718.59 795.754H823.31307V842.8673H718.59Z" fill="#231f20" fill-rule="evenodd" />
<path transform="matrix(.1,0,0,-.1,383.811,377.41603)" stroke-width="5.6693" stroke-linecap="butt" stroke-miterlimit="2.6131" stroke-linejoin="miter" fill="none" stroke="#231f20" d="M718.59 795.754H823.31307V842.8673H718.59Z" />
<use data-text="d" xlink:href="#font_5_1" transform="matrix(11.9997,0,0,-11.9997,470.243,298.09413)" fill="#231f20" />
<use data-text="m" xlink:href="#font_4_7" transform="matrix(11.9997,0,0,-11.9997,476.90318,298.09413)" fill="#231f20" />
<path transform="matrix(.1,0,0,-.1,383.811,377.41603)" stroke-width="5.6693" stroke-linecap="butt" stroke-miterlimit="2.6131" stroke-linejoin="miter" fill="none" stroke="#231f20" d="M302.496 1905.44V13.5781" />
<path transform="matrix(.1,0,0,-.1,383.811,377.41603)" d="M302.496 56.3789C308.914 56.375 315.328 58.7578 320.098 63L302.496 .835938 284.898 63C289.66 58.7578 296.082 56.3789 302.496 56.3789" fill="#231f20" fill-rule="evenodd" />
<path transform="matrix(.1,0,0,-.1,383.811,377.41603)" stroke-width="11.3386" stroke-linecap="butt" stroke-miterlimit="2.6131" stroke-linejoin="miter" fill="none" stroke="#231f20" d="M407.148 1034.02V835.418" />
<path transform="matrix(.1,0,0,-.1,383.811,377.41603)" d="M407.148 883.566C414.367 883.563 421.582 886.242 426.945 891.012L407.148 821.086 387.348 891.012C392.711 886.242 399.93 883.566 407.148 883.566" fill="#231f20" fill-rule="evenodd" />
<path transform="matrix(.1,0,0,-.1,383.811,377.41603)" stroke-width="5.6693" stroke-linecap="butt" stroke-miterlimit="2.6131" stroke-linejoin="miter" fill="none" stroke="#231f20" d="M711.961 819.313H374.164" />
<path transform="matrix(.1,0,0,-.1,383.811,377.41603)" stroke-width="5.6693" stroke-linecap="butt" stroke-miterlimit="2.6131" stroke-linejoin="miter" fill="none" stroke="#231f20" d="M235.184 1036.39H443.039" />
<use data-text="g" xlink:href="#font_4_5" transform="matrix(11.9997,0,0,-11.9997,487.52003,235.74002)" fill="#231f20" />
<path transform="matrix(.1,0,0,-.1,383.811,377.41603)" stroke-width="11.3386" stroke-linecap="butt" stroke-miterlimit="2.6131" stroke-linejoin="miter" fill="none" stroke="#231f20" d="M997.863 1615.12V1174.23" />
<path transform="matrix(.1,0,0,-.1,383.811,377.41603)" d="M997.863 1201.75C1005.08 1201.75 1012.3 1204.43 1017.66 1209.2L997.863 1139.27 978.063 1209.2C983.426 1204.43 990.645 1201.75 997.863 1201.75" fill="#231f20" fill-rule="evenodd" />
<use data-text="E" xlink:href="#font_4_2" transform="matrix(11.9997,0,0,-11.9997,471.74543,362.3156)" fill="#231f20" />
<use data-text=";" xlink:href="#font_4_8" transform="matrix(11.9997,0,0,-11.9997,480.6012,362.3156)" fill="#231f20" />
<use data-text="A" xlink:href="#font_4_1" transform="matrix(11.9997,0,0,-11.9997,483.9251,362.3156)" fill="#231f20" />
<use data-text=";" xlink:href="#font_4_8" transform="matrix(11.9997,0,0,-11.9997,492.92488,362.3156)" fill="#231f20" />
<use data-text="%" xlink:href="#font_4_9" transform="matrix(11.9997,0,0,-11.9997,496.24879,362.3156)" fill="#231f20" />
<use data-text="x" xlink:href="#font_4_4" transform="matrix(11.9997,0,0,-11.9997,383.9056,200.7716)" fill="#231f20" />
<use data-text="=" xlink:href="#font_5_4" transform="matrix(11.9997,0,0,-11.9997,390.75718,200.7716)" fill="#231f20" />
<use data-text="0" xlink:href="#font_5_3" transform="matrix(11.9997,0,0,-11.9997,400.08094,200.7716)" fill="#231f20" />
<use data-text="x" xlink:href="#font_4_4" transform="matrix(11.9997,0,0,-11.9997,383.9056,355.70564)" fill="#231f20" />
<use data-text="l" xlink:href="#font_4_6" transform="matrix(11.9997,0,0,-11.9997,400.08137,355.70564)" fill="#231f20" />
<use data-text="=" xlink:href="#font_5_4" transform="matrix(11.9997,0,0,-11.9997,390.75718,355.70564)" fill="#231f20" />
<path transform="matrix(.1,0,0,-.1,383.811,377.41603)" stroke-width="5.6693" stroke-linecap="butt" stroke-miterlimit="2.6131" stroke-linejoin="miter" fill="none" stroke="#231f20" d="M235.184 1798.43H302.504" />
<path transform="matrix(.1,0,0,-.1,383.811,377.41603)" stroke-width="5.6693" stroke-linecap="butt" stroke-miterlimit="2.6131" stroke-linejoin="miter" fill="none" stroke="#231f20" d="M235.184 248.633H302.504" />
<path transform="matrix(.1,0,0,-.1,383.811,377.41603)" stroke-width="11.3386" stroke-linecap="butt" stroke-miterlimit="2.6131" stroke-linejoin="miter" fill="none" stroke="#231f20" d="M415.891 1798.43H1126.01" />
<g clip-path="url(#clip_6)">
<path transform="matrix(.1,0,0,-.1,383.811,377.41603)" stroke-width="3.6" stroke-linecap="butt" stroke-miterlimit="2.6131" stroke-linejoin="miter" fill="none" stroke="#231f20" d="M790.883 1364.1 282.617 1872.36" />
<path transform="matrix(.1,0,0,-.1,383.811,377.41603)" stroke-width="3.6" stroke-linecap="butt" stroke-miterlimit="2.6131" stroke-linejoin="miter" fill="none" stroke="#231f20" d="M811.25 1384.46 302.98 1892.73" />
<path transform="matrix(.1,0,0,-.1,383.811,377.41603)" stroke-width="3.6" stroke-linecap="butt" stroke-miterlimit="2.6131" stroke-linejoin="miter" fill="none" stroke="#231f20" d="M831.613 1404.82 323.344 1913.09" />
<path transform="matrix(.1,0,0,-.1,383.811,377.41603)" stroke-width="3.6" stroke-linecap="butt" stroke-miterlimit="2.6131" stroke-linejoin="miter" fill="none" stroke="#231f20" d="M851.98 1425.19 343.711 1933.46" />
<path transform="matrix(.1,0,0,-.1,383.811,377.41603)" stroke-width="3.6" stroke-linecap="butt" stroke-miterlimit="2.6131" stroke-linejoin="miter" fill="none" stroke="#231f20" d="M872.344 1445.55 364.074 1953.82" />
<path transform="matrix(.1,0,0,-.1,383.811,377.41603)" stroke-width="3.6" stroke-linecap="butt" stroke-miterlimit="2.6131" stroke-linejoin="miter" fill="none" stroke="#231f20" d="M892.707 1465.92 384.441 1974.19" />
<path transform="matrix(.1,0,0,-.1,383.811,377.41603)" stroke-width="3.6" stroke-linecap="butt" stroke-miterlimit="2.6131" stroke-linejoin="miter" fill="none" stroke="#231f20" d="M913.074 1486.29 404.805 1994.55" />
<path transform="matrix(.1,0,0,-.1,383.811,377.41603)" stroke-width="3.6" stroke-linecap="butt" stroke-miterlimit="2.6131" stroke-linejoin="miter" fill="none" stroke="#231f20" d="M933.438 1506.65 425.168 2014.92" />
<path transform="matrix(.1,0,0,-.1,383.811,377.41603)" stroke-width="3.6" stroke-linecap="butt" stroke-miterlimit="2.6131" stroke-linejoin="miter" fill="none" stroke="#231f20" d="M953.801 1527.02 445.535 2035.28" />
<path transform="matrix(.1,0,0,-.1,383.811,377.41603)" stroke-width="3.6" stroke-linecap="butt" stroke-miterlimit="2.6131" stroke-linejoin="miter" fill="none" stroke="#231f20" d="M974.168 1547.38 465.898 2055.65" />
<path transform="matrix(.1,0,0,-.1,383.811,377.41603)" stroke-width="3.6" stroke-linecap="butt" stroke-miterlimit="2.6131" stroke-linejoin="miter" fill="none" stroke="#231f20" d="M994.531 1567.74 486.262 2076.01" />
<path transform="matrix(.1,0,0,-.1,383.811,377.41603)" stroke-width="3.6" stroke-linecap="butt" stroke-miterlimit="2.6131" stroke-linejoin="miter" fill="none" stroke="#231f20" d="M1014.89 1588.11 506.629 2096.38" />
<path transform="matrix(.1,0,0,-.1,383.811,377.41603)" stroke-width="3.6" stroke-linecap="butt" stroke-miterlimit="2.6131" stroke-linejoin="miter" fill="none" stroke="#231f20" d="M1035.26 1608.47 526.992 2116.74" />
<path transform="matrix(.1,0,0,-.1,383.811,377.41603)" stroke-width="3.6" stroke-linecap="butt" stroke-miterlimit="2.6131" stroke-linejoin="miter" fill="none" stroke="#231f20" d="M1055.63 1628.84 547.355 2137.11" />
<path transform="matrix(.1,0,0,-.1,383.811,377.41603)" stroke-width="3.6" stroke-linecap="butt" stroke-miterlimit="2.6131" stroke-linejoin="miter" fill="none" stroke="#231f20" d="M1075.99 1649.2 567.723 2157.47" />
<path transform="matrix(.1,0,0,-.1,383.811,377.41603)" stroke-width="3.6" stroke-linecap="butt" stroke-miterlimit="2.6131" stroke-linejoin="miter" fill="none" stroke="#231f20" d="M1096.36 1669.57 588.086 2177.84" />
<path transform="matrix(.1,0,0,-.1,383.811,377.41603)" stroke-width="3.6" stroke-linecap="butt" stroke-miterlimit="2.6131" stroke-linejoin="miter" fill="none" stroke="#231f20" d="M1116.72 1689.93 608.449 2198.2" />
<path transform="matrix(.1,0,0,-.1,383.811,377.41603)" stroke-width="3.6" stroke-linecap="butt" stroke-miterlimit="2.6131" stroke-linejoin="miter" fill="none" stroke="#231f20" d="M1137.09 1710.3 628.816 2218.56" />
<path transform="matrix(.1,0,0,-.1,383.811,377.41603)" stroke-width="3.6" stroke-linecap="butt" stroke-miterlimit="2.6131" stroke-linejoin="miter" fill="none" stroke="#231f20" d="M1157.45 1730.66 649.18 2238.93" />
<path transform="matrix(.1,0,0,-.1,383.811,377.41603)" stroke-width="3.6" stroke-linecap="butt" stroke-miterlimit="2.6131" stroke-linejoin="miter" fill="none" stroke="#231f20" d="M1177.81 1751.02 669.547 2259.29" />
<path transform="matrix(.1,0,0,-.1,383.811,377.41603)" stroke-width="3.6" stroke-linecap="butt" stroke-miterlimit="2.6131" stroke-linejoin="miter" fill="none" stroke="#231f20" d="M1198.18 1771.39 689.91 2279.66" />
<path transform="matrix(.1,0,0,-.1,383.811,377.41603)" stroke-width="3.6" stroke-linecap="butt" stroke-miterlimit="2.6131" stroke-linejoin="miter" fill="none" stroke="#231f20" d="M1218.54 1791.75 710.273 2300.02" />
<path transform="matrix(.1,0,0,-.1,383.811,377.41603)" stroke-width="3.6" stroke-linecap="butt" stroke-miterlimit="2.6131" stroke-linejoin="miter" fill="none" stroke="#231f20" d="M1238.91 1812.12 730.641 2320.39" />
<path transform="matrix(.1,0,0,-.1,383.811,377.41603)" stroke-width="3.6" stroke-linecap="butt" stroke-miterlimit="2.6131" stroke-linejoin="miter" fill="none" stroke="#231f20" d="M1259.27 1832.48 751.004 2340.75" />
<path transform="matrix(.1,0,0,-.1,383.811,377.41603)" stroke-width="3.6" stroke-linecap="butt" stroke-miterlimit="2.6131" stroke-linejoin="miter" fill="none" stroke="#231f20" d="M1279.64 1852.85 771.367 2361.12" />
</g>
</g>
<g clip-path="url(#clip_6)">
<path transform="matrix(.1,0,0,-.1,383.811,377.41603)" stroke-width="3.6" stroke-linecap="butt" stroke-miterlimit="2.6131" stroke-linejoin="miter" fill="none" stroke="#231f20" d="M790.883 1364.1 282.617 1872.36" />
<path transform="matrix(.1,0,0,-.1,383.811,377.41603)" stroke-width="3.6" stroke-linecap="butt" stroke-miterlimit="2.6131" stroke-linejoin="miter" fill="none" stroke="#231f20" d="M811.25 1384.46 302.98 1892.73" />
<path transform="matrix(.1,0,0,-.1,383.811,377.41603)" stroke-width="3.6" stroke-linecap="butt" stroke-miterlimit="2.6131" stroke-linejoin="miter" fill="none" stroke="#231f20" d="M831.613 1404.82 323.344 1913.09" />
<path transform="matrix(.1,0,0,-.1,383.811,377.41603)" stroke-width="3.6" stroke-linecap="butt" stroke-miterlimit="2.6131" stroke-linejoin="miter" fill="none" stroke="#231f20" d="M851.98 1425.19 343.711 1933.46" />
<path transform="matrix(.1,0,0,-.1,383.811,377.41603)" stroke-width="3.6" stroke-linecap="butt" stroke-miterlimit="2.6131" stroke-linejoin="miter" fill="none" stroke="#231f20" d="M872.344 1445.55 364.074 1953.82" />
<path transform="matrix(.1,0,0,-.1,383.811,377.41603)" stroke-width="3.6" stroke-linecap="butt" stroke-miterlimit="2.6131" stroke-linejoin="miter" fill="none" stroke="#231f20" d="M892.707 1465.92 384.441 1974.19" />
<path transform="matrix(.1,0,0,-.1,383.811,377.41603)" stroke-width="3.6" stroke-linecap="butt" stroke-miterlimit="2.6131" stroke-linejoin="miter" fill="none" stroke="#231f20" d="M913.074 1486.29 404.805 1994.55" />
<path transform="matrix(.1,0,0,-.1,383.811,377.41603)" stroke-width="3.6" stroke-linecap="butt" stroke-miterlimit="2.6131" stroke-linejoin="miter" fill="none" stroke="#231f20" d="M933.438 1506.65 425.168 2014.92" />
<path transform="matrix(.1,0,0,-.1,383.811,377.41603)" stroke-width="3.6" stroke-linecap="butt" stroke-miterlimit="2.6131" stroke-linejoin="miter" fill="none" stroke="#231f20" d="M953.801 1527.02 445.535 2035.28" />
<path transform="matrix(.1,0,0,-.1,383.811,377.41603)" stroke-width="3.6" stroke-linecap="butt" stroke-miterlimit="2.6131" stroke-linejoin="miter" fill="none" stroke="#231f20" d="M974.168 1547.38 465.898 2055.65" />
<path transform="matrix(.1,0,0,-.1,383.811,377.41603)" stroke-width="3.6" stroke-linecap="butt" stroke-miterlimit="2.6131" stroke-linejoin="miter" fill="none" stroke="#231f20" d="M994.531 1567.74 486.262 2076.01" />
<path transform="matrix(.1,0,0,-.1,383.811,377.41603)" stroke-width="3.6" stroke-linecap="butt" stroke-miterlimit="2.6131" stroke-linejoin="miter" fill="none" stroke="#231f20" d="M1014.89 1588.11 506.629 2096.38" />
<path transform="matrix(.1,0,0,-.1,383.811,377.41603)" stroke-width="3.6" stroke-linecap="butt" stroke-miterlimit="2.6131" stroke-linejoin="miter" fill="none" stroke="#231f20" d="M1035.26 1608.47 526.992 2116.74" />
<path transform="matrix(.1,0,0,-.1,383.811,377.41603)" stroke-width="3.6" stroke-linecap="butt" stroke-miterlimit="2.6131" stroke-linejoin="miter" fill="none" stroke="#231f20" d="M1055.63 1628.84 547.355 2137.11" />
<path transform="matrix(.1,0,0,-.1,383.811,377.41603)" stroke-width="3.6" stroke-linecap="butt" stroke-miterlimit="2.6131" stroke-linejoin="miter" fill="none" stroke="#231f20" d="M1075.99 1649.2 567.723 2157.47" />
<path transform="matrix(.1,0,0,-.1,383.811,377.41603)" stroke-width="3.6" stroke-linecap="butt" stroke-miterlimit="2.6131" stroke-linejoin="miter" fill="none" stroke="#231f20" d="M1096.36 1669.57 588.086 2177.84" />
<path transform="matrix(.1,0,0,-.1,383.811,377.41603)" stroke-width="3.6" stroke-linecap="butt" stroke-miterlimit="2.6131" stroke-linejoin="miter" fill="none" stroke="#231f20" d="M1116.72 1689.93 608.449 2198.2" />
<path transform="matrix(.1,0,0,-.1,383.811,377.41603)" stroke-width="3.6" stroke-linecap="butt" stroke-miterlimit="2.6131" stroke-linejoin="miter" fill="none" stroke="#231f20" d="M1137.09 1710.3 628.816 2218.56" />
<path transform="matrix(.1,0,0,-.1,383.811,377.41603)" stroke-width="3.6" stroke-linecap="butt" stroke-miterlimit="2.6131" stroke-linejoin="miter" fill="none" stroke="#231f20" d="M1157.45 1730.66 649.18 2238.93" />
<path transform="matrix(.1,0,0,-.1,383.811,377.41603)" stroke-width="3.6" stroke-linecap="butt" stroke-miterlimit="2.6131" stroke-linejoin="miter" fill="none" stroke="#231f20" d="M1177.81 1751.02 669.547 2259.29" />
<path transform="matrix(.1,0,0,-.1,383.811,377.41603)" stroke-width="3.6" stroke-linecap="butt" stroke-miterlimit="2.6131" stroke-linejoin="miter" fill="none" stroke="#231f20" d="M1198.18 1771.39 689.91 2279.66" />
<path transform="matrix(.1,0,0,-.1,383.811,377.41603)" stroke-width="3.6" stroke-linecap="butt" stroke-miterlimit="2.6131" stroke-linejoin="miter" fill="none" stroke="#231f20" d="M1218.54 1791.75 710.273 2300.02" />
<path transform="matrix(.1,0,0,-.1,383.811,377.41603)" stroke-width="3.6" stroke-linecap="butt" stroke-miterlimit="2.6131" stroke-linejoin="miter" fill="none" stroke="#231f20" d="M1238.91 1812.12 730.641 2320.39" />
<path transform="matrix(.1,0,0,-.1,383.811,377.41603)" stroke-width="3.6" stroke-linecap="butt" stroke-miterlimit="2.6131" stroke-linejoin="miter" fill="none" stroke="#231f20" d="M1259.27 1832.48 751.004 2340.75" />
<path transform="matrix(.1,0,0,-.1,383.811,377.41603)" stroke-width="3.6" stroke-linecap="butt" stroke-miterlimit="2.6131" stroke-linejoin="miter" fill="none" stroke="#231f20" d="M1279.64 1852.85 771.367 2361.12" />
</g>

</svg>