<svg xmlns="http://www.w3.org/2000/svg" xmlns:xlink="http://www.w3.org/1999/xlink" version="1.1" width="182.000" height="293.000" viewBox="342.418 177.035 182.000 293.000">
<defs>
<clipPath id="clip_2">
<path transform="matrix(1,0,0,-1,352.418,460.035)" d="M0 0H162V273H0Z" />
</clipPath>

<clipPath id="clip_3">
<path transform="matrix(.1,0,0,-.1,352.418,460.035)" d="M240.602 193.637H331.5395V218.17609H240.602Z" clip-rule="evenodd" />
</clipPath>

</defs>
<g clip-path="url(#clip_2)">
<path transform="matrix(.1,0,0,-.1,352.418,460.035)" d="M68.0039 2720.62H4.64063V2717.15H7.03516C15.6406 2717.15 16 2715.95 16 2711.53V2648.29C16 2643.87 15.6406 2642.67 7.03516 2642.67H4.64063V2639.2C7.50781 2639.44 18.1523 2639.44 21.7383 2639.44 25.9219 2639.44 36.4414 2639.44 39.9102 2639.2V2642.67H36.3242C25.9219 2642.67 25.6836 2644.11 25.6836 2648.41V2678.18H36.2031C47.4414 2678.18 48.6367 2674.23 48.6367 2664.19H51.2656V2695.63H48.6367C48.6367 2685.59 47.4414 2681.64 36.2031 2681.64H25.6836V2712.37C25.6836 2716.31 25.9219 2717.15 31.1797 2717.15H46.125C63.3398 2717.15 66.8086 2710.82 68.4844 2693.96H71.1094L68.0039 2720.62ZM86.293 2667.06C86.293 2678.66 91.0742 2689.54 100.281 2689.54 101.238 2689.54 101.477 2689.54 101.953 2689.41 101 2688.94 99.0859 2688.22 99.0859 2684.99 99.0859 2681.52 101.836 2680.21 103.75 2680.21 106.137 2680.21 108.531 2681.76 108.531 2684.99 108.531 2688.58 105.301 2691.93 100.164 2691.93 90 2691.93 86.5352 2680.93 85.8164 2678.66H85.6953V2691.93L69.6758 2690.61V2687.14C77.8047 2687.14 78.7617 2686.31 78.7617 2680.45V2648.05C78.7617 2642.67 77.4453 2642.67 69.6758 2642.67V2639.2C73.0234 2639.44 79.5977 2639.44 83.1875 2639.44 86.4102 2639.44 94.9023 2639.44 97.6523 2639.2V2642.67H95.2578C86.5352 2642.67 86.293 2643.98 86.293 2648.29V2667.06ZM157.543 2666.94C160.176 2666.94 160.414 2666.94 160.414 2669.21 160.414 2681.29 153.957 2692.52 139.492 2692.52 125.863 2692.52 115.344 2680.21 115.344 2665.38 115.344 2649.61 127.535 2638.01 140.809 2638.01 155.031 2638.01 160.414 2650.92 160.414 2653.43 160.414 2654.15 159.816 2654.63 159.098 2654.63 158.141 2654.63 157.906 2654.03 157.664 2653.43 154.559 2643.39 146.547 2640.64 141.527 2640.64 136.504 2640.64 124.43 2643.98 124.43 2664.67V2666.94H157.543ZM124.551 2669.21C125.504 2687.98 136.027 2690.13 139.371 2690.13 152.164 2690.13 152.883 2673.28 153 2669.21H124.551ZM184.563 2712.85C184.563 2715.95 182.055 2718.7 178.703 2718.7 175.594 2718.7 172.965 2716.2 172.965 2712.96 172.965 2709.38 175.836 2707.11 178.703 2707.11 182.41 2707.11 184.563 2710.22 184.563 2712.85ZM168.063 2690.61V2687.14C175.715 2687.14 176.793 2686.43 176.793 2680.57V2648.05C176.793 2642.67 175.477 2642.67 167.707 2642.67V2639.2C171.055 2639.44 176.793 2639.44 180.258 2639.44 181.574 2639.44 188.508 2639.44 192.57 2639.2V2642.67C184.801 2642.67 184.324 2643.27 184.324 2647.93V2691.93L168.063 2690.61ZM235.371 2689.77C235.371 2691.93 235.371 2692.52 234.176 2692.52 233.219 2692.52 230.949 2689.89 230.109 2688.82 226.402 2691.8 222.699 2692.52 218.871 2692.52 204.406 2692.52 200.105 2684.63 200.105 2678.06 200.105 2676.74 200.105 2672.56 204.645 2668.38 208.473 2665.03 212.535 2664.19 218.035 2663.11 224.613 2661.8 226.164 2661.44 229.152 2659.05 231.305 2657.25 232.859 2654.63 232.859 2651.28 232.859 2646.14 229.871 2640.4 219.352 2640.4 211.461 2640.4 205.723 2644.94 203.09 2656.9 202.613 2659.05 202.613 2659.17 202.492 2659.29 202.254 2659.77 201.777 2659.77 201.418 2659.77 200.105 2659.77 200.105 2659.17 200.105 2657.02V2640.76C200.105 2638.61 200.105 2638.01 201.301 2638.01 201.895 2638.01 202.016 2638.13 204.051 2640.64 204.645 2641.47 204.645 2641.71 206.438 2643.63 210.984 2638.01 217.438 2638.01 219.469 2638.01 232.023 2638.01 238.242 2644.94 238.242 2654.39 238.242 2660.84 234.297 2664.67 233.219 2665.75 228.914 2669.45 225.688 2670.17 217.797 2671.6 214.207 2672.32 205.484 2673.99 205.484 2681.16 205.484 2684.87 207.992 2690.37 218.754 2690.37 231.785 2690.37 232.5 2679.25 232.742 2675.55 232.859 2674.59 233.695 2674.59 234.055 2674.59 235.371 2674.59 235.371 2675.19 235.371 2677.34V2689.77ZM285.582 2683.44C284.148 2683.44 279.727 2683.44 279.727 2678.54 279.727 2675.66 281.758 2673.63 284.629 2673.63 287.375 2673.63 289.648 2675.31 289.648 2678.77 289.648 2686.79 281.281 2692.52 271.598 2692.52 257.605 2692.52 246.488 2680.09 246.488 2665.03 246.488 2649.72 257.969 2638.01 271.477 2638.01 287.258 2638.01 290.844 2652.35 290.844 2653.43 290.844 2654.5 290.008 2654.5 289.648 2654.5 288.574 2654.5 288.453 2654.15 288.094 2652.71 285.465 2644.22 279.008 2640.64 272.551 2640.64 265.262 2640.64 255.574 2646.97 255.574 2665.14 255.574 2684.99 265.738 2689.89 271.715 2689.89 276.258 2689.89 282.832 2688.1 285.582 2683.44ZM344.309 2668.26C344.309 2679.38 344.309 2682.72 341.559 2686.55 338.09 2691.21 332.473 2691.93 328.41 2691.93 318.129 2691.93 313.344 2684.16 311.668 2680.45H311.551V2722.17L294.934 2720.86V2717.39C303.063 2717.39 304.02 2716.55 304.02 2710.7V2648.05C304.02 2642.67 302.703 2642.67 294.934 2642.67V2639.2C298.039 2639.44 304.5 2639.44 307.844 2639.44 311.313 2639.44 317.766 2639.44 320.875 2639.2V2642.67C313.223 2642.67 311.789 2642.67 311.789 2648.05V2670.29C311.789 2682.84 320.039 2689.54 327.449 2689.54 334.863 2689.54 336.535 2683.44 336.535 2676.14V2648.05C336.535 2642.67 335.223 2642.67 327.449 2642.67V2639.2C330.559 2639.44 337.016 2639.44 340.363 2639.44 343.828 2639.44 350.285 2639.44 353.395 2639.2V2642.67C347.414 2642.67 344.426 2642.67 344.309 2646.25V2668.26ZM409.223 2668.26C409.223 2679.38 409.223 2682.72 406.473 2686.55 403.008 2691.21 397.391 2691.93 393.324 2691.93 381.727 2691.93 377.184 2682 376.23 2679.61H376.105V2691.93L359.852 2690.61V2687.14C367.977 2687.14 368.934 2686.31 368.934 2680.45V2648.05C368.934 2642.67 367.621 2642.67 359.852 2642.67V2639.2C362.957 2639.44 369.414 2639.44 372.758 2639.44 376.23 2639.44 382.684 2639.44 385.793 2639.2V2642.67C378.141 2642.67 376.707 2642.67 376.707 2648.05V2670.29C376.707 2682.84 384.953 2689.54 392.367 2689.54 399.777 2689.54 401.453 2683.44 401.453 2676.14V2648.05C401.453 2642.67 400.141 2642.67 392.367 2642.67V2639.2C395.477 2639.44 401.93 2639.44 405.277 2639.44 408.746 2639.44 415.203 2639.44 418.309 2639.2V2642.67C412.332 2642.67 409.344 2642.67 409.223 2646.25V2668.26ZM441.859 2712.85C441.859 2715.95 439.352 2718.7 436.004 2718.7 432.895 2718.7 430.262 2716.2 430.262 2712.96 430.262 2709.38 433.133 2707.11 436.004 2707.11 439.707 2707.11 441.859 2710.22 441.859 2712.85ZM425.363 2690.61V2687.14C433.012 2687.14 434.09 2686.43 434.09 2680.57V2648.05C434.09 2642.67 432.773 2642.67 425.004 2642.67V2639.2C428.352 2639.44 434.09 2639.44 437.555 2639.44 438.871 2639.44 445.805 2639.44 449.871 2639.2V2642.67C442.102 2642.67 441.621 2643.27 441.621 2647.93V2691.93L425.363 2690.61ZM473.539 2687.26H490.398V2690.73H473.539V2712.73H470.91C470.789 2701.49 466.488 2690.01 455.609 2689.65V2687.26H465.77V2654.03C465.77 2640.76 474.617 2638.01 480.953 2638.01 488.484 2638.01 492.43 2645.42 492.43 2654.03V2660.84H489.797V2654.27C489.797 2645.66 486.332 2640.64 481.668 2640.64 473.539 2640.64 473.539 2651.75 473.539 2653.79V2687.26ZM518.969 2687.26H535.824V2690.73H518.969V2712.73H516.34C516.219 2701.49 511.914 2690.01 501.035 2689.65V2687.26H511.199V2654.03C511.199 2640.76 520.043 2638.01 526.379 2638.01 533.91 2638.01 537.859 2645.42 537.859 2654.03V2660.84H535.227V2654.27C535.227 2645.66 531.762 2640.64 527.098 2640.64 518.969 2640.64 518.969 2651.75 518.969 2653.79V2687.26" />
<path transform="matrix(.1,0,0,-.1,352.418,460.035)" stroke-width="11.3386" stroke-linecap="butt" stroke-miterlimit="22.9256" stroke-linejoin="miter" fill="none" stroke="#231f20" d="M398.715 2310.12H719.98806V2505.183H398.715Z" />
<path transform="matrix(.1,0,0,-.1,352.418,460.035)" stroke-width="11.3386" stroke-linecap="butt" stroke-miterlimit="22.9256" stroke-linejoin="miter" fill="none" stroke="#231f20" d="M1291.77 2310.12H1613.043V2505.183H1291.77Z" />
<path transform="matrix(.1,0,0,-.1,352.418,460.035)" stroke-width="42.5197" stroke-linecap="butt" stroke-miterlimit="22.9256" stroke-linejoin="miter" fill="none" stroke="#ffffff" d="M563.176 2407.65H807.961" />
<path transform="matrix(.1,0,0,-.1,352.418,460.035)" stroke-width="11.3386" stroke-linecap="butt" stroke-miterlimit="22.9256" stroke-linejoin="miter" fill="none" stroke="#231f20" d="M563.176 2407.65H768.07" />
<path transform="matrix(.1,0,0,-.1,352.418,460.035)" d="M807.961 2407.65 751.305 2425.08C759.398 2413.46 759.398 2401.84 751.305 2390.21L807.961 2407.65" fill="#231f20" fill-rule="evenodd" />
<path transform="matrix(.1,0,0,-.1,352.418,460.035)" stroke-width="42.5197" stroke-linecap="butt" stroke-miterlimit="22.9256" stroke-linejoin="miter" fill="none" stroke="#ffffff" d="M1452.41 2407.65H1027.88" />
<path transform="matrix(.1,0,0,-.1,352.418,460.035)" stroke-width="11.3386" stroke-linecap="butt" stroke-miterlimit="22.9256" stroke-linejoin="miter" fill="none" stroke="#231f20" d="M1452.41 2407.65H1067.77" />
<path transform="matrix(.1,0,0,-.1,352.418,460.035)" d="M1027.88 2407.65 1084.53 2390.21C1076.44 2401.84 1076.44 2413.46 1084.53 2425.08L1027.88 2407.65" fill="#231f20" fill-rule="evenodd" />
<path transform="matrix(.1,0,0,-.1,352.418,460.035)" d="M559.352 2429.33C571.328 2429.33 581.035 2419.63 581.035 2407.65 581.035 2395.67 571.328 2385.96 559.352 2385.96 547.375 2385.96 537.668 2395.67 537.668 2407.65 537.668 2419.63 547.375 2429.33 559.352 2429.33" fill="#231f20" fill-rule="evenodd" />
<path transform="matrix(.1,0,0,-.1,352.418,460.035)" d="M1452.41 2429.33C1464.38 2429.33 1474.09 2419.63 1474.09 2407.65 1474.09 2395.67 1464.38 2385.96 1452.41 2385.96 1440.43 2385.96 1430.72 2395.67 1430.72 2407.65 1430.72 2419.63 1440.43 2429.33 1452.41 2429.33" fill="#231f20" fill-rule="evenodd" />
<path transform="matrix(.1,0,0,-.1,352.418,460.035)" stroke-width="5.6693" stroke-linecap="butt" stroke-miterlimit="22.9256" stroke-linejoin="miter" fill="none" stroke="#231f20" d="M150.102 2295.66V2155.76" />
<path transform="matrix(.1,0,0,-.1,352.418,460.035)" stroke-width="5.6693" stroke-linecap="butt" stroke-miterlimit="22.9256" stroke-linejoin="miter" fill="none" stroke="#231f20" d="M559.352 2295.66V2235.54" />
<path transform="matrix(.1,0,0,-.1,352.418,460.035)" stroke-width="5.6693" stroke-linecap="butt" stroke-miterlimit="22.9256" stroke-linejoin="miter" fill="none" stroke="#231f20" d="M1452.41 2295.66V2155.76" />
<path transform="matrix(.1,0,0,-.1,352.418,460.035)" stroke-width="5.6693" stroke-linecap="butt" stroke-miterlimit="22.9256" stroke-linejoin="miter" fill="none" stroke="#231f20" d="M523.891 2265.6H150.102" />
<path transform="matrix(.1,0,0,-.1,352.418,460.035)" d="M559.352 2265.6 508.988 2250.11C516.184 2260.44 516.184 2270.77 508.988 2281.1L559.352 2265.6" fill="#231f20" fill-rule="evenodd" />
<path transform="matrix(.1,0,0,-.1,352.418,460.035)" stroke-width="5.6693" stroke-linecap="butt" stroke-miterlimit="22.9256" stroke-linejoin="miter" fill="none" stroke="#231f20" d="M1416.95 2185.82H150.102" />
<path transform="matrix(.1,0,0,-.1,352.418,460.035)" d="M1452.41 2185.82 1402.04 2170.32C1409.24 2180.65 1409.24 2190.98 1402.04 2201.32L1452.41 2185.82" fill="#231f20" fill-rule="evenodd" />
<path transform="matrix(.1,0,0,-.1,352.418,460.035)" d="M1225.9 2224.02C1222.67 2219.48 1218.01 2215.42 1212.15 2215.42 1210.72 2215.42 1204.98 2215.66 1203.19 2221.16 1203.54 2221.04 1204.14 2221.04 1204.38 2221.04 1207.97 2221.04 1210.36 2224.14 1210.36 2226.89 1210.36 2229.64 1208.09 2230.6 1206.29 2230.6 1204.38 2230.6 1200.2 2229.17 1200.2 2223.31 1200.2 2217.21 1205.34 2213.03 1212.15 2213.03 1224.11 2213.03 1236.18 2224.02 1239.53 2237.29L1251.25 2283.92C1251.36 2284.52 1251.61 2285.23 1251.61 2285.95 1251.61 2287.75 1250.17 2288.94 1248.38 2288.94 1247.3 2288.94 1244.79 2288.46 1243.83 2284.88L1234.98 2249.73C1234.39 2247.58 1234.39 2247.34 1233.43 2246.02 1231.04 2242.68 1227.1 2238.61 1221.36 2238.61 1214.66 2238.61 1214.07 2245.18 1214.07 2248.41 1214.07 2255.23 1217.29 2264.43 1220.52 2273.04 1221.84 2276.51 1222.55 2278.18 1222.55 2280.57 1222.55 2285.59 1218.96 2290.14 1213.11 2290.14 1202.11 2290.14 1197.69 2272.8 1197.69 2271.84 1197.69 2271.37 1198.16 2270.77 1199 2270.77 1200.07 2270.77 1200.2 2271.25 1200.68 2272.92 1203.54 2282.96 1208.09 2287.75 1212.75 2287.75 1213.82 2287.75 1215.86 2287.75 1215.86 2283.8 1215.86 2280.69 1214.54 2277.23 1212.75 2272.68 1206.89 2257.02 1206.89 2253.08 1206.89 2250.21 1206.89 2238.85 1215.02 2236.22 1221 2236.22 1224.46 2236.22 1228.77 2237.29 1232.95 2241.72L1233.07 2241.6C1231.28 2234.55 1230.08 2229.88 1225.9 2224.02" />
<path transform="matrix(.1,0,0,-.1,352.418,460.035)" d="M325.98 2352.81C322.152 2352.09 320.719 2349.23 320.719 2346.95 320.719 2344.09 322.992 2343.13 324.664 2343.13 328.25 2343.13 330.762 2346.23 330.762 2349.46 330.762 2354.48 325.023 2356.76 320 2356.76 312.711 2356.76 308.645 2349.59 307.566 2347.31 304.82 2356.28 297.406 2356.76 295.254 2356.76 283.059 2356.76 276.605 2341.09 276.605 2338.46 276.605 2337.99 277.078 2337.39 277.922 2337.39 278.871 2337.39 279.109 2338.11 279.355 2338.59 283.418 2351.85 291.426 2354.37 294.895 2354.37 300.273 2354.37 301.352 2349.34 301.352 2346.48 301.352 2343.84 300.633 2341.09 299.199 2335.36L295.137 2318.98C293.34 2311.8 289.875 2305.23 283.539 2305.23 282.941 2305.23 279.953 2305.23 277.438 2306.78 281.746 2307.62 282.699 2311.21 282.699 2312.64 282.699 2315.03 280.906 2316.46 278.637 2316.46 275.766 2316.46 272.66 2313.96 272.66 2310.13 272.66 2305.11 278.273 2302.84 283.418 2302.84 289.152 2302.84 293.223 2307.38 295.734 2312.29 297.641 2305.23 303.621 2302.84 308.047 2302.84 320.242 2302.84 326.695 2318.5 326.695 2321.13 326.695 2321.73 326.219 2322.21 325.5 2322.21 324.426 2322.21 324.305 2321.61 323.945 2320.65 320.719 2310.13 313.785 2305.23 308.406 2305.23 304.219 2305.23 301.949 2308.34 301.949 2313.24 301.949 2315.87 302.426 2317.78 304.34 2325.67L308.523 2341.93C310.316 2349.11 314.383 2354.37 319.883 2354.37 320.121 2354.37 323.469 2354.37 325.98 2352.81" />
<path transform="matrix(.1,0,0,-.1,352.418,460.035)" stroke-width="11.3386" stroke-linecap="butt" stroke-miterlimit="22.9256" stroke-linejoin="miter" fill="none" stroke="#231f20" d="M398.715 1651.27H719.98806V1846.325H398.715Z" />
<path transform="matrix(.1,0,0,-.1,352.418,460.035)" stroke-width="11.3386" stroke-linecap="butt" stroke-miterlimit="22.9256" stroke-linejoin="miter" fill="none" stroke="#231f20" d="M1291.77 1651.27H1613.043V1846.325H1291.77Z" />
<path transform="matrix(.1,0,0,-.1,352.418,460.035)" d="M559.352 1770.48C571.328 1770.48 581.035 1760.77 581.035 1748.79 581.035 1736.82 571.328 1727.11 559.352 1727.11 547.375 1727.11 537.668 1736.82 537.668 1748.79 537.668 1760.77 547.375 1770.48 559.352 1770.48" fill="#231f20" fill-rule="evenodd" />
<path transform="matrix(.1,0,0,-.1,352.418,460.035)" d="M1452.41 1770.48C1464.38 1770.48 1474.09 1760.77 1474.09 1748.79 1474.09 1736.82 1464.38 1727.11 1452.41 1727.11 1440.43 1727.11 1430.72 1736.82 1430.72 1748.79 1430.72 1760.77 1440.43 1770.48 1452.41 1770.48" fill="#231f20" fill-rule="evenodd" />
<path transform="matrix(.1,0,0,-.1,352.418,460.035)" stroke-width="5.6693" stroke-linecap="butt" stroke-miterlimit="22.9256" stroke-linejoin="miter" fill="none" stroke="#231f20" d="M719.988 1726.68H1291.769V1770.9027H719.988Z" />
<path transform="matrix(.1,0,0,-.1,352.418,460.035)" stroke-width="5.6693" stroke-linecap="butt" stroke-miterlimit="22.9256" stroke-linejoin="miter" fill="none" stroke="#231f20" d="M150.102 1636.61V1496.7" />
<path transform="matrix(.1,0,0,-.1,352.418,460.035)" stroke-width="5.6693" stroke-linecap="butt" stroke-miterlimit="22.9256" stroke-linejoin="miter" fill="none" stroke="#231f20" d="M559.352 1636.61V1576.48" />
<path transform="matrix(.1,0,0,-.1,352.418,460.035)" stroke-width="5.6693" stroke-linecap="butt" stroke-miterlimit="22.9256" stroke-linejoin="miter" fill="none" stroke="#231f20" d="M1452.41 1636.61V1496.7" />
<path transform="matrix(.1,0,0,-.1,352.418,460.035)" stroke-width="5.6693" stroke-linecap="butt" stroke-miterlimit="22.9256" stroke-linejoin="miter" fill="none" stroke="#231f20" d="M523.891 1606.55H150.102" />
<path transform="matrix(.1,0,0,-.1,352.418,460.035)" d="M559.352 1606.55 508.988 1591.05C516.184 1601.38 516.184 1611.71 508.988 1622.04L559.352 1606.55" fill="#231f20" fill-rule="evenodd" />
<path transform="matrix(.1,0,0,-.1,352.418,460.035)" stroke-width="5.6693" stroke-linecap="butt" stroke-miterlimit="22.9256" stroke-linejoin="miter" fill="none" stroke="#231f20" d="M1416.95 1526.76H150.102" />
<path transform="matrix(.1,0,0,-.1,352.418,460.035)" d="M1452.41 1526.76 1402.04 1511.27C1409.24 1521.6 1409.24 1531.93 1402.04 1542.26L1452.41 1526.76" fill="#231f20" fill-rule="evenodd" />
<path transform="matrix(.1,0,0,-.1,352.418,460.035)" d="M1225.9 1564.96C1222.67 1560.43 1218.01 1556.36 1212.15 1556.36 1210.72 1556.36 1204.98 1556.6 1203.19 1562.1 1203.54 1561.98 1204.14 1561.98 1204.38 1561.98 1207.97 1561.98 1210.36 1565.09 1210.36 1567.84 1210.36 1570.59 1208.09 1571.54 1206.29 1571.54 1204.38 1571.54 1200.2 1570.11 1200.2 1564.25 1200.2 1558.15 1205.34 1553.97 1212.15 1553.97 1224.11 1553.97 1236.18 1564.96 1239.53 1578.24L1251.25 1624.86C1251.36 1625.46 1251.61 1626.18 1251.61 1626.89 1251.61 1628.69 1250.17 1629.88 1248.38 1629.88 1247.3 1629.88 1244.79 1629.41 1243.83 1625.82L1234.98 1590.67C1234.39 1588.52 1234.39 1588.28 1233.43 1586.96 1231.04 1583.62 1227.1 1579.55 1221.36 1579.55 1214.66 1579.55 1214.07 1586.13 1214.07 1589.36 1214.07 1596.17 1217.29 1605.38 1220.52 1613.98 1221.84 1617.45 1222.55 1619.13 1222.55 1621.52 1222.55 1626.54 1218.96 1631.08 1213.11 1631.08 1202.11 1631.08 1197.69 1613.75 1197.69 1612.79 1197.69 1612.31 1198.16 1611.71 1199 1611.71 1200.07 1611.71 1200.2 1612.19 1200.68 1613.86 1203.54 1623.91 1208.09 1628.69 1212.75 1628.69 1213.82 1628.69 1215.86 1628.69 1215.86 1624.74 1215.86 1621.63 1214.54 1618.17 1212.75 1613.63 1206.89 1597.96 1206.89 1594.02 1206.89 1591.15 1206.89 1579.79 1215.02 1577.16 1221 1577.16 1224.46 1577.16 1228.77 1578.24 1232.95 1582.66L1233.07 1582.54C1231.28 1575.49 1230.08 1570.82 1225.9 1564.96" />
<path transform="matrix(.1,0,0,-.1,352.418,460.035)" d="M325.98 1693.75C322.152 1693.04 320.719 1690.17 320.719 1687.89 320.719 1685.03 322.992 1684.07 324.664 1684.07 328.25 1684.07 330.762 1687.18 330.762 1690.41 330.762 1695.43 325.023 1697.7 320 1697.7 312.711 1697.7 308.645 1690.53 307.566 1688.25 304.82 1697.22 297.406 1697.7 295.254 1697.7 283.059 1697.7 276.605 1682.04 276.605 1679.41 276.605 1678.93 277.082 1678.33 277.922 1678.33 278.875 1678.33 279.113 1679.05 279.355 1679.53 283.418 1692.8 291.426 1695.31 294.895 1695.31 300.273 1695.31 301.352 1690.29 301.352 1687.42 301.352 1684.79 300.633 1682.04 299.199 1676.3L295.137 1659.92C293.34 1652.75 289.875 1646.17 283.539 1646.17 282.941 1646.17 279.953 1646.17 277.441 1647.73 281.746 1648.56 282.703 1652.15 282.703 1653.59 282.703 1655.98 280.906 1657.41 278.637 1657.41 275.766 1657.41 272.66 1654.9 272.66 1651.07 272.66 1646.05 278.277 1643.78 283.418 1643.78 289.156 1643.78 293.223 1648.32 295.734 1653.23 297.645 1646.17 303.621 1643.78 308.047 1643.78 320.242 1643.78 326.695 1659.44 326.695 1662.07 326.695 1662.67 326.219 1663.15 325.5 1663.15 324.426 1663.15 324.305 1662.55 323.945 1661.59 320.719 1651.07 313.785 1646.17 308.406 1646.17 304.219 1646.17 301.949 1649.28 301.949 1654.18 301.949 1656.81 302.426 1658.73 304.34 1666.62L308.523 1682.88C310.316 1690.05 314.383 1695.31 319.883 1695.31 320.121 1695.31 323.469 1695.31 325.98 1693.75" />
<path transform="matrix(.1,0,0,-.1,352.418,460.035)" stroke-width="11.3386" stroke-linecap="butt" stroke-miterlimit="22.9256" stroke-linejoin="miter" fill="none" stroke="#231f20" d="M392.715 922.309H713.98806V1117.368H392.715Z" />
<path transform="matrix(.1,0,0,-.1,352.418,460.035)" stroke-width="11.3386" stroke-linecap="butt" stroke-miterlimit="22.9256" stroke-linejoin="miter" fill="none" stroke="#231f20" d="M1285.77 922.309H1607.043V1117.368H1285.77Z" />
<path transform="matrix(.1,0,0,-.1,352.418,460.035)" d="M553.352 1041.52C565.324 1041.52 575.035 1031.81 575.035 1019.84 575.035 1007.86 565.324 998.152 553.352 998.152 541.375 998.152 531.668 1007.86 531.668 1019.84 531.668 1031.81 541.375 1041.52 553.352 1041.52" fill="#231f20" fill-rule="evenodd" />
<path transform="matrix(.1,0,0,-.1,352.418,460.035)" d="M1446.41 1041.52C1458.38 1041.52 1468.09 1031.81 1468.09 1019.84 1468.09 1007.86 1458.38 998.152 1446.41 998.152 1434.43 998.152 1424.72 1007.86 1424.72 1019.84 1424.72 1031.81 1434.43 1041.52 1446.41 1041.52" fill="#231f20" fill-rule="evenodd" />
<path transform="matrix(.1,0,0,-.1,352.418,460.035)" stroke-width="5.6693" stroke-linecap="butt" stroke-miterlimit="22.9256" stroke-linejoin="miter" fill="none" stroke="#231f20" d="M713.988 997.73H1285.769V1041.9526H713.988Z" />
<path transform="matrix(.1,0,0,-.1,352.418,460.035)" d="M999.879 1130.25C1060.86 1130.25 1110.29 1080.82 1110.29 1019.84 1110.29 958.855 1060.86 909.426 999.879 909.426 938.898 909.426 889.469 958.855 889.469 1019.84 889.469 1080.82 938.898 1130.25 999.879 1130.25" fill="#ffffff" fill-rule="evenodd" />
<path transform="matrix(.1,0,0,-.1,352.418,460.035)" stroke-width="11.3386" stroke-linecap="butt" stroke-miterlimit="22.9256" stroke-linejoin="miter" fill="none" stroke="#231f20" d="M999.879 1130.25C1060.86 1130.25 1110.29 1080.82 1110.29 1019.84 1110.29 958.855 1060.86 909.426 999.879 909.426 938.898 909.426 889.469 958.855 889.469 1019.84 889.469 1080.82 938.898 1130.25 999.879 1130.25Z" />
<path transform="matrix(.1,0,0,-.1,352.418,460.035)" stroke-width="5.6693" stroke-linecap="butt" stroke-miterlimit="22.9256" stroke-linejoin="miter" fill="none" stroke="#231f20" d="M553.352 1207.72V1147.6" />
<path transform="matrix(.1,0,0,-.1,352.418,460.035)" stroke-width="5.6693" stroke-linecap="butt" stroke-miterlimit="22.9256" stroke-linejoin="miter" fill="none" stroke="#231f20" d="M1446.41 1207.72V1147.6" />
<path transform="matrix(.1,0,0,-.1,352.418,460.035)" stroke-width="5.6693" stroke-linecap="butt" stroke-miterlimit="22.9256" stroke-linejoin="miter" fill="none" stroke="#231f20" d="M553.352 1177.66H1410.95" />
<path transform="matrix(.1,0,0,-.1,352.418,460.035)" d="M1446.41 1177.66 1396.04 1193.16C1403.24 1182.83 1403.24 1172.5 1396.04 1162.16L1446.41 1177.66" fill="#231f20" fill-rule="evenodd" />
<path transform="matrix(.1,0,0,-.1,352.418,460.035)" d="M930.84 1272.04C934.066 1272.04 942.195 1272.27 947.934 1274.43 957.023 1277.89 957.859 1284.83 957.859 1286.98 957.859 1292.24 953.313 1297.02 945.426 1297.02 932.871 1297.02 914.82 1285.66 914.82 1264.38 914.82 1251.83 921.992 1243.1 932.871 1243.1 949.129 1243.1 959.41 1255.78 959.41 1257.33 959.41 1258.05 958.695 1258.64 958.215 1258.64 957.859 1258.64 957.738 1258.53 956.664 1257.45 949.012 1247.29 937.652 1245.5 933.113 1245.5 926.297 1245.5 922.707 1250.88 922.707 1259.72 922.707 1261.39 922.707 1264.38 924.504 1272.04H930.84ZM925.102 1274.43C930.242 1292.84 941.598 1294.63 945.426 1294.63 950.684 1294.63 954.273 1291.52 954.273 1286.98 954.273 1274.43 935.145 1274.43 930.121 1274.43H925.102ZM1002.45 1215.25C1002.45 1215.61 1002.45 1215.84 1000.42 1217.88 988.461 1229.95 981.77 1249.68 981.77 1274.07 981.77 1297.26 987.387 1317.23 1001.25 1331.33 1002.45 1332.41 1002.45 1332.65 1002.45 1333.01 1002.45 1333.73 1001.85 1333.96 1001.38 1333.96 999.82 1333.96 990.016 1325.36 984.156 1313.64 978.063 1301.57 975.313 1288.77 975.313 1274.07 975.313 1263.43 976.988 1249.2 983.203 1236.41 990.254 1222.06 1000.06 1214.29 1001.38 1214.29 1001.85 1214.29 1002.45 1214.53 1002.45 1215.25ZM1033.05 1292.36H1044.05C1046.32 1292.36 1047.52 1292.36 1047.52 1294.51 1047.52 1295.82 1046.8 1295.82 1044.41 1295.82H1033.89L1038.31 1313.28C1038.79 1314.95 1038.79 1315.2 1038.79 1316.03 1038.79 1317.95 1037.24 1319.02 1035.68 1319.02 1034.73 1319.02 1031.98 1318.66 1031.02 1314.84L1026.36 1295.82H1015.12C1012.73 1295.82 1011.65 1295.82 1011.65 1293.55 1011.65 1292.36 1012.49 1292.36 1014.76 1292.36H1025.4L1017.51 1260.8C1016.55 1256.61 1016.2 1255.42 1016.2 1253.86 1016.2 1248.25 1020.14 1243.1 1026.84 1243.1 1038.91 1243.1 1045.37 1260.56 1045.37 1261.39 1045.37 1262.11 1044.89 1262.47 1044.17 1262.47 1043.93 1262.47 1043.45 1262.47 1043.21 1261.99 1043.1 1261.88 1042.98 1261.75 1042.14 1259.84 1039.63 1253.86 1034.13 1245.5 1027.2 1245.5 1023.61 1245.5 1023.37 1248.48 1023.37 1251.11 1023.37 1251.23 1023.37 1253.5 1023.73 1254.94L1033.05 1292.36ZM1084.94 1274.07C1084.94 1283.16 1083.75 1297.98 1077.05 1311.85 1069.99 1326.19 1060.19 1333.96 1058.88 1333.96 1058.4 1333.96 1057.8 1333.73 1057.8 1333.01 1057.8 1332.65 1057.8 1332.41 1059.84 1330.38 1071.79 1318.3 1078.48 1298.57 1078.48 1274.19 1078.48 1251 1072.87 1231.03 1059 1216.92 1057.8 1215.84 1057.8 1215.61 1057.8 1215.25 1057.8 1214.53 1058.4 1214.29 1058.88 1214.29 1060.43 1214.29 1070.23 1222.9 1076.09 1234.62 1082.19 1246.81 1084.94 1259.72 1084.94 1274.07" />
<path transform="matrix(.1,0,0,-.1,352.418,460.035)" d="M973.82 1058.39C972.984 1060.66 972.863 1060.66 970.117 1060.66H951.586V1057.2H953.977C962.582 1057.2 962.941 1056 962.941 1051.58V991.324C962.941 988.098 962.941 982.477 951.586 982.477V979.012C954.691 979.25 961.031 979.25 964.375 979.25 967.723 979.25 974.063 979.25 977.168 979.012V982.477C965.813 982.477 965.813 988.098 965.813 991.324V1056.6H965.93L994.742 981.281C995.223 979.965 995.578 979.012 996.773 979.012 997.848 979.012 998.09 979.609 998.809 981.402L1027.86 1057.2H1027.98V988.098C1027.98 983.676 1027.62 982.477 1019.01 982.477H1016.62V979.012C1019.37 979.25 1028.93 979.25 1032.4 979.25 1035.87 979.25 1045.43 979.25 1048.18 979.012V982.477H1045.79C1037.18 982.477 1036.82 983.676 1036.82 988.098V1051.58C1036.82 1056 1037.18 1057.2 1045.79 1057.2H1048.18V1060.66H1029.65C1027.02 1060.66 1026.9 1060.54 1025.95 1058.27L999.883 990.246 973.82 1058.39" />
<path transform="matrix(.1,0,0,-.1,352.418,460.035)" stroke-width="5.6693" stroke-linecap="butt" stroke-miterlimit="22.9256" stroke-linejoin="miter" fill="none" stroke="#231f20" d="M144.098 907.648V767.746" />
<path transform="matrix(.1,0,0,-.1,352.418,460.035)" stroke-width="5.6693" stroke-linecap="butt" stroke-miterlimit="22.9256" stroke-linejoin="miter" fill="none" stroke="#231f20" d="M553.352 907.648V847.527" />
<path transform="matrix(.1,0,0,-.1,352.418,460.035)" stroke-width="5.6693" stroke-linecap="butt" stroke-miterlimit="22.9256" stroke-linejoin="miter" fill="none" stroke="#231f20" d="M1446.41 907.648V767.746" />
<path transform="matrix(.1,0,0,-.1,352.418,460.035)" stroke-width="5.6693" stroke-linecap="butt" stroke-miterlimit="22.9256" stroke-linejoin="miter" fill="none" stroke="#231f20" d="M517.891 877.59H144.098" />
<path transform="matrix(.1,0,0,-.1,352.418,460.035)" d="M553.352 877.59 502.984 862.094C510.184 872.426 510.184 882.754 502.984 893.086L553.352 877.59" fill="#231f20" fill-rule="evenodd" />
<path transform="matrix(.1,0,0,-.1,352.418,460.035)" stroke-width="5.6693" stroke-linecap="butt" stroke-miterlimit="22.9256" stroke-linejoin="miter" fill="none" stroke="#231f20" d="M1410.95 797.805H144.098" />
<path transform="matrix(.1,0,0,-.1,352.418,460.035)" d="M1446.41 797.805 1396.04 782.309C1403.24 792.641 1403.24 802.973 1396.04 813.305L1446.41 797.805" fill="#231f20" fill-rule="evenodd" />
<path transform="matrix(.1,0,0,-.1,352.418,460.035)" d="M1219.9 836.012C1216.67 831.469 1212.01 827.406 1206.15 827.406 1204.71 827.406 1198.98 827.645 1197.18 833.145 1197.54 833.023 1198.14 833.023 1198.38 833.023 1201.96 833.023 1204.36 836.133 1204.36 838.883 1204.36 841.633 1202.09 842.59 1200.29 842.59 1198.38 842.59 1194.2 841.152 1194.2 835.293 1194.2 829.195 1199.34 825.012 1206.15 825.012 1218.11 825.012 1230.18 836.012 1233.53 849.281L1245.24 895.906C1245.36 896.508 1245.6 897.223 1245.6 897.941 1245.6 899.734 1244.17 900.93 1242.38 900.93 1241.3 900.93 1238.79 900.453 1237.83 896.863L1228.98 861.715C1228.39 859.566 1228.39 859.328 1227.43 858.012 1225.04 854.664 1221.09 850.598 1215.36 850.598 1208.66 850.598 1208.06 857.172 1208.06 860.402 1208.06 867.215 1211.29 876.422 1214.52 885.027 1215.83 888.496 1216.55 890.172 1216.55 892.559 1216.55 897.582 1212.96 902.125 1207.11 902.125 1196.11 902.125 1191.69 884.789 1191.69 883.832 1191.69 883.355 1192.16 882.758 1193 882.758 1194.07 882.758 1194.2 883.238 1194.67 884.91 1197.54 894.953 1202.09 899.734 1206.75 899.734 1207.82 899.734 1209.86 899.734 1209.86 895.789 1209.86 892.68 1208.54 889.211 1206.75 884.672 1200.89 869.008 1200.89 865.063 1200.89 862.195 1200.89 850.836 1209.02 848.207 1215 848.207 1218.46 848.207 1222.77 849.281 1226.95 853.707L1227.07 853.586C1225.28 846.535 1224.08 841.871 1219.9 836.012" />
<path transform="matrix(.1,0,0,-.1,352.418,460.035)" d="M319.977 964.797C316.152 964.082 314.719 961.211 314.719 958.941 314.719 956.074 316.988 955.113 318.664 955.113 322.25 955.113 324.762 958.227 324.762 961.449 324.762 966.473 319.023 968.746 314 968.746 306.711 968.746 302.645 961.574 301.566 959.301 298.816 968.266 291.406 968.746 289.254 968.746 277.059 968.746 270.605 953.082 270.605 950.453 270.605 949.977 271.082 949.379 271.918 949.379 272.875 949.379 273.113 950.094 273.355 950.574 277.418 963.844 285.426 966.355 288.895 966.355 294.273 966.355 295.352 961.332 295.352 958.461 295.352 955.832 294.633 953.082 293.199 947.344L289.133 930.965C287.34 923.793 283.875 917.219 277.539 917.219 276.941 917.219 273.953 917.219 271.441 918.773 275.742 919.609 276.703 923.195 276.703 924.633 276.703 927.02 274.906 928.453 272.637 928.453 269.766 928.453 266.66 925.945 266.66 922.121 266.66 917.098 272.277 914.828 277.418 914.828 283.156 914.828 287.223 919.371 289.734 924.27 291.645 917.219 297.621 914.828 302.047 914.828 314.242 914.828 320.695 930.488 320.695 933.117 320.695 933.715 320.215 934.195 319.5 934.195 318.426 934.195 318.305 933.598 317.945 932.641 314.719 922.121 307.785 917.219 302.402 917.219 298.219 917.219 295.949 920.324 295.949 925.227 295.949 927.855 296.426 929.77 298.34 937.66L302.523 953.918C304.316 961.094 308.383 966.355 313.879 966.355 314.117 966.355 317.465 966.355 319.977 964.797" />
<path transform="matrix(.1,0,0,-.1,352.418,460.035)" stroke-width="11.3386" stroke-linecap="butt" stroke-miterlimit="22.9256" stroke-linejoin="miter" fill="none" stroke="#231f20" d="M788.004 139.027H999.33609V267.34H788.004Z" />
<path transform="matrix(.1,0,0,-.1,352.418,460.035)" d="M893.672 217.445C901.547 217.445 907.934 211.059 907.934 203.188 907.934 195.305 901.547 188.918 893.672 188.918 885.793 188.918 879.406 195.305 879.406 203.188 879.406 211.059 885.793 217.445 893.672 217.445" fill="#231f20" fill-rule="evenodd" />
<path transform="matrix(.1,0,0,-.1,352.418,460.035)" stroke-width="11.3386" stroke-linecap="butt" stroke-miterlimit="22.9256" stroke-linejoin="miter" fill="none" stroke="#231f20" d="M1395.71 138.387H1607.042V266.7H1395.71Z" />
<path transform="matrix(.1,0,0,-.1,352.418,460.035)" d="M1501.38 216.805C1509.25 216.805 1515.64 210.418 1515.64 202.543 1515.64 194.664 1509.25 188.277 1501.38 188.277 1493.5 188.277 1487.11 194.664 1487.11 202.543 1487.11 210.418 1493.5 216.805 1501.38 216.805" fill="#231f20" fill-rule="evenodd" />
<path transform="matrix(.1,0,0,-.1,352.418,460.035)" stroke-width="5.6693" stroke-linecap="butt" stroke-miterlimit="22.9256" stroke-linejoin="miter" fill="none" stroke="#231f20" d="M281.676 96.8047V4.77344" />
<path transform="matrix(.1,0,0,-.1,352.418,460.035)" stroke-width="5.6693" stroke-linecap="butt" stroke-miterlimit="22.9256" stroke-linejoin="miter" fill="none" stroke="#231f20" d="M893.672 96.8047V57.2539" />
<path transform="matrix(.1,0,0,-.1,352.418,460.035)" stroke-width="5.6693" stroke-linecap="butt" stroke-miterlimit="22.9256" stroke-linejoin="miter" fill="none" stroke="#231f20" d="M1501.38 96.8047V4.77344" />
<path transform="matrix(.1,0,0,-.1,352.418,460.035)" stroke-width="5.6693" stroke-linecap="butt" stroke-miterlimit="22.9256" stroke-linejoin="miter" fill="none" stroke="#231f20" d="M858.211 77.0313H281.68" />
<path transform="matrix(.1,0,0,-.1,352.418,460.035)" d="M893.672 77.0313 843.305 61.5313C850.5 71.8633 850.5 82.1953 843.305 92.5273L893.672 77.0313" fill="#231f20" fill-rule="evenodd" />
<path transform="matrix(.1,0,0,-.1,352.418,460.035)" stroke-width="5.6693" stroke-linecap="butt" stroke-miterlimit="22.9256" stroke-linejoin="miter" fill="none" stroke="#231f20" d="M1465.91 24.5508H281.676" />
<path transform="matrix(.1,0,0,-.1,352.418,460.035)" d="M1501.38 24.5508 1451.01 9.05078C1458.21 19.3828 1458.21 29.7148 1451.01 40.0469L1501.38 24.5508" fill="#231f20" fill-rule="evenodd" />
<path transform="matrix(.1,0,0,-.1,352.418,460.035)" stroke-width="11.3386" stroke-linecap="butt" stroke-miterlimit="22.9256" stroke-linejoin="miter" fill="none" stroke="#231f20" d="M590.379 442.449 893.676 267.34" />
<path transform="matrix(.1,0,0,-.1,352.418,460.035)" d="M564.922 428.879 622.664 462.219 628.281 419.641 564.922 428.879" fill="#ffffff" fill-rule="evenodd" />
<path transform="matrix(.1,0,0,-.1,352.418,460.035)" stroke-width="5.6693" stroke-linecap="butt" stroke-miterlimit="22.9256" stroke-linejoin="miter" fill="none" stroke="#231f20" d="M564.922 428.879 622.664 462.219 628.281 419.641 564.922 428.879Z" />
<path transform="matrix(.1,0,0,-.1,352.418,460.035)" stroke-width="11.3386" stroke-linecap="butt" stroke-miterlimit="22.9256" stroke-linejoin="miter" fill="none" stroke="#231f20" d="M892.969 617.148 285.973 266.699" />
<path transform="matrix(.1,0,0,-.1,352.418,460.035)" stroke-width="11.3386" stroke-linecap="butt" stroke-miterlimit="22.9256" stroke-linejoin="miter" fill="none" stroke="#231f20" d="M894.379 617.148 1501.38 266.699" />
<path transform="matrix(.1,0,0,-.1,352.418,460.035)" d="M624.961 433.746C631.18 433.746 636.227 428.699 636.227 422.48 636.227 416.254 631.18 411.211 624.961 411.211 618.734 411.211 613.691 416.254 613.691 422.48 613.691 428.699 618.734 433.746 624.961 433.746" fill="#ffffff" fill-rule="evenodd" />
<path transform="matrix(.1,0,0,-.1,352.418,460.035)" stroke-width="5.6693" stroke-linecap="butt" stroke-miterlimit="22.9256" stroke-linejoin="miter" fill="none" stroke="#231f20" d="M624.961 433.746C631.18 433.746 636.227 428.699 636.227 422.48 636.227 416.254 631.18 411.211 624.961 411.211 618.734 411.211 613.691 416.254 613.691 422.48 613.691 428.699 618.734 433.746 624.961 433.746Z" />
<path transform="matrix(.1,0,0,-.1,352.418,460.035)" d="M892.969 628.418C899.191 628.418 904.234 623.371 904.234 617.148 904.234 610.926 899.191 605.883 892.969 605.883 886.746 605.883 881.703 610.926 881.703 617.148 881.703 623.371 886.746 628.418 892.969 628.418" fill="#ffffff" fill-rule="evenodd" />
<path transform="matrix(.1,0,0,-.1,352.418,460.035)" stroke-width="5.6693" stroke-linecap="butt" stroke-miterlimit="22.9256" stroke-linejoin="miter" fill="none" stroke="#231f20" d="M892.969 628.418C899.191 628.418 904.234 623.371 904.234 617.148 904.234 610.926 899.191 605.883 892.969 605.883 886.746 605.883 881.703 610.926 881.703 617.148 881.703 623.371 886.746 628.418 892.969 628.418Z" />
<path transform="matrix(.1,0,0,-.1,352.418,460.035)" d="M624.957 433.746C631.184 433.746 636.227 428.699 636.227 422.477 636.227 416.254 631.184 411.211 624.957 411.211 618.734 411.211 613.691 416.254 613.691 422.477 613.691 428.699 618.734 433.746 624.957 433.746" fill="#ffffff" fill-rule="evenodd" />
<path transform="matrix(.1,0,0,-.1,352.418,460.035)" stroke-width="5.6693" stroke-linecap="butt" stroke-miterlimit="22.9256" stroke-linejoin="miter" fill="none" stroke="#231f20" d="M624.957 433.746C631.184 433.746 636.227 428.699 636.227 422.477 636.227 416.254 631.184 411.211 624.957 411.211 618.734 411.211 613.691 416.254 613.691 422.477 613.691 428.699 618.734 433.746 624.957 433.746Z" />
<path transform="matrix(.1,0,0,-.1,352.418,460.035)" stroke-width="11.3386" stroke-linecap="butt" stroke-miterlimit="22.9256" stroke-linejoin="miter" fill="none" stroke="#231f20" d="M1196.97 442.449 893.672 267.34" />
<path transform="matrix(.1,0,0,-.1,352.418,460.035)" d="M1222.43 428.879 1164.68 462.219 1159.07 419.641 1222.43 428.879" fill="#ffffff" fill-rule="evenodd" />
<path transform="matrix(.1,0,0,-.1,352.418,460.035)" stroke-width="5.6693" stroke-linecap="butt" stroke-miterlimit="22.9256" stroke-linejoin="miter" fill="none" stroke="#231f20" d="M1222.43 428.879 1164.68 462.219 1159.07 419.641 1222.43 428.879Z" />
<path transform="matrix(.1,0,0,-.1,352.418,460.035)" d="M1162.39 433.746C1156.16 433.746 1151.12 428.699 1151.12 422.477 1151.12 416.254 1156.16 411.211 1162.39 411.211 1168.61 411.211 1173.66 416.254 1173.66 422.477 1173.66 428.699 1168.61 433.746 1162.39 433.746" fill="#ffffff" fill-rule="evenodd" />
<path transform="matrix(.1,0,0,-.1,352.418,460.035)" stroke-width="5.6693" stroke-linecap="butt" stroke-miterlimit="22.9256" stroke-linejoin="miter" fill="none" stroke="#231f20" d="M1162.39 433.746C1156.16 433.746 1151.12 428.699 1151.12 422.477 1151.12 416.254 1156.16 411.211 1162.39 411.211 1168.61 411.211 1173.66 416.254 1173.66 422.477 1173.66 428.699 1168.61 433.746 1162.39 433.746Z" />
<path transform="matrix(.1,0,0,-.1,352.418,460.035)" d="M1162.39 433.746C1156.16 433.746 1151.12 428.699 1151.12 422.477 1151.12 416.254 1156.16 411.211 1162.39 411.211 1168.61 411.211 1173.66 416.254 1173.66 422.477 1173.66 428.699 1168.61 433.746 1162.39 433.746" fill="#ffffff" fill-rule="evenodd" />
<path transform="matrix(.1,0,0,-.1,352.418,460.035)" stroke-width="5.6693" stroke-linecap="butt" stroke-miterlimit="22.9256" stroke-linejoin="miter" fill="none" stroke="#231f20" d="M1162.39 433.746C1156.16 433.746 1151.12 428.699 1151.12 422.477 1151.12 416.254 1156.16 411.211 1162.39 411.211 1168.61 411.211 1173.66 416.254 1173.66 422.477 1173.66 428.699 1168.61 433.746 1162.39 433.746Z" />
<path transform="matrix(.1,0,0,-.1,352.418,460.035)" d="M893.672 278.605C899.895 278.605 904.938 273.563 904.938 267.34 904.938 261.117 899.895 256.074 893.672 256.074 887.449 256.074 882.406 261.117 882.406 267.34 882.406 273.563 887.449 278.605 893.672 278.605" fill="#ffffff" fill-rule="evenodd" />
<path transform="matrix(.1,0,0,-.1,352.418,460.035)" stroke-width="5.6693" stroke-linecap="butt" stroke-miterlimit="22.9256" stroke-linejoin="miter" fill="none" stroke="#231f20" d="M893.672 278.605C899.895 278.605 904.938 273.563 904.938 267.34 904.938 261.117 899.895 256.074 893.672 256.074 887.449 256.074 882.406 261.117 882.406 267.34 882.406 273.563 887.449 278.605 893.672 278.605Z" />
<path transform="matrix(.1,0,0,-.1,352.418,460.035)" d="M1501.38 277.965C1507.6 277.965 1512.64 272.922 1512.64 266.699 1512.64 260.477 1507.6 255.434 1501.38 255.434 1495.16 255.434 1490.11 260.477 1490.11 266.699 1490.11 272.922 1495.16 277.965 1501.38 277.965" fill="#ffffff" fill-rule="evenodd" />
<path transform="matrix(.1,0,0,-.1,352.418,460.035)" stroke-width="5.6693" stroke-linecap="butt" stroke-miterlimit="22.9256" stroke-linejoin="miter" fill="none" stroke="#231f20" d="M1501.38 277.965C1507.6 277.965 1512.64 272.922 1512.64 266.699 1512.64 260.477 1507.6 255.434 1501.38 255.434 1495.16 255.434 1490.11 260.477 1490.11 266.699 1490.11 272.922 1495.16 277.965 1501.38 277.965Z" />
<path transform="matrix(.1,0,0,-.1,352.418,460.035)" stroke-width="5.6693" stroke-linecap="butt" stroke-miterlimit="22.9256" stroke-linejoin="miter" fill="none" stroke="#231f20" d="M257.957 218.176 285.973 266.699 313.859 218.395" />
<path transform="matrix(.1,0,0,-.1,352.418,460.035)" d="M285.973 277.965C292.195 277.965 297.238 272.922 297.238 266.699 297.238 260.477 292.195 255.434 285.973 255.434 279.75 255.434 274.707 260.477 274.707 266.699 274.707 272.922 279.75 277.965 285.973 277.965" fill="#ffffff" fill-rule="evenodd" />
<path transform="matrix(.1,0,0,-.1,352.418,460.035)" stroke-width="5.6693" stroke-linecap="butt" stroke-miterlimit="22.9256" stroke-linejoin="miter" fill="none" stroke="#231f20" d="M285.973 277.965C292.195 277.965 297.238 272.922 297.238 266.699 297.238 260.477 292.195 255.434 285.973 255.434 279.75 255.434 274.707 260.477 274.707 266.699 274.707 272.922 279.75 277.965 285.973 277.965Z" />
<path transform="matrix(.1,0,0,-.1,352.418,460.035)" stroke-width="5.6693" stroke-linecap="butt" stroke-miterlimit="22.9256" stroke-linejoin="miter" fill="none" stroke="#231f20" d="M240.602 218.176H331.727" />
<g clip-path="url(#clip_3)">
<path transform="matrix(.1,0,0,-.1,352.418,460.035)" stroke-width="2.88" stroke-linecap="butt" stroke-miterlimit="10" stroke-linejoin="miter" fill="none" stroke="#231f20" d="M293.008 145.699 225.938 212.766" />
<path transform="matrix(.1,0,0,-.1,352.418,460.035)" stroke-width="2.88" stroke-linecap="butt" stroke-miterlimit="10" stroke-linejoin="miter" fill="none" stroke="#231f20" d="M300.137 152.828 233.066 219.895" />
<path transform="matrix(.1,0,0,-.1,352.418,460.035)" stroke-width="2.88" stroke-linecap="butt" stroke-miterlimit="10" stroke-linejoin="miter" fill="none" stroke="#231f20" d="M307.262 159.953 240.195 227.023" />
<path transform="matrix(.1,0,0,-.1,352.418,460.035)" stroke-width="2.88" stroke-linecap="butt" stroke-miterlimit="10" stroke-linejoin="miter" fill="none" stroke="#231f20" d="M314.391 167.082 247.32 234.148" />
<path transform="matrix(.1,0,0,-.1,352.418,460.035)" stroke-width="2.88" stroke-linecap="butt" stroke-miterlimit="10" stroke-linejoin="miter" fill="none" stroke="#231f20" d="M321.52 174.211 254.449 241.277" />
<path transform="matrix(.1,0,0,-.1,352.418,460.035)" stroke-width="2.88" stroke-linecap="butt" stroke-miterlimit="10" stroke-linejoin="miter" fill="none" stroke="#231f20" d="M328.645 181.336 261.578 248.406" />
<path transform="matrix(.1,0,0,-.1,352.418,460.035)" stroke-width="2.88" stroke-linecap="butt" stroke-miterlimit="10" stroke-linejoin="miter" fill="none" stroke="#231f20" d="M335.773 188.465 268.703 255.531" />
<path transform="matrix(.1,0,0,-.1,352.418,460.035)" stroke-width="2.88" stroke-linecap="butt" stroke-miterlimit="10" stroke-linejoin="miter" fill="none" stroke="#231f20" d="M342.902 195.594 275.832 262.66" />
<path transform="matrix(.1,0,0,-.1,352.418,460.035)" stroke-width="2.88" stroke-linecap="butt" stroke-miterlimit="10" stroke-linejoin="miter" fill="none" stroke="#231f20" d="M350.027 202.719 282.961 269.789" />
<path transform="matrix(.1,0,0,-.1,352.418,460.035)" stroke-width="2.88" stroke-linecap="butt" stroke-miterlimit="10" stroke-linejoin="miter" fill="none" stroke="#231f20" d="M357.156 209.848 290.09 276.914" />
</g>
<path transform="matrix(.1,0,0,-.1,352.418,460.035)" d="M1306.75 52.1211C1303.52 47.582 1298.86 43.5156 1293 43.5156 1291.57 43.5156 1285.83 43.7539 1284.04 49.2539 1284.39 49.1328 1284.99 49.1328 1285.23 49.1328 1288.82 49.1328 1291.21 52.2422 1291.21 54.9922 1291.21 57.7422 1288.94 58.6992 1287.14 58.6992 1285.23 58.6992 1281.05 57.2617 1281.05 51.4023 1281.05 45.3086 1286.19 41.125 1293 41.125 1304.96 41.125 1317.04 52.1211 1320.38 65.3945L1332.1 112.016C1332.21 112.617 1332.46 113.332 1332.46 114.051 1332.46 115.844 1331.02 117.039 1329.23 117.039 1328.15 117.039 1325.64 116.563 1324.68 112.973L1315.84 77.8281C1315.24 75.6758 1315.24 75.4375 1314.29 74.1211 1311.89 70.7734 1307.95 66.707 1302.21 66.707 1295.52 66.707 1294.92 73.2813 1294.92 76.5117 1294.92 83.3242 1298.14 92.5313 1301.37 101.137 1302.69 104.605 1303.41 106.281 1303.41 108.668 1303.41 113.691 1299.82 118.234 1293.96 118.234 1282.96 118.234 1278.54 100.898 1278.54 99.9414 1278.54 99.4648 1279.02 98.8672 1279.86 98.8672 1280.93 98.8672 1281.05 99.3477 1281.53 101.02 1284.39 111.063 1288.94 115.844 1293.6 115.844 1294.68 115.844 1296.71 115.844 1296.71 111.898 1296.71 108.789 1295.39 105.32 1293.6 100.781 1287.74 85.1211 1287.74 81.1758 1287.74 78.3047 1287.74 66.9453 1295.88 64.3164 1301.85 64.3164 1305.32 64.3164 1309.62 65.3945 1313.8 69.8164L1313.93 69.6953C1312.13 62.6445 1310.94 57.9805 1306.75 52.1211" />
<path transform="matrix(.1,0,0,-.1,352.418,460.035)" d="M716.926 149.477C713.102 148.762 711.668 145.891 711.668 143.621 711.668 140.754 713.941 139.793 715.613 139.793 719.199 139.793 721.711 142.902 721.711 146.129 721.711 151.152 715.973 153.422 710.949 153.422 703.66 153.422 699.594 146.25 698.516 143.98 695.766 152.945 688.355 153.422 686.203 153.422 674.008 153.422 667.555 137.762 667.555 135.133 667.555 134.656 668.031 134.059 668.871 134.059 669.824 134.059 670.063 134.773 670.305 135.254 674.367 148.523 682.375 151.035 685.844 151.035 691.223 151.035 692.301 146.012 692.301 143.141 692.301 140.512 691.582 137.762 690.148 132.023L686.082 115.645C684.289 108.473 680.824 101.898 674.488 101.898 673.891 101.898 670.902 101.898 668.391 103.453 672.691 104.289 673.652 107.875 673.652 109.313 673.652 111.699 671.855 113.133 669.586 113.133 666.715 113.133 663.609 110.625 663.609 106.801 663.609 101.777 669.227 99.5039 674.367 99.5039 680.105 99.5039 684.172 104.051 686.684 108.949 688.594 101.898 694.57 99.5039 698.996 99.5039 711.191 99.5039 717.645 115.168 717.645 117.797 717.645 118.395 717.164 118.875 716.449 118.875 715.375 118.875 715.254 118.277 714.895 117.32 711.668 106.801 704.734 101.898 699.352 101.898 695.168 101.898 692.898 105.004 692.898 109.906 692.898 112.535 693.375 114.449 695.289 122.34L699.473 138.598C701.266 145.773 705.332 151.035 710.832 151.035 711.07 151.035 714.418 151.035 716.926 149.477" />
<path transform="matrix(.1,0,0,-.1,352.418,460.035)" d="M422.016 404.152C421.418 402.121 421.418 401.879 419.742 399.609 417.113 396.262 411.855 391.121 406.238 391.121 401.332 391.121 398.582 395.543 398.582 402.602 398.582 409.172 402.289 422.563 404.563 427.586 408.625 435.953 414.246 440.258 418.906 440.258 426.801 440.258 428.352 430.453 428.352 429.496 428.352 429.379 427.992 427.824 427.875 427.586L422.016 404.152ZM429.668 434.758C428.352 437.867 425.125 442.648 418.906 442.648 405.398 442.648 390.813 425.195 390.813 407.5 390.813 395.664 397.746 388.73 405.875 388.73 412.453 388.73 418.07 393.871 421.418 397.816 422.613 390.762 428.234 388.73 431.82 388.73 435.406 388.73 438.273 390.883 440.426 395.188 442.34 399.254 444.012 406.543 444.012 407.023 444.012 407.621 443.535 408.098 442.816 408.098 441.742 408.098 441.621 407.5 441.145 405.707 439.352 398.656 437.082 391.121 432.18 391.121 428.711 391.121 428.473 394.23 428.473 396.621 428.473 399.371 428.832 400.688 429.906 405.348 430.742 408.336 431.34 410.969 432.297 414.434 436.719 432.367 437.797 436.668 437.797 437.387 437.797 439.063 436.48 440.379 434.688 440.379 430.863 440.379 429.906 436.195 429.668 434.758" />
<path transform="matrix(.1,0,0,-.1,352.418,460.035)" d="M766.355 404.152C765.758 402.121 765.758 401.879 764.082 399.609 761.453 396.262 756.195 391.121 750.574 391.121 745.672 391.121 742.922 395.543 742.922 402.602 742.922 409.172 746.629 422.563 748.898 427.586 752.965 435.953 758.582 440.258 763.246 440.258 771.137 440.258 772.691 430.453 772.691 429.496 772.691 429.379 772.332 427.824 772.211 427.586L766.355 404.152ZM774.008 434.758C772.691 437.867 769.461 442.648 763.246 442.648 749.734 442.648 735.152 425.195 735.152 407.5 735.152 395.664 742.086 388.73 750.215 388.73 756.793 388.73 762.41 393.871 765.758 397.816 766.953 390.762 772.57 388.73 776.156 388.73 779.742 388.73 782.613 390.883 784.766 395.188 786.676 399.254 788.352 406.543 788.352 407.023 788.352 407.621 787.875 408.098 787.156 408.098 786.082 408.098 785.961 407.5 785.484 405.707 783.688 398.656 781.418 391.121 776.52 391.121 773.047 391.121 772.809 394.23 772.809 396.621 772.809 399.371 773.172 400.688 774.246 405.348 775.082 408.336 775.68 410.969 776.637 414.434 781.059 432.367 782.137 436.668 782.137 437.387 782.137 439.063 780.82 440.379 779.027 440.379 775.203 440.379 774.246 436.195 774.008 434.758" />
<path transform="matrix(.1,0,0,-.1,352.418,460.035)" d="M1023.53 404.152C1022.93 402.121 1022.93 401.879 1021.25 399.609 1018.62 396.262 1013.36 391.121 1007.75 391.121 1002.84 391.121 1000.09 395.543 1000.09 402.602 1000.09 409.172 1003.8 422.563 1006.07 427.586 1010.14 435.953 1015.75 440.258 1020.42 440.258 1028.31 440.258 1029.86 430.453 1029.86 429.496 1029.86 429.379 1029.5 427.824 1029.38 427.586L1023.53 404.152ZM1031.18 434.758C1029.86 437.867 1026.63 442.648 1020.42 442.648 1006.91 442.648 992.32 425.195 992.32 407.5 992.32 395.664 999.254 388.73 1007.39 388.73 1013.96 388.73 1019.58 393.871 1022.93 397.816 1024.13 390.762 1029.74 388.73 1033.33 388.73 1036.91 388.73 1039.78 390.883 1041.94 395.188 1043.85 399.254 1045.52 406.543 1045.52 407.023 1045.52 407.621 1045.04 408.098 1044.33 408.098 1043.25 408.098 1043.13 407.5 1042.65 405.707 1040.86 398.656 1038.59 391.121 1033.69 391.121 1030.22 391.121 1029.98 394.23 1029.98 396.621 1029.98 399.371 1030.34 400.688 1031.41 405.348 1032.25 408.336 1032.85 410.969 1033.81 414.434 1038.23 432.367 1039.3 436.668 1039.3 437.387 1039.3 439.063 1037.99 440.379 1036.2 440.379 1032.37 440.379 1031.41 436.195 1031.18 434.758" />
<path transform="matrix(.1,0,0,-.1,352.418,460.035)" d="M1368.52 404.152C1367.93 402.121 1367.93 401.879 1366.25 399.609 1363.62 396.262 1358.36 391.121 1352.75 391.121 1347.84 391.121 1345.09 395.543 1345.09 402.602 1345.09 409.172 1348.8 422.563 1351.07 427.586 1355.13 435.953 1360.75 440.258 1365.41 440.258 1373.31 440.258 1374.86 430.453 1374.86 429.496 1374.86 429.379 1374.5 427.824 1374.38 427.586L1368.52 404.152ZM1376.18 434.758C1374.86 437.867 1371.63 442.648 1365.41 442.648 1351.91 442.648 1337.32 425.195 1337.32 407.5 1337.32 395.664 1344.25 388.73 1352.38 388.73 1358.96 388.73 1364.58 393.871 1367.93 397.816 1369.13 390.762 1374.74 388.73 1378.33 388.73 1381.91 388.73 1384.78 390.883 1386.94 395.188 1388.85 399.254 1390.52 406.543 1390.52 407.023 1390.52 407.621 1390.04 408.098 1389.32 408.098 1388.25 408.098 1388.13 407.5 1387.65 405.707 1385.86 398.656 1383.59 391.121 1378.69 391.121 1375.22 391.121 1374.98 394.23 1374.98 396.621 1374.98 399.371 1375.34 400.688 1376.41 405.348 1377.25 408.336 1377.85 410.969 1378.8 414.434 1383.23 432.367 1384.3 436.668 1384.3 437.387 1384.3 439.063 1382.99 440.379 1381.2 440.379 1377.37 440.379 1376.41 436.195 1376.18 434.758" />
<path transform="matrix(.1,0,0,-.1,352.418,460.035)" d="M716.023 562.715C715.426 560.684 715.426 560.441 713.75 558.172 711.121 554.824 705.863 549.684 700.242 549.684 695.34 549.684 692.59 554.105 692.59 561.16 692.59 567.734 696.297 581.125 698.566 586.145 702.633 594.516 708.25 598.82 712.914 598.82 720.805 598.82 722.359 589.016 722.359 588.059 722.359 587.941 722 586.383 721.879 586.145L716.023 562.715ZM723.676 593.32C722.359 596.426 719.129 601.211 712.914 601.211 699.402 601.211 684.82 583.758 684.82 566.063 684.82 554.227 691.754 547.293 699.883 547.293 706.461 547.293 712.078 552.434 715.426 556.379 716.621 549.324 722.238 547.293 725.824 547.293 729.41 547.293 732.281 549.441 734.434 553.75 736.344 557.813 738.02 565.105 738.02 565.582 738.02 566.184 737.543 566.66 736.824 566.66 735.75 566.66 735.629 566.063 735.152 564.27 733.355 557.215 731.086 549.684 726.188 549.684 722.715 549.684 722.477 552.789 722.477 555.184 722.477 557.934 722.84 559.25 723.914 563.91 724.75 566.898 725.348 569.527 726.305 572.996 730.727 590.93 731.805 595.23 731.805 595.949 731.805 597.625 730.488 598.938 728.695 598.938 724.871 598.938 723.914 594.754 723.676 593.32" />
<path transform="matrix(.1,0,0,-.1,352.418,460.035)" d="M1090.66 562.715C1090.06 560.684 1090.06 560.441 1088.39 558.172 1085.76 554.824 1080.5 549.684 1074.88 549.684 1069.98 549.684 1067.23 554.105 1067.23 561.16 1067.23 567.734 1070.93 581.125 1073.21 586.145 1077.27 594.516 1082.89 598.82 1087.55 598.82 1095.45 598.82 1097 589.016 1097 588.059 1097 587.941 1096.64 586.383 1096.52 586.145L1090.66 562.715ZM1098.31 593.32C1097 596.426 1093.77 601.211 1087.55 601.211 1074.04 601.211 1059.46 583.758 1059.46 566.063 1059.46 554.227 1066.39 547.293 1074.52 547.293 1081.1 547.293 1086.71 552.434 1090.06 556.379 1091.26 549.324 1096.88 547.293 1100.46 547.293 1104.05 547.293 1106.92 549.441 1109.07 553.75 1110.98 557.813 1112.66 565.105 1112.66 565.582 1112.66 566.184 1112.18 566.66 1111.46 566.66 1110.39 566.66 1110.27 566.063 1109.79 564.27 1108 557.215 1105.73 549.684 1100.82 549.684 1097.36 549.684 1097.12 552.789 1097.12 555.184 1097.12 557.934 1097.48 559.25 1098.55 563.91 1099.39 566.898 1099.98 569.527 1100.94 572.996 1105.36 590.93 1106.44 595.23 1106.44 595.949 1106.44 597.625 1105.13 598.938 1103.33 598.938 1099.51 598.938 1098.55 594.754 1098.31 593.32" />
<path transform="matrix(.1,0,0,-.1,352.418,460.035)" d="M46.1836 1744.94C46.1836 1745.4 46.1836 1745.7 43.6055 1748.28 28.418 1763.62 19.918 1788.67 19.918 1819.64 19.918 1849.1 27.0547 1874.45 44.6641 1892.37 46.1836 1893.74 46.1836 1894.04 46.1836 1894.5 46.1836 1895.4 45.4258 1895.71 44.8164 1895.71 42.8477 1895.71 30.3945 1884.78 22.957 1869.89 15.2109 1854.56 11.7188 1838.32 11.7188 1819.64 11.7188 1806.13 13.8438 1788.06 21.7383 1771.82 30.6953 1753.59 43.1484 1743.73 44.8164 1743.73 45.4258 1743.73 46.1836 1744.03 46.1836 1744.94ZM97.5078 1803.55C97.5078 1804.31 96.8945 1804.92 95.9883 1804.92 94.6172 1804.92 94.4688 1804.46 93.707 1801.88 89.7578 1788.06 83.5352 1783.36 78.5234 1783.36 76.7031 1783.36 74.5781 1783.81 74.5781 1788.37 74.5781 1792.46 76.3984 1797.02 78.0664 1801.57L88.6953 1829.81C89.1523 1831.03 90.2148 1833.76 90.2148 1836.64 90.2148 1843.02 85.6602 1848.79 78.2188 1848.79 64.25 1848.79 58.6328 1826.78 58.6328 1825.56 58.6328 1824.96 59.2422 1824.2 60.3047 1824.2 61.668 1824.2 61.8203 1824.81 62.4297 1826.93 66.0703 1839.68 71.8438 1845.76 77.7617 1845.76 79.1289 1845.76 81.7109 1845.6 81.7109 1840.75 81.7109 1836.8 79.7383 1831.79 78.5234 1828.45L67.8945 1800.21C66.9844 1797.78 66.0703 1795.35 66.0703 1792.61 66.0703 1785.79 70.7813 1780.32 78.0664 1780.32 92.0352 1780.32 97.5078 1802.49 97.5078 1803.55ZM96.2891 1876.58C96.2891 1878.86 94.4688 1881.59 91.1211 1881.59 87.6328 1881.59 83.6836 1878.25 83.6836 1874.3 83.6836 1870.5 86.875 1869.29 88.6953 1869.29 92.7969 1869.29 96.2891 1873.24 96.2891 1876.58ZM148.059 1819.64C148.059 1831.18 146.543 1850.01 138.043 1867.62 129.082 1885.84 116.633 1895.71 114.961 1895.71 114.352 1895.71 113.598 1895.4 113.598 1894.5 113.598 1894.04 113.598 1893.74 116.176 1891.15 131.359 1875.82 139.863 1850.77 139.863 1819.79 139.863 1790.34 132.727 1764.98 115.113 1747.07 113.598 1745.7 113.598 1745.4 113.598 1744.94 113.598 1744.03 114.352 1743.73 114.961 1743.73 116.934 1743.73 129.387 1754.66 136.824 1769.54 144.566 1785.02 148.059 1801.42 148.059 1819.64" />
<path transform="matrix(.1,0,0,-.1,352.418,460.035)" d="M40.2109 1150.18C40.2109 1150.63 40.2109 1150.94 37.6289 1153.52 22.4453 1168.86 13.9453 1193.91 13.9453 1224.88 13.9453 1254.34 21.0781 1279.69 38.6914 1297.61 40.2109 1298.97 40.2109 1299.27 40.2109 1299.73 40.2109 1300.64 39.4492 1300.95 38.8398 1300.95 36.8711 1300.95 24.4219 1290.02 16.9805 1275.13 9.23438 1259.8 5.74219 1243.55 5.74219 1224.88 5.74219 1211.37 7.87109 1193.3 15.7656 1177.05 24.7227 1158.83 37.1719 1148.96 38.8398 1148.96 39.4492 1148.96 40.2109 1149.27 40.2109 1150.18ZM91.5273 1208.79C91.5273 1209.54 90.918 1210.15 90.0078 1210.15 88.6445 1210.15 88.4883 1209.7 87.7305 1207.11 83.7852 1193.3 77.5547 1188.59 72.5508 1188.59 70.7266 1188.59 68.5977 1189.05 68.5977 1193.61 68.5977 1197.7 70.4219 1202.26 72.0898 1206.81L82.7188 1235.05C83.1758 1236.27 84.2383 1239 84.2383 1241.88 84.2383 1248.26 79.6836 1254.03 72.2422 1254.03 58.2734 1254.03 52.6602 1232.02 52.6602 1230.8 52.6602 1230.2 53.2617 1229.43 54.3281 1229.43 55.6914 1229.43 55.8477 1230.04 56.4531 1232.17 60.0977 1244.92 65.8672 1251 71.7891 1251 73.1523 1251 75.7383 1250.84 75.7383 1245.98 75.7383 1242.04 73.7617 1237.03 72.5508 1233.69L61.918 1205.45C61.0078 1203.02 60.0977 1200.59 60.0977 1197.85 60.0977 1191.02 64.8047 1185.55 72.0898 1185.55 86.0586 1185.55 91.5273 1207.72 91.5273 1208.79ZM90.3125 1281.81C90.3125 1284.09 88.4883 1286.82 85.1484 1286.82 81.6563 1286.82 77.7109 1283.48 77.7109 1279.54 77.7109 1275.74 80.8984 1274.53 82.7188 1274.53 86.8203 1274.53 90.3125 1278.47 90.3125 1281.81ZM142.238 1208.79C142.238 1209.54 141.629 1210.15 140.719 1210.15 139.352 1210.15 139.203 1209.7 138.441 1207.11 134.496 1193.3 128.27 1188.59 123.258 1188.59 121.438 1188.59 119.313 1189.05 119.313 1193.61 119.313 1197.7 121.129 1202.26 122.805 1206.81L133.43 1235.05C133.887 1236.27 134.949 1239 134.949 1241.88 134.949 1248.26 130.395 1254.03 122.953 1254.03 108.984 1254.03 103.367 1232.02 103.367 1230.8 103.367 1230.2 103.973 1229.43 105.039 1229.43 106.406 1229.43 106.555 1230.04 107.164 1232.17 110.809 1244.92 116.578 1251 122.5 1251 123.863 1251 126.445 1250.84 126.445 1245.98 126.445 1242.04 124.473 1237.03 123.258 1233.69L112.629 1205.45C111.715 1203.02 110.809 1200.59 110.809 1197.85 110.809 1191.02 115.516 1185.55 122.805 1185.55 136.77 1185.55 142.238 1207.72 142.238 1208.79ZM141.02 1281.81C141.02 1284.09 139.203 1286.82 135.859 1286.82 132.367 1286.82 128.422 1283.48 128.422 1279.54 128.422 1275.74 131.605 1274.53 133.43 1274.53 137.527 1274.53 141.02 1278.47 141.02 1281.81ZM192.793 1224.88C192.793 1236.42 191.277 1255.25 182.777 1272.86 173.816 1291.08 161.367 1300.95 159.695 1300.95 159.086 1300.95 158.328 1300.64 158.328 1299.73 158.328 1299.27 158.328 1298.97 160.91 1296.39 176.094 1281.05 184.594 1256 184.594 1225.03 184.594 1195.58 177.461 1170.22 159.848 1152.3 158.328 1150.94 158.328 1150.63 158.328 1150.18 158.328 1149.27 159.086 1148.96 159.695 1148.96 161.668 1148.96 174.121 1159.9 181.555 1174.78 189.301 1190.26 192.793 1206.66 192.793 1224.88" />
<path transform="matrix(.1,0,0,-.1,352.418,460.035)" d="M46.4531 503.727C46.4531 504.191 46.4531 504.496 43.8359 507.117 28.4102 522.699 19.7773 548.145 19.7773 579.605 19.7773 609.527 27.0234 635.277 44.9141 653.473 46.4531 654.863 46.4531 655.172 46.4531 655.633 46.4531 656.563 45.6836 656.867 45.0664 656.867 43.0625 656.867 30.418 645.766 22.8594 630.648 14.9922 615.078 11.4453 598.574 11.4453 579.605 11.4453 565.879 13.6055 547.527 21.625 531.023 30.7266 512.516 43.3711 502.492 45.0664 502.492 45.6836 502.492 46.4531 502.801 46.4531 503.727ZM98.582 563.258C98.582 564.027 97.9648 564.645 97.0391 564.645 95.6484 564.645 95.4961 564.184 94.7266 561.563 90.7188 547.527 84.3906 542.746 79.3047 542.746 77.4531 542.746 75.293 543.207 75.293 547.836 75.293 551.996 77.1406 556.625 78.8398 561.254L89.6367 589.938C90.1016 591.172 91.1758 593.945 91.1758 596.875 91.1758 603.355 86.5508 609.215 78.9922 609.215 64.8047 609.215 59.1016 586.855 59.1016 585.621 59.1016 585.004 59.7148 584.234 60.7969 584.234 62.1836 584.234 62.3359 584.852 62.957 587.008 66.6523 599.961 72.5156 606.129 78.5313 606.129 79.918 606.129 82.5391 605.973 82.5391 601.043 82.5391 597.031 80.5352 591.941 79.3047 588.551L68.5039 559.863C67.582 557.395 66.6523 554.93 66.6523 552.148 66.6523 545.215 71.4375 539.66 78.8398 539.66 93.0273 539.66 98.582 562.18 98.582 563.258ZM97.3438 637.438C97.3438 639.75 95.4961 642.527 92.1055 642.527 88.5547 642.527 84.5469 639.133 84.5469 635.125 84.5469 631.27 87.7852 630.035 89.6367 630.035 93.8008 630.035 97.3438 634.043 97.3438 637.438ZM150.09 563.258C150.09 564.027 149.473 564.645 148.547 564.645 147.16 564.645 147.004 564.184 146.23 561.563 142.227 547.527 135.898 542.746 130.813 542.746 128.961 542.746 126.801 543.207 126.801 547.836 126.801 551.996 128.652 556.625 130.348 561.254L141.145 589.938C141.609 591.172 142.684 593.945 142.684 596.875 142.684 603.355 138.059 609.215 130.5 609.215 116.316 609.215 110.609 586.855 110.609 585.621 110.609 585.004 111.223 584.234 112.305 584.234 113.691 584.234 113.844 584.852 114.465 587.008 118.164 599.961 124.023 606.129 130.039 606.129 131.426 606.129 134.047 605.973 134.047 601.043 134.047 597.031 132.043 591.941 130.813 588.551L120.012 559.863C119.09 557.395 118.164 554.93 118.164 552.148 118.164 545.215 122.949 539.66 130.348 539.66 144.535 539.66 150.09 562.18 150.09 563.258ZM148.852 637.438C148.852 639.75 147.004 642.527 143.613 642.527 140.063 642.527 136.055 639.133 136.055 635.125 136.055 631.27 139.293 630.035 141.145 630.035 145.309 630.035 148.852 634.043 148.852 637.438ZM201.598 563.258C201.598 564.027 200.98 564.645 200.055 564.645 198.668 564.645 198.512 564.184 197.738 561.563 193.734 547.527 187.406 542.746 182.32 542.746 180.473 542.746 178.309 543.207 178.309 547.836 178.309 551.996 180.16 556.625 181.855 561.254L192.652 589.938C193.117 591.172 194.195 593.945 194.195 596.875 194.195 603.355 189.566 609.215 182.012 609.215 167.824 609.215 162.117 586.855 162.117 585.621 162.117 585.004 162.73 584.234 163.816 584.234 165.199 584.234 165.355 584.852 165.973 587.008 169.672 599.961 175.531 606.129 181.547 606.129 182.934 606.129 185.555 605.973 185.555 601.043 185.555 597.031 183.551 591.941 182.32 588.551L171.523 559.863C170.598 557.395 169.672 554.93 169.672 552.148 169.672 545.215 174.457 539.66 181.855 539.66 196.043 539.66 201.598 562.18 201.598 563.258ZM200.363 637.438C200.363 639.75 198.512 642.527 195.121 642.527 191.57 642.527 187.563 639.133 187.563 635.125 187.563 631.27 190.801 630.035 192.652 630.035 196.816 630.035 200.363 634.043 200.363 637.438ZM252.949 579.605C252.949 591.324 251.41 610.449 242.773 628.34 233.672 646.844 221.027 656.867 219.332 656.867 218.715 656.867 217.945 656.563 217.945 655.633 217.945 655.172 217.945 654.863 220.566 652.242 235.988 636.664 244.625 611.219 244.625 579.762 244.625 549.84 237.375 524.086 219.484 505.887 217.945 504.496 217.945 504.191 217.945 503.727 217.945 502.801 218.715 502.492 219.332 502.492 221.336 502.492 233.984 513.598 241.539 528.715 249.402 544.441 252.949 561.098 252.949 579.605" />
<path transform="matrix(.1,0,0,-.1,352.418,460.035)" d="M802.047 2506.94H813.523C822.609 2506.94 823.328 2504.91 823.328 2501.44 823.328 2499.89 823.09 2498.21 822.488 2495.58 822.25 2495.11 822.129 2494.51 822.129 2494.27 822.129 2493.43 822.609 2492.95 823.445 2492.95 824.402 2492.95 824.523 2493.43 825 2495.34L831.934 2523.2C831.934 2523.68 831.574 2524.39 830.738 2524.39 829.66 2524.39 829.543 2523.91 829.066 2521.88 826.555 2512.92 824.164 2510.41 813.762 2510.41H802.883L810.656 2541.37C811.73 2545.55 811.969 2545.91 816.871 2545.91H832.891C847.836 2545.91 849.984 2541.49 849.984 2533 849.984 2532.29 849.984 2529.65 849.629 2526.55 849.508 2526.07 849.27 2524.52 849.27 2524.04 849.27 2523.08 849.867 2522.72 850.582 2522.72 851.422 2522.72 851.898 2523.2 852.137 2525.35L854.648 2546.27C854.648 2546.63 854.887 2547.82 854.887 2548.06 854.887 2549.38 853.813 2549.38 851.66 2549.38H794.992C792.719 2549.38 791.527 2549.38 791.527 2547.23 791.527 2545.91 792.363 2545.91 794.395 2545.91 801.809 2545.91 801.809 2545.07 801.809 2543.76 801.809 2543.16 801.688 2542.68 801.328 2541.37L785.188 2476.81C784.113 2472.63 783.875 2471.43 775.504 2471.43 773.234 2471.43 772.039 2471.43 772.039 2469.28 772.039 2467.96 773.117 2467.96 773.832 2467.96 776.105 2467.96 778.492 2468.2 780.766 2468.2H796.309C798.938 2468.2 801.809 2467.96 804.438 2467.96 805.512 2467.96 806.949 2467.96 806.949 2470.12 806.949 2471.43 806.23 2471.43 803.602 2471.43 794.156 2471.43 793.918 2472.27 793.918 2474.06 793.918 2474.66 794.156 2475.62 794.395 2476.45L802.047 2506.94" />
<path transform="matrix(.1,0,0,-.1,352.418,460.035)" d="M1142.49 2540.97C1143.57 2545.04 1143.8 2546.23 1152.29 2546.23 1154.45 2546.23 1155.64 2546.23 1155.64 2548.39 1155.64 2549.7 1154.57 2549.7 1153.85 2549.7 1151.7 2549.7 1149.19 2549.46 1146.91 2549.46H1132.81C1130.54 2549.46 1128.02 2549.7 1125.75 2549.7 1124.91 2549.7 1123.48 2549.7 1123.48 2547.43 1123.48 2546.23 1124.32 2546.23 1126.59 2546.23 1133.76 2546.23 1133.76 2545.28 1133.76 2543.96 1133.76 2543.72 1133.76 2543.01 1133.29 2541.21L1125.99 2512.28H1089.89L1097.06 2540.97C1098.14 2545.04 1098.38 2546.23 1106.86 2546.23 1109.02 2546.23 1110.21 2546.23 1110.21 2548.39 1110.21 2549.7 1109.14 2549.7 1108.42 2549.7 1106.27 2549.7 1103.75 2549.46 1101.48 2549.46H1087.38C1085.11 2549.46 1082.59 2549.7 1080.32 2549.7 1079.49 2549.7 1078.05 2549.7 1078.05 2547.43 1078.05 2546.23 1078.89 2546.23 1081.16 2546.23 1088.34 2546.23 1088.34 2545.28 1088.34 2543.96 1088.34 2543.72 1088.34 2543.01 1087.86 2541.21L1071.71 2476.89C1070.64 2472.71 1070.4 2471.52 1062.15 2471.52 1059.4 2471.52 1058.57 2471.52 1058.57 2469.24 1058.57 2468.05 1059.88 2468.05 1060.24 2468.05 1062.39 2468.05 1064.9 2468.29 1067.17 2468.29H1081.28C1083.55 2468.29 1086.06 2468.05 1088.34 2468.05 1089.29 2468.05 1090.61 2468.05 1090.61 2470.32 1090.61 2471.52 1089.53 2471.52 1087.74 2471.52 1080.44 2471.52 1080.44 2472.47 1080.44 2473.67 1080.44 2473.79 1080.44 2474.63 1080.68 2475.58L1088.93 2508.82H1125.16C1123.13 2500.92 1117.03 2475.94 1116.79 2475.22 1115.47 2471.63 1113.56 2471.63 1106.5 2471.52 1105.07 2471.52 1104 2471.52 1104 2469.24 1104 2468.05 1105.31 2468.05 1105.67 2468.05 1107.82 2468.05 1110.33 2468.29 1112.6 2468.29H1126.71C1128.98 2468.29 1131.49 2468.05 1133.76 2468.05 1134.72 2468.05 1136.03 2468.05 1136.03 2470.32 1136.03 2471.52 1134.96 2471.52 1133.16 2471.52 1125.88 2471.52 1125.88 2472.47 1125.88 2473.67 1125.88 2473.79 1125.88 2474.63 1126.11 2475.58L1142.49 2540.97" />
<path transform="matrix(.1,0,0,-.1,352.418,460.035)" stroke-width="5.6693" stroke-linecap="butt" stroke-miterlimit="22.9256" stroke-linejoin="miter" fill="none" stroke="#231f20" d="M553.352 1928.11V1867.98" />
<path transform="matrix(.1,0,0,-.1,352.418,460.035)" stroke-width="5.6693" stroke-linecap="butt" stroke-miterlimit="22.9256" stroke-linejoin="miter" fill="none" stroke="#231f20" d="M1446.41 1928.11V1867.98" />
<path transform="matrix(.1,0,0,-.1,352.418,460.035)" stroke-width="5.6693" stroke-linecap="butt" stroke-miterlimit="22.9256" stroke-linejoin="miter" fill="none" stroke="#231f20" d="M588.813 1898.05H1410.95" />
<path transform="matrix(.1,0,0,-.1,352.418,460.035)" d="M553.352 1898.05 603.719 1913.54C596.52 1903.21 596.52 1892.88 603.719 1882.55L553.352 1898.05" fill="#231f20" fill-rule="evenodd" />
<path transform="matrix(.1,0,0,-.1,352.418,460.035)" d="M1446.41 1898.05 1396.04 1913.54C1403.24 1903.21 1403.24 1892.88 1396.04 1882.55L1446.41 1898.05" fill="#231f20" fill-rule="evenodd" />
<path transform="matrix(.1,0,0,-.1,352.418,460.035)" d="M1004.48 1942.06C1003.88 1940.03 1003.88 1939.79 1002.21 1937.52 999.578 1934.17 994.32 1929.03 988.703 1929.03 983.797 1929.03 981.047 1933.45 981.047 1940.5 981.047 1947.08 984.758 1960.47 987.027 1965.49 991.09 1973.86 996.711 1978.16 1001.38 1978.16 1009.27 1978.16 1010.82 1968.36 1010.82 1967.4 1010.82 1967.29 1010.46 1965.73 1010.34 1965.49L1004.48 1942.06ZM1012.13 1972.66C1010.82 1975.77 1007.59 1980.55 1001.38 1980.55 987.863 1980.55 973.277 1963.1 973.277 1945.41 973.277 1933.57 980.211 1926.64 988.344 1926.64 994.918 1926.64 1000.54 1931.78 1003.88 1935.72 1005.08 1928.67 1010.7 1926.64 1014.29 1926.64 1017.87 1926.64 1020.74 1928.79 1022.89 1933.09 1024.8 1937.16 1026.48 1944.45 1026.48 1944.93 1026.48 1945.53 1026 1946 1025.29 1946 1024.21 1946 1024.09 1945.41 1023.61 1943.61 1021.82 1936.56 1019.55 1929.03 1014.64 1929.03 1011.18 1929.03 1010.94 1932.14 1010.94 1934.53 1010.94 1937.28 1011.3 1938.59 1012.37 1943.25 1013.21 1946.24 1013.8 1948.88 1014.77 1952.34 1019.19 1970.27 1020.26 1974.57 1020.26 1975.29 1020.26 1976.97 1018.95 1978.29 1017.15 1978.29 1013.33 1978.29 1012.37 1974.1 1012.13 1972.66" />
</g>
<g clip-path="url(#clip_3)">
<path transform="matrix(.1,0,0,-.1,352.418,460.035)" stroke-width="2.88" stroke-linecap="butt" stroke-miterlimit="10" stroke-linejoin="miter" fill="none" stroke="#231f20" d="M293.008 145.699 225.938 212.766" />
<path transform="matrix(.1,0,0,-.1,352.418,460.035)" stroke-width="2.88" stroke-linecap="butt" stroke-miterlimit="10" stroke-linejoin="miter" fill="none" stroke="#231f20" d="M300.137 152.828 233.066 219.895" />
<path transform="matrix(.1,0,0,-.1,352.418,460.035)" stroke-width="2.88" stroke-linecap="butt" stroke-miterlimit="10" stroke-linejoin="miter" fill="none" stroke="#231f20" d="M307.262 159.953 240.195 227.023" />
<path transform="matrix(.1,0,0,-.1,352.418,460.035)" stroke-width="2.88" stroke-linecap="butt" stroke-miterlimit="10" stroke-linejoin="miter" fill="none" stroke="#231f20" d="M314.391 167.082 247.32 234.148" />
<path transform="matrix(.1,0,0,-.1,352.418,460.035)" stroke-width="2.88" stroke-linecap="butt" stroke-miterlimit="10" stroke-linejoin="miter" fill="none" stroke="#231f20" d="M321.52 174.211 254.449 241.277" />
<path transform="matrix(.1,0,0,-.1,352.418,460.035)" stroke-width="2.88" stroke-linecap="butt" stroke-miterlimit="10" stroke-linejoin="miter" fill="none" stroke="#231f20" d="M328.645 181.336 261.578 248.406" />
<path transform="matrix(.1,0,0,-.1,352.418,460.035)" stroke-width="2.88" stroke-linecap="butt" stroke-miterlimit="10" stroke-linejoin="miter" fill="none" stroke="#231f20" d="M335.773 188.465 268.703 255.531" />
<path transform="matrix(.1,0,0,-.1,352.418,460.035)" stroke-width="2.88" stroke-linecap="butt" stroke-miterlimit="10" stroke-linejoin="miter" fill="none" stroke="#231f20" d="M342.902 195.594 275.832 262.66" />
<path transform="matrix(.1,0,0,-.1,352.418,460.035)" stroke-width="2.88" stroke-linecap="butt" stroke-miterlimit="10" stroke-linejoin="miter" fill="none" stroke="#231f20" d="M350.027 202.719 282.961 269.789" />
<path transform="matrix(.1,0,0,-.1,352.418,460.035)" stroke-width="2.88" stroke-linecap="butt" stroke-miterlimit="10" stroke-linejoin="miter" fill="none" stroke="#231f20" d="M357.156 209.848 290.09 276.914" />
</g>

</svg>