<svg xmlns="http://www.w3.org/2000/svg" xmlns:xlink="http://www.w3.org/1999/xlink" version="1.1" width="232.000" height="108.000" viewBox="288.772 80.317 232.000 108.000">
<defs>
<clipPath id="clip_2">
<path transform="matrix(1,0,0,-1,298.772,178.31702)" d="M0 0H212V88H0Z" />
</clipPath>

</defs>
<g clip-path="url(#clip_2)">
<path transform="matrix(.1,0,0,-.1,298.772,178.31702)" stroke-width="11.3386" stroke-linecap="butt" stroke-miterlimit="22.9256" stroke-linejoin="miter" fill="none" stroke="#231f20" d="M778.395 864.543H1345.32V14.1523H778.395V864.543Z" />
<path transform="matrix(.1,0,0,-.1,298.772,178.31702)" stroke-width="5.6693" stroke-linecap="butt" stroke-dasharray="28.3465,17.0079,5.6693,17.0079" stroke-miterlimit="22.9256" stroke-linejoin="miter" fill="none" stroke="#231f20" d="M2118.5 675.316H1350.5" />
<path transform="matrix(.1,0,0,-.1,298.772,178.31702)" stroke-width="11.3386" stroke-linecap="butt" stroke-miterlimit="22.9256" stroke-linejoin="miter" fill="none" stroke="#231f20" d="M2010.12 604.781H1350.5M1350.5 745.816H2008.49C2038.91 724.574 2024.95 692.922 2010.12 675.281 1995.29 657.641 1980.07 604.398 2010.12 604.781 2040.17 605.168 2027.58 656.352 2010.12 675.281" />
<path transform="matrix(.1,0,0,-.1,298.772,178.31702)" d="M1003.55 423.793C1002.95 421.766 1002.95 421.527 1001.28 419.262 998.672 415.918 993.422 410.793 987.813 410.793 982.941 410.793 980.191 415.215 980.191 422.246 980.191 428.793 983.891 442.152 986.152 447.152 990.203 455.492 995.801 459.793 1000.45 459.793 1008.33 459.793 1009.88 450.016 1009.88 449.055 1009.88 449.055 1009.51 447.383 1009.39 447.152L1003.55 423.793ZM1025.48 426.652C1025.48 427.246 1025.01 427.734 1024.3 427.734 1023.22 427.734 1023.11 427.125 1022.63 425.336 1020.84 418.305 1018.58 410.793 1013.69 410.793 1010.23 410.793 1009.98 413.902 1009.98 416.277 1009.98 419.027 1010.34 420.336 1011.42 424.984L1013.8 434.043C1018.22 451.918 1019.28 456.215 1019.28 456.934 1019.28 458.605 1017.97 459.906 1016.19 459.906 1012.38 459.906 1011.42 455.734 1011.19 454.305 1009.88 457.402 1006.65 462.168 1000.45 462.168 986.984 462.168 972.441 444.777 972.441 427.125 972.441 415.324 979.359 408.414 987.449 408.414 994.012 408.414 999.625 413.543 1002.95 417.484 1004.15 410.434 1009.75 408.414 1013.33 408.414 1016.9 408.414 1019.76 410.555 1021.9 414.855 1023.81 418.902 1025.48 426.168 1025.48 426.652" />
<path transform="matrix(.1,0,0,-.1,298.772,178.31702)" d="M1068.4 380.637C1068.4 380.996 1068.4 381.234 1066.39 383.266 1054.47 395.305 1047.8 414.965 1047.8 439.293 1047.8 462.414 1053.39 482.328 1067.22 496.387 1068.4 497.465 1068.4 497.695 1068.4 498.055 1068.4 498.777 1067.81 499.016 1067.34 499.016 1065.8 499.016 1056.01 490.438 1050.17 478.746 1044.09 466.695 1041.36 453.945 1041.36 439.293 1041.36 428.688 1043.01 414.496 1049.22 401.734 1056.25 387.434 1066.04 379.684 1067.34 379.684 1067.81 379.684 1068.4 379.918 1068.4 380.637" />
<path transform="matrix(.1,0,0,-.1,298.772,178.31702)" d="M1110.9 426.652C1110.9 427.375 1110.45 427.734 1109.72 427.734 1109.72 427.734 1109 427.734 1108.76 427.246 1108.76 427.246 1108.54 427.016 1107.69 425.105 1105.19 419.133 1099.7 410.793 1092.8 410.793 1089.22 410.793 1088.97 413.777 1088.97 416.402 1088.97 416.402 1088.97 418.773 1089.33 420.215L1098.63 457.527H1109.59C1111.86 457.527 1113.06 457.527 1113.06 459.664 1113.06 460.984 1112.34 460.984 1109.95 460.984H1099.47L1103.87 478.387C1104.36 480.055 1104.36 480.293 1104.36 481.125 1104.36 483.047 1102.8 484.105 1101.25 484.105 1100.3 484.105 1097.56 483.742 1096.61 479.934L1091.95 460.984H1080.75C1078.37 460.984 1077.3 460.984 1077.3 458.715 1077.3 457.527 1078.13 457.527 1080.39 457.527H1091L1083.14 426.055C1082.2 421.887 1081.83 420.695 1081.83 419.133 1081.83 413.543 1085.76 408.414 1092.45 408.414 1104.47 408.414 1110.9 425.824 1110.9 426.652" />
<path transform="matrix(.1,0,0,-.1,298.772,178.31702)" d="M1151.28 439.293C1151.28 448.336 1150.09 463.125 1143.42 476.945 1136.39 491.266 1126.61 499.016 1125.3 499.016 1124.83 499.016 1124.23 498.777 1124.23 498.055 1124.23 497.695 1124.23 497.465 1126.25 495.434 1138.17 483.383 1144.84 463.734 1144.84 439.402 1144.84 416.277 1139.25 396.375 1125.42 382.305 1124.23 381.234 1124.23 380.996 1124.23 380.637 1124.23 379.918 1124.83 379.684 1125.3 379.684 1126.84 379.684 1136.62 388.266 1142.47 399.945 1148.55 412.105 1151.28 424.984 1151.28 439.293" />
<path transform="matrix(.1,0,0,-.1,298.772,178.31702)" d="M1737.81 428.031C1739.12 433.152 1740.67 439.234 1740.67 444.125 1740.67 446.984 1740.07 449.484 1738.53 451.031 1737.81 451.645 1736.86 451.984 1735.9 451.984 1734.59 451.984 1733.28 451.391 1732.2 450.332 1731.14 449.25 1730.54 447.941 1730.54 446.75 1730.54 445.801 1730.89 444.844 1731.61 444.125 1734.46 441.5 1735.9 437.691 1735.9 433.391 1735.9 431.844 1735.67 430.172 1735.31 428.5 1732.56 417.426 1725.89 405.984 1716.23 405.984 1709.32 405.984 1705.5 410.984 1704.67 417.652 1706.11 421 1707.29 424.582 1708.12 428.031 1708.37 429.113 1708.61 430.301 1708.61 431.375 1708.61 432.801 1708.12 433.875 1706.7 433.875 1704.54 433.875 1703.59 431.012 1703 428.5 1702.04 424.941 1701.45 421.363 1701.32 417.902 1697.4 411.113 1691.67 405.984 1684.89 405.984 1677.73 405.984 1674.64 411.941 1674.64 419.453 1674.64 422.191 1675.11 425.051 1675.82 428.031 1677.61 435.191 1681.67 441.984 1686.31 448.422 1686.54 448.891 1686.67 449.25 1686.67 449.723 1686.67 450.332 1686.43 450.926 1685.84 451.285 1685.48 451.391 1685 451.391 1685 451.391 1684.28 451.391 1683.57 451.031 1683.09 450.441 1678.2 443.535 1675.11 436.016 1673.2 428.5 1672.01 423.734 1671.42 418.973 1671.42 414.691 1671.42 405.375 1674.64 398.234 1683.45 398.234 1691.07 398.234 1697.15 403.832 1701.68 411.473 1702.76 403.723 1706.7 398.234 1714.81 398.234 1727.07 398.234 1734.23 413.613 1737.81 428.031" />
<path transform="matrix(.1,0,0,-.1,298.772,178.31702)" d="M1780.89 396.645H1778.42C1778.18 395.063 1777.54 391.082 1776.59 389.582 1776.12 388.941 1770.07 388.941 1768.81 388.941H1754.67L1765.39 398.641C1766.67 399.832 1770 402.453 1771.28 403.563 1776.2 408.094 1780.89 412.473 1780.89 419.691 1780.89 429.152 1772.93 435.262 1763.01 435.262 1753.46 435.262 1747.2 428.031 1747.2 420.973 1747.2 417.086 1750.29 416.512 1751.4 416.512 1753.07 416.512 1755.54 417.703 1755.54 420.723 1755.54 424.863 1751.56 424.863 1750.61 424.863 1752.92 430.652 1758.25 432.645 1762.14 432.645 1769.53 432.645 1773.34 426.371 1773.34 419.691 1773.34 411.422 1767.54 405.395 1758.15 395.762L1748.15 385.445C1747.2 384.563 1747.2 384.402 1747.2 382.422H1778.59L1780.89 396.645" />
<path transform="matrix(.1,0,0,-.1,298.772,178.31702)" stroke-width="42.5197" stroke-linecap="butt" stroke-miterlimit="22.9256" stroke-linejoin="miter" fill="none" stroke="#ffffff" d="M1895.24 539.996C1886.27 513.707 1874.98 499.316 1863.31 499.316 1835.73 499.316 1813.38 578.105 1813.38 675.297 1813.38 772.488 1835.73 851.277 1863.31 851.277 1878.33 851.277 1892.55 827.465 1902.03 786.434" />
<path transform="matrix(.1,0,0,-.1,298.772,178.31702)" stroke-width="11.3386" stroke-linecap="butt" stroke-miterlimit="22.9256" stroke-linejoin="miter" fill="none" stroke="#231f20" d="M1895.24 539.996C1886.27 513.707 1874.98 499.316 1863.31 499.316 1835.73 499.316 1813.38 578.105 1813.38 675.297 1813.38 772.488 1835.73 851.277 1863.31 851.277 1878.33 851.277 1892.55 827.465 1902.03 786.434" />
<path transform="matrix(.1,0,0,-.1,298.772,178.31702)" d="M1908.09 577.68 1906.31 518.535C1897.94 529.93 1886.96 533.672 1873.37 529.773L1908.09 577.68" fill="#231f20" fill-rule="evenodd" />
<path transform="matrix(.1,0,0,-.1,298.772,178.31702)" d="M1951.07 478.352C1951.07 479.555 1950.25 479.555 1947.98 479.555H1933.69C1930.71 479.555 1930.58 479.434 1929.27 477.523L1885.77 408.742 1876.82 476.934C1876.47 479.555 1876.34 479.555 1873.25 479.555H1858.47C1856.21 479.555 1855.13 479.555 1855.13 477.293 1855.13 476.086 1856.21 476.086 1857.98 476.086 1865.26 476.086 1865.26 475.133 1865.26 473.824 1865.26 473.824 1865.26 472.863 1864.79 471.086L1849.52 410.293C1848.09 404.57 1845.34 401.945 1837.37 401.586 1837.01 401.586 1835.58 401.473 1835.58 399.445 1835.58 398.133 1836.64 398.133 1837.13 398.133L1847.97 398.363H1853.68C1855.37 398.363 1857.39 398.133 1859.07 398.133 1859.89 398.133 1861.21 398.133 1861.21 400.402 1861.21 401.473 1860.02 401.586 1859.54 401.586 1855.62 401.711 1851.79 402.434 1851.79 406.711 1851.79 407.914 1851.79 408.023 1852.27 409.695L1868.72 475.383H1868.83L1878.74 401.352C1879.07 398.496 1879.21 398.133 1880.29 398.133 1881.59 398.133 1882.19 399.086 1882.79 400.164L1930.71 475.973H1930.82L1913.54 406.965C1912.47 402.793 1912.22 401.586 1903.88 401.586 1901.62 401.586 1900.43 401.586 1900.43 399.445 1900.43 398.133 1901.5 398.133 1902.21 398.133 1904.23 398.133 1906.63 398.363 1908.64 398.363H1922.72C1924.73 398.363 1927.25 398.133 1929.27 398.133 1930.22 398.133 1931.54 398.133 1931.54 400.402 1931.54 401.586 1930.47 401.586 1928.68 401.586 1921.41 401.586 1921.41 402.543 1921.41 403.746 1921.41 403.746 1921.41 404.695 1921.64 405.652L1937.97 470.855C1939.05 474.902 1939.29 476.086 1947.75 476.086 1950.02 476.086 1951.07 476.086 1951.07 478.352" />
<path transform="matrix(.1,0,0,-.1,298.772,178.31702)" d="M1981.65 395.355H1979.18C1978.94 393.773 1978.3 389.793 1977.35 388.293 1976.88 387.652 1970.83 387.652 1969.57 387.652H1955.43L1966.15 397.352C1967.43 398.543 1970.76 401.16 1972.04 402.273 1976.96 406.801 1981.65 411.184 1981.65 418.402 1981.65 427.863 1973.69 433.973 1963.77 433.973 1954.21 433.973 1947.96 426.742 1947.96 419.684 1947.96 415.793 1951.05 415.223 1952.16 415.223 1953.83 415.223 1956.3 416.41 1956.3 419.434 1956.3 423.574 1952.32 423.574 1951.37 423.574 1953.68 429.363 1959.01 431.352 1962.89 431.352 1970.29 431.352 1974.09 425.082 1974.09 418.402 1974.09 410.133 1968.3 404.105 1958.91 394.473L1948.91 384.152C1947.96 383.273 1947.96 383.113 1947.96 381.133H1979.35L1981.65 395.355" />
<path transform="matrix(.1,0,0,-.1,298.772,178.31702)" d="M2029.47 369.164C2029.47 369.523 2029.47 369.762 2027.46 371.793 2015.54 383.832 2008.87 403.492 2008.87 427.82 2008.87 450.945 2014.46 470.855 2028.29 484.914 2029.47 485.996 2029.47 486.223 2029.47 486.586 2029.47 487.305 2028.88 487.543 2028.41 487.543 2026.87 487.543 2017.08 478.965 2011.24 467.273 2005.16 455.223 2002.43 442.473 2002.43 427.82 2002.43 417.215 2004.08 403.023 2010.29 390.262 2017.32 375.961 2027.1 368.211 2028.41 368.211 2028.88 368.211 2029.47 368.445 2029.47 369.164" />
<path transform="matrix(.1,0,0,-.1,298.772,178.31702)" d="M2072.97 415.184C2072.97 415.902 2072.5 416.262 2071.79 416.262 2071.79 416.262 2071.07 416.262 2070.83 415.773 2070.83 415.773 2070.59 415.543 2069.75 413.633 2067.25 407.66 2061.77 399.32 2054.87 399.32 2051.29 399.32 2051.04 402.305 2051.04 404.934 2051.04 404.934 2051.04 407.301 2051.39 408.742L2060.68 446.055H2071.66C2073.93 446.055 2075.13 446.055 2075.13 448.195 2075.13 449.512 2074.41 449.512 2072.02 449.512H2061.54L2065.94 466.914C2066.43 468.582 2066.43 468.82 2066.43 469.652 2066.43 471.574 2064.87 472.633 2063.32 472.633 2062.37 472.633 2059.63 472.273 2058.68 468.461L2054.02 449.512H2042.82C2040.44 449.512 2039.37 449.512 2039.37 447.242 2039.37 446.055 2040.19 446.055 2042.46 446.055H2053.07L2045.2 414.586C2044.25 410.414 2043.89 409.223 2043.89 407.66 2043.89 402.07 2047.83 396.945 2054.5 396.945 2066.54 396.945 2072.97 414.355 2072.97 415.184" />
<path transform="matrix(.1,0,0,-.1,298.772,178.31702)" d="M2112.35 427.82C2112.35 436.863 2111.16 451.652 2104.48 465.473 2097.46 479.793 2087.68 487.543 2086.37 487.543 2085.89 487.543 2085.3 487.305 2085.3 486.586 2085.3 486.223 2085.3 485.996 2087.32 483.961 2099.23 471.91 2105.91 452.262 2105.91 427.934 2105.91 404.805 2100.32 384.902 2086.48 370.836 2085.3 369.762 2085.3 369.523 2085.3 369.164 2085.3 368.445 2085.89 368.211 2086.37 368.211 2087.91 368.211 2097.69 376.793 2103.54 388.473 2109.62 400.633 2112.35 413.512 2112.35 427.82" />
<path transform="matrix(.1,0,0,-.1,298.772,178.31702)" stroke-width="28.3465" stroke-linecap="butt" stroke-miterlimit="22.9256" stroke-linejoin="miter" fill="none" stroke="#ffffff" d="M1561.44 630.883C1526.23 621.348 1542.06 514.699 1497.97 494.551" />
<path transform="matrix(.1,0,0,-.1,298.772,178.31702)" stroke-width="5.6693" stroke-linecap="butt" stroke-miterlimit="22.9256" stroke-linejoin="miter" fill="none" stroke="#231f20" d="M1561.44 630.883C1526.23 621.348 1542.06 514.699 1497.97 494.551" />
<path transform="matrix(.1,0,0,-.1,298.772,178.31702)" stroke-width="28.3465" stroke-linecap="butt" stroke-miterlimit="22.9256" stroke-linejoin="miter" fill="none" stroke="#ffffff" d="M1748.5 539.996C1739.54 513.707 1728.24 499.316 1716.57 499.316 1689 499.316 1666.64 578.105 1666.64 675.297 1666.64 772.488 1689 851.277 1716.57 851.277 1731.59 851.277 1745.81 827.465 1755.29 786.434" />
<path transform="matrix(.1,0,0,-.1,298.772,178.31702)" stroke-width="5.6693" stroke-linecap="butt" stroke-miterlimit="22.9256" stroke-linejoin="miter" fill="none" stroke="#231f20" d="M1748.5 539.996C1739.54 513.707 1728.24 499.316 1716.57 499.316 1689 499.316 1666.64 578.105 1666.64 675.297 1666.64 772.488 1689 851.277 1716.57 851.277 1731.59 851.277 1745.81 827.465 1755.29 786.434" />
<path transform="matrix(.1,0,0,-.1,298.772,178.31702)" d="M1759.95 573.555 1758.36 520.887C1750.91 531.031 1741.13 534.363 1729.03 530.891L1759.95 573.555" fill="#231f20" fill-rule="evenodd" />
<path transform="matrix(.1,0,0,-.1,298.772,178.31702)" stroke-width="5.6693" stroke-linecap="butt" stroke-dasharray="28.3465,17.0079,5.6693,17.0079" stroke-miterlimit="22.9256" stroke-linejoin="miter" fill="none" stroke="#231f20" d="M5.76172 203.781H773.762" />
<path transform="matrix(.1,0,0,-.1,298.772,178.31702)" stroke-width="11.3386" stroke-linecap="butt" stroke-miterlimit="22.9256" stroke-linejoin="miter" fill="none" stroke="#231f20" d="M114.137 274.316H773.762M773.762 133.281H115.766C85.3438 154.523 99.3047 186.18 114.137 203.82 128.969 221.461 144.184 274.703 114.137 274.316 84.0898 273.93 96.6797 222.746 114.137 203.82" />
<path transform="matrix(.1,0,0,-.1,298.772,178.31702)" stroke-width="42.5197" stroke-linecap="butt" stroke-miterlimit="22.9256" stroke-linejoin="miter" fill="none" stroke="#ffffff" d="M229.016 339.105C237.98 365.395 249.281 379.781 260.945 379.781 288.523 379.781 310.883 300.992 310.883 203.805 310.883 106.609 288.523 27.8203 260.945 27.8203 245.93 27.8203 231.711 51.6367 222.227 92.668" />
<path transform="matrix(.1,0,0,-.1,298.772,178.31702)" stroke-width="11.3386" stroke-linecap="butt" stroke-miterlimit="22.9256" stroke-linejoin="miter" fill="none" stroke="#231f20" d="M229.016 339.105C237.98 365.395 249.281 379.781 260.945 379.781 288.523 379.781 310.883 300.992 310.883 203.805 310.883 106.609 288.523 27.8203 260.945 27.8203 245.93 27.8203 231.711 51.6367 222.227 92.668" />
<path transform="matrix(.1,0,0,-.1,298.772,178.31702)" d="M216.164 301.418 217.949 360.563C226.32 349.172 237.301 345.426 250.891 349.328L216.164 301.418" fill="#231f20" fill-rule="evenodd" />
<path transform="matrix(.1,0,0,-.1,298.772,178.31702)" stroke-width="28.3465" stroke-linecap="butt" stroke-miterlimit="22.9256" stroke-linejoin="miter" fill="none" stroke="#ffffff" d="M594.031 374.25C558.824 364.715 579 237.398 539.031 244.25" />
<path transform="matrix(.1,0,0,-.1,298.772,178.31702)" stroke-width="5.6693" stroke-linecap="butt" stroke-miterlimit="22.9256" stroke-linejoin="miter" fill="none" stroke="#231f20" d="M594.031 374.25C558.824 364.715 579 237.398 539.031 244.25" />
<path transform="matrix(.1,0,0,-.1,298.772,178.31702)" stroke-width="28.3465" stroke-linecap="butt" stroke-miterlimit="22.9256" stroke-linejoin="miter" fill="none" stroke="#ffffff" d="M375.75 339.105C384.719 365.395 396.016 379.781 407.68 379.781 435.258 379.781 457.617 300.992 457.617 203.805 457.617 106.609 435.258 27.8203 407.68 27.8203 392.664 27.8203 378.445 51.6367 368.961 92.668" />
<path transform="matrix(.1,0,0,-.1,298.772,178.31702)" stroke-width="5.6693" stroke-linecap="butt" stroke-miterlimit="22.9256" stroke-linejoin="miter" fill="none" stroke="#231f20" d="M375.75 339.105C384.719 365.395 396.016 379.781 407.68 379.781 435.258 379.781 457.617 300.992 457.617 203.805 457.617 106.609 435.258 27.8203 407.68 27.8203 392.664 27.8203 378.445 51.6367 368.961 92.668" />
<path transform="matrix(.1,0,0,-.1,298.772,178.31702)" d="M364.305 305.543 365.895 358.215C373.352 348.07 383.129 344.734 395.23 348.211L364.305 305.543" fill="#231f20" fill-rule="evenodd" />
<path transform="matrix(.1,0,0,-.1,298.772,178.31702)" d="M441.359 457.18C442.672 462.301 444.219 468.383 444.219 473.273 444.219 476.133 443.621 478.633 442.078 480.18 441.359 480.793 440.41 481.133 439.453 481.133 438.141 481.133 436.828 480.539 435.75 479.48 434.691 478.402 434.09 477.09 434.09 475.898 434.09 474.949 434.441 473.992 435.16 473.273 438.012 470.648 439.453 466.84 439.453 462.539 439.453 460.992 439.219 459.32 438.859 457.652 436.109 446.574 429.441 435.133 419.777 435.133 412.871 435.133 409.051 440.133 408.219 446.801 409.66 450.152 410.844 453.73 411.668 457.18 411.922 458.262 412.16 459.449 412.16 460.523 412.16 461.949 411.668 463.023 410.25 463.023 408.09 463.023 407.141 460.16 406.551 457.652 405.59 454.09 405 450.512 404.871 447.051 400.953 440.262 395.219 435.133 388.441 435.133 381.277 435.133 378.191 441.09 378.191 448.602 378.191 451.34 378.66 454.199 379.371 457.18 381.16 464.34 385.219 471.133 389.859 477.574 390.09 478.039 390.219 478.402 390.219 478.871 390.219 479.48 389.98 480.074 389.391 480.434 389.027 480.539 388.551 480.539 388.551 480.539 387.828 480.539 387.121 480.18 386.641 479.59 381.75 472.684 378.66 465.164 376.75 457.652 375.563 452.883 374.969 448.121 374.969 443.84 374.969 434.523 378.191 427.383 387 427.383 394.621 427.383 400.699 432.98 405.23 440.621 406.309 432.871 410.25 427.383 418.359 427.383 430.621 427.383 437.781 442.762 441.359 457.18" />
<path transform="matrix(.1,0,0,-.1,298.772,178.31702)" d="M482.051 411.57V414.203H479.262C471.723 414.203 471.48 415.152 471.48 418.09V462.199C471.48 464.34 471.332 464.41 469.191 464.41 465.922 461.242 461.699 459.34 454.16 459.34V456.711C456.309 456.711 460.59 456.711 465.203 458.852V418.09C465.203 415.152 464.969 414.203 457.422 414.203H454.641V411.57C457.891 411.801 464.73 411.801 468.313 411.801 471.871 411.801 478.801 411.801 482.051 411.57" />
<path transform="matrix(.1,0,0,-.1,298.772,178.31702)" d="M163.699 506.504C163.699 507.703 162.879 507.703 160.609 507.703H146.309C143.328 507.703 143.199 507.582 141.887 505.676L98.3906 436.891 89.4375 505.082C89.0898 507.703 88.9688 507.703 85.8789 507.703H71.0898C68.8281 507.703 67.7461 507.703 67.7461 505.441 67.7461 504.234 68.8281 504.234 70.6094 504.234 77.8789 504.234 77.8789 503.281 77.8789 501.973 77.8789 501.973 77.8789 501.016 77.4063 499.234L62.1367 438.441C60.7188 432.723 57.9688 430.094 49.9883 429.734 49.6289 429.734 48.1992 429.625 48.1992 427.594 48.1992 426.285 49.2695 426.285 49.7461 426.285L60.5898 426.516H66.3086C67.9883 426.516 70.0195 426.285 71.6875 426.285 72.5195 426.285 73.8281 426.285 73.8281 428.555 73.8281 429.625 72.6406 429.734 72.1602 429.734 68.2383 429.863 64.4102 430.582 64.4102 434.863 64.4102 436.066 64.4102 436.172 64.8906 437.844L81.3398 503.535H81.4492L91.3594 429.504C91.6992 426.645 91.8281 426.285 92.9063 426.285 94.2188 426.285 94.8086 427.234 95.4063 428.316L143.328 504.125H143.438L126.16 435.113C125.09 430.941 124.84 429.734 116.496 429.734 114.238 429.734 113.047 429.734 113.047 427.594 113.047 426.285 114.129 426.285 114.828 426.285 116.859 426.285 119.25 426.516 121.27 426.516H135.34C137.359 426.516 139.879 426.285 141.887 426.285 142.84 426.285 144.156 426.285 144.156 428.555 144.156 429.734 143.09 429.734 141.297 429.734 134.031 429.734 134.031 430.691 134.031 431.895 134.031 431.895 134.031 432.844 134.27 433.805L150.59 499.004C151.672 503.055 151.906 504.234 160.379 504.234 162.641 504.234 163.699 504.234 163.699 506.504" />
<path transform="matrix(.1,0,0,-.1,298.772,178.31702)" d="M191.879 409.281V411.914H189.09C181.551 411.914 181.309 412.863 181.309 415.805V459.914C181.309 462.055 181.16 462.125 179.02 462.125 175.746 458.953 171.531 457.051 163.988 457.051V454.426C166.137 454.426 170.418 454.426 175.027 456.566V415.805C175.027 412.863 174.797 411.914 167.25 411.914H164.469V409.281C167.719 409.512 174.559 409.512 178.141 409.512 181.699 409.512 188.629 409.512 191.879 409.281" />
<path transform="matrix(.1,0,0,-.1,298.772,178.31702)" d="M242.09 397.316C242.09 397.676 242.09 397.914 240.078 399.941 228.16 411.984 221.492 431.645 221.492 455.973 221.492 479.094 227.082 499.004 240.906 513.066 242.09 514.145 242.09 514.375 242.09 514.734 242.09 515.453 241.5 515.691 241.031 515.691 239.488 515.691 229.699 507.113 223.859 495.426 217.781 483.375 215.051 470.625 215.051 455.973 215.051 445.367 216.699 431.176 222.906 418.414 229.938 404.113 239.719 396.363 241.031 396.363 241.5 396.363 242.09 396.594 242.09 397.316" />
<path transform="matrix(.1,0,0,-.1,298.772,178.31702)" d="M285.59 443.332C285.59 444.055 285.129 444.414 284.406 444.414 284.406 444.414 283.688 444.414 283.449 443.926 283.449 443.926 283.219 443.691 282.379 441.785 279.879 435.813 274.387 427.473 267.488 427.473 263.906 427.473 263.66 430.453 263.66 433.082 263.66 433.082 263.66 435.453 264.02 436.891L273.309 474.203H284.277C286.547 474.203 287.75 474.203 287.75 476.344 287.75 477.664 287.031 477.664 284.637 477.664H274.156L278.559 495.066C279.047 496.734 279.047 496.973 279.047 497.805 279.047 499.727 277.488 500.781 275.938 500.781 274.988 500.781 272.25 500.422 271.297 496.613L266.637 477.664H255.438C253.059 477.664 251.988 477.664 251.988 475.395 251.988 474.203 252.809 474.203 255.078 474.203H265.688L257.828 442.734C256.879 438.566 256.52 437.375 256.52 435.813 256.52 430.223 260.449 425.094 267.129 425.094 279.156 425.094 285.59 442.504 285.59 443.332" />
<path transform="matrix(.1,0,0,-.1,298.772,178.31702)" d="M324.969 455.973C324.969 465.016 323.777 479.805 317.109 493.625 310.078 507.941 300.301 515.691 298.988 515.691 298.52 515.691 297.918 515.453 297.918 514.734 297.918 514.375 297.918 514.145 299.938 512.113 311.859 500.063 318.527 480.414 318.527 456.082 318.527 432.953 312.938 413.055 299.109 398.984 297.918 397.914 297.918 397.676 297.918 397.316 297.918 396.594 298.52 396.363 298.988 396.363 300.527 396.363 310.309 404.945 316.16 416.625 322.238 428.781 324.969 441.664 324.969 455.973" />
<path transform="matrix(.1,0,0,-.1,298.772,178.31702)" d="M694.59 395.004C694.59 414.664 681.711 426.703 665.023 426.703 639.508 426.703 613.762 399.281 613.762 371.754 613.762 353.031 626.168 340.285 643.449 340.285 668.48 340.285 694.59 366.395 694.59 395.004ZM685.293 398.453C685.293 388.805 681.949 371.625 671.699 358.516 663.59 348.266 653.102 342.785 644.172 342.785 633.672 342.785 623.184 350.301 623.184 368.414 623.184 379.266 627.48 395.473 635.699 406.801 644.633 418.953 655.48 424.313 664.434 424.313 674.684 424.313 685.293 416.922 685.293 398.453ZM675.379 377.953C675.738 379.375 678.371 389.863 678.371 390.344 678.371 390.941 677.898 391.531 677.184 391.531 676.098 391.531 675.992 390.941 675.738 389.863 675.148 387.844 675.148 387.484 675.148 387.484H635.461C635.57 387.953 636.059 389.984 636.059 390.344 636.059 390.941 635.57 391.531 634.871 391.531 633.789 391.531 633.672 391.066 633.199 389.164 632.84 387.723 630.211 377.234 630.211 376.754 630.211 376.164 630.699 375.566 631.398 375.566 632.48 375.566 632.602 376.164 632.84 377.234 633.43 379.266 633.43 379.613 633.43 379.613H673.121C673.008 379.145 672.523 377.113 672.523 376.754 672.523 376.164 673.008 375.566 673.73 375.566 674.789 375.566 674.922 376.051 675.379 377.953" />
<path transform="matrix(.1,0,0,-.1,298.772,178.31702)" d="M733.559 325.781V328.414H730.77C723.23 328.414 722.988 329.363 722.988 332.301V376.414C722.988 378.551 722.84 378.625 720.699 378.625 717.43 375.453 713.211 373.551 705.672 373.551V370.926C707.82 370.926 712.098 370.926 716.711 373.066V332.301C716.711 329.363 716.48 328.414 708.93 328.414H706.148V325.781C709.402 326.012 716.242 326.012 719.82 326.012 723.383 326.012 730.313 326.012 733.559 325.781" />
<path transform="matrix(.1,0,0,-.1,298.772,178.31702)" d="M1497.75 459.305C1497.75 478.961 1484.88 491.004 1468.19 491.004 1442.68 491.004 1416.93 463.582 1416.93 436.051 1416.93 417.332 1429.34 404.582 1446.62 404.582 1471.64 404.582 1497.75 430.691 1497.75 459.305ZM1488.46 462.754C1488.46 453.102 1485.12 435.922 1474.87 422.813 1466.76 412.563 1456.27 407.082 1447.34 407.082 1436.84 407.082 1426.35 414.602 1426.35 432.711 1426.35 443.563 1430.64 459.77 1438.87 471.102 1447.8 483.254 1458.64 488.609 1467.6 488.609 1477.85 488.609 1488.46 481.223 1488.46 462.754ZM1478.55 442.254C1478.91 443.672 1481.54 454.16 1481.54 454.645 1481.54 455.242 1481.07 455.832 1480.35 455.832 1479.27 455.832 1479.16 455.242 1478.91 454.16 1478.32 452.145 1478.32 451.781 1478.32 451.781H1438.63C1438.73 452.25 1439.23 454.281 1439.23 454.645 1439.23 455.242 1438.73 455.832 1438.04 455.832 1436.96 455.832 1436.84 455.363 1436.37 453.461 1436 452.02 1433.38 441.531 1433.38 441.051 1433.38 440.461 1433.87 439.863 1434.57 439.863 1435.64 439.863 1435.77 440.461 1436 441.531 1436.59 443.563 1436.59 443.91 1436.59 443.91H1476.29C1476.18 443.441 1475.69 441.41 1475.69 441.051 1475.69 440.461 1476.18 439.863 1476.89 439.863 1477.96 439.863 1478.09 440.352 1478.55 442.254" />
<path transform="matrix(.1,0,0,-.1,298.772,178.31702)" d="M1539.12 404.301H1536.65C1536.41 402.719 1535.77 398.742 1534.82 397.242 1534.35 396.602 1528.3 396.602 1527.04 396.602H1512.89L1523.62 406.301C1524.9 407.492 1528.23 410.109 1529.51 411.223 1534.43 415.75 1539.12 420.133 1539.12 427.352 1539.12 436.813 1531.16 442.922 1521.24 442.922 1511.69 442.922 1505.43 435.691 1505.43 428.633 1505.43 424.742 1508.52 424.172 1509.63 424.172 1511.3 424.172 1513.77 425.359 1513.77 428.383 1513.77 432.523 1509.79 432.523 1508.84 432.523 1511.15 438.313 1516.48 440.301 1520.37 440.301 1527.76 440.301 1531.57 434.031 1531.57 427.352 1531.57 419.082 1525.77 413.055 1516.38 403.422L1506.38 393.102C1505.43 392.223 1505.43 392.063 1505.43 390.082H1536.82L1539.12 404.301" />
</g>

</svg>