<svg xmlns="http://www.w3.org/2000/svg" xmlns:xlink="http://www.w3.org/1999/xlink" version="1.1" width="250.000" height="150.000" viewBox="277.433 88.821 250.000 150.000">
<defs>
<clipPath id="clip_2">
<path transform="matrix(1,0,0,-1,287.433,228.82105)" d="M0 0H230V130H0Z" />
</clipPath>

<path id="font_3_6" d="M.33399964 .3019867C.33499146 .30899049 .33799745 .31900025 .34199525 .33198548 .34599305 .34498597 .35198976 .35798646 .3600006 .37098695 .36698915 .38398744 .3769989 .394989 .3889923 .40499879 .40098573 .4149933 .41600038 .41999818 .43299867 .41999818 .43598939 .41999818 .44198609 .41999818 .45199586 .4189911 .46199037 .41799928 .47200013 .4139862 .48298646 .40699769 .46899415 .4039917 .45799256 .397995 .44898988 .3869934 .43998719 .37599183 .43499757 .36499024 .43499757 .35299684 .43499757 .34498597 .43798829 .33699037 .44400025 .32998658 .44999696 .32199098 .45999146 .31799317 .47299195 .31799317 .47799684 .31799317 .48399354 .31900025 .4909973 .32199098 .49699403 .32398988 .5029907 .32699586 .5079956 .33198548 .5130005 .33699037 .5179901 .34298707 .5219879 .34999085 .5249939 .35699464 .5269928 .3659973 .5269928 .37599183 .5269928 .3889923 .5239868 .39898683 .5169983 .4079895 .5099945 .4169922 .5019989 .42399598 .49299623 .42900086 .48399354 .43399049 .47399903 .43699647 .46299745 .43899537 .45199586 .44099427 .44299317 .44198609 .43399049 .44198609 .4189911 .44198609 .4059906 .43899537 .394989 .43399049 .3829956 .42799378 .37298585 .42099 .3639984 .41299439 .35499574 .40499879 .34799195 .39698792 .34199525 .3880005 .33599855 .3789978 .33198548 .37199403 .32899476 .3659973 .32299806 .3829956 .31498719 .3959961 .30599977 .4059906 .29699708 .41600038 .2869873 .42399598 .2769928 .42900086 .2659912 .43399049 .2559967 .43798829 .24699402 .43998719 .23699951 .44099427 .22799683 .44198609 .22099304 .44198609 .19499207 .44198609 .17199707 .43499757 .1519928 .42199708 .13198853 .4079895 .114990238 .3919983 .101989749 .375 .08799744 .35699464 .07798767 .33999635 .070999149 .32299806 .06399536 .30599977 .05999756 .2939911 .05999756 .28799439 .05999756 .2829895 .06199646 .27999879 .06498718 .2789917 .067993167 .27799989 .070999149 .27799989 .07199097 .27799989 .07899475 .27799989 .083999637 .28199769 .084991458 .2889862 .09399414 .31599427 .10398865 .33799745 .115997318 .35499574 .1269989 .37199403 .13899231 .3849945 .1519928 .394989 .16499329 .4039917 .1769867 .41099549 .18899536 .4149933 .19999695 .41799928 .20999146 .41999818 .21899414 .41999818 .22399903 .41999818 .22898865 .4189911 .23599243 .41799928 .24198914 .41600038 .24798584 .41299439 .25299073 .4079895 .2579956 .40299989 .2630005 .39698792 .2669983 .3880005 .2709961 .3789978 .272995 .36799623 .272995 .35299684 .272995 .33799745 .2689972 .31199647 .2599945 .2749939 .25099183 .23799134 .23799134 .18499756 .21899414 .114990238 .21099854 .083999637 .19898987 .05899048 .18199158 .039993287 .16499329 .020996094 .1459961 .010986328 .12399292 .010986328 .12098694 .010986328 .11399841 .011993408 .10499573 .0129852299 .09498596 .01399231 .084991458 .016998291 .07398987 .023986817 .08699036 .026992798 .09799194 .032989503 .10699463 .042999269 .115997318 .051986696 .12098694 .06399536 .12098694 .07798767 .12098694 .09098816 .116989139 .100997928 .10798645 .10598755 .09899902 .11099243 .09098816 .11299133 .083999637 .11299133 .068984989 .11299133 .055999757 .10699463 .04499817 .09599304 .033996583 .084991458 .0289917 .070999149 .0289917 .054992677 .0289917 .04399109 .03199768 .033996583 .037994386 .025985718 .042999269 .016998291 .050994874 .009994507 .05999756 .004989624 .068984989 0 .07899475-.0040130617 .08999634-.007003784 .100997928-.010009766 .11199951-.011001587 .12298584-.011001587 .13999939-.011001587 .1539917-.007003784 .16699219 0 .17999268 .0069885256 .18998719 .015991211 .19898987 .024993897 .20799256 .033996583 .21499634 .041992189 .21998596 .050994874 .22499085 .05899048 .22698975 .06399536 .22799683 .06498718 .23399353 .04598999 .24598694 .0289917 .2639923 .0129852299 .28199769-.0030059815 .30599977-.011001587 .33599855-.011001587 .3619995-.011001587 .3849945-.0040130617 .40499879 .009994507 .42399598 .022994996 .44099427 .038986207 .45498658 .056991579 .46798707 .07398987 .47898866 .09199524 .48599244 .10899353 .49299623 .12599182 .49598695 .13699341 .49598695 .14299011 .49598695 .147995 .49398805 .15098572 .4909973 .1519928 .48799134 .15299988 .4850006 .15299988 .48399354 .15299988 .47898866 .15299988 .47599793 .1519928 .47499085 .1499939 .47399903 .147995 .47200013 .14498902 .47099305 .14199829 .46299745 .114990238 .45298768 .09399414 .44099427 .07699585 .42900086 .05999756 .4169922 .04598999 .4039917 .036987306 .3909912 .026992798 .3789978 .019989014 .36799623 .016998291 .35598756 .0129852299 .34599305 .010986328 .33799745 .010986328 .31900025 .010986328 .30499269 .017990113 .29599 .0309906 .2869873 .04399109 .2829895 .05999756 .2829895 .07699585 .2829895 .08799744 .2849884 .099990848 .28799439 .11299133 .29100038 .12599182 .29499818 .14299011 .2999878 .16499329L.33399964 .3019867Z" />

<path id="font_3_5" d="M.34999085 .055999757C.35499574 .034988405 .3659973 .018997193 .3829956 .0069885256 .39898683-.005004883 .41799928-.011001587 .43899537-.011001587 .45599366-.011001587 .47099305-.006011963 .48298646 .004989624 .49499513 .01499939 .5049896 .027999878 .5130005 .04399109 .5169983 .052993776 .5209961 .06298828 .5249939 .07398987 .5279999 .084991458 .5309906 .09599304 .5339966 .10598755 .5369873 .115997318 .5389862 .125 .54100039 .13198853 .5419922 .13899231 .54299929 .14199829 .54299929 .14299011 .54299929 .147995 .54100039 .15098572 .5379944 .1519928 .5349884 .15299988 .5319977 .15299988 .5309906 .15299988 .526001 .15299988 .5219879 .1519928 .5209961 .1499939 .519989 .14698792 .5179901 .14199829 .5169983 .1349945 .5139923 .12098694 .5099945 .10699463 .5059967 .09199524 .5009918 .07699585 .49598695 .06399536 .48999024 .051986696 .48399354 .039993287 .47698976 .02999878 .46998597 .022994996 .46199037 .01499939 .45298768 .010986328 .44198609 .010986328 .43099977 .010986328 .42399598 .01499939 .4189911 .021987915 .4139862 .0289917 .41099549 .039993287 .41099549 .056991579 .41099549 .06199646 .4119873 .068984989 .41299439 .07798767 .4139862 .085998538 .41600038 .09498596 .41799928 .10398865 .41999818 .11299133 .42199708 .12298584 .4249878 .1329956 .4269867 .14299011 .42900086 .1519928 .43099977 .16099549 .43598939 .1789856 .43998719 .19699097 .44499208 .21499634 .44999696 .23298645 .45399476 .25099183 .45899964 .2689972 .45999146 .272995 .46099855 .27799989 .46299745 .28399659 .46398927 .2899933 .46598817 .29599 .46798707 .30299378 .46899415 .30999757 .47099305 .31599427 .47200013 .32199098 .47299195 .32798768 .47499085 .33299256 .47599793 .33699037 .47698976 .34298707 .47898866 .34999085 .48098756 .35699464 .48199464 .3639984 .48399354 .36999513 .48599244 .3769989 .4869995 .38398744 .4889984 .3899994 .48999024 .394989 .4909973 .3999939 .4909973 .40299989 .4909973 .4039917 .4909973 .41299439 .48799134 .41999818 .48199464 .4249878 .47599793 .42900086 .46899415 .43099977 .46199037 .43099977 .46099855 .43099977 .45799256 .43099977 .45498658 .43099977 .45199586 .42999269 .44799806 .42900086 .44400025 .4269867 .43998719 .42399598 .43598939 .42099 .43199159 .41600038 .42799378 .41099549 .4249878 .40499879 .4229889 .3959961 .41799928 .37799073 .4119873 .35499574 .40499879 .32598878 .397995 .29699708 .3899994 .2679901 .3829956 .23799134 .37599183 .20799256 .36898805 .17999268 .3619995 .1539917 .35499574 .12799073 .35099793 .10798645 .34799195 .09498596 .34799195 .09399414 .34498597 .08898926 .33999635 .07998657 .33499146 .070999149 .32699586 .06199646 .31799317 .051986696 .30899049 .040985109 .29699708 .03199768 .2829895 .023986817 .2679901 .01499939 .2519989 .010986328 .23399353 .010986328 .22099304 .010986328 .20999146 .01399231 .20199585 .018997193 .19400025 .023986817 .18798828 .02999878 .18399048 .037994386 .1789856 .04598999 .17599488 .054992677 .1749878 .06498718 .17298889 .07398987 .17199707 .083999637 .17199707 .09298706 .17199707 .10699463 .17399597 .12199402 .1769867 .13899231 .17999268 .1559906 .18499756 .17298889 .18998719 .19099427 .19499207 .20799256 .19999695 .22599793 .20698548 .24398804 .21299744 .2619934 .21899414 .27999879 .22599793 .29699708 .23199463 .31199647 .23599243 .32398988 .23899842 .33299256 .24198914 .34199525 .24299622 .35099793 .24299622 .3600006 .24299622 .3829956 .23599243 .4019928 .22099304 .41799928 .20599365 .43399049 .18598938 .44198609 .16099549 .44198609 .14498902 .44198609 .1309967 .43798829 .117996219 .43099977 .10499573 .42399598 .09399414 .4149933 .084991458 .4039917 .07499695 .3929901 .066986087 .38198854 .05999756 .36898805 .052993776 .35598756 .04699707 .34298707 .041992189 .33198548 .036987306 .32099916 .033996583 .31098939 .03199768 .30299378 .02999878 .2939911 .0289917 .2889862 .0289917 .28799439 .0289917 .2829895 .0309906 .27999879 .033996583 .2789917 .036987306 .27799989 .039993287 .27799989 .040985109 .27799989 .04598999 .27799989 .049987794 .2789917 .050994874 .2809906 .051986696 .2829895 .053985597 .28799439 .056991579 .29599 .069992069 .33999635 .084991458 .37199403 .102996829 .3909912 .11999512 .4099884 .13899231 .41999818 .1579895 .41999818 .16299439 .41999818 .16799927 .4189911 .17399597 .41600038 .17999268 .41299439 .18299866 .40299989 .18299866 .3869934 .18299866 .375 .18099976 .36299134 .1769867 .34999085 .17298889 .33699037 .16899109 .32598878 .1659851 .31900025 .14698792 .2689972 .1329956 .22799683 .12298584 .19499207 .11299133 .1619873 .10798645 .13398743 .10798645 .10899353 .10798645 .084991458 .11199951 .06498718 .11999512 .049987794 .1269989 .034988405 .13699341 .022994996 .14898682 .01399231 .16099549 .004989624 .17399597-.0020141602 .18899536-.006011963 .20399475-.009002686 .21798706-.011001587 .23098755-.011001587 .24798584-.011001587 .2619934-.009002686 .2749939-.0040130617 .28799439 .0019989014 .29899598 .0079956059 .30899049 .01499939 .31799317 .021987915 .32699586 .0289917 .33399964 .036987306 .34098817 .04399109 .34599305 .050994874 .34999085 .055999757Z" />

<path id="font_3_4" d="M.20599365 .3999939H.2999878C.30999757 .3999939 .31799317 .40098573 .32299806 .40299989 .32798768 .4039917 .32998658 .4099884 .32998658 .41999818 .32998658 .4249878 .32798768 .42900086 .32299806 .42999269 .31799317 .43099977 .31098939 .43099977 .3019867 .43099977H.21398926C.22299195 .46598817 .22999573 .49499513 .23599243 .5159912 .24099732 .5369873 .24499512 .55400088 .24798584 .56599429 .25099183 .5779877 .25299073 .58599856 .2539978 .59098818 .25498963 .59498599 .25498963 .59799197 .25498963 .598999 .25498963 .60798647 .2519989 .6139984 .24699402 .61898806 .24198914 .6239929 .23498535 .6259918 .22599793 .6259918 .22499085 .6259918 .22299195 .6259918 .21998596 .6259918 .21699524 .625 .21299744 .6239929 .20899964 .621994 .20399475 .61898806 .19999695 .6159973 .19599915 .61099246 .19099427 .60598757 .18798828 .598999 .18598938 .58999636L.14698792 .43099977H.052993776C.042999269 .43099977 .035995485 .42999269 .0309906 .42900086 .025985718 .4269867 .022994996 .42099 .022994996 .4119873 .022994996 .4059906 .024993897 .40299989 .02999878 .4019928 .033996583 .40098573 .040985109 .3999939 .050994874 .3999939H.13899231C.1269989 .35299684 .116989139 .31199647 .10899353 .2789917 .099990848 .24598694 .09298706 .21798706 .08799744 .19499207 .08198547 .17199707 .07699585 .1539917 .07398987 .14099121 .070999149 .1269989 .067993167 .115997318 .066986087 .10899353 .06498718 .100997928 .06399536 .09498596 .06399536 .09098816 .06298828 .08699036 .06298828 .083999637 .06298828 .08099365 .06298828 .053985597 .07199097 .03199768 .08898926 .01499939 .10598755-.0030059815 .12799073-.011001587 .15499878-.011001587 .17999268-.011001587 .20298767-.0030059815 .22299195 .011993408 .24198914 .026992798 .25898744 .04399109 .272995 .06298828 .28599549 .08198547 .29699708 .09899902 .3039856 .115997318 .31098939 .13198853 .31399537 .14099121 .31399537 .14299011 .31399537 .147995 .31298829 .15098572 .30999757 .1519928 .30699159 .15299988 .3039856 .15299988 .3019867 .15299988 .29699708 .15299988 .2939911 .1519928 .29299928 .1499939 .2919922 .147995 .2899933 .14399719 .2869873 .13899231 .27598573 .11299133 .2649994 .09199524 .2539978 .07499695 .24198914 .057998659 .22999573 .04499817 .21899414 .035995485 .20698548 .026992798 .19599915 .019989014 .18598938 .016998291 .1749878 .0129852299 .1659851 .010986328 .15699768 .010986328 .1459961 .010986328 .13899231 .01499939 .13398743 .021987915 .1289978 .0289917 .12599182 .039993287 .12599182 .056991579 .12599182 .068984989 .1269989 .07798767 .12799073 .083999637 .1289978 .08898926 .12998963 .09599304 .13198853 .10499573L.20599365 .3999939Z" />

<path id="font_4_11" d="M.33099366-.2400055C.33099366-.23901367 .32998658-.23701477 .32899476-.23500061 .32798768-.23200989 .32299806-.227005 .31399537-.21800232 .2829895-.18701172 .25698854-.15200806 .23699951-.11401367 .21598816-.07501221 .19999695-.036010744 .18899536 .005996704 .1769867 .04699707 .16899109 .08799744 .1639862 .12998963 .15899658 .17199707 .15699768 .21199036 .15699768 .25 .15699768 .29299928 .1599884 .33699037 .16499329 .37998963 .16999817 .4229889 .1789856 .46398927 .19198609 .5049896 .20399475 .54599 .21998596 .58399966 .24099732 .62098696 .2619934 .6579895 .2869873 .69200137 .31799317 .72299197 .32499696 .72898867 .32899476 .73298647 .32998658 .7350006 .33099366 .7369995 .33099366 .7389984 .33099366 .73999026 .33099366 .746994 .32798768 .75 .32099916 .75 .31799317 .75 .31098939 .74598696 .2999878 .73799136 .2889862 .72898867 .2749939 .71699526 .2599945 .69999697 .24499512 .68299868 .22799683 .6629944 .21099854 .6389923 .19299317 .61499026 .1769867 .58699038 .1619873 .5549927 .13699341 .5 .11999512 .44599916 .11199951 .3929901 .102996829 .33999635 .09899902 .2919922 .09899902 .25 .09899902 .23098755 .099990848 .20899964 .101989749 .18499756 .102996829 .1599884 .10699463 .1349945 .11199951 .10798645 .116989139 .08099365 .12298584 .052993776 .13198853 .023986817 .13999939-.006011963 .15098572-.03401184 .16499329-.06201172 .17999268-.09300232 .19599915-.120010379 .21299744-.14300537 .22999573-.16600037 .24699402-.18600464 .2619934-.20201111 .2769928-.21800232 .2899933-.23001099 .30099488-.23800659 .31199647-.2460022 .31799317-.25001527 .32099916-.25001527 .32798768-.25001527 .33099366-.24700928 .33099366-.2400055Z" />

<path id="font_4_13" d="M.1789856 .015991211C.17999268 .015991211 .17999268 .01499939 .18099976 .01399231 .18099976 .0129852299 .18099976 .0079956059 .18099976 .0009918213 .18099976-.03100586 .1749878-.06201172 .1619873-.0920105 .14898682-.1210022 .1309967-.14801026 .10899353-.17100525 .10598755-.17401123 .10398865-.17700196 .102996829-.17800904 .101989749-.17900086 .101989749-.18000794 .101989749-.18200684 .101989749-.18901062 .10499573-.19300843 .11199951-.19300843 .114990238-.19300843 .12098694-.18800354 .1309967-.17900086 .14099121-.17001343 .15098572-.15701294 .1619873-.14001465 .17298889-.1230011 .18199158-.102005008 .19099427-.07800293 .19898987-.054000856 .20298767-.028015137 .20298767 .0009918213 .20298767 .032989503 .19699097 .05899048 .18598938 .07798767 .1749878 .09700012 .15899658 .10598755 .13899231 .10598755 .12199402 .10598755 .10899353 .100997928 .099990848 .08999634 .09098816 .07899475 .085998538 .06599426 .085998538 .052993776 .085998538 .039993287 .08999634 .027999878 .09899902 .016998291 .10798645 .005996704 .12098694 0 .13899231 0 .14698792 0 .1539917 .0009918213 .1599884 .0039978029 .1659851 .0069885256 .17199707 .009994507 .1769867 .01399231L.1789856 .015991211Z" />

<path id="font_4_12" d="M.2889862 .25C.2889862 .2689972 .28799439 .29100038 .2869873 .31599427 .2849884 .33999635 .28199769 .3659973 .2769928 .3929901 .27198792 .41999818 .2649994 .44799806 .25698854 .47698976 .24798584 .5059967 .23699951 .5339966 .22299195 .56199648 .20799256 .59298709 .19198609 .6199951 .1749878 .6429901 .1579895 .66600039 .14199829 .6859894 .1269989 .70199587 .11199951 .71798709 .09899902 .7299957 .08799744 .73799136 .07699585 .74598696 .069992069 .75 .066986087 .75 .05999756 .75 .056991579 .746994 .056991579 .73999026 .056991579 .7389984 .057998659 .7369995 .05999756 .7350006 .06098938 .7319946 .066986087 .7259979 .07598877 .71699526 .125 .6669922 .1639862 .6029968 .19099427 .5249939 .21798706 .44699098 .23098755 .35499574 .23098755 .25 .23098755 .20698548 .22898865 .16499329 .22399903 .12199402 .21899414 .07899475 .20999146 .036987306 .19699097-.0040130617 .18399048-.044006349 .16799927-.08300781 .14698792-.120010379 .12599182-.15701294 .100997928-.19200135 .069992069-.2230072 .06298828-.2290039 .05999756-.23300171 .05899048-.23500061 .057998659-.23701477 .056991579-.23901367 .056991579-.2400055 .056991579-.24700928 .05999756-.25001527 .066986087-.25001527 .069992069-.25001527 .07699585-.2460022 .08799744-.23800659 .09899902-.2290039 .11299133-.2170105 .12799073-.2000122 .14299011-.18301392 .1599884-.16300965 .17799378-.13900757 .19499207-.11500549 .21099854-.087005618 .22599793-.055007936 .25099183 0 .2679901 .054992677 .2769928 .10798645 .2849884 .16099549 .2889862 .20799256 .2889862 .25Z" />

<clipPath id="clip_5">
<path transform="matrix(.1,0,0,-.1,287.433,228.82105)" d="M1929.5 507.57H2211.08V456.313H1929.5V507.57Z" clip-rule="evenodd" />
</clipPath>

<clipPath id="clip_6">
<path transform="matrix(.1,0,0,-.1,287.433,228.82105)" d="M7.05078 1242.72H164.391V1293.98H7.05078V1242.72Z" clip-rule="evenodd" />
</clipPath>

<clipPath id="clip_7">
<path transform="matrix(.1,0,0,-.1,287.433,228.82105)" d="M7.05078 51.8086H164.391V.550781H7.05078V51.8086Z" clip-rule="evenodd" />
</clipPath>

<path id="font_4_10" d="M.68699648 .32699586C.69400027 .32699586 .70199587 .32798768 .70999148 .32998658 .71699526 .33099366 .72099307 .33699037 .72099307 .34700013 .72099307 .35699464 .71699526 .36299134 .70999148 .36499024 .7029877 .3659973 .69499209 .36698915 .6879883 .36698915H.08898926C.08198547 .36698915 .07398987 .3659973 .066986087 .36499024 .05999756 .36299134 .055999757 .35699464 .055999757 .34700013 .055999757 .33699037 .05999756 .33099366 .067993167 .32998658 .07499695 .32798768 .08299255 .32699586 .08999634 .32699586H.68699648M.6879883 .1329956C.69499209 .1329956 .7029877 .13398743 .70999148 .13598633 .71699526 .13699341 .72099307 .14299011 .72099307 .15299988 .72099307 .16299439 .71699526 .16899109 .70999148 .17098999 .70199587 .17199707 .69400027 .17298889 .68699648 .17298889H.08999634C.08299255 .17298889 .07499695 .17199707 .067993167 .17098999 .05999756 .16899109 .055999757 .16299439 .055999757 .15299988 .055999757 .14299011 .05999756 .13699341 .066986087 .13598633 .07398987 .13398743 .08198547 .1329956 .08898926 .1329956H.6879883Z" />

<path id="font_4_14" d="M.45999146 .31999208C.45999146 .3600006 .45799256 .3999939 .45298768 .43899537 .44799806 .47799684 .43699647 .5169983 .41999818 .55400088 .40899659 .5779877 .394989 .5970001 .37998963 .6119995 .36499024 .6269989 .34899903 .6380005 .33399964 .6459961 .31799317 .6539917 .30299378 .6589966 .28799439 .6619873 .272995 .6649933 .26098634 .66600039 .25 .66600039 .23498535 .66600039 .21899414 .6639862 .20298767 .6609955 .18699646 .6569977 .17098999 .651001 .1559906 .6419983 .14099121 .6329956 .12599182 .6199951 .11199951 .6049957 .09799194 .58999636 .085998538 .56999209 .07598877 .5469971 .05999756 .5119934 .049987794 .47599793 .04598999 .43798829 .040985109 .39898683 .038986207 .3600006 .038986207 .31999208 .038986207 .30099488 .039993287 .28199769 .040985109 .2619934 .041992189 .24099732 .04399109 .22099304 .04699707 .19999695 .049987794 .1789856 .053985597 .15899658 .05999756 .13798523 .06599426 .116989139 .07398987 .09799194 .083999637 .07899475 .09498596 .05899048 .10699463 .041992189 .12098694 .0289917 .1349945 .015991211 .1499939 .004989624 .16499329-.0020141602 .17999268-.009002686 .19400025-.015014648 .20899964-.018005372 .22399903-.021011353 .23699951-.022003174 .24899292-.022003174 .2619934-.022003174 .2769928-.020004273 .29299928-.01701355 .30799867-.014007568 .32398988-.008010864 .33999635 .0009918213 .35499574 .008987427 .36999513 .020996094 .3849945 .035995485 .39898683 .050994874 .4119873 .069992069 .4229889 .09399414 .43899537 .1289978 .44898988 .16499329 .45399476 .20298767 .45799256 .24099732 .45999146 .27999879 .45999146 .31999208M.24899292 0C.23899842 0 .22799683 .0019989014 .21699524 .005996704 .20599365 .008987427 .19499207 .015991211 .18399048 .024993897 .17298889 .033996583 .16299439 .04598999 .1539917 .06199646 .14498902 .07699585 .13798523 .09700012 .1329956 .12098694 .12998963 .13598633 .12799073 .1519928 .1269989 .17098999 .125 .18899536 .12399292 .20799256 .12298584 .22698975 .12199402 .24598694 .12199402 .2639923 .12199402 .28199769 .12199402 .30099488 .12199402 .31698609 .12199402 .33198548 .12199402 .3639984 .12199402 .3959961 .12298584 .42799378 .12399292 .45899964 .12599182 .4889984 .12998963 .5159912 .1349945 .54599 .14199829 .56999209 .15299988 .58699038 .1639862 .60398867 .1749878 .6159973 .18699646 .625 .19898987 .6329956 .21099854 .6380005 .22299195 .6409912 .23399353 .6429901 .24299622 .6439972 .24899292 .6439972 .25698854 .6439972 .2669983 .6429901 .2789917 .6399994 .2899933 .6369934 .3019867 .6309967 .31298829 .6230011 .32398988 .6139984 .33499146 .60198977 .34498597 .58699038 .35499574 .57199099 .3619995 .5519867 .36698915 .5269928 .37199403 .49899293 .375 .46798707 .37599183 .43299867 .3769989 .397995 .3769989 .3639984 .3769989 .33198548 .3769989 .2939911 .3769989 .2579956 .37599183 .22399903 .375 .18998719 .37098695 .15699768 .3659973 .125 .3619995 .100997928 .35598756 .08099365 .34799195 .06498718 .33898927 .04899597 .32998658 .035995485 .31900025 .026992798 .30799867 .016998291 .29599 .009994507 .28399659 .005996704 .27198792 .0019989014 .2599945 0 .24899292 0Z" />

<path id="font_3_7" d="M.2579956 .68299868C.2579956 .6839905 .2579956 .6859894 .25698854 .68899539 .2559967 .69200137 .2519989 .69400027 .24499512 .69400027 .23899842 .69400027 .23098755 .69400027 .21998596 .69299319 .20899964 .69200137 .19699097 .69099429 .18499756 .6899872 .17298889 .68899539 .16099549 .6879883 .1499939 .68699648 .13899231 .6859894 .12998963 .68499758 .12298584 .6839905 .11898804 .68299868 .114990238 .6819916 .11099243 .6799927 .10598755 .6779938 .10398865 .6719971 .10398865 .6629944 .10398865 .6579895 .10598755 .6549988 .11099243 .6539917 .115997318 .6529999 .12199402 .6519928 .1289978 .6519928 .14099121 .6519928 .1499939 .6519928 .15699768 .651001 .1639862 .6499939 .16899109 .647995 .17199707 .6469879 .1749878 .644989 .17599488 .6429901 .1769867 .6409912 .17799378 .6389923 .17799378 .6369934 .17799378 .6349945L.1749878 .61499026 .04899597 .114990238C.04798889 .10998535 .04699707 .10499573 .04598999 .099990848 .04499817 .09498596 .04399109 .08898926 .04399109 .08099365 .04399109 .066986087 .04699707 .053985597 .051986696 .042999269 .056991579 .03199768 .06298828 .021987915 .07199097 .01399231 .08099365 .005996704 .08999634 0 .100997928-.005004883 .11199951-.009002686 .12298584-.011001587 .1349945-.011001587 .16799927-.011001587 .19299317 .0079956059 .20999146 .04499817 .21499634 .053985597 .21899414 .06498718 .22299195 .07598877 .22599793 .08699036 .22898865 .09799194 .23199463 .10798645 .23498535 .116989139 .23699951 .125 .23799134 .13198853 .23899842 .13899231 .23999024 .14199829 .23999024 .14299011 .23999024 .147995 .23799134 .15098572 .23498535 .1519928 .23199463 .15299988 .22898865 .15299988 .22799683 .15299988 .22299195 .15299988 .21899414 .1519928 .21798706 .1499939 .21699524 .14698792 .21499634 .14199829 .21398926 .1349945 .20999146 .11898804 .20599365 .10398865 .20098877 .08898926 .19599915 .07398987 .19099427 .05999756 .18499756 .04899597 .1789856 .036987306 .17199707 .027999878 .16499329 .020996094 .15699768 .01399231 .147995 .010986328 .13798523 .010986328 .1309967 .010986328 .125 .0129852299 .12098694 .015991211 .116989139 .018997193 .11399841 .023986817 .11199951 .0289917 .10998535 .033996583 .10899353 .038986207 .10899353 .04399109 .10798645 .04899597 .10798645 .053985597 .10798645 .056991579 .10798645 .068984989 .10798645 .07798767 .10899353 .08299255 .10998535 .08799744 .11099243 .09599304 .11399841 .10499573L.2579956 .68299868Z" />

<path id="font_4_5" d="M.37998963 .054992677V-.011001587L.5269928 0V.0309906C.5099945 .0309906 .49598695 .03199768 .48599244 .032989503 .47499085 .033996583 .46699525 .036987306 .46199037 .040985109 .45700074 .04499817 .45298768 .050994874 .45199586 .057998659 .44999696 .06498718 .44898988 .07499695 .44898988 .08699036V.69400027L.30499269 .68299868V.6519928C.32199098 .6519928 .33599855 .651001 .34700013 .6499939 .35699464 .6489868 .36499024 .6459961 .36999513 .6419983 .375 .6380005 .3789978 .6319885 .3809967 .625 .38198854 .6179962 .3829956 .60798647 .3829956 .59599307V.37998963C.36799623 .397995 .35099793 .41299439 .32998658 .4249878 .30899049 .43598939 .28399659 .44198609 .25698854 .44198609 .22799683 .44198609 .19999695 .43598939 .17298889 .4249878 .1459961 .41299439 .12199402 .39698792 .100997928 .3769989 .07998657 .35598756 .06399536 .33198548 .051986696 .30499269 .039993287 .2769928 .033996583 .24699402 .033996583 .21499634 .033996583 .18299866 .039993287 .15299988 .050994874 .12599182 .06199646 .09899902 .07798767 .07499695 .09700012 .054992677 .115997318 .033996583 .13899231 .017990113 .16499329 .0069885256 .18998719-.005004883 .21699524-.011001587 .24598694-.011001587 .27799989-.011001587 .30499269-.0040130617 .32798768 .009994507 .34999085 .023986817 .36698915 .038986207 .37998963 .054992677M.37998963 .32299806V.117996219C.37998963 .10899353 .37998963 .101989749 .3789978 .09899902 .37799073 .09599304 .37399293 .08999634 .36898805 .08099365 .35398866 .056991579 .33599855 .038986207 .31498719 .027999878 .2939911 .016998291 .27198792 .010986328 .25099183 .010986328 .22799683 .010986328 .20799256 .016998291 .19099427 .0289917 .17298889 .039993287 .1579895 .055999757 .1459961 .07499695 .1329956 .09599304 .125 .11898804 .12199402 .14498902 .11898804 .16999817 .116989139 .19299317 .116989139 .21398926 .116989139 .22299195 .116989139 .23399353 .117996219 .24598694 .11898804 .25698854 .11999512 .2689972 .12199402 .28199769 .12399292 .29499818 .1269989 .30699159 .1309967 .31999208 .1349945 .33299256 .14099121 .34498597 .147995 .35598756 .15899658 .37098695 .17298889 .38598634 .19198609 .3999939 .21099854 .41299439 .23399353 .41999818 .26098634 .41999818 .27799989 .41999818 .29699708 .41600038 .31698609 .40699769 .33599855 .397995 .35398866 .3829956 .36898805 .3600006 .37399293 .35099793 .37799073 .34498597 .3789978 .34199525 .37998963 .33898927 .37998963 .33198548 .37998963 .32299806Z" />

<path id="font_3_8" d="M.08799744 .05899048C.08699036 .051986696 .084991458 .042999269 .08299255 .033996583 .07998657 .024993897 .07899475 .018997193 .07899475 .015991211 .07899475 .0069885256 .08198547 0 .08799744-.005004883 .09399414-.009002686 .100997928-.011001587 .10798645-.011001587 .11399841-.011001587 .12098694-.009002686 .1289978-.005004883 .13598633 0 .14199829 .0069885256 .14498902 .016998291 .14498902 .017990113 .1459961 .020996094 .147995 .025985718 .14898682 .0309906 .15098572 .037994386 .15299988 .04598999 .15499878 .052993776 .15699768 .06098938 .15899658 .069992069 .16099549 .07798767 .16299439 .084991458 .1639862 .09098816 .16699219 .10598755 .17098999 .12098694 .1749878 .13598633 .1789856 .15098572 .18299866 .1659851 .18598938 .18099976 .18899536 .19198609 .19198609 .20399475 .19499207 .21499634 .19799805 .22599793 .19999695 .23699951 .20298767 .24798584 .20498657 .25698854 .20799256 .2669983 .21099854 .27799989 .21398926 .2889862 .21499634 .29599 .21598816 .2979889 .21998596 .30599977 .22599793 .31698609 .23498535 .33099366 .24299622 .34399415 .2539978 .35798646 .2679901 .37098695 .2809906 .38398744 .29699708 .3959961 .31599427 .4059906 .33399964 .4149933 .35499574 .41999818 .3789978 .41999818 .3899994 .41999818 .3999939 .41799928 .40699769 .4139862 .4139862 .40899659 .4189911 .4039917 .4229889 .39698792 .4269867 .3899994 .42999269 .3829956 .43099977 .375 .43199159 .3659973 .43299867 .35798646 .43299867 .34999085 .43299867 .33699037 .43199159 .32398988 .42900086 .31098939 .42599488 .29699708 .42199708 .28199769 .41799928 .2669983 .4149933 .2539978 .4119873 .24299622 .4099884 .23399353 .4079895 .22399903 .4059906 .21499634 .4039917 .20698548 .4019928 .19799805 .3999939 .18998719 .397995 .18099976 .394989 .17199707 .3929901 .1619873 .3899994 .15098572 .3869934 .14199829 .3849945 .13398743 .38398744 .12799073 .3829956 .12199402 .3809967 .116989139 .37998963 .11199951 .3789978 .10699463 .3769989 .100997928 .37599183 .09599304 .37399293 .08999634 .37199403 .08299255 .36999513 .07499695 .36898805 .069992069 .36698915 .06399536 .3659973 .057998659 .36499024 .051986696 .36299134 .04598999 .3619995 .039993287 .36099244 .033996583 .3600006 .0289917 .35899354 .024993897 .35798646 .019989014 .35699464 .016998291 .35699464 .015991211 .35699464 .0069885256 .3600006 0 .3659973-.005004883 .37199403-.009002686 .3789978-.011001587 .38598634-.011001587 .40098573-.011001587 .4119873-.006011963 .4169922 .005996704 .42199708 .016998291 .4269867 .02999878 .43099977 .04598999 .43399049 .05999756 .43899537 .07899475 .44499208 .101989749 .45098878 .125 .45700074 .14898682 .46299745 .17298889 .46899415 .19699097 .47499085 .21998596 .47999574 .24099732 .4850006 .2619934 .4889984 .2769928 .4909973 .2869873 .49198915 .2899933 .49598695 .29899598 .5029907 .31399537 .5099945 .32798768 .519989 .34298707 .5339966 .35899354 .5469971 .37399293 .56399539 .3880005 .58499148 .40098573 .6049957 .4139862 .6289978 .41999818 .6559906 .41999818 .6769867 .41999818 .69200137 .41299439 .69898989 .39898683 .70599368 .38398744 .70999148 .36799623 .70999148 .34999085 .70999148 .33599855 .70799258 .31900025 .7029877 .29899598 .69799807 .27799989 .69299319 .2579956 .68699648 .23699951 .6799927 .21598816 .6729889 .19499207 .66600039 .17599488 .6589966 .1559906 .6529999 .13899231 .647995 .12599182 .6429901 .11399841 .6399994 .10398865 .6380005 .09700012 .6359863 .08999634 .6349945 .08099365 .6349945 .070999149 .6349945 .04798889 .6429901 .027999878 .6589966 .0129852299 .673996-.0030059815 .69400027-.011001587 .71699526-.011001587 .73999026-.011001587 .7599945-.0030059815 .7769928 .011993408 .7939911 .026992798 .8069916 .04399109 .81799319 .06298828 .8279877 .08198547 .83599856 .09899902 .84098818 .115997318 .84599307 .13198853 .84799197 .14099121 .84799197 .14299011 .84799197 .147995 .84599307 .15098572 .84298709 .1519928 .83999636 .15299988 .83699038 .15299988 .83599856 .15299988 .83099368 .15299988 .8279877 .1519928 .82699587 .1499939 .82598879 .14698792 .82398989 .14199829 .82099917 .1349945 .81700137 .12199402 .81199648 .10798645 .8069916 .09298706 .8009949 .07798767 .7939911 .06498718 .7849884 .052993776 .776001 .040985109 .7669983 .0309906 .7559967 .022994996 .7449951 .01499939 .73298647 .010986328 .71899417 .010986328 .7029877 .010986328 .69499209 .021987915 .69499209 .04399109 .69499209 .056991579 .69699099 .068984989 .70098879 .08099365 .70399478 .09199524 .70799258 .10398865 .71299746 .114990238 .71798709 .12799073 .723999 .14399719 .73098757 .16299439 .73799136 .18199158 .74398806 .20199585 .7509918 .22299195 .7569885 .24398804 .7619934 .2639923 .7669983 .28399659 .7719879 .3039856 .7739868 .32099916 .7739868 .33499146 .7739868 .36799623 .7639923 .3939972 .7449951 .41299439 .7259979 .43199159 .69699099 .44198609 .6589966 .44198609 .62098696 .44198609 .58898928 .43299867 .5629883 .4139862 .5369873 .394989 .5149994 .37199403 .49598695 .34498597 .49499513 .35198976 .49299623 .3619995 .48999024 .3769989 .4869995 .3909912 .47799684 .4039917 .46398927 .41600038 .45098878 .4269867 .43798829 .43399049 .4229889 .43699647 .4079895 .43998719 .394989 .44198609 .38198854 .44198609 .35899354 .44198609 .33898927 .43899537 .32199098 .43199159 .30499269 .4249878 .2899933 .41600038 .2769928 .40699769 .2639923 .397995 .25299073 .3880005 .24499512 .3789978 .23599243 .36898805 .22999573 .36099244 .22599793 .35499574 .22299195 .38398744 .21299744 .40499879 .19499207 .41999818 .1769867 .43499757 .15699768 .44198609 .13398743 .44198609 .12298584 .44198609 .11299133 .43998719 .10499573 .43598939 .09599304 .43099977 .08898926 .42599488 .08299255 .41999818 .07699585 .4139862 .07199097 .4079895 .068984989 .4019928 .06498718 .394989 .06199646 .3899994 .05999756 .3849945 .054992677 .37599183 .050994874 .36698915 .04798889 .35598756 .04399109 .34498597 .040985109 .33399964 .037994386 .32499696 .034988405 .31498719 .032989503 .30699159 .03199768 .2999878 .02999878 .29299928 .0289917 .2889862 .0289917 .28799439 .0289917 .2829895 .0309906 .27999879 .033996583 .2789917 .036987306 .27799989 .039993287 .27799989 .040985109 .27799989 .04598999 .27799989 .049987794 .2789917 .050994874 .2809906 .051986696 .2829895 .054992677 .2899933 .057998659 .30099488 .066986087 .33699037 .07699585 .3659973 .08799744 .3880005 .09899902 .40899659 .11299133 .41999818 .1309967 .41999818 .13899231 .41999818 .1459961 .4169922 .15299988 .4119873 .15899658 .4059906 .1619873 .3929901 .1619873 .37399293 .1619873 .36898805 .1619873 .3639984 .1619873 .3600006 .16099549 .35499574 .1599884 .34999085 .15899658 .34399415 .1579895 .33799745 .1559906 .33099366 .1539917 .32199098 .1519928 .31298829 .14898682 .30299378 .1459961 .2899933L.08799744 .05899048Z" />

<path id="font_3_9" d="M.1269989 .09599304C.13598633 .06399536 .15098572 .037994386 .17399597 .018997193 .19599915-.0010070801 .22299195-.011001587 .25498963-.011001587 .2849884-.011001587 .31498719-.0030059815 .34399415 .01399231 .37298585 .02999878 .3999939 .051986696 .42399598 .07899475 .44699098 .10598755 .46598817 .13699341 .48098756 .17199707 .49499513 .20698548 .5019989 .24198914 .5019989 .2789917 .5019989 .30599977 .49798585 .32899476 .4909973 .34999085 .48298646 .36999513 .47299195 .3869934 .45999146 .40098573 .44699098 .4139862 .43299867 .4249878 .41600038 .43199159 .39898683 .43899537 .3809967 .44198609 .36299134 .44198609 .34298707 .44198609 .32199098 .43798829 .30099488 .42900086 .2789917 .41999818 .2579956 .4079895 .23799134 .3909912 .21699524 .37399293 .19799805 .35398866 .18099976 .32899476 .1639862 .3039856 .14898682 .27598573 .13798523 .24398804 .13699341 .24198914 .1349945 .23498535 .13198853 .22299195 .1289978 .20999146 .125 .19499207 .11999512 .17599488 .114990238 .15699768 .10998535 .13598633 .10499573 .11299133 .09899902 .08999634 .09399414 .066986087 .08999634 .04399109 .084991458 .020996094 .08198547-.0020141602 .07899475-.023010254 .07598877-.044006349 .07398987-.06201172 .07398987-.07701111 .07398987-.0900116 .07598877-.102005008 .07899475-.11401367 .08198547-.12600708 .08799744-.13700867 .09799194-.14601135 .10798645-.15501404 .12199402-.16200257 .14099121-.16700745 .15899658-.17201233 .18299866-.17500305 .21398926-.17500305 .23298645-.17500305 .24899292-.17401123 .2619934-.17300415 .2749939-.17201233 .29100038-.17100525 .31098939-.17100525 .31999208-.17100525 .32598878-.17100525 .32798768-.17100525 .33099366-.17100525 .33399964-.17100525 .33699037-.17201233 .34399415-.17300415 .34899903-.17401123 .35198976-.17500305 .35499574-.17601013 .35598756-.17800904 .35699464-.18200684 .35798646-.18501282 .35899354-.18800354 .3600006-.19100952 .36099244-.19300843 .3639984-.1940155 .36898805-.1940155 .37399293-.1940155 .3769989-.19200135 .37998963-.18901062 .3829956-.18600464 .38398744-.17800904 .38398744-.16600037 .38398744-.15400696 .3809967-.14500427 .37599183-.13800049 .36999513-.13101197 .36099244-.12701416 .34999085-.12400818 .33799745-.1210022 .32299806-.119003299 .30499269-.118011478 .28599549-.117004398 .2649994-.117004398 .23999024-.117004398 .21699524-.117004398 .19799805-.117004398 .18099976-.11601257 .1639862-.11500549 .14898682-.11300659 .13798523-.10900879 .1269989-.104003909 .117996219-.0980072 .11299133-.08900452 .10699463-.08000183 .10398865-.06700134 .10398865-.05000305 .10398865-.04600525 .10499573-.03300476 .10699463-.012008667 .10899353 .009994507 .115997318 .04598999 .1269989 .09599304M.25498963 .010986328C.24699402 .010986328 .23899842 .0129852299 .22999573 .015991211 .22099304 .018997193 .21398926 .024993897 .20698548 .032989503 .19999695 .040985109 .19400025 .051986696 .18899536 .06498718 .18399048 .07798767 .18199158 .09498596 .18199158 .115997318 .18199158 .13198853 .18399048 .1499939 .18699646 .16899109 .18998719 .18798828 .19499207 .20799256 .19999695 .22698975 .20498657 .24598694 .21099854 .2649994 .21798706 .28199769 .22399903 .29899598 .22999573 .31399537 .23699951 .32499696 .2579956 .3600006 .2789917 .3849945 .3019867 .39898683 .32499696 .41299439 .34399415 .41999818 .36099244 .41999818 .37998963 .41999818 .3959961 .4119873 .4099884 .39698792 .4229889 .38198854 .42999269 .35699464 .42999269 .32199098 .42999269 .30799867 .42799378 .29100038 .4249878 .27198792 .42199708 .2519989 .4169922 .23199463 .4119873 .21199036 .40699769 .19099427 .40098573 .17199707 .3939972 .15299988 .3869934 .13398743 .3809967 .117996219 .37399293 .10598755 .35699464 .07398987 .33799745 .049987794 .31698609 .034988405 .29499818 .018997193 .27398683 .010986328 .25498963 .010986328Z" />

<path id="font_3_1" d="M.1789856 .114990238C.15899658 .08198547 .13899231 .05999756 .11898804 .04899597 .09899902 .037994386 .07798767 .03199768 .055999757 .0309906 .049987794 .02999878 .04499817 .0289917 .040985109 .027999878 .036987306 .025985718 .034988405 .019989014 .034988405 .010986328 .034988405 .0039978029 .038986207 0 .04798889 0 .06098938 0 .07598877 .0009918213 .09098816 .0019989014 .10598755 .0029907227 .11999512 .0029907227 .13398743 .0029907227 .15098572 .0029907227 .16799927 .0029907227 .18499756 .0019989014 .20199585 .0009918213 .21798706 0 .23399353 0 .23699951 0 .24099732 .0009918213 .24598694 .0029907227 .25099183 .0039978029 .25299073 .009994507 .25299073 .018997193 .25299073 .023986817 .25099183 .027999878 .24798584 .0289917 .24398804 .02999878 .23999024 .0309906 .23699951 .0309906 .22599793 .03199768 .21499634 .034988405 .20498657 .039993287 .19499207 .04499817 .18998719 .052993776 .18998719 .06599426 .18998719 .07199097 .19099427 .07798767 .19400025 .083999637 .19699097 .08898926 .19999695 .09599304 .20399475 .102996829 .20599365 .10598755 .20799256 .10899353 .20999146 .11199951 .21099854 .114990238 .21398926 .11999512 .21899414 .12799073 .22399903 .13598633 .23098755 .147995 .23999024 .1639862 .24899292 .1789856 .2630005 .20199585 .27999879 .23098755H.5309906C.5319977 .22599793 .5329895 .21499634 .5349884 .19799805 .5359955 .18099976 .5379944 .16299439 .5399933 .14399719 .5419922 .125 .5439911 .10699463 .54499819 .09199524 .54599 .07598877 .5469971 .066986087 .5469971 .06399536 .5469971 .056991579 .5439911 .050994874 .5389862 .04699707 .5329895 .041992189 .526001 .038986207 .5189972 .036987306 .5109863 .033996583 .5029907 .032989503 .49499513 .03199768 .48599244 .0309906 .47999574 .0309906 .47499085 .0309906 .46798707 .0309906 .46199037 .02999878 .45799256 .0289917 .45298768 .026992798 .45098878 .020996094 .45098878 .010986328 .45098878 .005996704 .45298768 .0029907227 .45700074 .0019989014 .46099855 .0009918213 .46398927 0 .46499635 0 .48599244 0 .5069885 .0009918213 .5279999 .0019989014 .548996 .0029907227 .56900027 .0029907227 .58999636 .0029907227 .59599307 .0029907227 .60398867 .0029907227 .61499026 .0029907227 .625 .0019989014 .6359863 .0019989014 .6469879 .0019989014 .6579895 .0009918213 .66799929 .0009918213 .67900088 .0009918213 .68899539 0 .69699099 0 .7029877 0 .70599368 0 .70999148 .0009918213 .71499636 .0029907227 .71899417 .0039978029 .72099307 .009994507 .72099307 .019989014 .72099307 .024993897 .71899417 .0289917 .71499636 .02999878 .70999148 .0309906 .7049866 .0309906 .69799807 .0309906 .68299868 .0309906 .67099 .03199768 .6619873 .032989503 .6529999 .033996583 .6469879 .034988405 .6429901 .037994386 .6389923 .040985109 .6369934 .04399109 .6359863 .04899597 .6349945 .053985597 .6339874 .05999756 .6329956 .066986087L.57199099 .69200137C.57099917 .70199587 .56900027 .70899966 .56799319 .71199038 .5669861 .71499636 .56199648 .71598818 .5529938 .71598818 .54499819 .71598818 .5399933 .71499636 .5369873 .71199038 .5339966 .70899966 .5299988 .70399478 .5269928 .69898989L.1789856 .114990238M.29899598 .2619934 .49598695 .59199526 .5279999 .2619934H.29899598Z" />

<path id="font_4_9" d="M.34899903 .3880005 .22099304 .4189911C.18998719 .42599488 .16499329 .44198609 .14698792 .46598817 .1289978 .48999024 .11999512 .5169983 .11999512 .54599 .11999512 .5629883 .12298584 .5799866 .12998963 .59599307 .13598633 .6119995 .14498902 .6259918 .15699768 .6380005 .16799927 .6499939 .18199158 .6599884 .19898987 .6669922 .21499634 .673996 .23298645 .6769867 .2519989 .6769867 .2939911 .6769867 .32798768 .66799929 .35299684 .651001 .37799073 .6329956 .39698792 .6119995 .4099884 .58898928 .4229889 .56599429 .43299867 .54299929 .43798829 .519989 .44299317 .49699403 .44599916 .47898866 .44699098 .46798707 .44799806 .46499635 .44898988 .46199037 .44999696 .45999146 .45098878 .45700074 .45399476 .45599366 .45899964 .45599366 .46598817 .45599366 .46998597 .45799256 .47099305 .46099855 .47200013 .46398927 .47200013 .47099305 .47200013 .47999574V.68099978C.47200013 .6899872 .47200013 .69599917 .47099305 .69999697 .46998597 .7029877 .46598817 .7049866 .46099855 .7049866 .45799256 .7049866 .45498658 .70399478 .45399476 .7029877 .45199586 .70199587 .44898988 .69799807 .44599916 .69200137L.41099549 .6349945C.4039917 .6419983 .394989 .6499939 .38598634 .6579895 .3769989 .66600039 .3659973 .673996 .35299684 .68099978 .33999635 .6879883 .32598878 .69299319 .30899049 .69799807 .2919922 .7029877 .272995 .7049866 .25099183 .7049866 .22299195 .7049866 .19699097 .69999697 .17399597 .6899872 .1499939 .67900088 .1289978 .6649933 .11199951 .647995 .09498596 .6299896 .08099365 .60899356 .070999149 .58599856 .06098938 .5629883 .055999757 .5379944 .055999757 .5109863 .055999757 .48999024 .05899048 .46998597 .06599426 .45098878 .07199097 .43199159 .08099365 .4139862 .09199524 .397995 .102996829 .38198854 .116989139 .36799623 .13398743 .35598756 .1499939 .34399415 .16799927 .33499146 .18699646 .32798768 .19198609 .32598878 .20698548 .32199098 .23098755 .31698609 .2539978 .31098939 .28399659 .3039856 .31900025 .29499818 .33198548 .2919922 .34599305 .2869873 .36099244 .2809906 .37599183 .2749939 .3899994 .2630005 .4039917 .24398804 .4149933 .23098755 .4229889 .21598816 .42799378 .20098877 .43299867 .18499756 .43499757 .16899109 .43499757 .1519928 .43499757 .13398743 .43199159 .116989139 .42599488 .099990848 .41999818 .08299255 .41099549 .066986087 .3999939 .053985597 .3880005 .040985109 .37399293 .02999878 .35699464 .021987915 .33999635 .0129852299 .32199098 .008987427 .30099488 .008987427 .2939911 .008987427 .28399659 .009994507 .27198792 .010986328 .25898744 .011993408 .24598694 .01399231 .23098755 .017990113 .21598816 .020996094 .20098877 .026992798 .18598938 .033996583 .17098999 .040985109 .1559906 .050994874 .14299011 .06298828 .12799073 .07598877 .116989139 .08999634 .10899353 .10499573 .100997928 .11898804 .09498596 .1329956 .09098816 .14698792 .08699036 .1599884 .083999637 .17298889 .08299255 .18499756 .08198547 .19699097 .08099365 .20799256 .08099365 .21699524 .07998657 .22200012 .07899475 .22499085 .07598877 .22599793 .07299805 .22698975 .069992069 .22698975 .068984989 .22698975 .06199646 .22698975 .05899048 .22499085 .057998659 .22200012 .056991579 .21798706 .055999757 .21099854 .055999757 .20199585V.0019989014C.055999757-.007003784 .056991579-.013000488 .057998659-.01701355 .05899048-.020004273 .06199646-.022003174 .066986087-.022003174 .069992069-.022003174 .07299805-.021011353 .07499695-.020004273 .07598877-.018005372 .07899475-.014007568 .08198547-.009002686L.08299255-.008010864C.083999637-.007003784 .084991458-.0040130617 .08799744 0 .08999634 .0039978029 .09399414 .009994507 .09899902 .016998291 .10398865 .023986817 .10998535 .034988405 .117996219 .04798889 .1329956 .0309906 .15699768 .01499939 .18798828 0 .21899414-.015014648 .25698854-.022003174 .3019867-.022003174 .33099366-.022003174 .35798646-.01600647 .38198854-.005004883 .4059906 .005996704 .4269867 .021987915 .44400025 .040985109 .46099855 .05999756 .47499085 .08198547 .4850006 .10699463 .49398805 .13198853 .49899293 .15899658 .49899293 .18598938 .49899293 .21099854 .49499513 .23399353 .48799134 .25698854 .47999574 .2789917 .46899415 .29899598 .45599366 .31698609 .44198609 .33499146 .42599488 .34999085 .4079895 .3619995 .3889923 .37399293 .36999513 .3829956 .34899903 .3880005Z" />

<path id="font_4_4" d="M.33299256 .07598877C.33499146 .055999757 .34298707 .036987306 .35598756 .019989014 .36898805 .0029907227 .3880005-.006011963 .41099549-.006011963 .41600038-.006011963 .42399598-.005004883 .43299867-.0030059815 .44198609 0 .45098878 .0039978029 .45999146 .010986328 .46899415 .017990113 .47599793 .026992798 .48298646 .039993287 .48999024 .052993776 .49299623 .068984989 .49299623 .08898926V.14498902H.46798707V.08898926C.46798707 .07398987 .46699525 .06298828 .46398927 .054992677 .46099855 .04598999 .45799256 .039993287 .45399476 .035995485 .44999696 .0309906 .44599916 .027999878 .44198609 .026992798 .43798829 .025985718 .43499757 .024993897 .43199159 .024993897 .42399598 .024993897 .41799928 .026992798 .41299439 .03199768 .4079895 .036987306 .4039917 .041992189 .40098573 .04798889 .397995 .053985597 .39698792 .05999756 .3959961 .06498718 .394989 .069992069 .394989 .07398987 .394989 .07499695V.2749939C.394989 .29599 .3939972 .31698609 .3909912 .33599855 .3880005 .35499574 .3769989 .37399293 .35899354 .3929901 .33999635 .4119873 .31799317 .42599488 .2939911 .43499757 .269989 .44400025 .24598694 .44799806 .22200012 .44799806 .20098877 .44799806 .18199158 .44499208 .1639862 .43998719 .14498902 .43399049 .1289978 .42599488 .115997318 .41600038 .101989749 .4059906 .09098816 .3939972 .08299255 .3809967 .07499695 .36698915 .070999149 .35198976 .070999149 .33499146 .070999149 .31999208 .07499695 .30799867 .083999637 .2999878 .09298706 .2919922 .10398865 .28799439 .116989139 .28799439 .1309967 .28799439 .14199829 .2919922 .15098572 .30099488 .15899658 .30999757 .16299439 .32099916 .16299439 .33399964 .16299439 .33699037 .16299439 .34098817 .1619873 .34599305 .16099549 .35099793 .1579895 .35699464 .15499878 .3619995 .15098572 .36698915 .1459961 .37098695 .13899231 .375 .13198853 .37799073 .12298584 .37998963 .11199951 .37998963 .11898804 .3889923 .1269989 .3959961 .13598633 .4019928 .14498902 .4079895 .1539917 .41299439 .1639862 .41600038 .17399597 .4189911 .18399048 .42199708 .19400025 .42399598 .20298767 .4249878 .21199036 .42599488 .21998596 .42599488 .23199463 .42599488 .24398804 .42399598 .25698854 .4189911 .269989 .4139862 .2809906 .4059906 .2919922 .3959961 .3019867 .3849945 .30999757 .37199403 .31698609 .35598756 .32299806 .33898927 .32598878 .31999208 .32598878 .2979889V.26098634C.30099488 .2599945 .27198792 .25698854 .23899842 .2539978 .20599365 .25 .17399597 .23999024 .14199829 .22499085 .10398865 .20799256 .07798767 .18699646 .06399536 .1639862 .04899597 .13999939 .041992189 .116989139 .041992189 .09498596 .041992189 .07499695 .04699707 .057998659 .057998659 .04499817 .068984989 .0309906 .08198547 .019989014 .09799194 .011993408 .11399841 .0029907227 .1309967-.0030059815 .1499939-.006011963 .16899109-.009002686 .18598938-.011001587 .20199585-.011001587 .23498535-.011001587 .2630005-.0020141602 .28599549 .01499939 .30799867 .03199768 .32398988 .052993776 .33299256 .07598877M.32598878 .23999024V.13999939C.32598878 .115997318 .32199098 .09599304 .31399537 .07998657 .30599977 .06298828 .29599 .049987794 .2849884 .039993287 .272995 .02999878 .2599945 .022994996 .24699402 .017990113 .23298645 .0129852299 .21998596 .010986328 .20899964 .010986328 .18399048 .010986328 .16299439 .018997193 .1459961 .034988405 .12799073 .049987794 .11898804 .070999149 .11898804 .09599304 .11898804 .10998535 .12199402 .125 .12799073 .14099121 .13398743 .15699768 .14498902 .17199707 .16099549 .18699646 .17599488 .20098877 .19699097 .21299744 .22399903 .22299195 .25099183 .23298645 .2849884 .23899842 .32598878 .23999024Z" />

<path id="font_4_8" d="M.1769867 .44198609 .036987306 .43099977V.3999939C.052993776 .3999939 .06599426 .3999939 .07598877 .39898683 .085998538 .397995 .09399414 .394989 .09899902 .3909912 .10398865 .3869934 .10699463 .3809967 .10899353 .37399293 .10998535 .36698915 .11099243 .35699464 .11099243 .34498597V.07598877C.11099243 .06498718 .10998535 .055999757 .10798645 .049987794 .10598755 .04399109 .101989749 .039993287 .09700012 .036987306 .09199524 .033996583 .083999637 .03199768 .07398987 .03199768 .06298828 .0309906 .049987794 .0309906 .032989503 .0309906V0C.040985109 0 .049987794 0 .06098938 .0009918213 .070999149 .0009918213 .08099365 .0009918213 .09098816 .0019989014 .100997928 .0019989014 .11099243 .0019989014 .11999512 .0029907227 .1289978 .0029907227 .13699341 .0029907227 .14299011 .0029907227 .1599884 .0029907227 .17799378 .0029907227 .19499207 .0019989014 .21199036 .0009918213 .22999573 .0009918213 .24699402 0V.0309906C.22999573 .0309906 .21699524 .03199768 .20799256 .032989503 .19898987 .033996583 .19198609 .035995485 .18699646 .038986207 .18199158 .041992189 .17999268 .04598999 .1789856 .051986696 .17799378 .056991579 .1769867 .06498718 .1769867 .07499695V.44198609M.18099976 .6159973C.18099976 .6319885 .17599488 .644989 .16499329 .6549988 .1539917 .6639862 .14199829 .6689911 .12799073 .6689911 .11299133 .6689911 .099990848 .6639862 .08999634 .6529999 .07998657 .6419983 .07499695 .6289978 .07499695 .6159973 .07499695 .6029968 .07998657 .59098818 .08999634 .5799866 .099990848 .56900027 .11299133 .5629883 .12799073 .5629883 .14199829 .5629883 .1539917 .56799319 .16499329 .5779877 .17599488 .58699038 .18099976 .59999087 .18099976 .6159973Z" />

<path id="font_4_3" d="M.17298889 .3999939H.31599427V.43099977H.17298889V.61499026H.147995C.147995 .59399417 .1459961 .57299807 .14199829 .5509949 .13699341 .5279999 .12998963 .5079956 .11999512 .4889984 .10998535 .46998597 .09700012 .45498658 .08099365 .44198609 .06399536 .42900086 .04399109 .4229889 .018997193 .42199708V.3999939H.10398865V.12399292C.10398865 .09298706 .10899353 .068984989 .11898804 .050994874 .1289978 .032989503 .14099121 .019989014 .15499878 .010986328 .16899109 .0019989014 .18299866-.0040130617 .19799805-.007003784 .21199036-.010009766 .22399903-.011001587 .23298645-.011001587 .25099183-.011001587 .2659912-.007003784 .2789917 .0009918213 .29100038 .008987427 .30099488 .019989014 .30899049 .032989503 .31698609 .04598999 .32299806 .05999756 .32699586 .07598877 .32998658 .09199524 .33198548 .10798645 .33198548 .12399292V.18099976H.30699159V.12599182C.30699159 .08898926 .30099488 .06098938 .28799439 .041992189 .2749939 .022994996 .25898744 .01399231 .23999024 .01399231 .22299195 .01399231 .21099854 .018997193 .20199585 .0289917 .19299317 .037994386 .18598938 .04899597 .18199158 .06199646 .1769867 .07398987 .1749878 .085998538 .17399597 .09799194 .17298889 .10998535 .17298889 .117996219 .17298889 .12199402V.3999939Z" />

<path id="font_4_6" d="M.3899994 .23098755C.40098573 .23098755 .4079895 .23199463 .41099549 .23399353 .4139862 .23498535 .4149933 .24099732 .4149933 .2519989 .4149933 .2769928 .4119873 .30099488 .40499879 .32499696 .397995 .34799195 .3869934 .36898805 .37298585 .3880005 .35798646 .4059906 .33999635 .42099 .31698609 .43199159 .2939911 .44299317 .2669983 .44799806 .23599243 .44799806 .20698548 .44799806 .17999268 .44198609 .15499878 .42999269 .12998963 .41799928 .10798645 .4019928 .08898926 .3809967 .069992069 .3600006 .054992677 .33599855 .04399109 .30899049 .032989503 .2809906 .027999878 .25099183 .027999878 .21998596 .027999878 .18699646 .033996583 .1559906 .04598999 .12799073 .057998659 .09899902 .07398987 .07499695 .09498596 .053985597 .114990238 .032989503 .13798523 .016998291 .16499329 .005996704 .19198609-.005004883 .21899414-.011001587 .24798584-.011001587 .2789917-.011001587 .30499269-.005004883 .32598878 .0069885256 .34700013 .017990113 .3639984 .03199768 .3769989 .04699707 .3899994 .06199646 .3999939 .07598877 .4059906 .09098816 .4119873 .10499573 .4149933 .11399841 .4149933 .11898804 .4149933 .12399292 .4139862 .12799073 .41099549 .1289978 .4079895 .12998963 .40499879 .1309967 .4019928 .1309967 .39698792 .1309967 .3939972 .12998963 .3929901 .1269989 .3919983 .12399292 .3899994 .12098694 .3889923 .116989139 .37998963 .09098816 .36898805 .070999149 .35499574 .057998659 .33999635 .04399109 .32598878 .033996583 .31199647 .026992798 .2979889 .019989014 .28599549 .016998291 .2749939 .015991211 .2639923 .01499939 .25698854 .01399231 .2539978 .01399231 .22898865 .01399231 .20599365 .020996094 .18699646 .033996583 .16799927 .04699707 .1519928 .06199646 .14099121 .08099365 .13398743 .09298706 .12799073 .10598755 .12399292 .11999512 .11999512 .1329956 .116989139 .14698792 .114990238 .16099549 .11299133 .17399597 .11199951 .18699646 .11199951 .19898987 .11099243 .21099854 .11099243 .22200012 .11099243 .23098755H.3899994M.11199951 .2519989C.11299133 .2889862 .11898804 .31900025 .1289978 .34199525 .13899231 .36499024 .15098572 .38198854 .1639862 .394989 .1769867 .4079895 .18998719 .41600038 .20298767 .41999818 .21598816 .42399598 .22698975 .42599488 .23599243 .42599488 .2619934 .42599488 .2829895 .4189911 .2979889 .40499879 .31298829 .3899994 .32398988 .37298585 .33198548 .35398866 .33898927 .33499146 .34399415 .31498719 .34599305 .29599 .34799195 .2769928 .34899903 .2619934 .34899903 .2519989H.11199951Z" />

<path id="font_4_7" d="M.17799378 .3999939H.2919922V.43099977H.1749878V.5469971C.1749878 .56900027 .17799378 .58898928 .18299866 .60598757 .18798828 .6230011 .19599915 .6369934 .20498657 .647995 .21398926 .6589966 .22299195 .66799929 .23399353 .673996 .24499512 .6799927 .2559967 .68299868 .2669983 .68299868 .2679901 .68299868 .27198792 .68299868 .2789917 .6819916 .28599549 .68099978 .29299928 .67900088 .2999878 .6759949 .2939911 .673996 .28799439 .66999819 .2809906 .6629944 .27398683 .6559906 .269989 .6469879 .269989 .6339874 .269989 .6230011 .27398683 .61299136 .28199769 .60398867 .2889862 .59498599 .2999878 .59098818 .31298829 .59098818 .32798768 .59098818 .33898927 .59498599 .34599305 .60398867 .35299684 .61299136 .35699464 .6230011 .35699464 .6349945 .35699464 .6539917 .34899903 .66999819 .33198548 .6839905 .31498719 .69799807 .2939911 .7049866 .2669983 .7049866 .25 .7049866 .23199463 .70199587 .21398926 .69499209 .19499207 .6879883 .1789856 .6779938 .1639862 .6649933 .14898682 .6519928 .13598633 .6349945 .1269989 .6159973 .116989139 .59599307 .11199951 .57299807 .11199951 .54599V.43099977H.032989503V.3999939H.11199951V.07598877C.11199951 .06498718 .11099243 .055999757 .10899353 .049987794 .10699463 .04399109 .102996829 .039993287 .09799194 .036987306 .09298706 .033996583 .084991458 .03199768 .07499695 .03199768 .06399536 .0309906 .050994874 .0309906 .033996583 .0309906V0C.052993776 .0009918213 .07398987 .0009918213 .09498596 .0019989014 .115997318 .0029907227 .13398743 .0029907227 .147995 .0029907227 .16799927 .0029907227 .18899536 .0029907227 .21199036 .0029907227 .23399353 .0019989014 .25498963 .0009918213 .2749939 0V.0309906H.2539978C.23498535 .0309906 .22099304 .03199768 .21099854 .033996583 .20098877 .034988405 .19400025 .037994386 .18899536 .040985109 .18399048 .04399109 .18099976 .04899597 .17999268 .054992677 .1789856 .06098938 .17799378 .068984989 .17799378 .07798767V.3999939Z" />

<path id="font_4_2" d="M.20799256 .19400025C.21299744 .19299317 .22200012 .19099427 .23399353 .18798828 .24499512 .18499756 .25698854 .18099976 .2689972 .17399597 .27999879 .16699219 .2899933 .15699768 .29899598 .1459961 .30799867 .1349945 .31199647 .11999512 .31199647 .101989749 .31199647 .07699585 .30299378 .054992677 .2849884 .037994386 .2669983 .019989014 .23799134 .010986328 .19898987 .010986328 .17799378 .010986328 .1599884 .01399231 .14498902 .020996094 .12998963 .027999878 .116989139 .036987306 .10598755 .049987794 .09498596 .06298828 .084991458 .07798767 .07798767 .09498596 .070999149 .11199951 .06498718 .13198853 .05999756 .15299988 .05899048 .1599884 .056991579 .1639862 .055999757 .16699219 .054992677 .16899109 .050994874 .16999817 .04598999 .16999817 .038986207 .16999817 .035995485 .16799927 .034988405 .16499329 .033996583 .16099549 .032989503 .1539917 .032989503 .14498902V.0129852299C.032989503 .0039978029 .033996583-.0020141602 .034988405-.006011963 .035995485-.009002686 .038986207-.011001587 .04399109-.011001587 .04699707-.011001587 .04899597-.010009766 .051986696-.008010864 .053985597-.006011963 .05999756 0 .068984989 .008987427 .069992069 .009994507 .07199097 .011993408 .07299805 .01499939 .07398987 .016998291 .07998657 .022994996 .08898926 .03199768 .099990848 .020996094 .11099243 .0129852299 .12199402 .0079956059 .1329956 .0019989014 .14299011-.0020141602 .15299988-.005004883 .1619873-.008010864 .17098999-.009002686 .1789856-.010009766 .18699646-.011001587 .19400025-.011001587 .19898987-.011001587 .22799683-.011001587 .2519989-.007003784 .272995 .0009918213 .29299928 .0079956059 .30999757 .018997193 .32299806 .03199768 .33599855 .04499817 .34498597 .05899048 .35099793 .07598877 .35699464 .09298706 .3600006 .10998535 .3600006 .12799073 .3600006 .14099121 .35798646 .15299988 .35499574 .1639862 .35198976 .17399597 .34799195 .18299866 .34399415 .19099427 .33898927 .19898987 .33499146 .20599365 .32998658 .21099854 .32499696 .21598816 .32099916 .21998596 .31799317 .22299195 .30099488 .23899842 .28399659 .25 .2649994 .2559967 .24598694 .2619934 .22499085 .2669983 .20399475 .2709961 .18998719 .27398683 .17599488 .2769928 .16099549 .27999879 .1459961 .2829895 .1329956 .28799439 .12199402 .2939911 .10998535 .2999878 .099990848 .30799867 .09298706 .31698609 .084991458 .32598878 .08099365 .33799745 .08099365 .35299684 .08099365 .3619995 .08299255 .37098695 .08699036 .37998963 .08999634 .3889923 .09599304 .39698792 .10499573 .4039917 .11399841 .41099549 .125 .4169922 .13999939 .42199708 .1539917 .4269867 .17199707 .42900086 .19299317 .42900086 .21998596 .42900086 .24198914 .42399598 .2579956 .4149933 .272995 .40499879 .2849884 .3929901 .2919922 .37998963 .29899598 .36698915 .3039856 .35299684 .30599977 .33999635 .30799867 .32699586 .30899049 .31599427 .30999757 .30799867 .31098939 .30299378 .31298829 .30099488 .31599427 .2999878 .31900025 .29899598 .32099916 .29899598 .32199098 .29899598 .32899476 .29899598 .33299256 .30099488 .33399964 .3039856 .33499146 .30699159 .33499146 .31399537 .33499146 .32299806V.42399598C.33499146 .43299867 .33499146 .43899537 .33399964 .44299317 .33299256 .44599916 .32899476 .44799806 .32398988 .44799806 .32099916 .44799806 .31900025 .44799806 .31698609 .44699098 .31498719 .44599916 .31098939 .44198609 .3039856 .43598939 .30299378 .43399049 .2999878 .43099977 .29599 .42799378 .2919922 .42399598 .2889862 .42099 .2869873 .41999818 .27799989 .4269867 .2679901 .43199159 .25898744 .43598939 .24899292 .43998719 .23999024 .44299317 .23199463 .44499208 .22299195 .44599916 .21598816 .44699098 .20899964 .44799806 .20199585 .44799806 .19699097 .44799806 .19299317 .44799806 .1619873 .44799806 .13699341 .44400025 .116989139 .43699647 .09599304 .42900086 .07998657 .4189911 .067993167 .4079895 .054992677 .3959961 .04598999 .3829956 .040985109 .36799623 .035995485 .35299684 .032989503 .33898927 .032989503 .32499696 .032989503 .30799867 .036987306 .2919922 .04499817 .27799989 .051986696 .2639923 .06298828 .25099183 .07598877 .23999024 .083999637 .23298645 .09199524 .22799683 .099990848 .22399903 .10798645 .21899414 .116989139 .21598816 .1269989 .21299744 .13699341 .20999146 .14898682 .20698548 .1619873 .20399475 .1749878 .20098877 .18998719 .19699097 .20799256 .19400025Z" />

<path id="font_4_1" d="M.17199707 .07798767V.23199463C.17199707 .25698854 .1749878 .27999879 .17999268 .30299378 .18499756 .32598878 .19198609 .34599305 .20199585 .36299134 .21199036 .37998963 .22399903 .3939972 .23899842 .40499879 .2539978 .4149933 .2709961 .41999818 .2899933 .41999818 .29599 .41999818 .2999878 .41999818 .30099488 .4189911 .2999878 .41799928 .29599 .4149933 .2889862 .40899659 .28199769 .40299989 .27799989 .3929901 .27799989 .37998963 .27799989 .3659973 .28199769 .35499574 .29100038 .34799195 .2999878 .34098817 .30999757 .33699037 .32099916 .33699037 .32998658 .33699037 .33999635 .33999635 .34999085 .34700013 .35899354 .35398866 .3639984 .36499024 .3639984 .3809967 .3639984 .39698792 .35699464 .41099549 .34298707 .42399598 .32899476 .43598939 .31098939 .44198609 .2899933 .44198609 .27198792 .44198609 .2559967 .43798829 .24198914 .43099977 .22799683 .42399598 .21598816 .4149933 .20599365 .4039917 .19599915 .3929901 .18798828 .3809967 .18199158 .36799623 .1749878 .35499574 .16999817 .34298707 .16699219 .33198548V.44198609L.027999878 .43099977V.3999939C.04499817 .3999939 .05899048 .39898683 .069992069 .397995 .07998657 .39698792 .08799744 .3939972 .09298706 .3899994 .09799194 .38598634 .101989749 .37998963 .10398865 .37298585 .10499573 .3659973 .10598755 .35598756 .10598755 .34399415V.07598877C.10598755 .06498718 .10499573 .055999757 .102996829 .049987794 .100997928 .04399109 .09700012 .039993287 .09199524 .036987306 .08699036 .033996583 .07899475 .03199768 .068984989 .03199768 .057998659 .0309906 .04499817 .0309906 .027999878 .0309906V0C.04699707 .0009918213 .067993167 .0009918213 .08898926 .0019989014 .10998535 .0029907227 .12799073 .0029907227 .14199829 .0029907227 .1619873 .0029907227 .18299866 .0029907227 .20599365 .0029907227 .22799683 .0019989014 .24899292 .0009918213 .2689972 0V.0309906H.24798584C.22898865 .0309906 .21499634 .03199768 .20498657 .033996583 .19499207 .034988405 .18798828 .037994386 .18299866 .040985109 .17799378 .04399109 .1749878 .04899597 .17399597 .054992677 .17298889 .06098938 .17199707 .068984989 .17199707 .07798767Z" />

<path id="font_3_2" d="M.30299378 .32499696H.3999939C.4189911 .32499696 .43399049 .32398988 .44499208 .32199098 .45599366 .31999208 .46398927 .31698609 .46998597 .31399537 .47499085 .30999757 .47898866 .30499269 .48098756 .2999878 .48199464 .2939911 .48298646 .2869873 .48298646 .27999879 .48298646 .2769928 .48298646 .27198792 .48199464 .2649994 .48098756 .2579956 .47898866 .24598694 .47599793 .23098755 .47399903 .22599793 .47299195 .22200012 .47299195 .21998596 .47299195 .21598816 .47399903 .21299744 .47698976 .21099854 .47898866 .20899964 .48199464 .20799256 .4850006 .20799256 .48999024 .20799256 .49398805 .20899964 .49499513 .21199036 .49598695 .21398926 .49699403 .21998596 .5 .22898865L.5549927 .44599916C.55599978 .45098878 .5569916 .45498658 .55799868 .45700074 .55799868 .45899964 .55799868 .46099855 .55799868 .46199037 .55799868 .46299745 .5569916 .46598817 .55599978 .46899415 .5549927 .47200013 .5509949 .47299195 .54599 .47299195 .54100039 .47299195 .5369873 .47200013 .5359955 .46899415 .5349884 .46598817 .5329895 .45999146 .5309906 .45199586 .526001 .43299867 .519989 .4169922 .5139923 .4039917 .5079956 .3909912 .5 .38198854 .4909973 .375 .48098756 .36799623 .46899415 .36299134 .45498658 .3600006 .44099427 .35699464 .4229889 .35598756 .4019928 .35598756H.31098939L.375 .6100006C.3769989 .61898806 .3789978 .6259918 .3809967 .6309967 .3829956 .6359863 .38598634 .6399994 .3889923 .6429901 .3919983 .6459961 .39698792 .6469879 .40299989 .647995 .40899659 .6489868 .41799928 .6489868 .42900086 .6489868H.5609894C.59199526 .6489868 .61698916 .6469879 .6359863 .6429901 .6549988 .6380005 .6689911 .6319885 .6799927 .6230011 .69099429 .6139984 .69799807 .60198977 .70199587 .58898928 .7049866 .57499697 .70700076 .55799868 .70700076 .5389862 .70700076 .5279999 .70700076 .5189972 .70700076 .5139923 .70599368 .5079956 .7049866 .49798585 .70399478 .4850006 .7029877 .47799684 .70199587 .47399903 .70199587 .47200013 .70199587 .46998597 .70199587 .46798707 .70199587 .46699525 .70199587 .46398927 .7029877 .46199037 .7049866 .45899964 .70599368 .45599366 .70899966 .45498658 .71398928 .45498658 .71899417 .45498658 .72299197 .45700074 .723999 .46099855 .72499087 .46398927 .72698977 .47099305 .7279968 .47999574L.7480011 .6529999C.7489929 .66600039 .7480011 .673996 .7449951 .6769867 .74198916 .67900088 .73399356 .6799927 .72099307 .6799927H.23098755C.22099304 .6799927 .21398926 .67900088 .20899964 .6779938 .20399475 .6759949 .20098877 .66999819 .20098877 .6599884 .20098877 .6549988 .20298767 .6519928 .20799256 .651001 .21299744 .6499939 .21998596 .6489868 .22898865 .6489868 .24798584 .6489868 .2630005 .647995 .27598573 .6469879 .28799439 .6459961 .2939911 .6399994 .2939911 .6309967 .2939911 .6289978 .2939911 .6269989 .2939911 .625 .29299928 .621994 .2919922 .6159973 .2889862 .6069946L.15699768 .07798767C.1539917 .067993167 .1519928 .05999756 .1499939 .053985597 .14698792 .04798889 .14299011 .042999269 .13798523 .039993287 .13198853 .036987306 .12399292 .033996583 .11299133 .032989503 .101989749 .03199768 .085998538 .0309906 .06599426 .0309906 .056991579 .0309906 .050994874 .02999878 .04598999 .0289917 .040985109 .026992798 .037994386 .020996094 .037994386 .011993408 .037994386 .005996704 .039993287 .0029907227 .04499817 .0019989014 .04899597 .0009918213 .051986696 0 .052993776 0 .05999756 0 .069992069 0 .08198547 .0009918213 .09399414 .0009918213 .10598755 .0009918213 .11898804 .0019989014 .13198853 .0019989014 .14399719 .0019989014 .1559906 .0029907227 .16799927 .0029907227 .17799378 .0029907227 .18499756 .0029907227 .19299317 .0029907227 .20399475 .0029907227 .21798706 .0029907227 .23098755 .0019989014 .24499512 .0019989014 .2599945 .0019989014 .27398683 .0009918213 .28799439 .0009918213 .3019867 .0009918213 .31498719 0 .32598878 0 .33399964 0 .33898927 0 .34298707 .0009918213 .34799195 .0029907227 .35299684 .0039978029 .35499574 .009994507 .35499574 .018997193 .35499574 .022994996 .35398866 .025985718 .35198976 .026992798 .34999085 .027999878 .34899903 .0289917 .34899903 .02999878 .34799195 .0309906 .34498597 .0309906 .34199525 .0309906 .33898927 .0309906 .33198548 .0309906 .32099916 .0309906 .31599427 .0309906 .31098939 .0309906 .30699159 .0309906 .30299378 .0309906 .29899598 .0309906 .29599 .0309906 .29299928 .0309906 .2889862 .0309906 .2849884 .03199768 .27999879 .03199768 .2749939 .03199768 .2689972 .032989503 .2539978 .033996583 .24499512 .035995485 .24198914 .038986207 .23899842 .041992189 .23699951 .04598999 .23699951 .052993776 .23699951 .053985597 .23699951 .056991579 .23799134 .05999756 .23799134 .06298828 .23899842 .068984989 .24099732 .07598877L.30299378 .32499696Z" />

<path id="font_3_3" d="M.3909912 .37399293C.3769989 .37298585 .3659973 .36898805 .35699464 .3600006 .34799195 .35099793 .34298707 .33999635 .34298707 .32899476 .34298707 .32199098 .34498597 .31498719 .34999085 .30899049 .35499574 .30299378 .36299134 .2999878 .37399293 .2999878 .3849945 .2999878 .3959961 .30499269 .4059906 .31399537 .4149933 .32299806 .41999818 .33699037 .41999818 .35598756 .41999818 .3789978 .4099884 .39898683 .3889923 .41600038 .36799623 .43299867 .33898927 .44198609 .30099488 .44198609 .2679901 .44198609 .23999024 .43699647 .21899414 .42599488 .19699097 .4149933 .17999268 .40098573 .16699219 .38598634 .1539917 .36999513 .14498902 .35398866 .13999939 .33699037 .1349945 .31999208 .13198853 .30699159 .13198853 .29599 .13198853 .2769928 .13598633 .26098634 .14399719 .24899292 .1519928 .23599243 .1619873 .22698975 .17298889 .21998596 .18399048 .21299744 .19499207 .20698548 .20698548 .20399475 .21798706 .20098877 .22799683 .19799805 .23498535 .19699097 .24798584 .19400025 .2599945 .19198609 .272995 .18899536 .28599549 .18598938 .29699708 .18099976 .30699159 .17599488 .31599427 .17098999 .32398988 .1639862 .32998658 .15499878 .33599855 .1459961 .33898927 .1349945 .33898927 .12098694 .33898927 .11399841 .33699037 .10499573 .33399964 .09298706 .32998658 .07998657 .32299806 .067993167 .31298829 .055999757 .3019867 .04399109 .28799439 .033996583 .2689972 .024993897 .25 .015991211 .22599793 .010986328 .19599915 .010986328 .19299317 .010986328 .18598938 .010986328 .17599488 .011993408 .16499329 .0129852299 .1539917 .01499939 .14199829 .017990113 .12998963 .020996094 .11898804 .026992798 .10798645 .033996583 .09700012 .040985109 .08799744 .050994874 .08198547 .06399536 .100997928 .06098938 .116989139 .06599426 .12799073 .07798767 .13899231 .08999634 .14498902 .102996829 .14498902 .116989139 .14498902 .12799073 .14199829 .13699341 .1349945 .14299011 .12799073 .14898682 .11898804 .1519928 .10798645 .1519928 .09498596 .1519928 .08198547 .14698792 .069992069 .13598633 .057998659 .125 .051986696 .10899353 .051986696 .085998538 .051986696 .056991579 .06498718 .033996583 .09098816 .015991211 .116989139-.0020141602 .1519928-.011001587 .19499207-.011001587 .23599243-.011001587 .2689972-.005004883 .29499818 .008987427 .32099916 .021987915 .34199525 .036987306 .35699464 .054992677 .37199403 .07299805 .38198854 .09098816 .3880005 .10998535 .3929901 .1289978 .3959961 .14399719 .3959961 .15499878 .3959961 .17298889 .3919983 .18798828 .3849945 .20098877 .37799073 .21299744 .37098695 .22200012 .36499024 .22799683 .35198976 .24198914 .33699037 .25099183 .32199098 .2559967 .30599977 .26098634 .2869873 .2649994 .2649994 .269989 .2559967 .27198792 .24699402 .27398683 .23799134 .2769928 .22898865 .2789917 .22099304 .28199769 .21398926 .28599549 .20698548 .2899933 .20098877 .29599 .19599915 .30299378 .19099427 .30999757 .18899536 .31900025 .18899536 .32998658 .18899536 .33699037 .19099427 .34599305 .19400025 .35699464 .19699097 .36698915 .20298767 .3769989 .21199036 .38598634 .22099304 .394989 .23199463 .40299989 .24699402 .4099884 .26098634 .4169922 .2789917 .41999818 .30099488 .41999818 .30699159 .41999818 .31498719 .41999818 .32398988 .4189911 .33299256 .41799928 .34098817 .4149933 .34999085 .4119873 .35899354 .40899659 .36698915 .4039917 .37399293 .397995 .3809967 .3919983 .3869934 .38398744 .3909912 .37399293Z" />

</defs>
<g clip-path="url(#clip_2)">
<use data-text="x" xlink:href="#font_3_6" transform="matrix(11.9997,0,0,-11.9997,509.54304,172.48584)" fill="#231f20" />
<use data-text="u" xlink:href="#font_3_5" transform="matrix(11.9997,0,0,-11.9997,392.795,154.47254)" fill="#231f20" />
<use data-text="x" xlink:href="#font_3_6" transform="matrix(11.9997,0,0,-11.9997,404.31455,154.47254)" fill="#231f20" />
<use data-text="t" xlink:href="#font_3_4" transform="matrix(11.9997,0,0,-11.9997,414.49034,154.47254)" fill="#231f20" />
<use data-text="(" xlink:href="#font_4_11" transform="matrix(11.9997,0,0,-11.9997,399.6587,154.47254)" fill="#231f20" />
<use data-text="," xlink:href="#font_4_13" transform="matrix(11.9997,0,0,-11.9997,411.1665,154.47254)" fill="#231f20" />
<use data-text=")" xlink:href="#font_4_12" transform="matrix(11.9997,0,0,-11.9997,418.82197,154.47254)" fill="#231f20" />
<path transform="matrix(.1,0,0,-.1,287.433,228.82105)" stroke-width="5.6693" stroke-linecap="butt" stroke-miterlimit="2.6131" stroke-linejoin="miter" fill="none" stroke="#231f20" d="M6.77344 647.574 2281.42 647.578" />
<path transform="matrix(.1,0,0,-.1,287.433,228.82105)" d="M2238.61 647.578C2238.62 653.992 2236.23 660.41 2232 665.176L2294.16 647.578 2232 629.977C2236.23 634.742 2238.61 641.16 2238.61 647.578" fill="#231f20" fill-rule="evenodd" />
<path transform="matrix(.1,0,0,-.1,287.433,228.82105)" stroke-width="11.3386" stroke-linecap="butt" stroke-miterlimit="2.6131" stroke-linejoin="miter" fill="none" stroke="#231f20" d="M1021.77 647.574V1035.01" />
<path transform="matrix(.1,0,0,-.1,287.433,228.82105)" d="M1021.77 1011.98C1014.55 1011.98 1007.33 1009.3 1001.97 1004.54L1021.77 1074.46 1041.57 1004.54C1036.21 1009.3 1028.99 1011.98 1021.77 1011.98" fill="#231f20" fill-rule="evenodd" />
<path transform="matrix(.1,0,0,-.1,287.433,228.82105)" stroke-width="17.0079" stroke-linecap="butt" stroke-miterlimit="2.6131" stroke-linejoin="miter" fill="none" stroke="#231f20" d="M2070.04 647.574C1495.39 1137.22 631.434 1161.09 119.031 1161.89" />
<path transform="matrix(.1,0,0,-.1,287.433,228.82105)" stroke-width="11.3386" stroke-linecap="butt" stroke-miterlimit="2.6131" stroke-linejoin="miter" fill="none" stroke="#231f20" d="M85.6602 1242.59V1160.83" />
<path transform="matrix(.1,0,0,-.1,287.433,228.82105)" stroke-width="11.3386" stroke-linecap="butt" stroke-miterlimit="2.6131" stroke-linejoin="miter" fill="none" stroke="#231f20" d="M98.8906 1176.22C111.074 1173.83 119.195 1168.28 119.195 1162.18 119.195 1153.76 104.129 1146.89 85.6602 1146.89 67.1875 1146.89 52.125 1153.76 52.125 1162.18 52.125 1168.1 59.7227 1173.48 71.3828 1175.98" />
<path transform="matrix(.1,0,0,-.1,287.433,228.82105)" stroke-width="11.3386" stroke-linecap="butt" stroke-miterlimit="2.6131" stroke-linejoin="miter" fill="none" stroke="#231f20" d="M85.6602 1131.79V52.7461" />
<path transform="matrix(.1,0,0,-.1,287.433,228.82105)" stroke-width="11.3386" stroke-linecap="butt" stroke-miterlimit="2.6131" stroke-linejoin="miter" fill="none" stroke="#231f20" d="M2070.44 646.895 2110.64 577.266 2150.84 507.641H1990.05L2030.24 577.266 2070.44 646.895Z" />
<path transform="matrix(.1,0,0,-.1,287.433,228.82105)" d="M2070.04 667.02C2080.75 667.02 2089.49 658.281 2089.49 647.574 2089.49 636.863 2080.75 628.129 2070.04 628.129 2059.33 628.129 2050.6 636.863 2050.6 647.574 2050.6 658.281 2059.33 667.02 2070.04 667.02" fill="#ffffff" fill-rule="evenodd" />
<path transform="matrix(.1,0,0,-.1,287.433,228.82105)" stroke-width="11.3386" stroke-linecap="butt" stroke-miterlimit="2.6131" stroke-linejoin="miter" fill="none" stroke="#231f20" d="M2070.04 667.02C2080.75 667.02 2089.49 658.281 2089.49 647.574 2089.49 636.863 2080.75 628.129 2070.04 628.129 2059.33 628.129 2050.6 636.863 2050.6 647.574 2050.6 658.281 2059.33 667.02 2070.04 667.02Z" />
<path transform="matrix(.1,0,0,-.1,287.433,228.82105)" stroke-width="11.3386" stroke-linecap="butt" stroke-miterlimit="2.6131" stroke-linejoin="miter" fill="none" stroke="#231f20" d="M1929.28 507.633H2210.85" />
<g clip-path="url(#clip_5)">
<path transform="matrix(.1,0,0,-.1,287.433,228.82105)" stroke-width="3.6" stroke-linecap="butt" stroke-miterlimit="2.6131" stroke-linejoin="miter" fill="none" stroke="#231f20" d="M2090.68 299.293 1887.77 502.203" />
<path transform="matrix(.1,0,0,-.1,287.433,228.82105)" stroke-width="3.6" stroke-linecap="butt" stroke-miterlimit="2.6131" stroke-linejoin="miter" fill="none" stroke="#231f20" d="M2111.05 319.656 1908.14 522.57" />
<path transform="matrix(.1,0,0,-.1,287.433,228.82105)" stroke-width="3.6" stroke-linecap="butt" stroke-miterlimit="2.6131" stroke-linejoin="miter" fill="none" stroke="#231f20" d="M2131.41 340.023 1928.5 542.934" />
<path transform="matrix(.1,0,0,-.1,287.433,228.82105)" stroke-width="3.6" stroke-linecap="butt" stroke-miterlimit="2.6131" stroke-linejoin="miter" fill="none" stroke="#231f20" d="M2151.78 360.387 1948.87 563.297" />
<path transform="matrix(.1,0,0,-.1,287.433,228.82105)" stroke-width="3.6" stroke-linecap="butt" stroke-miterlimit="2.6131" stroke-linejoin="miter" fill="none" stroke="#231f20" d="M2172.14 380.75 1969.23 583.664" />
<path transform="matrix(.1,0,0,-.1,287.433,228.82105)" stroke-width="3.6" stroke-linecap="butt" stroke-miterlimit="2.6131" stroke-linejoin="miter" fill="none" stroke="#231f20" d="M2192.51 401.117 1989.59 604.027" />
<path transform="matrix(.1,0,0,-.1,287.433,228.82105)" stroke-width="3.6" stroke-linecap="butt" stroke-miterlimit="2.6131" stroke-linejoin="miter" fill="none" stroke="#231f20" d="M2212.87 421.48 2009.96 624.395" />
<path transform="matrix(.1,0,0,-.1,287.433,228.82105)" stroke-width="3.6" stroke-linecap="butt" stroke-miterlimit="2.6131" stroke-linejoin="miter" fill="none" stroke="#231f20" d="M2233.24 441.844 2030.32 644.758" />
<path transform="matrix(.1,0,0,-.1,287.433,228.82105)" stroke-width="3.6" stroke-linecap="butt" stroke-miterlimit="2.6131" stroke-linejoin="miter" fill="none" stroke="#231f20" d="M2253.6 462.211 2050.69 665.121" />
<path transform="matrix(.1,0,0,-.1,287.433,228.82105)" stroke-width="3.6" stroke-linecap="butt" stroke-miterlimit="2.6131" stroke-linejoin="miter" fill="none" stroke="#231f20" d="M2273.96 482.574 2071.05 685.488" />
</g>
<path transform="matrix(.1,0,0,-.1,287.433,228.82105)" stroke-width="11.3386" stroke-linecap="butt" stroke-miterlimit="2.6131" stroke-linejoin="miter" fill="none" stroke="#231f20" d="M6.92578 1242.66H164.266" />
<g clip-path="url(#clip_6)">
<path transform="matrix(.1,0,0,-.1,287.433,228.82105)" stroke-width="3.6" stroke-linecap="butt" stroke-miterlimit="2.6131" stroke-linejoin="miter" fill="none" stroke="#231f20" d="M106.004 1171.08-11.3633 1288.45" />
<path transform="matrix(.1,0,0,-.1,287.433,228.82105)" stroke-width="3.6" stroke-linecap="butt" stroke-miterlimit="2.6131" stroke-linejoin="miter" fill="none" stroke="#231f20" d="M126.371 1191.44 9 1308.81" />
<path transform="matrix(.1,0,0,-.1,287.433,228.82105)" stroke-width="3.6" stroke-linecap="butt" stroke-miterlimit="2.6131" stroke-linejoin="miter" fill="none" stroke="#231f20" d="M146.734 1211.8 29.3672 1329.18" />
<path transform="matrix(.1,0,0,-.1,287.433,228.82105)" stroke-width="3.6" stroke-linecap="butt" stroke-miterlimit="2.6131" stroke-linejoin="miter" fill="none" stroke="#231f20" d="M167.098 1232.17 49.7305 1349.54" />
<path transform="matrix(.1,0,0,-.1,287.433,228.82105)" stroke-width="3.6" stroke-linecap="butt" stroke-miterlimit="2.6131" stroke-linejoin="miter" fill="none" stroke="#231f20" d="M187.465 1252.54 70.0938 1369.9" />
<path transform="matrix(.1,0,0,-.1,287.433,228.82105)" stroke-width="3.6" stroke-linecap="butt" stroke-miterlimit="2.6131" stroke-linejoin="miter" fill="none" stroke="#231f20" d="M207.828 1272.9 90.4609 1390.27" />
</g>
<path transform="matrix(.1,0,0,-.1,287.433,228.82105)" stroke-width="11.3386" stroke-linecap="butt" stroke-miterlimit="2.6131" stroke-linejoin="miter" fill="none" stroke="#231f20" d="M6.92578 51.8711H164.266" />
<g clip-path="url(#clip_7)">
<path transform="matrix(.1,0,0,-.1,287.433,228.82105)" stroke-width="3.6" stroke-linecap="butt" stroke-miterlimit="2.6131" stroke-linejoin="miter" fill="none" stroke="#231f20" d="M106.004-70.9219-11.3633 46.4453" />
<path transform="matrix(.1,0,0,-.1,287.433,228.82105)" stroke-width="3.6" stroke-linecap="butt" stroke-miterlimit="2.6131" stroke-linejoin="miter" fill="none" stroke="#231f20" d="M126.371-50.5586 9 66.8086" />
<path transform="matrix(.1,0,0,-.1,287.433,228.82105)" stroke-width="3.6" stroke-linecap="butt" stroke-miterlimit="2.6131" stroke-linejoin="miter" fill="none" stroke="#231f20" d="M146.734-30.1953 29.3672 87.1758" />
<path transform="matrix(.1,0,0,-.1,287.433,228.82105)" stroke-width="3.6" stroke-linecap="butt" stroke-miterlimit="2.6131" stroke-linejoin="miter" fill="none" stroke="#231f20" d="M167.098-9.82813 49.7305 107.539" />
<path transform="matrix(.1,0,0,-.1,287.433,228.82105)" stroke-width="3.6" stroke-linecap="butt" stroke-miterlimit="2.6131" stroke-linejoin="miter" fill="none" stroke="#231f20" d="M187.465 10.5352 70.0938 127.902" />
<path transform="matrix(.1,0,0,-.1,287.433,228.82105)" stroke-width="3.6" stroke-linecap="butt" stroke-miterlimit="2.6131" stroke-linejoin="miter" fill="none" stroke="#231f20" d="M207.828 30.8984 90.4609 148.27" />
</g>
<use data-text="x" xlink:href="#font_3_6" transform="matrix(11.9997,0,0,-11.9997,298.876,174.38315)" fill="#231f20" />
<use data-text="=" xlink:href="#font_4_10" transform="matrix(11.9997,0,0,-11.9997,305.72758,174.38315)" fill="#231f20" />
<use data-text="0" xlink:href="#font_4_14" transform="matrix(11.9997,0,0,-11.9997,315.05134,174.38315)" fill="#231f20" />
<use data-text="x" xlink:href="#font_3_6" transform="matrix(11.9997,0,0,-11.9997,483.17057,193.70505)" fill="#231f20" />
<use data-text="l" xlink:href="#font_3_7" transform="matrix(11.9997,0,0,-11.9997,499.3463,193.70505)" fill="#231f20" />
<use data-text="=" xlink:href="#font_4_10" transform="matrix(11.9997,0,0,-11.9997,490.02214,193.70505)" fill="#231f20" />
<path transform="matrix(.1,0,0,-.1,287.433,228.82105)" d="M985.148 1123.88 1065.55 1109.73 1058.48 1069.53 978.074 1083.67 985.148 1123.88" fill="#231f20" fill-rule="evenodd" />
<path transform="matrix(.1,0,0,-.1,287.433,228.82105)" stroke-width="5.6693" stroke-linecap="butt" stroke-miterlimit="2.6131" stroke-linejoin="miter" fill="none" stroke="#231f20" d="M985.148 1123.88 1065.55 1109.73 1058.48 1069.53 978.074 1083.67 985.148 1123.88Z" />
<use data-text="d" xlink:href="#font_4_5" transform="matrix(11.9997,0,0,-11.9997,390.307,115.12904)" fill="#231f20" />
<use data-text="=" xlink:href="#font_4_10" transform="matrix(11.9997,0,0,-11.9997,407.50233,115.12904)" fill="#231f20" />
<use data-text="d" xlink:href="#font_4_5" transform="matrix(11.9997,0,0,-11.9997,432.9898,115.12904)" fill="#231f20" />
<use data-text="m" xlink:href="#font_3_8" transform="matrix(11.9997,0,0,-11.9997,396.9668,115.12904)" fill="#231f20" />
<use data-text="%" xlink:href="#font_3_9" transform="matrix(11.9997,0,0,-11.9997,416.82615,115.12904)" fill="#231f20" />
<use data-text="A" xlink:href="#font_3_1" transform="matrix(11.9997,0,0,-11.9997,422.6699,115.12904)" fill="#231f20" />
<use data-text="x" xlink:href="#font_3_6" transform="matrix(11.9997,0,0,-11.9997,439.64997,115.12904)" fill="#231f20" />
<use data-text="S" xlink:href="#font_4_9" transform="matrix(11.9997,0,0,-11.9997,330.4391,109.34624)" fill="#231f20" />
<use data-text="a" xlink:href="#font_4_4" transform="matrix(11.9997,0,0,-11.9997,337.0989,109.34624)" fill="#231f20" />
<use data-text="i" xlink:href="#font_4_8" transform="matrix(11.9997,0,0,-11.9997,343.09877,109.34624)" fill="#231f20" />
<use data-text="t" xlink:href="#font_4_3" transform="matrix(11.9997,0,0,-11.9997,346.42268,109.34624)" fill="#231f20" />
<use data-text="e" xlink:href="#font_4_6" transform="matrix(11.9997,0,0,-11.9997,351.07856,109.34624)" fill="#231f20" />
<path transform="matrix(.1,0,0,-.1,287.433,228.82105)" stroke-width="5.6693" stroke-linecap="butt" stroke-miterlimit="2.6131" stroke-linejoin="miter" fill="none" stroke="#231f20" d="M419.859 1232.17 283.797 1157.33" />
<use data-text="f" xlink:href="#font_4_7" transform="matrix(11.9997,0,0,-11.9997,485.251,205.61055)" fill="#231f20" />
<use data-text="e" xlink:href="#font_4_6" transform="matrix(11.9997,0,0,-11.9997,488.91093,205.61055)" fill="#231f20" />
<use data-text="s" xlink:href="#font_4_2" transform="matrix(11.9997,0,0,-11.9997,494.23878,205.61055)" fill="#231f20" />
<use data-text="t" xlink:href="#font_4_3" transform="matrix(11.9997,0,0,-11.9997,498.96669,205.61055)" fill="#231f20" />
<use data-text="f" xlink:href="#font_4_7" transform="matrix(11.9997,0,0,-11.9997,299.967,219.66645)" fill="#231f20" />
<use data-text="r" xlink:href="#font_4_1" transform="matrix(11.9997,0,0,-11.9997,303.62693,219.66645)" fill="#231f20" />
<use data-text="e" xlink:href="#font_4_6" transform="matrix(11.9997,0,0,-11.9997,308.3188,219.66645)" fill="#231f20" />
<use data-text="i" xlink:href="#font_4_8" transform="matrix(11.9997,0,0,-11.9997,313.64668,219.66645)" fill="#231f20" />
<use data-text="F" xlink:href="#font_3_2" transform="matrix(11.9997,0,0,-11.9997,411.919,223.56528)" fill="#231f20" />
<use data-text="u" xlink:href="#font_3_5" transform="matrix(11.9997,0,0,-11.9997,419.63484,223.56528)" fill="#231f20" />
<use data-text="x" xlink:href="#font_3_6" transform="matrix(7.99952,0,0,-7.99952,426.49873,226.20511)" fill="#231f20" />
<path transform="matrix(.1,0,0,-.1,287.433,228.82105)" stroke-width="17.0079" stroke-linecap="butt" stroke-miterlimit="2.6131" stroke-linejoin="miter" fill="none" stroke="#231f20" d="M1368.05 271.164C1237.4 321.566 1102.73 359.547 968.469 388.156" />
<path transform="matrix(.1,0,0,-.1,287.433,228.82105)" stroke-width="5.6693" stroke-linecap="butt" stroke-miterlimit="2.6131" stroke-linejoin="miter" fill="none" stroke="#231f20" d="M1366.2 272.074 1727.52 138.152" />
<path transform="matrix(.1,0,0,-.1,287.433,228.82105)" d="M1708.32 145.266C1710.56 151.285 1710.55 158.125 1708.23 164.066L1760.41 125.961 1696 131.063C1701.63 134.059 1706.09 139.246 1708.32 145.266" fill="#231f20" fill-rule="evenodd" />
<path transform="matrix(.1,0,0,-.1,287.433,228.82105)" stroke-width="5.6693" stroke-linecap="butt" stroke-miterlimit="2.6131" stroke-linejoin="miter" fill="none" stroke="#231f20" d="M1364.95 272.074H1724.07" />
<path transform="matrix(.1,0,0,-.1,287.433,228.82105)" d="M1703.6 272.074C1703.6 278.492 1701.22 284.91 1696.98 289.672L1759.14 272.074 1696.98 254.473C1701.22 259.242 1703.6 265.66 1703.6 272.074" fill="#231f20" fill-rule="evenodd" />
<path transform="matrix(.1,0,0,-.1,287.433,228.82105)" stroke-width="11.3386" stroke-linecap="butt" stroke-miterlimit="2.6131" stroke-linejoin="miter" fill="none" stroke="#231f20" d="M1364.95 272.074V165.004" />
<path transform="matrix(.1,0,0,-.1,287.433,228.82105)" d="M1364.95 188.031C1372.17 188.027 1379.39 190.707 1384.75 195.477L1364.95 125.555 1345.15 195.477C1350.51 190.707 1357.73 188.031 1364.95 188.031" fill="#231f20" fill-rule="evenodd" />
<use data-text="F" xlink:href="#font_3_2" transform="matrix(11.9997,0,0,-11.9997,462.67103,223.56519)" fill="#231f20" />
<path transform="matrix(.1,0,0,-.1,287.433,228.82105)" stroke-width="2.8346" stroke-linecap="butt" stroke-dasharray="28.346,14.173" stroke-miterlimit="2.6131" stroke-linejoin="miter" fill="none" stroke="#231f20" d="M1364.68 125.234H1759.43" />
<path transform="matrix(.1,0,0,-.1,287.433,228.82105)" stroke-width="2.8346" stroke-linecap="butt" stroke-dasharray="28.346,14.173" stroke-miterlimit="2.6131" stroke-linejoin="miter" fill="none" stroke="#231f20" d="M1759.43 272.074V125.234" />
<path transform="matrix(.1,0,0,-.1,287.433,228.82105)" stroke-width="2.8346" stroke-linecap="butt" stroke-miterlimit="2.6131" stroke-linejoin="miter" fill="none" stroke="#231f20" d="M1331.61 199.594C1331.61 215.816 1346.8 224.945 1346.8 243.195 1346.8 251.309 1359.97 256.379 1359.97 264.492 1359.97 277.676 1385.29 285.789 1385.29 296.941 1385.29 309.109 1398.46 329.391 1398.46 334.461" />
<use data-text="d" xlink:href="#font_4_5" transform="matrix(11.9997,0,0,-11.9997,458.053,138.14484)" fill="#231f20" />
<use data-text="s" xlink:href="#font_3_3" transform="matrix(11.9997,0,0,-11.9997,464.71278,138.14484)" fill="#231f20" />
<use data-text="d" xlink:href="#font_4_5" transform="matrix(11.9997,0,0,-11.9997,383.1183,174.38004)" fill="#231f20" />
<use data-text="x" xlink:href="#font_3_6" transform="matrix(11.9997,0,0,-11.9997,389.77806,174.38004)" fill="#231f20" />
<path transform="matrix(.1,0,0,-.1,287.433,228.82105)" stroke-width="5.6693" stroke-linecap="butt" stroke-miterlimit="2.6131" stroke-linejoin="miter" fill="none" stroke="#231f20" d="M978.762 670.215V624.934" />
<path transform="matrix(.1,0,0,-.1,287.433,228.82105)" stroke-width="5.6693" stroke-linecap="butt" stroke-miterlimit="2.6131" stroke-linejoin="miter" fill="none" stroke="#231f20" d="M1064.78 670.215V624.934" />
<use data-text="d" xlink:href="#font_4_5" transform="matrix(11.9997,0,0,-11.9997,452.238,174.38004)" fill="#231f20" />
<use data-text="x" xlink:href="#font_3_6" transform="matrix(11.9997,0,0,-11.9997,458.89778,174.38004)" fill="#231f20" />
<path transform="matrix(.1,0,0,-.1,287.433,228.82105)" stroke-width="5.6693" stroke-linecap="butt" stroke-miterlimit="2.6131" stroke-linejoin="miter" fill="none" stroke="#231f20" d="M1669.96 899.711V624.934" />
<path transform="matrix(.1,0,0,-.1,287.433,228.82105)" stroke-width="5.6693" stroke-linecap="butt" stroke-miterlimit="2.6131" stroke-linejoin="miter" fill="none" stroke="#231f20" d="M1755.98 856.848V624.934" />
<path transform="matrix(.1,0,0,-.1,287.433,228.82105)" stroke-width="5.6693" stroke-linecap="butt" stroke-miterlimit="2.6131" stroke-linejoin="miter" fill="none" stroke="#231f20" d="M1680.63 924.023 1656.61 874.156" />
<path transform="matrix(.1,0,0,-.1,287.433,228.82105)" stroke-width="5.6693" stroke-linecap="butt" stroke-miterlimit="2.6131" stroke-linejoin="miter" fill="none" stroke="#231f20" d="M1767.67 882.156 1743.67 832.305" />
</g>
<g clip-path="url(#clip_5)">
<path transform="matrix(.1,0,0,-.1,287.433,228.82105)" stroke-width="3.6" stroke-linecap="butt" stroke-miterlimit="2.6131" stroke-linejoin="miter" fill="none" stroke="#231f20" d="M2090.68 299.293 1887.77 502.203" />
<path transform="matrix(.1,0,0,-.1,287.433,228.82105)" stroke-width="3.6" stroke-linecap="butt" stroke-miterlimit="2.6131" stroke-linejoin="miter" fill="none" stroke="#231f20" d="M2111.05 319.656 1908.14 522.57" />
<path transform="matrix(.1,0,0,-.1,287.433,228.82105)" stroke-width="3.6" stroke-linecap="butt" stroke-miterlimit="2.6131" stroke-linejoin="miter" fill="none" stroke="#231f20" d="M2131.41 340.023 1928.5 542.934" />
<path transform="matrix(.1,0,0,-.1,287.433,228.82105)" stroke-width="3.6" stroke-linecap="butt" stroke-miterlimit="2.6131" stroke-linejoin="miter" fill="none" stroke="#231f20" d="M2151.78 360.387 1948.87 563.297" />
<path transform="matrix(.1,0,0,-.1,287.433,228.82105)" stroke-width="3.6" stroke-linecap="butt" stroke-miterlimit="2.6131" stroke-linejoin="miter" fill="none" stroke="#231f20" d="M2172.14 380.75 1969.23 583.664" />
<path transform="matrix(.1,0,0,-.1,287.433,228.82105)" stroke-width="3.6" stroke-linecap="butt" stroke-miterlimit="2.6131" stroke-linejoin="miter" fill="none" stroke="#231f20" d="M2192.51 401.117 1989.59 604.027" />
<path transform="matrix(.1,0,0,-.1,287.433,228.82105)" stroke-width="3.6" stroke-linecap="butt" stroke-miterlimit="2.6131" stroke-linejoin="miter" fill="none" stroke="#231f20" d="M2212.87 421.48 2009.96 624.395" />
<path transform="matrix(.1,0,0,-.1,287.433,228.82105)" stroke-width="3.6" stroke-linecap="butt" stroke-miterlimit="2.6131" stroke-linejoin="miter" fill="none" stroke="#231f20" d="M2233.24 441.844 2030.32 644.758" />
<path transform="matrix(.1,0,0,-.1,287.433,228.82105)" stroke-width="3.6" stroke-linecap="butt" stroke-miterlimit="2.6131" stroke-linejoin="miter" fill="none" stroke="#231f20" d="M2253.6 462.211 2050.69 665.121" />
<path transform="matrix(.1,0,0,-.1,287.433,228.82105)" stroke-width="3.6" stroke-linecap="butt" stroke-miterlimit="2.6131" stroke-linejoin="miter" fill="none" stroke="#231f20" d="M2273.96 482.574 2071.05 685.488" />
</g>
<g clip-path="url(#clip_6)">
<path transform="matrix(.1,0,0,-.1,287.433,228.82105)" stroke-width="3.6" stroke-linecap="butt" stroke-miterlimit="2.6131" stroke-linejoin="miter" fill="none" stroke="#231f20" d="M106.004 1171.08-11.3633 1288.45" />
<path transform="matrix(.1,0,0,-.1,287.433,228.82105)" stroke-width="3.6" stroke-linecap="butt" stroke-miterlimit="2.6131" stroke-linejoin="miter" fill="none" stroke="#231f20" d="M126.371 1191.44 9 1308.81" />
<path transform="matrix(.1,0,0,-.1,287.433,228.82105)" stroke-width="3.6" stroke-linecap="butt" stroke-miterlimit="2.6131" stroke-linejoin="miter" fill="none" stroke="#231f20" d="M146.734 1211.8 29.3672 1329.18" />
<path transform="matrix(.1,0,0,-.1,287.433,228.82105)" stroke-width="3.6" stroke-linecap="butt" stroke-miterlimit="2.6131" stroke-linejoin="miter" fill="none" stroke="#231f20" d="M167.098 1232.17 49.7305 1349.54" />
<path transform="matrix(.1,0,0,-.1,287.433,228.82105)" stroke-width="3.6" stroke-linecap="butt" stroke-miterlimit="2.6131" stroke-linejoin="miter" fill="none" stroke="#231f20" d="M187.465 1252.54 70.0938 1369.9" />
<path transform="matrix(.1,0,0,-.1,287.433,228.82105)" stroke-width="3.6" stroke-linecap="butt" stroke-miterlimit="2.6131" stroke-linejoin="miter" fill="none" stroke="#231f20" d="M207.828 1272.9 90.4609 1390.27" />
</g>
<g clip-path="url(#clip_7)">
<path transform="matrix(.1,0,0,-.1,287.433,228.82105)" stroke-width="3.6" stroke-linecap="butt" stroke-miterlimit="2.6131" stroke-linejoin="miter" fill="none" stroke="#231f20" d="M106.004-70.9219-11.3633 46.4453" />
<path transform="matrix(.1,0,0,-.1,287.433,228.82105)" stroke-width="3.6" stroke-linecap="butt" stroke-miterlimit="2.6131" stroke-linejoin="miter" fill="none" stroke="#231f20" d="M126.371-50.5586 9 66.8086" />
<path transform="matrix(.1,0,0,-.1,287.433,228.82105)" stroke-width="3.6" stroke-linecap="butt" stroke-miterlimit="2.6131" stroke-linejoin="miter" fill="none" stroke="#231f20" d="M146.734-30.1953 29.3672 87.1758" />
<path transform="matrix(.1,0,0,-.1,287.433,228.82105)" stroke-width="3.6" stroke-linecap="butt" stroke-miterlimit="2.6131" stroke-linejoin="miter" fill="none" stroke="#231f20" d="M167.098-9.82813 49.7305 107.539" />
<path transform="matrix(.1,0,0,-.1,287.433,228.82105)" stroke-width="3.6" stroke-linecap="butt" stroke-miterlimit="2.6131" stroke-linejoin="miter" fill="none" stroke="#231f20" d="M187.465 10.5352 70.0938 127.902" />
<path transform="matrix(.1,0,0,-.1,287.433,228.82105)" stroke-width="3.6" stroke-linecap="butt" stroke-miterlimit="2.6131" stroke-linejoin="miter" fill="none" stroke="#231f20" d="M207.828 30.8984 90.4609 148.27" />
</g>

</svg>