<svg xmlns="http://www.w3.org/2000/svg" xmlns:xlink="http://www.w3.org/1999/xlink" version="1.1" width="179.000" height="167.000" viewBox="356.803 176.143 179.000 167.000">
<defs>
<clipPath id="clip_2">
<path transform="matrix(1,0,0,-1,366.803,333.143)" d="M0 0H159V147H0Z" />
</clipPath>

<clipPath id="clip_3">
<path transform="matrix(.1,0,0,-.1,366.803,333.143)" d="M1370.07 581.836H749.652V655.77H1370.07V581.836Z" clip-rule="evenodd" />
</clipPath>

<path id="font_4_6" d="M.73999026 .43598939C.73999026 .47599793 .73399356 .5130005 .72099307 .54599 .70799258 .57899478 .69099429 .60798647 .6689911 .6309967 .6459961 .6539917 .61898806 .6729889 .58799746 .6859894 .5569916 .69898989 .5219879 .7049866 .4850006 .7049866 .44898988 .7049866 .41299439 .69898989 .37799073 .68699648 .34199525 .6749878 .30799867 .6589966 .27598573 .6380005 .24398804 .61698916 .21398926 .59199526 .18598938 .5629883 .1579895 .5339966 .13398743 .5019989 .11399841 .46798707 .09399414 .43399049 .07798767 .397995 .066986087 .3600006 .054992677 .32199098 .04899597 .28399659 .04899597 .24499512 .04899597 .20399475 .055999757 .16699219 .068984989 .13398743 .08198547 .100997928 .099990848 .07299805 .12298584 .049987794 .1459961 .026992798 .17298889 .008987427 .20399475-.0040130617 .23498535-.01600647 .2689972-.022003174 .30499269-.022003174 .33999635-.022003174 .37599183-.01600647 .41099549-.005004883 .44599916 .0069885256 .47999574 .022994996 .5119934 .04399109 .5439911 .06498718 .57398989 .08898926 .60198977 .117996219 .6299896 .1459961 .6539917 .1769867 .6749878 .21099854 .69499209 .24499512 .71099856 .2809906 .72299197 .31900025 .73399356 .35699464 .73999026 .3959961 .73999026 .43598939M.31098939 .0029907227C.28599549 .0029907227 .2639923 .0079956059 .24299622 .017990113 .22200012 .026992798 .20498657 .040985109 .18998719 .05999756 .1749878 .07899475 .16299439 .100997928 .15499878 .1269989 .1459961 .15299988 .14199829 .18299866 .14199829 .21598816 .14199829 .22698975 .14299011 .24398804 .1459961 .2659912 .147995 .2889862 .1519928 .31498719 .15899658 .34298707 .16499329 .37098695 .17399597 .40098573 .18598938 .43299867 .19799805 .46398927 .21398926 .49398805 .23298645 .5239868 .25 .5499878 .2689972 .57299807 .2899933 .59199526 .30999757 .61099246 .33099366 .6279907 .35198976 .6409912 .37298585 .6539917 .394989 .6629944 .4169922 .66999819 .43798829 .6769867 .45899964 .6799927 .47898866 .6799927 .5 .6799927 .519989 .6759949 .54100039 .6689911 .5609894 .6619873 .57899478 .6499939 .59599307 .6339874 .6119995 .61698916 .625 .59599307 .6359863 .56999209 .6459961 .5439911 .651001 .5119934 .651001 .47499085 .651001 .45700074 .6489868 .43399049 .644989 .40699769 .6409912 .3789978 .6339874 .34999085 .625 .31799317 .6159973 .28599549 .6029968 .2539978 .58699038 .21998596 .56999209 .18598938 .5499878 .1539917 .5249939 .12298584 .5130005 .10798645 .49899293 .09298706 .48298646 .07899475 .46699525 .06399536 .44999696 .050994874 .43199159 .039993287 .41299439 .0289917 .3939972 .019989014 .37298585 .0129852299 .35198976 .005996704 .33198548 .0029907227 .31098939 .0029907227Z" />

<path id="font_4_7" d="M.30299378 .31599427H.47299195C.5079956 .31599427 .54299929 .32199098 .57699587 .33399964 .6100006 .34599305 .6399994 .3619995 .6669922 .38198854 .69299319 .4019928 .71398928 .4249878 .7299957 .45098878 .74598696 .47698976 .7539978 .5039978 .7539978 .5319977 .7539978 .5509949 .75 .56999209 .74198916 .58799746 .73298647 .60598757 .72099307 .621994 .7049866 .6359863 .6879883 .6499939 .66799929 .6609955 .6429901 .66999819 .6179962 .67900088 .58999636 .68299868 .5569916 .68299868H.23298645C.22399903 .68299868 .21598816 .6819916 .21099854 .68099978 .20599365 .67900088 .20298767 .6729889 .20298767 .6639862 .20298767 .6579895 .20498657 .6549988 .20999146 .6539917 .21499634 .6529999 .22200012 .6519928 .23199463 .6519928 .23899842 .6519928 .24598694 .6519928 .2539978 .6519928 .2619934 .651001 .2689972 .651001 .2749939 .6499939 .2829895 .6489868 .2889862 .6469879 .2919922 .644989 .29499818 .6429901 .29699708 .6389923 .29699708 .6339874 .29699708 .6319885 .29699708 .6299896 .29599 .6279907 .29499818 .625 .2939911 .62098696 .29299928 .61499026L.15899658 .07798767C.1559906 .067993167 .1539917 .05999756 .1519928 .053985597 .14898682 .04798889 .14498902 .042999269 .13999939 .039993287 .13398743 .036987306 .12599182 .033996583 .114990238 .032989503 .10398865 .03199768 .08799744 .0309906 .067993167 .0309906 .05899048 .0309906 .052993776 .02999878 .04798889 .0289917 .042999269 .026992798 .039993287 .020996094 .039993287 .011993408 .039993287 .005996704 .041992189 .0029907227 .04699707 .0019989014 .050994874 .0009918213 .053985597 0 .054992677 0 .06199646 0 .070999149 0 .08299255 .0009918213 .09399414 .0009918213 .10598755 .0009918213 .11898804 .0019989014 .1309967 .0019989014 .14299011 .0019989014 .1539917 .0029907227 .16499329 .0029907227 .1749878 .0029907227 .18199158 .0029907227 .19299317 .0029907227 .20298767 .0029907227 .21398926 .0029907227 .22499085 .0019989014 .23498535 .0019989014 .24598694 .0019989014 .25698854 .0019989014 .2679901 .0019989014 .2789917 .0009918213 .2899933 0 .2999878 0 .31098939 0 .31399537 0 .31900025 .0009918213 .32398988 .0029907227 .32899476 .0039978029 .33099366 .009994507 .33099366 .019989014 .33099366 .024993897 .32899476 .0289917 .32398988 .02999878 .31900025 .0309906 .31199647 .0309906 .30299378 .0309906 .28399659 .0309906 .2689972 .03199768 .25698854 .032989503 .24398804 .033996583 .23799134 .039993287 .23799134 .04899597 .23799134 .051986696 .23799134 .054992677 .23899842 .057998659 .23999024 .05999756 .23999024 .06298828 .24099732 .06599426L.30299378 .31599427M.375 .6139984C.3769989 .6230011 .3789978 .6299896 .3809967 .6349945 .3829956 .6399994 .38598634 .6429901 .3889923 .6459961 .3919983 .6489868 .39698792 .6499939 .4039917 .651001 .4099884 .6519928 .41799928 .6519928 .42900086 .6519928H.5249939C.5669861 .6519928 .59999087 .644989 .625 .6299896 .6489868 .61499026 .6609955 .59098818 .6609955 .55599978 .6609955 .54599 .6599884 .5339966 .6579895 .5189972 .6549988 .5049896 .6519928 .48999024 .6469879 .47399903 .6419983 .45799256 .6349945 .44299317 .6279907 .42900086 .62098696 .4139862 .6119995 .40299989 .60198977 .3939972 .57699587 .37199403 .5499878 .35699464 .522995 .35099793 .49499513 .34399415 .46998597 .34098817 .44799806 .34098817H.30699159L.375 .6139984Z" />

<path id="font_5_1" d="M.46199037 .21798706C.47299195 .21798706 .48199464 .21899414 .4869995 .22200012 .49198915 .22399903 .49398805 .23199463 .49398805 .24499512 .49398805 .25299073 .49398805 .2630005 .49299623 .27598573 .49198915 .28799439 .4889984 .30099488 .4850006 .31498719 .48098756 .32899476 .47499085 .34298707 .46798707 .35798646 .46099855 .37298585 .45098878 .38598634 .43798829 .39898683 .40098573 .43499757 .34799195 .45298768 .2789917 .45298768 .23899842 .45298768 .20399475 .44699098 .17298889 .43499757 .14199829 .4229889 .116989139 .40699769 .09599304 .38598634 .07499695 .36499024 .05899048 .34098817 .04798889 .31399537 .036987306 .28599549 .03199768 .2559967 .03199768 .22499085 .03199768 .19198609 .037994386 .16099549 .049987794 .1329956 .06199646 .10398865 .07899475 .07998657 .101989749 .05899048 .125 .037994386 .1519928 .021987915 .18499756 .010986328 .21699524 0 .25299073-.006011963 .29299928-.006011963 .33198548-.006011963 .36499024 0 .3909912 .010986328 .4169922 .021987915 .43798829 .034988405 .45298768 .049987794 .46798707 .06399536 .47898866 .07798767 .4850006 .09098816 .4909973 .10398865 .49398805 .11299133 .49398805 .116989139 .49398805 .12599182 .4909973 .1309967 .48399354 .1329956 .47698976 .13398743 .47299195 .1349945 .46998597 .1349945 .46099855 .1349945 .45599366 .13398743 .45399476 .1309967 .45098878 .12799073 .44799806 .12199402 .44499208 .11399841 .43399049 .08999634 .41600038 .070999149 .3899994 .055999757 .3639984 .040985109 .33499146 .033996583 .3019867 .033996583 .2669983 .033996583 .23999024 .040985109 .22099304 .055999757 .20199585 .069992069 .18798828 .08699036 .1789856 .10699463 .16999817 .1269989 .1639862 .14698792 .16299439 .16799927 .16099549 .18899536 .1599884 .20498657 .1599884 .21798706H.46199037M.1599884 .25099183C.16099549 .269989 .16299439 .2899933 .16499329 .30999757 .16699219 .32998658 .17298889 .34799195 .18399048 .36499024 .19699097 .3849945 .21299744 .39898683 .23098755 .4059906 .24798584 .41299439 .2639923 .4169922 .2789917 .4169922 .30799867 .4169922 .33099366 .4099884 .34700013 .3959961 .36299134 .38198854 .375 .3659973 .3829956 .34700013 .3899994 .32798768 .394989 .30999757 .39698792 .2919922 .397995 .272995 .39898683 .2599945 .39898683 .25099183H.1599884Z" />

<path id="font_4_5" d="M.48599244 .3809967C.48799134 .3880005 .4889984 .3929901 .48999024 .3959961 .48999024 .397995 .48999024 .40098573 .48999024 .4039917 .48999024 .41299439 .4869995 .41999818 .48098756 .4249878 .47499085 .42900086 .46798707 .43099977 .46099855 .43099977 .45599366 .43099977 .44999696 .42900086 .44299317 .42599488 .43598939 .4229889 .43099977 .4169922 .42599488 .4099884 .4249878 .40699769 .4229889 .3999939 .41999818 .3880005 .4169922 .37599183 .4139862 .36499024 .4119873 .35598756 .40899659 .34298707 .40499879 .32899476 .4019928 .31599427 .39898683 .30299378 .394989 .2889862 .3919983 .27598573L.34700013 .09599304C.34599305 .09199524 .34199525 .084991458 .33699037 .07598877 .33099366 .066986087 .32299806 .056991579 .31399537 .04798889 .3039856 .037994386 .2919922 .0289917 .2789917 .021987915 .2659912 .01499939 .25099183 .010986328 .23399353 .010986328 .22099304 .010986328 .21099854 .01399231 .20298767 .018997193 .19499207 .023986817 .18899536 .02999878 .18399048 .037994386 .1789856 .04499817 .17599488 .053985597 .1749878 .06399536 .17298889 .07299805 .17199707 .08299255 .17199707 .09199524 .17199707 .114990238 .17599488 .14299011 .18499756 .1749878 .19299317 .20599365 .20599365 .24398804 .22299195 .28799439 .22698975 .2979889 .22999573 .30699159 .23298645 .31399537 .23599243 .32099916 .23799134 .32699586 .23899842 .33198548 .23999024 .33699037 .24099732 .34199525 .24198914 .34599305 .24299622 .34999085 .24299622 .35499574 .24299622 .3600006 .24299622 .3829956 .23599243 .4019928 .22099304 .41799928 .20599365 .43399049 .18598938 .44198609 .16099549 .44198609 .14498902 .44198609 .1309967 .43798829 .117996219 .43099977 .10499573 .42399598 .09399414 .4149933 .084991458 .4039917 .07499695 .3929901 .066986087 .38198854 .05999756 .36898805 .052993776 .35598756 .04699707 .34298707 .041992189 .33198548 .036987306 .32099916 .033996583 .31098939 .03199768 .30299378 .02999878 .2939911 .0289917 .2889862 .0289917 .28799439 .0289917 .2829895 .0309906 .27999879 .033996583 .2789917 .036987306 .27799989 .039993287 .27799989 .040985109 .27799989 .04598999 .27799989 .049987794 .2789917 .050994874 .2809906 .051986696 .2829895 .053985597 .28799439 .056991579 .29599 .069992069 .34298707 .085998538 .375 .10499573 .3929901 .12298584 .41099549 .14099121 .41999818 .1579895 .41999818 .1619873 .41999818 .16699219 .4189911 .17399597 .41600038 .17999268 .41299439 .18299866 .4039917 .18299866 .3880005 .18299866 .375 .18099976 .36299134 .1769867 .35099793 .17298889 .33799745 .16899109 .32699586 .1659851 .31799317 .1559906 .29100038 .14698792 .2679901 .13999939 .24699402 .1329956 .22599793 .1269989 .20799256 .12199402 .19099427 .116989139 .17399597 .11399841 .15899658 .11199951 .1459961 .10899353 .1329956 .10798645 .11999512 .10798645 .10798645 .10798645 .085998538 .11199951 .066986087 .11898804 .051986696 .12599182 .036987306 .13598633 .023986817 .14698792 .01499939 .1579895 .005996704 .17098999-.0010070801 .18598938-.005004883 .20098877-.009002686 .21499634-.011001587 .22999573-.011001587 .24899292-.011001587 .2679901-.007003784 .2849884 .0009918213 .3019867 .008987427 .31698609 .019989014 .33099366 .033996583 .32398988 .0079956059 .31698609-.018005372 .30899049-.043014528 .2999878-.06800842 .28599549-.09300232 .2659912-.120010379 .25299073-.13700867 .23699951-.15200806 .21899414-.16500855 .19999695-.17700196 .1789856-.18301392 .1559906-.18301392 .15299988-.18301392 .147995-.18301392 .14099121-.18200684 .13398743-.18101502 .12599182-.18000794 .11898804-.17700196 .11199951-.17401123 .10398865-.16900635 .09700012-.16400147 .08999634-.15901184 .083999637-.15100098 .07998657-.14100647 .08799744-.14100647 .09498596-.14100647 .101989749-.14001465 .10899353-.13900757 .115997318-.13500977 .12298584-.12901306 .12799073-.12400818 .1329956-.119003299 .13699341-.11201477 .14099121-.10501099 .14299011-.09701538 .14299011-.088012699 .14299011-.08000183 .14199829-.07400513 .13899231-.070007327 .13598633-.06500244 .13198853-.06201172 .12799073-.059005739 .12399292-.056015016 .11999512-.055007936 .115997318-.054000856 .11199951-.053009035 .10899353-.053009035 .10598755-.053009035 .099990848-.053009035 .09399414-.054000856 .08799744-.057006837 .08099365-.059005739 .07499695-.06300354 .069992069-.06800842 .06399536-.073013309 .05899048-.07901001 .055999757-.088012699 .051986696-.0960083 .049987794-.10600281 .049987794-.118011478 .049987794-.14300537 .05999756-.16400147 .07998657-.18101502 .09899902-.19700623 .125-.20500183 .1559906-.20500183 .18199158-.20500183 .20799256-.2000122 .23298645-.18901062 .2579956-.17800904 .2809906-.16400147 .3019867-.14601135 .32299806-.12701416 .34098817-.10600281 .35598756-.08100891 .37098695-.056015016 .3829956-.029006958 .3899994-.0010070801L.48599244 .3809967Z" />

<path id="font_4_3" d="M.37399293 .60598757C.37599183 .61499026 .37799073 .621994 .3809967 .6279907 .3829956 .6339874 .3869934 .6389923 .3929901 .6429901 .39898683 .6459961 .4079895 .6489868 .4189911 .6499939 .42999269 .651001 .44499208 .6519928 .46499635 .6519928 .47698976 .6519928 .4850006 .6529999 .48999024 .6549988 .49499513 .6559906 .49699403 .6619873 .49699403 .67099 .49699403 .6769867 .49499513 .68099978 .4909973 .6819916 .4869995 .68299868 .48399354 .68299868 .48199464 .68299868 .47499085 .68299868 .46499635 .68299868 .45298768 .68299868 .44099427 .6819916 .42900086 .6819916 .41600038 .6819916 .40299989 .68099978 .3909912 .68099978 .3789978 .68099978 .36698915 .6799927 .35699464 .6799927 .34999085 .6799927 .34298707 .6799927 .33299256 .6799927 .32099916 .68099978 .30899049 .68099978 .29699708 .68099978 .28399659 .6819916 .2709961 .6819916 .2579956 .6819916 .24598694 .68299868 .23399353 .68299868 .22399903 .68299868 .21699524 .68299868 .21398926 .68299868 .20999146 .6819916 .20498657 .68099978 .19999695 .67900088 .19699097 .6729889 .19699097 .6629944 .19699097 .6579895 .19898987 .6549988 .20399475 .6539917 .20899964 .6529999 .21598816 .6519928 .22499085 .6519928 .24598694 .6519928 .2630005 .651001 .27598573 .6499939 .28799439 .647995 .2939911 .6419983 .2939911 .6329956 .2939911 .6299896 .2939911 .6279907 .2939911 .6259918 .2939911 .625 .29299928 .621994 .2919922 .61698916L.15699768 .07798767C.15499878 .068984989 .15299988 .06098938 .15098572 .054992677 .147995 .04899597 .14399719 .04399109 .13798523 .040985109 .13198853 .036987306 .12399292 .033996583 .11299133 .032989503 .101989749 .03199768 .085998538 .0309906 .06599426 .0309906 .054992677 .0309906 .04699707 .02999878 .041992189 .0289917 .036987306 .026992798 .033996583 .020996094 .033996583 .010986328 .033996583 .005996704 .035995485 .0029907227 .040985109 .0019989014 .04499817 .0009918213 .04798889 0 .04899597 0 .055999757 0 .06599426 0 .07798767 .0009918213 .08898926 .0009918213 .101989749 .0009918213 .114990238 .0019989014 .12799073 .0019989014 .13999939 .0019989014 .1519928 .0029907227 .16299439 .0029907227 .17298889 .0029907227 .17999268 .0029907227 .18699646 .0029907227 .19699097 .0029907227 .20899964 .0029907227 .22099304 .0019989014 .23399353 .0019989014 .24699402 .0019989014 .2599945 .0009918213 .27198792 .0009918213 .2849884 .0009918213 .29699708 0 .30699159 0 .31399537 0 .31799317 0 .32199098 .0009918213 .32699586 .0029907227 .33198548 .0039978029 .33399964 .009994507 .33399964 .018997193 .33399964 .024993897 .33198548 .0289917 .32798768 .02999878 .32299806 .0309906 .31498719 .0309906 .3039856 .0309906 .29499818 .0309906 .28799439 .0309906 .2829895 .0309906 .27799989 .0309906 .2709961 .03199768 .26098634 .032989503 .25 .033996583 .24398804 .035995485 .24099732 .038986207 .23799134 .040985109 .23599243 .04499817 .23599243 .049987794 .23599243 .053985597 .23599243 .057998659 .23699951 .06199646 .23799134 .06599426 .23899842 .069992069 .23999024 .07299805L.37399293 .60598757Z" />

<path id="font_4_4" d="M.33399964 .3019867C.33499146 .30899049 .33799745 .31900025 .34199525 .33198548 .34599305 .34498597 .35198976 .35798646 .3600006 .37098695 .36698915 .38398744 .3769989 .394989 .3889923 .40499879 .40098573 .4149933 .41600038 .41999818 .43299867 .41999818 .43598939 .41999818 .44198609 .41999818 .45199586 .4189911 .46199037 .41799928 .47200013 .4139862 .48298646 .40699769 .46899415 .4039917 .45799256 .397995 .44898988 .3869934 .43998719 .37599183 .43499757 .36499024 .43499757 .35299684 .43499757 .34498597 .43798829 .33699037 .44400025 .32998658 .44999696 .32199098 .45999146 .31799317 .47299195 .31799317 .47799684 .31799317 .48399354 .31900025 .4909973 .32199098 .49699403 .32398988 .5029907 .32699586 .5079956 .33198548 .5130005 .33699037 .5179901 .34298707 .5219879 .34999085 .5249939 .35699464 .5269928 .3659973 .5269928 .37599183 .5269928 .3889923 .5239868 .39898683 .5169983 .4079895 .5099945 .4169922 .5019989 .42399598 .49299623 .42900086 .48399354 .43399049 .47399903 .43699647 .46299745 .43899537 .45199586 .44099427 .44299317 .44198609 .43399049 .44198609 .4189911 .44198609 .4059906 .43899537 .394989 .43399049 .3829956 .42799378 .37298585 .42099 .3639984 .41299439 .35499574 .40499879 .34799195 .39698792 .34199525 .3880005 .33599855 .3789978 .33198548 .37199403 .32899476 .3659973 .32299806 .3829956 .31498719 .3959961 .30599977 .4059906 .29699708 .41600038 .2869873 .42399598 .2769928 .42900086 .2659912 .43399049 .2559967 .43798829 .24699402 .43998719 .23699951 .44099427 .22799683 .44198609 .22099304 .44198609 .19499207 .44198609 .17199707 .43499757 .1519928 .42199708 .13198853 .4079895 .114990238 .3919983 .101989749 .375 .08799744 .35699464 .07798767 .33999635 .070999149 .32299806 .06399536 .30599977 .05999756 .2939911 .05999756 .28799439 .05999756 .2829895 .06199646 .27999879 .06498718 .2789917 .067993167 .27799989 .070999149 .27799989 .07199097 .27799989 .07899475 .27799989 .083999637 .28199769 .084991458 .2889862 .09399414 .31599427 .10398865 .33799745 .115997318 .35499574 .1269989 .37199403 .13899231 .3849945 .1519928 .394989 .16499329 .4039917 .1769867 .41099549 .18899536 .4149933 .19999695 .41799928 .20999146 .41999818 .21899414 .41999818 .22399903 .41999818 .22898865 .4189911 .23599243 .41799928 .24198914 .41600038 .24798584 .41299439 .25299073 .4079895 .2579956 .40299989 .2630005 .39698792 .2669983 .3880005 .2709961 .3789978 .272995 .36799623 .272995 .35299684 .272995 .33799745 .2689972 .31199647 .2599945 .2749939 .25099183 .23799134 .23799134 .18499756 .21899414 .114990238 .21099854 .083999637 .19898987 .05899048 .18199158 .039993287 .16499329 .020996094 .1459961 .010986328 .12399292 .010986328 .12098694 .010986328 .11399841 .011993408 .10499573 .0129852299 .09498596 .01399231 .084991458 .016998291 .07398987 .023986817 .08699036 .026992798 .09799194 .032989503 .10699463 .042999269 .115997318 .051986696 .12098694 .06399536 .12098694 .07798767 .12098694 .09098816 .116989139 .100997928 .10798645 .10598755 .09899902 .11099243 .09098816 .11299133 .083999637 .11299133 .068984989 .11299133 .055999757 .10699463 .04499817 .09599304 .033996583 .084991458 .0289917 .070999149 .0289917 .054992677 .0289917 .04399109 .03199768 .033996583 .037994386 .025985718 .042999269 .016998291 .050994874 .009994507 .05999756 .004989624 .068984989 0 .07899475-.0040130617 .08999634-.007003784 .100997928-.010009766 .11199951-.011001587 .12298584-.011001587 .13999939-.011001587 .1539917-.007003784 .16699219 0 .17999268 .0069885256 .18998719 .015991211 .19898987 .024993897 .20799256 .033996583 .21499634 .041992189 .21998596 .050994874 .22499085 .05899048 .22698975 .06399536 .22799683 .06498718 .23399353 .04598999 .24598694 .0289917 .2639923 .0129852299 .28199769-.0030059815 .30599977-.011001587 .33599855-.011001587 .3619995-.011001587 .3849945-.0040130617 .40499879 .009994507 .42399598 .022994996 .44099427 .038986207 .45498658 .056991579 .46798707 .07398987 .47898866 .09199524 .48599244 .10899353 .49299623 .12599182 .49598695 .13699341 .49598695 .14299011 .49598695 .147995 .49398805 .15098572 .4909973 .1519928 .48799134 .15299988 .4850006 .15299988 .48399354 .15299988 .47898866 .15299988 .47599793 .1519928 .47499085 .1499939 .47399903 .147995 .47200013 .14498902 .47099305 .14199829 .46299745 .114990238 .45298768 .09399414 .44099427 .07699585 .42900086 .05999756 .4169922 .04598999 .4039917 .036987306 .3909912 .026992798 .3789978 .019989014 .36799623 .016998291 .35598756 .0129852299 .34599305 .010986328 .33799745 .010986328 .31900025 .010986328 .30499269 .017990113 .29599 .0309906 .2869873 .04399109 .2829895 .05999756 .2829895 .07699585 .2829895 .08799744 .2849884 .099990848 .28799439 .11299133 .29100038 .12599182 .29499818 .14299011 .2999878 .16499329L.33399964 .3019867Z" />

<path id="font_4_8" d="M.375 .6139984C.37799073 .6259918 .38198854 .6349945 .3849945 .6409912 .3880005 .6459961 .3939972 .6499939 .40299989 .651001 .4079895 .6519928 .41600038 .6519928 .42900086 .6519928 .44198609 .6519928 .45399476 .6519928 .46398927 .6519928 .48199464 .6519928 .5019989 .6519928 .522995 .651001 .5439911 .6499939 .5629883 .6459961 .58200076 .6399994 .59999087 .6329956 .61499026 .6230011 .6279907 .6100006 .6399994 .5970001 .6459961 .5779877 .6459961 .5529938 .6459961 .5439911 .644989 .5339966 .6429901 .5219879 .6409912 .5099945 .6380005 .49699403 .6329956 .48399354 .6279907 .47099305 .6230011 .45799256 .6159973 .44499208 .60899356 .43199159 .6009979 .42099 .59098818 .41099549 .5779877 .397995 .5569916 .3849945 .5299988 .37199403 .5029907 .35899354 .46699525 .35299684 .42199708 .35299684H.30999757L.375 .6139984M.5189972 .33999635C.5439911 .34498597 .56999209 .35398866 .59599307 .36499024 .621994 .37599183 .6459961 .3899994 .6669922 .40699769 .6879883 .42399598 .70599368 .44299317 .71899417 .46398927 .7319946 .4850006 .7389984 .5079956 .7389984 .5329895 .7389984 .55400088 .73399356 .57398989 .72299197 .59298709 .71199038 .61099246 .69699099 .6269989 .6779938 .6399994 .6579895 .6529999 .6349945 .6639862 .60798647 .6719971 .58099368 .67900088 .5509949 .68299868 .5179901 .68299868H.23298645C.22299195 .68299868 .21598816 .6819916 .21099854 .68099978 .20599365 .67900088 .20399475 .6729889 .20399475 .6629944 .20399475 .6579895 .20599365 .6549988 .21099854 .6539917 .21598816 .6529999 .22299195 .6519928 .23199463 .6519928 .23298645 .6519928 .23799134 .6519928 .24499512 .6519928 .25299073 .6519928 .26098634 .651001 .269989 .6499939 .2789917 .6489868 .28599549 .6469879 .29100038 .6459961 .29499818 .644989 .29699708 .6409912 .29699708 .6339874 .29699708 .6319885 .29699708 .6299896 .29599 .6279907 .29499818 .625 .2939911 .62098696 .29299928 .61499026L.15899658 .07798767C.1559906 .067993167 .1539917 .05999756 .1519928 .053985597 .14898682 .04798889 .14498902 .042999269 .13999939 .039993287 .13398743 .036987306 .12599182 .033996583 .114990238 .032989503 .10398865 .03199768 .08799744 .0309906 .067993167 .0309906 .05899048 .0309906 .051986696 .02999878 .04798889 .0289917 .042999269 .026992798 .040985109 .020996094 .040985109 .010986328 .040985109 .005996704 .042999269 .0029907227 .04699707 .0019989014 .050994874 .0009918213 .053985597 0 .054992677 0 .06199646 0 .070999149 0 .08299255 .0009918213 .09399414 .0009918213 .10598755 .0009918213 .117996219 .0019989014 .12998963 .0019989014 .14199829 .0019989014 .15299988 .0029907227 .1639862 .0029907227 .17399597 .0029907227 .18099976 .0029907227 .18798828 .0029907227 .19699097 .0029907227 .20899964 .0029907227 .21998596 .0019989014 .23199463 .0019989014 .24499512 .0019989014 .25698854 .0009918213 .2689972 .0009918213 .27999879 .0009918213 .29100038 0 .30099488 0 .30799867 0 .31199647 0 .31599427 .0009918213 .32099916 .0029907227 .32598878 .0039978029 .32798768 .009994507 .32798768 .019989014 .32798768 .024993897 .32598878 .0289917 .32099916 .02999878 .31599427 .0309906 .30899049 .0309906 .2999878 .0309906 .2809906 .0309906 .2659912 .03199768 .2539978 .032989503 .24099732 .033996583 .23498535 .039993287 .23498535 .04899597 .23498535 .051986696 .23498535 .054992677 .23599243 .057998659 .23699951 .05999756 .23699951 .06298828 .23799134 .06599426L.3039856 .33099366H.4229889C.44599916 .33099366 .46398927 .32798768 .47898866 .32199098 .49299623 .31498719 .5039978 .30799867 .5119934 .29899598 .519989 .2899933 .5249939 .27999879 .5279999 .2689972 .5309906 .2579956 .5319977 .24899292 .5319977 .23999024 .5319977 .23298645 .5309906 .22200012 .5279999 .20899964 .5249939 .19499207 .5209961 .18199158 .5179901 .17098999 .5149994 .15699768 .5109863 .14199829 .5079956 .12599182 .5039978 .10899353 .5019989 .09599304 .5019989 .085998538 .5019989 .05899048 .5079956 .037994386 .5209961 .023986817 .5339966 .008987427 .5479889-.0020141602 .56399539-.009002686 .57899478-.01600647 .59399417-.020004273 .60899356-.021011353 .6230011-.022003174 .6319885-.022003174 .6349945-.022003174 .6559906-.022003174 .6749878-.01701355 .6899872-.006011963 .7049866 .004989624 .71699526 .016998291 .72698977 .02999878 .73599246 .042999269 .7429962 .055999757 .7480011 .068984989 .7529907 .08198547 .7549896 .08999634 .7549896 .09298706 .7549896 .09899902 .7529907 .102996829 .75 .10398865 .74598696 .10499573 .74398806 .10499573 .7429962 .10499573 .73799136 .10499573 .7350006 .10398865 .73399356 .100997928 .73298647 .09799194 .73098757 .09399414 .7299957 .09098816 .723999 .07199097 .71699526 .056991579 .70899966 .04598999 .69999697 .033996583 .69200137 .024993897 .6839905 .017990113 .6749878 .010986328 .6669922 .0069885256 .6599884 .0039978029 .6519928 .0009918213 .644989 0 .6389923 0 .621994 0 .6119995 .004989624 .6069946 .015991211 .60198977 .026992798 .598999 .041992189 .598999 .06098938 .598999 .068984989 .598999 .07798767 .59999087 .08799744 .6009979 .09700012 .60198977 .10699463 .6029968 .117996219 .60398867 .12799073 .6049957 .13798523 .60598757 .147995 .6069946 .1579895 .60798647 .16699219 .60899356 .1749878 .6100006 .18199158 .61099246 .18998719 .6119995 .19898987 .61299136 .20698548 .61299136 .21499634 .61299136 .22200012 .61299136 .24099732 .60899356 .2579956 .60198977 .27198792 .59498599 .2849884 .58599856 .29699708 .57598879 .30599977 .56599429 .31498719 .55599978 .32299806 .54499819 .32798768 .5339966 .33299256 .526001 .33699037 .5189972 .33999635Z" />

<path id="font_4_9" d="M.16999817-.17001343C.16799927-.17700196 .16699219-.18101502 .1659851-.18301392 .16499329-.18501282 .16499329-.18701172 .16499329-.19000244 .16499329-.20100403 .16899109-.2090149 .17599488-.2130127 .18299866-.21600342 .18899536-.21800232 .19400025-.21800232 .19699097-.21800232 .20199585-.2170105 .21099854-.21400452 .21899414-.2110138 .22599793-.20300293 .23098755-.19200135 .23199463-.19000244 .23298645-.18600464 .23399353-.18000794 .23498535-.17401123 .23699951-.16400147 .23999024-.15100098 .24198914-.13800049 .24499512-.120010379 .25-.09701538 .2539978-.07400513 .25898744-.044006349 .2659912-.009002686 .2709961-.010009766 .2749939-.010009766 .27999879-.011001587 .28399659-.011001587 .2899933-.011001587 .29899598-.011001587 .33999635-.011001587 .37998963-.0020141602 .4189911 .015991211 .45799256 .033996583 .49198915 .057998659 .5219879 .08699036 .5509949 .115997318 .57499697 .1499939 .59298709 .18798828 .6100006 .22599793 .61898806 .2649994 .61898806 .3039856 .61898806 .32299806 .61698916 .34199525 .6119995 .35899354 .6069946 .37599183 .598999 .3899994 .58999636 .40299989 .58099368 .4149933 .56900027 .4249878 .5549927 .43199159 .5399933 .43899537 .5239868 .44198609 .5049896 .44198609 .46899415 .44198609 .43798829 .43099977 .41099549 .40899659 .38398744 .38598634 .36099244 .35699464 .34098817 .32099916 .31999208 .28399659 .3019867 .24299622 .28599549 .19599915 .269989 .14898682 .25498963 .101989749 .23999024 .052993776 .18598938 .06298828 .14498902 .08099365 .117996219 .10798645 .08999634 .13398743 .07598877 .16499329 .07598877 .20098877 .07598877 .20799256 .07798767 .21899414 .08099365 .23498535 .083999637 .25099183 .08799744 .2689972 .09498596 .2889862 .101989749 .30899049 .10998535 .32998658 .12098694 .35099793 .1309967 .37199403 .14399719 .3909912 .15899658 .4079895 .16299439 .41299439 .16499329 .41600038 .1659851 .4169922 .16699219 .41799928 .16699219 .41999818 .16699219 .42099 .16699219 .4229889 .1659851 .4249878 .16499329 .42799378 .1639862 .42999269 .1599884 .43099977 .15499878 .43099977 .147995 .43099977 .13798523 .4229889 .1269989 .40699769 .114990238 .3909912 .102996829 .37098695 .09199524 .34700013 .08099365 .32199098 .070999149 .29599 .06298828 .2679901 .053985597 .23999024 .049987794 .21398926 .049987794 .18998719 .049987794 .14299011 .06498718 .101989749 .09599304 .067993167 .1269989 .033996583 .16899109 .010986328 .22299195-.0020141602L.16999817-.17001343M.30799867 .04699707C.3039856 .04699707 .30099488 .04699707 .29899598 .04699707 .29699708 .04699707 .2939911 .04699707 .2899933 .04798889 .28399659 .04798889 .27999879 .04798889 .2789917 .04899597 .27799989 .049987794 .2769928 .050994874 .2769928 .051986696 .2769928 .052993776 .27799989 .057998659 .27999879 .067993167 .2809906 .07699585 .2829895 .08799744 .28599549 .100997928 .28799439 .11399841 .2899933 .12599182 .29299928 .13699341 .29499818 .147995 .29599 .1559906 .29699708 .1599884 .30499269 .19198609 .31599427 .22200012 .32899476 .24899292 .34199525 .27598573 .35699464 .2999878 .37399293 .31999208 .3909912 .33999635 .4099884 .35598756 .43099977 .36698915 .45199586 .37799073 .47299195 .38398744 .49499513 .38398744 .5119934 .38398744 .5269928 .3809967 .5389862 .375 .5509949 .36898805 .5609894 .36099244 .56900027 .35099793 .57598879 .34098817 .58200076 .32998658 .58599856 .31799317 .58898928 .30599977 .59098818 .2939911 .59098818 .28199769 .59098818 .2539978 .58399966 .22599793 .56900027 .19799805 .55400088 .16999817 .5329895 .14498902 .5079956 .12298584 .48199464 .099990848 .45199586 .08198547 .41799928 .067993167 .3829956 .053985597 .34700013 .04699707 .30799867 .04699707Z" />

<path id="font_6_1" d="M.33099366-.2400055C.33099366-.23901367 .32998658-.23701477 .32899476-.23500061 .32798768-.23200989 .32299806-.227005 .31399537-.21800232 .2829895-.18701172 .25698854-.15200806 .23699951-.11401367 .21598816-.07501221 .19999695-.036010744 .18899536 .005996704 .1769867 .04699707 .16899109 .08799744 .1639862 .12998963 .15899658 .17199707 .15699768 .21199036 .15699768 .25 .15699768 .29299928 .1599884 .33699037 .16499329 .37998963 .16999817 .4229889 .1789856 .46398927 .19198609 .5049896 .20399475 .54599 .21998596 .58399966 .24099732 .62098696 .2619934 .6579895 .2869873 .69200137 .31799317 .72299197 .32499696 .72898867 .32899476 .73298647 .32998658 .7350006 .33099366 .7369995 .33099366 .7389984 .33099366 .73999026 .33099366 .746994 .32798768 .75 .32099916 .75 .31799317 .75 .31098939 .74598696 .2999878 .73799136 .2889862 .72898867 .2749939 .71699526 .2599945 .69999697 .24499512 .68299868 .22799683 .6629944 .21099854 .6389923 .19299317 .61499026 .1769867 .58699038 .1619873 .5549927 .13699341 .5 .11999512 .44599916 .11199951 .3929901 .102996829 .33999635 .09899902 .2919922 .09899902 .25 .09899902 .23098755 .099990848 .20899964 .101989749 .18499756 .102996829 .1599884 .10699463 .1349945 .11199951 .10798645 .116989139 .08099365 .12298584 .052993776 .13198853 .023986817 .13999939-.006011963 .15098572-.03401184 .16499329-.06201172 .17999268-.09300232 .19599915-.120010379 .21299744-.14300537 .22999573-.16600037 .24699402-.18600464 .2619934-.20201111 .2769928-.21800232 .2899933-.23001099 .30099488-.23800659 .31199647-.2460022 .31799317-.25001527 .32099916-.25001527 .32798768-.25001527 .33099366-.24700928 .33099366-.2400055Z" />

<path id="font_6_2" d="M.2889862 .25C.2889862 .2689972 .28799439 .29100038 .2869873 .31599427 .2849884 .33999635 .28199769 .3659973 .2769928 .3929901 .27198792 .41999818 .2649994 .44799806 .25698854 .47698976 .24798584 .5059967 .23699951 .5339966 .22299195 .56199648 .20799256 .59298709 .19198609 .6199951 .1749878 .6429901 .1579895 .66600039 .14199829 .6859894 .1269989 .70199587 .11199951 .71798709 .09899902 .7299957 .08799744 .73799136 .07699585 .74598696 .069992069 .75 .066986087 .75 .05999756 .75 .056991579 .746994 .056991579 .73999026 .056991579 .7389984 .057998659 .7369995 .05999756 .7350006 .06098938 .7319946 .066986087 .7259979 .07598877 .71699526 .125 .6669922 .1639862 .6029968 .19099427 .5249939 .21798706 .44699098 .23098755 .35499574 .23098755 .25 .23098755 .20698548 .22898865 .16499329 .22399903 .12199402 .21899414 .07899475 .20999146 .036987306 .19699097-.0040130617 .18399048-.044006349 .16799927-.08300781 .14698792-.120010379 .12599182-.15701294 .100997928-.19200135 .069992069-.2230072 .06298828-.2290039 .05999756-.23300171 .05899048-.23500061 .057998659-.23701477 .056991579-.23901367 .056991579-.2400055 .056991579-.24700928 .05999756-.25001527 .066986087-.25001527 .069992069-.25001527 .07699585-.2460022 .08799744-.23800659 .09899902-.2290039 .11299133-.2170105 .12799073-.2000122 .14299011-.18301392 .1599884-.16300965 .17799378-.13900757 .19499207-.11500549 .21099854-.087005618 .22599793-.055007936 .25099183 0 .2679901 .054992677 .2769928 .10798645 .2849884 .16099549 .2889862 .20799256 .2889862 .25Z" />

<path id="font_4_2" d="M.20599365 .3999939H.2999878C.30999757 .3999939 .31799317 .40098573 .32299806 .40299989 .32798768 .4039917 .32998658 .4099884 .32998658 .41999818 .32998658 .4249878 .32798768 .42900086 .32299806 .42999269 .31799317 .43099977 .31098939 .43099977 .3019867 .43099977H.21398926C.22299195 .46598817 .22999573 .49499513 .23599243 .5159912 .24099732 .5369873 .24499512 .55400088 .24798584 .56599429 .25099183 .5779877 .25299073 .58599856 .2539978 .59098818 .25498963 .59498599 .25498963 .59799197 .25498963 .598999 .25498963 .60798647 .2519989 .6139984 .24699402 .61898806 .24198914 .6239929 .23498535 .6259918 .22599793 .6259918 .22499085 .6259918 .22299195 .6259918 .21998596 .6259918 .21699524 .625 .21299744 .6239929 .20899964 .621994 .20399475 .61898806 .19999695 .6159973 .19599915 .61099246 .19099427 .60598757 .18798828 .598999 .18598938 .58999636L.14698792 .43099977H.052993776C.042999269 .43099977 .035995485 .42999269 .0309906 .42900086 .025985718 .4269867 .022994996 .42099 .022994996 .4119873 .022994996 .4059906 .024993897 .40299989 .02999878 .4019928 .033996583 .40098573 .040985109 .3999939 .050994874 .3999939H.13899231C.1269989 .35299684 .116989139 .31199647 .10899353 .2789917 .099990848 .24598694 .09298706 .21798706 .08799744 .19499207 .08198547 .17199707 .07699585 .1539917 .07398987 .14099121 .070999149 .1269989 .067993167 .115997318 .066986087 .10899353 .06498718 .100997928 .06399536 .09498596 .06399536 .09098816 .06298828 .08699036 .06298828 .083999637 .06298828 .08099365 .06298828 .053985597 .07199097 .03199768 .08898926 .01499939 .10598755-.0030059815 .12799073-.011001587 .15499878-.011001587 .17999268-.011001587 .20298767-.0030059815 .22299195 .011993408 .24198914 .026992798 .25898744 .04399109 .272995 .06298828 .28599549 .08198547 .29699708 .09899902 .3039856 .115997318 .31098939 .13198853 .31399537 .14099121 .31399537 .14299011 .31399537 .147995 .31298829 .15098572 .30999757 .1519928 .30699159 .15299988 .3039856 .15299988 .3019867 .15299988 .29699708 .15299988 .2939911 .1519928 .29299928 .1499939 .2919922 .147995 .2899933 .14399719 .2869873 .13899231 .27598573 .11299133 .2649994 .09199524 .2539978 .07499695 .24198914 .057998659 .22999573 .04499817 .21899414 .035995485 .20698548 .026992798 .19599915 .019989014 .18598938 .016998291 .1749878 .0129852299 .1659851 .010986328 .15699768 .010986328 .1459961 .010986328 .13899231 .01499939 .13398743 .021987915 .1289978 .0289917 .12599182 .039993287 .12599182 .056991579 .12599182 .068984989 .1269989 .07798767 .12799073 .083999637 .1289978 .08898926 .12998963 .09599304 .13198853 .10499573L.20599365 .3999939Z" />

<path id="font_4_1" d="M.08799744 .05899048C.08699036 .051986696 .084991458 .042999269 .08299255 .033996583 .07998657 .024993897 .07899475 .018997193 .07899475 .015991211 .07899475 .0069885256 .08198547 0 .08799744-.005004883 .09399414-.009002686 .100997928-.011001587 .10798645-.011001587 .11399841-.011001587 .12098694-.009002686 .1289978-.005004883 .13598633 0 .14199829 .0069885256 .14498902 .016998291 .1459961 .017990113 .147995 .025985718 .1519928 .040985109 .15499878 .055999757 .15899658 .07199097 .1639862 .09098816 .16899109 .10899353 .17298889 .12599182 .1769867 .14299011 .18099976 .1599884 .18399048 .16999817 .18499756 .1749878 .18699646 .18299866 .18998719 .19299317 .19299317 .20498657 .19599915 .21699524 .19898987 .22898865 .20199585 .24198914 .20498657 .25498963 .20799256 .2669983 .21099854 .27799989 .21398926 .2889862 .21598816 .2979889 .21699524 .30499269 .21798706 .30799867 .21998596 .31399537 .22399903 .32099916 .22799683 .32798768 .23298645 .33499146 .23799134 .34298707 .24299622 .35099793 .24798584 .35899354 .25498963 .36698915 .26098634 .375 .2669983 .38198854 .272995 .3869934 .2749939 .3889923 .27799989 .3919983 .2829895 .3959961 .28799439 .39898683 .29299928 .40299989 .2999878 .40699769 .30699159 .4099884 .31498719 .41299439 .32398988 .41600038 .33299256 .4189911 .34199525 .41999818 .35299684 .41999818 .3659973 .41999818 .3769989 .41799928 .38398744 .4139862 .3909912 .4099884 .3939972 .4079895 .394989 .4079895 .37998963 .40499879 .36698915 .39898683 .35798646 .3889923 .34799195 .37799073 .34298707 .3659973 .34298707 .35299684 .34298707 .34498597 .34599305 .33699037 .35198976 .32998658 .35798646 .32199098 .36799623 .31799317 .3809967 .31799317 .3939972 .31799317 .40699769 .32299806 .4189911 .33399964 .42999269 .34498597 .43598939 .35899354 .43598939 .3769989 .43598939 .3939972 .42900086 .4099884 .4139862 .4229889 .39898683 .43598939 .37799073 .44198609 .35299684 .44198609 .33699037 .44198609 .32199098 .43899537 .30899049 .43399049 .29499818 .42900086 .2829895 .42199708 .27198792 .4139862 .26098634 .4059906 .2519989 .397995 .24398804 .3889923 .23599243 .37998963 .22999573 .37199403 .22499085 .36499024 .22099304 .3880005 .21099854 .4059906 .19400025 .42099 .1769867 .43499757 .15699768 .44198609 .13398743 .44198609 .12298584 .44198609 .11299133 .43998719 .10499573 .43598939 .09599304 .43099977 .08898926 .42599488 .08299255 .41999818 .07699585 .4139862 .07199097 .4079895 .068984989 .4019928 .06498718 .394989 .06199646 .3899994 .05999756 .3849945 .054992677 .37599183 .050994874 .36698915 .04798889 .35598756 .04399109 .34498597 .040985109 .33499146 .037994386 .32499696 .034988405 .31498719 .032989503 .30699159 .03199768 .2999878 .02999878 .29299928 .0289917 .2889862 .0289917 .28799439 .0289917 .2829895 .0309906 .27999879 .033996583 .2789917 .036987306 .27799989 .039993287 .27799989 .040985109 .27799989 .04598999 .27799989 .049987794 .2789917 .050994874 .2809906 .051986696 .2829895 .054992677 .2899933 .057998659 .30099488 .066986087 .33699037 .07699585 .3659973 .08799744 .3880005 .09899902 .40899659 .11299133 .41999818 .1309967 .41999818 .13999939 .41999818 .14698792 .4169922 .15299988 .4119873 .15899658 .4059906 .1619873 .3929901 .1619873 .37399293 .1619873 .36898805 .1619873 .3639984 .1619873 .3600006 .16099549 .35499574 .1599884 .34999085 .15899658 .34399415 .1579895 .33799745 .1559906 .33099366 .1539917 .32199098 .1519928 .31298829 .14898682 .30299378 .1459961 .2899933L.08799744 .05899048Z" />

</defs>
<g clip-path="url(#clip_2)">
<g clip-path="url(#clip_3)">
<path transform="matrix(.1,0,0,-.1,366.803,333.143)" stroke-width="5.04" stroke-linecap="butt" stroke-miterlimit="10" stroke-linejoin="miter" fill="none" stroke="#231f20" d="M1082.71 199.266 640.223 641.75" />
<path transform="matrix(.1,0,0,-.1,366.803,333.143)" stroke-width="5.04" stroke-linecap="butt" stroke-miterlimit="10" stroke-linejoin="miter" fill="none" stroke="#231f20" d="M1105.62 222.176 663.133 664.66" />
<path transform="matrix(.1,0,0,-.1,366.803,333.143)" stroke-width="5.04" stroke-linecap="butt" stroke-miterlimit="10" stroke-linejoin="miter" fill="none" stroke="#231f20" d="M1128.53 245.086 686.043 687.57" />
<path transform="matrix(.1,0,0,-.1,366.803,333.143)" stroke-width="5.04" stroke-linecap="butt" stroke-miterlimit="10" stroke-linejoin="miter" fill="none" stroke="#231f20" d="M1151.44 267.996 708.953 710.48" />
<path transform="matrix(.1,0,0,-.1,366.803,333.143)" stroke-width="5.04" stroke-linecap="butt" stroke-miterlimit="10" stroke-linejoin="miter" fill="none" stroke="#231f20" d="M1174.35 290.906 731.863 733.391" />
<path transform="matrix(.1,0,0,-.1,366.803,333.143)" stroke-width="5.04" stroke-linecap="butt" stroke-miterlimit="10" stroke-linejoin="miter" fill="none" stroke="#231f20" d="M1197.26 313.816 754.777 756.301" />
<path transform="matrix(.1,0,0,-.1,366.803,333.143)" stroke-width="5.04" stroke-linecap="butt" stroke-miterlimit="10" stroke-linejoin="miter" fill="none" stroke="#231f20" d="M1220.17 336.727 777.688 779.211" />
<path transform="matrix(.1,0,0,-.1,366.803,333.143)" stroke-width="5.04" stroke-linecap="butt" stroke-miterlimit="10" stroke-linejoin="miter" fill="none" stroke="#231f20" d="M1243.08 359.637 800.598 802.121" />
<path transform="matrix(.1,0,0,-.1,366.803,333.143)" stroke-width="5.04" stroke-linecap="butt" stroke-miterlimit="10" stroke-linejoin="miter" fill="none" stroke="#231f20" d="M1265.99 382.547 823.508 825.031" />
<path transform="matrix(.1,0,0,-.1,366.803,333.143)" stroke-width="5.04" stroke-linecap="butt" stroke-miterlimit="10" stroke-linejoin="miter" fill="none" stroke="#231f20" d="M1288.9 405.457 846.418 847.941" />
<path transform="matrix(.1,0,0,-.1,366.803,333.143)" stroke-width="5.04" stroke-linecap="butt" stroke-miterlimit="10" stroke-linejoin="miter" fill="none" stroke="#231f20" d="M1311.81 428.367 869.328 870.852" />
<path transform="matrix(.1,0,0,-.1,366.803,333.143)" stroke-width="5.04" stroke-linecap="butt" stroke-miterlimit="10" stroke-linejoin="miter" fill="none" stroke="#231f20" d="M1334.72 451.277 892.238 893.762" />
<path transform="matrix(.1,0,0,-.1,366.803,333.143)" stroke-width="5.04" stroke-linecap="butt" stroke-miterlimit="10" stroke-linejoin="miter" fill="none" stroke="#231f20" d="M1357.63 474.188 915.148 916.672" />
<path transform="matrix(.1,0,0,-.1,366.803,333.143)" stroke-width="5.04" stroke-linecap="butt" stroke-miterlimit="10" stroke-linejoin="miter" fill="none" stroke="#231f20" d="M1380.54 497.098 938.059 939.582" />
<path transform="matrix(.1,0,0,-.1,366.803,333.143)" stroke-width="5.04" stroke-linecap="butt" stroke-miterlimit="10" stroke-linejoin="miter" fill="none" stroke="#231f20" d="M1403.45 520.008 960.969 962.492" />
<path transform="matrix(.1,0,0,-.1,366.803,333.143)" stroke-width="5.04" stroke-linecap="butt" stroke-miterlimit="10" stroke-linejoin="miter" fill="none" stroke="#231f20" d="M1426.36 542.918 983.879 985.402" />
<path transform="matrix(.1,0,0,-.1,366.803,333.143)" stroke-width="5.04" stroke-linecap="butt" stroke-miterlimit="10" stroke-linejoin="miter" fill="none" stroke="#231f20" d="M1449.27 565.828 1006.79 1008.31" />
<path transform="matrix(.1,0,0,-.1,366.803,333.143)" stroke-width="5.04" stroke-linecap="butt" stroke-miterlimit="10" stroke-linejoin="miter" fill="none" stroke="#231f20" d="M1472.18 588.738 1029.7 1031.22" />
<path transform="matrix(.1,0,0,-.1,366.803,333.143)" stroke-width="5.04" stroke-linecap="butt" stroke-miterlimit="10" stroke-linejoin="miter" fill="none" stroke="#231f20" d="M1495.09 611.648 1052.61 1054.14" />
<path transform="matrix(.1,0,0,-.1,366.803,333.143)" stroke-width="5.04" stroke-linecap="butt" stroke-miterlimit="10" stroke-linejoin="miter" fill="none" stroke="#231f20" d="M1518 634.559 1075.52 1077.05" />
</g>
<path transform="matrix(.1,0,0,-.1,366.803,333.143)" d="M963.285 1113.11C970.039 1113.11 975.516 1107.64 975.516 1100.88 975.516 1094.13 970.039 1088.65 963.285 1088.65 956.531 1088.65 951.059 1094.13 951.059 1100.88 951.059 1107.64 956.531 1113.11 963.285 1113.11" fill="#231f20" fill-rule="evenodd" />
<path transform="matrix(.1,0,0,-.1,366.803,333.143)" stroke-width="5.6693" stroke-linecap="butt" stroke-miterlimit="22.9256" stroke-linejoin="miter" fill="none" stroke="#231f20" d="M963.285 1113.11C970.039 1113.11 975.516 1107.64 975.516 1100.88 975.516 1094.13 970.039 1088.65 963.285 1088.65 956.531 1088.65 951.059 1094.13 951.059 1100.88 951.059 1107.64 956.531 1113.11 963.285 1113.11Z" />
<path transform="matrix(.1,0,0,-.1,366.803,333.143)" d="M749.906 667.277C756.664 667.277 762.141 661.805 762.141 655.051 762.141 648.293 756.664 642.82 749.906 642.82 743.152 642.82 737.676 648.293 737.676 655.051 737.676 661.805 743.152 667.277 749.906 667.277" fill="#231f20" fill-rule="evenodd" />
<path transform="matrix(.1,0,0,-.1,366.803,333.143)" stroke-width="5.6693" stroke-linecap="butt" stroke-miterlimit="22.9256" stroke-linejoin="miter" fill="none" stroke="#231f20" d="M749.906 667.277C756.664 667.277 762.141 661.805 762.141 655.051 762.141 648.293 756.664 642.82 749.906 642.82 743.152 642.82 737.676 648.293 737.676 655.051 737.676 661.805 743.152 667.277 749.906 667.277Z" />
<path transform="matrix(.1,0,0,-.1,366.803,333.143)" stroke-width="11.3386" stroke-linecap="butt" stroke-miterlimit="22.9256" stroke-linejoin="miter" fill="none" stroke="#231f20" d="M751.477 1290.27C1106.01 1290.27 1393.42 1002.86 1393.42 648.324 1393.42 293.785 1106.01 6.37891 751.477 6.37891 396.941 6.37891 109.535 293.785 109.535 648.324 109.535 1002.86 396.941 1290.27 751.477 1290.27Z" />
<path transform="matrix(.1,0,0,-.1,366.803,333.143)" stroke-width="5.6693" stroke-linecap="butt" stroke-miterlimit="22.9256" stroke-linejoin="miter" fill="none" stroke="#231f20" d="M749.652 1312.7V1409.7" />
<path transform="matrix(.1,0,0,-.1,366.803,333.143)" d="M749.652 1366.9C743.234 1366.9 736.82 1364.52 732.051 1360.28L749.652 1422.44 767.254 1360.28C762.488 1364.52 756.066 1366.9 749.652 1366.9" fill="#231f20" fill-rule="evenodd" />
<path transform="matrix(.1,0,0,-.1,366.803,333.143)" stroke-width="5.6693" stroke-linecap="butt" stroke-miterlimit="22.9256" stroke-linejoin="miter" fill="none" stroke="#231f20" d="M749.652 655.766V1265.07" />
<path transform="matrix(.1,0,0,-.1,366.803,333.143)" stroke-width="5.6693" stroke-linecap="butt" stroke-miterlimit="22.9256" stroke-linejoin="miter" fill="none" stroke="#231f20" d="M1419.98 655.766H1533.28" />
<path transform="matrix(.1,0,0,-.1,366.803,333.143)" d="M1490.47 655.766C1490.48 662.184 1488.09 668.598 1483.86 673.363L1546.02 655.766 1483.86 638.164C1488.09 642.93 1490.47 649.348 1490.47 655.766" fill="#231f20" fill-rule="evenodd" />
<path transform="matrix(.1,0,0,-.1,366.803,333.143)" stroke-width="11.3386" stroke-linecap="butt" stroke-miterlimit="22.9256" stroke-linejoin="miter" fill="none" stroke="#231f20" d="M749.652 655.766H1365.56" />
<path transform="matrix(.1,0,0,-.1,366.803,333.143)" stroke-width="5.6693" stroke-linecap="butt" stroke-miterlimit="22.9256" stroke-linejoin="miter" fill="none" stroke="#231f20" d="M750.523 654.023 949.406 1076.47" />
<path transform="matrix(.1,0,0,-.1,366.803,333.143)" d="M931.172 1037.74C925.367 1040.48 918.547 1041.05 912.43 1039.25L954.832 1087.99 944.277 1024.26C941.77 1030.12 936.977 1035.01 931.172 1037.74" fill="#231f20" fill-rule="evenodd" />
<path transform="matrix(.1,0,0,-.1,366.803,333.143)" stroke-width="5.6693" stroke-linecap="butt" stroke-miterlimit="22.9256" stroke-linejoin="miter" fill="none" stroke="#231f20" d="M161.395 900.414 18.7344 961.84" />
<path transform="matrix(.1,0,0,-.1,366.803,333.143)" d="M58.0469 944.914C55.5078 939.02 55.1602 932.184 57.168 926.129L7.03125 966.879 71.0859 958.461C65.3086 955.762 60.5859 950.805 58.0469 944.914" fill="#231f20" fill-rule="evenodd" />
<path transform="matrix(.1,0,0,-.1,366.803,333.143)" stroke-width="5.6693" stroke-linecap="butt" stroke-miterlimit="22.9256" stroke-linejoin="miter" fill="none" stroke="#231f20" d="M1019.77 1231.74 1079.43 1362.46" />
<path transform="matrix(.1,0,0,-.1,366.803,333.143)" d="M1061.65 1323.52C1055.82 1326.18 1048.99 1326.68 1042.89 1324.8L1084.71 1374.05 1074.92 1310.19C1072.34 1316.02 1067.49 1320.86 1061.65 1323.52" fill="#231f20" fill-rule="evenodd" />
<path transform="matrix(.1,0,0,-.1,366.803,333.143)" stroke-width="5.6693" stroke-linecap="butt" stroke-miterlimit="22.9256" stroke-linejoin="miter" fill="none" stroke="#231f20" d="M859.719 869.109C940.926 830.082 992.574 747.957 992.574 657.855 992.574 657.512 992.57 657.168 992.57 656.82" />
<path transform="matrix(.1,0,0,-.1,366.803,333.143)" d="M898.301 850.566C901.078 856.352 906.004 861.102 911.887 863.563L848.234 874.629 896.641 831.836C894.883 837.969 895.52 844.785 898.301 850.566" fill="#231f20" fill-rule="evenodd" />
<use data-text="O" xlink:href="#font_4_6" transform="matrix(11.9997,0,0,-11.9997,429.08003,272.5848)" fill="#231f20" />
<use data-text="P" xlink:href="#font_4_7" transform="matrix(11.9997,0,0,-11.9997,453.8788,222.72891)" fill="#231f20" />
<use data-text="e" xlink:href="#font_5_1" transform="matrix(11.9997,0,0,-11.9997,426.61793,196.909)" fill="#231f20" />
<use data-text="y" xlink:href="#font_4_5" transform="matrix(7.99952,0,0,-7.99952,432.94136,199.54885)" fill="#231f20" />
<use data-text="I" xlink:href="#font_4_3" transform="matrix(7.99952,0,0,-7.99952,433.26167,191.62932)" fill="#231f20" />
<use data-text="e" xlink:href="#font_5_1" transform="matrix(11.9997,0,0,-11.9997,514.16677,278.152)" fill="#231f20" />
<use data-text="x" xlink:href="#font_4_4" transform="matrix(7.99952,0,0,-7.99952,520.4902,280.79188)" fill="#231f20" />
<use data-text="I" xlink:href="#font_4_3" transform="matrix(7.99952,0,0,-7.99952,521.45858,272.8723)" fill="#231f20" />
<use data-text="e" xlink:href="#font_5_1" transform="matrix(11.9997,0,0,-11.9997,478.81056,202.28713)" fill="#231f20" />
<use data-text="x" xlink:href="#font_4_4" transform="matrix(7.99952,0,0,-7.99952,485.13398,204.92697)" fill="#231f20" />
<use data-text="R" xlink:href="#font_4_8" transform="matrix(7.99952,0,0,-7.99952,486.10237,197.00745)" fill="#231f20" />
<use data-text="e" xlink:href="#font_5_1" transform="matrix(11.9997,0,0,-11.9997,371.01734,233.59725)" fill="#231f20" />
<use data-text="y" xlink:href="#font_4_5" transform="matrix(7.99952,0,0,-7.99952,377.3412,236.23709)" fill="#231f20" />
<use data-text="R" xlink:href="#font_4_8" transform="matrix(7.99952,0,0,-7.99952,377.6611,228.31755)" fill="#231f20" />
<use data-text="'" xlink:href="#font_4_9" transform="matrix(11.9997,0,0,-11.9997,468.7384,258.59175)" fill="#231f20" />
<use data-text="(" xlink:href="#font_6_1" transform="matrix(11.9997,0,0,-11.9997,476.58647,258.59175)" fill="#231f20" />
<use data-text=")" xlink:href="#font_6_2" transform="matrix(11.9997,0,0,-11.9997,483.65403,258.59175)" fill="#231f20" />
<use data-text="t" xlink:href="#font_4_2" transform="matrix(11.9997,0,0,-11.9997,480.0423,258.59175)" fill="#231f20" />
<use data-text="r" xlink:href="#font_4_1" transform="matrix(11.9997,0,0,-11.9997,460.0681,238.39525)" fill="#231f20" />
<use data-text="t" xlink:href="#font_4_2" transform="matrix(11.9997,0,0,-11.9997,468.9357,238.39525)" fill="#231f20" />
<use data-text="(" xlink:href="#font_6_1" transform="matrix(11.9997,0,0,-11.9997,465.47984,238.39525)" fill="#231f20" />
<use data-text=")" xlink:href="#font_6_2" transform="matrix(11.9997,0,0,-11.9997,472.5478,238.39525)" fill="#231f20" />
</g>
<g clip-path="url(#clip_3)">
<path transform="matrix(.1,0,0,-.1,366.803,333.143)" stroke-width="5.04" stroke-linecap="butt" stroke-miterlimit="10" stroke-linejoin="miter" fill="none" stroke="#231f20" d="M1082.71 199.266 640.223 641.75" />
<path transform="matrix(.1,0,0,-.1,366.803,333.143)" stroke-width="5.04" stroke-linecap="butt" stroke-miterlimit="10" stroke-linejoin="miter" fill="none" stroke="#231f20" d="M1105.62 222.176 663.133 664.66" />
<path transform="matrix(.1,0,0,-.1,366.803,333.143)" stroke-width="5.04" stroke-linecap="butt" stroke-miterlimit="10" stroke-linejoin="miter" fill="none" stroke="#231f20" d="M1128.53 245.086 686.043 687.57" />
<path transform="matrix(.1,0,0,-.1,366.803,333.143)" stroke-width="5.04" stroke-linecap="butt" stroke-miterlimit="10" stroke-linejoin="miter" fill="none" stroke="#231f20" d="M1151.44 267.996 708.953 710.48" />
<path transform="matrix(.1,0,0,-.1,366.803,333.143)" stroke-width="5.04" stroke-linecap="butt" stroke-miterlimit="10" stroke-linejoin="miter" fill="none" stroke="#231f20" d="M1174.35 290.906 731.863 733.391" />
<path transform="matrix(.1,0,0,-.1,366.803,333.143)" stroke-width="5.04" stroke-linecap="butt" stroke-miterlimit="10" stroke-linejoin="miter" fill="none" stroke="#231f20" d="M1197.26 313.816 754.777 756.301" />
<path transform="matrix(.1,0,0,-.1,366.803,333.143)" stroke-width="5.04" stroke-linecap="butt" stroke-miterlimit="10" stroke-linejoin="miter" fill="none" stroke="#231f20" d="M1220.17 336.727 777.688 779.211" />
<path transform="matrix(.1,0,0,-.1,366.803,333.143)" stroke-width="5.04" stroke-linecap="butt" stroke-miterlimit="10" stroke-linejoin="miter" fill="none" stroke="#231f20" d="M1243.08 359.637 800.598 802.121" />
<path transform="matrix(.1,0,0,-.1,366.803,333.143)" stroke-width="5.04" stroke-linecap="butt" stroke-miterlimit="10" stroke-linejoin="miter" fill="none" stroke="#231f20" d="M1265.99 382.547 823.508 825.031" />
<path transform="matrix(.1,0,0,-.1,366.803,333.143)" stroke-width="5.04" stroke-linecap="butt" stroke-miterlimit="10" stroke-linejoin="miter" fill="none" stroke="#231f20" d="M1288.9 405.457 846.418 847.941" />
<path transform="matrix(.1,0,0,-.1,366.803,333.143)" stroke-width="5.04" stroke-linecap="butt" stroke-miterlimit="10" stroke-linejoin="miter" fill="none" stroke="#231f20" d="M1311.81 428.367 869.328 870.852" />
<path transform="matrix(.1,0,0,-.1,366.803,333.143)" stroke-width="5.04" stroke-linecap="butt" stroke-miterlimit="10" stroke-linejoin="miter" fill="none" stroke="#231f20" d="M1334.72 451.277 892.238 893.762" />
<path transform="matrix(.1,0,0,-.1,366.803,333.143)" stroke-width="5.04" stroke-linecap="butt" stroke-miterlimit="10" stroke-linejoin="miter" fill="none" stroke="#231f20" d="M1357.63 474.188 915.148 916.672" />
<path transform="matrix(.1,0,0,-.1,366.803,333.143)" stroke-width="5.04" stroke-linecap="butt" stroke-miterlimit="10" stroke-linejoin="miter" fill="none" stroke="#231f20" d="M1380.54 497.098 938.059 939.582" />
<path transform="matrix(.1,0,0,-.1,366.803,333.143)" stroke-width="5.04" stroke-linecap="butt" stroke-miterlimit="10" stroke-linejoin="miter" fill="none" stroke="#231f20" d="M1403.45 520.008 960.969 962.492" />
<path transform="matrix(.1,0,0,-.1,366.803,333.143)" stroke-width="5.04" stroke-linecap="butt" stroke-miterlimit="10" stroke-linejoin="miter" fill="none" stroke="#231f20" d="M1426.36 542.918 983.879 985.402" />
<path transform="matrix(.1,0,0,-.1,366.803,333.143)" stroke-width="5.04" stroke-linecap="butt" stroke-miterlimit="10" stroke-linejoin="miter" fill="none" stroke="#231f20" d="M1449.27 565.828 1006.79 1008.31" />
<path transform="matrix(.1,0,0,-.1,366.803,333.143)" stroke-width="5.04" stroke-linecap="butt" stroke-miterlimit="10" stroke-linejoin="miter" fill="none" stroke="#231f20" d="M1472.18 588.738 1029.7 1031.22" />
<path transform="matrix(.1,0,0,-.1,366.803,333.143)" stroke-width="5.04" stroke-linecap="butt" stroke-miterlimit="10" stroke-linejoin="miter" fill="none" stroke="#231f20" d="M1495.09 611.648 1052.61 1054.14" />
<path transform="matrix(.1,0,0,-.1,366.803,333.143)" stroke-width="5.04" stroke-linecap="butt" stroke-miterlimit="10" stroke-linejoin="miter" fill="none" stroke="#231f20" d="M1518 634.559 1075.52 1077.05" />
</g>

</svg>