<svg xmlns="http://www.w3.org/2000/svg" xmlns:xlink="http://www.w3.org/1999/xlink" version="1.1" width="415.000" height="166.000" viewBox="91.272 395.872 415.000 166.000">
<defs>
<clipPath id="clip_14">
<path transform="matrix(1,0,0,-1,101.272,551.872)" d="M0 0H395V146H0Z" />
</clipPath>

<path id="font_15_3" d="M.33399964 .3019867C.33499146 .30899049 .33799745 .31900025 .34199525 .33198548 .34599305 .34498597 .35198976 .35798646 .3600006 .37098695 .36698915 .38398744 .3769989 .394989 .3889923 .40499879 .40098573 .4149933 .41600038 .41999818 .43299867 .41999818 .43598939 .41999818 .44198609 .41999818 .45199586 .4189911 .46199037 .41799928 .47200013 .4139862 .48298646 .40699769 .46899415 .4039917 .45799256 .397995 .44898988 .3869934 .43998719 .37599183 .43499757 .36499024 .43499757 .35299684 .43499757 .34498597 .43798829 .33699037 .44400025 .32998658 .44999696 .32199098 .45999146 .31799317 .47299195 .31799317 .47799684 .31799317 .48399354 .31900025 .4909973 .32199098 .49699403 .32398988 .5029907 .32699586 .5079956 .33198548 .5130005 .33699037 .5179901 .34298707 .5219879 .34999085 .5249939 .35699464 .5269928 .3659973 .5269928 .37599183 .5269928 .3889923 .5239868 .39898683 .5169983 .4079895 .5099945 .4169922 .5019989 .42399598 .49299623 .42900086 .48399354 .43399049 .47399903 .43699647 .46299745 .43899537 .45199586 .44099427 .44299317 .44198609 .43399049 .44198609 .4189911 .44198609 .4059906 .43899537 .394989 .43399049 .3829956 .42799378 .37298585 .42099 .3639984 .41299439 .35499574 .40499879 .34799195 .39698792 .34199525 .3880005 .33599855 .3789978 .33198548 .37199403 .32899476 .3659973 .32299806 .3829956 .31498719 .3959961 .30599977 .4059906 .29699708 .41600038 .2869873 .42399598 .2769928 .42900086 .2659912 .43399049 .2559967 .43798829 .24699402 .43998719 .23699951 .44099427 .22799683 .44198609 .22099304 .44198609 .19499207 .44198609 .17199707 .43499757 .1519928 .42199708 .13198853 .4079895 .114990238 .3919983 .101989749 .375 .08799744 .35699464 .07798767 .33999635 .070999149 .32299806 .06399536 .30599977 .05999756 .2939911 .05999756 .28799439 .05999756 .2829895 .06199646 .27999879 .06498718 .2789917 .067993167 .27799989 .070999149 .27799989 .07199097 .27799989 .07899475 .27799989 .083999637 .28199769 .084991458 .2889862 .09399414 .31599427 .10398865 .33799745 .115997318 .35499574 .1269989 .37199403 .13899231 .3849945 .1519928 .394989 .16499329 .4039917 .1769867 .41099549 .18899536 .4149933 .19999695 .41799928 .20999146 .41999818 .21899414 .41999818 .22399903 .41999818 .22898865 .4189911 .23599243 .41799928 .24198914 .41600038 .24798584 .41299439 .25299073 .4079895 .2579956 .40299989 .2630005 .39698792 .2669983 .3880005 .2709961 .3789978 .272995 .36799623 .272995 .35299684 .272995 .33799745 .2689972 .31199647 .2599945 .2749939 .25099183 .23799134 .23799134 .18499756 .21899414 .114990238 .21099854 .083999637 .19898987 .05899048 .18199158 .039993287 .16499329 .020996094 .1459961 .010986328 .12399292 .010986328 .12098694 .010986328 .11399841 .011993408 .10499573 .0129852299 .09498596 .01399231 .084991458 .016998291 .07398987 .023986817 .08699036 .026992798 .09799194 .032989503 .10699463 .042999269 .115997318 .051986696 .12098694 .06399536 .12098694 .07798767 .12098694 .09098816 .116989139 .100997928 .10798645 .10598755 .09899902 .11099243 .09098816 .11299133 .083999637 .11299133 .068984989 .11299133 .055999757 .10699463 .04499817 .09599304 .033996583 .084991458 .0289917 .070999149 .0289917 .054992677 .0289917 .04399109 .03199768 .033996583 .037994386 .025985718 .042999269 .016998291 .050994874 .009994507 .05999756 .004989624 .068984989 0 .07899475-.0040130617 .08999634-.007003784 .100997928-.010009766 .11199951-.011001587 .12298584-.011001587 .13999939-.011001587 .1539917-.007003784 .16699219 0 .17999268 .0069885256 .18998719 .015991211 .19898987 .024993897 .20799256 .033996583 .21499634 .041992189 .21998596 .050994874 .22499085 .05899048 .22698975 .06399536 .22799683 .06498718 .23399353 .04598999 .24598694 .0289917 .2639923 .0129852299 .28199769-.0030059815 .30599977-.011001587 .33599855-.011001587 .3619995-.011001587 .3849945-.0040130617 .40499879 .009994507 .42399598 .022994996 .44099427 .038986207 .45498658 .056991579 .46798707 .07398987 .47898866 .09199524 .48599244 .10899353 .49299623 .12599182 .49598695 .13699341 .49598695 .14299011 .49598695 .147995 .49398805 .15098572 .4909973 .1519928 .48799134 .15299988 .4850006 .15299988 .48399354 .15299988 .47898866 .15299988 .47599793 .1519928 .47499085 .1499939 .47399903 .147995 .47200013 .14498902 .47099305 .14199829 .46299745 .114990238 .45298768 .09399414 .44099427 .07699585 .42900086 .05999756 .4169922 .04598999 .4039917 .036987306 .3909912 .026992798 .3789978 .019989014 .36799623 .016998291 .35598756 .0129852299 .34599305 .010986328 .33799745 .010986328 .31900025 .010986328 .30499269 .017990113 .29599 .0309906 .2869873 .04399109 .2829895 .05999756 .2829895 .07699585 .2829895 .08799744 .2849884 .099990848 .28799439 .11299133 .29100038 .12599182 .29499818 .14299011 .2999878 .16499329L.33399964 .3019867Z" />

<path id="font_16_9" d="M.45999146 .31999208C.45999146 .3600006 .45799256 .3999939 .45298768 .43899537 .44799806 .47799684 .43699647 .5169983 .41999818 .55400088 .40899659 .5779877 .394989 .5970001 .37998963 .6119995 .36499024 .6269989 .34899903 .6380005 .33399964 .6459961 .31799317 .6539917 .30299378 .6589966 .28799439 .6619873 .272995 .6649933 .26098634 .66600039 .25 .66600039 .23498535 .66600039 .21899414 .6639862 .20298767 .6609955 .18699646 .6569977 .17098999 .651001 .1559906 .6419983 .14099121 .6329956 .12599182 .6199951 .11199951 .6049957 .09799194 .58999636 .085998538 .56999209 .07598877 .5469971 .05999756 .5119934 .049987794 .47599793 .04598999 .43798829 .040985109 .39898683 .038986207 .3600006 .038986207 .31999208 .038986207 .30099488 .039993287 .28199769 .040985109 .2619934 .041992189 .24099732 .04399109 .22099304 .04699707 .19999695 .049987794 .1789856 .053985597 .15899658 .05999756 .13798523 .06599426 .116989139 .07398987 .09799194 .083999637 .07899475 .09498596 .05899048 .10699463 .041992189 .12098694 .0289917 .1349945 .015991211 .1499939 .004989624 .16499329-.0020141602 .17999268-.009002686 .19400025-.015014648 .20899964-.018005372 .22399903-.021011353 .23699951-.022003174 .24899292-.022003174 .2619934-.022003174 .2769928-.020004273 .29299928-.01701355 .30799867-.014007568 .32398988-.008010864 .33999635 .0009918213 .35499574 .008987427 .36999513 .020996094 .3849945 .035995485 .39898683 .050994874 .4119873 .069992069 .4229889 .09399414 .43899537 .1289978 .44898988 .16499329 .45399476 .20298767 .45799256 .24099732 .45999146 .27999879 .45999146 .31999208M.24899292 0C.23899842 0 .22799683 .0019989014 .21699524 .005996704 .20599365 .008987427 .19499207 .015991211 .18399048 .024993897 .17298889 .033996583 .16299439 .04598999 .1539917 .06199646 .14498902 .07699585 .13798523 .09700012 .1329956 .12098694 .12998963 .13598633 .12799073 .1519928 .1269989 .17098999 .125 .18899536 .12399292 .20799256 .12298584 .22698975 .12199402 .24598694 .12199402 .2639923 .12199402 .28199769 .12199402 .30099488 .12199402 .31698609 .12199402 .33198548 .12199402 .3639984 .12199402 .3959961 .12298584 .42799378 .12399292 .45899964 .12599182 .4889984 .12998963 .5159912 .1349945 .54599 .14199829 .56999209 .15299988 .58699038 .1639862 .60398867 .1749878 .6159973 .18699646 .625 .19898987 .6329956 .21099854 .6380005 .22299195 .6409912 .23399353 .6429901 .24299622 .6439972 .24899292 .6439972 .25698854 .6439972 .2669983 .6429901 .2789917 .6399994 .2899933 .6369934 .3019867 .6309967 .31298829 .6230011 .32398988 .6139984 .33499146 .60198977 .34498597 .58699038 .35499574 .57199099 .3619995 .5519867 .36698915 .5269928 .37199403 .49899293 .375 .46798707 .37599183 .43299867 .3769989 .397995 .3769989 .3639984 .3769989 .33198548 .3769989 .2939911 .3769989 .2579956 .37599183 .22399903 .375 .18998719 .37098695 .15699768 .3659973 .125 .3619995 .100997928 .35598756 .08099365 .34799195 .06498718 .33898927 .04899597 .32998658 .035995485 .31900025 .026992798 .30799867 .016998291 .29599 .009994507 .28399659 .005996704 .27198792 .0019989014 .2599945 0 .24899292 0Z" />

<path id="font_15_4" d="M.48599244 .3809967C.48799134 .3880005 .4889984 .3929901 .48999024 .3959961 .48999024 .397995 .48999024 .40098573 .48999024 .4039917 .48999024 .41299439 .4869995 .41999818 .48098756 .4249878 .47499085 .42900086 .46798707 .43099977 .46099855 .43099977 .45599366 .43099977 .44999696 .42900086 .44299317 .42599488 .43598939 .4229889 .43099977 .4169922 .42599488 .4099884 .4249878 .40699769 .4229889 .3999939 .41999818 .3880005 .4169922 .37599183 .4139862 .36499024 .4119873 .35598756 .40899659 .34298707 .40499879 .32899476 .4019928 .31599427 .39898683 .30299378 .394989 .2889862 .3919983 .27598573L.34700013 .09599304C.34599305 .09199524 .34199525 .084991458 .33699037 .07598877 .33099366 .066986087 .32299806 .056991579 .31399537 .04798889 .3039856 .037994386 .2919922 .0289917 .2789917 .021987915 .2659912 .01499939 .25099183 .010986328 .23399353 .010986328 .22099304 .010986328 .21099854 .01399231 .20298767 .018997193 .19499207 .023986817 .18899536 .02999878 .18399048 .037994386 .1789856 .04499817 .17599488 .053985597 .1749878 .06399536 .17298889 .07299805 .17199707 .08299255 .17199707 .09199524 .17199707 .114990238 .17599488 .14299011 .18499756 .1749878 .19299317 .20599365 .20599365 .24398804 .22299195 .28799439 .22698975 .2979889 .22999573 .30699159 .23298645 .31399537 .23599243 .32099916 .23799134 .32699586 .23899842 .33198548 .23999024 .33699037 .24099732 .34199525 .24198914 .34599305 .24299622 .34999085 .24299622 .35499574 .24299622 .3600006 .24299622 .3829956 .23599243 .4019928 .22099304 .41799928 .20599365 .43399049 .18598938 .44198609 .16099549 .44198609 .14498902 .44198609 .1309967 .43798829 .117996219 .43099977 .10499573 .42399598 .09399414 .4149933 .084991458 .4039917 .07499695 .3929901 .066986087 .38198854 .05999756 .36898805 .052993776 .35598756 .04699707 .34298707 .041992189 .33198548 .036987306 .32099916 .033996583 .31098939 .03199768 .30299378 .02999878 .2939911 .0289917 .2889862 .0289917 .28799439 .0289917 .2829895 .0309906 .27999879 .033996583 .2789917 .036987306 .27799989 .039993287 .27799989 .040985109 .27799989 .04598999 .27799989 .049987794 .2789917 .050994874 .2809906 .051986696 .2829895 .053985597 .28799439 .056991579 .29599 .069992069 .34298707 .085998538 .375 .10499573 .3929901 .12298584 .41099549 .14099121 .41999818 .1579895 .41999818 .1619873 .41999818 .16699219 .4189911 .17399597 .41600038 .17999268 .41299439 .18299866 .4039917 .18299866 .3880005 .18299866 .375 .18099976 .36299134 .1769867 .35099793 .17298889 .33799745 .16899109 .32699586 .1659851 .31799317 .1559906 .29100038 .14698792 .2679901 .13999939 .24699402 .1329956 .22599793 .1269989 .20799256 .12199402 .19099427 .116989139 .17399597 .11399841 .15899658 .11199951 .1459961 .10899353 .1329956 .10798645 .11999512 .10798645 .10798645 .10798645 .085998538 .11199951 .066986087 .11898804 .051986696 .12599182 .036987306 .13598633 .023986817 .14698792 .01499939 .1579895 .005996704 .17098999-.0010070801 .18598938-.005004883 .20098877-.009002686 .21499634-.011001587 .22999573-.011001587 .24899292-.011001587 .2679901-.007003784 .2849884 .0009918213 .3019867 .008987427 .31698609 .019989014 .33099366 .033996583 .32398988 .0079956059 .31698609-.018005372 .30899049-.043014528 .2999878-.06800842 .28599549-.09300232 .2659912-.120010379 .25299073-.13700867 .23699951-.15200806 .21899414-.16500855 .19999695-.17700196 .1789856-.18301392 .1559906-.18301392 .15299988-.18301392 .147995-.18301392 .14099121-.18200684 .13398743-.18101502 .12599182-.18000794 .11898804-.17700196 .11199951-.17401123 .10398865-.16900635 .09700012-.16400147 .08999634-.15901184 .083999637-.15100098 .07998657-.14100647 .08799744-.14100647 .09498596-.14100647 .101989749-.14001465 .10899353-.13900757 .115997318-.13500977 .12298584-.12901306 .12799073-.12400818 .1329956-.119003299 .13699341-.11201477 .14099121-.10501099 .14299011-.09701538 .14299011-.088012699 .14299011-.08000183 .14199829-.07400513 .13899231-.070007327 .13598633-.06500244 .13198853-.06201172 .12799073-.059005739 .12399292-.056015016 .11999512-.055007936 .115997318-.054000856 .11199951-.053009035 .10899353-.053009035 .10598755-.053009035 .099990848-.053009035 .09399414-.054000856 .08799744-.057006837 .08099365-.059005739 .07499695-.06300354 .069992069-.06800842 .06399536-.073013309 .05899048-.07901001 .055999757-.088012699 .051986696-.0960083 .049987794-.10600281 .049987794-.118011478 .049987794-.14300537 .05999756-.16400147 .07998657-.18101502 .09899902-.19700623 .125-.20500183 .1559906-.20500183 .18199158-.20500183 .20799256-.2000122 .23298645-.18901062 .2579956-.17800904 .2809906-.16400147 .3019867-.14601135 .32299806-.12701416 .34098817-.10600281 .35598756-.08100891 .37098695-.056015016 .3829956-.029006958 .3899994-.0010070801L.48599244 .3809967Z" />

<path id="font_16_10" d="M.2939911 .6399994C.2939911 .6519928 .29299928 .6589966 .29100038 .6619873 .2889862 .6649933 .28199769 .66600039 .2709961 .66600039 .2559967 .6499939 .23899842 .6380005 .22099304 .6289978 .20298767 .6199951 .18598938 .6139984 .16899109 .6100006 .1519928 .60598757 .13598633 .60398867 .12199402 .6029968 .10798645 .60198977 .09700012 .60198977 .08898926 .60198977V.57099917C.09399414 .57099917 .100997928 .57099917 .11099243 .57199099 .11999512 .57199099 .1309967 .57299807 .14299011 .57499697 .1539917 .57598879 .16699219 .57899478 .17999268 .58200076 .19299317 .58499148 .20698548 .58999636 .21998596 .5970001V.07899475C.21998596 .069992069 .21899414 .06199646 .21798706 .055999757 .21699524 .049987794 .21299744 .04499817 .20698548 .041992189 .20098877 .037994386 .19198609 .034988405 .17999268 .033996583 .16699219 .03199768 .1499939 .0309906 .1269989 .0309906H.09498596V0C.10398865 .0009918213 .114990238 .0009918213 .12998963 .0019989014 .14399719 .0019989014 .15899658 .0019989014 .17399597 .0029907227 .18899536 .0029907227 .20399475 .0029907227 .21899414 .0029907227 .23399353 .0029907227 .24699402 .0029907227 .25698854 .0029907227 .2669983 .0029907227 .2789917 .0029907227 .2939911 .0029907227 .30899049 .0029907227 .32499696 .0029907227 .33999635 .0029907227 .35499574 .0019989014 .36999513 .0019989014 .3849945 .0019989014 .39898683 .0009918213 .4099884 .0009918213 .4189911 0V.0309906H.3869934C.3639984 .0309906 .34700013 .03199768 .33499146 .033996583 .32199098 .034988405 .31298829 .037994386 .30699159 .041992189 .30099488 .04499817 .29699708 .049987794 .29599 .055999757 .29499818 .06199646 .2939911 .069992069 .2939911 .07899475V.6399994Z" />

<path id="font_16_6" d="M.37998963 .054992677V-.011001587L.5269928 0V.0309906C.5099945 .0309906 .49598695 .03199768 .48599244 .032989503 .47499085 .033996583 .46699525 .036987306 .46199037 .040985109 .45700074 .04499817 .45298768 .050994874 .45199586 .057998659 .44999696 .06498718 .44898988 .07499695 .44898988 .08699036V.69400027L.30499269 .68299868V.6519928C.32199098 .6519928 .33599855 .651001 .34700013 .6499939 .35699464 .6489868 .36499024 .6459961 .36999513 .6419983 .375 .6380005 .3789978 .6319885 .3809967 .625 .38198854 .6179962 .3829956 .60798647 .3829956 .59599307V.37998963C.36799623 .397995 .35099793 .41299439 .32998658 .4249878 .30899049 .43598939 .28399659 .44198609 .25698854 .44198609 .22799683 .44198609 .19999695 .43598939 .17298889 .4249878 .1459961 .41299439 .12199402 .39698792 .100997928 .3769989 .07998657 .35598756 .06399536 .33198548 .051986696 .30499269 .039993287 .2769928 .033996583 .24699402 .033996583 .21499634 .033996583 .18299866 .039993287 .15299988 .050994874 .12599182 .06199646 .09899902 .07798767 .07499695 .09700012 .054992677 .115997318 .033996583 .13899231 .017990113 .16499329 .0069885256 .18998719-.005004883 .21699524-.011001587 .24598694-.011001587 .27799989-.011001587 .30499269-.0040130617 .32798768 .009994507 .34999085 .023986817 .36698915 .038986207 .37998963 .054992677M.37998963 .32299806V.117996219C.37998963 .10899353 .37998963 .101989749 .3789978 .09899902 .37799073 .09599304 .37399293 .08999634 .36898805 .08099365 .35398866 .056991579 .33599855 .038986207 .31498719 .027999878 .2939911 .016998291 .27198792 .010986328 .25099183 .010986328 .22799683 .010986328 .20799256 .016998291 .19099427 .0289917 .17298889 .039993287 .1579895 .055999757 .1459961 .07499695 .1329956 .09599304 .125 .11898804 .12199402 .14498902 .11898804 .16999817 .116989139 .19299317 .116989139 .21398926 .116989139 .22299195 .116989139 .23399353 .117996219 .24598694 .11898804 .25698854 .11999512 .2689972 .12199402 .28199769 .12399292 .29499818 .1269989 .30699159 .1309967 .31999208 .1349945 .33299256 .14099121 .34498597 .147995 .35598756 .15899658 .37098695 .17298889 .38598634 .19198609 .3999939 .21099854 .41299439 .23399353 .41999818 .26098634 .41999818 .27799989 .41999818 .29699708 .41600038 .31698609 .40699769 .33599855 .397995 .35398866 .3829956 .36898805 .3600006 .37399293 .35099793 .37799073 .34498597 .3789978 .34199525 .37998963 .33898927 .37998963 .33198548 .37998963 .32299806Z" />

<path id="font_15_2" d="M.3909912 .37399293C.3769989 .37298585 .3659973 .36898805 .35699464 .3600006 .34799195 .35099793 .34298707 .33999635 .34298707 .32899476 .34298707 .32199098 .34498597 .31498719 .34999085 .30899049 .35499574 .30299378 .36299134 .2999878 .37399293 .2999878 .3849945 .2999878 .3959961 .30499269 .4059906 .31399537 .4149933 .32299806 .41999818 .33699037 .41999818 .35598756 .41999818 .3789978 .4099884 .39898683 .3889923 .41600038 .36799623 .43299867 .33898927 .44198609 .30099488 .44198609 .2679901 .44198609 .23999024 .43699647 .21899414 .42599488 .19699097 .4149933 .17999268 .40098573 .16699219 .38598634 .1539917 .36999513 .14498902 .35398866 .13999939 .33699037 .1349945 .31999208 .13198853 .30699159 .13198853 .29599 .13198853 .2769928 .13598633 .26098634 .14399719 .24899292 .1519928 .23599243 .1619873 .22698975 .17298889 .21998596 .18399048 .21299744 .19499207 .20698548 .20698548 .20399475 .21798706 .20098877 .22799683 .19799805 .23498535 .19699097 .24798584 .19400025 .2599945 .19198609 .272995 .18899536 .28599549 .18598938 .29699708 .18099976 .30699159 .17599488 .31599427 .17098999 .32398988 .1639862 .32998658 .15499878 .33599855 .1459961 .33898927 .1349945 .33898927 .12098694 .33898927 .11399841 .33699037 .10499573 .33399964 .09298706 .32998658 .07998657 .32299806 .067993167 .31298829 .055999757 .3019867 .04399109 .28799439 .033996583 .2689972 .024993897 .25 .015991211 .22599793 .010986328 .19599915 .010986328 .19299317 .010986328 .18598938 .010986328 .17599488 .011993408 .16499329 .0129852299 .1539917 .01499939 .14199829 .017990113 .12998963 .020996094 .11898804 .026992798 .10798645 .033996583 .09700012 .040985109 .08799744 .050994874 .08198547 .06399536 .100997928 .06098938 .116989139 .06599426 .12799073 .07798767 .13899231 .08999634 .14498902 .102996829 .14498902 .116989139 .14498902 .12799073 .14199829 .13699341 .1349945 .14299011 .12799073 .14898682 .11898804 .1519928 .10798645 .1519928 .09498596 .1519928 .08198547 .14698792 .069992069 .13598633 .057998659 .125 .051986696 .10899353 .051986696 .085998538 .051986696 .056991579 .06498718 .033996583 .09098816 .015991211 .116989139-.0020141602 .1519928-.011001587 .19499207-.011001587 .23599243-.011001587 .2689972-.005004883 .29499818 .008987427 .32099916 .021987915 .34199525 .036987306 .35699464 .054992677 .37199403 .07299805 .38198854 .09098816 .3880005 .10998535 .3929901 .1289978 .3959961 .14399719 .3959961 .15499878 .3959961 .17298889 .3919983 .18798828 .3849945 .20098877 .37799073 .21299744 .37098695 .22200012 .36499024 .22799683 .35198976 .24198914 .33699037 .25099183 .32199098 .2559967 .30599977 .26098634 .2869873 .2649994 .2649994 .269989 .2559967 .27198792 .24699402 .27398683 .23799134 .2769928 .22898865 .2789917 .22099304 .28199769 .21398926 .28599549 .20698548 .2899933 .20098877 .29599 .19599915 .30299378 .19099427 .30999757 .18899536 .31900025 .18899536 .32998658 .18899536 .33699037 .19099427 .34599305 .19400025 .35699464 .19699097 .36698915 .20298767 .3769989 .21199036 .38598634 .22099304 .394989 .23199463 .40299989 .24699402 .4099884 .26098634 .4169922 .2789917 .41999818 .30099488 .41999818 .30699159 .41999818 .31498719 .41999818 .32398988 .4189911 .33299256 .41799928 .34098817 .4149933 .34999085 .4119873 .35899354 .40899659 .36698915 .4039917 .37399293 .397995 .3809967 .3919983 .3869934 .38398744 .3909912 .37399293Z" />

<path id="font_15_5" d="M.3959961 .37998963C.3880005 .37998963 .3809967 .37998963 .37399293 .3789978 .36698915 .37799073 .35899354 .37298585 .35198976 .3659973 .34399415 .35899354 .33898927 .35099793 .33699037 .34399415 .33499146 .33599855 .33399964 .32998658 .33399964 .32699586 .33399964 .31498719 .33799745 .30599977 .34599305 .30099488 .35299684 .29499818 .3619995 .2919922 .37098695 .2919922 .38598634 .2919922 .39898683 .2979889 .4099884 .30899049 .42099 .31999208 .4269867 .33599855 .4269867 .35598756 .4269867 .3809967 .41600038 .40098573 .394989 .41799928 .37399293 .43399049 .34498597 .44198609 .30899049 .44198609 .2749939 .44198609 .24198914 .43399049 .20999146 .41799928 .17799378 .40098573 .1499939 .37998963 .125 .35299684 .099990848 .32598878 .07899475 .29599 .06399536 .2619934 .04899597 .22799683 .040985109 .19299317 .040985109 .1579895 .040985109 .1349945 .04499817 .11399841 .051986696 .09399414 .05899048 .07299805 .068984989 .054992677 .08299255 .039993287 .09700012 .023986817 .11399841 .011993408 .13398743 .0029907227 .1539917-.007003784 .1769867-.011001587 .20298767-.011001587 .23899842-.011001587 .2709961-.006011963 .29899598 .005996704 .32699586 .016998291 .35099793 .0289917 .36999513 .042999269 .3889923 .056991579 .4039917 .069992069 .4149933 .08299255 .4249878 .09599304 .42999269 .10398865 .42999269 .10699463 .42999269 .10998535 .42900086 .11299133 .4269867 .115997318 .42399598 .11898804 .42099 .11999512 .41799928 .11999512 .4149933 .11999512 .41299439 .11898804 .4119873 .117996219 .41099549 .116989139 .4079895 .11399841 .40499879 .10998535 .3849945 .084991458 .3639984 .06599426 .34199525 .052993776 .31999208 .039993287 .29899598 .02999878 .27999879 .023986817 .26098634 .016998291 .24398804 .01399231 .22999573 .0129852299 .21598816 .011993408 .20799256 .010986328 .20498657 .010986328 .17399597 .010986328 .15098572 .021987915 .13699341 .042999269 .12199402 .06399536 .114990238 .08999634 .114990238 .11999512 .114990238 .12998963 .115997318 .14299011 .11898804 .1599884 .12098694 .17599488 .12399292 .19299317 .1289978 .21199036 .13398743 .23098755 .13899231 .25 .1459961 .2689972 .15299988 .28799439 .1599884 .30499269 .16899109 .31999208 .18399048 .34899903 .20498657 .37298585 .22999573 .3919983 .25498963 .41099549 .28199769 .41999818 .30999757 .41999818 .32699586 .41999818 .34399415 .4169922 .36099244 .4099884 .3769989 .40299989 .3889923 .3929901 .3959961 .37998963Z" />

<path id="font_16_12" d="M.33099366-.2400055C.33099366-.23901367 .32998658-.23701477 .32899476-.23500061 .32798768-.23200989 .32299806-.227005 .31399537-.21800232 .2829895-.18701172 .25698854-.15200806 .23699951-.11401367 .21598816-.07501221 .19999695-.036010744 .18899536 .005996704 .1769867 .04699707 .16899109 .08799744 .1639862 .12998963 .15899658 .17199707 .15699768 .21199036 .15699768 .25 .15699768 .29299928 .1599884 .33699037 .16499329 .37998963 .16999817 .4229889 .1789856 .46398927 .19198609 .5049896 .20399475 .54599 .21998596 .58399966 .24099732 .62098696 .2619934 .6579895 .2869873 .69200137 .31799317 .72299197 .32499696 .72898867 .32899476 .73298647 .32998658 .7350006 .33099366 .7369995 .33099366 .7389984 .33099366 .73999026 .33099366 .746994 .32798768 .75 .32099916 .75 .31799317 .75 .31098939 .74598696 .2999878 .73799136 .2889862 .72898867 .2749939 .71699526 .2599945 .69999697 .24499512 .68299868 .22799683 .6629944 .21099854 .6389923 .19299317 .61499026 .1769867 .58699038 .1619873 .5549927 .13699341 .5 .11999512 .44599916 .11199951 .3929901 .102996829 .33999635 .09899902 .2919922 .09899902 .25 .09899902 .23098755 .099990848 .20899964 .101989749 .18499756 .102996829 .1599884 .10699463 .1349945 .11199951 .10798645 .116989139 .08099365 .12298584 .052993776 .13198853 .023986817 .13999939-.006011963 .15098572-.03401184 .16499329-.06201172 .17999268-.09300232 .19599915-.120010379 .21299744-.14300537 .22999573-.16600037 .24699402-.18600464 .2619934-.20201111 .2769928-.21800232 .2899933-.23001099 .30099488-.23800659 .31199647-.2460022 .31799317-.25001527 .32099916-.25001527 .32798768-.25001527 .33099366-.24700928 .33099366-.2400055Z" />

<path id="font_16_8" d="M.1789856 .015991211C.17999268 .015991211 .17999268 .01499939 .18099976 .01399231 .18099976 .0129852299 .18099976 .0079956059 .18099976 .0009918213 .18099976-.03100586 .1749878-.06201172 .1619873-.0920105 .14898682-.1210022 .1309967-.14801026 .10899353-.17100525 .10598755-.17401123 .10398865-.17700196 .102996829-.17800904 .101989749-.17900086 .101989749-.18000794 .101989749-.18200684 .101989749-.18901062 .10499573-.19300843 .11199951-.19300843 .114990238-.19300843 .12098694-.18800354 .1309967-.17900086 .14099121-.17001343 .15098572-.15701294 .1619873-.14001465 .17298889-.1230011 .18199158-.102005008 .19099427-.07800293 .19898987-.054000856 .20298767-.028015137 .20298767 .0009918213 .20298767 .032989503 .19699097 .05899048 .18598938 .07798767 .1749878 .09700012 .15899658 .10598755 .13899231 .10598755 .12199402 .10598755 .10899353 .100997928 .099990848 .08999634 .09098816 .07899475 .085998538 .06599426 .085998538 .052993776 .085998538 .039993287 .08999634 .027999878 .09899902 .016998291 .10798645 .005996704 .12098694 0 .13899231 0 .14698792 0 .1539917 .0009918213 .1599884 .0039978029 .1659851 .0069885256 .17199707 .009994507 .1769867 .01399231L.1789856 .015991211Z" />

<path id="font_16_7" d="M.2889862 .25C.2889862 .2689972 .28799439 .29100038 .2869873 .31599427 .2849884 .33999635 .28199769 .3659973 .2769928 .3929901 .27198792 .41999818 .2649994 .44799806 .25698854 .47698976 .24798584 .5059967 .23699951 .5339966 .22299195 .56199648 .20799256 .59298709 .19198609 .6199951 .1749878 .6429901 .1579895 .66600039 .14199829 .6859894 .1269989 .70199587 .11199951 .71798709 .09899902 .7299957 .08799744 .73799136 .07699585 .74598696 .069992069 .75 .066986087 .75 .05999756 .75 .056991579 .746994 .056991579 .73999026 .056991579 .7389984 .057998659 .7369995 .05999756 .7350006 .06098938 .7319946 .066986087 .7259979 .07598877 .71699526 .125 .6669922 .1639862 .6029968 .19099427 .5249939 .21798706 .44699098 .23098755 .35499574 .23098755 .25 .23098755 .20698548 .22898865 .16499329 .22399903 .12199402 .21899414 .07899475 .20999146 .036987306 .19699097-.0040130617 .18399048-.044006349 .16799927-.08300781 .14698792-.120010379 .12599182-.15701294 .100997928-.19200135 .069992069-.2230072 .06298828-.2290039 .05999756-.23300171 .05899048-.23500061 .057998659-.23701477 .056991579-.23901367 .056991579-.2400055 .056991579-.24700928 .05999756-.25001527 .066986087-.25001527 .069992069-.25001527 .07699585-.2460022 .08799744-.23800659 .09899902-.2290039 .11299133-.2170105 .12799073-.2000122 .14299011-.18301392 .1599884-.16300965 .17799378-.13900757 .19499207-.11500549 .21099854-.087005618 .22599793-.055007936 .25099183 0 .2679901 .054992677 .2769928 .10798645 .2849884 .16099549 .2889862 .20799256 .2889862 .25Z" />

<path id="font_15_1" d="M.08799744 .05899048C.08699036 .051986696 .084991458 .042999269 .08299255 .033996583 .07998657 .024993897 .07899475 .018997193 .07899475 .015991211 .07899475 .0069885256 .08198547 0 .08799744-.005004883 .09399414-.009002686 .100997928-.011001587 .10798645-.011001587 .11399841-.011001587 .12098694-.009002686 .1289978-.005004883 .13598633 0 .14199829 .0069885256 .14498902 .016998291 .14498902 .017990113 .1459961 .020996094 .147995 .025985718 .14898682 .0309906 .15098572 .037994386 .15299988 .04598999 .15499878 .052993776 .15699768 .06098938 .15899658 .069992069 .16099549 .07798767 .16299439 .084991458 .1639862 .09098816 .16699219 .10598755 .17098999 .12098694 .1749878 .13598633 .1789856 .15098572 .18299866 .1659851 .18598938 .18099976 .18899536 .19198609 .19198609 .20399475 .19499207 .21499634 .19799805 .22599793 .19999695 .23699951 .20298767 .24798584 .20498657 .25698854 .20799256 .2669983 .21099854 .27799989 .21398926 .2889862 .21499634 .29599 .21598816 .2979889 .21998596 .30599977 .22599793 .31698609 .23498535 .33099366 .24299622 .34399415 .2539978 .35798646 .2679901 .37098695 .2809906 .38398744 .29699708 .3959961 .31599427 .4059906 .33399964 .4149933 .35499574 .41999818 .3789978 .41999818 .3899994 .41999818 .3999939 .41799928 .40699769 .4139862 .4139862 .40899659 .4189911 .4039917 .4229889 .39698792 .4269867 .3899994 .42999269 .3829956 .43099977 .375 .43199159 .3659973 .43299867 .35798646 .43299867 .34999085 .43299867 .33499146 .42999269 .31599427 .4249878 .2939911 .41999818 .2709961 .4139862 .24899292 .40699769 .22698975 .3999939 .20399475 .3919983 .18299866 .3849945 .16299439 .37799073 .14299011 .37199403 .12799073 .36799623 .116989139 .36299134 .10598755 .36099244 .09700012 .3600006 .08999634 .35899354 .08299255 .35798646 .07598877 .35798646 .070999149 .35798646 .04798889 .3659973 .027999878 .38198854 .0129852299 .39698792-.0030059815 .4169922-.011001587 .43998719-.011001587 .46299745-.011001587 .48298646-.0030059815 .5 .011993408 .5169983 .026992798 .5299988 .04399109 .54100039 .06298828 .5509949 .08198547 .5589905 .09899902 .56399539 .115997318 .56900027 .13198853 .57099917 .14099121 .57099917 .14299011 .57099917 .147995 .56900027 .15098572 .56599429 .1519928 .5629883 .15299988 .55999758 .15299988 .5589905 .15299988 .55400088 .15299988 .5509949 .1519928 .5499878 .1499939 .548996 .14698792 .5469971 .14199829 .5439911 .1349945 .5339966 .100997928 .5209961 .07199097 .5039978 .04798889 .4869995 .022994996 .46699525 .010986328 .44198609 .010986328 .42599488 .010986328 .41799928 .021987915 .41799928 .04399109 .41799928 .056991579 .41999818 .068984989 .42399598 .08099365 .4269867 .09199524 .43099977 .10398865 .43598939 .114990238 .44099427 .12799073 .44699098 .14498902 .45399476 .1639862 .46099855 .18299866 .46699525 .20298767 .47399903 .22399903 .47999574 .24398804 .4850006 .2639923 .48999024 .28399659 .49499513 .3039856 .49699403 .32099916 .49699403 .33499146 .49699403 .36898805 .4869995 .394989 .46699525 .4139862 .44599916 .43299867 .41799928 .44198609 .38198854 .44198609 .35899354 .44198609 .33898927 .43899537 .32199098 .43199159 .30499269 .4249878 .2899933 .41600038 .2769928 .40699769 .2639923 .397995 .25299073 .3880005 .24499512 .3789978 .23599243 .36898805 .22999573 .36099244 .22599793 .35499574 .22299195 .3829956 .21299744 .40499879 .19599915 .41999818 .17799378 .43499757 .15699768 .44198609 .13398743 .44198609 .12298584 .44198609 .11299133 .43998719 .10499573 .43598939 .09599304 .43099977 .08898926 .42599488 .08299255 .41999818 .07699585 .4139862 .07199097 .4079895 .068984989 .4019928 .06498718 .394989 .06199646 .3899994 .05899048 .3849945 .054992677 .37599183 .050994874 .36698915 .04798889 .35598756 .04399109 .34498597 .040985109 .33499146 .037994386 .32598878 .034988405 .31599427 .032989503 .30699159 .03199768 .2999878 .02999878 .29299928 .0289917 .2889862 .0289917 .28799439 .0289917 .2829895 .0309906 .27999879 .033996583 .2789917 .036987306 .27799989 .039993287 .27799989 .040985109 .27799989 .04598999 .27799989 .049987794 .2789917 .050994874 .2809906 .051986696 .2829895 .054992677 .2899933 .057998659 .30099488 .066986087 .33699037 .07699585 .3659973 .08799744 .3880005 .09899902 .40899659 .11299133 .41999818 .1309967 .41999818 .14099121 .41999818 .14898682 .4169922 .1539917 .4099884 .15899658 .40299989 .1619873 .3909912 .1619873 .37399293 .1619873 .36898805 .1619873 .3639984 .1619873 .3600006 .16099549 .35499574 .1599884 .34999085 .15899658 .34399415 .1579895 .33799745 .1559906 .33099366 .1539917 .32199098 .1519928 .31298829 .14898682 .30299378 .1459961 .2899933L.08799744 .05899048Z" />

<path id="font_16_11" d="M.68699648 .32699586C.69400027 .32699586 .70199587 .32798768 .70999148 .32998658 .71699526 .33099366 .72099307 .33699037 .72099307 .34700013 .72099307 .35699464 .71699526 .36299134 .70999148 .36499024 .7029877 .3659973 .69499209 .36698915 .6879883 .36698915H.08898926C.08198547 .36698915 .07398987 .3659973 .066986087 .36499024 .05999756 .36299134 .055999757 .35699464 .055999757 .34700013 .055999757 .33699037 .05999756 .33099366 .067993167 .32998658 .07499695 .32798768 .08299255 .32699586 .08999634 .32699586H.68699648M.6879883 .1329956C.69499209 .1329956 .7029877 .13398743 .70999148 .13598633 .71699526 .13699341 .72099307 .14299011 .72099307 .15299988 .72099307 .16299439 .71699526 .16899109 .70999148 .17098999 .70199587 .17199707 .69400027 .17298889 .68699648 .17298889H.08999634C.08299255 .17298889 .07499695 .17199707 .067993167 .17098999 .05999756 .16899109 .055999757 .16299439 .055999757 .15299988 .055999757 .14299011 .05999756 .13699341 .066986087 .13598633 .07398987 .13398743 .08198547 .1329956 .08898926 .1329956H.6879883Z" />

<path id="font_16_5" d="M.35899354 .38598634C.34899903 .3849945 .34098817 .3829956 .33499146 .37998963 .32798768 .37599183 .32299806 .37199403 .31999208 .36698915 .31698609 .3619995 .31498719 .35798646 .31399537 .35299684 .31298829 .34799195 .31199647 .34298707 .31199647 .33999635 .31199647 .32699586 .31599427 .31599427 .32499696 .30699159 .33299256 .2979889 .34399415 .2939911 .35798646 .2939911 .37098695 .2939911 .38198854 .2979889 .3909912 .30599977 .3999939 .31399537 .4039917 .32598878 .4039917 .34098817 .4039917 .35798646 .3999939 .37298585 .3909912 .38598634 .38198854 .39898683 .37098695 .41099549 .35699464 .41999818 .34199525 .42900086 .32598878 .43598939 .30799867 .44099427 .2889862 .44599916 .269989 .44799806 .25099183 .44799806 .21998596 .44799806 .19099427 .44198609 .16499329 .42900086 .13798523 .41600038 .114990238 .3999939 .09599304 .3789978 .07699585 .35798646 .06199646 .33299256 .050994874 .30499269 .039993287 .27598573 .033996583 .24699402 .033996583 .21598816 .033996583 .18399048 .039993287 .1539917 .051986696 .1269989 .06298828 .09899902 .07899475 .07499695 .09799194 .054992677 .116989139 .033996583 .13999939 .017990113 .1659851 .0069885256 .19198609-.005004883 .21998596-.011001587 .24899292-.011001587 .28199769-.011001587 .30999757-.005004883 .33198548 .0079956059 .35299684 .020996094 .36999513 .034988405 .3829956 .050994874 .394989 .06599426 .40299989 .08099365 .4079895 .09498596 .41299439 .10798645 .4149933 .115997318 .4149933 .11898804 .4149933 .12399292 .41299439 .1269989 .4099884 .12799073 .4059906 .1289978 .40299989 .1289978 .4019928 .1289978 .39698792 .1289978 .3939972 .12799073 .3929901 .1269989 .3919983 .125 .3899994 .12199402 .3889923 .11898804 .38198854 .09599304 .37298585 .07699585 .3619995 .06399536 .35099793 .049987794 .33898927 .038986207 .32699586 .03199768 .31399537 .024993897 .3019867 .019989014 .2899933 .017990113 .27799989 .01499939 .2669983 .01399231 .2579956 .01399231 .24499512 .01399231 .22999573 .016998291 .21398926 .022994996 .19699097 .0289917 .18199158 .039993287 .16799927 .055999757 .15299988 .070999149 .14099121 .09199524 .13198853 .11898804 .12199402 .14498902 .116989139 .17799378 .116989139 .21798706 .116989139 .25898744 .12199402 .2919922 .1309967 .31900025 .13999939 .34498597 .15098572 .3659973 .16499329 .38198854 .17799378 .39698792 .19299317 .4079895 .20899964 .4139862 .22399903 .41999818 .23899842 .4229889 .2519989 .4229889 .2539978 .4229889 .25898744 .4229889 .2679901 .4229889 .27598573 .42199708 .2849884 .42099 .29599 .41799928 .30699159 .4149933 .31799317 .4119873 .32899476 .40699769 .33999635 .4019928 .34999085 .394989 .35899354 .38598634Z" />

<path id="font_16_2" d="M.47099305 .21398926C.47099305 .24598694 .46499635 .27598573 .45399476 .30499269 .44198609 .33299256 .42599488 .35798646 .4059906 .3789978 .38598634 .3999939 .36299134 .4169922 .33599855 .42999269 .30899049 .44198609 .27999879 .44799806 .25 .44799806 .21899414 .44799806 .18998719 .44198609 .16299439 .42900086 .13598633 .41600038 .11199951 .39898683 .09199524 .37799073 .07199097 .35699464 .055999757 .33198548 .04499817 .3039856 .033996583 .2749939 .027999878 .24499512 .027999878 .21398926 .027999878 .18199158 .033996583 .1519928 .04598999 .125 .057998659 .09700012 .07398987 .07299805 .09498596 .052993776 .114990238 .032989503 .13798523 .016998291 .16499329 .005996704 .19198609-.005004883 .21998596-.011001587 .24899292-.011001587 .2789917-.011001587 .30799867-.005004883 .33499146 .0069885256 .3619995 .017990113 .3849945 .033996583 .4059906 .053985597 .42599488 .07398987 .44198609 .09799194 .45399476 .125 .46499635 .1519928 .47099305 .18199158 .47099305 .21398926M.25 .01399231C.22898865 .01399231 .20799256 .018997193 .18699646 .02999878 .1659851 .040985109 .14898682 .057998659 .13598633 .08099365 .12998963 .09199524 .125 .10398865 .12199402 .116989139 .117996219 .12998963 .114990238 .14199829 .11399841 .15499878 .11299133 .16699219 .11199951 .1789856 .11199951 .19099427 .11099243 .20199585 .11099243 .21299744 .11099243 .22200012 .11099243 .24099732 .11199951 .2639923 .11399841 .2889862 .115997318 .31399537 .12298584 .33699037 .1349945 .35899354 .147995 .38198854 .1659851 .39898683 .18699646 .4099884 .20799256 .42099 .22898865 .42599488 .24899292 .42599488 .2709961 .42599488 .2919922 .42099 .31199647 .4099884 .33198548 .39898683 .34899903 .38198854 .3619995 .36099244 .36898805 .34999085 .37399293 .33898927 .3769989 .32699586 .37998963 .31399537 .3829956 .3019867 .3849945 .2899933 .38598634 .2769928 .3869934 .2649994 .3880005 .2539978 .3880005 .24198914 .3880005 .23098755 .3880005 .22200012 .3880005 .20399475 .3869934 .18299866 .38598634 .1579895 .38398744 .1329956 .3769989 .10998535 .3659973 .08799744 .35499574 .06498718 .33898927 .04699707 .31900025 .033996583 .2979889 .020996094 .2749939 .01399231 .25 .01399231Z" />

<path id="font_16_1" d="M.10998535 .34399415V.07598877C.10998535 .06498718 .10899353 .055999757 .10699463 .049987794 .10499573 .04399109 .100997928 .039993287 .09599304 .036987306 .09098816 .033996583 .08299255 .03199768 .07299805 .03199768 .06199646 .0309906 .04899597 .0309906 .03199768 .0309906V0C.04899597 .0009918213 .068984989 .0009918213 .09199524 .0019989014 .11399841 .0029907227 .13198853 .0029907227 .14498902 .0029907227 .1579895 .0029907227 .17599488 .0029907227 .19799805 .0019989014 .21998596 .0009918213 .23999024 .0009918213 .25698854 0V.0309906C.23999024 .0309906 .22698975 .0309906 .21699524 .03199768 .20599365 .03199768 .19799805 .033996583 .19299317 .036987306 .18798828 .039993287 .18399048 .04399109 .18199158 .049987794 .17999268 .055999757 .1789856 .06498718 .1789856 .07598877V.2599945C.1789856 .28599549 .18299866 .30899049 .19099427 .32899476 .19898987 .34899903 .20999146 .3659973 .22299195 .3789978 .23599243 .3919983 .25 .40299989 .2659912 .4099884 .28199769 .4169922 .2979889 .41999818 .31399537 .41999818 .32998658 .41999818 .34298707 .4169922 .35299684 .41099549 .3619995 .4039917 .36999513 .3959961 .375 .38598634 .37998963 .375 .38398744 .36299134 .38598634 .34999085 .3869934 .33699037 .3880005 .32299806 .3880005 .30899049V.07598877C.3880005 .06498718 .3869934 .055999757 .3849945 .049987794 .3829956 .04399109 .3789978 .039993287 .37399293 .036987306 .36898805 .033996583 .36099244 .03199768 .35099793 .03199768 .33999635 .0309906 .32699586 .0309906 .30999757 .0309906V0C.32699586 .0009918213 .34700013 .0009918213 .36999513 .0019989014 .3919983 .0029907227 .4099884 .0029907227 .4229889 .0029907227 .43598939 .0029907227 .45399476 .0029907227 .47599793 .0019989014 .49798585 .0009918213 .5179901 .0009918213 .5349884 0V.0309906C.5089874 .0309906 .48999024 .03199768 .47698976 .034988405 .46398927 .036987306 .45799256 .04598999 .45700074 .06098938V.2519989C.45700074 .272995 .45700074 .2919922 .45700074 .30699159 .45599366 .32199098 .45498658 .33599855 .45298768 .34700013 .45098878 .35798646 .44799806 .36898805 .44400025 .37799073 .43998719 .3869934 .43399049 .3959961 .42599488 .40499879 .4189911 .4139862 .40699769 .42199708 .3899994 .42999269 .37298585 .43798829 .34999085 .44198609 .32099916 .44198609 .28399659 .44198609 .2539978 .43199159 .22999573 .41299439 .20599365 .3939972 .18699646 .36799623 .17298889 .33699037V.44198609L.03199768 .43099977V.3999939C.04899597 .3999939 .06298828 .39898683 .07398987 .397995 .083999637 .39698792 .09199524 .3939972 .09700012 .3899994 .101989749 .38598634 .10598755 .37998963 .10798645 .37298585 .10899353 .3659973 .10998535 .35598756 .10998535 .34399415Z" />

<path id="font_16_3" d="M.20799256 .19400025C.21299744 .19299317 .22200012 .19099427 .23399353 .18798828 .24499512 .18499756 .25698854 .18099976 .2689972 .17399597 .27999879 .16699219 .2899933 .15699768 .29899598 .1459961 .30799867 .1349945 .31199647 .11999512 .31199647 .101989749 .31199647 .07699585 .30299378 .054992677 .2849884 .037994386 .2669983 .019989014 .23799134 .010986328 .19898987 .010986328 .17799378 .010986328 .1599884 .01399231 .14498902 .020996094 .12998963 .027999878 .116989139 .036987306 .10598755 .049987794 .09498596 .06298828 .084991458 .07798767 .07798767 .09498596 .070999149 .11199951 .06498718 .13198853 .05999756 .15299988 .05899048 .1599884 .056991579 .1639862 .055999757 .16699219 .054992677 .16899109 .050994874 .16999817 .04598999 .16999817 .038986207 .16999817 .035995485 .16799927 .034988405 .16499329 .033996583 .16099549 .032989503 .1539917 .032989503 .14498902V.0129852299C.032989503 .0039978029 .033996583-.0020141602 .034988405-.006011963 .035995485-.009002686 .038986207-.011001587 .04399109-.011001587 .04699707-.011001587 .04899597-.010009766 .051986696-.008010864 .053985597-.006011963 .05999756 0 .068984989 .008987427 .069992069 .009994507 .07199097 .011993408 .07299805 .01499939 .07398987 .016998291 .07998657 .022994996 .08898926 .03199768 .099990848 .020996094 .11099243 .0129852299 .12199402 .0079956059 .1329956 .0019989014 .14299011-.0020141602 .15299988-.005004883 .1619873-.008010864 .17098999-.009002686 .1789856-.010009766 .18699646-.011001587 .19400025-.011001587 .19898987-.011001587 .22799683-.011001587 .2519989-.007003784 .272995 .0009918213 .29299928 .0079956059 .30999757 .018997193 .32299806 .03199768 .33599855 .04499817 .34498597 .05899048 .35099793 .07598877 .35699464 .09298706 .3600006 .10998535 .3600006 .12799073 .3600006 .14099121 .35798646 .15299988 .35499574 .1639862 .35198976 .17399597 .34799195 .18299866 .34399415 .19099427 .33898927 .19898987 .33499146 .20599365 .32998658 .21099854 .32499696 .21598816 .32099916 .21998596 .31799317 .22299195 .30099488 .23899842 .28399659 .25 .2649994 .2559967 .24598694 .2619934 .22499085 .2669983 .20399475 .2709961 .18998719 .27398683 .17599488 .2769928 .16099549 .27999879 .1459961 .2829895 .1329956 .28799439 .12199402 .2939911 .10998535 .2999878 .099990848 .30799867 .09298706 .31698609 .084991458 .32598878 .08099365 .33799745 .08099365 .35299684 .08099365 .3619995 .08299255 .37098695 .08699036 .37998963 .08999634 .3889923 .09599304 .39698792 .10499573 .4039917 .11399841 .41099549 .125 .4169922 .13999939 .42199708 .1539917 .4269867 .17199707 .42900086 .19299317 .42900086 .21998596 .42900086 .24198914 .42399598 .2579956 .4149933 .272995 .40499879 .2849884 .3929901 .2919922 .37998963 .29899598 .36698915 .3039856 .35299684 .30599977 .33999635 .30799867 .32699586 .30899049 .31599427 .30999757 .30799867 .31098939 .30299378 .31298829 .30099488 .31599427 .2999878 .31900025 .29899598 .32099916 .29899598 .32199098 .29899598 .32899476 .29899598 .33299256 .30099488 .33399964 .3039856 .33499146 .30699159 .33499146 .31399537 .33499146 .32299806V.42399598C.33499146 .43299867 .33499146 .43899537 .33399964 .44299317 .33299256 .44599916 .32899476 .44799806 .32398988 .44799806 .32099916 .44799806 .31900025 .44799806 .31698609 .44699098 .31498719 .44599916 .31098939 .44198609 .3039856 .43598939 .30299378 .43399049 .2999878 .43099977 .29599 .42799378 .2919922 .42399598 .2889862 .42099 .2869873 .41999818 .27799989 .4269867 .2679901 .43199159 .25898744 .43598939 .24899292 .43998719 .23999024 .44299317 .23199463 .44499208 .22299195 .44599916 .21598816 .44699098 .20899964 .44799806 .20199585 .44799806 .19699097 .44799806 .19299317 .44799806 .1619873 .44799806 .13699341 .44400025 .116989139 .43699647 .09599304 .42900086 .07998657 .4189911 .067993167 .4079895 .054992677 .3959961 .04598999 .3829956 .040985109 .36799623 .035995485 .35299684 .032989503 .33898927 .032989503 .32499696 .032989503 .30799867 .036987306 .2919922 .04499817 .27799989 .051986696 .2639923 .06298828 .25099183 .07598877 .23999024 .083999637 .23298645 .09199524 .22799683 .099990848 .22399903 .10798645 .21899414 .116989139 .21598816 .1269989 .21299744 .13699341 .20999146 .14898682 .20698548 .1619873 .20399475 .1749878 .20098877 .18998719 .19699097 .20799256 .19400025Z" />

<path id="font_16_4" d="M.17298889 .3999939H.31599427V.43099977H.17298889V.61499026H.147995C.147995 .59399417 .1459961 .57299807 .14199829 .5509949 .13699341 .5279999 .12998963 .5079956 .11999512 .4889984 .10998535 .46998597 .09700012 .45498658 .08099365 .44198609 .06399536 .42900086 .04399109 .4229889 .018997193 .42199708V.3999939H.10398865V.12399292C.10398865 .09298706 .10899353 .068984989 .11898804 .050994874 .1289978 .032989503 .14099121 .019989014 .15499878 .010986328 .16899109 .0019989014 .18299866-.0040130617 .19799805-.007003784 .21199036-.010009766 .22399903-.011001587 .23298645-.011001587 .25099183-.011001587 .2659912-.007003784 .2789917 .0009918213 .29100038 .008987427 .30099488 .019989014 .30899049 .032989503 .31698609 .04598999 .32299806 .05999756 .32699586 .07598877 .32998658 .09199524 .33198548 .10798645 .33198548 .12399292V.18099976H.30699159V.12599182C.30699159 .08898926 .30099488 .06098938 .28799439 .041992189 .2749939 .022994996 .25898744 .01399231 .23999024 .01399231 .22299195 .01399231 .21099854 .018997193 .20199585 .0289917 .19299317 .037994386 .18598938 .04899597 .18199158 .06199646 .1769867 .07398987 .1749878 .085998538 .17399597 .09799194 .17298889 .10998535 .17298889 .117996219 .17298889 .12199402V.3999939Z" />

<path id="font_15_6" d="M.47698976 .23599243C.47698976 .2749939 .47200013 .30799867 .46199037 .33499146 .45098878 .36099244 .43798829 .38198854 .42199708 .397995 .40499879 .4139862 .3869934 .4249878 .36799623 .43199159 .34799195 .43899537 .32899476 .44198609 .30999757 .44198609 .27598573 .44198609 .24299622 .43399049 .21099854 .41799928 .17799378 .40098573 .1499939 .37998963 .125 .35299684 .099990848 .32598878 .07899475 .29599 .06399536 .2619934 .04899597 .22799683 .040985109 .19299317 .040985109 .1579895 .040985109 .1349945 .04499817 .11299133 .051986696 .09298706 .05899048 .07199097 .069992069 .053985597 .083999637 .038986207 .09799194 .023986817 .114990238 .011993408 .1349945 .0029907227 .15499878-.007003784 .17799378-.011001587 .20298767-.011001587 .23498535-.011001587 .2689972-.005004883 .3039856 .0079956059 .33898927 .020996094 .37599183 .041992189 .4139862 .07299805 .42099 .04598999 .43199159 .025985718 .44799806 .010986328 .46299745-.0040130617 .48199464-.011001587 .5049896-.011001587 .5179901-.011001587 .5299988-.008010864 .54100039-.0020141602 .5509949 .0039978029 .55999758 .010986328 .5669861 .018997193 .57398989 .025985718 .5799866 .033996583 .58399966 .041992189 .58699038 .049987794 .58898928 .055999757 .58898928 .05999756 .58898928 .06298828 .58799746 .06599426 .58599856 .067993167 .58299258 .068984989 .5799866 .069992069 .57699587 .069992069 .57099917 .069992069 .5669861 .066986087 .56399539 .05999756 .5589905 .04798889 .55400088 .038986207 .5479889 .03199768 .5419922 .024993897 .5359955 .020996094 .5299988 .017990113 .5239868 .01499939 .5189972 .0129852299 .5149994 .011993408 .5109863 .010986328 .5089874 .010986328 .5079956 .010986328 .5 .010986328 .49398805 .01499939 .48999024 .023986817 .48599244 .03199768 .48298646 .041992189 .48098756 .052993776 .47898866 .06399536 .47799684 .07598877 .47799684 .08699036 .47698976 .09799194 .47698976 .10699463 .47698976 .11299133 .47698976 .12399292 .47698976 .1309967 .47799684 .13398743 .47898866 .13699341 .48199464 .14199829 .4869995 .147995 .5099945 .1769867 .5299988 .20599365 .54499819 .23399353 .55999758 .2619934 .57099917 .2869873 .5799866 .30899049 .58799746 .33099366 .59399417 .34899903 .5970001 .36299134 .59999087 .37599183 .60198977 .3829956 .60198977 .3829956 .60198977 .38398744 .6009979 .38598634 .59999087 .3889923 .598999 .3919983 .59498599 .3929901 .58999636 .3929901 .58499148 .3929901 .58200076 .3919983 .58099368 .3899994 .5799866 .3869934 .5779877 .3809967 .57499697 .37199403 .56599429 .33999635 .5529938 .30699159 .5369873 .27198792 .519989 .23699951 .5 .20399475 .47698976 .17399597V.23599243M.4099884 .09899902C.3880005 .07998657 .36698915 .06399536 .34700013 .052993776 .32598878 .040985109 .30699159 .03199768 .2899933 .025985718 .27198792 .019989014 .2559967 .015991211 .24198914 .01399231 .22698975 .011993408 .21499634 .010986328 .20498657 .010986328 .1749878 .010986328 .15299988 .020996094 .13798523 .041992189 .12298584 .06199646 .114990238 .08799744 .114990238 .11999512 .114990238 .13198853 .116989139 .14698792 .11999512 .1659851 .12298584 .18499756 .1269989 .20399475 .13198853 .22399903 .13699341 .24299622 .14399719 .2619934 .15098572 .2809906 .1579895 .2999878 .16499329 .31498719 .17298889 .32798768 .18499756 .34599305 .19699097 .36099244 .20999146 .37298585 .22200012 .3849945 .23399353 .394989 .24598694 .4019928 .25698854 .40899659 .2689972 .41299439 .27999879 .41600038 .29100038 .4189911 .2999878 .41999818 .30899049 .41999818 .33399964 .41999818 .35299684 .41299439 .3659973 .39898683 .3789978 .38398744 .3889923 .3659973 .3959961 .34498597 .4019928 .32398988 .4059906 .30099488 .40699769 .2769928 .4079895 .2519989 .4079895 .22999573 .4079895 .21099854 .4079895 .20199585 .4079895 .19099427 .4079895 .17999268 .4079895 .16899109 .4079895 .1579895 .4079895 .14698792 .4079895 .13699341 .4079895 .12799073 .40899659 .11898804 .40899659 .10998535 .40899659 .102996829 .4099884 .09899902Z" />

</defs>
<g clip-path="url(#clip_14)">
<path transform="matrix(.1,0,0,-.1,101.272,551.872)" stroke-width="11.3386" stroke-linecap="butt" stroke-miterlimit="2.6131" stroke-linejoin="miter" fill="none" stroke="#231f20" d="M340.305 305.594C753.039 475.035 867.531 1187.33 1476.09 1253.72" />
<path transform="matrix(.1,0,0,-.1,101.272,551.872)" stroke-width="5.6693" stroke-linecap="butt" stroke-miterlimit="2.6131" stroke-linejoin="miter" fill="none" stroke="#231f20" d="M168.207 .550781V1442.88" />
<path transform="matrix(.1,0,0,-.1,101.272,551.872)" d="M168.207 1400.07C161.793 1400.07 155.375 1397.7 150.609 1393.45L168.207 1455.62 185.809 1393.45C181.043 1397.7 174.625 1400.07 168.207 1400.07" fill="#231f20" fill-rule="evenodd" />
<path transform="matrix(.1,0,0,-.1,101.272,551.872)" d="M336.266 316.871C342.605 319.152 349.633 315.836 351.91 309.496 354.188 303.156 350.875 296.129 344.531 293.852 338.195 291.574 331.168 294.891 328.887 301.227 326.613 307.57 329.926 314.598 336.266 316.871" fill="#231f20" fill-rule="evenodd" />
<path transform="matrix(.1,0,0,-.1,101.272,551.872)" stroke-width="5.6693" stroke-linecap="butt" stroke-miterlimit="2.6131" stroke-linejoin="miter" fill="none" stroke="#231f20" d="M336.266 316.871C342.605 319.152 349.633 315.836 351.91 309.496 354.188 303.156 350.875 296.129 344.531 293.852 338.195 291.574 331.168 294.891 328.887 301.227 326.613 307.57 329.926 314.598 336.266 316.871Z" />
<use data-text="x" xlink:href="#font_15_3" transform="matrix(11.9997,0,0,-11.9997,131.3212,547.07748)" fill="#231f20" />
<use data-text="0" xlink:href="#font_16_9" transform="matrix(7.99952,0,0,-7.99952,138.17316,549.71737)" fill="#231f20" />
<use data-text="y" xlink:href="#font_15_4" transform="matrix(11.9997,0,0,-11.9997,103.41376,521.3357)" fill="#231f20" />
<use data-text="0" xlink:href="#font_16_9" transform="matrix(7.99952,0,0,-7.99952,109.29344,523.9756)" fill="#231f20" />
<path transform="matrix(.1,0,0,-.1,101.272,551.872)" stroke-width="5.6693" stroke-linecap="butt" stroke-miterlimit="2.6131" stroke-linejoin="miter" fill="none" stroke="#231f20" d="M.945313 154.137H1705.46" />
<path transform="matrix(.1,0,0,-.1,101.272,551.872)" d="M1662.66 154.137C1662.66 160.555 1660.29 166.969 1656.04 171.734L1718.21 154.137 1656.04 136.535C1660.29 141.301 1662.66 147.719 1662.66 154.137" fill="#231f20" fill-rule="evenodd" />
<path transform="matrix(.1,0,0,-.1,101.272,551.872)" d="M1471.98 1265.19C1478.31 1267.46 1485.34 1264.15 1487.62 1257.81 1489.9 1251.47 1486.58 1244.44 1480.24 1242.16 1473.9 1239.89 1466.88 1243.2 1464.6 1249.54 1462.32 1255.88 1465.63 1262.91 1471.98 1265.19" fill="#231f20" fill-rule="evenodd" />
<path transform="matrix(.1,0,0,-.1,101.272,551.872)" stroke-width="5.6693" stroke-linecap="butt" stroke-miterlimit="2.6131" stroke-linejoin="miter" fill="none" stroke="#231f20" d="M1471.98 1265.19C1478.31 1267.46 1485.34 1264.15 1487.62 1257.81 1489.9 1251.47 1486.58 1244.44 1480.24 1242.16 1473.9 1239.89 1466.88 1243.2 1464.6 1249.54 1462.32 1255.88 1465.63 1262.91 1471.98 1265.19Z" />
<path transform="matrix(.1,0,0,-.1,101.272,551.872)" stroke-width="5.6693" stroke-linecap="butt" stroke-miterlimit="2.6131" stroke-linejoin="miter" fill="none" stroke="#231f20" d="M1476.11 184.398V123.871" />
<path transform="matrix(.1,0,0,-.1,101.272,551.872)" stroke-width="5.6693" stroke-linecap="butt" stroke-miterlimit="2.6131" stroke-linejoin="miter" fill="none" stroke="#231f20" d="M137.945 1253.68H198.473" />
<path transform="matrix(.1,0,0,-.1,101.272,551.872)" stroke-width="5.6693" stroke-linecap="butt" stroke-miterlimit="2.6131" stroke-linejoin="miter" fill="none" stroke="#231f20" d="M137.945 305.363H198.473" />
<use data-text="y" xlink:href="#font_15_4" transform="matrix(11.9997,0,0,-11.9997,103.4138,426.50404)" fill="#231f20" />
<use data-text="1" xlink:href="#font_16_10" transform="matrix(7.99952,0,0,-7.99952,109.293498,429.14387)" fill="#231f20" />
<use data-text="y" xlink:href="#font_15_4" transform="matrix(11.9997,0,0,-11.9997,105.089588,413.40007)" fill="#231f20" />
<path transform="matrix(.1,0,0,-.1,101.272,551.872)" stroke-width="5.6693" stroke-linecap="butt" stroke-miterlimit="2.6131" stroke-linejoin="miter" fill="none" stroke="#231f20" d="M340.398 184.398V123.871" />
<use data-text="x" xlink:href="#font_15_3" transform="matrix(11.9997,0,0,-11.9997,244.952,547.07748)" fill="#231f20" />
<use data-text="1" xlink:href="#font_16_10" transform="matrix(7.99952,0,0,-7.99952,251.80394,549.71737)" fill="#231f20" />
<use data-text="x" xlink:href="#font_15_3" transform="matrix(11.9997,0,0,-11.9997,266.33204,547.07748)" fill="#231f20" />
<use data-text="d" xlink:href="#font_16_6" transform="matrix(11.9997,0,0,-11.9997,201.75115,457.79978)" fill="#231f20" />
<use data-text="s" xlink:href="#font_15_2" transform="matrix(11.9997,0,0,-11.9997,208.41092,457.79978)" fill="#231f20" />
<use data-text="d" xlink:href="#font_16_6" transform="matrix(11.9997,0,0,-11.9997,185.63791,488.4514)" fill="#231f20" />
<use data-text="x" xlink:href="#font_15_3" transform="matrix(11.9997,0,0,-11.9997,192.29767,488.4514)" fill="#231f20" />
<use data-text="d" xlink:href="#font_16_6" transform="matrix(11.9997,0,0,-11.9997,201.99065,472.15769)" fill="#231f20" />
<use data-text="y" xlink:href="#font_15_4" transform="matrix(11.9997,0,0,-11.9997,208.6508,472.15769)" fill="#231f20" />
<path transform="matrix(.1,0,0,-.1,101.272,551.872)" stroke-width="5.6693" stroke-linecap="butt" stroke-miterlimit="2.6131" stroke-linejoin="miter" fill="none" stroke="#231f20" d="M826.738 736.941H989.941V941.93" />
<path transform="matrix(.1,0,0,-.1,101.272,551.872)" stroke-width="5.6693" stroke-linecap="butt" stroke-miterlimit="2.6131" stroke-linejoin="miter" fill="none" stroke="#231f20" d="M968.832 963.039 1011.05 920.82" />
<path transform="matrix(.1,0,0,-.1,101.272,551.872)" stroke-width="5.6693" stroke-linecap="butt" stroke-miterlimit="2.6131" stroke-linejoin="miter" fill="none" stroke="#231f20" d="M805.629 758.051 847.848 715.832" />
<path transform="matrix(.1,0,0,-.1,101.272,551.872)" stroke-width="5.6693" stroke-linecap="butt" stroke-miterlimit="2.6131" stroke-linejoin="miter" fill="none" stroke="#231f20" d="M968.832 758.051 1011.05 715.832" />
<path transform="matrix(.1,0,0,-.1,101.272,551.872)" stroke-width="5.6693" stroke-linecap="butt" stroke-miterlimit="2.6131" stroke-linejoin="miter" fill="none" stroke="#231f20" d="M827.789 737.641 989.266 941.426" />
<path transform="matrix(.1,0,0,-.1,101.272,551.872)" d="M870.762 884.609C877.102 886.887 884.129 883.574 886.406 877.234 888.684 870.891 885.367 863.867 879.027 861.59 872.688 859.309 865.66 862.625 863.383 868.965 861.105 875.305 864.422 882.332 870.762 884.609" fill="#231f20" fill-rule="evenodd" />
<path transform="matrix(.1,0,0,-.1,101.272,551.872)" stroke-width="5.6693" stroke-linecap="butt" stroke-miterlimit="2.6131" stroke-linejoin="miter" fill="none" stroke="#231f20" d="M870.762 884.609C877.102 886.887 884.129 883.574 886.406 877.234 888.684 870.891 885.367 863.867 879.027 861.59 872.688 859.309 865.66 862.625 863.383 868.965 861.105 875.305 864.422 882.332 870.762 884.609Z" />
<path transform="matrix(.1,0,0,-.1,101.272,551.872)" stroke-width="5.6693" stroke-linecap="butt" stroke-miterlimit="2.6131" stroke-linejoin="miter" fill="none" stroke="#231f20" d="M850.758 891.922 1035.2 1124.68" />
<path transform="matrix(.1,0,0,-.1,101.272,551.872)" d="M1022.48 1108.63C1017.45 1112.62 1010.95 1114.74 1004.58 1114.38L1056.98 1152.16 1032.17 1092.52C1031.06 1098.8 1027.51 1104.65 1022.48 1108.63" fill="#231f20" fill-rule="evenodd" />
<use data-text="c" xlink:href="#font_15_5" transform="matrix(11.9997,0,0,-11.9997,170.0568,441.344)" fill="#231f20" />
<use data-text="x" xlink:href="#font_15_3" transform="matrix(11.9997,0,0,-11.9997,179.89664,441.344)" fill="#231f20" />
<use data-text="y" xlink:href="#font_15_4" transform="matrix(11.9997,0,0,-11.9997,190.07202,441.344)" fill="#231f20" />
<use data-text="(" xlink:href="#font_16_12" transform="matrix(11.9997,0,0,-11.9997,175.24079,441.344)" fill="#231f20" />
<use data-text="," xlink:href="#font_16_8" transform="matrix(11.9997,0,0,-11.9997,186.7482,441.344)" fill="#231f20" />
<use data-text=")" xlink:href="#font_16_7" transform="matrix(11.9997,0,0,-11.9997,195.95209,441.344)" fill="#231f20" />
<path transform="matrix(.1,0,0,-.1,101.272,551.872)" stroke-width="11.3386" stroke-linecap="butt" stroke-miterlimit="2.6131" stroke-linejoin="miter" fill="none" stroke="#231f20" d="M2497.65 257.449C2936.64 431.266 3221.83 1058.21 3305.19 1336.88" />
<path transform="matrix(.1,0,0,-.1,101.272,551.872)" d="M3298.6 1314.85C3291.69 1316.92 3284.02 1316.42 3277.53 1313.39L3316.48 1374.62 3315.41 1302.06C3311.64 1308.16 3305.5 1312.79 3298.6 1314.85" fill="#231f20" fill-rule="evenodd" />
<path transform="matrix(.1,0,0,-.1,101.272,551.872)" stroke-width="5.6693" stroke-linecap="butt" stroke-miterlimit="2.6131" stroke-linejoin="miter" fill="none" stroke="#231f20" d="M2397.77 .550781V1442.88" />
<path transform="matrix(.1,0,0,-.1,101.272,551.872)" d="M2397.77 1400.07C2391.36 1400.07 2384.94 1397.7 2380.17 1393.45L2397.77 1455.62 2415.37 1393.45C2410.61 1397.7 2404.19 1400.07 2397.77 1400.07" fill="#231f20" fill-rule="evenodd" />
<path transform="matrix(.1,0,0,-.1,101.272,551.872)" d="M3013.27 743.262C3019.61 745.543 3026.63 742.227 3028.91 735.887 3031.19 729.547 3027.88 722.52 3021.53 720.242 3015.2 717.965 3008.17 721.281 3005.89 727.617 3003.61 733.961 3006.93 740.984 3013.27 743.262" fill="#231f20" fill-rule="evenodd" />
<path transform="matrix(.1,0,0,-.1,101.272,551.872)" stroke-width="5.6693" stroke-linecap="butt" stroke-miterlimit="2.6131" stroke-linejoin="miter" fill="none" stroke="#231f20" d="M3013.27 743.262C3019.61 745.543 3026.63 742.227 3028.91 735.887 3031.19 729.547 3027.88 722.52 3021.53 720.242 3015.2 717.965 3008.17 721.281 3005.89 727.617 3003.61 733.961 3006.93 740.984 3013.27 743.262Z" />
<path transform="matrix(.1,0,0,-.1,101.272,551.872)" stroke-width="5.6693" stroke-linecap="butt" stroke-miterlimit="2.6131" stroke-linejoin="miter" fill="none" stroke="#231f20" d="M2230.51 154.137H3935.03" />
<path transform="matrix(.1,0,0,-.1,101.272,551.872)" d="M3892.23 154.137C3892.23 160.555 3889.85 166.969 3885.61 171.734L3947.77 154.137 3885.61 136.535C3889.85 141.301 3892.23 147.719 3892.23 154.137" fill="#231f20" fill-rule="evenodd" />
<use data-text="y" xlink:href="#font_15_4" transform="matrix(11.9997,0,0,-11.9997,328.04603,413.401)" fill="#231f20" />
<use data-text="x" xlink:href="#font_15_3" transform="matrix(11.9997,0,0,-11.9997,489.289,547.078)" fill="#231f20" />
<use data-text="n" xlink:href="#font_15_1" transform="matrix(11.9997,0,0,-11.9997,427.4882,473.4132)" fill="#231f20" />
<use data-text="y" xlink:href="#font_15_4" transform="matrix(11.9997,0,0,-11.9997,439.34407,473.4132)" fill="#231f20" />
<use data-text="(" xlink:href="#font_16_12" transform="matrix(11.9997,0,0,-11.9997,434.6882,473.4132)" fill="#231f20" />
<use data-text=")" xlink:href="#font_16_7" transform="matrix(11.9997,0,0,-11.9997,445.22377,473.4132)" fill="#231f20" />
<use data-text="=" xlink:href="#font_16_11" transform="matrix(11.9997,0,0,-11.9997,449.87965,473.4132)" fill="#231f20" />
<use data-text="c" xlink:href="#font_16_5" transform="matrix(11.9997,0,0,-11.9997,459.2034,473.4132)" fill="#231f20" />
<use data-text="o" xlink:href="#font_16_2" transform="matrix(11.9997,0,0,-11.9997,464.53129,473.4132)" fill="#231f20" />
<use data-text="n" xlink:href="#font_16_1" transform="matrix(11.9997,0,0,-11.9997,470.53114,473.4132)" fill="#231f20" />
<use data-text="s" xlink:href="#font_16_3" transform="matrix(11.9997,0,0,-11.9997,477.19096,473.4132)" fill="#231f20" />
<use data-text="t" xlink:href="#font_16_4" transform="matrix(11.9997,0,0,-11.9997,481.91883,473.4132)" fill="#231f20" />
<path transform="matrix(.1,0,0,-.1,101.272,551.872)" stroke-width="5.6693" stroke-linecap="butt" stroke-miterlimit="2.6131" stroke-linejoin="miter" fill="none" stroke="#231f20" d="M2502.23 731.809H3850.25" />
<path transform="matrix(.1,0,0,-.1,101.272,551.872)" stroke-width="5.6693" stroke-linecap="butt" stroke-miterlimit="2.6131" stroke-linejoin="miter" fill="none" stroke="#231f20" d="M3017.36 731.809V372.008" />
<path transform="matrix(.1,0,0,-.1,101.272,551.872)" stroke-width="5.6693" stroke-linecap="butt" stroke-miterlimit="2.6131" stroke-linejoin="miter" fill="none" stroke="#231f20" d="M3017.36 731.809 2781.42 372.66" />
<path transform="matrix(.1,0,0,-.1,101.272,551.872)" stroke-width="5.6693" stroke-linecap="butt" stroke-miterlimit="2.6131" stroke-linejoin="miter" fill="none" stroke="#231f20" d="M2981.51 428.309C2948.05 431.895 2911.02 443.84 2881.14 458.18" />
<path transform="matrix(.1,0,0,-.1,101.272,551.872)" d="M2961.16 430.492C2960.48 424.105 2957.43 417.984 2952.7 413.695L3016.38 424.57 2956.45 448.699C2960.16 443.504 2961.84 436.867 2961.16 430.492" fill="#231f20" fill-rule="evenodd" />
<path transform="matrix(.1,0,0,-.1,101.272,551.872)" d="M2899.6 449.32C2896.82 443.535 2896.19 436.723 2897.95 430.59L2849.52 473.352 2913.18 462.324C2907.3 459.859 2902.38 455.105 2899.6 449.32" fill="#231f20" fill-rule="evenodd" />
<use data-text="®" xlink:href="#font_15_6" transform="matrix(11.9997,0,0,-11.9997,392.854,504.3208)" fill="#231f20" />
<path transform="matrix(.1,0,0,-.1,101.272,551.872)" stroke-width="5.6693" stroke-linecap="butt" stroke-miterlimit="2.6131" stroke-linejoin="miter" fill="none" stroke="#231f20" d="M3071.54 731.809C3071.54 701.965 3047.2 677.625 3017.36 677.625" />
<path transform="matrix(.1,0,0,-.1,101.272,551.872)" stroke-width="5.6693" stroke-linecap="butt" stroke-miterlimit="2.6131" stroke-linejoin="miter" fill="none" stroke="#231f20" d="M3094.55 731.809C3094.55 689.289 3059.88 654.613 3017.36 654.613" />
</g>

</svg>