<svg xmlns="http://www.w3.org/2000/svg" xmlns:xlink="http://www.w3.org/1999/xlink" version="1.1" width="405.000" height="204.000" viewBox="96.272 324.862 405.000 204.000">
<defs>
<clipPath id="clip_8">
<path transform="matrix(1,0,0,-1,106.272,518.862)" d="M0 0H385V184H0Z" />
</clipPath>

</defs>
<g clip-path="url(#clip_8)">
<path transform="matrix(.1,0,0,-.1,106.272,518.862)" d="M761.043 1073.59C792.383 1042.25 792.383 991.438 761.043 960.098 729.699 928.754 678.883 928.754 647.543 960.098 616.199 991.438 616.199 1042.25 647.543 1073.59 678.883 1104.94 729.699 1104.94 761.043 1073.59" fill="#231f20" fill-rule="evenodd" />
<path transform="matrix(.1,0,0,-.1,106.272,518.862)" d="M471.059 451.23C502.398 419.891 553.215 419.891 584.555 451.23 615.898 482.574 615.898 533.387 584.555 564.73 553.215 596.074 502.398 596.074 471.059 564.73 439.715 533.387 439.715 482.574 471.059 451.23" fill="#231f20" fill-rule="evenodd" />
<path transform="matrix(.1,0,0,-.1,106.272,518.862)" d="M779.445 1116.61C839.309 880.777 831.438 553.25 760.016 347.328 688.031 139.785 573.871 115.465 492.914 293.684L779.445 1116.61" fill="#ffffff" fill-rule="evenodd" />
<path transform="matrix(.1,0,0,-.1,106.272,518.862)" stroke-width="11.3386" stroke-linecap="butt" stroke-miterlimit="22.9256" stroke-linejoin="miter" fill="none" stroke="#231f20" d="M779.445 1116.61C839.309 880.777 831.438 553.25 760.016 347.328 688.031 139.785 573.871 115.465 492.914 293.684L779.445 1116.61Z" />
<path transform="matrix(.1,0,0,-.1,106.272,518.862)" stroke-width="11.3386" stroke-linecap="butt" stroke-miterlimit="22.9256" stroke-linejoin="miter" fill="none" stroke="#231f20" d="M2306.68 347.328C2077.43 576.574 2077.43 948.254 2306.68 1177.5 2535.92 1406.74 2907.6 1406.74 3136.84 1177.5 3366.09 948.254 3366.09 576.574 3136.84 347.328 2907.6 118.086 2535.92 118.086 2306.68 347.328Z" />
<path transform="matrix(.1,0,0,-.1,106.272,518.862)" d="M2730.41 771.063C2735.18 766.285 2735.18 758.543 2730.41 753.766 2725.63 748.988 2717.89 748.988 2713.11 753.766 2708.34 758.543 2708.34 766.285 2713.11 771.063 2717.89 775.84 2725.63 775.84 2730.41 771.063" fill="#231f20" fill-rule="evenodd" />
<path transform="matrix(.1,0,0,-.1,106.272,518.862)" stroke-width="5.6693" stroke-linecap="butt" stroke-miterlimit="22.9256" stroke-linejoin="miter" fill="none" stroke="#231f20" d="M2730.41 771.063C2735.18 766.285 2735.18 758.543 2730.41 753.766 2725.63 748.988 2717.89 748.988 2713.11 753.766 2708.34 758.543 2708.34 766.285 2713.11 771.063 2717.89 775.84 2725.63 775.84 2730.41 771.063Z" />
<path transform="matrix(.1,0,0,-.1,106.272,518.862)" stroke-width="11.3386" stroke-linecap="butt" stroke-miterlimit="22.9256" stroke-linejoin="miter" fill="none" stroke="#231f20" d="M3079.93 1234.41 2252.98 407.379M3193.76 1120.58 2366.81 293.547" />
<path transform="matrix(.1,0,0,-.1,106.272,518.862)" d="M3032.94 1073.59C3064.29 1042.25 3064.29 991.438 3032.94 960.098 3001.6 928.754 2950.79 928.754 2919.44 960.098 2888.1 991.438 2888.1 1042.25 2919.44 1073.59 2950.79 1104.94 3001.6 1104.94 3032.94 1073.59" fill="#231f20" fill-rule="evenodd" />
<path transform="matrix(.1,0,0,-.1,106.272,518.862)" stroke-width="5.6693" stroke-linecap="butt" stroke-miterlimit="22.9256" stroke-linejoin="miter" fill="none" stroke="#231f20" d="M2760.86 801.512 2721.76 762.414M2877.09 917.75 2830.8 944.641M2857.7 898.355 2830.8 944.641M2838.3 878.961 2884.59 852.063M2857.7 898.355 2884.59 852.063M2838.3 878.961 2792.02 905.852M2818.91 859.563 2792.02 905.852M2799.52 840.168 2845.8 813.273M2818.91 859.563 2845.8 813.273M2799.52 840.168 2753.22 867.059M2780.12 820.77 2753.22 867.059M2760.72 801.375 2807.01 774.48M2780.12 820.77 2807.01 774.48M2876.76 917.41 2919.67 960.324" />
<path transform="matrix(.1,0,0,-.1,106.272,518.862)" d="M2410.58 451.23C2441.92 419.891 2492.73 419.891 2524.08 451.23 2555.42 482.574 2555.42 533.387 2524.08 564.73 2492.73 596.074 2441.92 596.074 2410.58 564.73 2379.23 533.387 2379.23 482.574 2410.58 451.23" fill="#231f20" fill-rule="evenodd" />
<path transform="matrix(.1,0,0,-.1,106.272,518.862)" stroke-width="5.6693" stroke-linecap="butt" stroke-miterlimit="22.9256" stroke-linejoin="miter" fill="none" stroke="#231f20" d="M2682.66 723.316 2721.76 762.414M2566.43 607.078 2539.53 653.371M2585.82 626.473 2539.53 653.371M2605.21 645.867 2632.11 599.578M2585.82 626.473 2632.11 599.578M2605.21 645.867 2578.32 692.16M2624.61 665.266 2578.32 692.16M2644 684.66 2670.9 638.371M2624.61 665.266 2670.9 638.371M2644 684.66 2617.11 730.953M2663.4 704.055 2617.11 730.953M2682.8 723.449 2709.69 677.16M2663.4 704.055 2709.69 677.16M2566.76 607.414 2523.85 564.5" />
<path transform="matrix(.1,0,0,-.1,106.272,518.862)" stroke-width="5.6693" stroke-linecap="butt" stroke-miterlimit="22.9256" stroke-linejoin="miter" fill="none" stroke="#231f20" d="M2754.23 1238.8 2919.32 1073.72" />
<path transform="matrix(.1,0,0,-.1,106.272,518.862)" stroke-width="5.6693" stroke-linecap="butt" stroke-miterlimit="22.9256" stroke-linejoin="miter" fill="none" stroke="#231f20" d="M2499.8 984.367 2721.76 762.414" />
<path transform="matrix(.1,0,0,-.1,106.272,518.862)" stroke-width="5.6693" stroke-linecap="butt" stroke-miterlimit="22.9256" stroke-linejoin="miter" fill="none" stroke="#231f20" d="M2539.71 944.465 2784.93 1189.69" />
<path transform="matrix(.1,0,0,-.1,106.272,518.862)" d="M2754.66 1159.42C2750.13 1163.96 2743.91 1166.81 2737.54 1167.19L2793.94 1198.7 2762.43 1142.3C2762.06 1148.66 2759.2 1154.88 2754.66 1159.42" fill="#231f20" fill-rule="evenodd" />
<path transform="matrix(.1,0,0,-.1,106.272,518.862)" stroke-width="5.6693" stroke-linecap="butt" stroke-miterlimit="22.9256" stroke-linejoin="miter" fill="none" stroke="#231f20" d="M2245.37 729.938 2410.45 564.855" />
<path transform="matrix(.1,0,0,-.1,106.272,518.862)" stroke-width="5.6693" stroke-linecap="butt" stroke-miterlimit="22.9256" stroke-linejoin="miter" fill="none" stroke="#231f20" d="M2539.71 944.465 2294.48 699.242" />
<path transform="matrix(.1,0,0,-.1,106.272,518.862)" d="M2324.75 729.508C2329.29 724.969 2335.51 722.117 2341.88 721.746L2285.48 690.234 2316.99 746.637C2317.36 740.266 2320.21 734.047 2324.75 729.508" fill="#231f20" fill-rule="evenodd" />
<path transform="matrix(.1,0,0,-.1,106.272,518.862)" stroke-width="5.6693" stroke-linecap="butt" stroke-miterlimit="22.9256" stroke-linejoin="miter" fill="none" stroke="#231f20" d="M3273.04 1330.81C3125.3 1474.1 2927.57 1554.24 2721.76 1554.23" />
<path transform="matrix(.1,0,0,-.1,106.272,518.862)" d="M3242.31 1360.61C3237.85 1356 3231.67 1353.06 3225.3 1352.59L3282.18 1321.95 3249.82 1377.86C3249.54 1371.48 3246.78 1365.22 3242.31 1360.61" fill="#231f20" fill-rule="evenodd" />
<path transform="matrix(.1,0,0,-.1,106.272,518.862)" stroke-width="5.6693" stroke-linecap="butt" stroke-dasharray="107.717,17.0079,5.6693,17.0079" stroke-miterlimit="22.9256" stroke-linejoin="miter" fill="none" stroke="#231f20" d="M2203.43 244.086 3240.42 1281.07" />
<path transform="matrix(.1,0,0,-.1,106.272,518.862)" stroke-width="5.6693" stroke-linecap="butt" stroke-miterlimit="22.9256" stroke-linejoin="miter" fill="none" stroke="#231f20" d="M3240.42 1281.07 3474.41 1515.06" />
<path transform="matrix(.1,0,0,-.1,106.272,518.862)" d="M3444.14 1484.79C3439.6 1489.33 3433.38 1492.18 3427.02 1492.56L3483.41 1524.07 3451.91 1467.67C3451.54 1474.04 3448.68 1480.26 3444.14 1484.79" fill="#231f20" fill-rule="evenodd" />
<path transform="matrix(.1,0,0,-.1,106.272,518.862)" stroke-width="5.6693" stroke-linecap="butt" stroke-miterlimit="22.9256" stroke-linejoin="miter" fill="none" stroke="#231f20" d="M3139 345.172 3474.41 9.75781" />
<path transform="matrix(.1,0,0,-.1,106.272,518.862)" d="M3444.15 40.0234C3448.69 44.5625 3451.54 50.7813 3451.91 57.1523L3483.42 .75 3427.02 32.2578C3433.39 32.6328 3439.61 35.4883 3444.15 40.0234" fill="#231f20" fill-rule="evenodd" />
<path transform="matrix(.1,0,0,-.1,106.272,518.862)" stroke-width="5.6693" stroke-linecap="butt" stroke-dasharray="107.717,17.0079,5.6693,17.0079" stroke-miterlimit="22.9256" stroke-linejoin="miter" fill="none" stroke="#231f20" d="M441.379 762.414H3455.67" />
<path transform="matrix(.1,0,0,-.1,106.272,518.862)" stroke-width="5.6693" stroke-linecap="butt" stroke-miterlimit="22.9256" stroke-linejoin="miter" fill="none" stroke="#231f20" d="M3455.67 762.414H3786.18" />
<path transform="matrix(.1,0,0,-.1,106.272,518.862)" d="M3743.37 762.414C3743.38 768.832 3740.99 775.246 3736.75 780.012L3798.92 762.414 3736.75 744.813C3740.99 749.578 3743.37 756 3743.37 762.414" fill="#231f20" fill-rule="evenodd" />
<path transform="matrix(.1,0,0,-.1,106.272,518.862)" stroke-width="5.6693" stroke-linecap="butt" stroke-dasharray="107.717,17.0079,5.6693,17.0079" stroke-miterlimit="22.9256" stroke-linejoin="miter" fill="none" stroke="#231f20" d="M2721.76 30.5977V1495.91" />
<path transform="matrix(.1,0,0,-.1,106.272,518.862)" stroke-width="5.6693" stroke-linecap="butt" stroke-miterlimit="22.9256" stroke-linejoin="miter" fill="none" stroke="#231f20" d="M2721.76 1495.91V1826.82" />
<path transform="matrix(.1,0,0,-.1,106.272,518.862)" d="M2721.76 1784.02C2715.34 1784.02 2708.93 1781.64 2704.16 1777.39L2721.76 1839.56 2739.36 1777.39C2734.59 1781.64 2728.18 1784.02 2721.76 1784.02" fill="#231f20" fill-rule="evenodd" />
<path transform="matrix(.1,0,0,-.1,106.272,518.862)" stroke-width="11.3386" stroke-linecap="butt" stroke-miterlimit="22.9256" stroke-linejoin="miter" fill="none" stroke="#231f20" d="M740.273 1234.41 453.457 407.379" />
<path transform="matrix(.1,0,0,-.1,106.272,518.862)" stroke-width="5.6693" stroke-linecap="butt" stroke-miterlimit="22.9256" stroke-linejoin="miter" fill="none" stroke="#231f20" d="M629.605 801.512 616.047 762.414M669.926 917.75 653.867 944.641M663.199 898.355 653.867 944.641M656.473 878.961 672.523 852.063M663.199 898.355 672.523 852.063M656.473 878.961 640.414 905.852M649.742 859.563 640.414 905.852M643.016 840.168 659.07 813.273M649.742 859.563 659.07 813.273M643.016 840.168 626.961 867.059M636.289 820.77 626.961 867.059M629.563 801.375 645.617 774.48M636.289 820.77 645.617 774.48M669.809 917.41 684.691 960.324" />
<path transform="matrix(.1,0,0,-.1,106.272,518.862)" stroke-width="5.6693" stroke-linecap="butt" stroke-miterlimit="22.9256" stroke-linejoin="miter" fill="none" stroke="#231f20" d="M602.488 723.316 616.047 762.414M562.172 607.078 552.844 653.371M568.898 626.473 552.844 653.371M575.625 645.867 584.953 599.578M568.898 626.473 584.953 599.578M575.625 645.867 566.297 692.16M582.352 665.266 566.297 692.16M589.082 684.66 598.41 638.371M582.352 665.266 598.41 638.371M589.082 684.66 579.75 730.953M595.809 704.055 579.75 730.953M602.535 723.449 611.863 677.16M595.809 704.055 611.863 677.16M562.289 607.414 547.406 564.5" />
<path transform="matrix(.1,0,0,-.1,106.272,518.862)" stroke-width="5.6693" stroke-linecap="butt" stroke-dasharray="56.693,17.0079,11.3386,17.0079" stroke-miterlimit="22.9256" stroke-linejoin="miter" fill="none" stroke="#231f20" d="M838.617 1173.71 875.855 1281.07" />
<path transform="matrix(.1,0,0,-.1,106.272,518.862)" stroke-width="5.6693" stroke-linecap="butt" stroke-miterlimit="22.9256" stroke-linejoin="miter" fill="none" stroke="#231f20" d="M695.984 1553.89C766.305 1553.89 833.941 1476.08 884.949 1336.52" />
<path transform="matrix(.1,0,0,-.1,106.272,518.862)" d="M870.254 1376.72C876.285 1378.92 881.492 1383.36 884.516 1388.98L889.324 1324.55 851.453 1376.9C857.387 1374.55 864.227 1374.52 870.254 1376.72" fill="#231f20" fill-rule="evenodd" />
<path transform="matrix(.1,0,0,-.1,106.272,518.862)" stroke-width="5.6693" stroke-linecap="butt" stroke-miterlimit="22.9256" stroke-linejoin="miter" fill="none" stroke="#231f20" d="M1538.54 1276.86C1619.44 1276.86 1690.21 1119.96 1710.99 894.559" />
<path transform="matrix(.1,0,0,-.1,106.272,518.862)" d="M1707.05 937.18C1713.45 937.766 1719.62 940.727 1723.97 945.387L1712.16 881.871 1688.92 942.156C1694.05 938.371 1700.67 936.59 1707.05 937.18" fill="#231f20" fill-rule="evenodd" />
<path transform="matrix(.1,0,0,-.1,106.272,518.862)" stroke-width="11.3386" stroke-linecap="butt" stroke-miterlimit="22.9256" stroke-linejoin="miter" fill="none" stroke="#231f20" d="M1550.64 932.75C1563.8 962.32 1580.01 978.383 1596.7 978.383 1638.07 978.383 1671.6 881.691 1671.6 762.414 1671.6 643.137 1638.07 546.445 1596.7 546.445 1581.14 546.445 1565.97 560.406 1553.3 586.387" />
<path transform="matrix(.1,0,0,-.1,106.272,518.862)" d="M1574.39 543.148C1567.91 539.988 1562.6 534.422 1559.88 527.785L1547.02 599.258 1595.44 545.137C1588.53 547.07 1580.88 546.313 1574.39 543.148" fill="#231f20" fill-rule="evenodd" />
<path transform="matrix(.1,0,0,-.1,106.272,518.862)" stroke-width="11.3386" stroke-linecap="butt" stroke-miterlimit="22.9256" stroke-linejoin="miter" fill="none" stroke="#231f20" d="M1356.16 856.844C1374.2 856.844 1388.91 814.422 1388.91 762.414 1388.91 710.402 1374.2 667.984 1356.16 667.984M1195.78 667.984C1177.74 667.984 1163.02 710.402 1163.02 762.414 1163.02 814.422 1177.74 856.844 1195.78 856.844 1213.82 856.844 1228.53 814.422 1228.53 762.414 1228.53 710.402 1213.82 667.984 1195.78 667.984ZM1356.16 856.844H1195.78M1356.16 667.973H1195.78" />
<path transform="matrix(.1,0,0,-.1,106.272,518.862)" stroke-width="5.6693" stroke-linecap="butt" stroke-dasharray="107.717,17.0079,5.6693,17.0079" stroke-miterlimit="22.9256" stroke-linejoin="miter" fill="none" stroke="#231f20" d="M1538.54 762.414V1349.43" />
<path transform="matrix(.1,0,0,-.1,106.272,518.862)" stroke-width="5.6693" stroke-linecap="butt" stroke-dasharray="56.693,17.0079,11.3386,17.0079" stroke-miterlimit="22.9256" stroke-linejoin="miter" fill="none" stroke="#231f20" d="M1537.84 761.758 1742.26 902.617" />
<path transform="matrix(.1,0,0,-.1,106.272,518.862)" stroke-width="5.6693" stroke-linecap="butt" stroke-miterlimit="22.9256" stroke-linejoin="miter" fill="none" stroke="#231f20" d="M1196.07 895.004C1202.23 902.5 1208.83 906.359 1215.51 906.359 1243.08 906.359 1265.43 841.914 1265.43 762.414" />
<path transform="matrix(.1,0,0,-.1,106.272,518.862)" stroke-width="5.6693" stroke-linecap="butt" stroke-miterlimit="22.9256" stroke-linejoin="miter" fill="none" stroke="#231f20" d="M1137 891.898C1143.8 901.414 1151.26 906.359 1158.82 906.359 1186.39 906.359 1208.74 841.914 1208.74 762.414 1208.74 682.914 1186.39 618.469 1158.82 618.469 1151.61 618.469 1144.48 622.973 1137.93 631.672" />
<path transform="matrix(.1,0,0,-.1,106.272,518.862)" stroke-width="5.6693" stroke-linecap="butt" stroke-miterlimit="22.9256" stroke-linejoin="miter" fill="none" stroke="#231f20" d="M1064.53 857.121C1074.01 888.406 1087.71 906.359 1102.13 906.359 1129.7 906.359 1152.05 841.914 1152.05 762.414 1152.05 682.914 1129.7 618.469 1102.13 618.469 1094.54 618.469 1087.05 623.449 1080.24 633.035" />
<path transform="matrix(.1,0,0,-.1,106.272,518.862)" stroke-width="5.6693" stroke-linecap="butt" stroke-miterlimit="22.9256" stroke-linejoin="miter" fill="none" stroke="#231f20" d="M1095.36 762.414C1095.36 682.914 1073 618.469 1045.43 618.469 1031.11 618.469 1017.47 636.211 1007.99 667.184" />
<path transform="matrix(.1,0,0,-.1,106.272,518.862)" stroke-width="11.3386" stroke-linecap="butt" stroke-miterlimit="22.9256" stroke-linejoin="miter" fill="none" stroke="#231f20" d="M1538.54 618.496H1356.16M1538.54 906.359H1356.16M1538.54 906.359C1566.04 906.359 1588.47 841.695 1588.47 762.414 1588.47 683.133 1566.04 618.469 1538.54 618.469M1318.33 856.316C1327.69 887.805 1341.73 906.359 1356.16 906.359 1383.66 906.359 1406.09 841.695 1406.09 762.414 1406.09 683.133 1383.66 618.469 1356.16 618.469 1341.73 618.469 1327.88 637.023 1318.52 667.949" />
<path transform="matrix(.1,0,0,-.1,106.272,518.862)" stroke-width="11.3386" stroke-linecap="butt" stroke-miterlimit="22.9256" stroke-linejoin="miter" fill="none" stroke="#231f20" d="M1108.74 856.844H980.789M1108.74 856.844C1126.78 856.844 1141.49 814.422 1141.49 762.414 1141.49 710.402 1126.78 667.984 1108.74 667.984M1108.74 667.973H980.551" />
<path transform="matrix(.1,0,0,-.1,106.272,518.862)" d="M1274.68 771.063C1279.46 766.285 1279.46 758.543 1274.68 753.766 1269.9 748.988 1262.16 748.988 1257.38 753.766 1252.61 758.543 1252.61 766.285 1257.38 771.063 1262.16 775.84 1269.9 775.84 1274.68 771.063" fill="#231f20" fill-rule="evenodd" />
<path transform="matrix(.1,0,0,-.1,106.272,518.862)" stroke-width="5.6693" stroke-linecap="butt" stroke-miterlimit="22.9256" stroke-linejoin="miter" fill="none" stroke="#231f20" d="M1274.68 771.063C1279.46 766.285 1279.46 758.543 1274.68 753.766 1269.9 748.988 1262.16 748.988 1257.38 753.766 1252.61 758.543 1252.61 766.285 1257.38 771.063 1262.16 775.84 1269.9 775.84 1274.68 771.063Z" />
<path transform="matrix(.1,0,0,-.1,106.272,518.862)" d="M1103.62 771.063C1108.4 766.285 1108.4 758.543 1103.62 753.766 1098.85 748.988 1091.1 748.988 1086.32 753.766 1081.55 758.543 1081.55 766.285 1086.32 771.063 1091.1 775.84 1098.85 775.84 1103.62 771.063" fill="#231f20" fill-rule="evenodd" />
<path transform="matrix(.1,0,0,-.1,106.272,518.862)" stroke-width="5.6693" stroke-linecap="butt" stroke-miterlimit="22.9256" stroke-linejoin="miter" fill="none" stroke="#231f20" d="M1103.62 771.063C1108.4 766.285 1108.4 758.543 1103.62 753.766 1098.85 748.988 1091.1 748.988 1086.32 753.766 1081.55 758.543 1081.55 766.285 1086.32 771.063 1091.1 775.84 1098.85 775.84 1103.62 771.063Z" />
<path transform="matrix(.1,0,0,-.1,106.272,518.862)" d="M1547.1 771.063C1551.88 766.285 1551.88 758.543 1547.1 753.766 1542.33 748.988 1534.58 748.988 1529.8 753.766 1525.03 758.543 1525.03 766.285 1529.8 771.063 1534.58 775.84 1542.33 775.84 1547.1 771.063" fill="#231f20" fill-rule="evenodd" />
<path transform="matrix(.1,0,0,-.1,106.272,518.862)" stroke-width="5.6693" stroke-linecap="butt" stroke-miterlimit="22.9256" stroke-linejoin="miter" fill="none" stroke="#231f20" d="M1547.1 771.063C1551.88 766.285 1551.88 758.543 1547.1 753.766 1542.33 748.988 1534.58 748.988 1529.8 753.766 1525.03 758.543 1525.03 766.285 1529.8 771.063 1534.58 775.84 1542.33 775.84 1547.1 771.063Z" />
<path transform="matrix(.1,0,0,-.1,106.272,518.862)" d="M624.695 771.063C629.473 766.285 629.473 758.543 624.695 753.766 619.918 748.988 612.176 748.988 607.398 753.766 602.621 758.543 602.621 766.285 607.398 771.063 612.176 775.84 619.918 775.84 624.695 771.063" fill="#231f20" fill-rule="evenodd" />
<path transform="matrix(.1,0,0,-.1,106.272,518.862)" stroke-width="5.6693" stroke-linecap="butt" stroke-miterlimit="22.9256" stroke-linejoin="miter" fill="none" stroke="#231f20" d="M624.695 771.063C629.473 766.285 629.473 758.543 624.695 753.766 619.918 748.988 612.176 748.988 607.398 753.766 602.621 758.543 602.621 766.285 607.398 771.063 612.176 775.84 619.918 775.84 624.695 771.063Z" />
<path transform="matrix(.1,0,0,-.1,106.272,518.862)" stroke-width="5.6693" stroke-linecap="butt" stroke-dasharray="107.717,17.0079,5.6693,17.0079" stroke-miterlimit="22.9256" stroke-linejoin="miter" fill="none" stroke="#231f20" d="M695.984 1167.93V1495.91" />
<path transform="matrix(.1,0,0,-.1,106.272,518.862)" stroke-width="5.6693" stroke-linecap="butt" stroke-miterlimit="22.9256" stroke-linejoin="miter" fill="none" stroke="#231f20" d="M695.984 1495.91V1826.82" />
<path transform="matrix(.1,0,0,-.1,106.272,518.862)" d="M695.984 1784.02C689.566 1784.02 683.152 1781.64 678.387 1777.39L695.984 1839.56 713.586 1777.39C708.82 1781.64 702.402 1784.02 695.984 1784.02" fill="#231f20" fill-rule="evenodd" />
<path transform="matrix(.1,0,0,-.1,106.272,518.862)" stroke-width="11.3386" stroke-linecap="butt" stroke-miterlimit="22.9256" stroke-linejoin="miter" fill="none" stroke="#231f20" d="M818.383 1231.51C826.004 1214.99 833.207 1196.94 839.953 1177.5 846.641 1158.22 852.852 1137.62 858.543 1115.86" />
<path transform="matrix(.1,0,0,-.1,106.272,518.862)" stroke-width="5.6693" stroke-linecap="butt" stroke-miterlimit="22.9256" stroke-linejoin="miter" fill="none" stroke="#231f20" d="M875.332 1279.51 955.875 1511.72" />
<path transform="matrix(.1,0,0,-.1,106.272,518.862)" d="M941.848 1471.29C935.781 1473.39 928.941 1473.24 923.051 1470.8L960.047 1523.76 956.309 1459.26C953.191 1464.83 947.91 1469.18 941.848 1471.29" fill="#231f20" fill-rule="evenodd" />
<path transform="matrix(.1,0,0,-.1,106.272,518.862)" stroke-width="11.3386" stroke-linecap="butt" stroke-miterlimit="22.9256" stroke-linejoin="miter" fill="none" stroke="#231f20" d="M776.148 1349.41C830.801 1350.88 883.363 1288.93 922.012 1177.5 1001.52 948.254 1001.52 576.574 922.012 347.328 883.367 235.91 830.809 173.961 776.16 175.422" />
<path transform="matrix(.1,0,0,-.1,106.272,518.862)" stroke-width="11.3386" stroke-linecap="butt" stroke-miterlimit="22.9256" stroke-linejoin="miter" fill="none" stroke="#231f20" d="M738.551 1230.6H818.262" />
<path transform="matrix(.1,0,0,-.1,106.272,518.862)" stroke-width="11.3386" stroke-linecap="butt" stroke-miterlimit="22.9256" stroke-linejoin="miter" fill="none" stroke="#231f20" d="M776.043 1116.3H858.535" />
<path transform="matrix(.1,0,0,-.1,106.272,518.862)" stroke-width="11.3386" stroke-linecap="butt" stroke-miterlimit="22.9256" stroke-linejoin="miter" fill="none" stroke="#231f20" d="M776.043 1349.43H616.047" />
<path transform="matrix(.1,0,0,-.1,106.272,518.862)" stroke-width="11.3386" stroke-linecap="butt" stroke-miterlimit="22.9256" stroke-linejoin="miter" fill="none" stroke="#231f20" d="M776.043 175.43H616.047" />
<path transform="matrix(.1,0,0,-.1,106.272,518.862)" stroke-width="11.3386" stroke-linecap="butt" stroke-miterlimit="22.9256" stroke-linejoin="miter" fill="none" stroke="#231f20" d="M453.289 409.742C392.371 643.449 400.379 970.777 472.078 1177.5 543.77 1384.19 657.281 1407.32 738.34 1231.74" />
<path transform="matrix(.1,0,0,-.1,106.272,518.862)" stroke-width="11.3386" stroke-linecap="butt" stroke-miterlimit="22.9256" stroke-linejoin="miter" fill="none" stroke="#231f20" d="M455.086 408.016H532.359" />
<path transform="matrix(.1,0,0,-.1,106.272,518.862)" stroke-width="5.6693" stroke-linecap="butt" stroke-dasharray="107.717,17.0079,5.6693,17.0079" stroke-miterlimit="22.9256" stroke-linejoin="miter" fill="none" stroke="#231f20" d="M695.984 30.5977V819.344" />
<path transform="matrix(.1,0,0,-.1,106.272,518.862)" stroke-width="5.6693" stroke-linecap="butt" stroke-miterlimit="22.9256" stroke-linejoin="miter" fill="none" stroke="#231f20" d="M811.441 1214.57 783.047 1132.69" />
<path transform="matrix(.1,0,0,-.1,106.272,518.862)" stroke-width="5.6693" stroke-linecap="butt" stroke-miterlimit="22.9256" stroke-linejoin="miter" fill="none" stroke="#231f20" d="M386.891 762.414H60.4375" />
<path transform="matrix(.1,0,0,-.1,106.272,518.862)" d="M103.242 762.414C103.238 755.996 105.621 749.582 109.859 744.813L47.6953 762.414 109.859 780.012C105.621 775.25 103.242 768.828 103.242 762.414" fill="#231f20" fill-rule="evenodd" />
<path transform="matrix(.1,0,0,-.1,106.272,518.862)" stroke-width="11.3386" stroke-linecap="butt" stroke-miterlimit="22.9256" stroke-linejoin="miter" fill="none" stroke="#231f20" d="M149.258 1833.61V1245.25" />
<path transform="matrix(.1,0,0,-.1,106.272,518.862)" d="M149.258 1293.39C156.477 1293.39 163.691 1296.07 169.055 1300.84L149.258 1230.92 129.457 1300.84C134.82 1296.07 142.039 1293.39 149.258 1293.39" fill="#231f20" fill-rule="evenodd" />
<path transform="matrix(.1,0,0,-.1,106.272,518.862)" d="M3797.04 678.016C3799.92 678.016 3800.64 678.016 3800.64 680.895 3800.64 684.496 3799.92 693.133 3794.16 698.895 3789.12 703.934 3782.64 705.375 3775.44 705.375 3756.72 705.375 3746.64 693.133 3746.64 678.016 3746.64 661.453 3758.88 650.656 3776.88 650.656 3795.6 650.656 3800.64 663.613 3800.64 665.055 3800.64 667.215 3799.2 667.215 3798.48 667.215 3796.32 667.215 3796.32 666.496 3795.6 665.055 3792 657.133 3784.08 654.973 3778.32 654.973 3761.04 654.973 3761.04 670.816 3761.04 678.016H3797.04ZM3761.04 681.613C3761.76 685.934 3761.76 690.973 3763.92 695.293 3766.08 698.895 3770.4 701.773 3775.44 701.773 3788.4 701.773 3789.84 687.375 3789.84 681.613H3761.04" fill-rule="evenodd" />
<path transform="matrix(.1,0,0,-.1,106.272,518.862)" d="M3835.2 749.293C3835.92 751.453 3835.92 752.895 3842.4 752.895 3843.84 752.895 3845.28 752.895 3845.28 754.336 3845.28 754.336 3844.56 755.055 3843.84 755.055 3842.4 755.055 3840.24 755.055 3838.8 755.055H3828C3826.56 755.055 3823.68 755.055 3822.24 755.055 3822.24 755.055 3820.8 755.055 3820.8 753.613 3820.8 752.895 3822.24 752.895 3823.68 752.895 3828.72 752.895 3828.72 752.176 3828.72 751.453 3828.72 750.734 3828.72 750.734 3828 749.293L3817.92 706.816C3817.2 703.934 3816.48 703.215 3810.72 703.215 3808.56 703.215 3807.84 703.215 3807.84 701.773 3807.84 701.773 3808.56 701.055 3809.28 701.055 3810.72 701.055 3812.88 701.055 3814.32 701.055H3825.12C3826.56 701.055 3829.44 701.055 3830.16 701.055 3830.88 701.055 3832.32 701.055 3832.32 702.496 3832.32 703.215 3830.88 703.215 3829.44 703.215 3828 703.215 3828 703.215 3826.56 703.215 3825.12 703.934 3824.4 703.934 3824.4 704.656 3824.4 705.375 3824.4 705.375 3824.4 706.094L3835.2 749.293" fill-rule="evenodd" />
<path transform="matrix(.1,0,0,-.1,106.272,518.862)" d="M3844.56 653.535C3840.96 652.816 3840.96 649.934 3840.96 649.215 3840.96 647.773 3841.68 646.336 3843.84 646.336 3845.28 646.336 3848.16 647.773 3848.16 651.375 3848.16 655.695 3843.12 657.133 3840.24 657.133 3836.64 657.133 3833.76 654.254 3831.6 651.375 3830.16 655.695 3825.84 657.133 3822.24 657.133 3813.6 657.133 3809.28 647.055 3809.28 644.895 3809.28 644.176 3809.28 643.453 3810 643.453 3811.44 643.453 3811.44 644.176 3811.44 644.895 3813.6 650.656 3817.92 654.973 3822.24 654.973 3825.12 654.973 3826.56 652.816 3826.56 649.934 3826.56 647.773 3825.84 644.176 3825.12 642.016 3824.4 639.855 3822.96 632.656 3822.24 631.215 3821.52 626.895 3818.64 623.293 3815.04 623.293 3815.04 623.293 3812.88 623.293 3810.72 624.734 3814.32 625.453 3814.32 628.336 3814.32 629.055 3814.32 630.496 3812.88 631.934 3811.44 631.934 3809.28 631.934 3807.12 629.773 3807.12 626.895 3807.12 623.293 3810.72 621.133 3815.04 621.133 3819.36 621.133 3822.24 624.016 3823.68 626.895 3825.12 622.574 3828.72 621.133 3833.04 621.133 3841.68 621.133 3846 631.215 3846 633.375 3846 634.094 3845.28 634.094 3845.28 634.094 3843.84 634.094 3843.84 633.375 3843.84 632.656 3842.4 627.613 3837.36 623.293 3833.04 623.293 3830.16 623.293 3828.72 624.734 3828.72 628.336 3828.72 629.773 3828.72 631.934 3830.16 636.254 3830.88 638.414 3832.32 645.613 3833.04 647.055 3833.76 651.375 3836.64 654.973 3840.24 654.973 3840.96 654.973 3842.4 654.973 3844.56 653.535" fill-rule="evenodd" />
<path transform="matrix(.1,0,0,-.1,106.272,518.862)" d="M2808.26 1754.15C2810.42 1754.15 2811.14 1754.15 2811.14 1757.04 2811.14 1760.63 2810.42 1769.27 2805.38 1775.04 2800.34 1780.07 2793.14 1781.52 2786.66 1781.52 2767.94 1781.52 2757.86 1769.27 2757.86 1754.15 2757.86 1737.59 2770.1 1726.79 2788.1 1726.79 2806.1 1726.79 2811.14 1739.75 2811.14 1741.2 2811.14 1743.36 2809.7 1743.36 2808.98 1743.36 2806.82 1743.36 2806.82 1742.63 2806.1 1741.2 2803.22 1733.27 2795.3 1731.11 2789.54 1731.11 2772.26 1731.11 2772.26 1746.95 2772.26 1754.15H2808.26ZM2772.26 1757.75C2772.26 1762.07 2772.26 1767.11 2775.14 1771.43 2777.3 1775.04 2781.62 1777.91 2786.66 1777.91 2798.9 1777.91 2800.34 1763.52 2800.34 1757.75H2772.26" fill-rule="evenodd" />
<path transform="matrix(.1,0,0,-.1,106.272,518.862)" d="M2846.42 1825.43C2847.14 1827.59 2847.14 1829.04 2852.9 1829.04 2855.06 1829.04 2855.78 1829.04 2855.78 1830.47 2855.78 1830.47 2855.78 1831.2 2854.34 1831.2 2853.62 1831.2 2850.74 1831.2 2849.3 1831.2H2838.5C2837.78 1831.2 2834.9 1831.2 2833.46 1831.2 2833.46 1831.2 2832.02 1831.2 2832.02 1829.75 2832.02 1829.04 2832.74 1829.04 2834.18 1829.04 2839.22 1829.04 2839.22 1828.31 2839.22 1827.59 2839.22 1826.88 2839.22 1826.88 2839.22 1825.43L2828.42 1782.95C2827.7 1780.07 2827.7 1779.36 2821.94 1779.36 2819.78 1779.36 2819.06 1779.36 2819.06 1777.91 2819.06 1777.91 2819.06 1777.2 2820.5 1777.2 2821.22 1777.2 2824.1 1777.2 2824.82 1777.2H2836.34C2837.06 1777.2 2839.94 1777.2 2841.38 1777.2 2842.1 1777.2 2842.82 1777.2 2842.82 1778.63 2842.82 1779.36 2842.1 1779.36 2839.94 1779.36 2839.22 1779.36 2838.5 1779.36 2837.06 1779.36 2835.62 1780.07 2834.9 1780.07 2834.9 1780.79 2834.9 1781.52 2835.62 1781.52 2835.62 1782.23L2846.42 1825.43" fill-rule="evenodd" />
<path transform="matrix(.1,0,0,-.1,106.272,518.862)" d="M2856.5 1728.23C2857.22 1728.95 2857.22 1729.68 2857.22 1729.68 2857.22 1731.83 2855.06 1732.55 2854.34 1732.55 2853.62 1732.55 2852.18 1732.55 2850.74 1730.39 2850.74 1729.68 2850.02 1726.79 2850.02 1725.36L2844.98 1705.91C2844.98 1705.91 2841.38 1699.43 2835.62 1699.43 2832.02 1699.43 2830.58 1702.31 2830.58 1705.91 2830.58 1710.23 2833.46 1717.43 2834.9 1722.47 2835.62 1723.91 2836.34 1724.63 2836.34 1726.07 2836.34 1731.11 2832.74 1733.27 2829.14 1733.27 2821.22 1733.27 2817.62 1721.75 2817.62 1721.04 2817.62 1720.31 2818.34 1719.59 2819.06 1719.59 2819.78 1719.59 2819.78 1720.31 2820.5 1721.04 2821.94 1728.23 2825.54 1731.11 2828.42 1731.11 2829.86 1731.11 2830.58 1730.39 2830.58 1728.23 2830.58 1726.79 2829.86 1724.63 2829.14 1723.2 2826.26 1714.55 2824.82 1710.95 2824.82 1707.36 2824.82 1699.43 2830.58 1697.27 2835.62 1697.27 2839.22 1697.27 2842.1 1698.71 2843.54 1700.88 2842.82 1696.55 2842.1 1692.95 2838.5 1689.36 2836.34 1685.75 2832.74 1684.31 2829.14 1684.31 2827.7 1684.31 2824.82 1684.31 2823.38 1686.47 2827.7 1687.2 2827.7 1690.79 2827.7 1690.79 2827.7 1692.95 2826.26 1693.68 2824.82 1693.68 2822.66 1693.68 2820.5 1692.23 2820.5 1688.63 2820.5 1685.04 2823.38 1681.43 2829.14 1681.43 2837.78 1681.43 2846.42 1687.91 2849.3 1697.99L2856.5 1728.23" fill-rule="evenodd" />
<path transform="matrix(.1,0,0,-.1,106.272,518.862)" d="M51.3438 637.594C54.2266 637.594 54.9453 637.594 54.9453 640.473 54.9453 644.074 54.2266 652.711 48.4648 658.473 43.4258 663.512 36.9453 664.953 29.7461 664.953 11.0234 664.953 .945313 652.711 .945313 637.594 .945313 621.031 13.1836 610.234 31.1836 610.234 49.1836 610.234 54.9453 623.191 54.9453 624.633 54.9453 626.793 52.7852 626.793 52.0664 626.793 50.625 626.793 49.9063 626.074 49.1836 624.633 46.3047 616.711 38.3867 614.551 32.625 614.551 15.3438 614.551 15.3438 630.391 15.3438 637.594H51.3438ZM15.3438 641.191C15.3438 645.512 15.3438 650.551 18.2266 654.871 20.3867 658.473 24.7031 661.352 29.7461 661.352 42.7031 661.352 43.4258 646.953 43.4258 641.191H15.3438" fill-rule="evenodd" />
<path transform="matrix(.1,0,0,-.1,106.272,518.862)" d="M89.5039 708.871C90.2266 711.031 90.2266 712.473 96.7031 712.473 98.1445 712.473 98.8633 712.473 98.8633 713.914 98.8633 713.914 98.8633 714.633 98.1445 714.633 96.7031 714.633 93.8242 714.633 93.1055 714.633H81.5859C80.8633 714.633 77.9844 714.633 76.543 714.633 76.543 714.633 75.1055 714.633 75.1055 713.191 75.1055 712.473 75.8242 712.473 77.9844 712.473 83.0234 712.473 83.0234 711.754 83.0234 711.031 83.0234 710.313 83.0234 710.313 82.3047 708.871L72.2266 666.391C71.5039 663.512 70.7852 662.793 65.0234 662.793 62.8633 662.793 62.1445 662.793 62.1445 661.352 62.1445 661.352 62.8633 660.633 63.5859 660.633 64.3047 660.633 67.1836 660.633 68.625 660.633H79.4258C80.8633 660.633 83.7461 660.633 84.4648 660.633 85.1836 660.633 85.9063 660.633 85.9063 662.074 85.9063 662.793 85.1836 662.793 83.7461 662.793 82.3047 662.793 81.5859 662.793 80.8633 662.793 79.4258 663.512 78.7031 663.512 78.7031 664.23 78.7031 664.953 78.7031 664.953 78.7031 665.672L89.5039 708.871" fill-rule="evenodd" />
<path transform="matrix(.1,0,0,-.1,106.272,518.862)" d="M70.0664 588.633C72.9453 591.512 73.6641 592.234 80.8633 597.992 81.5859 598.711 87.3438 603.031 89.5039 605.191 94.5469 610.234 97.4258 614.551 97.4258 615.273 97.4258 615.992 96.7031 616.711 96.7031 616.711 95.9844 616.711 95.2656 616.711 94.5469 615.273 92.3867 611.672 90.9453 610.953 89.5039 610.953 87.3438 610.953 86.625 611.672 85.1836 613.113 83.0234 615.273 81.5859 616.711 78.7031 616.711 72.2266 616.711 68.625 609.512 68.625 607.352 68.625 607.352 68.625 606.633 70.0664 606.633 70.7852 606.633 70.7852 606.633 70.7852 607.352 72.2266 609.512 75.8242 610.953 77.9844 610.953 79.4258 610.953 81.5859 610.234 83.7461 609.512 86.625 608.793 87.3438 608.793 89.5039 608.793 88.0664 606.633 85.9063 604.473 79.4258 599.434 75.8242 596.551 72.9453 594.391 70.7852 592.234 65.0234 586.473 62.1445 582.152 62.1445 581.434 62.1445 580.711 62.8633 580.711 63.5859 580.711 64.3047 580.711 64.3047 580.711 65.0234 581.434 66.4648 583.594 68.625 586.473 71.5039 586.473 73.6641 586.473 74.3867 585.754 75.8242 584.313 78.7031 581.434 80.1445 580.711 82.3047 580.711 90.2266 580.711 95.2656 590.793 95.2656 592.953 95.2656 593.672 95.2656 593.672 94.5469 593.672 93.1055 593.672 93.1055 593.672 93.1055 592.953 91.6641 588.633 87.3438 586.473 83.0234 586.473 81.5859 586.473 80.1445 587.191 77.2656 587.914 74.3867 588.633 72.9453 588.633 72.2266 588.633 71.5039 588.633 70.7852 588.633 70.0664 588.633" fill-rule="evenodd" />
<path transform="matrix(.1,0,0,-.1,106.272,518.862)" d="M193.813 649.832C195.25 649.832 197.41 649.832 197.41 651.992 197.41 654.152 195.25 654.152 193.813 654.152H123.25C121.813 654.152 119.652 654.152 119.652 651.992 119.652 649.832 121.813 649.832 123.25 649.832H193.813ZM193.813 627.512C195.25 627.512 197.41 627.512 197.41 629.672 197.41 631.832 195.25 631.832 193.813 631.832H123.25C121.813 631.832 119.652 631.832 119.652 629.672 119.652 627.512 121.813 627.512 123.25 627.512H193.813" fill-rule="evenodd" />
<path transform="matrix(.1,0,0,-.1,106.272,518.862)" d="M272.996 637.594C275.875 637.594 276.594 637.594 276.594 640.473 276.594 644.074 275.875 652.711 270.113 658.473 265.074 663.512 258.594 664.953 252.113 664.953 233.395 664.953 223.313 652.711 223.313 637.594 223.313 621.031 235.555 610.234 253.555 610.234 271.555 610.234 276.594 623.191 276.594 624.633 276.594 626.793 275.156 626.793 274.434 626.793 272.273 626.793 272.273 626.074 271.555 624.633 268.676 616.711 260.754 614.551 254.996 614.551 237.715 614.551 236.996 630.391 236.996 637.594H272.996ZM236.996 641.191C237.715 645.512 237.715 650.551 239.875 654.871 242.754 658.473 246.355 661.352 252.113 661.352 264.355 661.352 265.793 646.953 265.793 641.191H236.996" fill-rule="evenodd" />
<path transform="matrix(.1,0,0,-.1,106.272,518.862)" d="M323.395 692.313C323.395 692.313 322.676 693.031 322.676 693.754 322.676 693.754 324.113 694.473 324.836 695.191 331.313 699.512 339.953 705.992 342.836 707.434 346.434 710.313 349.313 711.754 352.914 712.473 353.633 712.473 355.074 712.473 355.074 713.914 355.074 714.633 354.355 714.633 353.633 714.633 353.633 714.633 351.473 714.633 350.754 714.633H347.875C346.434 714.633 344.273 714.633 343.555 714.633 343.555 714.633 339.953 714.633 339.234 714.633 339.234 714.633 337.793 714.633 337.793 713.191 337.793 713.191 337.793 712.473 339.234 712.473 339.953 711.754 341.395 711.754 341.395 711.031 341.395 709.594 339.234 708.152 339.234 708.152L338.516 707.434C338.516 707.434 337.793 707.434 337.793 706.711L305.395 683.672 311.156 708.871C311.875 711.754 312.594 712.473 318.355 712.473 319.793 712.473 320.516 712.473 320.516 713.914 320.516 713.914 320.516 714.633 319.074 714.633 317.633 714.633 316.195 714.633 314.754 714.633H309.715C301.793 714.633 299.633 714.633 298.914 714.633 298.914 714.633 297.473 714.633 297.473 713.191 297.473 712.473 298.195 712.473 299.633 712.473 302.516 712.473 304.676 712.473 304.676 711.031 304.676 710.313 304.676 710.313 304.676 709.594L293.875 666.391C293.156 663.512 293.156 662.793 286.676 662.793 285.234 662.793 284.516 662.793 284.516 661.352 284.516 661.352 284.516 660.633 285.953 660.633 287.395 660.633 289.555 660.633 290.996 660.633H301.074C302.516 660.633 304.676 660.633 306.113 660.633 306.836 660.633 307.555 660.633 307.555 662.074 307.555 662.793 306.836 662.793 305.395 662.793 304.676 662.793 303.953 662.793 302.516 662.793 301.074 663.512 300.355 663.512 300.355 664.23 300.355 664.953 301.074 666.391 301.074 667.832 302.516 671.434 301.074 667.113 304.676 680.074L316.914 689.434C320.516 682.953 323.395 676.473 326.996 669.273 326.996 669.273 327.715 667.113 328.434 666.391 328.434 665.672 328.434 665.672 328.434 664.953 328.434 662.793 325.555 662.793 324.836 662.793 324.113 662.793 322.676 662.793 322.676 661.352 322.676 661.352 323.395 660.633 324.113 660.633 324.836 660.633 328.434 660.633 329.156 660.633H333.473C340.676 660.633 340.676 660.633 341.395 660.633 342.113 660.633 342.836 660.633 342.836 662.074 342.836 662.793 342.113 662.793 341.395 662.793 338.516 662.793 337.074 663.512 336.355 666.391L323.395 692.313" fill-rule="evenodd" />
<path transform="matrix(.1,0,0,-.1,106.272,518.862)" d="M292.434 588.633C295.313 591.512 296.035 592.234 303.234 597.992 303.953 598.711 309.715 603.031 311.875 605.191 316.914 610.234 319.793 614.551 319.793 615.273 319.793 615.992 319.074 616.711 318.355 616.711 317.633 616.711 317.633 616.711 316.914 615.273 314.035 611.672 312.594 610.953 311.156 610.953 309.715 610.953 308.996 611.672 306.836 613.113 305.395 615.273 303.234 616.711 301.074 616.711 294.594 616.711 290.273 609.512 290.273 607.352 290.273 607.352 290.273 606.633 291.715 606.633 292.434 606.633 292.434 606.633 293.156 607.352 293.875 609.512 297.473 610.953 299.633 610.953 301.793 610.953 303.953 610.234 305.395 609.512 308.996 608.793 309.715 608.793 311.156 608.793 309.715 606.633 307.555 604.473 301.793 599.434 298.195 596.551 294.594 594.391 292.434 592.234 286.676 586.473 283.793 582.152 283.793 581.434 283.793 580.711 284.516 580.711 285.234 580.711 285.953 580.711 285.953 580.711 286.676 581.434 288.113 583.594 290.996 586.473 293.875 586.473 295.313 586.473 296.754 585.754 298.195 584.313 300.355 581.434 301.793 580.711 303.953 580.711 312.594 580.711 317.633 590.793 317.633 592.953 317.633 593.672 316.914 593.672 316.195 593.672 315.473 593.672 315.473 593.672 314.754 592.953 313.313 588.633 308.996 586.473 305.395 586.473 303.953 586.473 301.793 587.191 299.633 587.914 296.035 588.633 295.313 588.633 293.875 588.633 293.156 588.633 293.156 588.633 292.434 588.633" fill-rule="evenodd" />
<path transform="matrix(.1,0,0,-.1,106.272,518.862)" d="M3535.43 64.6406C3538.31 64.6406 3539.03 64.6406 3539.03 67.5234 3539.03 71.1211 3537.59 79.7617 3532.55 85.5234 3527.51 90.5625 3521.03 92.0039 3513.83 92.0039 3495.11 92.0039 3485.03 79.7617 3485.03 64.6406 3485.03 48.082 3497.27 37.2813 3515.27 37.2813 3533.27 37.2813 3539.03 50.2422 3539.03 51.6836 3539.03 53.8438 3536.87 53.8438 3536.15 53.8438 3533.99 53.8438 3533.99 53.1211 3533.27 51.6836 3530.39 43.7617 3522.47 41.6016 3516.71 41.6016 3499.43 41.6016 3499.43 57.4414 3499.43 64.6406H3535.43ZM3499.43 68.2422C3499.43 72.5625 3499.43 77.6016 3502.31 81.9219 3504.47 85.5234 3508.79 88.4023 3513.83 88.4023 3526.79 88.4023 3527.51 74.0039 3527.51 68.2422H3499.43" fill-rule="evenodd" />
<path transform="matrix(.1,0,0,-.1,106.272,518.862)" d="M3585.11 119.363C3585.11 119.363 3585.11 120.082 3585.11 120.801 3585.11 120.801 3586.55 121.523 3587.27 122.242 3593.75 126.563 3601.67 133.043 3604.55 134.484 3608.87 137.363 3611.75 138.801 3615.35 139.523 3616.07 139.523 3616.79 139.523 3616.79 140.961 3616.79 141.684 3616.79 141.684 3616.07 141.684 3616.07 141.684 3613.91 141.684 3613.19 141.684H3609.59C3608.15 141.684 3606.71 141.684 3605.99 141.684 3605.27 141.684 3602.39 141.684 3601.67 141.684 3600.95 141.684 3599.51 141.684 3599.51 140.242 3599.51 140.242 3600.23 139.523 3600.95 139.523 3601.67 138.801 3603.11 138.801 3603.11 138.082 3603.11 136.641 3601.67 135.203 3600.95 135.203V134.484C3600.23 134.484 3600.23 134.484 3599.51 133.762L3567.11 110.723 3573.59 135.922C3574.31 138.801 3574.31 139.523 3580.07 139.523 3581.51 139.523 3582.95 139.523 3582.95 140.961 3582.95 140.961 3582.95 141.684 3581.51 141.684 3580.07 141.684 3577.91 141.684 3576.47 141.684H3571.43C3563.51 141.684 3561.35 141.684 3561.35 141.684 3560.63 141.684 3559.19 141.684 3559.19 140.242 3559.19 139.523 3560.63 139.523 3562.07 139.523 3564.23 139.523 3567.11 139.523 3567.11 138.082 3567.11 137.363 3566.39 137.363 3566.39 136.641L3555.59 93.4414C3554.87 90.5625 3554.87 89.8438 3549.11 89.8438 3547.67 89.8438 3546.23 89.8438 3546.23 88.4023 3546.23 88.4023 3546.95 87.6836 3547.67 87.6836 3549.11 87.6836 3551.27 87.6836 3552.71 87.6836H3562.79C3564.23 87.6836 3567.11 87.6836 3567.83 87.6836 3568.55 87.6836 3569.99 87.6836 3569.99 89.1211 3569.99 89.8438 3568.55 89.8438 3567.11 89.8438 3567.11 89.8438 3565.67 89.8438 3564.23 89.8438 3562.79 90.5625 3562.79 90.5625 3562.79 91.2813 3562.79 92.0039 3562.79 93.4414 3563.51 94.8828 3564.23 98.4844 3562.79 94.1641 3566.39 107.121L3579.35 116.484C3582.23 110.004 3585.83 103.523 3588.71 96.3242 3588.71 96.3242 3590.15 94.1641 3590.15 93.4414 3590.87 92.7227 3590.87 92.7227 3590.87 92.0039 3590.87 89.8438 3587.99 89.8438 3586.55 89.8438 3585.83 89.8438 3585.11 89.8438 3585.11 88.4023 3585.11 88.4023 3585.11 87.6836 3586.55 87.6836 3587.27 87.6836 3590.15 87.6836 3590.87 87.6836H3595.19C3603.11 87.6836 3602.39 87.6836 3603.83 87.6836 3603.83 87.6836 3605.27 87.6836 3605.27 89.1211 3605.27 89.8438 3603.83 89.8438 3603.83 89.8438 3600.23 89.8438 3599.51 90.5625 3598.07 93.4414L3585.11 119.363" fill-rule="evenodd" />
<path transform="matrix(.1,0,0,-.1,106.272,518.862)" d="M3582.23 40.1641C3579.35 39.4414 3578.63 36.5625 3578.63 35.8438 3578.63 34.4023 3580.07 32.9609 3582.23 32.9609 3583.67 32.9609 3586.55 34.4023 3586.55 38.0039 3586.55 42.3242 3581.51 43.7617 3578.63 43.7617 3575.03 43.7617 3571.43 40.8828 3569.99 38.0039 3567.83 42.3242 3564.23 43.7617 3560.63 43.7617 3551.99 43.7617 3546.95 33.6836 3546.95 31.5234 3546.95 30.8008 3547.67 30.082 3548.39 30.082 3549.11 30.082 3549.83 30.8008 3549.83 31.5234 3551.27 37.2813 3556.31 41.6016 3560.63 41.6016 3563.51 41.6016 3564.95 39.4414 3564.95 36.5625 3564.95 34.4023 3564.23 30.8008 3563.51 28.6406 3562.79 26.4844 3561.35 19.2813 3560.63 17.8438 3559.91 13.5234 3557.03 9.92188 3553.43 9.92188 3552.71 9.92188 3550.55 9.92188 3549.11 11.3633 3552.71 12.082 3552.71 14.9609 3552.71 15.6836 3552.71 17.1211 3551.27 18.5625 3549.83 18.5625 3547.67 18.5625 3545.51 16.4023 3545.51 13.5234 3545.51 9.92188 3549.11 7.76172 3553.43 7.76172 3557.03 7.76172 3560.63 10.6406 3562.07 13.5234 3563.51 9.20313 3567.11 7.76172 3570.71 7.76172 3579.35 7.76172 3584.39 17.8438 3584.39 20.0039 3584.39 20.7227 3583.67 20.7227 3582.95 20.7227 3582.23 20.7227 3582.23 20.0039 3582.23 19.2813 3580.07 14.2422 3575.75 9.92188 3571.43 9.92188 3568.55 9.92188 3566.39 11.3633 3566.39 14.9609 3566.39 16.4023 3567.11 18.5625 3568.55 22.8828 3568.55 25.043 3570.71 32.2422 3570.71 33.6836 3572.15 38.0039 3575.03 41.6016 3578.63 41.6016 3578.63 41.6016 3580.79 41.6016 3582.23 40.1641" fill-rule="evenodd" />
<path transform="matrix(.1,0,0,-.1,106.272,518.862)" d="M3481.82 1409.13C3484.7 1409.13 3485.42 1409.13 3485.42 1412.01 3485.42 1415.61 3484.7 1424.25 3478.94 1430.01 3473.89 1435.05 3467.42 1436.49 3460.21 1436.49 3441.5 1436.49 3431.42 1424.25 3431.42 1409.13 3431.42 1392.57 3443.66 1381.77 3461.66 1381.77 3479.66 1381.77 3485.42 1394.73 3485.42 1396.17 3485.42 1398.33 3483.26 1398.33 3482.54 1398.33 3481.1 1398.33 3481.1 1397.61 3480.38 1396.17 3476.78 1388.25 3468.86 1386.09 3463.1 1386.09 3445.82 1386.09 3445.82 1401.93 3445.82 1409.13H3481.82ZM3445.82 1412.73C3445.82 1417.05 3446.54 1422.09 3448.7 1426.41 3450.86 1430.01 3455.18 1432.89 3460.21 1432.89 3473.18 1432.89 3473.89 1418.49 3474.62 1412.73H3445.82" fill-rule="evenodd" />
<path transform="matrix(.1,0,0,-.1,106.272,518.862)" d="M3532.21 1463.85C3532.21 1463.85 3531.5 1464.57 3531.5 1465.29 3531.5 1465.29 3532.94 1466.01 3533.66 1466.73 3540.14 1471.05 3548.78 1477.53 3550.94 1478.97 3555.26 1481.85 3558.14 1483.29 3561.74 1484.01 3562.46 1484.01 3563.89 1484.01 3563.89 1485.45 3563.18 1486.17 3563.18 1486.17 3562.46 1486.17 3562.46 1486.17 3560.3 1486.17 3559.58 1486.17H3556.7C3555.26 1486.17 3553.1 1486.17 3552.38 1486.17 3551.66 1486.17 3548.78 1486.17 3548.05 1486.17 3547.34 1486.17 3546.62 1486.17 3546.62 1484.73 3546.62 1484.73 3546.62 1484.01 3548.05 1484.01 3548.05 1483.29 3549.5 1483.29 3549.5 1482.57 3549.5 1481.13 3548.05 1479.69 3548.05 1479.69L3547.34 1478.97C3547.34 1478.97 3546.62 1478.97 3546.62 1478.25L3513.5 1455.21 3519.98 1480.41C3520.7 1483.29 3520.7 1484.01 3526.46 1484.01 3528.62 1484.01 3529.34 1484.01 3529.34 1485.45 3529.34 1485.45 3529.34 1486.17 3527.89 1486.17 3526.46 1486.17 3524.3 1486.17 3522.86 1486.17H3517.82C3510.62 1486.17 3508.46 1486.17 3507.74 1486.17 3507.02 1486.17 3506.3 1486.17 3506.3 1484.73 3506.3 1484.01 3507.02 1484.01 3508.46 1484.01 3511.34 1484.01 3513.5 1484.01 3513.5 1482.57 3513.5 1481.85 3513.5 1481.85 3512.78 1481.13L3502.7 1437.93C3501.98 1435.05 3501.26 1434.33 3495.5 1434.33 3494.05 1434.33 3493.34 1434.33 3493.34 1432.89 3493.34 1432.89 3493.34 1432.17 3494.05 1432.17 3496.21 1432.17 3497.66 1432.17 3499.1 1432.17H3509.9C3510.62 1432.17 3513.5 1432.17 3514.94 1432.17 3514.94 1432.17 3516.38 1432.17 3516.38 1433.61 3516.38 1434.33 3515.66 1434.33 3514.21 1434.33 3513.5 1434.33 3512.05 1434.33 3510.62 1434.33 3509.18 1435.05 3509.18 1435.05 3509.18 1435.77 3509.18 1436.49 3509.9 1437.93 3509.9 1439.37 3510.62 1442.97 3509.9 1438.65 3512.78 1451.61L3525.74 1460.97C3528.62 1454.49 3532.21 1448.01 3535.1 1440.81 3535.82 1440.81 3536.54 1438.65 3536.54 1437.93 3537.26 1437.21 3537.26 1437.21 3537.26 1436.49 3537.26 1434.33 3534.38 1434.33 3533.66 1434.33 3532.94 1434.33 3531.5 1434.33 3531.5 1432.89 3531.5 1432.89 3531.5 1432.17 3532.94 1432.17 3533.66 1432.17 3536.54 1432.17 3537.26 1432.17H3542.3C3549.5 1432.17 3548.78 1432.17 3550.21 1432.17 3550.21 1432.17 3551.66 1432.17 3551.66 1433.61 3551.66 1434.33 3550.21 1434.33 3550.21 1434.33 3547.34 1434.33 3545.89 1435.05 3544.46 1437.93L3532.21 1463.85" fill-rule="evenodd" />
<path transform="matrix(.1,0,0,-.1,106.272,518.862)" d="M3530.78 1383.21C3530.78 1383.93 3530.78 1384.65 3530.78 1384.65 3530.78 1386.81 3529.34 1387.53 3527.89 1387.53 3527.89 1387.53 3525.74 1387.53 3525.02 1385.37 3525.02 1384.65 3524.3 1381.77 3523.58 1380.33L3519.26 1360.89C3518.54 1360.89 3515.66 1354.41 3509.9 1354.41 3505.58 1354.41 3504.14 1357.29 3504.14 1360.89 3504.14 1365.21 3507.02 1372.41 3509.18 1377.45 3509.9 1378.89 3509.9 1379.61 3509.9 1381.05 3509.9 1386.09 3506.3 1388.25 3502.7 1388.25 3494.78 1388.25 3491.89 1376.73 3491.89 1376.01 3491.89 1375.29 3491.89 1374.57 3492.62 1374.57 3494.05 1374.57 3494.05 1375.29 3494.05 1376.01 3496.21 1383.21 3499.82 1386.09 3502.7 1386.09 3503.42 1386.09 3504.14 1385.37 3504.14 1383.21 3504.14 1381.77 3504.14 1379.61 3503.42 1378.17 3499.82 1369.53 3498.38 1365.93 3498.38 1362.33 3498.38 1354.41 3504.86 1352.25 3509.18 1352.25 3512.78 1352.25 3515.66 1353.69 3517.82 1355.85 3516.38 1351.53 3515.66 1347.93 3512.78 1344.33 3509.9 1340.73 3507.02 1339.29 3503.42 1339.29 3501.98 1339.29 3499.1 1339.29 3496.94 1341.45 3501.26 1342.17 3501.98 1345.77 3501.98 1345.77 3501.98 1347.93 3500.54 1348.65 3498.38 1348.65 3496.94 1348.65 3494.05 1347.21 3494.05 1343.61 3494.05 1340.01 3497.66 1336.41 3503.42 1336.41 3511.34 1336.41 3520.7 1342.89 3522.86 1352.97L3530.78 1383.21" fill-rule="evenodd" />
<path transform="matrix(.1,0,0,-.1,106.272,518.862)" d="M826.078 1553.36C823.918 1553.36 822.477 1553.36 822.477 1554.08 822.477 1554.08 824.637 1565.6 825.355 1567.76 828.957 1583.6 838.316 1594.4 848.395 1594.4 856.316 1594.4 859.918 1588.64 859.918 1582.16 859.918 1568.48 844.797 1553.36 826.078 1553.36ZM821.035 1546.88C821.758 1546.88 823.195 1546.88 825.355 1546.88 844.797 1546.88 862.797 1565.6 862.797 1584.32 862.797 1592.24 859.918 1600.88 849.836 1600.88 832.555 1600.88 825.355 1576.4 818.156 1554.08 804.477 1556.96 798.715 1564.16 798.715 1572.08 798.715 1574.96 801.598 1587.92 808.078 1596.56 809.516 1598 809.516 1598.72 809.516 1598.72 809.516 1599.44 808.797 1599.44 808.078 1599.44 805.195 1599.44 795.836 1582.16 795.836 1570.64 795.836 1557.68 806.637 1549.76 815.996 1547.6L810.234 1527.44C809.516 1526 809.516 1526 809.516 1525.28 809.516 1522.4 812.395 1522.4 812.395 1522.4 813.836 1522.4 815.996 1522.4 816.715 1525.28 817.438 1526 820.316 1544.72 821.035 1546.88" fill-rule="evenodd" />
<path transform="matrix(.1,0,0,-.1,106.272,518.862)" d="M892.316 1580.72C892.316 1582.88 891.598 1582.88 889.438 1582.88 886.555 1580 882.234 1577.84 874.316 1577.84V1575.68C876.477 1575.68 880.797 1575.68 885.836 1577.84V1536.8C885.836 1533.92 885.117 1532.48 877.918 1532.48H875.035V1530.32C878.637 1530.32 885.117 1530.32 888.715 1530.32 892.316 1530.32 899.516 1530.32 902.395 1530.32V1532.48H899.516C892.316 1532.48 892.316 1533.92 892.316 1536.8V1580.72" fill-rule="evenodd" />
<path transform="matrix(.1,0,0,-.1,106.272,518.862)" d="M1706.38 1192.31C1704.21 1192.31 1702.05 1192.31 1702.05 1193.03 1702.05 1193.03 1704.21 1204.55 1704.94 1206.71 1708.54 1222.55 1717.89 1233.35 1727.98 1233.35 1735.89 1233.35 1739.5 1227.59 1739.5 1221.11 1739.5 1207.43 1724.38 1192.31 1706.38 1192.31ZM1700.62 1185.83C1701.34 1185.83 1702.78 1185.83 1704.94 1185.83 1724.38 1185.83 1742.38 1204.55 1742.38 1223.27 1742.38 1231.19 1739.5 1239.83 1729.41 1239.83 1712.14 1239.83 1704.94 1215.35 1698.46 1193.03 1684.78 1195.91 1679.02 1203.11 1679.02 1211.03 1679.02 1213.91 1681.18 1226.87 1688.38 1235.51 1689.82 1236.95 1689.82 1237.67 1689.82 1237.67 1689.82 1238.39 1688.38 1238.39 1688.38 1238.39 1684.78 1238.39 1676.14 1221.11 1676.14 1209.59 1676.14 1196.63 1686.21 1188.71 1696.3 1186.55L1689.82 1166.39C1689.09 1164.95 1689.09 1164.95 1689.09 1164.23 1689.09 1161.35 1691.98 1161.35 1692.7 1161.35 1693.41 1161.35 1695.57 1161.35 1697.02 1164.23 1697.02 1164.95 1700.62 1183.67 1700.62 1185.83" fill-rule="evenodd" />
<path transform="matrix(.1,0,0,-.1,106.272,518.862)" d="M1769.02 1185.11C1770.46 1186.55 1774.05 1189.43 1775.5 1190.15 1779.82 1195.19 1784.86 1199.51 1784.86 1206.71 1784.86 1216.07 1776.94 1221.83 1766.86 1221.83 1757.5 1221.83 1751.02 1214.63 1751.02 1207.43 1751.02 1203.83 1753.89 1203.11 1755.34 1203.11 1756.78 1203.11 1759.66 1204.55 1759.66 1207.43 1759.66 1211.75 1755.34 1211.75 1754.62 1211.75 1756.78 1217.51 1761.82 1219.67 1766.14 1219.67 1773.34 1219.67 1776.94 1213.19 1776.94 1206.71 1776.94 1198.07 1771.18 1192.31 1761.82 1182.23L1751.73 1172.15C1751.02 1171.43 1751.02 1171.43 1751.02 1169.27H1782.7L1784.86 1183.67H1781.98C1781.98 1181.51 1781.25 1177.91 1780.54 1176.47 1779.82 1175.75 1774.05 1175.75 1772.62 1175.75H1758.21L1769.02 1185.11" fill-rule="evenodd" />
<path transform="matrix(.1,0,0,-.1,106.272,518.862)" d="M227.672 1551.76C226.953 1549.6 226.953 1548.88 225.512 1547.44 220.473 1540.96 215.43 1538.8 211.832 1538.8 208.23 1538.8 203.91 1541.68 203.91 1550.32 203.91 1556.8 207.512 1569.76 210.391 1575.52 213.992 1582 219.031 1587.04 224.07 1587.04 231.992 1587.04 233.43 1576.96 233.43 1576.24V1574.8L227.672 1551.76ZM234.871 1581.28C233.43 1584.88 230.551 1589.2 224.07 1589.2 211.109 1589.2 196.711 1572.64 196.711 1554.64 196.711 1542.4 203.91 1536.64 211.832 1536.64 218.313 1536.64 223.352 1541.68 225.512 1543.84 223.352 1535.92 223.352 1535.2 223.352 1533.04 221.191 1526.56 220.473 1523.68 216.152 1519.36 211.832 1514.32 206.793 1514.32 204.633 1514.32 201.031 1514.32 197.43 1514.32 194.551 1515.76 198.871 1516.48 199.59 1520.08 199.59 1521.52 199.59 1522.96 198.152 1525.12 195.27 1525.12 192.391 1525.12 189.512 1522.96 189.512 1518.64 189.512 1513.6 194.551 1512.16 204.633 1512.16 219.75 1512.16 227.672 1522.24 229.832 1528.72L242.793 1582C243.512 1583.44 243.512 1583.44 243.512 1584.16 243.512 1585.6 242.07 1587.04 239.91 1587.04 237.031 1587.04 235.59 1584.16 234.871 1581.28" fill-rule="evenodd" />
<path transform="matrix(.1,0,0,-.1,106.272,518.862)" d="M987.996 170.449C987.996 190.609 975.035 202.848 958.477 202.848 933.277 202.848 907.355 174.77 907.355 147.41 907.355 128.688 919.598 115.73 936.875 115.73 962.078 115.73 987.996 142.367 987.996 170.449ZM937.598 118.609C927.516 118.609 916.719 125.809 916.719 143.809 916.719 154.609 921.035 171.168 928.957 182.688 938.316 194.93 949.117 199.969 957.758 199.969 968.559 199.969 978.637 192.77 978.637 174.047 978.637 164.688 975.758 147.41 965.676 134.449 957.035 123.648 946.957 118.609 937.598 118.609ZM967.117 155.328C966.398 154.609 966.398 152.449 966.398 152.449 966.398 151.73 966.398 151.008 967.117 151.008 968.559 151.008 968.559 151.73 969.277 153.887 969.277 155.328 972.156 165.41 972.156 166.129 972.156 166.848 971.438 167.57 970.719 167.57 969.996 167.57 969.996 166.848 969.277 165.41L968.559 163.25C968.559 163.25 968.559 163.25 968.559 163.25H928.957C928.957 163.969 929.676 165.41 929.676 166.129 929.676 166.848 928.957 167.57 928.238 167.57 927.516 167.57 927.516 166.848 926.797 164.688 926.078 163.25 923.918 153.168 923.918 152.449 923.918 151.73 923.918 151.008 924.637 151.008 926.078 151.008 926.078 151.73 926.078 153.168 926.797 154.609 926.797 155.328 926.797 155.328H967.117" fill-rule="evenodd" />
<path transform="matrix(.1,0,0,-.1,106.272,518.862)" d="M1016.08 151.008C1016.08 153.168 1016.08 153.168 1013.92 153.168 1010.32 150.289 1006 148.129 998.797 148.129V145.969C1000.96 145.969 1005.28 145.969 1009.6 148.129V107.09C1009.6 104.207 1009.6 102.77 1001.68 102.77H998.797V100.609C1002.4 100.609 1008.88 100.609 1012.48 100.609 1016.08 100.609 1023.28 100.609 1026.88 100.609V102.77H1024C1016.08 102.77 1016.08 104.207 1016.08 107.09V151.008" fill-rule="evenodd" />
<path transform="matrix(.1,0,0,-.1,106.272,518.862)" d="M1413.47 523.93C1413.47 544.09 1400.51 556.328 1383.23 556.328 1358.03 556.328 1332.11 528.25 1332.11 500.891 1332.11 482.168 1344.35 469.207 1361.63 469.207 1386.83 469.207 1413.47 495.848 1413.47 523.93ZM1362.35 472.09C1352.27 472.09 1341.47 479.289 1341.47 497.289 1341.47 508.09 1345.79 524.648 1354.43 536.168 1363.07 548.41 1373.87 553.449 1383.23 553.449 1393.31 553.449 1404.11 546.25 1404.11 527.527 1404.11 518.168 1400.51 500.891 1390.43 487.93 1381.79 477.129 1371.71 472.09 1362.35 472.09ZM1391.87 508.809C1391.15 508.09 1391.15 505.93 1391.15 505.93 1391.15 505.207 1391.15 504.488 1391.87 504.488 1393.31 504.488 1393.31 505.207 1394.03 507.367 1394.03 508.809 1396.91 518.891 1396.91 519.609 1396.91 520.328 1396.19 521.047 1395.47 521.047 1394.75 521.047 1394.75 520.328 1394.03 518.891L1393.31 516.73C1393.31 516.73 1393.31 516.73 1393.31 516.73H1353.71C1353.71 517.449 1354.43 518.891 1354.43 519.609 1354.43 520.328 1353.71 521.047 1352.99 521.047 1352.27 521.047 1352.27 520.328 1351.55 518.168 1351.55 516.73 1348.67 506.648 1348.67 505.93 1348.67 505.207 1349.39 504.488 1350.11 504.488 1350.83 504.488 1350.83 505.207 1351.55 506.648 1351.55 508.09 1351.55 508.809 1351.55 508.809H1391.87" fill-rule="evenodd" />
<path transform="matrix(.1,0,0,-.1,106.272,518.862)" d="M1437.95 469.93C1439.39 471.367 1442.99 474.25 1444.43 474.969 1449.47 480.008 1453.79 484.328 1453.79 491.527 1453.79 500.891 1445.87 506.648 1435.79 506.648 1426.43 506.648 1419.95 499.449 1419.95 492.25 1419.95 488.648 1422.83 487.93 1424.27 487.93 1425.71 487.93 1428.59 489.367 1428.59 492.25 1428.59 496.57 1424.27 496.57 1423.55 496.57 1425.71 502.328 1431.47 504.488 1435.07 504.488 1442.27 504.488 1446.59 498.008 1446.59 491.527 1446.59 482.891 1440.11 477.129 1430.75 467.051L1420.67 456.969C1419.95 456.25 1419.95 456.25 1419.95 454.09H1451.63L1453.79 468.488H1451.63C1450.91 466.328 1450.19 462.73 1449.47 461.289 1448.75 460.57 1442.99 460.57 1441.55 460.57H1427.87L1437.95 469.93" fill-rule="evenodd" />
<path transform="matrix(.1,0,0,-.1,106.272,518.862)" d="M1762.27 611.883C1762.98 616.203 1763.71 616.922 1772.35 616.922 1774.51 616.922 1775.23 616.922 1775.23 619.082 1775.23 620.523 1774.51 620.523 1772.35 620.523H1757.95C1755.07 620.523 1755.07 620.523 1753.63 618.363L1709.71 549.242 1701.07 617.641C1700.35 620.523 1700.35 620.523 1697.46 620.523H1682.35C1680.19 620.523 1678.75 620.523 1678.75 618.363 1678.75 616.922 1680.19 616.922 1681.63 616.922 1689.55 616.922 1689.55 616.203 1689.55 614.762 1689.55 614.762 1689.55 614.043 1688.83 611.883L1673.71 551.402C1672.27 545.641 1669.39 542.762 1661.46 542.043 1660.75 542.043 1659.3 542.043 1659.3 539.883 1659.3 539.164 1660.75 539.164 1660.75 539.164 1663.63 539.164 1669.39 539.164 1672.27 539.164H1678.03C1679.46 539.164 1681.63 539.164 1683.07 539.164 1683.79 539.164 1685.23 539.164 1685.23 541.32 1685.23 542.043 1683.79 542.043 1683.79 542.043 1679.46 542.762 1675.87 543.48 1675.87 547.801 1675.87 548.523 1675.87 548.523 1676.59 550.684L1692.43 616.203H1693.14L1702.51 542.043C1703.23 539.164 1703.23 539.164 1704.67 539.164 1705.39 539.164 1706.11 539.883 1706.83 540.602L1755.07 616.922 1737.79 547.801C1736.35 543.48 1736.35 542.043 1727.71 542.043 1725.55 542.043 1724.83 542.043 1724.83 539.883 1724.83 539.164 1725.55 539.164 1726.27 539.164 1728.43 539.164 1730.59 539.164 1732.75 539.164H1747.14C1748.59 539.164 1751.46 539.164 1753.63 539.164 1754.35 539.164 1755.79 539.164 1755.79 541.32 1755.79 542.043 1754.35 542.043 1752.91 542.043 1745.71 542.043 1745.71 543.48 1745.71 544.203 1745.71 544.922 1745.71 545.641 1745.71 546.363L1762.27 611.883" fill-rule="evenodd" />
<path transform="matrix(.1,0,0,-.1,106.272,518.862)" d="M1818.43 509.641C1818.43 510.363 1818.43 510.363 1816.27 512.523 1804.03 524.762 1797.55 544.203 1797.55 568.684 1797.55 591.723 1803.3 611.883 1816.98 626.281 1818.43 627.004 1818.43 627.004 1818.43 627.723 1818.43 628.441 1817.71 628.441 1816.98 628.441 1815.55 628.441 1805.46 619.801 1799.71 608.281 1793.95 596.043 1791.07 583.082 1791.07 568.684 1791.07 557.883 1792.51 543.48 1798.99 531.242 1806.19 516.844 1815.55 508.922 1816.98 508.922 1817.71 508.922 1818.43 508.922 1818.43 509.641" fill-rule="evenodd" />
<path transform="matrix(.1,0,0,-.1,106.272,518.862)" d="M1848.67 586.684H1860.19C1862.35 586.684 1863.07 586.684 1863.07 588.844 1863.07 590.281 1862.35 590.281 1860.19 590.281H1850.11L1854.43 607.563C1854.43 609.723 1854.43 609.723 1854.43 610.441 1854.43 612.602 1852.98 613.32 1851.55 613.32 1850.83 613.32 1847.95 613.32 1847.23 609.723L1842.19 590.281H1830.67C1828.51 590.281 1827.79 590.281 1827.79 588.121 1827.79 586.684 1828.51 586.684 1830.67 586.684H1841.46L1833.55 555.723C1832.11 551.402 1832.11 549.961 1832.11 548.523 1832.11 542.762 1835.71 537.723 1842.91 537.723 1855.14 537.723 1860.91 555.004 1860.91 555.723 1860.91 556.441 1860.91 557.164 1860.19 557.164 1859.46 557.164 1859.46 557.164 1858.75 556.441L1858.03 554.281C1858.03 554.281 1858.75 556.441 1858.03 554.281 1855.87 548.523 1850.11 539.883 1842.91 539.883 1839.3 539.883 1839.3 542.762 1839.3 545.641 1839.3 545.641 1839.3 547.801 1839.3 549.242L1848.67 586.684" fill-rule="evenodd" />
<path transform="matrix(.1,0,0,-.1,106.272,518.862)" d="M1901.23 568.684C1901.23 578.043 1899.79 592.441 1893.3 606.121 1886.11 620.523 1876.03 628.441 1874.59 628.441 1874.59 628.441 1873.87 628.441 1873.87 627.723 1873.87 627.004 1873.87 627.004 1876.03 624.844 1887.55 612.602 1894.75 593.164 1894.75 568.684 1894.75 545.641 1888.99 525.48 1875.3 511.801 1873.87 510.363 1873.87 510.363 1873.87 509.641 1873.87 508.922 1874.59 508.922 1874.59 508.922 1876.75 508.922 1886.11 517.563 1891.87 529.082 1898.35 541.32 1901.23 554.281 1901.23 568.684" fill-rule="evenodd" />
<path transform="matrix(.1,0,0,-.1,106.272,518.862)" d="M2924.06 1241.53C2924.06 1242.25 2923.34 1242.25 2922.62 1242.25 2922.62 1242.25 2921.9 1242.25 2920.46 1240.09 2919.74 1239.37 2915.42 1233.61 2915.42 1232.89 2911.1 1240.81 2903.18 1242.25 2898.14 1242.25 2883.02 1242.25 2869.34 1228.57 2869.34 1214.89 2869.34 1206.25 2874.38 1200.49 2880.86 1198.33 2881.58 1198.33 2888.78 1196.17 2892.38 1195.45 2898.86 1194.01 2900.3 1193.29 2902.46 1190.41 2903.18 1189.69 2905.34 1187.53 2905.34 1181.77 2905.34 1170.25 2895.26 1158.73 2883.02 1158.73 2873.66 1158.73 2862.86 1163.05 2862.86 1176.73 2862.86 1178.89 2862.86 1181.77 2863.58 1183.21V1183.93C2863.58 1184.65 2863.58 1185.37 2862.14 1185.37 2861.42 1185.37 2861.42 1184.65 2860.7 1183.21L2854.94 1158.73C2854.94 1158.01 2854.22 1156.57 2854.22 1156.57 2854.22 1155.85 2854.94 1155.85 2855.66 1155.85L2857.1 1157.29C2857.1 1157.29 2855.66 1155.85 2857.1 1157.29 2859.26 1160.17 2860.7 1162.33 2862.86 1164.49 2865.74 1160.17 2872.22 1155.85 2883.02 1155.85 2898.14 1155.85 2912.54 1170.25 2912.54 1185.37 2912.54 1190.41 2911.1 1194.73 2906.78 1199.05 2904.62 1201.93 2902.46 1202.65 2890.94 1205.53 2883.02 1207.69 2882.3 1207.69 2880.14 1209.85 2877.98 1212.01 2876.54 1214.89 2876.54 1218.49 2876.54 1228.57 2886.62 1239.37 2898.14 1239.37 2909.66 1239.37 2915.42 1232.17 2915.42 1220.65 2915.42 1217.05 2914.7 1214.17 2914.7 1213.45 2914.7 1212.73 2915.42 1212.73 2916.14 1212.73 2916.86 1212.73 2916.86 1212.73 2917.58 1214.89L2924.06 1241.53" fill-rule="evenodd" />
<path transform="matrix(.1,0,0,-.1,106.272,518.862)" d="M2944.94 1191.13C2944.94 1193.29 2944.94 1193.29 2942.78 1193.29 2939.18 1189.69 2935.58 1188.25 2927.66 1188.25V1185.37C2929.82 1185.37 2934.14 1185.37 2938.46 1187.53V1146.49C2938.46 1143.61 2938.46 1142.89 2931.26 1142.89H2928.38V1140.01C2931.26 1140.73 2938.46 1140.73 2942.06 1140.73 2945.66 1140.73 2952.14 1140.73 2955.74 1140.01V1142.89H2952.86C2944.94 1142.89 2944.94 1143.61 2944.94 1146.49V1191.13" fill-rule="evenodd" />
<path transform="matrix(.1,0,0,-.1,106.272,518.862)" d="M2307.25 619.945C2307.25 620.664 2306.53 620.664 2305.81 620.664 2305.81 620.664 2305.09 620.664 2303.65 618.504 2302.93 617.785 2298.61 612.023 2297.89 611.305 2294.29 619.223 2286.37 620.664 2281.33 620.664 2266.21 620.664 2252.53 606.984 2252.53 593.305 2252.53 584.664 2257.57 578.902 2263.33 576.742 2264.77 576.742 2271.96 574.582 2275.57 573.863 2281.33 572.426 2283.49 571.703 2285.65 568.824 2286.37 568.105 2288.53 565.945 2288.53 560.184 2288.53 548.664 2278.45 537.145 2266.21 537.145 2256.85 537.145 2246.05 541.465 2246.05 555.145 2246.05 557.305 2246.05 560.184 2246.77 561.625V562.344C2246.77 563.063 2246.77 563.785 2245.33 563.785 2244.61 563.785 2244.61 563.063 2243.89 561.625L2237.41 537.145C2237.41 536.426 2237.41 534.984 2237.41 534.984 2237.41 534.266 2238.13 534.266 2238.13 534.266 2238.85 534.266 2238.85 534.266 2240.29 535.703 2242.45 538.582 2243.89 540.742 2246.05 542.902 2248.93 538.582 2254.69 534.266 2266.21 534.266 2281.33 534.266 2295.73 548.664 2295.73 563.785 2295.73 568.824 2294.29 573.145 2289.97 577.465 2287.09 580.344 2284.93 581.063 2274.13 583.945 2266.21 586.105 2265.49 586.105 2263.33 588.266 2261.17 590.426 2259.73 593.305 2259.73 596.902 2259.73 606.984 2269.81 617.785 2280.61 617.785 2292.85 617.785 2297.89 610.586 2297.89 599.063 2297.89 595.465 2297.89 592.586 2297.89 591.863 2297.89 591.145 2298.61 591.145 2298.61 591.145 2300.05 591.145 2300.05 591.145 2300.77 593.305L2307.25 619.945" fill-rule="evenodd" />
<path transform="matrix(.1,0,0,-.1,106.272,518.862)" d="M2325.25 534.984C2326.69 535.703 2330.29 538.582 2331.73 540.023 2336.77 544.344 2341.09 548.664 2341.09 555.863 2341.09 565.223 2333.17 571.703 2323.09 571.703 2313.73 571.703 2307.25 564.504 2307.25 557.305 2307.25 553.703 2310.13 552.984 2311.57 552.984 2313.01 552.984 2315.89 553.703 2315.89 557.305 2315.89 560.902 2311.57 560.902 2310.85 560.902 2313.01 566.664 2318.77 568.824 2322.37 568.824 2329.57 568.824 2333.89 562.344 2333.89 555.863 2333.89 547.945 2327.41 541.465 2318.05 532.105L2307.96 521.305C2307.25 520.586 2307.25 520.586 2307.25 518.426H2338.93L2341.09 532.824H2338.93C2338.21 531.383 2337.49 527.063 2336.77 525.625 2336.05 524.902 2330.29 524.902 2328.85 524.902H2315.17L2325.25 534.984" fill-rule="evenodd" />
<path transform="matrix(.1,0,0,-.1,106.272,518.862)" d="M2575.08 415.621C2575.8 416.344 2578.68 422.102 2583 425.703 2585.88 428.582 2590.2 430.742 2594.52 430.742 2599.56 430.742 2601 427.145 2601 422.102 2601 421.383 2601 419.223 2599.56 413.461 2598.12 407.703 2598.12 406.984 2596.68 401.223 2595.96 397.621 2593.8 388.984 2593.08 387.543 2593.08 386.102 2592.36 382.504 2592.36 382.504 2592.36 380.344 2593.08 378.902 2595.24 378.902 2598.84 378.902 2599.56 381.781 2600.28 386.102 2602.44 395.461 2606.04 407.703 2607.48 414.902 2608.2 415.621 2613.96 430.742 2626.92 430.742 2631.96 430.742 2633.4 427.145 2633.4 422.102 2633.4 415.621 2629.08 402.664 2626.2 395.461 2625.48 392.582 2624.76 391.145 2624.76 388.984 2624.76 383.223 2628.36 378.902 2634.12 378.902 2645.64 378.902 2649.24 396.902 2649.24 397.621 2649.24 398.344 2649.24 398.344 2648.52 398.344 2647.08 398.344 2647.08 398.344 2646.36 396.184 2643.48 386.824 2639.16 381.781 2634.84 381.781 2633.4 381.781 2631.24 381.781 2631.24 385.383 2631.24 388.984 2632.68 392.582 2633.4 394.023 2635.56 399.781 2640.6 413.461 2640.6 420.664 2640.6 427.863 2637 432.902 2627.64 432.902 2619.72 432.902 2613.24 428.582 2608.2 421.383 2608.2 427.863 2603.88 432.902 2595.24 432.902 2584.44 432.902 2578.68 425.703 2576.52 422.824 2576.52 429.305 2571.48 432.902 2566.44 432.902 2562.84 432.902 2559.96 431.461 2557.8 427.145 2555.64 422.824 2553.48 415.621 2553.48 414.902 2553.48 414.184 2554.2 413.461 2554.92 413.461 2556.36 413.461 2556.36 414.184 2557.08 416.344 2558.52 423.543 2560.68 430.742 2565.72 430.742 2568.6 430.742 2569.32 428.582 2569.32 424.984 2569.32 422.824 2568.6 417.781 2567.16 414.184 2566.44 409.863 2565 405.543 2564.28 401.223 2563.56 399.063 2562.12 394.023 2561.4 391.863 2560.68 388.262 2559.24 382.504 2559.24 382.504 2559.24 380.344 2560.68 378.902 2562.84 378.902 2564.28 378.902 2565.72 379.621 2566.44 381.781 2567.16 382.504 2567.88 386.824 2568.6 388.984 2569.32 392.582 2570.76 396.184 2571.48 399.781L2575.08 415.621" fill-rule="evenodd" />
<path transform="matrix(.1,0,0,-.1,106.272,518.862)" d="M2601.82 1141.25C2598.22 1140.53 2596.79 1137.65 2596.79 1135.49 2596.79 1132.61 2598.94 1131.17 2600.38 1131.17 2603.98 1131.17 2606.86 1134.77 2606.86 1137.65 2606.86 1142.69 2601.1 1144.85 2596.06 1144.85 2588.86 1144.85 2584.54 1137.65 2583.82 1135.49 2580.94 1144.85 2573.74 1144.85 2571.58 1144.85 2559.34 1144.85 2552.86 1129.73 2552.86 1126.85 2552.86 1126.13 2552.86 1125.41 2553.58 1125.41 2555.02 1125.41 2555.02 1126.13 2555.02 1126.85 2559.34 1140.53 2567.26 1142.69 2570.86 1142.69 2576.63 1142.69 2577.34 1137.65 2577.34 1134.77 2577.34 1131.89 2576.63 1129.73 2575.18 1123.97 2573.02 1116.05 2573.02 1114.61 2570.86 1107.41 2569.42 1100.21 2565.82 1093.73 2559.34 1093.73 2558.63 1093.73 2555.74 1093.73 2553.58 1095.17 2557.9 1095.89 2558.63 1099.49 2558.63 1100.93 2558.63 1103.09 2557.18 1104.53 2554.3 1104.53 2551.42 1104.53 2548.54 1102.37 2548.54 1098.77 2548.54 1093.73 2554.3 1090.85 2559.34 1090.85 2565.1 1090.85 2569.42 1095.89 2571.58 1100.93 2573.74 1093.73 2579.5 1090.85 2583.82 1090.85 2596.06 1090.85 2602.54 1106.69 2602.54 1109.57 2602.54 1110.29 2602.54 1110.29 2601.82 1110.29 2600.38 1110.29 2600.38 1110.29 2599.66 1108.85 2596.79 1098.77 2589.58 1093.73 2584.54 1093.73 2580.22 1093.73 2578.06 1096.61 2578.06 1101.65 2578.06 1104.53 2578.06 1105.97 2580.22 1113.89 2581.66 1119.65 2583.1 1126.13 2584.54 1130.45 2585.98 1137.65 2590.3 1142.69 2596.06 1142.69 2596.06 1142.69 2599.66 1142.69 2601.82 1141.25" fill-rule="evenodd" />
<path transform="matrix(.1,0,0,-.1,106.272,518.862)" d="M2637.1 1125.41C2637.1 1127.57 2636.38 1127.57 2634.22 1127.57 2631.34 1123.97 2627.02 1122.53 2619.82 1122.53V1119.65C2621.26 1119.65 2625.58 1119.65 2630.62 1121.81V1080.77C2630.62 1077.89 2630.62 1077.17 2622.7 1077.17H2619.82V1074.29C2623.42 1075.01 2629.9 1075.01 2633.5 1075.01 2637.1 1075.01 2644.3 1075.01 2647.18 1074.29V1077.17H2644.3C2637.1 1077.17 2637.1 1077.89 2637.1 1080.77V1125.41" fill-rule="evenodd" />
<path transform="matrix(.1,0,0,-.1,106.272,518.862)" d="M2354.39 900.285C2350.79 899.566 2349.35 896.684 2349.35 894.523 2349.35 891.645 2351.51 890.203 2353.67 890.203 2357.27 890.203 2359.43 893.805 2359.43 896.684 2359.43 901.727 2353.67 903.887 2348.63 903.887 2341.43 903.887 2337.11 896.684 2336.39 894.523 2333.51 903.887 2326.31 903.887 2324.15 903.887 2311.91 903.887 2305.43 888.766 2305.43 885.887 2305.43 885.164 2306.15 884.445 2306.87 884.445 2307.59 884.445 2307.59 885.164 2308.31 885.887 2311.91 899.566 2319.83 901.727 2323.43 901.727 2329.19 901.727 2329.91 896.684 2329.91 893.805 2329.91 890.926 2329.19 888.766 2327.75 883.004 2326.31 875.086 2325.59 873.645 2324.15 866.445 2321.99 859.246 2318.39 852.766 2312.63 852.766 2311.91 852.766 2309.03 852.766 2306.15 854.203 2310.47 854.926 2311.19 858.523 2311.19 859.965 2311.19 862.125 2309.75 863.566 2307.59 863.566 2304.71 863.566 2301.11 861.406 2301.11 857.805 2301.11 852.766 2306.87 849.883 2311.91 849.883 2317.67 849.883 2321.99 854.926 2324.15 859.965 2326.31 852.766 2332.07 849.883 2337.11 849.883 2348.63 849.883 2355.11 865.727 2355.11 868.605 2355.11 869.324 2355.11 869.324 2354.39 869.324 2352.95 869.324 2352.95 869.324 2352.95 867.883 2349.35 857.805 2342.87 852.766 2337.11 852.766 2332.79 852.766 2330.63 855.645 2330.63 860.684 2330.63 863.566 2331.35 865.004 2332.79 872.926 2334.23 878.684 2336.39 885.164 2337.11 889.484 2339.27 896.684 2342.87 901.727 2348.63 901.727 2348.63 901.727 2352.23 901.727 2354.39 900.285" fill-rule="evenodd" />
<path transform="matrix(.1,0,0,-.1,106.272,518.862)" d="M2386.79 849.883C2388.23 850.605 2391.83 853.484 2393.27 854.926 2397.59 859.246 2402.63 863.566 2402.63 870.766 2402.63 880.125 2394.71 886.605 2384.63 886.605 2375.27 886.605 2368.79 879.406 2368.79 872.203 2368.79 868.605 2371.67 867.883 2373.11 867.883 2374.55 867.883 2377.43 868.605 2377.43 872.203 2377.43 875.805 2373.11 875.805 2372.39 875.805 2374.55 881.566 2379.59 883.727 2383.91 883.727 2391.11 883.727 2394.71 877.246 2394.71 870.766 2394.71 862.844 2388.95 856.363 2379.59 847.004L2369.51 836.203C2368.79 835.484 2368.79 835.484 2368.79 833.324H2400.47L2402.63 847.727H2399.75C2399.75 846.285 2399.03 841.965 2398.31 840.523 2397.59 839.805 2391.83 839.805 2390.39 839.805H2375.99L2386.79 849.883" fill-rule="evenodd" />
<path transform="matrix(.1,0,0,-.1,106.272,518.862)" stroke-width="5.6693" stroke-linecap="butt" stroke-miterlimit="22.9256" stroke-linejoin="miter" fill="none" stroke="#231f20" d="M911.324 202.203 833.227 304.961" />
<path transform="matrix(.1,0,0,-.1,106.272,518.862)" stroke-width="5.6693" stroke-linecap="butt" stroke-miterlimit="22.9256" stroke-linejoin="miter" fill="none" stroke="#231f20" d="M1398.26 566.219 1451.56 655.629" />
<path transform="matrix(.1,0,0,-.1,106.272,518.862)" d="M1133.93 992.871C1131.77 992.871 1131.05 992.871 1128.89 991.434 1128.17 991.434 1126.73 989.273 1126.73 987.113 1126.73 984.953 1128.89 983.512 1131.05 983.512 1133.93 983.512 1136.81 985.672 1136.81 990.711 1136.81 996.473 1131.77 1000.79 1123.13 1000.79 1108.01 1000.79 1092.17 983.512 1092.17 966.953 1092.17 956.152 1098.65 946.793 1110.89 946.793 1126.73 946.793 1137.53 959.754 1137.53 961.191 1137.53 961.914 1136.81 962.633 1136.09 962.633 1135.37 962.633 1135.37 962.633 1134.65 961.191 1126.73 951.113 1115.21 949.672 1110.89 949.672 1102.97 949.672 1100.09 956.871 1100.09 962.633 1100.09 966.953 1102.25 978.473 1106.57 986.395 1109.45 992.152 1115.93 998.633 1123.85 998.633 1125.29 998.633 1131.77 998.633 1133.93 992.871" fill-rule="evenodd" />
<path transform="matrix(.1,0,0,-.1,106.272,518.862)" d="M1173.53 978.473C1174.25 981.352 1174.25 981.352 1177.85 981.352H1183.61C1192.25 981.352 1192.97 979.191 1192.97 974.871 1192.97 972.715 1192.97 969.832 1192.25 969.113 1192.25 968.395 1192.25 967.672 1192.25 967.672 1192.25 966.234 1192.97 966.234 1193.69 966.234 1194.41 966.234 1194.41 966.234 1195.13 968.395L1197.29 982.793C1197.29 984.234 1195.85 984.234 1194.41 984.234H1147.61C1145.45 984.234 1145.45 984.234 1144.73 982.793L1140.41 968.395C1139.69 968.395 1139.69 967.672 1139.69 966.953 1139.69 966.234 1140.41 966.234 1141.13 966.234 1141.85 966.234 1141.85 966.234 1142.57 967.672 1146.89 980.633 1149.05 981.352 1161.29 981.352H1164.89C1167.05 981.352 1167.05 981.352 1167.05 980.633 1167.05 980.633 1167.05 979.191 1166.33 978.473L1156.25 936.711C1155.53 933.832 1154.81 933.113 1146.89 933.113 1144.01 933.113 1143.29 933.113 1143.29 931.672 1143.29 931.672 1143.29 930.234 1144.73 930.234 1146.89 930.234 1152.65 930.234 1154.81 930.234H1161.29C1163.45 930.234 1169.21 930.234 1171.37 930.234 1172.09 930.234 1173.53 930.234 1173.53 931.672 1173.53 933.113 1172.81 933.113 1170.65 933.113 1168.49 933.113 1167.77 933.113 1165.61 933.113 1163.45 933.113 1162.73 933.832 1162.73 934.555 1162.73 935.273 1162.73 935.273 1163.45 935.992L1173.53 978.473" fill-rule="evenodd" />
<path transform="matrix(.1,0,0,-.1,106.272,518.862)" d="M3076.18 922.203C3076.9 922.922 3079.79 928.684 3084.11 932.281 3086.98 935.164 3091.3 937.324 3095.63 937.324 3100.66 937.324 3102.11 933.723 3102.11 928.684 3102.11 927.961 3102.11 925.801 3100.66 920.043 3099.22 914.281 3099.22 913.563 3097.79 907.801 3097.06 904.203 3094.9 895.563 3094.18 894.121 3094.18 892.684 3093.46 889.082 3093.46 889.082 3093.46 886.922 3094.18 885.48 3096.34 885.48 3099.95 885.48 3100.66 888.363 3101.38 892.684 3103.54 902.043 3107.14 914.281 3108.59 921.48 3109.3 922.203 3115.06 937.324 3128.02 937.324 3133.06 937.324 3134.5 933.723 3134.5 928.684 3134.5 922.203 3130.18 909.242 3127.3 902.043 3126.59 899.164 3125.86 897.723 3125.86 895.563 3125.86 889.801 3129.46 885.48 3135.22 885.48 3146.74 885.48 3150.34 903.48 3150.34 904.203 3150.34 904.922 3150.34 904.922 3149.63 904.922 3148.18 904.922 3148.18 904.922 3147.46 902.762 3144.59 893.402 3140.27 888.363 3135.95 888.363 3134.5 888.363 3132.34 888.363 3132.34 891.961 3132.34 895.563 3133.79 899.164 3134.5 900.602 3136.66 906.363 3141.7 920.043 3141.7 927.242 3141.7 934.441 3138.11 939.48 3128.74 939.48 3120.82 939.48 3114.34 935.164 3109.3 927.961 3109.3 934.441 3104.98 939.48 3096.34 939.48 3085.54 939.48 3079.79 932.281 3077.63 929.402 3077.63 935.883 3072.59 939.48 3067.54 939.48 3063.95 939.48 3061.06 938.043 3058.9 933.723 3056.74 929.402 3054.59 922.203 3054.59 921.48 3054.59 920.762 3055.3 920.043 3056.02 920.043 3057.46 920.043 3057.46 920.762 3058.18 922.922 3059.63 930.121 3061.79 937.324 3066.82 937.324 3069.7 937.324 3070.43 935.164 3070.43 931.563 3070.43 929.402 3069.7 924.363 3068.27 920.762 3067.54 916.441 3066.11 912.121 3065.38 907.801 3064.66 905.641 3063.22 900.602 3062.5 898.441 3061.79 894.844 3060.34 889.082 3060.34 889.082 3060.34 886.922 3061.79 885.48 3063.95 885.48 3065.38 885.48 3066.82 886.203 3067.54 888.363 3068.27 889.082 3068.98 893.402 3069.7 895.563 3070.43 899.164 3071.86 902.762 3072.59 906.363L3076.18 922.203" fill-rule="evenodd" />
<path transform="matrix(.1,0,0,-.1,106.272,518.862)" d="M2942.89 799.039C2961.38 799.039 2976.36 782.359 2976.36 761.777 2976.36 741.203 2961.38 724.52 2942.89 724.52 2924.4 724.52 2909.41 741.203 2909.41 761.777 2909.41 782.359 2924.4 799.039 2942.89 799.039" fill="#ffffff" fill-rule="evenodd" />
<path transform="matrix(.1,0,0,-.1,106.272,518.862)" d="M2958.67 784.391C2956.51 784.391 2955.79 784.391 2953.63 782.949 2952.91 782.23 2952.19 780.07 2952.19 778.629 2952.19 775.75 2953.63 774.309 2955.79 774.309 2958.67 774.309 2962.27 777.191 2962.27 781.512 2962.27 787.27 2956.51 791.59 2948.59 791.59 2932.75 791.59 2916.91 775.031 2916.91 757.75 2916.91 747.672 2923.39 737.59 2935.63 737.59 2952.19 737.59 2962.27 750.551 2962.27 751.992 2962.27 752.711 2961.55 753.43 2960.83 753.43 2960.83 753.43 2960.11 753.43 2959.39 751.992 2951.47 741.91 2940.67 740.469 2935.63 740.469 2927.71 740.469 2924.83 747.672 2924.83 753.43 2924.83 757.75 2926.99 769.27 2931.31 777.191 2934.19 782.949 2940.67 789.43 2948.59 789.43 2950.03 789.43 2956.51 789.43 2958.67 784.391" fill-rule="evenodd" />
<path transform="matrix(.1,0,0,-.1,106.272,518.862)" d="M2726.57 584.121C2745.05 584.121 2760.04 567.438 2760.04 546.859 2760.04 526.281 2745.05 509.602 2726.57 509.602 2708.08 509.602 2693.09 526.281 2693.09 546.859 2693.09 567.438 2708.08 584.121 2726.57 584.121" fill="#ffffff" fill-rule="evenodd" />
<path transform="matrix(.1,0,0,-.1,106.272,518.862)" d="M2742.35 569.469C2740.19 569.469 2739.47 569.469 2737.31 568.031 2736.59 567.309 2735.87 565.148 2735.87 563.711 2735.87 560.832 2737.31 559.391 2739.47 559.391 2742.35 559.391 2745.95 562.27 2745.95 566.59 2745.95 572.352 2740.19 576.672 2732.27 576.672 2716.43 576.672 2700.59 560.109 2700.59 542.832 2700.59 532.75 2707.07 522.672 2719.31 522.672 2735.87 522.672 2745.95 535.629 2745.95 537.07 2745.95 537.789 2745.23 538.512 2744.51 538.512 2744.51 538.512 2743.79 538.512 2743.07 537.07 2735.15 526.992 2724.35 525.551 2719.31 525.551 2711.39 525.551 2708.51 532.75 2708.51 538.512 2708.51 542.832 2710.67 554.352 2714.99 562.27 2717.87 568.031 2724.35 574.512 2732.27 574.512 2733.71 574.512 2740.19 574.512 2742.35 569.469" fill-rule="evenodd" />
<path transform="matrix(.1,0,0,-.1,106.272,518.862)" d="M2784.19 753.68C2813.41 753.68 2837.11 729.02 2837.11 698.602 2837.11 668.18 2813.41 643.523 2784.19 643.523 2754.96 643.523 2731.27 668.18 2731.27 698.602 2731.27 729.02 2754.96 753.68 2784.19 753.68" fill="#ffffff" fill-rule="evenodd" />
<path transform="matrix(.1,0,0,-.1,106.272,518.862)" d="M2822.25 711.387C2822.25 730.828 2809.29 743.066 2792 743.066 2766.8 743.066 2740.89 715.707 2740.89 687.625 2740.89 668.906 2753.13 656.668 2770.41 656.668 2795.61 656.668 2822.25 682.586 2822.25 711.387ZM2771.13 658.828C2761.77 658.828 2750.96 666.027 2750.96 684.746 2750.96 695.547 2755.29 713.547 2764.64 725.785 2774 735.867 2784.09 740.188 2792 740.188 2802.09 740.188 2812.16 732.988 2812.16 715.707 2812.16 704.906 2807.84 688.348 2799.93 676.828 2791.29 664.586 2780.48 658.828 2771.13 658.828" fill-rule="evenodd" />
<path transform="matrix(.1,0,0,-.1,106.272,518.862)" d="M785.477 1754.15C787.637 1754.15 788.359 1754.15 788.359 1757.04 788.359 1760.63 787.637 1769.27 782.598 1775.04 777.559 1780.07 770.359 1781.52 763.879 1781.52 745.16 1781.52 735.078 1769.27 735.078 1754.15 735.078 1737.59 747.32 1726.79 765.32 1726.79 783.32 1726.79 788.359 1739.75 788.359 1741.2 788.359 1743.36 786.918 1743.36 786.199 1743.36 784.039 1743.36 784.039 1742.63 783.32 1741.2 780.438 1733.27 772.52 1731.11 766.758 1731.11 749.48 1731.11 749.48 1746.95 749.48 1754.15H785.477ZM749.48 1757.75C749.48 1762.07 749.48 1767.11 752.359 1771.43 754.52 1775.04 758.84 1777.91 763.879 1777.91 776.117 1777.91 777.559 1763.52 777.559 1757.75H749.48" fill-rule="evenodd" />
<path transform="matrix(.1,0,0,-.1,106.272,518.862)" d="M823.637 1825.43C824.359 1827.59 824.359 1829.04 830.117 1829.04 832.277 1829.04 833 1829.04 833 1830.47 833 1830.47 833 1831.2 831.559 1831.2 830.84 1831.2 827.957 1831.2 826.52 1831.2H815.719C815 1831.2 812.117 1831.2 810.68 1831.2 810.68 1831.2 809.238 1831.2 809.238 1829.75 809.238 1829.04 809.957 1829.04 811.398 1829.04 816.438 1829.04 816.438 1828.31 816.438 1827.59 816.438 1826.88 816.438 1826.88 816.438 1825.43L805.637 1782.95C804.918 1780.07 804.918 1779.36 799.16 1779.36 797 1779.36 796.277 1779.36 796.277 1777.91 796.277 1777.91 796.277 1777.2 797.719 1777.2 798.438 1777.2 801.32 1777.2 802.039 1777.2H813.559C814.277 1777.2 817.16 1777.2 818.598 1777.2 819.32 1777.2 820.039 1777.2 820.039 1778.63 820.039 1779.36 819.32 1779.36 817.16 1779.36 816.438 1779.36 815.719 1779.36 814.277 1779.36 812.84 1780.07 812.117 1780.07 812.117 1780.79 812.117 1781.52 812.84 1781.52 812.84 1782.23L823.637 1825.43" fill-rule="evenodd" />
<path transform="matrix(.1,0,0,-.1,106.272,518.862)" d="M833.719 1728.23C834.438 1728.95 834.438 1729.68 834.438 1729.68 834.438 1731.83 832.277 1732.55 831.559 1732.55 830.84 1732.55 829.398 1732.55 827.957 1730.39 827.957 1729.68 827.238 1726.79 827.238 1725.36L822.199 1705.91C822.199 1705.91 818.598 1699.43 812.84 1699.43 809.238 1699.43 807.797 1702.31 807.797 1705.91 807.797 1710.23 810.68 1717.43 812.117 1722.47 812.84 1723.91 813.559 1724.63 813.559 1726.07 813.559 1731.11 809.957 1733.27 806.359 1733.27 798.438 1733.27 794.84 1721.75 794.84 1721.04 794.84 1720.31 795.559 1719.59 796.277 1719.59 797 1719.59 797 1720.31 797.719 1721.04 799.16 1728.23 802.758 1731.11 805.637 1731.11 807.078 1731.11 807.797 1730.39 807.797 1728.23 807.797 1726.79 807.078 1724.63 806.359 1723.2 803.477 1714.55 802.039 1710.95 802.039 1707.36 802.039 1699.43 807.797 1697.27 812.84 1697.27 816.438 1697.27 819.32 1698.71 820.758 1700.88 820.039 1696.55 819.32 1692.95 815.719 1689.36 813.559 1685.75 809.957 1684.31 806.359 1684.31 804.918 1684.31 802.039 1684.31 800.598 1686.47 804.918 1687.2 804.918 1690.79 804.918 1690.79 804.918 1692.95 803.477 1693.68 802.039 1693.68 799.879 1693.68 797.719 1692.23 797.719 1688.63 797.719 1685.04 800.598 1681.43 806.359 1681.43 815 1681.43 823.637 1687.91 826.52 1697.99L833.719 1728.23" fill-rule="evenodd" />
<path transform="matrix(.1,0,0,-.1,106.272,518.862)" d="M1017.06 1429.7C1019.94 1429.7 1020.66 1429.7 1020.66 1432.58 1020.66 1436.18 1019.94 1444.82 1014.18 1450.58 1009.14 1455.62 1002.66 1457.06 995.457 1457.06 976.738 1457.06 966.656 1444.82 966.656 1429.7 966.656 1413.14 978.898 1402.34 996.898 1402.34 1014.9 1402.34 1020.66 1415.3 1020.66 1416.74 1020.66 1418.9 1018.5 1418.9 1017.78 1418.9 1016.34 1418.9 1016.34 1418.18 1015.62 1416.74 1012.02 1408.82 1004.1 1406.66 998.336 1406.66 981.059 1406.66 981.059 1422.5 981.059 1429.7H1017.06ZM981.059 1433.3C981.059 1437.62 981.777 1442.66 983.938 1446.98 986.098 1450.58 990.418 1453.46 995.457 1453.46 1008.42 1453.46 1009.14 1439.06 1009.86 1433.3H981.059" fill-rule="evenodd" />
<path transform="matrix(.1,0,0,-.1,106.272,518.862)" d="M1067.46 1484.42C1067.46 1484.42 1066.74 1485.14 1066.74 1485.86 1066.74 1485.86 1068.18 1486.58 1068.9 1487.3 1075.38 1491.62 1084.02 1498.1 1086.18 1499.54 1090.5 1502.42 1093.38 1503.86 1096.98 1504.58 1097.7 1504.58 1099.14 1504.58 1099.14 1506.02 1098.42 1506.74 1098.42 1506.74 1097.7 1506.74 1097.7 1506.74 1095.54 1506.74 1094.82 1506.74H1091.94C1090.5 1506.74 1088.34 1506.74 1087.62 1506.74 1086.9 1506.74 1084.02 1506.74 1083.3 1506.74 1082.58 1506.74 1081.86 1506.74 1081.86 1505.3 1081.86 1505.3 1081.86 1504.58 1083.3 1504.58 1083.3 1503.86 1084.74 1503.86 1084.74 1503.14 1084.74 1501.7 1083.3 1500.26 1083.3 1500.26L1082.58 1499.54C1082.58 1499.54 1081.86 1499.54 1081.86 1498.82L1048.74 1475.78 1055.22 1500.98C1055.94 1503.86 1055.94 1504.58 1061.7 1504.58 1063.86 1504.58 1064.58 1504.58 1064.58 1506.02 1064.58 1506.02 1064.58 1506.74 1063.14 1506.74 1061.7 1506.74 1059.54 1506.74 1058.1 1506.74H1053.06C1045.86 1506.74 1043.7 1506.74 1042.98 1506.74 1042.26 1506.74 1041.54 1506.74 1041.54 1505.3 1041.54 1504.58 1042.26 1504.58 1043.7 1504.58 1046.58 1504.58 1048.74 1504.58 1048.74 1503.14 1048.74 1502.42 1048.74 1502.42 1048.02 1501.7L1037.94 1458.5C1037.22 1455.62 1036.5 1454.9 1030.74 1454.9 1029.3 1454.9 1028.58 1454.9 1028.58 1453.46 1028.58 1453.46 1028.58 1452.74 1029.3 1452.74 1031.46 1452.74 1032.9 1452.74 1034.34 1452.74H1045.14C1045.86 1452.74 1048.74 1452.74 1050.18 1452.74 1050.18 1452.74 1051.62 1452.74 1051.62 1454.18 1051.62 1454.9 1050.9 1454.9 1049.46 1454.9 1048.74 1454.9 1047.3 1454.9 1045.86 1454.9 1044.42 1455.62 1044.42 1455.62 1044.42 1456.34 1044.42 1457.06 1045.14 1458.5 1045.14 1459.94 1045.86 1463.54 1045.14 1459.22 1048.02 1472.18L1060.98 1481.54C1063.86 1475.06 1067.46 1468.58 1070.34 1461.38 1071.06 1461.38 1071.78 1459.22 1071.78 1458.5 1072.5 1457.78 1072.5 1457.78 1072.5 1457.06 1072.5 1454.9 1069.62 1454.9 1068.9 1454.9 1068.18 1454.9 1066.74 1454.9 1066.74 1453.46 1066.74 1453.46 1066.74 1452.74 1068.18 1452.74 1068.9 1452.74 1071.78 1452.74 1072.5 1452.74H1077.54C1084.74 1452.74 1084.02 1452.74 1085.46 1452.74 1085.46 1452.74 1086.9 1452.74 1086.9 1454.18 1086.9 1454.9 1085.46 1454.9 1085.46 1454.9 1082.58 1454.9 1081.14 1455.62 1079.7 1458.5L1067.46 1484.42" fill-rule="evenodd" />
<path transform="matrix(.1,0,0,-.1,106.272,518.862)" d="M1066.02 1403.78C1066.02 1404.5 1066.02 1405.22 1066.02 1405.22 1066.02 1407.38 1064.58 1408.1 1063.14 1408.1 1063.14 1408.1 1060.98 1408.1 1060.26 1405.94 1060.26 1405.22 1059.54 1402.34 1058.82 1400.9L1054.5 1381.46C1053.78 1381.46 1050.9 1374.98 1045.14 1374.98 1040.82 1374.98 1039.38 1377.86 1039.38 1381.46 1039.38 1385.78 1042.26 1392.98 1044.42 1398.02 1045.14 1399.46 1045.14 1400.18 1045.14 1401.62 1045.14 1406.66 1041.54 1408.82 1037.94 1408.82 1030.02 1408.82 1027.14 1397.3 1027.14 1396.58 1027.14 1395.86 1027.14 1395.14 1027.86 1395.14 1029.3 1395.14 1029.3 1395.86 1029.3 1396.58 1031.46 1403.78 1035.06 1406.66 1037.94 1406.66 1038.66 1406.66 1039.38 1405.94 1039.38 1403.78 1039.38 1402.34 1039.38 1400.18 1038.66 1398.74 1035.06 1390.1 1033.62 1386.5 1033.62 1382.9 1033.62 1374.98 1040.1 1372.82 1044.42 1372.82 1048.02 1372.82 1050.9 1374.26 1053.06 1376.42 1051.62 1372.1 1050.9 1368.5 1048.02 1364.9 1045.14 1361.3 1042.26 1359.86 1038.66 1359.86 1037.22 1359.86 1034.34 1359.86 1032.18 1362.02 1036.5 1362.74 1037.22 1366.34 1037.22 1366.34 1037.22 1368.5 1035.78 1369.22 1033.62 1369.22 1032.18 1369.22 1029.3 1367.78 1029.3 1364.18 1029.3 1360.58 1032.9 1356.98 1038.66 1356.98 1046.58 1356.98 1055.94 1363.46 1058.1 1373.54L1066.02 1403.78" fill-rule="evenodd" />
<path transform="matrix(.1,0,0,-.1,106.272,518.862)" d="M3035.45 1553.36C3033.29 1553.36 3031.84 1553.36 3031.84 1554.08 3031.84 1554.08 3034 1565.6 3034.72 1567.76 3038.32 1583.6 3047.68 1594.4 3057.77 1594.4 3065.68 1594.4 3069.29 1588.64 3069.29 1582.16 3069.29 1568.48 3054.16 1553.36 3035.45 1553.36ZM3030.41 1546.88C3031.13 1546.88 3032.57 1546.88 3034.72 1546.88 3054.16 1546.88 3072.16 1565.6 3072.16 1584.32 3072.16 1592.24 3069.29 1600.88 3059.2 1600.88 3041.93 1600.88 3034.72 1576.4 3027.52 1554.08 3013.84 1556.96 3008.09 1564.16 3008.09 1572.08 3008.09 1574.96 3010.96 1587.92 3017.45 1596.56 3018.88 1598 3018.88 1598.72 3018.88 1598.72 3018.88 1599.44 3018.16 1599.44 3017.45 1599.44 3014.57 1599.44 3005.2 1582.16 3005.2 1570.64 3005.2 1557.68 3016 1549.76 3025.36 1547.6L3019.61 1527.44C3018.88 1526 3018.88 1526 3018.88 1525.28 3018.88 1522.4 3021.77 1522.4 3021.77 1522.4 3023.2 1522.4 3025.36 1522.4 3026.09 1525.28 3026.8 1526 3029.68 1544.72 3030.41 1546.88" fill-rule="evenodd" />
<path transform="matrix(.1,0,0,-.1,106.272,518.862)" d="M3101.68 1580.72C3101.68 1582.88 3100.96 1582.88 3098.8 1582.88 3095.93 1580 3091.61 1577.84 3083.68 1577.84V1575.68C3085.84 1575.68 3090.16 1575.68 3095.2 1577.84V1536.8C3095.2 1533.92 3094.48 1532.48 3087.29 1532.48H3084.41V1530.32C3088 1530.32 3094.48 1530.32 3098.09 1530.32 3101.68 1530.32 3108.88 1530.32 3111.77 1530.32V1532.48H3108.88C3101.68 1532.48 3101.68 1533.92 3101.68 1536.8V1580.72" fill-rule="evenodd" />
</g>

</svg>