<svg xmlns="http://www.w3.org/2000/svg" xmlns:xlink="http://www.w3.org/1999/xlink" version="1.1" width="171.000" height="139.000" viewBox="359.638 88.821 171.000 139.000">
<defs>
<clipPath id="clip_2">
<path transform="matrix(1,0,0,-1,369.638,217.82105)" d="M0 0H151V119H0Z" />
</clipPath>

<clipPath id="clip_3">
<path transform="matrix(.1,0,0,-.1,369.638,217.82105)" d="M977.824 583.621H1147.9V526.93H977.824V583.621Z" clip-rule="evenodd" />
</clipPath>

</defs>
<g clip-path="url(#clip_2)">
<path transform="matrix(.1,0,0,-.1,369.638,217.82105)" stroke-width="11.3386" stroke-linecap="butt" stroke-miterlimit="22.9256" stroke-linejoin="miter" fill="none" stroke="#000000" d="M150.078 158.426V543.734" />
<path transform="matrix(.1,0,0,-.1,369.638,217.82105)" d="M150.078 583.621 127.402 509.922C142.52 520.449 157.641 520.449 172.758 509.922L150.078 583.621" fill-rule="evenodd" />
<path transform="matrix(.1,0,0,-.1,369.638,217.82105)" stroke-width="11.3386" stroke-linecap="butt" stroke-miterlimit="22.9256" stroke-linejoin="miter" fill="none" stroke="#000000" d="M150.078 158.426H535.387" />
<path transform="matrix(.1,0,0,-.1,369.638,217.82105)" d="M575.277 158.426 501.574 181.102C512.102 165.984 512.102 150.863 501.574 135.746L575.277 158.426" fill-rule="evenodd" />
<path transform="matrix(.1,0,0,-.1,369.638,217.82105)" stroke-width="11.3386" stroke-linecap="butt" stroke-miterlimit="22.9256" stroke-linejoin="miter" fill="none" stroke="#000000" d="M821.918 604.883 1077.04 1046.76 1150.68 1004.24 895.563 562.363 821.918 604.883Z" />
<path transform="matrix(.1,0,0,-.1,369.638,217.82105)" d="M150.078 175.434C159.469 175.434 167.086 167.816 167.086 158.426 167.086 149.035 159.469 141.418 150.078 141.418 140.688 141.418 133.07 149.035 133.07 158.426 133.07 167.816 140.688 175.434 150.078 175.434" fill-rule="evenodd" />
<path transform="matrix(.1,0,0,-.1,369.638,217.82105)" d="M1055.81 885.18 999.563 772.68 1088.31 733.934 1156.38 861.254 1055.81 885.18" fill="#ffffff" fill-rule="evenodd" />
<path transform="matrix(.1,0,0,-.1,369.638,217.82105)" d="M971.57 813.063C976.266 821.195 986.672 823.984 994.805 819.289 1002.94 814.594 1005.73 804.188 1001.03 796.055 996.332 787.922 985.93 785.133 977.797 789.832 969.664 794.527 966.875 804.93 971.57 813.063" fill-rule="evenodd" />
<path transform="matrix(.1,0,0,-.1,369.638,217.82105)" d="M844.012 592.125C848.707 600.258 859.113 603.047 867.246 598.352 875.375 593.656 878.164 583.25 873.469 575.117 868.773 566.984 858.367 564.195 850.234 568.895 842.105 573.586 839.313 583.992 844.012 592.125" fill-rule="evenodd" />
<path transform="matrix(.1,0,0,-.1,369.638,217.82105)" stroke-width="11.3386" stroke-linecap="butt" stroke-miterlimit="22.9256" stroke-linejoin="miter" fill="none" stroke="#000000" d="M150.078 158.426 824.648 563.168" />
<path transform="matrix(.1,0,0,-.1,369.638,217.82105)" d="M858.742 583.621 784.117 565.207C800.871 557.688 808.625 544.766 807.375 526.445L858.742 583.621" fill-rule="evenodd" />
<path transform="matrix(.1,0,0,-.1,369.638,217.82105)" stroke-width="5.6693" stroke-linecap="butt" stroke-miterlimit="22.9256" stroke-linejoin="miter" fill="none" stroke="#000000" d="M719.328 705.059 811.426 864.582" />
<path transform="matrix(.1,0,0,-.1,369.638,217.82105)" d="M701.598 674.352 716.898 741.172C723.859 726.348 735.5 719.625 751.816 721.012L701.598 674.352" fill-rule="evenodd" />
<path transform="matrix(.1,0,0,-.1,369.638,217.82105)" d="M829.156 895.289 778.938 848.629C795.258 850.012 806.898 843.293 813.855 828.469L829.156 895.289" fill-rule="evenodd" />
<path transform="matrix(.1,0,0,-.1,369.638,217.82105)" stroke-width="5.6693" stroke-linecap="butt" stroke-miterlimit="22.9256" stroke-linejoin="miter" fill="none" stroke="#000000" d="M796.559 619.523 683.027 685.07" />
<path transform="matrix(.1,0,0,-.1,369.638,217.82105)" d="M745.582 799.246C745.582 799.836 745.109 800.328 744.391 800.328 743.332 800.328 743.203 799.719 742.723 797.938 740.582 789.719 738.441 783.387 733.672 783.387 730.094 783.391 730.094 787.199 730.094 788.867 730.094 789.352 730.094 791.848 730.922 795.195L747.734 861.949C747.844 862.422 748.094 863.137 748.094 863.727 748.094 864.93 746.652 864.93 746.652 864.93L740.102 864.324C738.07 864.215 736.273 863.984 734.133 863.852 731.273 863.625 730.441 863.492 730.441 861.352 730.441 860.152 731.633 860.152 732.824 860.152 738.902 860.152 738.902 859.094 738.902 857.883 738.902 857.414 738.902 857.184 738.313 855.023L723.535 795.906C723.172 794.602 722.945 793.637 722.945 791.734 722.945 785.785 727.352 781.016 733.422 781.016 737.363 781.016 739.984 783.645 741.895 787.324 743.922 791.27 745.582 798.766 745.582 799.246" fill-rule="evenodd" />
<path transform="matrix(.1,0,0,-.1,369.638,217.82105)" stroke-width="11.3386" stroke-linecap="butt" stroke-miterlimit="22.9256" stroke-linejoin="miter" fill="none" stroke="#000000" d="M977.824 583.621H1147.9" />
<g clip-path="url(#clip_3)">
<path transform="matrix(.1,0,0,-.1,369.638,217.82105)" stroke-width="5.04" stroke-linecap="butt" stroke-miterlimit="10" stroke-linejoin="miter" fill="none" stroke="#231f20" d="M1083.25 447.973 955.414 575.805" />
<path transform="matrix(.1,0,0,-.1,369.638,217.82105)" stroke-width="5.04" stroke-linecap="butt" stroke-miterlimit="10" stroke-linejoin="miter" fill="none" stroke="#231f20" d="M1103.61 468.336 975.777 596.168" />
<path transform="matrix(.1,0,0,-.1,369.638,217.82105)" stroke-width="5.04" stroke-linecap="butt" stroke-miterlimit="10" stroke-linejoin="miter" fill="none" stroke="#231f20" d="M1123.97 488.703 996.141 616.535" />
<path transform="matrix(.1,0,0,-.1,369.638,217.82105)" stroke-width="5.04" stroke-linecap="butt" stroke-miterlimit="10" stroke-linejoin="miter" fill="none" stroke="#231f20" d="M1144.34 509.066 1016.51 636.898" />
<path transform="matrix(.1,0,0,-.1,369.638,217.82105)" stroke-width="5.04" stroke-linecap="butt" stroke-miterlimit="10" stroke-linejoin="miter" fill="none" stroke="#231f20" d="M1164.7 529.43 1036.87 657.262" />
<path transform="matrix(.1,0,0,-.1,369.638,217.82105)" stroke-width="5.04" stroke-linecap="butt" stroke-miterlimit="10" stroke-linejoin="miter" fill="none" stroke="#231f20" d="M1185.07 549.797 1057.23 677.629" />
<path transform="matrix(.1,0,0,-.1,369.638,217.82105)" stroke-width="5.04" stroke-linecap="butt" stroke-miterlimit="10" stroke-linejoin="miter" fill="none" stroke="#231f20" d="M1205.43 570.16 1077.6 697.992" />
</g>
<path transform="matrix(.1,0,0,-.1,369.638,217.82105)" stroke-width="5.6693" stroke-linecap="butt" stroke-miterlimit="22.9256" stroke-linejoin="miter" fill="none" stroke="#000000" d="M1062.86 583.621C1062.86 627.949 1048.43 671.066 1021.76 706.469" />
<path transform="matrix(.1,0,0,-.1,369.638,217.82105)" d="M1000.42 734.789 1023.75 670.328C1028.85 685.895 1039.59 693.98 1055.95 694.594L1000.42 734.789" fill-rule="evenodd" />
<path transform="matrix(.1,0,0,-.1,369.638,217.82105)" d="M1139.22 678.176C1139.22 664.586 1123.97 649.695 1105.72 649.695 1103.7 649.695 1101.91 649.695 1101.91 650.285 1101.91 650.289 1103.94 661.727 1104.66 664.344 1108.47 679.613 1117.54 690.566 1127.89 690.566 1135.64 690.566 1139.22 684.738 1139.22 678.176ZM1142.2 680.926C1142.2 688.199 1138.98 697.004 1128.97 697.004 1111.8 697.008 1104.53 672.813 1097.86 650.395 1084.14 653.027 1078.42 660.305 1078.42 668.289 1078.42 671.512 1080.94 684.254 1087.84 692.836 1089.16 694.398 1089.16 694.863 1089.16 694.863 1089.16 695.816 1087.96 695.816 1087.96 695.816 1084.74 695.816 1075.68 678.402 1075.68 667.098 1075.68 653.738 1086.16 646.477 1095.82 644.316L1089.63 624.176C1089.03 622.398 1089.03 622.145 1089.03 621.676 1089.03 618.82 1092.14 618.695 1092.14 618.695 1093.34 618.699 1095.47 619.176 1096.43 621.555 1096.79 622.641 1100.13 641.105 1100.59 643.496 1101.32 643.379 1102.5 643.266 1104.66 643.266 1124.2 643.266 1142.2 662.098 1142.2 680.926" fill-rule="evenodd" />
<path transform="matrix(.1,0,0,-.1,369.638,217.82105)" d="M543.875 45.7461C543.875 47.5313 542.078 47.5273 541.355 47.5273 539.445 47.5313 539.336 47.1719 538.625 45.6211 535.535 37.875 527.656 35.3711 521.938 35.3711 504.656 35.3711 504.527 51.4609 504.527 58.1406H540.406C543.156 58.1406 543.875 58.1406 543.875 61.1211 543.875 64.707 543.035 73.6406 537.547 79.2305 532.547 84.25 525.875 85.7891 518.957 85.7891 500.367 85.793 490.234 73.6289 490.234 58.6211 490.234 41.9258 502.504 31.0703 520.504 31.0703 538.504 31.0742 543.883 43.7109 543.875 45.7461ZM532.914 61.5938H504.547C504.777 66.4883 504.906 71.1445 507.406 75.4258 509.676 79.2344 513.848 81.8633 518.965 81.8633 531.715 81.8672 532.797 67.5625 532.914 61.5938" fill-rule="evenodd" />
<path transform="matrix(.1,0,0,-.1,369.638,217.82105)" d="M588.988 128.965C588.988 128.965 588.906 130.074 587.625 130.074 586.438 130.078 583.965 129.914 582.707 129.844L571.734 129.848C570.625 129.93 567.766 130.078 566.656 130.078 566.328 130.078 565.066 130.078 565.066 128.555 565.066 127.449 566.016 127.449 567.617 127.449 572.617 127.449 572.617 126.969 572.617 126.008 572.617 126.012 572.617 125.457 572.305 124.176L561.727 82.0664C561.027 79.2109 560.777 78.4102 554.898 78.4102 552.988 78.4141 552.117 78.4102 552.117 76.8906 552.117 76.5 552.426 75.7773 553.387 75.7773 554.496 75.7813 557.117 75.9414 558.328 76.0078L569.375 76.0117C570.488 75.9297 573.344 75.7813 574.457 75.7813 574.934 75.7852 576.047 75.7813 576.047 77.3008 576.047 78.4141 575.098 78.4102 573.426 78.4102 572.238 78.4141 571.758 78.4102 570.406 78.5703 569.047 78.7344 568.426 78.8008 568.426 79.6797 568.426 80.0938 568.508 80.0898 568.734 81.1992L579.379 123.875C580.098 126.656 580.258 127.453 586.219 127.453 588.047 127.457 589 127.453 588.988 128.965" fill-rule="evenodd" />
<path transform="matrix(.1,0,0,-.1,369.638,217.82105)" d="M590.258 14.1523C590.258 14.957 589.617 15.1836 589.066 15.1836 588.117 15.1875 587.953 14.6328 587.707 13.8438 586.125 8.51953 581.598 4.23438 576.984 4.23438 574.367 4.23828 572.457 5.96484 572.457 9.3125 572.457 10.9063 572.926 12.7344 574.047 17.1953L576.746 28.0742C577.855 32.2148 580.637 35.6328 584.215 35.6328 584.605 35.6328 586.664 35.6328 588.348 34.5156 584.844 33.6484 584.688 30.5469 584.688 30.2383 584.688 28.4844 586.047 27.293 587.797 27.293 589.527 27.2969 592.234 28.6367 592.234 32.0664 592.234 36.5977 587.234 37.8633 584.297 37.8633 580.566 37.8672 577.527 35.2461 575.707 32.1484 573.977 36.3477 569.836 37.8633 566.586 37.8633 557.918 37.8672 553.066 27.9258 553.066 25.707 553.066 24.9883 553.625 24.6758 554.258 24.6758 555.207 24.6797 555.363 25.0664 555.613 26.0156 557.445 31.8164 562.203 35.6445 566.336 35.6445 569.445 35.6445 570.945 33.418 570.945 30.5586 570.945 28.9688 569.996 25.3086 569.367 22.7773L566.668 11.8867C565.547 7.58984 562.688 4.26563 559.105 4.26563 558.797 4.26953 556.738 4.26563 555.055 5.375 558.715 6.25391 558.715 9.65625 558.715 9.65625 558.715 11.4844 557.277 12.6055 555.547 12.6055 553.387 12.6055 551.098 10.7734 551.098 7.74609 551.098 4.08984 554.984 2.02734 559.035 2.02734 563.258 2.02734 566.195 5.21484 567.625 7.74609 569.375 3.85938 573.035 2.02734 576.848 2.02734 585.504 2.02734 590.266 11.9648 590.258 14.1523" fill-rule="evenodd" />
<path transform="matrix(.1,0,0,-.1,369.638,217.82105)" d="M61.9883 499.293C61.9883 501.074 60.1875 501.07 59.4648 501.07 57.5547 501.074 57.4453 500.715 56.7383 499.164 53.6484 491.418 45.7656 488.914 40.0469 488.914 22.7656 488.914 22.6367 505.004 22.6367 511.684H58.5156C61.2656 511.684 61.9883 511.684 61.9883 514.664 61.9883 518.25 61.1445 527.184 55.6563 532.773 50.6563 537.793 43.9883 539.332 37.0664 539.332 18.4766 539.336 8.34766 527.172 8.34766 512.164 8.34766 495.469 20.6133 484.613 38.6133 484.613 56.6133 484.617 61.9961 497.254 61.9883 499.293ZM51.0234 515.137H22.6563C22.8867 520.031 23.0156 524.688 25.5156 528.969 27.7852 532.777 31.957 535.406 37.0742 535.406 49.8242 535.41 50.9063 521.105 51.0234 515.137" fill-rule="evenodd" />
<path transform="matrix(.1,0,0,-.1,369.638,217.82105)" d="M107.098 582.508C107.098 582.508 107.02 583.617 105.738 583.617 104.547 583.621 102.078 583.457 100.816 583.387L89.8438 583.391C88.7383 583.477 85.875 583.621 84.7656 583.621 84.4375 583.621 83.1758 583.621 83.1758 582.102 83.1758 580.996 84.125 580.992 85.7266 580.992 90.7266 580.996 90.7266 580.512 90.7266 579.551 90.7266 579.555 90.7266 579 90.4141 577.719L79.8359 535.613C79.1367 532.754 78.8867 531.953 73.0078 531.953 71.0977 531.957 70.2266 531.953 70.2266 530.434 70.2266 530.043 70.5352 529.32 71.4961 529.32 72.6094 529.324 75.2266 529.484 76.4375 529.551L87.4883 529.555C88.5977 529.477 91.457 529.324 92.5664 529.324 93.0469 529.332 94.1563 529.324 94.1563 530.844 94.1563 531.957 93.207 531.953 91.5391 531.953 90.3477 531.957 89.8672 531.953 88.5156 532.113 87.1563 532.277 86.5391 532.344 86.5391 533.227 86.5391 533.641 86.6172 533.633 86.8477 534.746L97.4883 577.418C98.207 580.199 98.3672 580.996 104.328 580.996 106.16 581 107.109 580.996 107.098 582.508" fill-rule="evenodd" />
<path transform="matrix(.1,0,0,-.1,369.638,217.82105)" d="M107.816 486.285C108.125 487.418 108.125 487.566 108.125 488.117 108.125 490.117 106.535 490.59 105.578 490.59 105.188 490.59 103.355 490.508 102.328 488.449 102.156 488.039 101.457 485.176 101.047 483.508L96.2773 464.449C96.1992 464.227 92.7773 457.781 86.9766 457.781 83.0859 457.785 81.7266 460.641 81.7266 464.223 81.7266 468.832 84.4258 475.891 86.2578 480.5 87.0547 482.484 87.2852 483.203 87.2852 484.641 87.2852 489.004 83.8086 491.391 80.1445 491.391 72.2773 491.395 69.0273 480.191 69.0273 479.23 69.0273 478.512 69.5781 478.203 70.2148 478.203 71.2461 478.203 71.3281 478.672 71.5547 479.473 73.6367 486.395 77.0352 489.172 79.8945 489.172 81.0977 489.172 81.8047 488.371 81.8047 486.551 81.8047 484.887 81.1836 483.055 80.6172 481.613 77.3672 473.199 76.0078 469.141 76.0078 465.414 76.0078 457.617 81.8984 455.555 86.5859 455.555 90.3164 455.559 93.0273 457.223 94.9297 459.055 93.8086 454.605 93.0156 451.504 89.9883 447.695 87.3672 444.426 84.1875 442.363 80.6172 442.363 79.2773 442.367 76.2461 442.594 74.6641 444.992 78.8672 445.309 79.1953 448.887 79.1953 449.352 79.1953 451.266 77.7539 452.305 76.0859 452.305 74.3359 452.309 71.5547 450.945 71.5547 447.055 71.5547 443.328 74.9766 440.137 80.6172 440.137 88.7266 440.141 97.8672 446.668 100.246 456.277L107.816 486.285" fill-rule="evenodd" />
<path transform="matrix(.1,0,0,-.1,369.638,217.82105)" d="M133.801 113.242C133.801 132.906 120.93 144.941 104.238 144.941 78.7188 144.945 52.9688 117.52 52.9688 89.9922 52.9688 71.2734 65.3789 58.5195 82.6602 58.5195 107.688 58.5195 133.801 84.6328 133.801 113.242ZM124.25 117.52C124.25 106.914 119.719 90.3516 111.73 79.0195 103.031 66.8633 92.1797 61.25 83.3711 61.25 73.5898 61.2539 63.2109 68.4102 63.2109 87 63.2109 97.8477 67.1523 115.609 76.9297 127.531 85.6289 138.012 95.6328 142.309 103.629 142.309 114.109 142.309 124.242 134.691 124.25 117.52" fill-rule="evenodd" />
<path transform="matrix(.1,0,0,-.1,369.638,217.82105)" stroke-width="42.5197" stroke-linecap="butt" stroke-miterlimit="22.9256" stroke-linejoin="miter" fill="none" stroke="#ffffff" d="M971.57 813.063 878 867.086" />
<path transform="matrix(.1,0,0,-.1,369.638,217.82105)" stroke-width="11.3386" stroke-linecap="butt" stroke-miterlimit="22.9256" stroke-linejoin="miter" fill="none" stroke="#000000" d="M986.301 804.559 652.465 997.301" />
<path transform="matrix(.1,0,0,-.1,369.638,217.82105)" d="M618.066 1017.16 670.332 960.91C668.777 979.188 676.309 992.227 692.914 1000.02L618.066 1017.16" fill-rule="evenodd" />
<path transform="matrix(.1,0,0,-.1,369.638,217.82105)" d="M898.723 529.18C898.723 538.484 890.852 546.949 875.832 546.949L838.992 546.957C836.719 546.957 835.66 546.957 835.66 544.684 835.664 543.488 836.719 543.484 838.52 543.484 845.793 543.488 845.793 542.535 845.793 541.215 845.793 541.219 845.793 540.266 845.32 538.484L829.23 474.367C828.156 470.203 827.922 469 819.57 469 817.305 469.004 816.121 469 816.121 466.859 816.121 465.555 817.18 465.551 817.902 465.551 820.172 465.555 822.563 465.781 824.813 465.781H838.762C841.031 465.781 843.531 465.551 845.793 465.551 846.742 465.555 848.063 465.551 848.063 467.82 848.063 469.016 847 469.012 845.203 469.012 838.043 469.016 837.934 469.852 837.934 471.043 837.934 471.637 838.043 472.461 838.164 473.07L845.793 503.465H865.824C882.273 503.465 898.734 515.621 898.723 529.18ZM888.703 531.676C888.703 528.59 887.152 518.449 881.672 512.957 879.645 510.82 873.922 506.289 863.063 506.289L846.262 506.293 854.371 538.844C855.434 543.254 855.922 543.484 860.563 543.484H872.363C881.313 543.484 888.703 540.625 888.703 531.676" fill-rule="evenodd" />
<path transform="matrix(.1,0,0,-.1,369.638,217.82105)" d="M1088.37 804.609C1088.37 809.609 1087.17 814.027 1082.66 818.438 1080.13 820.945 1078 821.527 1067.03 824.387 1059.05 826.551 1057.97 826.91 1055.83 828.809 1053.8 830.832 1052.25 833.699 1052.25 837.75 1052.25 847.77 1062.39 858.02 1073.7 858.02 1085.39 858.023 1090.87 850.859 1090.87 839.539 1090.88 836.453 1090.28 833.23 1090.28 832.758 1090.28 831.684 1091.23 831.68 1091.59 831.68 1092.66 831.684 1092.78 832.039 1093.27 833.949L1099.68 860.172C1099.68 861.254 1098.63 861.254 1098.63 861.254 1098.14 861.254 1098.03 861.133 1096.59 859.344L1090.88 852.184C1086.93 859.934 1079.07 861.246 1074.06 861.246 1058.92 861.246 1045.22 847.414 1045.22 833.945 1045.22 825.008 1050.58 819.758 1056.42 817.723 1057.73 817.258 1064.76 815.355 1068.34 814.504 1074.42 812.836 1075.97 812.363 1078.47 809.734 1078.96 809.148 1081.35 806.395 1081.35 800.797 1081.35 789.711 1071.08 778.266 1059.18 778.266 1049.4 778.266 1038.56 782.438 1038.56 795.797 1038.56 798.047 1039.04 800.926 1039.39 802.105 1039.39 802.465 1039.52 803.297 1039.52 803.297 1039.52 803.773 1039.29 804.375 1038.32 804.375 1037.26 804.379 1037.13 804.145 1036.66 802.105L1030.59 777.664 1030.11 775.863C1030.11 774.809 1031.29 774.805 1031.29 774.805 1031.78 774.809 1031.91 774.914 1033.32 776.715L1038.8 783.875C1041.66 779.578 1047.86 774.816 1058.95 774.816 1074.33 774.82 1088.39 789.707 1088.37 804.609" fill-rule="evenodd" />
<path transform="matrix(.1,0,0,-.1,369.638,217.82105)" d="M1249.75 1060.39C1249.75 1062.17 1247.95 1062.17 1247.23 1062.17 1245.32 1062.17 1245.21 1061.81 1244.5 1060.26 1241.41 1052.51 1233.53 1050.01 1227.81 1050.01 1210.53 1050.01 1210.4 1066.1 1210.4 1072.78H1246.28C1249.03 1072.78 1249.75 1072.78 1249.75 1075.76 1249.75 1079.34 1248.91 1088.28 1243.42 1093.87 1238.42 1098.89 1231.75 1100.43 1224.83 1100.43 1206.24 1100.43 1196.11 1088.27 1196.11 1073.26 1196.11 1056.56 1208.38 1045.71 1226.38 1045.71 1244.38 1045.71 1249.76 1058.35 1249.75 1060.39ZM1238.79 1076.23H1210.42C1210.65 1081.13 1210.78 1085.78 1213.28 1090.06 1215.55 1093.87 1219.72 1096.5 1224.84 1096.5 1237.59 1096.51 1238.67 1082.2 1238.79 1076.23" fill-rule="evenodd" />
<path transform="matrix(.1,0,0,-.1,369.638,217.82105)" d="M1316.71 1091.96C1316.71 1093.07 1315.6 1093.07 1315.13 1093.07 1312.02 1093.15 1310.99 1093.71 1309.72 1096.39L1297.08 1122.4 1296.61 1123.43C1296.61 1123.43 1297.95 1124.54 1298.75 1125.1 1305.03 1129.71 1313.61 1135.9 1316.23 1137.57 1320.28 1140.13 1323.23 1141.79 1326.79 1142.1 1327.43 1142.19 1328.54 1142.26 1328.54 1143.69 1328.46 1144.25 1327.99 1144.72 1327.43 1144.72 1327.43 1144.72 1325.13 1144.49 1324.57 1144.49H1321.4C1320.04 1144.49 1318.06 1144.49 1317.34 1144.57 1316.79 1144.57 1313.68 1144.73 1313.14 1144.73 1312.58 1144.73 1311.47 1144.73 1311.47 1143.21 1311.47 1143.21 1311.55 1142.18 1312.74 1142.11 1313.38 1142.02 1314.65 1141.88 1314.65 1140.91 1314.65 1139.64 1313.07 1138.29 1312.9 1138.21L1312.28 1137.65C1312.03 1137.43 1311.72 1137.11 1311.33 1136.85L1278.91 1113.34 1285.18 1138.53C1285.9 1141.39 1286.06 1142.11 1291.87 1142.11 1293.45 1142.11 1294.4 1142.11 1294.4 1143.63 1294.4 1143.63 1294.32 1144.74 1293.06 1144.74 1291.54 1144.74 1289.64 1144.58 1288.13 1144.51L1283.13 1144.52C1275.5 1144.52 1273.43 1144.75 1272.88 1144.75 1272.48 1144.75 1271.28 1144.75 1271.28 1143.22 1271.28 1142.12 1272.23 1142.12 1273.59 1142.12 1276.22 1142.12 1278.52 1142.12 1278.52 1140.84 1278.52 1140.52 1278.43 1140.43 1278.2 1139.4L1267.54 1096.73C1266.82 1093.72 1266.68 1093.07 1260.79 1093.07 1259.27 1093.08 1258.32 1093.07 1258.32 1091.55 1258.32 1091.25 1258.55 1090.45 1259.61 1090.45 1261.11 1090.45 1263.02 1090.61 1264.52 1090.68H1274.77C1276.04 1090.6 1278.66 1090.45 1279.86 1090.45 1280.25 1090.45 1281.44 1090.45 1281.44 1091.89 1281.44 1093.08 1280.49 1093.08 1279.14 1093.08 1278.58 1093.08 1277.47 1093.08 1276.11 1093.24 1274.45 1093.4 1274.2 1093.55 1274.2 1094.35 1274.2 1094.83 1274.77 1096.82 1275 1098.08 1275.88 1101.58 1274.84 1097.21 1278.03 1110.08L1290.81 1119.3 1300.36 1099.68 1301.87 1096.6C1302.34 1095.8 1302.34 1095.65 1302.34 1095.32 1302.34 1093.18 1299.41 1093.1 1298.54 1093.1 1297.73 1093.1 1296.63 1093.1 1296.63 1091.58 1296.63 1091.58 1296.7 1090.46 1297.96 1090.46 1298.77 1090.47 1301.78 1090.63 1302.5 1090.7H1307.11C1314.41 1090.7 1314.19 1090.46 1315.21 1090.46 1315.53 1090.47 1316.71 1090.46 1316.71 1091.96" fill-rule="evenodd" />
<path transform="matrix(.1,0,0,-.1,369.638,217.82105)" d="M1296.13 1028.79C1296.13 1029.6 1295.49 1029.82 1294.94 1029.82 1293.99 1029.83 1293.83 1029.27 1293.58 1028.48 1292 1023.16 1287.47 1018.88 1282.86 1018.88 1280.24 1018.88 1278.33 1020.6 1278.33 1023.95 1278.33 1025.55 1278.8 1027.37 1279.92 1031.83L1282.62 1042.71C1283.73 1046.86 1286.51 1050.27 1290.09 1050.27 1290.48 1050.27 1292.54 1050.27 1294.22 1049.15 1290.72 1048.29 1290.56 1045.18 1290.56 1044.88 1290.56 1043.13 1291.92 1041.93 1293.67 1041.93 1295.4 1041.94 1298.11 1043.27 1298.11 1046.7 1298.11 1051.24 1293.11 1052.5 1290.17 1052.5 1286.44 1052.51 1283.4 1049.88 1281.58 1046.79 1279.85 1050.99 1275.71 1052.5 1272.46 1052.5 1263.79 1052.51 1258.94 1042.57 1258.94 1040.35 1258.94 1039.63 1259.5 1039.31 1260.13 1039.31 1261.08 1039.32 1261.24 1039.71 1261.49 1040.66 1263.32 1046.45 1268.08 1050.29 1272.21 1050.29 1275.32 1050.29 1276.82 1048.05 1276.82 1045.2 1276.82 1043.61 1275.87 1039.95 1275.24 1037.41L1272.54 1026.52C1271.42 1022.23 1268.56 1018.91 1264.98 1018.91 1264.67 1018.91 1262.61 1018.91 1260.93 1020.01 1264.59 1020.89 1264.59 1024.29 1264.59 1024.29 1264.59 1026.13 1263.15 1027.25 1261.42 1027.25 1259.26 1027.25 1256.97 1025.41 1256.97 1022.39 1256.97 1018.73 1260.86 1016.66 1264.91 1016.66 1269.13 1016.66 1272.07 1019.86 1273.5 1022.39 1275.25 1018.5 1278.91 1016.66 1282.72 1016.66 1291.38 1016.66 1296.14 1026.61 1296.13 1028.79" fill-rule="evenodd" />
<path transform="matrix(.1,0,0,-.1,369.638,217.82105)" d="M708.086 1059.8C708.086 1061.59 706.285 1061.59 705.566 1061.59 703.652 1061.59 703.543 1061.23 702.836 1059.68 699.746 1051.93 691.863 1049.43 686.145 1049.43 668.863 1049.43 668.734 1065.52 668.734 1072.2H704.613C707.363 1072.2 708.086 1072.2 708.086 1075.18 708.086 1078.77 707.242 1087.7 701.754 1093.29 696.754 1098.31 690.086 1099.85 683.164 1099.85 664.574 1099.85 654.445 1087.69 654.445 1072.68 654.445 1055.98 666.711 1045.13 684.711 1045.13 702.711 1045.13 708.094 1057.77 708.086 1059.8ZM697.121 1075.65H668.754C668.984 1080.55 669.113 1085.2 671.613 1089.48 673.883 1093.29 678.055 1095.92 683.172 1095.92 695.922 1095.93 697.004 1081.62 697.121 1075.65" fill-rule="evenodd" />
<path transform="matrix(.1,0,0,-.1,369.638,217.82105)" d="M775.043 1091.38C775.043 1092.49 773.934 1092.48 773.461 1092.48 770.352 1092.57 769.324 1093.13 768.055 1095.81L755.414 1121.82 754.945 1122.85C754.945 1122.85 756.285 1123.96 757.086 1124.52 763.367 1129.14 771.941 1135.32 774.566 1136.99 778.617 1139.55 781.563 1141.21 785.125 1141.52 785.766 1141.61 786.875 1141.68 786.875 1143.11 786.793 1143.66 786.324 1144.14 785.766 1144.14 785.766 1144.14 783.465 1143.91 782.906 1143.91H779.734C778.375 1143.91 776.395 1143.91 775.672 1143.99 775.125 1144 772.016 1144.15 771.477 1144.15 770.914 1144.15 769.805 1144.15 769.805 1142.63 769.805 1142.63 769.887 1141.6 771.074 1141.52 771.715 1141.44 772.984 1141.29 772.984 1140.33 772.984 1139.06 771.406 1137.71 771.234 1137.63L770.613 1137.07C770.363 1136.85 770.055 1136.52 769.664 1136.27L737.246 1112.75 743.516 1137.95C744.234 1140.81 744.395 1141.53 750.203 1141.53 751.785 1141.53 752.734 1141.53 752.734 1143.05 752.734 1143.05 752.656 1144.16 751.395 1144.16 749.875 1144.16 747.977 1144 746.457 1143.93H741.457C733.836 1143.93 731.766 1144.16 731.207 1144.16 730.816 1144.16 729.617 1144.16 729.617 1142.64 729.617 1141.54 730.566 1141.54 731.926 1141.54 734.559 1141.54 736.848 1141.54 736.848 1140.26 736.848 1139.93 736.766 1139.85 736.535 1138.82L725.879 1096.16C725.156 1093.14 725.008 1092.5 719.125 1092.5 717.605 1092.5 716.656 1092.5 716.656 1090.98 716.656 1090.67 716.887 1089.87 717.938 1089.87 719.438 1089.87 721.348 1090.03 722.855 1090.1H733.105C734.375 1090.02 736.996 1089.87 738.195 1089.87 738.59 1089.87 739.777 1089.87 739.777 1091.31 739.777 1092.5 738.824 1092.5 737.477 1092.5 736.914 1092.5 735.809 1092.5 734.445 1092.66 732.785 1092.82 732.535 1092.97 732.535 1093.77 732.535 1094.25 733.098 1096.24 733.336 1097.5 734.219 1101 733.176 1096.63 736.367 1109.5L749.148 1118.72 758.695 1099.1 760.199 1096.02C760.68 1095.21 760.68 1095.07 760.68 1094.73 760.68 1092.59 757.738 1092.52 756.867 1092.52 756.07 1092.52 754.957 1092.52 754.957 1091 754.957 1091 755.039 1089.88 756.301 1089.88 757.098 1089.89 760.109 1090.04 760.828 1090.11H765.438C772.75 1090.11 772.52 1089.88 773.547 1089.88 773.859 1089.89 775.047 1089.88 775.043 1091.38" fill-rule="evenodd" />
<path transform="matrix(.1,0,0,-.1,369.638,217.82105)" d="M753.914 1046.8C754.223 1047.93 754.223 1048.08 754.223 1048.63 754.223 1050.63 752.633 1051.1 751.676 1051.1 751.285 1051.1 749.453 1051.02 748.426 1048.96 748.254 1048.55 747.555 1045.69 747.145 1044.02L742.375 1024.96C742.297 1024.74 738.875 1018.3 733.074 1018.3 729.184 1018.3 727.824 1021.16 727.824 1024.73 727.824 1029.35 730.523 1036.41 732.355 1041.02 733.152 1043 733.383 1043.71 733.383 1045.16 733.383 1049.52 729.906 1051.91 726.242 1051.91 718.375 1051.91 715.125 1040.71 715.125 1039.75 715.125 1039.03 715.676 1038.71 716.313 1038.71 717.344 1038.72 717.426 1039.19 717.652 1039.98 719.734 1046.91 723.133 1049.69 725.992 1049.69 727.195 1049.69 727.906 1048.89 727.906 1047.07 727.906 1045.4 727.285 1043.57 726.715 1042.13 723.465 1033.71 722.105 1029.66 722.105 1025.93 722.105 1018.13 727.996 1016.07 732.684 1016.07 736.414 1016.07 739.125 1017.74 741.027 1019.57 739.906 1015.12 739.117 1012.02 736.086 1008.21 733.465 1004.94 730.285 1002.88 726.715 1002.88 725.375 1002.88 722.344 1003.11 720.766 1005.51 724.965 1005.82 725.293 1009.4 725.293 1009.87 725.293 1011.78 723.855 1012.82 722.184 1012.82 720.434 1012.82 717.652 1011.46 717.652 1007.57 717.652 1003.84 721.074 1000.65 726.715 1000.65 734.824 1000.66 743.965 1007.18 746.344 1016.79L753.914 1046.8" fill-rule="evenodd" />
<path transform="matrix(.1,0,0,-.1,369.638,217.82105)" d="M354.52 468.398C354.52 468.398 354.441 469.504 353.16 469.504 351.973 469.508 349.5 469.344 348.242 469.273L337.27 469.277C336.16 469.363 333.301 469.508 332.191 469.508 331.863 469.508 330.602 469.508 330.602 467.988 330.602 466.883 331.551 466.879 333.152 466.879 338.152 466.883 338.152 466.398 338.152 465.438 338.152 465.441 338.152 464.891 337.84 463.609L327.262 421.5C326.563 418.645 326.313 417.836 320.43 417.836 318.523 417.844 317.652 417.836 317.652 416.32 317.652 415.93 317.961 415.211 318.922 415.211 320.031 415.211 322.652 415.371 323.859 415.441H334.91C336.02 415.363 338.879 415.211 339.992 415.211 340.469 415.215 341.582 415.211 341.582 416.73 341.582 417.844 340.633 417.84 338.961 417.84 337.773 417.844 337.289 417.84 335.941 418.004 334.582 418.164 333.961 418.23 333.961 419.113 333.961 419.523 334.043 419.523 334.27 420.633L344.914 463.305C345.633 466.09 345.793 466.887 351.754 466.887 353.582 466.887 354.531 466.887 354.52 468.398" fill-rule="evenodd" />
<path transform="matrix(.1,0,0,-.1,369.638,217.82105)" d="M412.98 476.445C412.98 482.523 406.781 485.863 401.063 485.863 391.641 485.867 387.59 477.645 385.922 472.633L385.801 472.637V485.867L366.25 484.922V479.805C373.641 479.805 374.469 479.805 374.469 475.145L374.473 437.363H366.25V432.242C368.98 432.473 377.941 432.473 381.273 432.473 384.742 432.473 394.379 432.473 397.25 432.242V437.375H386.883V459.074C386.883 462.996 387.711 481.953 401.66 481.953 399.992 480.645 399.16 478.625 399.16 476.477 399.16 471.609 403.082 469.563 406.074 469.563 409.051 469.563 412.992 471.594 412.98 476.445" fill-rule="evenodd" />
<path transform="matrix(.1,0,0,-.1,369.638,217.82105)" d="M479.129 449.395C479.129 462.426 470.07 471.176 457.359 471.176 438.84 471.176 421.109 452.816 421.109 435.094 421.109 422.844 429.699 413.543 443.051 413.543 460.848 413.547 479.129 430.633 479.129 449.395ZM471.738 452.176C471.738 447.809 470.07 435.402 461.902 425.703 457.289 420.227 450.449 416.176 443.699 416.176 435.59 416.18 429 421.973 429 433.344 429.004 434.617 429 447.875 438.141 459.172 441.082 462.734 448.23 468.703 456.809 468.703 464.762 468.707 471.75 463.223 471.738 452.176" fill-rule="evenodd" />
<path transform="matrix(.1,0,0,-.1,369.638,217.82105)" d="M546.93 457.352C546.93 464.102 540.57 469.512 530.32 469.512H503.539C502.121 469.512 501.07 469.512 501.07 467.992 501.07 466.887 502.121 466.887 503.379 466.887 506.012 466.887 508.301 466.887 508.301 465.617 508.301 465.289 508.223 465.203 507.988 464.176L497.332 421.504C496.633 418.57 496.461 417.848 490.813 417.848 488.98 417.848 488.109 417.848 488.109 416.328 488.113 416.02 488.363 415.215 489.391 415.215 490.891 415.215 492.801 415.379 494.313 415.445L499.402 415.449C507.031 415.449 509.094 415.215 509.652 415.215 510.121 415.223 511.234 415.215 511.234 416.738 511.234 417.848 510.199 417.848 508.863 417.848 508.633 417.848 507.191 417.848 505.84 418.008 504.172 418.168 504.012 418.395 504.012 419.117 504.012 419.531 504.172 419.996 504.242 420.398L509.082 440.027H523.551C534.992 440.027 546.914 447.969 546.93 457.352ZM539.23 459.102C539.23 458.055 538.82 450.992 534.371 446.621 533.18 445.434 529.371 442.402 521.59 442.402H509.512L514.902 463.957C515.621 466.656 515.699 466.898 518.961 466.898H527.691C534.215 466.898 539.223 464.988 539.23 459.102" fill-rule="evenodd" />
<path transform="matrix(.1,0,0,-.1,369.638,217.82105)" stroke-width="28.3465" stroke-linecap="butt" stroke-miterlimit="22.9256" stroke-linejoin="miter" fill="none" stroke="#ffffff" d="M1105.73 968.398C1152.59 968.398 1135.39 912.145 1189.48 912.145" />
<path transform="matrix(.1,0,0,-.1,369.638,217.82105)" stroke-width="5.6693" stroke-linecap="butt" stroke-miterlimit="22.9256" stroke-linejoin="miter" fill="none" stroke="#000000" d="M1105.73 968.398C1152.59 968.398 1135.39 912.145 1189.48 912.145" />
<path transform="matrix(.1,0,0,-.1,369.638,217.82105)" stroke-width="42.5197" stroke-linecap="butt" stroke-miterlimit="22.9256" stroke-linejoin="miter" fill="none" stroke="#ffffff" d="M1046.01 907.98 1198.9 1172.79" />
<path transform="matrix(.1,0,0,-.1,369.638,217.82105)" stroke-width="11.3386" stroke-linecap="butt" stroke-miterlimit="22.9256" stroke-linejoin="miter" fill="none" stroke="#000000" d="M986.301 804.559 1179.04 1138.39" />
<path transform="matrix(.1,0,0,-.1,369.638,217.82105)" d="M1198.9 1172.79 1142.65 1120.53C1160.93 1122.08 1173.96 1114.55 1181.76 1097.95L1198.9 1172.79" fill-rule="evenodd" />
<path transform="matrix(.1,0,0,-.1,369.638,217.82105)" d="M1302.76 907.133C1302.76 907.727 1302.29 908.215 1301.57 908.215 1300.49 908.215 1300.38 907.855 1299.79 905.816 1297.04 896.285 1292.63 891.273 1287.87 891.273 1286.66 891.273 1284.76 891.398 1284.76 895.215 1284.76 898.305 1286.2 902.133 1286.66 903.426 1288.82 909.168 1294.18 923.227 1294.18 930.137 1294.18 937.285 1290.01 942.648 1280.95 942.648 1272.96 942.648 1266.52 938.133 1261.76 931.086 1261.4 937.523 1257.46 942.648 1248.52 942.648 1237.91 942.648 1232.31 935.148 1230.16 932.164 1229.81 938.965 1224.91 942.648 1219.68 942.648 1216.23 942.648 1213.48 940.996 1211.21 936.465 1209.07 932.164 1207.4 924.895 1207.4 924.414 1207.4 923.945 1207.88 923.355 1208.71 923.355 1209.66 923.355 1209.79 923.465 1210.49 926.215 1212.29 933.246 1214.56 940.273 1219.32 940.273 1222.06 940.273 1223.01 938.367 1223.01 934.785 1223.01 932.164 1221.82 927.527 1220.99 923.816L1217.65 910.945 1215.27 901.176C1214.43 898.066 1213.12 892.477 1213.12 891.863 1213.12 890.215 1214.43 888.895 1216.23 888.895 1217.65 888.895 1219.32 889.605 1220.27 891.398 1220.51 891.996 1221.59 896.164 1222.18 898.559L1224.81 909.273 1228.74 925.008C1228.98 925.727 1231.96 931.695 1236.37 935.508 1239.46 938.367 1243.52 940.273 1248.16 940.273 1252.93 940.273 1254.61 936.695 1254.61 931.926 1254.61 931.215 1254.61 928.816 1253.18 923.227 1251.62 917.023 1251.62 916.664 1250.2 910.945L1246.74 897.246C1246.26 895.445 1245.54 892.355 1245.54 891.863 1245.54 890.215 1246.85 888.895 1248.65 888.895 1252.23 888.895 1252.82 891.633 1253.88 895.926L1261.04 924.414C1261.27 925.367 1267.48 940.273 1280.59 940.273 1285.35 940.273 1287.02 936.695 1287.02 931.926 1287.02 925.258 1282.38 912.258 1279.76 905.105 1278.68 902.246 1278.09 900.695 1278.09 898.559 1278.09 893.176 1281.79 888.895 1287.51 888.895 1298.59 888.895 1302.76 906.414 1302.76 907.133" />
<path transform="matrix(.1,0,0,-.1,369.638,217.82105)" d="M1330.43 889.605C1330.43 896.523 1328.16 901.648 1323.27 901.648 1319.46 901.648 1317.56 898.559 1317.56 895.926 1317.56 893.305 1319.34 890.086 1323.4 890.086 1324.95 890.086 1326.27 890.566 1327.32 891.633 1327.57 891.863 1327.81 891.863 1327.81 891.863 1327.81 891.863 1328.04 890.215 1328.04 889.605 1328.04 885.676 1327.32 877.926 1320.41 870.176 1319.11 868.746 1319.11 868.273 1319.11 868.273 1319.11 867.676 1319.7 867.086 1320.29 867.086 1321.24 867.086 1330.43 875.898 1330.43 889.605" />
<path transform="matrix(.1,0,0,-.1,369.638,217.82105)" d="M1445.73 942.309C1445.73 961.965 1432.85 974.008 1416.16 974.008 1390.65 974.008 1364.9 946.586 1364.9 919.055 1364.9 900.336 1377.31 887.586 1394.59 887.586 1419.62 887.586 1445.73 913.695 1445.73 942.309ZM1436.43 945.758C1436.43 936.105 1433.09 918.926 1422.84 905.816 1414.73 895.566 1404.24 890.086 1395.31 890.086 1384.81 890.086 1374.32 897.605 1374.32 915.715 1374.32 926.566 1378.62 942.773 1386.84 954.105 1395.77 966.258 1406.63 971.613 1415.57 971.613 1425.82 971.613 1436.43 964.223 1436.43 945.758ZM1426.52 925.258C1426.88 926.676 1429.51 937.164 1429.51 937.648 1429.51 938.246 1429.04 938.836 1428.32 938.836 1427.24 938.836 1427.13 938.246 1426.88 937.164 1426.29 935.148 1426.29 934.785 1426.29 934.785H1386.6C1386.71 935.254 1387.2 937.285 1387.2 937.648 1387.2 938.246 1386.71 938.836 1386.01 938.836 1384.93 938.836 1384.81 938.367 1384.34 936.465 1383.98 935.023 1381.35 924.535 1381.35 924.055 1381.35 923.465 1381.84 922.867 1382.54 922.867 1383.63 922.867 1383.74 923.465 1383.98 924.535 1384.57 926.566 1384.57 926.914 1384.57 926.914H1424.26C1424.15 926.445 1423.66 924.414 1423.66 924.055 1423.66 923.465 1424.15 922.867 1424.87 922.867 1425.93 922.867 1426.06 923.355 1426.52 925.258" />
<path transform="matrix(.1,0,0,-.1,369.638,217.82105)" d="M1495.43 891.367C1495.43 895.023 1494.24 897.887 1492.09 900.105 1489.71 902.727 1487.09 903.363 1483.35 904.316L1476.13 906.066C1473.74 906.617 1469.29 908.215 1469.29 913.777 1469.29 919.977 1475.96 926.645 1484.07 926.645 1491.23 926.645 1496.15 922.914 1496.15 914.336 1496.15 912.426 1495.84 910.754 1495.84 910.426 1495.84 909.477 1496.54 909.313 1497.1 909.313 1498.06 909.313 1498.13 909.645 1498.45 910.914L1502.52 926.887C1502.59 927.215 1502.74 927.676 1502.74 928.086 1502.74 928.637 1502.26 929.035 1501.71 929.035 1501.15 929.035 1500.99 928.863 1500.13 927.914 1499.24 926.887 1497.18 924.355 1496.31 923.387 1493.21 927.914 1488.2 929.035 1484.15 929.035 1473.1 929.035 1463.65 919.746 1463.65 910.676 1463.65 906.066 1466.1 903.363 1466.52 902.805 1469.13 900.023 1471.43 899.383 1477.15 898.035 1479.93 897.316 1480.09 897.316 1482.4 896.777 1484.7 896.215 1489.79 894.945 1489.79 888.355 1489.79 881.426 1482.96 874.035 1474.63 874.035 1469.45 874.035 1459.99 875.637 1459.99 885.477 1459.99 885.723 1459.99 887.387 1460.46 889.305L1460.54 890.086C1460.54 891.035 1459.66 891.137 1459.35 891.137 1458.32 891.137 1458.24 890.809 1457.84 888.977L1454.59 876.023C1454.27 874.836 1453.71 872.695 1453.71 872.445 1453.71 871.816 1454.18 871.414 1454.74 871.414 1455.31 871.414 1455.38 871.496 1456.26 872.527 1456.81 873.168 1456.73 873.168 1460.07 876.977 1461.9 874.605 1466.43 871.414 1474.45 871.414 1485.98 871.414 1495.43 881.816 1495.43 891.367" />
</g>
<g clip-path="url(#clip_3)">
<path transform="matrix(.1,0,0,-.1,369.638,217.82105)" stroke-width="5.04" stroke-linecap="butt" stroke-miterlimit="10" stroke-linejoin="miter" fill="none" stroke="#231f20" d="M1083.25 447.973 955.414 575.805" />
<path transform="matrix(.1,0,0,-.1,369.638,217.82105)" stroke-width="5.04" stroke-linecap="butt" stroke-miterlimit="10" stroke-linejoin="miter" fill="none" stroke="#231f20" d="M1103.61 468.336 975.777 596.168" />
<path transform="matrix(.1,0,0,-.1,369.638,217.82105)" stroke-width="5.04" stroke-linecap="butt" stroke-miterlimit="10" stroke-linejoin="miter" fill="none" stroke="#231f20" d="M1123.97 488.703 996.141 616.535" />
<path transform="matrix(.1,0,0,-.1,369.638,217.82105)" stroke-width="5.04" stroke-linecap="butt" stroke-miterlimit="10" stroke-linejoin="miter" fill="none" stroke="#231f20" d="M1144.34 509.066 1016.51 636.898" />
<path transform="matrix(.1,0,0,-.1,369.638,217.82105)" stroke-width="5.04" stroke-linecap="butt" stroke-miterlimit="10" stroke-linejoin="miter" fill="none" stroke="#231f20" d="M1164.7 529.43 1036.87 657.262" />
<path transform="matrix(.1,0,0,-.1,369.638,217.82105)" stroke-width="5.04" stroke-linecap="butt" stroke-miterlimit="10" stroke-linejoin="miter" fill="none" stroke="#231f20" d="M1185.07 549.797 1057.23 677.629" />
<path transform="matrix(.1,0,0,-.1,369.638,217.82105)" stroke-width="5.04" stroke-linecap="butt" stroke-miterlimit="10" stroke-linejoin="miter" fill="none" stroke="#231f20" d="M1205.43 570.16 1077.6 697.992" />
</g>

</svg>