<svg xmlns="http://www.w3.org/2000/svg" xmlns:xlink="http://www.w3.org/1999/xlink" version="1.1" width="181.000" height="225.000" viewBox="351.134 483.853 181.000 225.000">
<defs>
<clipPath id="clip_12">
<path transform="matrix(1,0,0,-1,361.134,698.853)" d="M0 0H161V205H0Z" clip-rule="evenodd" />
</clipPath>

<clipPath id="clip_13">
<path transform="matrix(.1,0,0,-.1,361.134,698.853)" d="M6.77344 1716.24H480.352V1792.88H6.77344V1716.24Z" clip-rule="evenodd" />
</clipPath>

<path id="font_14_1" d="M.46199037 .21798706C.47299195 .21798706 .48199464 .21899414 .4869995 .22200012 .49198915 .22399903 .49398805 .23199463 .49398805 .24499512 .49398805 .25299073 .49398805 .2630005 .49299623 .27598573 .49198915 .28799439 .4889984 .30099488 .4850006 .31498719 .48098756 .32899476 .47499085 .34298707 .46798707 .35798646 .46099855 .37298585 .45098878 .38598634 .43798829 .39898683 .40098573 .43499757 .34799195 .45298768 .2789917 .45298768 .23899842 .45298768 .20399475 .44699098 .17298889 .43499757 .14199829 .4229889 .116989139 .40699769 .09599304 .38598634 .07499695 .36499024 .05899048 .34098817 .04798889 .31399537 .036987306 .28599549 .03199768 .2559967 .03199768 .22499085 .03199768 .19198609 .037994386 .16099549 .049987794 .1329956 .06199646 .10398865 .07899475 .07998657 .101989749 .05899048 .125 .037994386 .1519928 .021987915 .18499756 .010986328 .21699524 0 .25299073-.006011963 .29299928-.006011963 .33198548-.006011963 .36499024 0 .3909912 .010986328 .4169922 .021987915 .43798829 .034988405 .45298768 .049987794 .46798707 .06399536 .47898866 .07798767 .4850006 .09098816 .4909973 .10398865 .49398805 .11299133 .49398805 .116989139 .49398805 .12599182 .4909973 .1309967 .48399354 .1329956 .47698976 .13398743 .47299195 .1349945 .46998597 .1349945 .46099855 .1349945 .45599366 .13398743 .45399476 .1309967 .45098878 .12799073 .44799806 .12199402 .44499208 .11399841 .43399049 .08999634 .41600038 .070999149 .3899994 .055999757 .3639984 .040985109 .33499146 .033996583 .3019867 .033996583 .2669983 .033996583 .23999024 .040985109 .22099304 .055999757 .20199585 .069992069 .18798828 .08699036 .1789856 .10699463 .16999817 .1269989 .1639862 .14698792 .16299439 .16799927 .16099549 .18899536 .1599884 .20498657 .1599884 .21798706H.46199037M.1599884 .25099183C.16099549 .269989 .16299439 .2899933 .16499329 .30999757 .16699219 .32998658 .17298889 .34799195 .18399048 .36499024 .19699097 .3849945 .21299744 .39898683 .23098755 .4059906 .24798584 .41299439 .2639923 .4169922 .2789917 .4169922 .30799867 .4169922 .33099366 .4099884 .34700013 .3959961 .36299134 .38198854 .375 .3659973 .3829956 .34700013 .3899994 .32798768 .394989 .30999757 .39698792 .2919922 .397995 .272995 .39898683 .2599945 .39898683 .25099183H.1599884Z" />

<path id="font_15_7" d="M.48599244 .3809967C.48799134 .3880005 .4889984 .3929901 .48999024 .3959961 .48999024 .397995 .48999024 .40098573 .48999024 .4039917 .48999024 .41299439 .4869995 .41999818 .48098756 .4249878 .47499085 .42900086 .46798707 .43099977 .46099855 .43099977 .45599366 .43099977 .44999696 .42900086 .44299317 .42599488 .43598939 .4229889 .43099977 .4169922 .42599488 .4099884 .4249878 .40699769 .4229889 .3999939 .41999818 .3880005 .4169922 .37599183 .4139862 .36499024 .4119873 .35598756 .40899659 .34298707 .40499879 .32899476 .4019928 .31599427 .39898683 .30299378 .394989 .2889862 .3919983 .27598573L.34700013 .09599304C.34599305 .09199524 .34199525 .084991458 .33699037 .07598877 .33099366 .066986087 .32299806 .056991579 .31399537 .04798889 .3039856 .037994386 .2919922 .0289917 .2789917 .021987915 .2659912 .01499939 .25099183 .010986328 .23399353 .010986328 .22099304 .010986328 .21099854 .01399231 .20298767 .018997193 .19499207 .023986817 .18899536 .02999878 .18399048 .037994386 .1789856 .04499817 .17599488 .053985597 .1749878 .06399536 .17298889 .07299805 .17199707 .08299255 .17199707 .09199524 .17199707 .114990238 .17599488 .14299011 .18499756 .1749878 .19299317 .20599365 .20599365 .24398804 .22299195 .28799439 .22698975 .2979889 .22999573 .30699159 .23298645 .31399537 .23599243 .32099916 .23799134 .32699586 .23899842 .33198548 .23999024 .33699037 .24099732 .34199525 .24198914 .34599305 .24299622 .34999085 .24299622 .35499574 .24299622 .3600006 .24299622 .3829956 .23599243 .4019928 .22099304 .41799928 .20599365 .43399049 .18598938 .44198609 .16099549 .44198609 .14498902 .44198609 .1309967 .43798829 .117996219 .43099977 .10499573 .42399598 .09399414 .4149933 .084991458 .4039917 .07499695 .3929901 .066986087 .38198854 .05999756 .36898805 .052993776 .35598756 .04699707 .34298707 .041992189 .33198548 .036987306 .32099916 .033996583 .31098939 .03199768 .30299378 .02999878 .2939911 .0289917 .2889862 .0289917 .28799439 .0289917 .2829895 .0309906 .27999879 .033996583 .2789917 .036987306 .27799989 .039993287 .27799989 .040985109 .27799989 .04598999 .27799989 .049987794 .2789917 .050994874 .2809906 .051986696 .2829895 .053985597 .28799439 .056991579 .29599 .069992069 .34298707 .085998538 .375 .10499573 .3929901 .12298584 .41099549 .14099121 .41999818 .1579895 .41999818 .1619873 .41999818 .16699219 .4189911 .17399597 .41600038 .17999268 .41299439 .18299866 .4039917 .18299866 .3880005 .18299866 .375 .18099976 .36299134 .1769867 .35099793 .17298889 .33799745 .16899109 .32699586 .1659851 .31799317 .1559906 .29100038 .14698792 .2679901 .13999939 .24699402 .1329956 .22599793 .1269989 .20799256 .12199402 .19099427 .116989139 .17399597 .11399841 .15899658 .11199951 .1459961 .10899353 .1329956 .10798645 .11999512 .10798645 .10798645 .10798645 .085998538 .11199951 .066986087 .11898804 .051986696 .12599182 .036987306 .13598633 .023986817 .14698792 .01499939 .1579895 .005996704 .17098999-.0010070801 .18598938-.005004883 .20098877-.009002686 .21499634-.011001587 .22999573-.011001587 .24899292-.011001587 .2679901-.007003784 .2849884 .0009918213 .3019867 .008987427 .31698609 .019989014 .33099366 .033996583 .32398988 .0079956059 .31698609-.018005372 .30899049-.043014528 .2999878-.06800842 .28599549-.09300232 .2659912-.120010379 .25299073-.13700867 .23699951-.15200806 .21899414-.16500855 .19999695-.17700196 .1789856-.18301392 .1559906-.18301392 .15299988-.18301392 .147995-.18301392 .14099121-.18200684 .13398743-.18101502 .12599182-.18000794 .11898804-.17700196 .11199951-.17401123 .10398865-.16900635 .09700012-.16400147 .08999634-.15901184 .083999637-.15100098 .07998657-.14100647 .08799744-.14100647 .09498596-.14100647 .101989749-.14001465 .10899353-.13900757 .115997318-.13500977 .12298584-.12901306 .12799073-.12400818 .1329956-.119003299 .13699341-.11201477 .14099121-.10501099 .14299011-.09701538 .14299011-.088012699 .14299011-.08000183 .14199829-.07400513 .13899231-.070007327 .13598633-.06500244 .13198853-.06201172 .12799073-.059005739 .12399292-.056015016 .11999512-.055007936 .115997318-.054000856 .11199951-.053009035 .10899353-.053009035 .10598755-.053009035 .099990848-.053009035 .09399414-.054000856 .08799744-.057006837 .08099365-.059005739 .07499695-.06300354 .069992069-.06800842 .06399536-.073013309 .05899048-.07901001 .055999757-.088012699 .051986696-.0960083 .049987794-.10600281 .049987794-.118011478 .049987794-.14300537 .05999756-.16400147 .07998657-.18101502 .09899902-.19700623 .125-.20500183 .1559906-.20500183 .18199158-.20500183 .20799256-.2000122 .23298645-.18901062 .2579956-.17800904 .2809906-.16400147 .3019867-.14601135 .32299806-.12701416 .34098817-.10600281 .35598756-.08100891 .37098695-.056015016 .3829956-.029006958 .3899994-.0010070801L.48599244 .3809967Z" />

<path id="font_15_9" d="M.375 .6139984C.37799073 .6259918 .38198854 .6349945 .3849945 .6409912 .3880005 .6459961 .3939972 .6499939 .40299989 .651001 .4079895 .6519928 .41600038 .6519928 .42900086 .6519928 .44198609 .6519928 .45399476 .6519928 .46398927 .6519928 .48199464 .6519928 .5019989 .6519928 .522995 .651001 .5439911 .6499939 .5629883 .6459961 .58200076 .6399994 .59999087 .6329956 .61499026 .6230011 .6279907 .6100006 .6399994 .5970001 .6459961 .5779877 .6459961 .5529938 .6459961 .5439911 .644989 .5339966 .6429901 .5219879 .6409912 .5099945 .6380005 .49699403 .6329956 .48399354 .6279907 .47099305 .6230011 .45799256 .6159973 .44499208 .60899356 .43199159 .6009979 .42099 .59098818 .41099549 .5779877 .397995 .5569916 .3849945 .5299988 .37199403 .5029907 .35899354 .46699525 .35299684 .42199708 .35299684H.30999757L.375 .6139984M.5189972 .33999635C.5439911 .34498597 .56999209 .35398866 .59599307 .36499024 .621994 .37599183 .6459961 .3899994 .6669922 .40699769 .6879883 .42399598 .70599368 .44299317 .71899417 .46398927 .7319946 .4850006 .7389984 .5079956 .7389984 .5329895 .7389984 .55400088 .73399356 .57398989 .72299197 .59298709 .71199038 .61099246 .69699099 .6269989 .6779938 .6399994 .6579895 .6529999 .6349945 .6639862 .60798647 .6719971 .58099368 .67900088 .5509949 .68299868 .5179901 .68299868H.23298645C.22299195 .68299868 .21598816 .6819916 .21099854 .68099978 .20599365 .67900088 .20399475 .6729889 .20399475 .6629944 .20399475 .6579895 .20599365 .6549988 .21099854 .6539917 .21598816 .6529999 .22299195 .6519928 .23199463 .6519928 .23298645 .6519928 .23799134 .6519928 .24499512 .6519928 .25299073 .6519928 .26098634 .651001 .269989 .6499939 .2789917 .6489868 .28599549 .6469879 .29100038 .6459961 .29499818 .644989 .29699708 .6409912 .29699708 .6339874 .29699708 .6319885 .29699708 .6299896 .29599 .6279907 .29499818 .625 .2939911 .62098696 .29299928 .61499026L.15899658 .07798767C.1559906 .067993167 .1539917 .05999756 .1519928 .053985597 .14898682 .04798889 .14498902 .042999269 .13999939 .039993287 .13398743 .036987306 .12599182 .033996583 .114990238 .032989503 .10398865 .03199768 .08799744 .0309906 .067993167 .0309906 .05899048 .0309906 .051986696 .02999878 .04798889 .0289917 .042999269 .026992798 .040985109 .020996094 .040985109 .010986328 .040985109 .005996704 .042999269 .0029907227 .04699707 .0019989014 .050994874 .0009918213 .053985597 0 .054992677 0 .06199646 0 .070999149 0 .08299255 .0009918213 .09399414 .0009918213 .10598755 .0009918213 .117996219 .0019989014 .12998963 .0019989014 .14199829 .0019989014 .15299988 .0029907227 .1639862 .0029907227 .17399597 .0029907227 .18099976 .0029907227 .18798828 .0029907227 .19699097 .0029907227 .20899964 .0029907227 .21998596 .0019989014 .23199463 .0019989014 .24499512 .0019989014 .25698854 .0009918213 .2689972 .0009918213 .27999879 .0009918213 .29100038 0 .30099488 0 .30799867 0 .31199647 0 .31599427 .0009918213 .32099916 .0029907227 .32598878 .0039978029 .32798768 .009994507 .32798768 .019989014 .32798768 .024993897 .32598878 .0289917 .32099916 .02999878 .31599427 .0309906 .30899049 .0309906 .2999878 .0309906 .2809906 .0309906 .2659912 .03199768 .2539978 .032989503 .24099732 .033996583 .23498535 .039993287 .23498535 .04899597 .23498535 .051986696 .23498535 .054992677 .23599243 .057998659 .23699951 .05999756 .23699951 .06298828 .23799134 .06599426L.3039856 .33099366H.4229889C.44599916 .33099366 .46398927 .32798768 .47898866 .32199098 .49299623 .31498719 .5039978 .30799867 .5119934 .29899598 .519989 .2899933 .5249939 .27999879 .5279999 .2689972 .5309906 .2579956 .5319977 .24899292 .5319977 .23999024 .5319977 .23298645 .5309906 .22200012 .5279999 .20899964 .5249939 .19499207 .5209961 .18199158 .5179901 .17098999 .5149994 .15699768 .5109863 .14199829 .5079956 .12599182 .5039978 .10899353 .5019989 .09599304 .5019989 .085998538 .5019989 .05899048 .5079956 .037994386 .5209961 .023986817 .5339966 .008987427 .5479889-.0020141602 .56399539-.009002686 .57899478-.01600647 .59399417-.020004273 .60899356-.021011353 .6230011-.022003174 .6319885-.022003174 .6349945-.022003174 .6559906-.022003174 .6749878-.01701355 .6899872-.006011963 .7049866 .004989624 .71699526 .016998291 .72698977 .02999878 .73599246 .042999269 .7429962 .055999757 .7480011 .068984989 .7529907 .08198547 .7549896 .08999634 .7549896 .09298706 .7549896 .09899902 .7529907 .102996829 .75 .10398865 .74598696 .10499573 .74398806 .10499573 .7429962 .10499573 .73799136 .10499573 .7350006 .10398865 .73399356 .100997928 .73298647 .09799194 .73098757 .09399414 .7299957 .09098816 .723999 .07199097 .71699526 .056991579 .70899966 .04598999 .69999697 .033996583 .69200137 .024993897 .6839905 .017990113 .6749878 .010986328 .6669922 .0069885256 .6599884 .0039978029 .6519928 .0009918213 .644989 0 .6389923 0 .621994 0 .6119995 .004989624 .6069946 .015991211 .60198977 .026992798 .598999 .041992189 .598999 .06098938 .598999 .068984989 .598999 .07798767 .59999087 .08799744 .6009979 .09700012 .60198977 .10699463 .6029968 .117996219 .60398867 .12799073 .6049957 .13798523 .60598757 .147995 .6069946 .1579895 .60798647 .16699219 .60899356 .1749878 .6100006 .18199158 .61099246 .18998719 .6119995 .19898987 .61299136 .20698548 .61299136 .21499634 .61299136 .22200012 .61299136 .24099732 .60899356 .2579956 .60198977 .27198792 .59498599 .2849884 .58599856 .29699708 .57598879 .30599977 .56599429 .31498719 .55599978 .32299806 .54499819 .32798768 .5339966 .33299256 .526001 .33699037 .5189972 .33999635Z" />

<path id="font_15_5" d="M.33399964 .3019867C.33499146 .30899049 .33799745 .31900025 .34199525 .33198548 .34599305 .34498597 .35198976 .35798646 .3600006 .37098695 .36698915 .38398744 .3769989 .394989 .3889923 .40499879 .40098573 .4149933 .41600038 .41999818 .43299867 .41999818 .43598939 .41999818 .44198609 .41999818 .45199586 .4189911 .46199037 .41799928 .47200013 .4139862 .48298646 .40699769 .46899415 .4039917 .45799256 .397995 .44898988 .3869934 .43998719 .37599183 .43499757 .36499024 .43499757 .35299684 .43499757 .34498597 .43798829 .33699037 .44400025 .32998658 .44999696 .32199098 .45999146 .31799317 .47299195 .31799317 .47799684 .31799317 .48399354 .31900025 .4909973 .32199098 .49699403 .32398988 .5029907 .32699586 .5079956 .33198548 .5130005 .33699037 .5179901 .34298707 .5219879 .34999085 .5249939 .35699464 .5269928 .3659973 .5269928 .37599183 .5269928 .3889923 .5239868 .39898683 .5169983 .4079895 .5099945 .4169922 .5019989 .42399598 .49299623 .42900086 .48399354 .43399049 .47399903 .43699647 .46299745 .43899537 .45199586 .44099427 .44299317 .44198609 .43399049 .44198609 .4189911 .44198609 .4059906 .43899537 .394989 .43399049 .3829956 .42799378 .37298585 .42099 .3639984 .41299439 .35499574 .40499879 .34799195 .39698792 .34199525 .3880005 .33599855 .3789978 .33198548 .37199403 .32899476 .3659973 .32299806 .3829956 .31498719 .3959961 .30599977 .4059906 .29699708 .41600038 .2869873 .42399598 .2769928 .42900086 .2659912 .43399049 .2559967 .43798829 .24699402 .43998719 .23699951 .44099427 .22799683 .44198609 .22099304 .44198609 .19499207 .44198609 .17199707 .43499757 .1519928 .42199708 .13198853 .4079895 .114990238 .3919983 .101989749 .375 .08799744 .35699464 .07798767 .33999635 .070999149 .32299806 .06399536 .30599977 .05999756 .2939911 .05999756 .28799439 .05999756 .2829895 .06199646 .27999879 .06498718 .2789917 .067993167 .27799989 .070999149 .27799989 .07199097 .27799989 .07899475 .27799989 .083999637 .28199769 .084991458 .2889862 .09399414 .31599427 .10398865 .33799745 .115997318 .35499574 .1269989 .37199403 .13899231 .3849945 .1519928 .394989 .16499329 .4039917 .1769867 .41099549 .18899536 .4149933 .19999695 .41799928 .20999146 .41999818 .21899414 .41999818 .22399903 .41999818 .22898865 .4189911 .23599243 .41799928 .24198914 .41600038 .24798584 .41299439 .25299073 .4079895 .2579956 .40299989 .2630005 .39698792 .2669983 .3880005 .2709961 .3789978 .272995 .36799623 .272995 .35299684 .272995 .33799745 .2689972 .31199647 .2599945 .2749939 .25099183 .23799134 .23799134 .18499756 .21899414 .114990238 .21099854 .083999637 .19898987 .05899048 .18199158 .039993287 .16499329 .020996094 .1459961 .010986328 .12399292 .010986328 .12098694 .010986328 .11399841 .011993408 .10499573 .0129852299 .09498596 .01399231 .084991458 .016998291 .07398987 .023986817 .08699036 .026992798 .09799194 .032989503 .10699463 .042999269 .115997318 .051986696 .12098694 .06399536 .12098694 .07798767 .12098694 .09098816 .116989139 .100997928 .10798645 .10598755 .09899902 .11099243 .09098816 .11299133 .083999637 .11299133 .068984989 .11299133 .055999757 .10699463 .04499817 .09599304 .033996583 .084991458 .0289917 .070999149 .0289917 .054992677 .0289917 .04399109 .03199768 .033996583 .037994386 .025985718 .042999269 .016998291 .050994874 .009994507 .05999756 .004989624 .068984989 0 .07899475-.0040130617 .08999634-.007003784 .100997928-.010009766 .11199951-.011001587 .12298584-.011001587 .13999939-.011001587 .1539917-.007003784 .16699219 0 .17999268 .0069885256 .18998719 .015991211 .19898987 .024993897 .20799256 .033996583 .21499634 .041992189 .21998596 .050994874 .22499085 .05899048 .22698975 .06399536 .22799683 .06498718 .23399353 .04598999 .24598694 .0289917 .2639923 .0129852299 .28199769-.0030059815 .30599977-.011001587 .33599855-.011001587 .3619995-.011001587 .3849945-.0040130617 .40499879 .009994507 .42399598 .022994996 .44099427 .038986207 .45498658 .056991579 .46798707 .07398987 .47898866 .09199524 .48599244 .10899353 .49299623 .12599182 .49598695 .13699341 .49598695 .14299011 .49598695 .147995 .49398805 .15098572 .4909973 .1519928 .48799134 .15299988 .4850006 .15299988 .48399354 .15299988 .47898866 .15299988 .47599793 .1519928 .47499085 .1499939 .47399903 .147995 .47200013 .14498902 .47099305 .14199829 .46299745 .114990238 .45298768 .09399414 .44099427 .07699585 .42900086 .05999756 .4169922 .04598999 .4039917 .036987306 .3909912 .026992798 .3789978 .019989014 .36799623 .016998291 .35598756 .0129852299 .34599305 .010986328 .33799745 .010986328 .31900025 .010986328 .30499269 .017990113 .29599 .0309906 .2869873 .04399109 .2829895 .05999756 .2829895 .07699585 .2829895 .08799744 .2849884 .099990848 .28799439 .11299133 .29100038 .12599182 .29499818 .14299011 .2999878 .16499329L.33399964 .3019867Z" />

<path id="font_15_4" d="M.37298585 .37799073C.3639984 .39698792 .35198976 .4119873 .33699037 .42399598 .32199098 .43598939 .3039856 .44198609 .2809906 .44198609 .2519989 .44198609 .22299195 .43399049 .19400025 .4169922 .16499329 .3999939 .13999939 .3769989 .116989139 .34999085 .09399414 .32299806 .07499695 .2919922 .06098938 .25698854 .04699707 .22200012 .039993287 .18598938 .039993287 .14898682 .039993287 .12599182 .042999269 .10398865 .049987794 .084991458 .056991579 .06498718 .06599426 .04798889 .07798767 .033996583 .08898926 .019989014 .102996829 .008987427 .11999512 .0009918213 .13598633-.007003784 .1539917-.011001587 .17298889-.011001587 .17799378-.011001587 .18399048-.011001587 .19299317-.010009766 .20199585-.009002686 .21199036-.006011963 .22299195-.0010070801 .23399353 .004989624 .24699402 .011993408 .2599945 .021987915 .272995 .03199768 .28799439 .04598999 .30299378 .06399536 .30699159 .042999269 .31698609 .024993897 .33399964 .010986328 .34999085-.0040130617 .36999513-.011001587 .3939972-.011001587 .41099549-.011001587 .42599488-.006011963 .43798829 .004989624 .44999696 .01499939 .45999146 .027999878 .46798707 .04399109 .47200013 .052993776 .47599793 .06298828 .47999574 .07398987 .48298646 .084991458 .48599244 .09599304 .4889984 .10598755 .49198915 .115997318 .49398805 .125 .49598695 .13198853 .49699403 .13899231 .49798585 .14199829 .49798585 .14299011 .49798585 .147995 .49598695 .15098572 .49299623 .1519928 .48999024 .15299988 .4869995 .15299988 .48599244 .15299988 .48098756 .15299988 .47698976 .1519928 .47599793 .1499939 .47499085 .14698792 .47299195 .14199829 .47200013 .1349945 .46798707 .11898804 .46398927 .10398865 .45899964 .08898926 .45399476 .07398987 .44898988 .05999756 .44299317 .04899597 .43699647 .036987306 .42999269 .027999878 .4229889 .020996094 .4149933 .01399231 .4059906 .010986328 .3959961 .010986328 .3829956 .010986328 .37399293 .015991211 .37098695 .026992798 .36799623 .036987306 .3659973 .04699707 .3659973 .056991579 .3659973 .06199646 .3659973 .066986087 .36698915 .07199097 .36698915 .07598877 .36799623 .08099365 .36898805 .085998538 .36999513 .09098816 .37098695 .09700012 .37298585 .10398865 .37399293 .11099243 .37599183 .11999512 .3789978 .1309967 .38198854 .14199829 .38398744 .15098572 .38598634 .1579895 .3869934 .16499329 .3889923 .17098999 .3909912 .17799378 .3919983 .18399048 .3939972 .18998719 .3959961 .19699097 .39698792 .20399475 .39898683 .21199036 .40098573 .22099304 .40499879 .23699951 .40899659 .25099183 .4119873 .2619934 .4149933 .272995 .4169922 .28399659 .41999818 .2939911 .42199708 .3039856 .42399598 .31399537 .4269867 .32499696 .42999269 .33499146 .43299867 .34700013 .43699647 .36099244 .43998719 .375 .44198609 .38398744 .44299317 .3869934 .44400025 .3899994 .44400025 .3929901 .44400025 .394989 .44400025 .4039917 .44099427 .4099884 .43598939 .4149933 .43099977 .41999818 .42399598 .42199708 .4149933 .42199708 .40299989 .42199708 .3929901 .41799928 .38598634 .40899659 .3789978 .3999939 .37399293 .3889923 .37298585 .37799073M.30899049 .11898804C.30799867 .11399841 .30699159 .11099243 .30599977 .10798645 .30499269 .10499573 .3039856 .102996829 .30299378 .099990848 .3019867 .09700012 .2999878 .09498596 .2979889 .09199524 .29599 .08898926 .29299928 .085998538 .2889862 .08198547 .2669983 .053985597 .24598694 .034988405 .22698975 .025985718 .20698548 .015991211 .18998719 .010986328 .17599488 .010986328 .16299439 .010986328 .15299988 .01399231 .14498902 .019989014 .13699341 .025985718 .1309967 .033996583 .12599182 .042999269 .12098694 .051986696 .116989139 .06298828 .114990238 .07398987 .11299133 .084991458 .11199951 .09498596 .11199951 .10499573 .11199951 .117996219 .11399841 .13398743 .117996219 .1539917 .12098694 .17399597 .12599182 .19499207 .1309967 .21598816 .13598633 .23699951 .14199829 .2579956 .14898682 .27799989 .15499878 .29699708 .16099549 .31298829 .16699219 .32398988 .18199158 .35398866 .20098877 .37799073 .22200012 .394989 .24299622 .4119873 .2630005 .41999818 .2829895 .41999818 .29899598 .41999818 .31199647 .41600038 .32299806 .40699769 .33299256 .397995 .34098817 .3889923 .34700013 .37799073 .35299684 .36698915 .35699464 .35699464 .35899354 .34799195 .36099244 .33898927 .3619995 .33299256 .3619995 .33198548 .3619995 .32899476 .3619995 .32598878 .36099244 .32299806 .3600006 .31999208 .3600006 .31799317 .35899354 .31498719L.30899049 .11898804Z" />

<path id="font_15_6" d="M.23899842 .68299868C.23899842 .6839905 .23899842 .6859894 .23799134 .68899539 .23699951 .69200137 .23298645 .69400027 .22599793 .69400027 .21998596 .69400027 .21199036 .69400027 .20098877 .69299319 .18998719 .69200137 .17799378 .69099429 .1659851 .6899872 .1539917 .68899539 .14199829 .6879883 .1309967 .68699648 .11999512 .6859894 .11099243 .68499758 .10398865 .6839905 .099990848 .68299868 .09599304 .6819916 .09199524 .68099978 .08699036 .67900088 .084991458 .6729889 .084991458 .6639862 .084991458 .6579895 .08699036 .6549988 .09199524 .6539917 .09599304 .6529999 .101989749 .6519928 .10899353 .6519928 .1329956 .6519928 .14698792 .651001 .1519928 .647995 .15699768 .644989 .15899658 .6399994 .15899658 .6349945 .15899658 .6329956 .15899658 .6299896 .1579895 .625 .15699768 .6199951 .15499878 .61499026 .1539917 .60899356 .15299988 .6029968 .15098572 .5970001 .1499939 .59098818 .147995 .58399966 .1459961 .5779877 .14498902 .57299807L.06298828 .24699402C.05999756 .23399353 .056991579 .22399903 .054992677 .21499634 .052993776 .20599365 .051986696 .19799805 .050994874 .19099427 .049987794 .18399048 .04899597 .1769867 .04798889 .16999817 .04699707 .16299439 .04699707 .15499878 .04699707 .1459961 .04699707 .09799194 .05899048 .05999756 .08299255 .03199768 .10598755 .0029907227 .13699341-.011001587 .17399597-.011001587 .20298767-.011001587 .23298645-.0030059815 .2619934 .01499939 .29100038 .03199768 .31599427 .053985597 .33898927 .08198547 .3619995 .10899353 .37998963 .14099121 .3939972 .17599488 .4079895 .21099854 .4149933 .24598694 .4149933 .28199769 .4149933 .30499269 .4119873 .32598878 .4059906 .34599305 .39898683 .36499024 .3899994 .38198854 .3789978 .39698792 .36698915 .41099549 .35299684 .42199708 .33699037 .42999269 .31999208 .43798829 .3019867 .44198609 .28199769 .44198609 .25898744 .44198609 .23699951 .43598939 .21798706 .42399598 .19799805 .41099549 .17999268 .39698792 .16499329 .38198854L.23899842 .68299868M.14498902 .30499269C.147995 .31599427 .1499939 .32299806 .15098572 .32699586 .1519928 .32998658 .15499878 .33499146 .1599884 .33999635 .18499756 .37298585 .20799256 .3939972 .22898865 .40499879 .25 .4149933 .2669983 .41999818 .27999879 .41999818 .2979889 .41999818 .31298829 .4119873 .32499696 .39698792 .33699037 .38198854 .34298707 .35798646 .34298707 .32598878 .34298707 .31098939 .34098817 .2939911 .33799745 .27398683 .33399964 .25299073 .32899476 .23298645 .32398988 .21199036 .31900025 .19099427 .31298829 .17199707 .30799867 .15499878 .3019867 .13699341 .29699708 .12298584 .2919922 .11399841 .2749939 .07998657 .2559967 .053985597 .23498535 .036987306 .21398926 .019989014 .19299317 .010986328 .17399597 .010986328 .16499329 .010986328 .15699768 .0129852299 .14898682 .016998291 .14099121 .019989014 .13398743 .025985718 .12799073 .033996583 .12098694 .041992189 .115997318 .051986696 .11299133 .06498718 .10899353 .07798767 .10699463 .09298706 .10699463 .11199951 .10699463 .12098694 .10798645 .1329956 .10899353 .1459961 .10998535 .15899658 .114990238 .18199158 .12298584 .21299744L.14498902 .30499269Z" />

<path id="font_15_10" d="M.47698976 .23599243C.47698976 .2749939 .47200013 .30799867 .46199037 .33499146 .45098878 .36099244 .43798829 .38198854 .42199708 .397995 .40499879 .4139862 .3869934 .4249878 .36799623 .43199159 .34799195 .43899537 .32899476 .44198609 .30999757 .44198609 .27598573 .44198609 .24299622 .43399049 .21099854 .41799928 .17799378 .40098573 .1499939 .37998963 .125 .35299684 .099990848 .32598878 .07899475 .29599 .06399536 .2619934 .04899597 .22799683 .040985109 .19299317 .040985109 .1579895 .040985109 .1349945 .04499817 .11299133 .051986696 .09298706 .05899048 .07199097 .069992069 .053985597 .083999637 .038986207 .09799194 .023986817 .114990238 .011993408 .1349945 .0029907227 .15499878-.007003784 .17799378-.011001587 .20298767-.011001587 .23498535-.011001587 .2689972-.005004883 .3039856 .0079956059 .33898927 .020996094 .37599183 .041992189 .4139862 .07299805 .42099 .04598999 .43199159 .025985718 .44799806 .010986328 .46299745-.0040130617 .48199464-.011001587 .5049896-.011001587 .5179901-.011001587 .5299988-.008010864 .54100039-.0020141602 .5509949 .0039978029 .55999758 .010986328 .5669861 .018997193 .57398989 .025985718 .5799866 .033996583 .58399966 .041992189 .58699038 .049987794 .58898928 .055999757 .58898928 .05999756 .58898928 .06298828 .58799746 .06599426 .58599856 .067993167 .58299258 .068984989 .5799866 .069992069 .57699587 .069992069 .57099917 .069992069 .5669861 .066986087 .56399539 .05999756 .5589905 .04798889 .55400088 .038986207 .5479889 .03199768 .5419922 .024993897 .5359955 .020996094 .5299988 .017990113 .5239868 .01499939 .5189972 .0129852299 .5149994 .011993408 .5109863 .010986328 .5089874 .010986328 .5079956 .010986328 .5 .010986328 .49398805 .01499939 .48999024 .023986817 .48599244 .03199768 .48298646 .041992189 .48098756 .052993776 .47898866 .06399536 .47799684 .07598877 .47799684 .08699036 .47698976 .09799194 .47698976 .10699463 .47698976 .11299133 .47698976 .12399292 .47698976 .1309967 .47799684 .13398743 .47898866 .13699341 .48199464 .14199829 .4869995 .147995 .5099945 .1769867 .5299988 .20599365 .54499819 .23399353 .55999758 .2619934 .57099917 .2869873 .5799866 .30899049 .58799746 .33099366 .59399417 .34899903 .5970001 .36299134 .59999087 .37599183 .60198977 .3829956 .60198977 .3829956 .60198977 .38398744 .6009979 .38598634 .59999087 .3889923 .598999 .3919983 .59498599 .3929901 .58999636 .3929901 .58499148 .3929901 .58200076 .3919983 .58099368 .3899994 .5799866 .3869934 .5779877 .3809967 .57499697 .37199403 .56599429 .33999635 .5529938 .30699159 .5369873 .27198792 .519989 .23699951 .5 .20399475 .47698976 .17399597V.23599243M.4079895 .09899902C.38598634 .07998657 .36499024 .06399536 .34498597 .052993776 .32398988 .040985109 .30499269 .03199768 .28799439 .025985718 .269989 .019989014 .2539978 .015991211 .23999024 .01399231 .22499085 .011993408 .21299744 .010986328 .20298767 .010986328 .17298889 .010986328 .15098572 .020996094 .13598633 .041992189 .12098694 .06199646 .11299133 .08799744 .11299133 .11999512 .11299133 .13198853 .114990238 .14698792 .117996219 .1659851 .12098694 .18499756 .125 .20399475 .12998963 .22399903 .1349945 .24299622 .14199829 .2619934 .14898682 .2809906 .1559906 .2999878 .16299439 .31498719 .17098999 .32798768 .18299866 .34599305 .19499207 .36099244 .20799256 .37298585 .21998596 .3849945 .23199463 .394989 .24398804 .4019928 .25498963 .40899659 .2669983 .41299439 .27799989 .41600038 .2889862 .4189911 .2979889 .41999818 .30699159 .41999818 .33198548 .41999818 .35099793 .41299439 .3639984 .39898683 .3769989 .38398744 .3869934 .3659973 .3939972 .34498597 .3999939 .32398988 .4039917 .30099488 .40499879 .2769928 .4059906 .2519989 .4059906 .22999573 .4059906 .21099854 .4059906 .20199585 .4059906 .19099427 .4059906 .17999268 .4059906 .16899109 .4059906 .1579895 .4059906 .14698792 .4059906 .13699341 .4059906 .12799073 .40699769 .11898804 .40699769 .10998535 .40699769 .102996829 .4079895 .09899902Z" />

<path id="font_15_11" d="M.040985109 .2539978C.050994874 .2829895 .06399536 .30499269 .08099365 .32099916 .09799194 .33599855 .11399841 .34799195 .1309967 .35499574 .147995 .3619995 .16299439 .36698915 .17599488 .36799623 .18899536 .36898805 .19699097 .36999513 .19999695 .36999513 .23799134 .36999513 .2679901 .36099244 .2889862 .34199525 .30999757 .32299806 .32699586 .2999878 .33799745 .272995 .34899903 .24598694 .35499574 .21798706 .35798646 .18899536 .36099244 .1599884 .3619995 .13598633 .3619995 .115997318 .3619995 .100997928 .3619995 .08799744 .36099244 .07798767 .3600006 .066986087 .3600006 .05899048 .35899354 .051986696 .35798646 .04499817 .35598756 .037994386 .35499574 .032989503 .35398866 .027999878 .35198976 .022994996 .34999085 .017990113 .34498597 0 .33898927-.020004273 .33299256-.043014528 .32598878-.06500244 .32099916-.086013797 .31599427-.10700989 .31098939-.12800598 .30599977-.14601135 .30299378-.16300965 .2999878-.17900086 .2979889-.19000244 .2979889-.19700623 .2979889-.2090149 .3019867-.2150116 .31098939-.2150116 .31799317-.2150116 .32299806-.21000672 .32798768-.2000122 .33299256-.18901062 .33799745-.17401123 .34298707-.15501404 .35398866-.11300659 .36299134-.07800293 .36898805-.04901123 .37399293-.020004273 .37799073 .0019989014 .37998963 .016998291 .3809967 .023986817 .3829956 .02999878 .38398744 .036987306 .3849945 .042999269 .38598634 .04899597 .3880005 .055999757 .3959961 .08099365 .4059906 .10798645 .4169922 .13798523 .42799378 .16699219 .43998719 .19699097 .45298768 .22698975 .46598817 .25698854 .47799684 .28599549 .4909973 .31298829 .5029907 .33999635 .5139923 .36299134 .5239868 .3829956 .5269928 .3889923 .5309906 .3959961 .5359955 .40499879 .54100039 .4139862 .54299929 .4189911 .54299929 .42099 .54299929 .42599488 .54100039 .42900086 .5379944 .42999269 .5349884 .43099977 .5319977 .43099977 .5309906 .43099977 .5299988 .43099977 .5279999 .43099977 .5249939 .42999269 .5219879 .42900086 .519989 .4269867 .5189972 .42399598 .49299623 .37599183 .46998597 .32699586 .44898988 .27799989 .42799378 .22898865 .40699769 .1789856 .3869934 .12799073 .3869934 .13598633 .3869934 .14698792 .38598634 .1599884 .3849945 .17298889 .38398744 .18798828 .3809967 .20498657 .37799073 .22200012 .37399293 .24198914 .36898805 .2639923 .3639984 .2849884 .35598756 .30799867 .34599305 .33198548 .33399964 .36299134 .31799317 .3889923 .29699708 .4099884 .27598573 .43099977 .24798584 .44198609 .21299744 .44198609 .18199158 .44198609 .1539917 .43399049 .12998963 .41799928 .10499573 .4019928 .084991458 .38398744 .068984989 .36299134 .051986696 .34199525 .039993287 .32099916 .0309906 .30099488 .021987915 .2809906 .017990113 .2669983 .017990113 .25898744 .017990113 .2539978 .019989014 .25099183 .023986817 .25 .026992798 .24899292 .03199768 .24899292 .036987306 .24899292L.040985109 .2539978Z" />

<path id="font_15_1" d="M.1789856 .114990238C.15899658 .08198547 .13899231 .05999756 .11898804 .04899597 .09899902 .037994386 .07798767 .03199768 .055999757 .0309906 .049987794 .02999878 .04499817 .0289917 .040985109 .027999878 .036987306 .025985718 .034988405 .019989014 .034988405 .010986328 .034988405 .0039978029 .038986207 0 .04798889 0 .06098938 0 .07598877 .0009918213 .09098816 .0019989014 .10598755 .0029907227 .11999512 .0029907227 .13398743 .0029907227 .15098572 .0029907227 .16799927 .0029907227 .18499756 .0019989014 .20199585 .0009918213 .21798706 0 .23399353 0 .23699951 0 .24099732 .0009918213 .24598694 .0029907227 .25099183 .0039978029 .25299073 .009994507 .25299073 .018997193 .25299073 .023986817 .25099183 .027999878 .24798584 .0289917 .24398804 .02999878 .23999024 .0309906 .23699951 .0309906 .22599793 .03199768 .21499634 .034988405 .20498657 .039993287 .19499207 .04499817 .18998719 .052993776 .18998719 .06599426 .18998719 .07199097 .19099427 .07798767 .19400025 .083999637 .19699097 .08898926 .19999695 .09599304 .20399475 .102996829 .20599365 .10598755 .20799256 .10899353 .20999146 .11199951 .21099854 .114990238 .21398926 .11999512 .21899414 .12799073 .22399903 .13598633 .23098755 .147995 .23999024 .1639862 .24899292 .1789856 .2630005 .20199585 .27999879 .23098755H.5309906C.5319977 .22599793 .5329895 .21499634 .5349884 .19799805 .5359955 .18099976 .5379944 .16299439 .5399933 .14399719 .5419922 .125 .5439911 .10699463 .54499819 .09199524 .54599 .07598877 .5469971 .066986087 .5469971 .06399536 .5469971 .056991579 .5439911 .050994874 .5389862 .04699707 .5329895 .041992189 .526001 .038986207 .5189972 .036987306 .5109863 .033996583 .5029907 .032989503 .49499513 .03199768 .48599244 .0309906 .47999574 .0309906 .47499085 .0309906 .46798707 .0309906 .46199037 .02999878 .45799256 .0289917 .45298768 .026992798 .45098878 .020996094 .45098878 .010986328 .45098878 .005996704 .45298768 .0029907227 .45700074 .0019989014 .46099855 .0009918213 .46398927 0 .46499635 0 .48599244 0 .5069885 .0009918213 .5279999 .0019989014 .548996 .0029907227 .56900027 .0029907227 .58999636 .0029907227 .59599307 .0029907227 .60398867 .0029907227 .61499026 .0029907227 .625 .0019989014 .6359863 .0019989014 .6469879 .0019989014 .6579895 .0009918213 .66799929 .0009918213 .67900088 .0009918213 .68899539 0 .69699099 0 .7029877 0 .70599368 0 .70999148 .0009918213 .71499636 .0029907227 .71899417 .0039978029 .72099307 .009994507 .72099307 .019989014 .72099307 .024993897 .71899417 .0289917 .71499636 .02999878 .70999148 .0309906 .7049866 .0309906 .69799807 .0309906 .68299868 .0309906 .67099 .03199768 .6619873 .032989503 .6529999 .033996583 .6469879 .034988405 .6429901 .037994386 .6389923 .040985109 .6369934 .04399109 .6359863 .04899597 .6349945 .053985597 .6339874 .05999756 .6329956 .066986087L.57199099 .69200137C.57099917 .70199587 .56900027 .70899966 .56799319 .71199038 .5669861 .71499636 .56199648 .71598818 .5529938 .71598818 .54499819 .71598818 .5399933 .71499636 .5369873 .71199038 .5339966 .70899966 .5299988 .70399478 .5269928 .69898989L.1789856 .114990238M.29899598 .2619934 .49598695 .59199526 .5279999 .2619934H.29899598Z" />

<path id="font_15_2" d="M.1599884 .07798767C.15699768 .067993167 .15499878 .05999756 .15299988 .053985597 .1499939 .04798889 .1459961 .042999269 .14099121 .039993287 .1349945 .036987306 .1269989 .033996583 .115997318 .032989503 .10499573 .03199768 .08898926 .0309906 .068984989 .0309906 .05999756 .0309906 .053985597 .02999878 .04899597 .0289917 .04399109 .026992798 .041992189 .020996094 .041992189 .010986328 .041992189 .005996704 .04399109 .0029907227 .04899597 .0019989014 .052993776 .0009918213 .05999756 0 .068984989 0H.42599488C.46499635 0 .5019989 .0069885256 .5359955 .019989014 .56900027 .032989503 .59799197 .050994874 .6230011 .07199097 .647995 .09298706 .6669922 .115997318 .68099978 .14099121 .69499209 .1659851 .70199587 .19099427 .70199587 .21598816 .70199587 .2519989 .6879883 .2829895 .6609955 .30999757 .6339874 .33599855 .59599307 .35198976 .5469971 .35699464 .57299807 .3619995 .598999 .36999513 .6239929 .3809967 .6489868 .3919983 .67099 .4059906 .69099429 .4229889 .70999148 .43899537 .7259979 .45700074 .73799136 .47799684 .75 .49899293 .7559967 .5209961 .7559967 .54499819 .7559967 .56399539 .7519989 .58099368 .74398806 .59799197 .73599246 .61499026 .723999 .6289978 .70799258 .6419983 .69200137 .6549988 .6729889 .6649933 .6499939 .6719971 .6269989 .67900088 .59999087 .68299868 .56999209 .68299868H.23399353C.22499085 .68299868 .21798706 .6819916 .21299744 .68099978 .20799256 .67900088 .20498657 .6729889 .20498657 .6629944 .20498657 .6579895 .20698548 .6549988 .21199036 .6539917 .21699524 .6529999 .22399903 .6519928 .23298645 .6519928 .23399353 .6519928 .23899842 .6519928 .24598694 .6519928 .2539978 .6519928 .2619934 .651001 .2709961 .6499939 .27999879 .6489868 .2869873 .6469879 .2919922 .6459961 .29599 .644989 .2979889 .6409912 .2979889 .6339874 .2979889 .6319885 .2979889 .6299896 .29699708 .6279907 .29599 .625 .29499818 .62098696 .2939911 .61499026L.1599884 .07798767M.31098939 .3659973 .37298585 .6139984C.375 .6230011 .3769989 .6299896 .3789978 .6349945 .3809967 .6399994 .38398744 .6429901 .3869934 .6459961 .3899994 .6489868 .394989 .6499939 .4019928 .651001 .4079895 .6519928 .41600038 .6519928 .4269867 .6519928H.55599978C.5779877 .6519928 .59599307 .6489868 .6100006 .6419983 .6239929 .6349945 .6349945 .6269989 .6439972 .61698916 .6519928 .6069946 .6579895 .59599307 .6609955 .58399966 .6639862 .57099917 .6649933 .55999758 .6649933 .548996 .6649933 .5269928 .6599884 .5049896 .6499939 .48399354 .6389923 .46199037 .625 .44198609 .6069946 .4249878 .58799746 .40699769 .56599429 .3929901 .54100039 .38198854 .5159912 .37098695 .48799134 .3659973 .45700074 .3659973H.31098939M.2659912 .0309906C.25898744 .0309906 .2539978 .0309906 .2519989 .0309906 .25 .0309906 .24699402 .0309906 .24398804 .03199768 .23899842 .032989503 .23498535 .033996583 .23399353 .034988405 .23199463 .035995485 .23098755 .037994386 .23098755 .041992189 .23098755 .042999269 .23098755 .04499817 .23199463 .04798889 .23199463 .049987794 .23298645 .055999757 .23599243 .06498718L.30499269 .34399415H.49398805C.5179901 .34399415 .5379944 .33999635 .5529938 .33198548 .56799319 .32398988 .57899478 .31399537 .58799746 .3019867 .59599307 .2899933 .60198977 .2769928 .6049957 .2639923 .60798647 .25 .60899356 .23799134 .60899356 .22698975 .60899356 .20199585 .60398867 .17799378 .59298709 .15499878 .58200076 .1309967 .56799319 .10998535 .5499878 .09199524 .5309906 .07299805 .5089874 .05899048 .48399354 .04798889 .45899964 .036987306 .43099977 .0309906 .4019928 .0309906H.2659912Z" />

<path id="font_15_8" d="M.73999026 .43598939C.73999026 .47599793 .73399356 .5130005 .72099307 .54599 .70799258 .57899478 .69099429 .60798647 .6689911 .6309967 .6459961 .6539917 .61898806 .6729889 .58799746 .6859894 .5569916 .69898989 .5219879 .7049866 .4850006 .7049866 .44898988 .7049866 .41299439 .69898989 .37799073 .68699648 .34199525 .6749878 .30799867 .6589966 .27598573 .6380005 .24398804 .61698916 .21398926 .59199526 .18598938 .5629883 .1579895 .5339966 .13398743 .5019989 .11399841 .46798707 .09399414 .43399049 .07798767 .397995 .066986087 .3600006 .054992677 .32199098 .04899597 .28399659 .04899597 .24499512 .04899597 .20399475 .055999757 .16699219 .068984989 .13398743 .08198547 .100997928 .099990848 .07299805 .12298584 .049987794 .1459961 .026992798 .17298889 .008987427 .20399475-.0040130617 .23498535-.01600647 .2689972-.022003174 .30499269-.022003174 .33999635-.022003174 .37599183-.01600647 .41099549-.005004883 .44599916 .0069885256 .47999574 .022994996 .5119934 .04399109 .5439911 .06498718 .57398989 .08898926 .60198977 .117996219 .6299896 .1459961 .6539917 .1769867 .6749878 .21099854 .69499209 .24499512 .71099856 .2809906 .72299197 .31900025 .73399356 .35699464 .73999026 .3959961 .73999026 .43598939M.31098939 .0029907227C.28599549 .0029907227 .2639923 .0079956059 .24299622 .017990113 .22200012 .026992798 .20498657 .040985109 .18998719 .05999756 .1749878 .07899475 .16299439 .100997928 .15499878 .1269989 .1459961 .15299988 .14199829 .18299866 .14199829 .21598816 .14199829 .22698975 .14299011 .24398804 .1459961 .2659912 .147995 .2889862 .1519928 .31498719 .15899658 .34298707 .16499329 .37098695 .17399597 .40098573 .18598938 .43299867 .19799805 .46398927 .21398926 .49398805 .23298645 .5239868 .25 .5499878 .2689972 .57299807 .2899933 .59199526 .30999757 .61099246 .33099366 .6279907 .35198976 .6409912 .37298585 .6539917 .394989 .6629944 .4169922 .66999819 .43798829 .6769867 .45899964 .6799927 .47898866 .6799927 .5 .6799927 .519989 .6759949 .54100039 .6689911 .5609894 .6619873 .57899478 .6499939 .59599307 .6339874 .6119995 .61698916 .625 .59599307 .6359863 .56999209 .6459961 .5439911 .651001 .5119934 .651001 .47499085 .651001 .45700074 .6489868 .43399049 .644989 .40699769 .6409912 .3789978 .6339874 .34999085 .625 .31799317 .6159973 .28599549 .6029968 .2539978 .58699038 .21998596 .56999209 .18598938 .5499878 .1539917 .5249939 .12298584 .5130005 .10798645 .49899293 .09298706 .48298646 .07899475 .46699525 .06399536 .44999696 .050994874 .43199159 .039993287 .41299439 .0289917 .3939972 .019989014 .37298585 .0129852299 .35198976 .005996704 .33198548 .0029907227 .31098939 .0029907227Z" />

<path id="font_15_3" d="M.37399293 .60598757C.37599183 .61499026 .37799073 .621994 .3809967 .6279907 .3829956 .6339874 .3869934 .6389923 .3929901 .6429901 .39898683 .6459961 .4079895 .6489868 .4189911 .6499939 .42999269 .651001 .44499208 .6519928 .46499635 .6519928 .47698976 .6519928 .4850006 .6529999 .48999024 .6549988 .49499513 .6559906 .49699403 .6619873 .49699403 .67099 .49699403 .6769867 .49499513 .68099978 .4909973 .6819916 .4869995 .68299868 .48399354 .68299868 .48199464 .68299868 .47499085 .68299868 .46499635 .68299868 .45298768 .68299868 .44099427 .6819916 .42900086 .6819916 .41600038 .6819916 .40299989 .68099978 .3909912 .68099978 .3789978 .68099978 .36698915 .6799927 .35699464 .6799927 .34999085 .6799927 .34298707 .6799927 .33299256 .6799927 .32099916 .68099978 .30899049 .68099978 .29699708 .68099978 .28399659 .6819916 .2709961 .6819916 .2579956 .6819916 .24598694 .68299868 .23399353 .68299868 .22399903 .68299868 .21699524 .68299868 .21398926 .68299868 .20999146 .6819916 .20498657 .68099978 .19999695 .67900088 .19699097 .6729889 .19699097 .6629944 .19699097 .6579895 .19898987 .6549988 .20399475 .6539917 .20899964 .6529999 .21598816 .6519928 .22499085 .6519928 .24598694 .6519928 .2630005 .651001 .27598573 .6499939 .28799439 .647995 .2939911 .6419983 .2939911 .6329956 .2939911 .6299896 .2939911 .6279907 .2939911 .6259918 .2939911 .625 .29299928 .621994 .2919922 .61698916L.15699768 .07798767C.15499878 .068984989 .15299988 .06098938 .15098572 .054992677 .147995 .04899597 .14399719 .04399109 .13798523 .040985109 .13198853 .036987306 .12399292 .033996583 .11299133 .032989503 .101989749 .03199768 .085998538 .0309906 .06599426 .0309906 .054992677 .0309906 .04699707 .02999878 .041992189 .0289917 .036987306 .026992798 .033996583 .020996094 .033996583 .010986328 .033996583 .005996704 .035995485 .0029907227 .040985109 .0019989014 .04499817 .0009918213 .04798889 0 .04899597 0 .055999757 0 .06599426 0 .07798767 .0009918213 .08898926 .0009918213 .101989749 .0009918213 .114990238 .0019989014 .12799073 .0019989014 .13999939 .0019989014 .1519928 .0029907227 .16299439 .0029907227 .17298889 .0029907227 .17999268 .0029907227 .18699646 .0029907227 .19699097 .0029907227 .20899964 .0029907227 .22099304 .0019989014 .23399353 .0019989014 .24699402 .0019989014 .2599945 .0009918213 .27198792 .0009918213 .2849884 .0009918213 .29699708 0 .30699159 0 .31399537 0 .31799317 0 .32199098 .0009918213 .32699586 .0029907227 .33198548 .0039978029 .33399964 .009994507 .33399964 .018997193 .33399964 .024993897 .33198548 .0289917 .32798768 .02999878 .32299806 .0309906 .31498719 .0309906 .3039856 .0309906 .29499818 .0309906 .28799439 .0309906 .2829895 .0309906 .27799989 .0309906 .2709961 .03199768 .26098634 .032989503 .25 .033996583 .24398804 .035995485 .24099732 .038986207 .23799134 .040985109 .23599243 .04499817 .23599243 .049987794 .23599243 .053985597 .23599243 .057998659 .23699951 .06199646 .23799134 .06599426 .23899842 .069992069 .23999024 .07299805L.37399293 .60598757Z" />

</defs>
<g clip-path="url(#clip_12)">
<g clip-path="url(#clip_13)">
<path transform="matrix(.1,0,0,-.1,361.134,698.853)" stroke-width="5.04" stroke-linecap="butt" stroke-miterlimit="10" stroke-linejoin="miter" fill="none" stroke="#231f20" d="M266.23 1437.57-73.7539 1777.55" />
<path transform="matrix(.1,0,0,-.1,361.134,698.853)" stroke-width="5.04" stroke-linecap="butt" stroke-miterlimit="10" stroke-linejoin="miter" fill="none" stroke="#231f20" d="M289.141 1460.48-50.8438 1800.46" />
<path transform="matrix(.1,0,0,-.1,361.134,698.853)" stroke-width="5.04" stroke-linecap="butt" stroke-miterlimit="10" stroke-linejoin="miter" fill="none" stroke="#231f20" d="M312.051 1483.39-27.9336 1823.37" />
<path transform="matrix(.1,0,0,-.1,361.134,698.853)" stroke-width="5.04" stroke-linecap="butt" stroke-miterlimit="10" stroke-linejoin="miter" fill="none" stroke="#231f20" d="M334.961 1506.3-5.02344 1846.28" />
<path transform="matrix(.1,0,0,-.1,361.134,698.853)" stroke-width="5.04" stroke-linecap="butt" stroke-miterlimit="10" stroke-linejoin="miter" fill="none" stroke="#231f20" d="M357.871 1529.21 17.8867 1869.19" />
<path transform="matrix(.1,0,0,-.1,361.134,698.853)" stroke-width="5.04" stroke-linecap="butt" stroke-miterlimit="10" stroke-linejoin="miter" fill="none" stroke="#231f20" d="M380.781 1552.12 40.7969 1892.1" />
<path transform="matrix(.1,0,0,-.1,361.134,698.853)" stroke-width="5.04" stroke-linecap="butt" stroke-miterlimit="10" stroke-linejoin="miter" fill="none" stroke="#231f20" d="M403.691 1575.03 63.707 1915.01" />
<path transform="matrix(.1,0,0,-.1,361.134,698.853)" stroke-width="5.04" stroke-linecap="butt" stroke-miterlimit="10" stroke-linejoin="miter" fill="none" stroke="#231f20" d="M426.602 1597.94 86.6172 1937.92" />
<path transform="matrix(.1,0,0,-.1,361.134,698.853)" stroke-width="5.04" stroke-linecap="butt" stroke-miterlimit="10" stroke-linejoin="miter" fill="none" stroke="#231f20" d="M449.512 1620.85 109.527 1960.83" />
<path transform="matrix(.1,0,0,-.1,361.134,698.853)" stroke-width="5.04" stroke-linecap="butt" stroke-miterlimit="10" stroke-linejoin="miter" fill="none" stroke="#231f20" d="M472.422 1643.76 132.438 1983.74" />
<path transform="matrix(.1,0,0,-.1,361.134,698.853)" stroke-width="5.04" stroke-linecap="butt" stroke-miterlimit="10" stroke-linejoin="miter" fill="none" stroke="#231f20" d="M495.332 1666.67 155.348 2006.65" />
<path transform="matrix(.1,0,0,-.1,361.134,698.853)" stroke-width="5.04" stroke-linecap="butt" stroke-miterlimit="10" stroke-linejoin="miter" fill="none" stroke="#231f20" d="M518.242 1689.58 178.258 2029.56" />
<path transform="matrix(.1,0,0,-.1,361.134,698.853)" stroke-width="5.04" stroke-linecap="butt" stroke-miterlimit="10" stroke-linejoin="miter" fill="none" stroke="#231f20" d="M541.152 1712.49 201.168 2052.47" />
<path transform="matrix(.1,0,0,-.1,361.134,698.853)" stroke-width="5.04" stroke-linecap="butt" stroke-miterlimit="10" stroke-linejoin="miter" fill="none" stroke="#231f20" d="M564.063 1735.4 224.078 2075.38" />
<path transform="matrix(.1,0,0,-.1,361.134,698.853)" stroke-width="5.04" stroke-linecap="butt" stroke-miterlimit="10" stroke-linejoin="miter" fill="none" stroke="#231f20" d="M586.973 1758.31 246.988 2098.29" />
</g>
<path transform="matrix(.1,0,0,-.1,361.134,698.853)" stroke-width="11.3386" stroke-linecap="butt" stroke-miterlimit="22.9256" stroke-linejoin="miter" fill="none" stroke="#231f20" d="M6.77344 1716.24H480.52" />
<path transform="matrix(.1,0,0,-.1,361.134,698.853)" d="M225.605 1705.85H260.562V1807.83H225.605Z" fill="#ffffff" fill-rule="evenodd" />
<path transform="matrix(.1,0,0,-.1,361.134,698.853)" stroke-width="11.3386" stroke-linecap="butt" stroke-miterlimit="22.9256" stroke-linejoin="miter" fill="none" stroke="#231f20" d="M243.645 1559.81 288.805 1638.03 333.965 1716.25H153.328L198.488 1638.03 243.645 1559.81Z" />
<path transform="matrix(.1,0,0,-.1,361.134,698.853)" d="M228.328 1584.76H228.332C241.176 1592.68 258.152 1588.64 266.066 1575.8L723.449 833.555C731.363 820.711 727.332 803.734 714.488 795.82L714.484 795.816C701.645 787.902 684.664 791.934 676.75 804.777L219.367 1547.02C211.453 1559.87 215.484 1576.84 228.328 1584.76" fill="#ffffff" fill-rule="evenodd" />
<path transform="matrix(.1,0,0,-.1,361.134,698.853)" stroke-width="11.3386" stroke-linecap="butt" stroke-miterlimit="22.9256" stroke-linejoin="miter" fill="none" stroke="#231f20" d="M228.328 1584.76H228.332C241.176 1592.68 258.152 1588.64 266.066 1575.8L723.449 833.555C731.363 820.711 727.332 803.734 714.488 795.82L714.484 795.816C701.645 787.902 684.664 791.934 676.75 804.777L219.367 1547.02C211.453 1559.87 215.484 1576.84 228.328 1584.76Z" />
<path transform="matrix(.1,0,0,-.1,361.134,698.853)" stroke-width="5.6693" stroke-linecap="butt" stroke-miterlimit="22.9256" stroke-linejoin="miter" fill="none" stroke="#231f20" d="M700.922 817.828 501.172 1141.98" />
<path transform="matrix(.1,0,0,-.1,361.134,698.853)" d="M506.547 1133.26C501.082 1129.9 496.867 1124.5 495.035 1118.39L477.406 1180.55 525 1136.86C518.719 1137.97 512.008 1136.63 506.547 1133.26" fill="#231f20" fill-rule="evenodd" />
<path transform="matrix(.1,0,0,-.1,361.134,698.853)" d="M701.254 867.207C728.527 867.023 750.488 844.77 750.305 817.496 750.121 790.223 727.867 768.266 700.59 768.445 673.32 768.633 651.363 790.887 651.543 818.156 651.727 845.434 673.98 867.391 701.254 867.207" fill="#231f20" fill-rule="evenodd" />
<path transform="matrix(.1,0,0,-.1,361.134,698.853)" stroke-width="11.3386" stroke-linecap="butt" stroke-miterlimit="22.9256" stroke-linejoin="miter" fill="none" stroke="#231f20" d="M701.254 867.207C728.527 867.023 750.488 844.77 750.305 817.496 750.121 790.223 727.867 768.266 700.59 768.445 673.32 768.633 651.363 790.887 651.543 818.156 651.727 845.434 673.98 867.391 701.254 867.207Z" />
<path transform="matrix(.1,0,0,-.1,361.134,698.853)" stroke-width="5.6693" stroke-linecap="butt" stroke-miterlimit="22.9256" stroke-linejoin="miter" fill="none" stroke="#231f20" d="M700.922 817.828 1025.07 1017.58" />
<path transform="matrix(.1,0,0,-.1,361.134,698.853)" d="M1016.36 1012.21C1012.99 1017.67 1007.6 1021.88 1001.49 1023.72L1063.64 1041.34 1019.96 993.75C1021.07 1000.03 1019.72 1006.75 1016.36 1012.21" fill="#231f20" fill-rule="evenodd" />
<path transform="matrix(.1,0,0,-.1,361.134,698.853)" stroke-width="5.6693" stroke-linecap="butt" stroke-dasharray="96.3781,17.0079,11.3386,17.0079" stroke-miterlimit="22.9256" stroke-linejoin="miter" fill="none" stroke="#231f20" d="M471.828 1189.61 244.711 1558.18" />
<use data-text="e" xlink:href="#font_14_1" transform="matrix(11.9997,0,0,-11.9997,415.6149,583.609)" fill="#231f20" />
<use data-text="y" xlink:href="#font_15_7" transform="matrix(7.99952,0,0,-7.99952,421.93836,586.24887)" fill="#231f20" />
<use data-text="R" xlink:href="#font_15_9" transform="matrix(7.99952,0,0,-7.99952,422.25868,578.32937)" fill="#231f20" />
<use data-text="e" xlink:href="#font_14_1" transform="matrix(11.9997,0,0,-11.9997,464.90086,592.03799)" fill="#231f20" />
<use data-text="x" xlink:href="#font_15_5" transform="matrix(7.99952,0,0,-7.99952,471.2243,594.6778)" fill="#231f20" />
<use data-text="R" xlink:href="#font_15_9" transform="matrix(7.99952,0,0,-7.99952,472.19267,586.75827)" fill="#231f20" />
<use data-text="a" xlink:href="#font_15_4" transform="matrix(11.9997,0,0,-11.9997,394.87937,583.2555)" fill="#231f20" />
<use data-text="b" xlink:href="#font_15_6" transform="matrix(11.9997,0,0,-11.9997,459.34657,654.7149)" fill="#231f20" />
<use data-text="®" xlink:href="#font_15_10" transform="matrix(11.9997,0,0,-11.9997,401.95356,617.995)" fill="#231f20" />
<use data-text="°" xlink:href="#font_15_11" transform="matrix(11.9997,0,0,-11.9997,466.35908,692.5052)" fill="#231f20" />
<use data-text="A" xlink:href="#font_15_1" transform="matrix(11.9997,0,0,-11.9997,416.20747,628.2267)" fill="#231f20" />
<use data-text="B" xlink:href="#font_15_2" transform="matrix(11.9997,0,0,-11.9997,508.16447,692.5607)" fill="#231f20" />
<use data-text="O" xlink:href="#font_15_8" transform="matrix(11.9997,0,0,-11.9997,371.56047,553.3147)" fill="#231f20" />
<use data-text="e" xlink:href="#font_14_1" transform="matrix(11.9997,0,0,-11.9997,422.01597,552.5522)" fill="#231f20" />
<use data-text="x" xlink:href="#font_15_5" transform="matrix(7.99952,0,0,-7.99952,428.33979,555.192)" fill="#231f20" />
<use data-text="I" xlink:href="#font_15_3" transform="matrix(7.99952,0,0,-7.99952,429.30778,548.5522)" fill="#231f20" />
<use data-text="e" xlink:href="#font_14_1" transform="matrix(11.9997,0,0,-11.9997,371.34059,504.1303)" fill="#231f20" />
<use data-text="y" xlink:href="#font_15_7" transform="matrix(7.99952,0,0,-7.99952,377.6644,506.77015)" fill="#231f20" />
<use data-text="I" xlink:href="#font_15_3" transform="matrix(7.99952,0,0,-7.99952,378.3843,500.1303)" fill="#231f20" />
<path transform="matrix(.1,0,0,-.1,361.134,698.853)" d="M234.449 1549.18C240.41 1544.1 249.352 1544.81 254.434 1550.77 259.508 1556.73 258.797 1565.67 252.84 1570.75 246.883 1575.82 237.941 1575.11 232.859 1569.16 227.785 1563.2 228.496 1554.26 234.449 1549.18" fill-rule="evenodd" />
<path transform="matrix(.1,0,0,-.1,361.134,698.853)" stroke-width="5.6693" stroke-linecap="butt" stroke-miterlimit="22.9256" stroke-linejoin="miter" fill="none" stroke="#231f20" d="M243.574 1604.16V1940.77" />
<path transform="matrix(.1,0,0,-.1,361.134,698.853)" d="M243.574 1930.53C237.156 1930.53 230.742 1928.15 225.977 1923.91L243.574 1986.07 261.176 1923.91C256.41 1928.15 249.988 1930.53 243.574 1930.53" fill="#231f20" fill-rule="evenodd" />
<path transform="matrix(.1,0,0,-.1,361.134,698.853)" stroke-width="5.6693" stroke-linecap="butt" stroke-miterlimit="22.9256" stroke-linejoin="miter" fill="none" stroke="#231f20" d="M289.129 1560.02H624.324" />
<path transform="matrix(.1,0,0,-.1,361.134,698.853)" d="M614.09 1560.02C614.09 1566.43 611.711 1572.85 607.469 1577.62L669.633 1560.02 607.469 1542.41C611.711 1547.18 614.09 1553.6 614.09 1560.02" fill="#231f20" fill-rule="evenodd" />
<path transform="matrix(.1,0,0,-.1,361.134,698.853)" stroke-width="11.3386" stroke-linecap="butt" stroke-miterlimit="22.9256" stroke-linejoin="miter" fill="none" stroke="#231f20" d="M678.559 833.566H678.563C687.238 845.91 704.426 848.91 716.77 840.238L1563.43 245.211C1575.77 236.535 1578.78 219.348 1570.1 207.004 1561.43 194.66 1544.23 191.66 1531.89 200.332L685.23 795.359C672.887 804.031 669.887 821.223 678.559 833.566Z" />
<path transform="matrix(.1,0,0,-.1,361.134,698.853)" d="M1528.38 268.332C1553.51 278.934 1582.47 267.156 1593.07 242.027 1603.68 216.898 1591.9 187.938 1566.77 177.336 1541.64 166.734 1512.68 178.508 1502.07 203.637 1491.47 228.766 1503.25 257.73 1528.38 268.332" fill="#231f20" fill-rule="evenodd" />
<path transform="matrix(.1,0,0,-.1,361.134,698.853)" stroke-width="11.3386" stroke-linecap="butt" stroke-miterlimit="22.9256" stroke-linejoin="miter" fill="none" stroke="#231f20" d="M1528.38 268.332C1553.51 278.934 1582.47 267.156 1593.07 242.027 1603.68 216.898 1591.9 187.938 1566.77 177.336 1541.64 166.734 1512.68 178.508 1502.07 203.637 1491.47 228.766 1503.25 257.73 1528.38 268.332Z" />
<path transform="matrix(.1,0,0,-.1,361.134,698.853)" stroke-width="5.6693" stroke-linecap="butt" stroke-dasharray="96.3781,17.0079,11.3386,17.0079" stroke-miterlimit="22.9256" stroke-linejoin="miter" fill="none" stroke="#231f20" d="M757.52 778.074 1492.45 261.574" />
<path transform="matrix(.1,0,0,-.1,361.134,698.853)" stroke-width="5.6693" stroke-linecap="butt" stroke-miterlimit="22.9256" stroke-linejoin="miter" fill="none" stroke="#231f20" d="M243.574 1458.08V817.871" />
<path transform="matrix(.1,0,0,-.1,361.134,698.853)" stroke-width="5.6693" stroke-linecap="butt" stroke-miterlimit="22.9256" stroke-linejoin="miter" fill="none" stroke="#231f20" d="M700.91 735.371V6.37891" />
<path transform="matrix(.1,0,0,-.1,361.134,698.853)" d="M582.434 987.27 613.297 938.172 580.766 917.723 549.902 966.82 582.434 987.27" fill="#ffffff" fill-rule="evenodd" />
<path transform="matrix(.1,0,0,-.1,361.134,698.853)" d="M1296.41 386.344 1344.45 353.844 1322.91 322.02 1274.88 354.523 1296.41 386.344" fill="#ffffff" fill-rule="evenodd" />
<path transform="matrix(.1,0,0,-.1,361.134,698.853)" stroke-width="5.6693" stroke-linecap="butt" stroke-miterlimit="22.9256" stroke-linejoin="miter" fill="none" stroke="#231f20" d="M1302.72 339.648C1156.89 156.137 935.305 49.1914 700.91 49.1914" />
<path transform="matrix(.1,0,0,-.1,361.134,698.853)" d="M1296.35 331.633C1301.38 327.645 1304.91 321.785 1306.01 315.5L1330.91 375.117 1278.45 337.402C1284.82 337.754 1291.32 335.625 1296.35 331.633" fill="#231f20" fill-rule="evenodd" />
<path transform="matrix(.1,0,0,-.1,361.134,698.853)" stroke-width="5.6693" stroke-linecap="butt" stroke-miterlimit="22.9256" stroke-linejoin="miter" fill="none" stroke="#231f20" d="M569.34 941.75C468.91 888.836 357.094 861.18 243.574 861.18" />
<path transform="matrix(.1,0,0,-.1,361.134,698.853)" d="M560.285 936.977C563.277 931.305 564.164 924.516 562.633 918.324L609.422 962.871 546.227 949.465C552.199 947.227 557.293 942.656 560.285 936.977" fill="#231f20" fill-rule="evenodd" />
</g>
<g clip-path="url(#clip_13)">
<path transform="matrix(.1,0,0,-.1,361.134,698.853)" stroke-width="5.04" stroke-linecap="butt" stroke-miterlimit="10" stroke-linejoin="miter" fill="none" stroke="#231f20" d="M266.23 1437.57-73.7539 1777.55" />
<path transform="matrix(.1,0,0,-.1,361.134,698.853)" stroke-width="5.04" stroke-linecap="butt" stroke-miterlimit="10" stroke-linejoin="miter" fill="none" stroke="#231f20" d="M289.141 1460.48-50.8438 1800.46" />
<path transform="matrix(.1,0,0,-.1,361.134,698.853)" stroke-width="5.04" stroke-linecap="butt" stroke-miterlimit="10" stroke-linejoin="miter" fill="none" stroke="#231f20" d="M312.051 1483.39-27.9336 1823.37" />
<path transform="matrix(.1,0,0,-.1,361.134,698.853)" stroke-width="5.04" stroke-linecap="butt" stroke-miterlimit="10" stroke-linejoin="miter" fill="none" stroke="#231f20" d="M334.961 1506.3-5.02344 1846.28" />
<path transform="matrix(.1,0,0,-.1,361.134,698.853)" stroke-width="5.04" stroke-linecap="butt" stroke-miterlimit="10" stroke-linejoin="miter" fill="none" stroke="#231f20" d="M357.871 1529.21 17.8867 1869.19" />
<path transform="matrix(.1,0,0,-.1,361.134,698.853)" stroke-width="5.04" stroke-linecap="butt" stroke-miterlimit="10" stroke-linejoin="miter" fill="none" stroke="#231f20" d="M380.781 1552.12 40.7969 1892.1" />
<path transform="matrix(.1,0,0,-.1,361.134,698.853)" stroke-width="5.04" stroke-linecap="butt" stroke-miterlimit="10" stroke-linejoin="miter" fill="none" stroke="#231f20" d="M403.691 1575.03 63.707 1915.01" />
<path transform="matrix(.1,0,0,-.1,361.134,698.853)" stroke-width="5.04" stroke-linecap="butt" stroke-miterlimit="10" stroke-linejoin="miter" fill="none" stroke="#231f20" d="M426.602 1597.94 86.6172 1937.92" />
<path transform="matrix(.1,0,0,-.1,361.134,698.853)" stroke-width="5.04" stroke-linecap="butt" stroke-miterlimit="10" stroke-linejoin="miter" fill="none" stroke="#231f20" d="M449.512 1620.85 109.527 1960.83" />
<path transform="matrix(.1,0,0,-.1,361.134,698.853)" stroke-width="5.04" stroke-linecap="butt" stroke-miterlimit="10" stroke-linejoin="miter" fill="none" stroke="#231f20" d="M472.422 1643.76 132.438 1983.74" />
<path transform="matrix(.1,0,0,-.1,361.134,698.853)" stroke-width="5.04" stroke-linecap="butt" stroke-miterlimit="10" stroke-linejoin="miter" fill="none" stroke="#231f20" d="M495.332 1666.67 155.348 2006.65" />
<path transform="matrix(.1,0,0,-.1,361.134,698.853)" stroke-width="5.04" stroke-linecap="butt" stroke-miterlimit="10" stroke-linejoin="miter" fill="none" stroke="#231f20" d="M518.242 1689.58 178.258 2029.56" />
<path transform="matrix(.1,0,0,-.1,361.134,698.853)" stroke-width="5.04" stroke-linecap="butt" stroke-miterlimit="10" stroke-linejoin="miter" fill="none" stroke="#231f20" d="M541.152 1712.49 201.168 2052.47" />
<path transform="matrix(.1,0,0,-.1,361.134,698.853)" stroke-width="5.04" stroke-linecap="butt" stroke-miterlimit="10" stroke-linejoin="miter" fill="none" stroke="#231f20" d="M564.063 1735.4 224.078 2075.38" />
<path transform="matrix(.1,0,0,-.1,361.134,698.853)" stroke-width="5.04" stroke-linecap="butt" stroke-miterlimit="10" stroke-linejoin="miter" fill="none" stroke="#231f20" d="M586.973 1758.31 246.988 2098.29" />
</g>

</svg>