<svg xmlns="http://www.w3.org/2000/svg" xmlns:xlink="http://www.w3.org/1999/xlink" version="1.1" width="173.000" height="94.000" viewBox="359.638 678.290 173.000 94.000">
<defs>
<clipPath id="clip_18">
<path transform="matrix(1,0,0,-1,369.638,762.29006)" d="M0 0H153V74H0Z" />
</clipPath>

<clipPath id="clip_19">
<path transform="matrix(.1,0,0,-.1,369.638,762.29006)" d="M6.77344 .550781H62.167943V739.4888H6.77344Z" clip-rule="evenodd" />
</clipPath>

<clipPath id="clip_20">
<path transform="matrix(.1,0,0,-.1,369.638,762.29006)" d="M62.1719 .589844H1520.7819V55.984346H62.1719Z" clip-rule="evenodd" />
</clipPath>

<path id="font_21_1" d="M.33399964 .3019867C.33499146 .30899049 .33799745 .31900025 .34199525 .33198548 .34599305 .34498597 .35198976 .35798646 .3600006 .37098695 .36698915 .38398744 .3769989 .394989 .3889923 .40499879 .40098573 .4149933 .41600038 .41999818 .43299867 .41999818 .43598939 .41999818 .44198609 .41999818 .45199586 .4189911 .46199037 .41799928 .47200013 .4139862 .48298646 .40699769 .46899415 .4039917 .45799256 .397995 .44898988 .3869934 .43998719 .37599183 .43499757 .36499024 .43499757 .35299684 .43499757 .34498597 .43798829 .33699037 .44400025 .32998658 .44999696 .32199098 .45999146 .31799317 .47299195 .31799317 .47799684 .31799317 .48399354 .31900025 .4909973 .32199098 .49699403 .32398988 .5029907 .32699586 .5079956 .33198548 .5130005 .33699037 .5179901 .34298707 .5219879 .34999085 .5249939 .35699464 .5269928 .3659973 .5269928 .37599183 .5269928 .3889923 .5239868 .39898683 .5169983 .4079895 .5099945 .4169922 .5019989 .42399598 .49299623 .42900086 .48399354 .43399049 .47399903 .43699647 .46299745 .43899537 .45199586 .44099427 .44299317 .44198609 .43399049 .44198609 .4189911 .44198609 .4059906 .43899537 .394989 .43399049 .3829956 .42799378 .37298585 .42099 .3639984 .41299439 .35499574 .40499879 .34799195 .39698792 .34199525 .3880005 .33599855 .3789978 .33198548 .37199403 .32899476 .3659973 .32299806 .3829956 .31498719 .3959961 .30599977 .4059906 .29699708 .41600038 .2869873 .42399598 .2769928 .42900086 .2659912 .43399049 .2559967 .43798829 .24699402 .43998719 .23699951 .44099427 .22799683 .44198609 .22099304 .44198609 .19499207 .44198609 .17199707 .43499757 .1519928 .42199708 .13198853 .4079895 .114990238 .3919983 .101989749 .375 .08799744 .35699464 .07798767 .33999635 .070999149 .32299806 .06399536 .30599977 .05999756 .2939911 .05999756 .28799439 .05999756 .2829895 .06199646 .27999879 .06498718 .2789917 .067993167 .27799989 .070999149 .27799989 .07199097 .27799989 .07899475 .27799989 .083999637 .28199769 .084991458 .2889862 .09399414 .31599427 .10398865 .33799745 .115997318 .35499574 .1269989 .37199403 .13899231 .3849945 .1519928 .394989 .16499329 .4039917 .1769867 .41099549 .18899536 .4149933 .19999695 .41799928 .20999146 .41999818 .21899414 .41999818 .22399903 .41999818 .22898865 .4189911 .23599243 .41799928 .24198914 .41600038 .24798584 .41299439 .25299073 .4079895 .2579956 .40299989 .2630005 .39698792 .2669983 .3880005 .2709961 .3789978 .272995 .36799623 .272995 .35299684 .272995 .33799745 .2689972 .31199647 .2599945 .2749939 .25099183 .23799134 .23799134 .18499756 .21899414 .114990238 .21099854 .083999637 .19898987 .05899048 .18199158 .039993287 .16499329 .020996094 .1459961 .010986328 .12399292 .010986328 .12098694 .010986328 .11399841 .011993408 .10499573 .0129852299 .09498596 .01399231 .084991458 .016998291 .07398987 .023986817 .08699036 .026992798 .09799194 .032989503 .10699463 .042999269 .115997318 .051986696 .12098694 .06399536 .12098694 .07798767 .12098694 .09098816 .116989139 .100997928 .10798645 .10598755 .09899902 .11099243 .09098816 .11299133 .083999637 .11299133 .068984989 .11299133 .055999757 .10699463 .04499817 .09599304 .033996583 .084991458 .0289917 .070999149 .0289917 .054992677 .0289917 .04399109 .03199768 .033996583 .037994386 .025985718 .042999269 .016998291 .050994874 .009994507 .05999756 .004989624 .068984989 0 .07899475-.0040130617 .08999634-.007003784 .100997928-.010009766 .11199951-.011001587 .12298584-.011001587 .13999939-.011001587 .1539917-.007003784 .16699219 0 .17999268 .0069885256 .18998719 .015991211 .19898987 .024993897 .20799256 .033996583 .21499634 .041992189 .21998596 .050994874 .22499085 .05899048 .22698975 .06399536 .22799683 .06498718 .23399353 .04598999 .24598694 .0289917 .2639923 .0129852299 .28199769-.0030059815 .30599977-.011001587 .33599855-.011001587 .3619995-.011001587 .3849945-.0040130617 .40499879 .009994507 .42399598 .022994996 .44099427 .038986207 .45498658 .056991579 .46798707 .07398987 .47898866 .09199524 .48599244 .10899353 .49299623 .12599182 .49598695 .13699341 .49598695 .14299011 .49598695 .147995 .49398805 .15098572 .4909973 .1519928 .48799134 .15299988 .4850006 .15299988 .48399354 .15299988 .47898866 .15299988 .47599793 .1519928 .47499085 .1499939 .47399903 .147995 .47200013 .14498902 .47099305 .14199829 .46299745 .114990238 .45298768 .09399414 .44099427 .07699585 .42900086 .05999756 .4169922 .04598999 .4039917 .036987306 .3909912 .026992798 .3789978 .019989014 .36799623 .016998291 .35598756 .0129852299 .34599305 .010986328 .33799745 .010986328 .31900025 .010986328 .30499269 .017990113 .29599 .0309906 .2869873 .04399109 .2829895 .05999756 .2829895 .07699585 .2829895 .08799744 .2849884 .099990848 .28799439 .11299133 .29100038 .12599182 .29499818 .14299011 .2999878 .16499329L.33399964 .3019867Z" />

<path id="font_21_3" d="M.5159912 .68299868C.5159912 .6839905 .5159912 .6859894 .5149994 .68899539 .5139923 .69200137 .5099945 .69400027 .5029907 .69400027 .49899293 .69400027 .4909973 .69400027 .47898866 .69299319 .46699525 .69200137 .45399476 .6899872 .43998719 .68899539 .42599488 .6879883 .41299439 .68699648 .40098573 .6859894 .3880005 .68499758 .37998963 .6839905 .37599183 .68299868 .36698915 .6819916 .3619995 .6749878 .3619995 .6639862 .3619995 .6579895 .3639984 .6549988 .36898805 .6539917 .37298585 .6529999 .3789978 .6519928 .38598634 .6519928 .4099884 .6519928 .42399598 .651001 .42900086 .647995 .43399049 .644989 .43598939 .6399994 .43598939 .6349945L.43299867 .61499026 .37298585 .37799073C.3639984 .39698792 .35198976 .4119873 .33699037 .42399598 .32199098 .43598939 .3039856 .44198609 .2809906 .44198609 .2519989 .44198609 .22299195 .43399049 .19400025 .4169922 .16499329 .3999939 .13999939 .3769989 .116989139 .34999085 .09399414 .32299806 .07499695 .2919922 .06098938 .25698854 .04699707 .22200012 .039993287 .18598938 .039993287 .14898682 .039993287 .12599182 .042999269 .10398865 .049987794 .084991458 .056991579 .06498718 .06599426 .04798889 .07798767 .033996583 .08898926 .019989014 .102996829 .008987427 .11999512 .0009918213 .13598633-.007003784 .1539917-.011001587 .17298889-.011001587 .17799378-.011001587 .18399048-.011001587 .19299317-.010009766 .20199585-.009002686 .21199036-.006011963 .22299195-.0010070801 .23399353 .004989624 .24699402 .011993408 .2599945 .021987915 .272995 .03199768 .28799439 .04598999 .30299378 .06399536 .30699159 .042999269 .31698609 .024993897 .33399964 .010986328 .34999085-.0040130617 .36999513-.011001587 .3939972-.011001587 .41099549-.011001587 .42599488-.006011963 .43798829 .004989624 .44999696 .01499939 .45999146 .027999878 .46798707 .04399109 .47200013 .052993776 .47599793 .06298828 .47999574 .07398987 .48298646 .084991458 .48599244 .09599304 .4889984 .10598755 .49198915 .115997318 .49398805 .125 .49598695 .13198853 .49699403 .13899231 .49798585 .14199829 .49798585 .14299011 .49798585 .147995 .49598695 .15098572 .49299623 .1519928 .48999024 .15299988 .4869995 .15299988 .48599244 .15299988 .48098756 .15299988 .47698976 .1519928 .47599793 .1499939 .47499085 .14698792 .47299195 .14199829 .47200013 .1349945 .46798707 .11898804 .46398927 .10398865 .45899964 .08898926 .45399476 .07398987 .44898988 .05999756 .44299317 .04899597 .43699647 .036987306 .42999269 .027999878 .4229889 .020996094 .4149933 .01399231 .4059906 .010986328 .3959961 .010986328 .3829956 .010986328 .37399293 .015991211 .37098695 .026992798 .36799623 .036987306 .3659973 .04699707 .3659973 .056991579 .3659973 .068984989 .36698915 .07798767 .36799623 .083999637 .36898805 .08898926 .36999513 .09599304 .37199403 .10499573L.5159912 .68299868M.30799867 .11898804C.30699159 .11399841 .30599977 .11099243 .30499269 .10798645 .3039856 .10499573 .30299378 .102996829 .3019867 .099990848 .30099488 .09700012 .29899598 .09498596 .29699708 .09199524 .29499818 .08898926 .2919922 .085998538 .28799439 .08198547 .2659912 .053985597 .24499512 .034988405 .22599793 .025985718 .20599365 .015991211 .18899536 .010986328 .1749878 .010986328 .1619873 .010986328 .1519928 .01399231 .14399719 .019989014 .13598633 .025985718 .12998963 .033996583 .125 .042999269 .11999512 .051986696 .115997318 .06298828 .11399841 .07398987 .11199951 .084991458 .11099243 .09498596 .11099243 .10499573 .11099243 .117996219 .11299133 .13398743 .116989139 .1539917 .11999512 .17399597 .125 .19499207 .12998963 .21598816 .1349945 .23699951 .14099121 .2579956 .147995 .27799989 .1539917 .29699708 .1599884 .31298829 .1659851 .32398988 .18099976 .35398866 .19999695 .37799073 .22099304 .394989 .24198914 .4119873 .2619934 .41999818 .28199769 .41999818 .2979889 .41999818 .31098939 .41600038 .32199098 .40699769 .33198548 .397995 .33999635 .3889923 .34599305 .37799073 .35198976 .36698915 .35598756 .35699464 .35798646 .34799195 .3600006 .33898927 .36099244 .33299256 .36099244 .33198548 .36099244 .32899476 .36099244 .32598878 .3600006 .32299806 .35899354 .31999208 .35899354 .31799317 .35798646 .31498719L.30799867 .11898804Z" />

<path id="font_21_2" d="M.3959961 .37998963C.3880005 .37998963 .3809967 .37998963 .37399293 .3789978 .36698915 .37799073 .35899354 .37298585 .35198976 .3659973 .34399415 .35899354 .33898927 .35099793 .33699037 .34399415 .33499146 .33599855 .33399964 .32998658 .33399964 .32699586 .33399964 .31498719 .33799745 .30599977 .34599305 .30099488 .35299684 .29499818 .3619995 .2919922 .37098695 .2919922 .38598634 .2919922 .39898683 .2979889 .4099884 .30899049 .42099 .31999208 .4269867 .33599855 .4269867 .35598756 .4269867 .3809967 .41600038 .40098573 .394989 .41799928 .37399293 .43399049 .34498597 .44198609 .30899049 .44198609 .2749939 .44198609 .24198914 .43399049 .20999146 .41799928 .17799378 .40098573 .1499939 .37998963 .125 .35299684 .099990848 .32598878 .07899475 .29599 .06399536 .2619934 .04899597 .22799683 .040985109 .19299317 .040985109 .1579895 .040985109 .1349945 .04499817 .11399841 .051986696 .09399414 .05899048 .07299805 .068984989 .054992677 .08299255 .039993287 .09700012 .023986817 .11399841 .011993408 .13398743 .0029907227 .1539917-.007003784 .1769867-.011001587 .20298767-.011001587 .23899842-.011001587 .2709961-.006011963 .29899598 .005996704 .32699586 .016998291 .35099793 .0289917 .36999513 .042999269 .3889923 .056991579 .4039917 .069992069 .4149933 .08299255 .4249878 .09599304 .42999269 .10398865 .42999269 .10699463 .42999269 .10998535 .42900086 .11299133 .4269867 .115997318 .42399598 .11898804 .42099 .11999512 .41799928 .11999512 .4149933 .11999512 .41299439 .11898804 .4119873 .117996219 .41099549 .116989139 .4079895 .11399841 .40499879 .10998535 .3849945 .084991458 .3639984 .06599426 .34199525 .052993776 .31999208 .039993287 .29899598 .02999878 .27999879 .023986817 .26098634 .016998291 .24398804 .01399231 .22999573 .0129852299 .21598816 .011993408 .20799256 .010986328 .20498657 .010986328 .17399597 .010986328 .15098572 .021987915 .13699341 .042999269 .12199402 .06399536 .114990238 .08999634 .114990238 .11999512 .114990238 .12998963 .115997318 .14299011 .11898804 .1599884 .12098694 .17599488 .12399292 .19299317 .1289978 .21199036 .13398743 .23098755 .13899231 .25 .1459961 .2689972 .15299988 .28799439 .1599884 .30499269 .16899109 .31999208 .18399048 .34899903 .20498657 .37298585 .22999573 .3919983 .25498963 .41099549 .28199769 .41999818 .30999757 .41999818 .32699586 .41999818 .34399415 .4169922 .36099244 .4099884 .3769989 .40299989 .3889923 .3929901 .3959961 .37998963Z" />

<path id="font_21_4" d="M.08799744 .05899048C.08699036 .051986696 .084991458 .042999269 .08299255 .033996583 .07998657 .024993897 .07899475 .018997193 .07899475 .015991211 .07899475 .0069885256 .08198547 0 .08799744-.005004883 .09399414-.009002686 .100997928-.011001587 .10798645-.011001587 .11399841-.011001587 .12098694-.009002686 .1289978-.005004883 .13598633 0 .14199829 .0069885256 .14498902 .016998291 .14498902 .017990113 .1459961 .020996094 .147995 .025985718 .14898682 .0309906 .15098572 .037994386 .15299988 .04598999 .15499878 .052993776 .15699768 .06098938 .15899658 .069992069 .16099549 .07798767 .16299439 .084991458 .1639862 .09098816 .16699219 .10598755 .17098999 .12098694 .1749878 .13598633 .1789856 .15098572 .18299866 .1659851 .18598938 .18099976 .18899536 .19198609 .19198609 .20399475 .19499207 .21499634 .19799805 .22599793 .19999695 .23699951 .20298767 .24798584 .20498657 .25698854 .20799256 .2669983 .21099854 .27799989 .21398926 .2889862 .21499634 .29599 .21598816 .2979889 .21998596 .30599977 .22599793 .31698609 .23498535 .33099366 .24299622 .34399415 .2539978 .35798646 .2679901 .37098695 .2809906 .38398744 .29699708 .3959961 .31599427 .4059906 .33399964 .4149933 .35499574 .41999818 .3789978 .41999818 .3899994 .41999818 .3999939 .41799928 .40699769 .4139862 .4139862 .40899659 .4189911 .4039917 .4229889 .39698792 .4269867 .3899994 .42999269 .3829956 .43099977 .375 .43199159 .3659973 .43299867 .35798646 .43299867 .34999085 .43299867 .33699037 .43199159 .32398988 .42900086 .31098939 .42599488 .29699708 .42199708 .28199769 .41799928 .2669983 .4149933 .2539978 .4119873 .24299622 .4099884 .23399353 .4079895 .22399903 .4059906 .21499634 .4039917 .20698548 .4019928 .19799805 .3999939 .18998719 .397995 .18099976 .394989 .17199707 .3929901 .1619873 .3899994 .15098572 .3869934 .14199829 .3849945 .13398743 .38398744 .12799073 .3829956 .12199402 .3809967 .116989139 .37998963 .11199951 .3789978 .10699463 .3769989 .100997928 .37599183 .09599304 .37399293 .08999634 .37199403 .08299255 .36999513 .07499695 .36898805 .069992069 .36698915 .06399536 .3659973 .057998659 .36499024 .051986696 .36299134 .04598999 .3619995 .039993287 .36099244 .033996583 .3600006 .0289917 .35899354 .024993897 .35798646 .019989014 .35699464 .016998291 .35699464 .015991211 .35699464 .0069885256 .3600006 0 .3659973-.005004883 .37199403-.009002686 .3789978-.011001587 .38598634-.011001587 .40098573-.011001587 .4119873-.006011963 .4169922 .005996704 .42199708 .016998291 .4269867 .02999878 .43099977 .04598999 .43399049 .05999756 .43899537 .07899475 .44499208 .101989749 .45098878 .125 .45700074 .14898682 .46299745 .17298889 .46899415 .19699097 .47499085 .21998596 .47999574 .24099732 .4850006 .2619934 .4889984 .2769928 .4909973 .2869873 .49198915 .2899933 .49598695 .29899598 .5029907 .31399537 .5099945 .32798768 .519989 .34298707 .5339966 .35899354 .5469971 .37399293 .56399539 .3880005 .58499148 .40098573 .6049957 .4139862 .6289978 .41999818 .6559906 .41999818 .6769867 .41999818 .69200137 .41299439 .69898989 .39898683 .70599368 .38398744 .70999148 .36799623 .70999148 .34999085 .70999148 .33599855 .70799258 .31900025 .7029877 .29899598 .69799807 .27799989 .69299319 .2579956 .68699648 .23699951 .6799927 .21598816 .6729889 .19499207 .66600039 .17599488 .6589966 .1559906 .6529999 .13899231 .647995 .12599182 .6429901 .11399841 .6399994 .10398865 .6380005 .09700012 .6359863 .08999634 .6349945 .08099365 .6349945 .070999149 .6349945 .04798889 .6429901 .027999878 .6589966 .0129852299 .673996-.0030059815 .69400027-.011001587 .71699526-.011001587 .73999026-.011001587 .7599945-.0030059815 .7769928 .011993408 .7939911 .026992798 .8069916 .04399109 .81799319 .06298828 .8279877 .08198547 .83599856 .09899902 .84098818 .115997318 .84599307 .13198853 .84799197 .14099121 .84799197 .14299011 .84799197 .147995 .84599307 .15098572 .84298709 .1519928 .83999636 .15299988 .83699038 .15299988 .83599856 .15299988 .83099368 .15299988 .8279877 .1519928 .82699587 .1499939 .82598879 .14698792 .82398989 .14199829 .82099917 .1349945 .81700137 .12199402 .81199648 .10798645 .8069916 .09298706 .8009949 .07798767 .7939911 .06498718 .7849884 .052993776 .776001 .040985109 .7669983 .0309906 .7559967 .022994996 .7449951 .01499939 .73298647 .010986328 .71899417 .010986328 .7029877 .010986328 .69499209 .021987915 .69499209 .04399109 .69499209 .056991579 .69699099 .068984989 .70098879 .08099365 .70399478 .09199524 .70799258 .10398865 .71299746 .114990238 .71798709 .12799073 .723999 .14399719 .73098757 .16299439 .73799136 .18199158 .74398806 .20199585 .7509918 .22299195 .7569885 .24398804 .7619934 .2639923 .7669983 .28399659 .7719879 .3039856 .7739868 .32099916 .7739868 .33499146 .7739868 .36799623 .7639923 .3939972 .7449951 .41299439 .7259979 .43199159 .69699099 .44198609 .6589966 .44198609 .62098696 .44198609 .58898928 .43299867 .5629883 .4139862 .5369873 .394989 .5149994 .37199403 .49598695 .34498597 .49499513 .35198976 .49299623 .3619995 .48999024 .3769989 .4869995 .3909912 .47799684 .4039917 .46398927 .41600038 .45098878 .4269867 .43798829 .43399049 .4229889 .43699647 .4079895 .43998719 .394989 .44198609 .38198854 .44198609 .35899354 .44198609 .33898927 .43899537 .32199098 .43199159 .30499269 .4249878 .2899933 .41600038 .2769928 .40699769 .2639923 .397995 .25299073 .3880005 .24499512 .3789978 .23599243 .36898805 .22999573 .36099244 .22599793 .35499574 .22299195 .38398744 .21299744 .40499879 .19499207 .41999818 .1769867 .43499757 .15699768 .44198609 .13398743 .44198609 .12298584 .44198609 .11299133 .43998719 .10499573 .43598939 .09599304 .43099977 .08898926 .42599488 .08299255 .41999818 .07699585 .4139862 .07199097 .4079895 .068984989 .4019928 .06498718 .394989 .06199646 .3899994 .05999756 .3849945 .054992677 .37599183 .050994874 .36698915 .04798889 .35598756 .04399109 .34498597 .040985109 .33399964 .037994386 .32499696 .034988405 .31498719 .032989503 .30699159 .03199768 .2999878 .02999878 .29299928 .0289917 .2889862 .0289917 .28799439 .0289917 .2829895 .0309906 .27999879 .033996583 .2789917 .036987306 .27799989 .039993287 .27799989 .040985109 .27799989 .04598999 .27799989 .049987794 .2789917 .050994874 .2809906 .051986696 .2829895 .054992677 .2899933 .057998659 .30099488 .066986087 .33699037 .07699585 .3659973 .08799744 .3880005 .09899902 .40899659 .11299133 .41999818 .1309967 .41999818 .13899231 .41999818 .1459961 .4169922 .15299988 .4119873 .15899658 .4059906 .1619873 .3929901 .1619873 .37399293 .1619873 .36898805 .1619873 .3639984 .1619873 .3600006 .16099549 .35499574 .1599884 .34999085 .15899658 .34399415 .1579895 .33799745 .1559906 .33099366 .1539917 .32199098 .1519928 .31298829 .14898682 .30299378 .1459961 .2899933L.08799744 .05899048Z" />

</defs>
<g clip-path="url(#clip_18)">
<g clip-path="url(#clip_19)">
<path transform="matrix(.1,0,0,-.1,369.638,762.29006)" stroke-width="3.6" stroke-linecap="butt" stroke-miterlimit="2.6131" stroke-linejoin="miter" fill="none" stroke="#231f20" d="M51.9805-136.668-472.391 387.699" />
<path transform="matrix(.1,0,0,-.1,369.638,762.29006)" stroke-width="3.6" stroke-linecap="butt" stroke-miterlimit="2.6131" stroke-linejoin="miter" fill="none" stroke="#231f20" d="M69.7969-118.852-454.57 405.52" />
<path transform="matrix(.1,0,0,-.1,369.638,762.29006)" stroke-width="3.6" stroke-linecap="butt" stroke-miterlimit="2.6131" stroke-linejoin="miter" fill="none" stroke="#231f20" d="M87.6172-101.031-436.75 423.336" />
<path transform="matrix(.1,0,0,-.1,369.638,762.29006)" stroke-width="3.6" stroke-linecap="butt" stroke-miterlimit="2.6131" stroke-linejoin="miter" fill="none" stroke="#231f20" d="M105.438-83.2109-418.934 441.156" />
<path transform="matrix(.1,0,0,-.1,369.638,762.29006)" stroke-width="3.6" stroke-linecap="butt" stroke-miterlimit="2.6131" stroke-linejoin="miter" fill="none" stroke="#231f20" d="M123.254-65.3945-401.113 458.977" />
<path transform="matrix(.1,0,0,-.1,369.638,762.29006)" stroke-width="3.6" stroke-linecap="butt" stroke-miterlimit="2.6131" stroke-linejoin="miter" fill="none" stroke="#231f20" d="M141.074-47.5742-383.293 476.793" />
<path transform="matrix(.1,0,0,-.1,369.638,762.29006)" stroke-width="3.6" stroke-linecap="butt" stroke-miterlimit="2.6131" stroke-linejoin="miter" fill="none" stroke="#231f20" d="M158.895-29.7539-365.477 494.613" />
<path transform="matrix(.1,0,0,-.1,369.638,762.29006)" stroke-width="3.6" stroke-linecap="butt" stroke-miterlimit="2.6131" stroke-linejoin="miter" fill="none" stroke="#231f20" d="M176.711-11.9375-347.656 512.434" />
<path transform="matrix(.1,0,0,-.1,369.638,762.29006)" stroke-width="3.6" stroke-linecap="butt" stroke-miterlimit="2.6131" stroke-linejoin="miter" fill="none" stroke="#231f20" d="M194.531 5.88281-329.836 530.25" />
<path transform="matrix(.1,0,0,-.1,369.638,762.29006)" stroke-width="3.6" stroke-linecap="butt" stroke-miterlimit="2.6131" stroke-linejoin="miter" fill="none" stroke="#231f20" d="M212.352 23.7031-312.02 548.07" />
<path transform="matrix(.1,0,0,-.1,369.638,762.29006)" stroke-width="3.6" stroke-linecap="butt" stroke-miterlimit="2.6131" stroke-linejoin="miter" fill="none" stroke="#231f20" d="M230.172 41.5195-294.199 565.891" />
<path transform="matrix(.1,0,0,-.1,369.638,762.29006)" stroke-width="3.6" stroke-linecap="butt" stroke-miterlimit="2.6131" stroke-linejoin="miter" fill="none" stroke="#231f20" d="M247.988 59.3398-276.379 583.711" />
<path transform="matrix(.1,0,0,-.1,369.638,762.29006)" stroke-width="3.6" stroke-linecap="butt" stroke-miterlimit="2.6131" stroke-linejoin="miter" fill="none" stroke="#231f20" d="M265.809 77.1602-258.563 601.527" />
<path transform="matrix(.1,0,0,-.1,369.638,762.29006)" stroke-width="3.6" stroke-linecap="butt" stroke-miterlimit="2.6131" stroke-linejoin="miter" fill="none" stroke="#231f20" d="M283.629 94.9766-240.742 619.348" />
<path transform="matrix(.1,0,0,-.1,369.638,762.29006)" stroke-width="3.6" stroke-linecap="butt" stroke-miterlimit="2.6131" stroke-linejoin="miter" fill="none" stroke="#231f20" d="M301.445 112.797-222.922 637.168" />
<path transform="matrix(.1,0,0,-.1,369.638,762.29006)" stroke-width="3.6" stroke-linecap="butt" stroke-miterlimit="2.6131" stroke-linejoin="miter" fill="none" stroke="#231f20" d="M319.266 130.617-205.102 654.984" />
<path transform="matrix(.1,0,0,-.1,369.638,762.29006)" stroke-width="3.6" stroke-linecap="butt" stroke-miterlimit="2.6131" stroke-linejoin="miter" fill="none" stroke="#231f20" d="M337.086 148.438-187.285 672.805" />
<path transform="matrix(.1,0,0,-.1,369.638,762.29006)" stroke-width="3.6" stroke-linecap="butt" stroke-miterlimit="2.6131" stroke-linejoin="miter" fill="none" stroke="#231f20" d="M354.902 166.254-169.465 690.625" />
<path transform="matrix(.1,0,0,-.1,369.638,762.29006)" stroke-width="3.6" stroke-linecap="butt" stroke-miterlimit="2.6131" stroke-linejoin="miter" fill="none" stroke="#231f20" d="M372.723 184.074-151.645 708.441" />
<path transform="matrix(.1,0,0,-.1,369.638,762.29006)" stroke-width="3.6" stroke-linecap="butt" stroke-miterlimit="2.6131" stroke-linejoin="miter" fill="none" stroke="#231f20" d="M390.543 201.895-133.828 726.262" />
<path transform="matrix(.1,0,0,-.1,369.638,762.29006)" stroke-width="3.6" stroke-linecap="butt" stroke-miterlimit="2.6131" stroke-linejoin="miter" fill="none" stroke="#231f20" d="M408.359 219.711-116.008 744.082" />
<path transform="matrix(.1,0,0,-.1,369.638,762.29006)" stroke-width="3.6" stroke-linecap="butt" stroke-miterlimit="2.6131" stroke-linejoin="miter" fill="none" stroke="#231f20" d="M426.18 237.531-98.1875 761.898" />
<path transform="matrix(.1,0,0,-.1,369.638,762.29006)" stroke-width="3.6" stroke-linecap="butt" stroke-miterlimit="2.6131" stroke-linejoin="miter" fill="none" stroke="#231f20" d="M444 255.352-80.3711 779.719" />
<path transform="matrix(.1,0,0,-.1,369.638,762.29006)" stroke-width="3.6" stroke-linecap="butt" stroke-miterlimit="2.6131" stroke-linejoin="miter" fill="none" stroke="#231f20" d="M461.816 273.168-62.5508 797.539" />
<path transform="matrix(.1,0,0,-.1,369.638,762.29006)" stroke-width="3.6" stroke-linecap="butt" stroke-miterlimit="2.6131" stroke-linejoin="miter" fill="none" stroke="#231f20" d="M479.637 290.988-44.7305 815.355" />
<path transform="matrix(.1,0,0,-.1,369.638,762.29006)" stroke-width="3.6" stroke-linecap="butt" stroke-miterlimit="2.6131" stroke-linejoin="miter" fill="none" stroke="#231f20" d="M497.457 308.809-26.9141 833.176" />
<path transform="matrix(.1,0,0,-.1,369.638,762.29006)" stroke-width="3.6" stroke-linecap="butt" stroke-miterlimit="2.6131" stroke-linejoin="miter" fill="none" stroke="#231f20" d="M515.277 326.625-9.09375 850.996" />
<path transform="matrix(.1,0,0,-.1,369.638,762.29006)" stroke-width="3.6" stroke-linecap="butt" stroke-miterlimit="2.6131" stroke-linejoin="miter" fill="none" stroke="#231f20" d="M533.094 344.445 8.72656 868.816" />
<path transform="matrix(.1,0,0,-.1,369.638,762.29006)" stroke-width="3.6" stroke-linecap="butt" stroke-miterlimit="2.6131" stroke-linejoin="miter" fill="none" stroke="#231f20" d="M550.914 362.266 26.543 886.633" />
<path transform="matrix(.1,0,0,-.1,369.638,762.29006)" stroke-width="3.6" stroke-linecap="butt" stroke-miterlimit="2.6131" stroke-linejoin="miter" fill="none" stroke="#231f20" d="M568.734 380.082 44.3633 904.453" />
</g>
<g clip-path="url(#clip_20)">
<path transform="matrix(.1,0,0,-.1,369.638,762.29006)" stroke-width="3.6" stroke-linecap="butt" stroke-miterlimit="2.6131" stroke-linejoin="miter" fill="none" stroke="#231f20" d="M809.059-986.684-223.684 46.0586" />
<path transform="matrix(.1,0,0,-.1,369.638,762.29006)" stroke-width="3.6" stroke-linecap="butt" stroke-miterlimit="2.6131" stroke-linejoin="miter" fill="none" stroke="#231f20" d="M826.879-968.867-205.867 63.8789" />
<path transform="matrix(.1,0,0,-.1,369.638,762.29006)" stroke-width="3.6" stroke-linecap="butt" stroke-miterlimit="2.6131" stroke-linejoin="miter" fill="none" stroke="#231f20" d="M844.695-951.047-188.047 81.6992" />
<path transform="matrix(.1,0,0,-.1,369.638,762.29006)" stroke-width="3.6" stroke-linecap="butt" stroke-miterlimit="2.6131" stroke-linejoin="miter" fill="none" stroke="#231f20" d="M862.516-933.227-170.227 99.5156" />
<path transform="matrix(.1,0,0,-.1,369.638,762.29006)" stroke-width="3.6" stroke-linecap="butt" stroke-miterlimit="2.6131" stroke-linejoin="miter" fill="none" stroke="#231f20" d="M880.336-915.41-152.41 117.336" />
<path transform="matrix(.1,0,0,-.1,369.638,762.29006)" stroke-width="3.6" stroke-linecap="butt" stroke-miterlimit="2.6131" stroke-linejoin="miter" fill="none" stroke="#231f20" d="M898.156-897.59-134.59 135.156" />
<path transform="matrix(.1,0,0,-.1,369.638,762.29006)" stroke-width="3.6" stroke-linecap="butt" stroke-miterlimit="2.6131" stroke-linejoin="miter" fill="none" stroke="#231f20" d="M915.973-879.77-116.77 152.973" />
<path transform="matrix(.1,0,0,-.1,369.638,762.29006)" stroke-width="3.6" stroke-linecap="butt" stroke-miterlimit="2.6131" stroke-linejoin="miter" fill="none" stroke="#231f20" d="M933.793-861.949-98.9492 170.793" />
<path transform="matrix(.1,0,0,-.1,369.638,762.29006)" stroke-width="3.6" stroke-linecap="butt" stroke-miterlimit="2.6131" stroke-linejoin="miter" fill="none" stroke="#231f20" d="M951.613-844.133-81.1328 188.613" />
<path transform="matrix(.1,0,0,-.1,369.638,762.29006)" stroke-width="3.6" stroke-linecap="butt" stroke-miterlimit="2.6131" stroke-linejoin="miter" fill="none" stroke="#231f20" d="M969.43-826.313-63.3125 206.43" />
<path transform="matrix(.1,0,0,-.1,369.638,762.29006)" stroke-width="3.6" stroke-linecap="butt" stroke-miterlimit="2.6131" stroke-linejoin="miter" fill="none" stroke="#231f20" d="M987.25-808.492-45.4922 224.25" />
<path transform="matrix(.1,0,0,-.1,369.638,762.29006)" stroke-width="3.6" stroke-linecap="butt" stroke-miterlimit="2.6131" stroke-linejoin="miter" fill="none" stroke="#231f20" d="M1005.07-790.676-27.6758 242.07" />
<path transform="matrix(.1,0,0,-.1,369.638,762.29006)" stroke-width="3.6" stroke-linecap="butt" stroke-miterlimit="2.6131" stroke-linejoin="miter" fill="none" stroke="#231f20" d="M1022.89-772.855-9.85547 259.887" />
<path transform="matrix(.1,0,0,-.1,369.638,762.29006)" stroke-width="3.6" stroke-linecap="butt" stroke-miterlimit="2.6131" stroke-linejoin="miter" fill="none" stroke="#231f20" d="M1040.71-755.035 7.96484 277.707" />
<path transform="matrix(.1,0,0,-.1,369.638,762.29006)" stroke-width="3.6" stroke-linecap="butt" stroke-miterlimit="2.6131" stroke-linejoin="miter" fill="none" stroke="#231f20" d="M1058.53-737.219 25.7813 295.527" />
<path transform="matrix(.1,0,0,-.1,369.638,762.29006)" stroke-width="3.6" stroke-linecap="butt" stroke-miterlimit="2.6131" stroke-linejoin="miter" fill="none" stroke="#231f20" d="M1076.34-719.398 43.6016 313.344" />
<path transform="matrix(.1,0,0,-.1,369.638,762.29006)" stroke-width="3.6" stroke-linecap="butt" stroke-miterlimit="2.6131" stroke-linejoin="miter" fill="none" stroke="#231f20" d="M1094.16-701.578 61.4219 331.164" />
<path transform="matrix(.1,0,0,-.1,369.638,762.29006)" stroke-width="3.6" stroke-linecap="butt" stroke-miterlimit="2.6131" stroke-linejoin="miter" fill="none" stroke="#231f20" d="M1111.98-683.762 79.2383 348.984" />
<path transform="matrix(.1,0,0,-.1,369.638,762.29006)" stroke-width="3.6" stroke-linecap="butt" stroke-miterlimit="2.6131" stroke-linejoin="miter" fill="none" stroke="#231f20" d="M1129.8-665.941 97.0586 366.805" />
<path transform="matrix(.1,0,0,-.1,369.638,762.29006)" stroke-width="3.6" stroke-linecap="butt" stroke-miterlimit="2.6131" stroke-linejoin="miter" fill="none" stroke="#231f20" d="M1147.62-648.121 114.879 384.621" />
<path transform="matrix(.1,0,0,-.1,369.638,762.29006)" stroke-width="3.6" stroke-linecap="butt" stroke-miterlimit="2.6131" stroke-linejoin="miter" fill="none" stroke="#231f20" d="M1165.44-630.305 132.695 402.441" />
<path transform="matrix(.1,0,0,-.1,369.638,762.29006)" stroke-width="3.6" stroke-linecap="butt" stroke-miterlimit="2.6131" stroke-linejoin="miter" fill="none" stroke="#231f20" d="M1183.26-612.484 150.516 420.262" />
<path transform="matrix(.1,0,0,-.1,369.638,762.29006)" stroke-width="3.6" stroke-linecap="butt" stroke-miterlimit="2.6131" stroke-linejoin="miter" fill="none" stroke="#231f20" d="M1201.08-594.664 168.336 438.078" />
<path transform="matrix(.1,0,0,-.1,369.638,762.29006)" stroke-width="3.6" stroke-linecap="butt" stroke-miterlimit="2.6131" stroke-linejoin="miter" fill="none" stroke="#231f20" d="M1218.9-576.844 186.156 455.898" />
<path transform="matrix(.1,0,0,-.1,369.638,762.29006)" stroke-width="3.6" stroke-linecap="butt" stroke-miterlimit="2.6131" stroke-linejoin="miter" fill="none" stroke="#231f20" d="M1236.72-559.027 203.973 473.719" />
<path transform="matrix(.1,0,0,-.1,369.638,762.29006)" stroke-width="3.6" stroke-linecap="butt" stroke-miterlimit="2.6131" stroke-linejoin="miter" fill="none" stroke="#231f20" d="M1254.54-541.207 221.793 491.535" />
<path transform="matrix(.1,0,0,-.1,369.638,762.29006)" stroke-width="3.6" stroke-linecap="butt" stroke-miterlimit="2.6131" stroke-linejoin="miter" fill="none" stroke="#231f20" d="M1272.36-523.387 239.613 509.355" />
<path transform="matrix(.1,0,0,-.1,369.638,762.29006)" stroke-width="3.6" stroke-linecap="butt" stroke-miterlimit="2.6131" stroke-linejoin="miter" fill="none" stroke="#231f20" d="M1290.18-505.57 257.43 527.176" />
<path transform="matrix(.1,0,0,-.1,369.638,762.29006)" stroke-width="3.6" stroke-linecap="butt" stroke-miterlimit="2.6131" stroke-linejoin="miter" fill="none" stroke="#231f20" d="M1307.99-487.75 275.25 544.992" />
<path transform="matrix(.1,0,0,-.1,369.638,762.29006)" stroke-width="3.6" stroke-linecap="butt" stroke-miterlimit="2.6131" stroke-linejoin="miter" fill="none" stroke="#231f20" d="M1325.81-469.93 293.07 562.813" />
<path transform="matrix(.1,0,0,-.1,369.638,762.29006)" stroke-width="3.6" stroke-linecap="butt" stroke-miterlimit="2.6131" stroke-linejoin="miter" fill="none" stroke="#231f20" d="M1343.63-452.113 310.887 580.633" />
<path transform="matrix(.1,0,0,-.1,369.638,762.29006)" stroke-width="3.6" stroke-linecap="butt" stroke-miterlimit="2.6131" stroke-linejoin="miter" fill="none" stroke="#231f20" d="M1361.45-434.293 328.707 598.449" />
<path transform="matrix(.1,0,0,-.1,369.638,762.29006)" stroke-width="3.6" stroke-linecap="butt" stroke-miterlimit="2.6131" stroke-linejoin="miter" fill="none" stroke="#231f20" d="M1379.27-416.473 346.527 616.27" />
<path transform="matrix(.1,0,0,-.1,369.638,762.29006)" stroke-width="3.6" stroke-linecap="butt" stroke-miterlimit="2.6131" stroke-linejoin="miter" fill="none" stroke="#231f20" d="M1397.09-398.656 364.344 634.09" />
<path transform="matrix(.1,0,0,-.1,369.638,762.29006)" stroke-width="3.6" stroke-linecap="butt" stroke-miterlimit="2.6131" stroke-linejoin="miter" fill="none" stroke="#231f20" d="M1414.91-380.836 382.164 651.91" />
<path transform="matrix(.1,0,0,-.1,369.638,762.29006)" stroke-width="3.6" stroke-linecap="butt" stroke-miterlimit="2.6131" stroke-linejoin="miter" fill="none" stroke="#231f20" d="M1432.73-363.016 399.984 669.727" />
<path transform="matrix(.1,0,0,-.1,369.638,762.29006)" stroke-width="3.6" stroke-linecap="butt" stroke-miterlimit="2.6131" stroke-linejoin="miter" fill="none" stroke="#231f20" d="M1450.55-345.199 417.801 687.547" />
<path transform="matrix(.1,0,0,-.1,369.638,762.29006)" stroke-width="3.6" stroke-linecap="butt" stroke-miterlimit="2.6131" stroke-linejoin="miter" fill="none" stroke="#231f20" d="M1468.37-327.379 435.621 705.367" />
<path transform="matrix(.1,0,0,-.1,369.638,762.29006)" stroke-width="3.6" stroke-linecap="butt" stroke-miterlimit="2.6131" stroke-linejoin="miter" fill="none" stroke="#231f20" d="M1486.18-309.559 453.441 723.184" />
<path transform="matrix(.1,0,0,-.1,369.638,762.29006)" stroke-width="3.6" stroke-linecap="butt" stroke-miterlimit="2.6131" stroke-linejoin="miter" fill="none" stroke="#231f20" d="M1504-291.738 471.262 741.004" />
<path transform="matrix(.1,0,0,-.1,369.638,762.29006)" stroke-width="3.6" stroke-linecap="butt" stroke-miterlimit="2.6131" stroke-linejoin="miter" fill="none" stroke="#231f20" d="M1521.82-273.922 489.078 758.824" />
<path transform="matrix(.1,0,0,-.1,369.638,762.29006)" stroke-width="3.6" stroke-linecap="butt" stroke-miterlimit="2.6131" stroke-linejoin="miter" fill="none" stroke="#231f20" d="M1539.64-256.102 506.898 776.641" />
<path transform="matrix(.1,0,0,-.1,369.638,762.29006)" stroke-width="3.6" stroke-linecap="butt" stroke-miterlimit="2.6131" stroke-linejoin="miter" fill="none" stroke="#231f20" d="M1557.46-238.281 524.719 794.461" />
<path transform="matrix(.1,0,0,-.1,369.638,762.29006)" stroke-width="3.6" stroke-linecap="butt" stroke-miterlimit="2.6131" stroke-linejoin="miter" fill="none" stroke="#231f20" d="M1575.28-220.465 542.535 812.281" />
<path transform="matrix(.1,0,0,-.1,369.638,762.29006)" stroke-width="3.6" stroke-linecap="butt" stroke-miterlimit="2.6131" stroke-linejoin="miter" fill="none" stroke="#231f20" d="M1593.1-202.645 560.355 830.098" />
<path transform="matrix(.1,0,0,-.1,369.638,762.29006)" stroke-width="3.6" stroke-linecap="butt" stroke-miterlimit="2.6131" stroke-linejoin="miter" fill="none" stroke="#231f20" d="M1610.92-184.824 578.176 847.918" />
<path transform="matrix(.1,0,0,-.1,369.638,762.29006)" stroke-width="3.6" stroke-linecap="butt" stroke-miterlimit="2.6131" stroke-linejoin="miter" fill="none" stroke="#231f20" d="M1628.74-167.008 595.992 865.738" />
<path transform="matrix(.1,0,0,-.1,369.638,762.29006)" stroke-width="3.6" stroke-linecap="butt" stroke-miterlimit="2.6131" stroke-linejoin="miter" fill="none" stroke="#231f20" d="M1646.55-149.188 613.813 883.555" />
<path transform="matrix(.1,0,0,-.1,369.638,762.29006)" stroke-width="3.6" stroke-linecap="butt" stroke-miterlimit="2.6131" stroke-linejoin="miter" fill="none" stroke="#231f20" d="M1664.38-131.367 631.633 901.375" />
<path transform="matrix(.1,0,0,-.1,369.638,762.29006)" stroke-width="3.6" stroke-linecap="butt" stroke-miterlimit="2.6131" stroke-linejoin="miter" fill="none" stroke="#231f20" d="M1682.2-113.551 649.449 919.195" />
<path transform="matrix(.1,0,0,-.1,369.638,762.29006)" stroke-width="3.6" stroke-linecap="butt" stroke-miterlimit="2.6131" stroke-linejoin="miter" fill="none" stroke="#231f20" d="M1700.01-95.7305 667.27 937.016" />
<path transform="matrix(.1,0,0,-.1,369.638,762.29006)" stroke-width="3.6" stroke-linecap="butt" stroke-miterlimit="2.6131" stroke-linejoin="miter" fill="none" stroke="#231f20" d="M1717.83-77.9102 685.09 954.832" />
<path transform="matrix(.1,0,0,-.1,369.638,762.29006)" stroke-width="3.6" stroke-linecap="butt" stroke-miterlimit="2.6131" stroke-linejoin="miter" fill="none" stroke="#231f20" d="M1735.65-60.0938 702.906 972.652" />
<path transform="matrix(.1,0,0,-.1,369.638,762.29006)" stroke-width="3.6" stroke-linecap="butt" stroke-miterlimit="2.6131" stroke-linejoin="miter" fill="none" stroke="#231f20" d="M1753.47-42.2734 720.727 990.473" />
<path transform="matrix(.1,0,0,-.1,369.638,762.29006)" stroke-width="3.6" stroke-linecap="butt" stroke-miterlimit="2.6131" stroke-linejoin="miter" fill="none" stroke="#231f20" d="M1771.29-24.4531 738.547 1008.29" />
<path transform="matrix(.1,0,0,-.1,369.638,762.29006)" stroke-width="3.6" stroke-linecap="butt" stroke-miterlimit="2.6131" stroke-linejoin="miter" fill="none" stroke="#231f20" d="M1789.11-6.63281 756.367 1026.11" />
<path transform="matrix(.1,0,0,-.1,369.638,762.29006)" stroke-width="3.6" stroke-linecap="butt" stroke-miterlimit="2.6131" stroke-linejoin="miter" fill="none" stroke="#231f20" d="M1806.93 11.1836 774.184 1043.93" />
<path transform="matrix(.1,0,0,-.1,369.638,762.29006)" stroke-width="3.6" stroke-linecap="butt" stroke-miterlimit="2.6131" stroke-linejoin="miter" fill="none" stroke="#231f20" d="M1824.75 29.0039 792.004 1061.75" />
</g>
<path transform="matrix(.1,0,0,-.1,369.638,762.29006)" stroke-width="11.3386" stroke-linecap="butt" stroke-miterlimit="2.6131" stroke-linejoin="miter" fill="none" stroke="#231f20" d="M62.1719 57.0938H1520.79" />
<path transform="matrix(.1,0,0,-.1,369.638,762.29006)" stroke-width="11.3386" stroke-linecap="butt" stroke-miterlimit="2.6131" stroke-linejoin="miter" fill="none" stroke="#231f20" d="M62.1719 739.488V57.0547" />
<path transform="matrix(.1,0,0,-.1,369.638,762.29006)" stroke-width="5.6693" stroke-linecap="butt" stroke-miterlimit="2.6131" stroke-linejoin="miter" fill="none" stroke="#231f20" d="M65.0898 648.918H984.5" />
<path transform="matrix(.1,0,0,-.1,369.638,762.29006)" d="M941.699 648.918C941.699 655.336 939.32 661.754 935.078 666.52L997.242 648.918 935.078 631.32C939.32 636.086 941.699 642.504 941.699 648.918" fill="#231f20" fill-rule="evenodd" />
<use data-text="x" xlink:href="#font_21_1" transform="matrix(11.9997,0,0,-11.9997,417.2134,696.12838)" fill="#231f20" />
<path transform="matrix(.1,0,0,-.1,369.638,762.29006)" stroke-width="5.6693" stroke-linecap="butt" stroke-miterlimit="2.6131" stroke-linejoin="miter" fill="none" stroke="#231f20" d="M64.2109 384.063H350.633" />
<path transform="matrix(.1,0,0,-.1,369.638,762.29006)" stroke-width="5.6693" stroke-linecap="butt" stroke-miterlimit="2.6131" stroke-linejoin="miter" fill="none" stroke="#231f20" d="M423.168 424.063H350.262V341.648H426.434" />
<path transform="matrix(.1,0,0,-.1,369.638,762.29006)" stroke-width="5.6693" stroke-linecap="butt" stroke-miterlimit="2.6131" stroke-linejoin="miter" fill="none" stroke="#231f20" d="M380.758 403.176V363.977" />
<path transform="matrix(.1,0,0,-.1,369.638,762.29006)" stroke-width="5.6693" stroke-linecap="butt" stroke-miterlimit="2.6131" stroke-linejoin="miter" fill="none" stroke="#231f20" d="M381.891 383.727H715.645" />
<path transform="matrix(.1,0,0,-.1,369.638,762.29006)" stroke-width="5.6693" stroke-linecap="butt" stroke-miterlimit="2.6131" stroke-linejoin="miter" fill="none" stroke="#231f20" d="M64.668 172.219H289.332" />
<path transform="matrix(.1,0,0,-.1,369.638,762.29006)" stroke-width="5.6693" stroke-linecap="butt" stroke-miterlimit="2.6131" stroke-linejoin="miter" fill="none" stroke="#231f20" d="M286.215 170.211 305.355 204.199" />
<path transform="matrix(.1,0,0,-.1,369.638,762.29006)" stroke-width="5.6693" stroke-linecap="butt" stroke-miterlimit="2.6131" stroke-linejoin="miter" fill="none" stroke="#231f20" d="M340.137 136.648 378.355 204.504" />
<path transform="matrix(.1,0,0,-.1,369.638,762.29006)" stroke-width="5.6693" stroke-linecap="butt" stroke-miterlimit="2.6131" stroke-linejoin="miter" fill="none" stroke="#231f20" d="M412.891 136.469 451.109 204.324" />
<path transform="matrix(.1,0,0,-.1,369.638,762.29006)" stroke-width="5.6693" stroke-linecap="butt" stroke-miterlimit="2.6131" stroke-linejoin="miter" fill="none" stroke="#231f20" d="M484.367 136.113 512.25 173.488" />
<path transform="matrix(.1,0,0,-.1,369.638,762.29006)" stroke-width="5.6693" stroke-linecap="butt" stroke-miterlimit="2.6131" stroke-linejoin="miter" fill="none" stroke="#231f20" d="M341.68 136.309 303.461 204.164" />
<path transform="matrix(.1,0,0,-.1,369.638,762.29006)" stroke-width="5.6693" stroke-linecap="butt" stroke-miterlimit="2.6131" stroke-linejoin="miter" fill="none" stroke="#231f20" d="M414.43 136.719 376.211 204.574" />
<path transform="matrix(.1,0,0,-.1,369.638,762.29006)" stroke-width="5.6693" stroke-linecap="butt" stroke-miterlimit="2.6131" stroke-linejoin="miter" fill="none" stroke="#231f20" d="M486.738 135.617 449.367 204.742" />
<path transform="matrix(.1,0,0,-.1,369.638,762.29006)" stroke-width="5.6693" stroke-linecap="butt" stroke-miterlimit="2.6131" stroke-linejoin="miter" fill="none" stroke="#231f20" d="M719.285 172.066H509.332" />
<use data-text="d" xlink:href="#font_21_3" transform="matrix(11.9997,0,0,-11.9997,406.9032,717.50259)" fill="#231f20" />
<use data-text="c" xlink:href="#font_21_2" transform="matrix(11.9997,0,0,-11.9997,407.41883,739.82406)" fill="#231f20" />
<path transform="matrix(.1,0,0,-.1,369.638,762.29006)" stroke-width="11.3386" stroke-linecap="butt" stroke-miterlimit="2.6131" stroke-linejoin="miter" fill="none" stroke="#231f20" d="M719.141 82.7227H1278.313V471.09773H719.141Z" />
<path transform="matrix(.1,0,0,-.1,369.638,762.29006)" d="M998.73 291.605C1006.8 291.605 1013.38 285.023 1013.38 276.953 1013.38 268.883 1006.8 262.301 998.73 262.301 990.66 262.301 984.078 268.883 984.078 276.953 984.078 285.023 990.66 291.605 998.73 291.605" fill="#231f20" fill-rule="evenodd" />
<path transform="matrix(.1,0,0,-.1,369.638,762.29006)" stroke-width="5.6693" stroke-linecap="butt" stroke-miterlimit="2.6131" stroke-linejoin="miter" fill="none" stroke="#231f20" d="M998.73 291.605C1006.8 291.605 1013.38 285.023 1013.38 276.953 1013.38 268.883 1006.8 262.301 998.73 262.301 990.66 262.301 984.078 268.883 984.078 276.953 984.078 285.023 990.66 291.605 998.73 291.605Z" />
<path transform="matrix(.1,0,0,-.1,369.638,762.29006)" stroke-width="5.6693" stroke-linecap="butt" stroke-miterlimit="2.6131" stroke-linejoin="miter" fill="none" stroke="#231f20" d="M998.727 693.082V275.219" />
<use data-text="m" xlink:href="#font_21_4" transform="matrix(11.9997,0,0,-11.9997,481.932,749.49319)" fill="#231f20" />
</g>
<g clip-path="url(#clip_19)">
<path transform="matrix(.1,0,0,-.1,369.638,762.29006)" stroke-width="3.6" stroke-linecap="butt" stroke-miterlimit="2.6131" stroke-linejoin="miter" fill="none" stroke="#231f20" d="M51.9805-136.668-472.391 387.699" />
<path transform="matrix(.1,0,0,-.1,369.638,762.29006)" stroke-width="3.6" stroke-linecap="butt" stroke-miterlimit="2.6131" stroke-linejoin="miter" fill="none" stroke="#231f20" d="M69.7969-118.852-454.57 405.52" />
<path transform="matrix(.1,0,0,-.1,369.638,762.29006)" stroke-width="3.6" stroke-linecap="butt" stroke-miterlimit="2.6131" stroke-linejoin="miter" fill="none" stroke="#231f20" d="M87.6172-101.031-436.75 423.336" />
<path transform="matrix(.1,0,0,-.1,369.638,762.29006)" stroke-width="3.6" stroke-linecap="butt" stroke-miterlimit="2.6131" stroke-linejoin="miter" fill="none" stroke="#231f20" d="M105.438-83.2109-418.934 441.156" />
<path transform="matrix(.1,0,0,-.1,369.638,762.29006)" stroke-width="3.6" stroke-linecap="butt" stroke-miterlimit="2.6131" stroke-linejoin="miter" fill="none" stroke="#231f20" d="M123.254-65.3945-401.113 458.977" />
<path transform="matrix(.1,0,0,-.1,369.638,762.29006)" stroke-width="3.6" stroke-linecap="butt" stroke-miterlimit="2.6131" stroke-linejoin="miter" fill="none" stroke="#231f20" d="M141.074-47.5742-383.293 476.793" />
<path transform="matrix(.1,0,0,-.1,369.638,762.29006)" stroke-width="3.6" stroke-linecap="butt" stroke-miterlimit="2.6131" stroke-linejoin="miter" fill="none" stroke="#231f20" d="M158.895-29.7539-365.477 494.613" />
<path transform="matrix(.1,0,0,-.1,369.638,762.29006)" stroke-width="3.6" stroke-linecap="butt" stroke-miterlimit="2.6131" stroke-linejoin="miter" fill="none" stroke="#231f20" d="M176.711-11.9375-347.656 512.434" />
<path transform="matrix(.1,0,0,-.1,369.638,762.29006)" stroke-width="3.6" stroke-linecap="butt" stroke-miterlimit="2.6131" stroke-linejoin="miter" fill="none" stroke="#231f20" d="M194.531 5.88281-329.836 530.25" />
<path transform="matrix(.1,0,0,-.1,369.638,762.29006)" stroke-width="3.6" stroke-linecap="butt" stroke-miterlimit="2.6131" stroke-linejoin="miter" fill="none" stroke="#231f20" d="M212.352 23.7031-312.02 548.07" />
<path transform="matrix(.1,0,0,-.1,369.638,762.29006)" stroke-width="3.6" stroke-linecap="butt" stroke-miterlimit="2.6131" stroke-linejoin="miter" fill="none" stroke="#231f20" d="M230.172 41.5195-294.199 565.891" />
<path transform="matrix(.1,0,0,-.1,369.638,762.29006)" stroke-width="3.6" stroke-linecap="butt" stroke-miterlimit="2.6131" stroke-linejoin="miter" fill="none" stroke="#231f20" d="M247.988 59.3398-276.379 583.711" />
<path transform="matrix(.1,0,0,-.1,369.638,762.29006)" stroke-width="3.6" stroke-linecap="butt" stroke-miterlimit="2.6131" stroke-linejoin="miter" fill="none" stroke="#231f20" d="M265.809 77.1602-258.563 601.527" />
<path transform="matrix(.1,0,0,-.1,369.638,762.29006)" stroke-width="3.6" stroke-linecap="butt" stroke-miterlimit="2.6131" stroke-linejoin="miter" fill="none" stroke="#231f20" d="M283.629 94.9766-240.742 619.348" />
<path transform="matrix(.1,0,0,-.1,369.638,762.29006)" stroke-width="3.6" stroke-linecap="butt" stroke-miterlimit="2.6131" stroke-linejoin="miter" fill="none" stroke="#231f20" d="M301.445 112.797-222.922 637.168" />
<path transform="matrix(.1,0,0,-.1,369.638,762.29006)" stroke-width="3.6" stroke-linecap="butt" stroke-miterlimit="2.6131" stroke-linejoin="miter" fill="none" stroke="#231f20" d="M319.266 130.617-205.102 654.984" />
<path transform="matrix(.1,0,0,-.1,369.638,762.29006)" stroke-width="3.6" stroke-linecap="butt" stroke-miterlimit="2.6131" stroke-linejoin="miter" fill="none" stroke="#231f20" d="M337.086 148.438-187.285 672.805" />
<path transform="matrix(.1,0,0,-.1,369.638,762.29006)" stroke-width="3.6" stroke-linecap="butt" stroke-miterlimit="2.6131" stroke-linejoin="miter" fill="none" stroke="#231f20" d="M354.902 166.254-169.465 690.625" />
<path transform="matrix(.1,0,0,-.1,369.638,762.29006)" stroke-width="3.6" stroke-linecap="butt" stroke-miterlimit="2.6131" stroke-linejoin="miter" fill="none" stroke="#231f20" d="M372.723 184.074-151.645 708.441" />
<path transform="matrix(.1,0,0,-.1,369.638,762.29006)" stroke-width="3.6" stroke-linecap="butt" stroke-miterlimit="2.6131" stroke-linejoin="miter" fill="none" stroke="#231f20" d="M390.543 201.895-133.828 726.262" />
<path transform="matrix(.1,0,0,-.1,369.638,762.29006)" stroke-width="3.6" stroke-linecap="butt" stroke-miterlimit="2.6131" stroke-linejoin="miter" fill="none" stroke="#231f20" d="M408.359 219.711-116.008 744.082" />
<path transform="matrix(.1,0,0,-.1,369.638,762.29006)" stroke-width="3.6" stroke-linecap="butt" stroke-miterlimit="2.6131" stroke-linejoin="miter" fill="none" stroke="#231f20" d="M426.18 237.531-98.1875 761.898" />
<path transform="matrix(.1,0,0,-.1,369.638,762.29006)" stroke-width="3.6" stroke-linecap="butt" stroke-miterlimit="2.6131" stroke-linejoin="miter" fill="none" stroke="#231f20" d="M444 255.352-80.3711 779.719" />
<path transform="matrix(.1,0,0,-.1,369.638,762.29006)" stroke-width="3.6" stroke-linecap="butt" stroke-miterlimit="2.6131" stroke-linejoin="miter" fill="none" stroke="#231f20" d="M461.816 273.168-62.5508 797.539" />
<path transform="matrix(.1,0,0,-.1,369.638,762.29006)" stroke-width="3.6" stroke-linecap="butt" stroke-miterlimit="2.6131" stroke-linejoin="miter" fill="none" stroke="#231f20" d="M479.637 290.988-44.7305 815.355" />
<path transform="matrix(.1,0,0,-.1,369.638,762.29006)" stroke-width="3.6" stroke-linecap="butt" stroke-miterlimit="2.6131" stroke-linejoin="miter" fill="none" stroke="#231f20" d="M497.457 308.809-26.9141 833.176" />
<path transform="matrix(.1,0,0,-.1,369.638,762.29006)" stroke-width="3.6" stroke-linecap="butt" stroke-miterlimit="2.6131" stroke-linejoin="miter" fill="none" stroke="#231f20" d="M515.277 326.625-9.09375 850.996" />
<path transform="matrix(.1,0,0,-.1,369.638,762.29006)" stroke-width="3.6" stroke-linecap="butt" stroke-miterlimit="2.6131" stroke-linejoin="miter" fill="none" stroke="#231f20" d="M533.094 344.445 8.72656 868.816" />
<path transform="matrix(.1,0,0,-.1,369.638,762.29006)" stroke-width="3.6" stroke-linecap="butt" stroke-miterlimit="2.6131" stroke-linejoin="miter" fill="none" stroke="#231f20" d="M550.914 362.266 26.543 886.633" />
<path transform="matrix(.1,0,0,-.1,369.638,762.29006)" stroke-width="3.6" stroke-linecap="butt" stroke-miterlimit="2.6131" stroke-linejoin="miter" fill="none" stroke="#231f20" d="M568.734 380.082 44.3633 904.453" />
</g>
<g clip-path="url(#clip_20)">
<path transform="matrix(.1,0,0,-.1,369.638,762.29006)" stroke-width="3.6" stroke-linecap="butt" stroke-miterlimit="2.6131" stroke-linejoin="miter" fill="none" stroke="#231f20" d="M809.059-986.684-223.684 46.0586" />
<path transform="matrix(.1,0,0,-.1,369.638,762.29006)" stroke-width="3.6" stroke-linecap="butt" stroke-miterlimit="2.6131" stroke-linejoin="miter" fill="none" stroke="#231f20" d="M826.879-968.867-205.867 63.8789" />
<path transform="matrix(.1,0,0,-.1,369.638,762.29006)" stroke-width="3.6" stroke-linecap="butt" stroke-miterlimit="2.6131" stroke-linejoin="miter" fill="none" stroke="#231f20" d="M844.695-951.047-188.047 81.6992" />
<path transform="matrix(.1,0,0,-.1,369.638,762.29006)" stroke-width="3.6" stroke-linecap="butt" stroke-miterlimit="2.6131" stroke-linejoin="miter" fill="none" stroke="#231f20" d="M862.516-933.227-170.227 99.5156" />
<path transform="matrix(.1,0,0,-.1,369.638,762.29006)" stroke-width="3.6" stroke-linecap="butt" stroke-miterlimit="2.6131" stroke-linejoin="miter" fill="none" stroke="#231f20" d="M880.336-915.41-152.41 117.336" />
<path transform="matrix(.1,0,0,-.1,369.638,762.29006)" stroke-width="3.6" stroke-linecap="butt" stroke-miterlimit="2.6131" stroke-linejoin="miter" fill="none" stroke="#231f20" d="M898.156-897.59-134.59 135.156" />
<path transform="matrix(.1,0,0,-.1,369.638,762.29006)" stroke-width="3.6" stroke-linecap="butt" stroke-miterlimit="2.6131" stroke-linejoin="miter" fill="none" stroke="#231f20" d="M915.973-879.77-116.77 152.973" />
<path transform="matrix(.1,0,0,-.1,369.638,762.29006)" stroke-width="3.6" stroke-linecap="butt" stroke-miterlimit="2.6131" stroke-linejoin="miter" fill="none" stroke="#231f20" d="M933.793-861.949-98.9492 170.793" />
<path transform="matrix(.1,0,0,-.1,369.638,762.29006)" stroke-width="3.6" stroke-linecap="butt" stroke-miterlimit="2.6131" stroke-linejoin="miter" fill="none" stroke="#231f20" d="M951.613-844.133-81.1328 188.613" />
<path transform="matrix(.1,0,0,-.1,369.638,762.29006)" stroke-width="3.6" stroke-linecap="butt" stroke-miterlimit="2.6131" stroke-linejoin="miter" fill="none" stroke="#231f20" d="M969.43-826.313-63.3125 206.43" />
<path transform="matrix(.1,0,0,-.1,369.638,762.29006)" stroke-width="3.6" stroke-linecap="butt" stroke-miterlimit="2.6131" stroke-linejoin="miter" fill="none" stroke="#231f20" d="M987.25-808.492-45.4922 224.25" />
<path transform="matrix(.1,0,0,-.1,369.638,762.29006)" stroke-width="3.6" stroke-linecap="butt" stroke-miterlimit="2.6131" stroke-linejoin="miter" fill="none" stroke="#231f20" d="M1005.07-790.676-27.6758 242.07" />
<path transform="matrix(.1,0,0,-.1,369.638,762.29006)" stroke-width="3.6" stroke-linecap="butt" stroke-miterlimit="2.6131" stroke-linejoin="miter" fill="none" stroke="#231f20" d="M1022.89-772.855-9.85547 259.887" />
<path transform="matrix(.1,0,0,-.1,369.638,762.29006)" stroke-width="3.6" stroke-linecap="butt" stroke-miterlimit="2.6131" stroke-linejoin="miter" fill="none" stroke="#231f20" d="M1040.71-755.035 7.96484 277.707" />
<path transform="matrix(.1,0,0,-.1,369.638,762.29006)" stroke-width="3.6" stroke-linecap="butt" stroke-miterlimit="2.6131" stroke-linejoin="miter" fill="none" stroke="#231f20" d="M1058.53-737.219 25.7813 295.527" />
<path transform="matrix(.1,0,0,-.1,369.638,762.29006)" stroke-width="3.6" stroke-linecap="butt" stroke-miterlimit="2.6131" stroke-linejoin="miter" fill="none" stroke="#231f20" d="M1076.34-719.398 43.6016 313.344" />
<path transform="matrix(.1,0,0,-.1,369.638,762.29006)" stroke-width="3.6" stroke-linecap="butt" stroke-miterlimit="2.6131" stroke-linejoin="miter" fill="none" stroke="#231f20" d="M1094.16-701.578 61.4219 331.164" />
<path transform="matrix(.1,0,0,-.1,369.638,762.29006)" stroke-width="3.6" stroke-linecap="butt" stroke-miterlimit="2.6131" stroke-linejoin="miter" fill="none" stroke="#231f20" d="M1111.98-683.762 79.2383 348.984" />
<path transform="matrix(.1,0,0,-.1,369.638,762.29006)" stroke-width="3.6" stroke-linecap="butt" stroke-miterlimit="2.6131" stroke-linejoin="miter" fill="none" stroke="#231f20" d="M1129.8-665.941 97.0586 366.805" />
<path transform="matrix(.1,0,0,-.1,369.638,762.29006)" stroke-width="3.6" stroke-linecap="butt" stroke-miterlimit="2.6131" stroke-linejoin="miter" fill="none" stroke="#231f20" d="M1147.62-648.121 114.879 384.621" />
<path transform="matrix(.1,0,0,-.1,369.638,762.29006)" stroke-width="3.6" stroke-linecap="butt" stroke-miterlimit="2.6131" stroke-linejoin="miter" fill="none" stroke="#231f20" d="M1165.44-630.305 132.695 402.441" />
<path transform="matrix(.1,0,0,-.1,369.638,762.29006)" stroke-width="3.6" stroke-linecap="butt" stroke-miterlimit="2.6131" stroke-linejoin="miter" fill="none" stroke="#231f20" d="M1183.26-612.484 150.516 420.262" />
<path transform="matrix(.1,0,0,-.1,369.638,762.29006)" stroke-width="3.6" stroke-linecap="butt" stroke-miterlimit="2.6131" stroke-linejoin="miter" fill="none" stroke="#231f20" d="M1201.08-594.664 168.336 438.078" />
<path transform="matrix(.1,0,0,-.1,369.638,762.29006)" stroke-width="3.6" stroke-linecap="butt" stroke-miterlimit="2.6131" stroke-linejoin="miter" fill="none" stroke="#231f20" d="M1218.9-576.844 186.156 455.898" />
<path transform="matrix(.1,0,0,-.1,369.638,762.29006)" stroke-width="3.6" stroke-linecap="butt" stroke-miterlimit="2.6131" stroke-linejoin="miter" fill="none" stroke="#231f20" d="M1236.72-559.027 203.973 473.719" />
<path transform="matrix(.1,0,0,-.1,369.638,762.29006)" stroke-width="3.6" stroke-linecap="butt" stroke-miterlimit="2.6131" stroke-linejoin="miter" fill="none" stroke="#231f20" d="M1254.54-541.207 221.793 491.535" />
<path transform="matrix(.1,0,0,-.1,369.638,762.29006)" stroke-width="3.6" stroke-linecap="butt" stroke-miterlimit="2.6131" stroke-linejoin="miter" fill="none" stroke="#231f20" d="M1272.36-523.387 239.613 509.355" />
<path transform="matrix(.1,0,0,-.1,369.638,762.29006)" stroke-width="3.6" stroke-linecap="butt" stroke-miterlimit="2.6131" stroke-linejoin="miter" fill="none" stroke="#231f20" d="M1290.18-505.57 257.43 527.176" />
<path transform="matrix(.1,0,0,-.1,369.638,762.29006)" stroke-width="3.6" stroke-linecap="butt" stroke-miterlimit="2.6131" stroke-linejoin="miter" fill="none" stroke="#231f20" d="M1307.99-487.75 275.25 544.992" />
<path transform="matrix(.1,0,0,-.1,369.638,762.29006)" stroke-width="3.6" stroke-linecap="butt" stroke-miterlimit="2.6131" stroke-linejoin="miter" fill="none" stroke="#231f20" d="M1325.81-469.93 293.07 562.813" />
<path transform="matrix(.1,0,0,-.1,369.638,762.29006)" stroke-width="3.6" stroke-linecap="butt" stroke-miterlimit="2.6131" stroke-linejoin="miter" fill="none" stroke="#231f20" d="M1343.63-452.113 310.887 580.633" />
<path transform="matrix(.1,0,0,-.1,369.638,762.29006)" stroke-width="3.6" stroke-linecap="butt" stroke-miterlimit="2.6131" stroke-linejoin="miter" fill="none" stroke="#231f20" d="M1361.45-434.293 328.707 598.449" />
<path transform="matrix(.1,0,0,-.1,369.638,762.29006)" stroke-width="3.6" stroke-linecap="butt" stroke-miterlimit="2.6131" stroke-linejoin="miter" fill="none" stroke="#231f20" d="M1379.27-416.473 346.527 616.27" />
<path transform="matrix(.1,0,0,-.1,369.638,762.29006)" stroke-width="3.6" stroke-linecap="butt" stroke-miterlimit="2.6131" stroke-linejoin="miter" fill="none" stroke="#231f20" d="M1397.09-398.656 364.344 634.09" />
<path transform="matrix(.1,0,0,-.1,369.638,762.29006)" stroke-width="3.6" stroke-linecap="butt" stroke-miterlimit="2.6131" stroke-linejoin="miter" fill="none" stroke="#231f20" d="M1414.91-380.836 382.164 651.91" />
<path transform="matrix(.1,0,0,-.1,369.638,762.29006)" stroke-width="3.6" stroke-linecap="butt" stroke-miterlimit="2.6131" stroke-linejoin="miter" fill="none" stroke="#231f20" d="M1432.73-363.016 399.984 669.727" />
<path transform="matrix(.1,0,0,-.1,369.638,762.29006)" stroke-width="3.6" stroke-linecap="butt" stroke-miterlimit="2.6131" stroke-linejoin="miter" fill="none" stroke="#231f20" d="M1450.55-345.199 417.801 687.547" />
<path transform="matrix(.1,0,0,-.1,369.638,762.29006)" stroke-width="3.6" stroke-linecap="butt" stroke-miterlimit="2.6131" stroke-linejoin="miter" fill="none" stroke="#231f20" d="M1468.37-327.379 435.621 705.367" />
<path transform="matrix(.1,0,0,-.1,369.638,762.29006)" stroke-width="3.6" stroke-linecap="butt" stroke-miterlimit="2.6131" stroke-linejoin="miter" fill="none" stroke="#231f20" d="M1486.18-309.559 453.441 723.184" />
<path transform="matrix(.1,0,0,-.1,369.638,762.29006)" stroke-width="3.6" stroke-linecap="butt" stroke-miterlimit="2.6131" stroke-linejoin="miter" fill="none" stroke="#231f20" d="M1504-291.738 471.262 741.004" />
<path transform="matrix(.1,0,0,-.1,369.638,762.29006)" stroke-width="3.6" stroke-linecap="butt" stroke-miterlimit="2.6131" stroke-linejoin="miter" fill="none" stroke="#231f20" d="M1521.82-273.922 489.078 758.824" />
<path transform="matrix(.1,0,0,-.1,369.638,762.29006)" stroke-width="3.6" stroke-linecap="butt" stroke-miterlimit="2.6131" stroke-linejoin="miter" fill="none" stroke="#231f20" d="M1539.64-256.102 506.898 776.641" />
<path transform="matrix(.1,0,0,-.1,369.638,762.29006)" stroke-width="3.6" stroke-linecap="butt" stroke-miterlimit="2.6131" stroke-linejoin="miter" fill="none" stroke="#231f20" d="M1557.46-238.281 524.719 794.461" />
<path transform="matrix(.1,0,0,-.1,369.638,762.29006)" stroke-width="3.6" stroke-linecap="butt" stroke-miterlimit="2.6131" stroke-linejoin="miter" fill="none" stroke="#231f20" d="M1575.28-220.465 542.535 812.281" />
<path transform="matrix(.1,0,0,-.1,369.638,762.29006)" stroke-width="3.6" stroke-linecap="butt" stroke-miterlimit="2.6131" stroke-linejoin="miter" fill="none" stroke="#231f20" d="M1593.1-202.645 560.355 830.098" />
<path transform="matrix(.1,0,0,-.1,369.638,762.29006)" stroke-width="3.6" stroke-linecap="butt" stroke-miterlimit="2.6131" stroke-linejoin="miter" fill="none" stroke="#231f20" d="M1610.92-184.824 578.176 847.918" />
<path transform="matrix(.1,0,0,-.1,369.638,762.29006)" stroke-width="3.6" stroke-linecap="butt" stroke-miterlimit="2.6131" stroke-linejoin="miter" fill="none" stroke="#231f20" d="M1628.74-167.008 595.992 865.738" />
<path transform="matrix(.1,0,0,-.1,369.638,762.29006)" stroke-width="3.6" stroke-linecap="butt" stroke-miterlimit="2.6131" stroke-linejoin="miter" fill="none" stroke="#231f20" d="M1646.55-149.188 613.813 883.555" />
<path transform="matrix(.1,0,0,-.1,369.638,762.29006)" stroke-width="3.6" stroke-linecap="butt" stroke-miterlimit="2.6131" stroke-linejoin="miter" fill="none" stroke="#231f20" d="M1664.38-131.367 631.633 901.375" />
<path transform="matrix(.1,0,0,-.1,369.638,762.29006)" stroke-width="3.6" stroke-linecap="butt" stroke-miterlimit="2.6131" stroke-linejoin="miter" fill="none" stroke="#231f20" d="M1682.2-113.551 649.449 919.195" />
<path transform="matrix(.1,0,0,-.1,369.638,762.29006)" stroke-width="3.6" stroke-linecap="butt" stroke-miterlimit="2.6131" stroke-linejoin="miter" fill="none" stroke="#231f20" d="M1700.01-95.7305 667.27 937.016" />
<path transform="matrix(.1,0,0,-.1,369.638,762.29006)" stroke-width="3.6" stroke-linecap="butt" stroke-miterlimit="2.6131" stroke-linejoin="miter" fill="none" stroke="#231f20" d="M1717.83-77.9102 685.09 954.832" />
<path transform="matrix(.1,0,0,-.1,369.638,762.29006)" stroke-width="3.6" stroke-linecap="butt" stroke-miterlimit="2.6131" stroke-linejoin="miter" fill="none" stroke="#231f20" d="M1735.65-60.0938 702.906 972.652" />
<path transform="matrix(.1,0,0,-.1,369.638,762.29006)" stroke-width="3.6" stroke-linecap="butt" stroke-miterlimit="2.6131" stroke-linejoin="miter" fill="none" stroke="#231f20" d="M1753.47-42.2734 720.727 990.473" />
<path transform="matrix(.1,0,0,-.1,369.638,762.29006)" stroke-width="3.6" stroke-linecap="butt" stroke-miterlimit="2.6131" stroke-linejoin="miter" fill="none" stroke="#231f20" d="M1771.29-24.4531 738.547 1008.29" />
<path transform="matrix(.1,0,0,-.1,369.638,762.29006)" stroke-width="3.6" stroke-linecap="butt" stroke-miterlimit="2.6131" stroke-linejoin="miter" fill="none" stroke="#231f20" d="M1789.11-6.63281 756.367 1026.11" />
<path transform="matrix(.1,0,0,-.1,369.638,762.29006)" stroke-width="3.6" stroke-linecap="butt" stroke-miterlimit="2.6131" stroke-linejoin="miter" fill="none" stroke="#231f20" d="M1806.93 11.1836 774.184 1043.93" />
<path transform="matrix(.1,0,0,-.1,369.638,762.29006)" stroke-width="3.6" stroke-linecap="butt" stroke-miterlimit="2.6131" stroke-linejoin="miter" fill="none" stroke="#231f20" d="M1824.75 29.0039 792.004 1061.75" />
</g>

</svg>