<svg xmlns="http://www.w3.org/2000/svg" xmlns:xlink="http://www.w3.org/1999/xlink" version="1.1" width="315.000" height="87.000" viewBox="141.272 399.300 315.000 87.000">
<defs>
<clipPath id="clip_13">
<path transform="matrix(1,0,0,-1,151.272,476.30003)" d="M0 0H295V67H0Z" clip-rule="evenodd" />
</clipPath>

<path id="font_14_5" d="M.3939972 .37998963C.38598634 .37998963 .3789978 .37998963 .37199403 .3789978 .36499024 .37799073 .35699464 .37298585 .34999085 .3659973 .34199525 .35899354 .33699037 .35099793 .33499146 .34399415 .33299256 .33599855 .33198548 .32998658 .33198548 .32699586 .33198548 .31498719 .33599855 .30599977 .34399415 .30099488 .35099793 .29499818 .3600006 .2919922 .36898805 .2919922 .38398744 .2919922 .39698792 .2979889 .4079895 .30899049 .4189911 .31999208 .4249878 .33599855 .4249878 .35598756 .4249878 .3809967 .4139862 .40098573 .3929901 .41799928 .37199403 .43399049 .34298707 .44198609 .30699159 .44198609 .272995 .44198609 .23999024 .43399049 .20799256 .41799928 .17599488 .40098573 .147995 .37998963 .12298584 .35299684 .09799194 .32598878 .07798767 .29599 .06298828 .2619934 .04899597 .22799683 .040985109 .19299317 .040985109 .1579895 .040985109 .1349945 .04399109 .11399841 .050994874 .09399414 .057998659 .07299805 .067993167 .054992677 .08198547 .039993287 .09599304 .023986817 .11199951 .011993408 .13198853 .0029907227 .1519928-.007003784 .1749878-.011001587 .20098877-.011001587 .23699951-.011001587 .2689972-.006011963 .29699708 .005996704 .32499696 .016998291 .34899903 .0289917 .36799623 .042999269 .3869934 .056991579 .4019928 .069992069 .41299439 .08299255 .4229889 .09599304 .42799378 .10398865 .42799378 .10699463 .42799378 .10998535 .4269867 .11299133 .4249878 .115997318 .42199708 .11898804 .4189911 .11999512 .41600038 .11999512 .41299439 .11999512 .41099549 .11898804 .4099884 .117996219 .40899659 .116989139 .4059906 .11399841 .40299989 .10998535 .3829956 .084991458 .3619995 .06599426 .33999635 .052993776 .31799317 .039993287 .29699708 .02999878 .27799989 .023986817 .25898744 .016998291 .24198914 .01399231 .22799683 .0129852299 .21398926 .011993408 .20599365 .010986328 .20298767 .010986328 .17199707 .010986328 .14898682 .021987915 .1349945 .042999269 .11999512 .06399536 .11299133 .08999634 .11299133 .11999512 .11299133 .12998963 .11399841 .14299011 .116989139 .1599884 .11898804 .17599488 .12199402 .19299317 .1269989 .21199036 .13198853 .23098755 .13699341 .25 .14399719 .2689972 .15098572 .28799439 .1579895 .30499269 .16699219 .31999208 .18199158 .34899903 .20298767 .37298585 .22799683 .3919983 .25299073 .41099549 .27999879 .41999818 .30799867 .41999818 .32499696 .41999818 .34199525 .4169922 .35899354 .4099884 .375 .40299989 .3869934 .3929901 .3939972 .37998963Z" />

<path id="font_15_2" d="M.2939911 .6399994C.2939911 .6519928 .29299928 .6589966 .29100038 .6619873 .2889862 .6649933 .28199769 .66600039 .2709961 .66600039 .2559967 .6499939 .23899842 .6380005 .22099304 .6289978 .20298767 .6199951 .18598938 .6139984 .16899109 .6100006 .1519928 .60598757 .13598633 .60398867 .12199402 .6029968 .10798645 .60198977 .09700012 .60198977 .08898926 .60198977V.57099917C.09399414 .57099917 .100997928 .57099917 .11099243 .57199099 .11999512 .57199099 .1309967 .57299807 .14299011 .57499697 .1539917 .57598879 .16699219 .57899478 .17999268 .58200076 .19299317 .58499148 .20698548 .58999636 .21998596 .5970001V.07899475C.21998596 .069992069 .21899414 .06199646 .21798706 .055999757 .21699524 .049987794 .21299744 .04499817 .20698548 .041992189 .20098877 .037994386 .19198609 .034988405 .17999268 .033996583 .16699219 .03199768 .1499939 .0309906 .1269989 .0309906H.09498596V0C.10398865 .0009918213 .114990238 .0009918213 .12998963 .0019989014 .14399719 .0019989014 .15899658 .0019989014 .17399597 .0029907227 .18899536 .0029907227 .20399475 .0029907227 .21899414 .0029907227 .23399353 .0029907227 .24699402 .0029907227 .25698854 .0029907227 .2669983 .0029907227 .2789917 .0029907227 .2939911 .0029907227 .30899049 .0029907227 .32499696 .0029907227 .33999635 .0029907227 .35499574 .0019989014 .36999513 .0019989014 .3849945 .0019989014 .39898683 .0009918213 .4099884 .0009918213 .4189911 0V.0309906H.3869934C.3639984 .0309906 .34700013 .03199768 .33499146 .033996583 .32199098 .034988405 .31298829 .037994386 .30699159 .041992189 .30099488 .04499817 .29699708 .049987794 .29599 .055999757 .29499818 .06199646 .2939911 .069992069 .2939911 .07899475V.6399994Z" />

<path id="font_14_6" d="M.08799744 .05899048C.08699036 .051986696 .084991458 .042999269 .08299255 .033996583 .07998657 .024993897 .07899475 .018997193 .07899475 .015991211 .07899475 .0069885256 .08198547 0 .08799744-.005004883 .09399414-.009002686 .100997928-.011001587 .10798645-.011001587 .11399841-.011001587 .12098694-.009002686 .1289978-.005004883 .13598633 0 .14199829 .0069885256 .14498902 .016998291 .14498902 .017990113 .1459961 .020996094 .147995 .025985718 .14898682 .0309906 .15098572 .037994386 .15299988 .04598999 .15499878 .052993776 .15699768 .06098938 .15899658 .069992069 .16099549 .07798767 .16299439 .084991458 .1639862 .09098816 .16699219 .10598755 .17098999 .12098694 .1749878 .13598633 .1789856 .15098572 .18299866 .1659851 .18598938 .18099976 .18899536 .19198609 .19198609 .20399475 .19499207 .21499634 .19799805 .22599793 .19999695 .23699951 .20298767 .24798584 .20498657 .25698854 .20799256 .2669983 .21099854 .27799989 .21398926 .2889862 .21499634 .29599 .21598816 .2979889 .21998596 .30599977 .22599793 .31698609 .23498535 .33099366 .24299622 .34399415 .2539978 .35798646 .2679901 .37098695 .2809906 .38398744 .29699708 .3959961 .31599427 .4059906 .33399964 .4149933 .35499574 .41999818 .3789978 .41999818 .3899994 .41999818 .3999939 .41799928 .40699769 .4139862 .4139862 .40899659 .4189911 .4039917 .4229889 .39698792 .4269867 .3899994 .42999269 .3829956 .43099977 .375 .43199159 .3659973 .43299867 .35798646 .43299867 .34999085 .43299867 .33699037 .43199159 .32398988 .42900086 .31098939 .42599488 .29699708 .42199708 .28199769 .41799928 .2669983 .4149933 .2539978 .4119873 .24299622 .4099884 .23399353 .4079895 .22399903 .4059906 .21499634 .4039917 .20698548 .4019928 .19799805 .3999939 .18998719 .397995 .18099976 .394989 .17199707 .3929901 .1619873 .3899994 .15098572 .3869934 .14199829 .3849945 .13398743 .38398744 .12799073 .3829956 .12199402 .3809967 .116989139 .37998963 .11199951 .3789978 .10699463 .3769989 .100997928 .37599183 .09599304 .37399293 .08999634 .37199403 .08299255 .36999513 .07499695 .36898805 .069992069 .36698915 .06399536 .3659973 .057998659 .36499024 .051986696 .36299134 .04598999 .3619995 .039993287 .36099244 .033996583 .3600006 .0289917 .35899354 .024993897 .35798646 .019989014 .35699464 .016998291 .35699464 .015991211 .35699464 .0069885256 .3600006 0 .3659973-.005004883 .37199403-.009002686 .3789978-.011001587 .38598634-.011001587 .40098573-.011001587 .4119873-.006011963 .4169922 .005996704 .42199708 .016998291 .4269867 .02999878 .43099977 .04598999 .43399049 .05999756 .43899537 .07899475 .44499208 .101989749 .45098878 .125 .45700074 .14898682 .46299745 .17298889 .46899415 .19699097 .47499085 .21998596 .47999574 .24099732 .4850006 .2619934 .4889984 .2769928 .4909973 .2869873 .49198915 .2899933 .49598695 .29899598 .5029907 .31399537 .5099945 .32798768 .519989 .34298707 .5339966 .35899354 .5469971 .37399293 .56399539 .3880005 .58499148 .40098573 .6049957 .4139862 .6289978 .41999818 .6559906 .41999818 .6769867 .41999818 .69200137 .41299439 .69898989 .39898683 .70599368 .38398744 .70999148 .36799623 .70999148 .34999085 .70999148 .33599855 .70799258 .31900025 .7029877 .29899598 .69799807 .27799989 .69299319 .2579956 .68699648 .23699951 .6799927 .21598816 .6729889 .19499207 .66600039 .17599488 .6589966 .1559906 .6529999 .13899231 .647995 .12599182 .6429901 .11399841 .6399994 .10398865 .6380005 .09700012 .6359863 .08999634 .6349945 .08099365 .6349945 .070999149 .6349945 .04798889 .6429901 .027999878 .6589966 .0129852299 .673996-.0030059815 .69400027-.011001587 .71699526-.011001587 .73999026-.011001587 .7599945-.0030059815 .7769928 .011993408 .7939911 .026992798 .8069916 .04399109 .81799319 .06298828 .8279877 .08198547 .83599856 .09899902 .84098818 .115997318 .84599307 .13198853 .84799197 .14099121 .84799197 .14299011 .84799197 .147995 .84599307 .15098572 .84298709 .1519928 .83999636 .15299988 .83699038 .15299988 .83599856 .15299988 .83099368 .15299988 .8279877 .1519928 .82699587 .1499939 .82598879 .14698792 .82398989 .14199829 .82099917 .1349945 .81700137 .12199402 .81199648 .10798645 .8069916 .09298706 .8009949 .07798767 .7939911 .06498718 .7849884 .052993776 .776001 .040985109 .7669983 .0309906 .7559967 .022994996 .7449951 .01499939 .73298647 .010986328 .71899417 .010986328 .7029877 .010986328 .69499209 .021987915 .69499209 .04399109 .69499209 .056991579 .69699099 .068984989 .70098879 .08099365 .70399478 .09199524 .70799258 .10398865 .71299746 .114990238 .71798709 .12799073 .723999 .14399719 .73098757 .16299439 .73799136 .18199158 .74398806 .20199585 .7509918 .22299195 .7569885 .24398804 .7619934 .2639923 .7669983 .28399659 .7719879 .3039856 .7739868 .32099916 .7739868 .33499146 .7739868 .36799623 .7639923 .3939972 .7449951 .41299439 .7259979 .43199159 .69699099 .44198609 .6589966 .44198609 .62098696 .44198609 .58898928 .43299867 .5629883 .4139862 .5369873 .394989 .5149994 .37199403 .49598695 .34498597 .49499513 .35198976 .49299623 .3619995 .48999024 .3769989 .4869995 .3909912 .47799684 .4039917 .46398927 .41600038 .45098878 .4269867 .43798829 .43399049 .4229889 .43699647 .4079895 .43998719 .394989 .44198609 .38198854 .44198609 .35899354 .44198609 .33898927 .43899537 .32199098 .43199159 .30499269 .4249878 .2899933 .41600038 .2769928 .40699769 .2639923 .397995 .25299073 .3880005 .24499512 .3789978 .23599243 .36898805 .22999573 .36099244 .22599793 .35499574 .22299195 .38398744 .21299744 .40499879 .19499207 .41999818 .1769867 .43499757 .15699768 .44198609 .13398743 .44198609 .12298584 .44198609 .11299133 .43998719 .10499573 .43598939 .09599304 .43099977 .08898926 .42599488 .08299255 .41999818 .07699585 .4139862 .07199097 .4079895 .068984989 .4019928 .06498718 .394989 .06199646 .3899994 .05999756 .3849945 .054992677 .37599183 .050994874 .36698915 .04798889 .35598756 .04399109 .34498597 .040985109 .33399964 .037994386 .32499696 .034988405 .31498719 .032989503 .30699159 .03199768 .2999878 .02999878 .29299928 .0289917 .2889862 .0289917 .28799439 .0289917 .2829895 .0309906 .27999879 .033996583 .2789917 .036987306 .27799989 .039993287 .27799989 .040985109 .27799989 .04598999 .27799989 .049987794 .2789917 .050994874 .2809906 .051986696 .2829895 .054992677 .2899933 .057998659 .30099488 .066986087 .33699037 .07699585 .3659973 .08799744 .3880005 .09899902 .40899659 .11299133 .41999818 .1309967 .41999818 .13899231 .41999818 .1459961 .4169922 .15299988 .4119873 .15899658 .4059906 .1619873 .3929901 .1619873 .37399293 .1619873 .36898805 .1619873 .3639984 .1619873 .3600006 .16099549 .35499574 .1599884 .34999085 .15899658 .34399415 .1579895 .33799745 .1559906 .33099366 .1539917 .32199098 .1519928 .31298829 .14898682 .30299378 .1459961 .2899933L.08799744 .05899048Z" />

<path id="font_15_3" d="M.44699098 .17399597H.42199708C.42099 .16699219 .4189911 .15899658 .41799928 .1499939 .4169922 .14099121 .4149933 .13198853 .41299439 .12399292 .41099549 .114990238 .40899659 .10798645 .40699769 .100997928 .40499879 .09399414 .40299989 .08898926 .3999939 .084991458 .397995 .08299255 .3929901 .08198547 .3849945 .08099365 .3769989 .07998657 .36799623 .07899475 .35798646 .07798767 .34799195 .07699585 .33799745 .07699585 .32798768 .07699585 .31799317 .07699585 .30999757 .07699585 .30499269 .07699585H.125L.23098755 .17999268C.269989 .21499634 .30299378 .24499512 .33099366 .269989 .35798646 .29499818 .3809967 .31900025 .397995 .34098817 .4149933 .3619995 .4269867 .3829956 .43499757 .4039917 .44299317 .42399598 .44699098 .44699098 .44699098 .47200013 .44699098 .5009918 .44198609 .5269928 .43099977 .5509949 .42099 .57398989 .4059906 .59498599 .3869934 .6119995 .36799623 .6289978 .34599305 .6419983 .31999208 .6519928 .29499818 .6609955 .2669983 .66600039 .23599243 .66600039 .20799256 .66600039 .18299866 .6609955 .1599884 .6499939 .13699341 .6389923 .117996219 .6259918 .100997928 .60899356 .084991458 .59199526 .07199097 .57199099 .06399536 .5509949 .054992677 .5289917 .049987794 .5069885 .049987794 .4850006 .049987794 .47099305 .052993776 .45999146 .057998659 .45298768 .06298828 .44499208 .068984989 .43899537 .07598877 .43598939 .08198547 .43299867 .08799744 .43099977 .09399414 .42999269 .09899902 .42900086 .101989749 .42900086 .102996829 .42900086 .10699463 .42900086 .11199951 .42999269 .117996219 .43199159 .12399292 .43299867 .12998963 .43598939 .13598633 .43998719 .14099121 .44400025 .1459961 .44999696 .1499939 .45700074 .15299988 .46398927 .15499878 .47200013 .15499878 .48199464 .15499878 .49499513 .15098572 .5069885 .14199829 .5179901 .1329956 .5289917 .11898804 .5339966 .101989749 .5339966 .09498596 .5339966 .09098816 .5339966 .08898926 .5329895 .099990848 .56599429 .117996219 .59098818 .14299011 .60899356 .16799927 .6259918 .19499207 .6349945 .22399903 .6349945 .24699402 .6349945 .2669983 .6299896 .28399659 .62098696 .30099488 .6119995 .31498719 .598999 .32598878 .58399966 .33699037 .56900027 .34498597 .5509949 .34999085 .5319977 .35499574 .5130005 .35798646 .49299623 .35798646 .47200013 .35798646 .45199586 .35499574 .43199159 .34999085 .41299439 .34399415 .3929901 .33599855 .37399293 .32699586 .35499574 .31698609 .33599855 .30599977 .31799317 .29299928 .30099488 .27999879 .2829895 .2669983 .2659912 .25299073 .25099183L.06098938 .036987306C.055999757 .03199768 .052993776 .026992798 .051986696 .023986817 .050994874 .019989014 .049987794 .011993408 .049987794 0H.4189911L.44699098 .17399597Z" />

<path id="font_14_1" d="M.08799744 .05899048C.08699036 .051986696 .084991458 .042999269 .08299255 .033996583 .07998657 .024993897 .07899475 .018997193 .07899475 .015991211 .07899475 .0069885256 .08198547 0 .08799744-.005004883 .09399414-.009002686 .100997928-.011001587 .10798645-.011001587 .11399841-.011001587 .12098694-.009002686 .1289978-.005004883 .13598633 0 .14199829 .0069885256 .14498902 .016998291 .14498902 .017990113 .1459961 .020996094 .147995 .025985718 .14898682 .0309906 .15098572 .037994386 .15299988 .04598999 .15499878 .052993776 .15699768 .06098938 .15899658 .069992069 .16099549 .07798767 .16299439 .084991458 .1639862 .09098816 .16699219 .10598755 .17098999 .12098694 .1749878 .13598633 .1789856 .15098572 .18299866 .1659851 .18598938 .18099976 .18899536 .19198609 .19198609 .20399475 .19499207 .21499634 .19799805 .22599793 .19999695 .23699951 .20298767 .24798584 .20498657 .25698854 .20799256 .2669983 .21099854 .27799989 .21398926 .2889862 .21499634 .29599 .21598816 .2979889 .21998596 .30599977 .22599793 .31698609 .23498535 .33099366 .24299622 .34399415 .2539978 .35798646 .2679901 .37098695 .2809906 .38398744 .29699708 .3959961 .31599427 .4059906 .33399964 .4149933 .35499574 .41999818 .3789978 .41999818 .3899994 .41999818 .3999939 .41799928 .40699769 .4139862 .4139862 .40899659 .4189911 .4039917 .4229889 .39698792 .4269867 .3899994 .42999269 .3829956 .43099977 .375 .43199159 .3659973 .43299867 .35798646 .43299867 .34999085 .43299867 .33499146 .42999269 .31599427 .4249878 .2939911 .41999818 .2709961 .4139862 .24899292 .40699769 .22698975 .3999939 .20399475 .3919983 .18299866 .3849945 .16299439 .37799073 .14299011 .37199403 .12799073 .36799623 .116989139 .36299134 .10598755 .36099244 .09700012 .3600006 .08999634 .35899354 .08299255 .35798646 .07598877 .35798646 .070999149 .35798646 .04798889 .3659973 .027999878 .38198854 .0129852299 .39698792-.0030059815 .4169922-.011001587 .43998719-.011001587 .46299745-.011001587 .48298646-.0030059815 .5 .011993408 .5169983 .026992798 .5299988 .04399109 .54100039 .06298828 .5509949 .08198547 .5589905 .09899902 .56399539 .115997318 .56900027 .13198853 .57099917 .14099121 .57099917 .14299011 .57099917 .147995 .56900027 .15098572 .56599429 .1519928 .5629883 .15299988 .55999758 .15299988 .5589905 .15299988 .55400088 .15299988 .5509949 .1519928 .5499878 .1499939 .548996 .14698792 .5469971 .14199829 .5439911 .1349945 .5339966 .100997928 .5209961 .07199097 .5039978 .04798889 .4869995 .022994996 .46699525 .010986328 .44198609 .010986328 .42599488 .010986328 .41799928 .021987915 .41799928 .04399109 .41799928 .056991579 .41999818 .068984989 .42399598 .08099365 .4269867 .09199524 .43099977 .10398865 .43598939 .114990238 .44099427 .12799073 .44699098 .14498902 .45399476 .1639862 .46099855 .18299866 .46699525 .20298767 .47399903 .22399903 .47999574 .24398804 .4850006 .2639923 .48999024 .28399659 .49499513 .3039856 .49699403 .32099916 .49699403 .33499146 .49699403 .36898805 .4869995 .394989 .46699525 .4139862 .44599916 .43299867 .41799928 .44198609 .38198854 .44198609 .35899354 .44198609 .33898927 .43899537 .32199098 .43199159 .30499269 .4249878 .2899933 .41600038 .2769928 .40699769 .2639923 .397995 .25299073 .3880005 .24499512 .3789978 .23599243 .36898805 .22999573 .36099244 .22599793 .35499574 .22299195 .3829956 .21299744 .40499879 .19599915 .41999818 .17799378 .43499757 .15699768 .44198609 .13398743 .44198609 .12298584 .44198609 .11299133 .43998719 .10499573 .43598939 .09599304 .43099977 .08898926 .42599488 .08299255 .41999818 .07699585 .4139862 .07199097 .4079895 .068984989 .4019928 .06498718 .394989 .06199646 .3899994 .05899048 .3849945 .054992677 .37599183 .050994874 .36698915 .04798889 .35598756 .04399109 .34498597 .040985109 .33499146 .037994386 .32598878 .034988405 .31599427 .032989503 .30699159 .03199768 .2999878 .02999878 .29299928 .0289917 .2889862 .0289917 .28799439 .0289917 .2829895 .0309906 .27999879 .033996583 .2789917 .036987306 .27799989 .039993287 .27799989 .040985109 .27799989 .04598999 .27799989 .049987794 .2789917 .050994874 .2809906 .051986696 .2829895 .054992677 .2899933 .057998659 .30099488 .066986087 .33699037 .07699585 .3659973 .08799744 .3880005 .09899902 .40899659 .11299133 .41999818 .1309967 .41999818 .14099121 .41999818 .14898682 .4169922 .1539917 .4099884 .15899658 .40299989 .1619873 .3909912 .1619873 .37399293 .1619873 .36898805 .1619873 .3639984 .1619873 .3600006 .16099549 .35499574 .1599884 .34999085 .15899658 .34399415 .1579895 .33799745 .1559906 .33099366 .1539917 .32199098 .1519928 .31298829 .14898682 .30299378 .1459961 .2899933L.08799744 .05899048Z" />

<path id="font_15_1" d="M.49899293 .25498963V.2769928H0V.25498963H.49899293Z" />

<path id="font_14_2" d="M.45199586 .43099977C.45199586 .43299867 .45098878 .43499757 .44999696 .43798829 .44799806 .43998719 .44499208 .44099427 .44198609 .44099427 .43899537 .44099427 .43499757 .43899537 .42900086 .43499757 .4229889 .42999269 .4169922 .4249878 .4099884 .41799928 .40299989 .41099549 .39698792 .40299989 .3899994 .394989 .3829956 .3869934 .37799073 .3789978 .37399293 .37199403 .36299134 .39898683 .34799195 .41799928 .33099366 .42799378 .31399537 .43699647 .29699708 .44198609 .2809906 .44198609 .2519989 .44198609 .22299195 .43399049 .19400025 .4169922 .16499329 .3999939 .13899231 .3769989 .115997318 .34999085 .09298706 .32299806 .07499695 .29100038 .06098938 .2559967 .04699707 .22099304 .039993287 .18499756 .039993287 .14898682 .039993287 .12399292 .04399109 .101989749 .050994874 .08299255 .057998659 .06298828 .066986087 .04598999 .07899475 .03199768 .09098816 .017990113 .10499573 .0069885256 .12098694 0 .13699341-.007003784 .1539917-.011001587 .17199707-.011001587 .19299317-.011001587 .21398926-.006011963 .23399353 .005996704 .25299073 .016998291 .27198792 .0309906 .2899933 .04899597 .28799439 .039993287 .2849884 .026992798 .27999879 .0079956059 .2749939-.012008667 .2709961-.03100586 .2659912-.05101013 .26098634-.070007327 .2559967-.088012699 .2519989-.104003909 .24798584-.119003299 .24598694-.12800598 .24499512-.13000489 .24299622-.13700867 .24099732-.14300537 .23799134-.14700318 .23498535-.15100098 .23199463-.15400696 .22698975-.15701294 .22200012-.15901184 .21499634-.16101074 .20698548-.16200257 .19799805-.16300965 .18699646-.16300965 .17298889-.16300965 .1659851-.16300965 .16099549-.16400147 .15699768-.16600037 .1519928-.16700745 .1499939-.17300415 .1499939-.18301392 .1499939-.18400574 .15098572-.18600464 .1519928-.18901062 .15299988-.19200135 .1559906-.1940155 .16299439-.1940155 .1789856-.1940155 .19599915-.1940155 .21299744-.19300843 .22999573-.19200135 .24598694-.19100952 .2630005-.19100952 .27999879-.19100952 .2979889-.19200135 .31498719-.19300843 .33198548-.1940155 .34899903-.1940155 .3659973-.1940155 .36898805-.1940155 .37199403-.19300843 .3769989-.19200135 .38198854-.19000244 .38398744-.18400574 .38398744-.17401123 .38398744-.16900635 .38198854-.16600037 .3769989-.16500855 .37199403-.16400147 .3659973-.16300965 .35798646-.16300965 .34599305-.16300965 .33699037-.16300965 .32998658-.16200257 .32299806-.16101074 .31900025-.16000366 .31599427-.15901184 .31298829-.15701294 .31098939-.15501404 .31098939-.15301514 .30999757-.15100098 .30999757-.14900208 .30999757-.14700318 .30999757-.14401245 .30999757-.14001465 .31098939-.13700867 .31199647-.13400269 .31298829-.13000489 .31399537-.12501526L.45199586 .43099977M.17599488 .010986328C.16099549 .010986328 .14898682 .01499939 .14099121 .023986817 .13198853 .03199768 .12599182 .040985109 .12199402 .051986696 .116989139 .06298828 .114990238 .07299805 .11399841 .083999637 .11299133 .09399414 .11199951 .100997928 .11199951 .10499573 .11199951 .116989139 .11399841 .13198853 .116989139 .15098572 .11999512 .16899109 .12399292 .18798828 .1289978 .20698548 .13398743 .22599793 .13899231 .24499512 .14399719 .2619934 .14898682 .2789917 .1539917 .29299928 .1579895 .3039856 .17298889 .34098817 .19299317 .36999513 .21598816 .3899994 .23899842 .4099884 .26098634 .41999818 .28199769 .41999818 .2979889 .41999818 .31098939 .41600038 .32199098 .40699769 .33198548 .397995 .33999635 .3889923 .34599305 .3789978 .35198976 .36799623 .35598756 .35798646 .35798646 .34899903 .3600006 .33999635 .36099244 .33399964 .36099244 .33198548 .36099244 .33099366 .3600006 .32398988 .35699464 .31298829 .35398866 .3019867 .35099793 .28799439 .34700013 .2709961 .34199525 .2539978 .33799745 .23599243 .33299256 .21699524 .32798768 .19799805 .32398988 .17999268 .31999208 .16299439 .31498719 .1459961 .31199647 .13198853 .30899049 .12098694 .30599977 .10998535 .3039856 .10398865 .30299378 .102996829 .29899598 .09599304 .29299928 .08699036 .2849884 .07699585 .27598573 .06599426 .2659912 .055999757 .25498963 .04699707 .24398804 .036987306 .23098755 .0289917 .21798706 .021987915 .20399475 .01499939 .18998719 .010986328 .17599488 .010986328Z" />

<path id="font_14_3" d="M.33399964 .3019867C.33499146 .30899049 .33799745 .31900025 .34199525 .33198548 .34599305 .34498597 .35198976 .35798646 .3600006 .37098695 .36698915 .38398744 .3769989 .394989 .3889923 .40499879 .40098573 .4149933 .41600038 .41999818 .43299867 .41999818 .43598939 .41999818 .44198609 .41999818 .45199586 .4189911 .46199037 .41799928 .47200013 .4139862 .48298646 .40699769 .46899415 .4039917 .45799256 .397995 .44898988 .3869934 .43998719 .37599183 .43499757 .36499024 .43499757 .35299684 .43499757 .34498597 .43798829 .33699037 .44400025 .32998658 .44999696 .32199098 .45999146 .31799317 .47299195 .31799317 .47799684 .31799317 .48399354 .31900025 .4909973 .32199098 .49699403 .32398988 .5029907 .32699586 .5079956 .33198548 .5130005 .33699037 .5179901 .34298707 .5219879 .34999085 .5249939 .35699464 .5269928 .3659973 .5269928 .37599183 .5269928 .3889923 .5239868 .39898683 .5169983 .4079895 .5099945 .4169922 .5019989 .42399598 .49299623 .42900086 .48399354 .43399049 .47399903 .43699647 .46299745 .43899537 .45199586 .44099427 .44299317 .44198609 .43399049 .44198609 .4189911 .44198609 .4059906 .43899537 .394989 .43399049 .3829956 .42799378 .37298585 .42099 .3639984 .41299439 .35499574 .40499879 .34799195 .39698792 .34199525 .3880005 .33599855 .3789978 .33198548 .37199403 .32899476 .3659973 .32299806 .3829956 .31498719 .3959961 .30599977 .4059906 .29699708 .41600038 .2869873 .42399598 .2769928 .42900086 .2659912 .43399049 .2559967 .43798829 .24699402 .43998719 .23699951 .44099427 .22799683 .44198609 .22099304 .44198609 .19499207 .44198609 .17199707 .43499757 .1519928 .42199708 .13198853 .4079895 .114990238 .3919983 .101989749 .375 .08799744 .35699464 .07798767 .33999635 .070999149 .32299806 .06399536 .30599977 .05999756 .2939911 .05999756 .28799439 .05999756 .2829895 .06199646 .27999879 .06498718 .2789917 .067993167 .27799989 .070999149 .27799989 .07199097 .27799989 .07899475 .27799989 .083999637 .28199769 .084991458 .2889862 .09399414 .31599427 .10398865 .33799745 .115997318 .35499574 .1269989 .37199403 .13899231 .3849945 .1519928 .394989 .16499329 .4039917 .1769867 .41099549 .18899536 .4149933 .19999695 .41799928 .20999146 .41999818 .21899414 .41999818 .22399903 .41999818 .22898865 .4189911 .23599243 .41799928 .24198914 .41600038 .24798584 .41299439 .25299073 .4079895 .2579956 .40299989 .2630005 .39698792 .2669983 .3880005 .2709961 .3789978 .272995 .36799623 .272995 .35299684 .272995 .33799745 .2689972 .31199647 .2599945 .2749939 .25099183 .23799134 .23799134 .18499756 .21899414 .114990238 .21099854 .083999637 .19898987 .05899048 .18199158 .039993287 .16499329 .020996094 .1459961 .010986328 .12399292 .010986328 .12098694 .010986328 .11399841 .011993408 .10499573 .0129852299 .09498596 .01399231 .084991458 .016998291 .07398987 .023986817 .08699036 .026992798 .09799194 .032989503 .10699463 .042999269 .115997318 .051986696 .12098694 .06399536 .12098694 .07798767 .12098694 .09098816 .116989139 .100997928 .10798645 .10598755 .09899902 .11099243 .09098816 .11299133 .083999637 .11299133 .068984989 .11299133 .055999757 .10699463 .04499817 .09599304 .033996583 .084991458 .0289917 .070999149 .0289917 .054992677 .0289917 .04399109 .03199768 .033996583 .037994386 .025985718 .042999269 .016998291 .050994874 .009994507 .05999756 .004989624 .068984989 0 .07899475-.0040130617 .08999634-.007003784 .100997928-.010009766 .11199951-.011001587 .12298584-.011001587 .13999939-.011001587 .1539917-.007003784 .16699219 0 .17999268 .0069885256 .18998719 .015991211 .19898987 .024993897 .20799256 .033996583 .21499634 .041992189 .21998596 .050994874 .22499085 .05899048 .22698975 .06399536 .22799683 .06498718 .23399353 .04598999 .24598694 .0289917 .2639923 .0129852299 .28199769-.0030059815 .30599977-.011001587 .33599855-.011001587 .3619995-.011001587 .3849945-.0040130617 .40499879 .009994507 .42399598 .022994996 .44099427 .038986207 .45498658 .056991579 .46798707 .07398987 .47898866 .09199524 .48599244 .10899353 .49299623 .12599182 .49598695 .13699341 .49598695 .14299011 .49598695 .147995 .49398805 .15098572 .4909973 .1519928 .48799134 .15299988 .4850006 .15299988 .48399354 .15299988 .47898866 .15299988 .47599793 .1519928 .47499085 .1499939 .47399903 .147995 .47200013 .14498902 .47099305 .14199829 .46299745 .114990238 .45298768 .09399414 .44099427 .07699585 .42900086 .05999756 .4169922 .04598999 .4039917 .036987306 .3909912 .026992798 .3789978 .019989014 .36799623 .016998291 .35598756 .0129852299 .34599305 .010986328 .33799745 .010986328 .31900025 .010986328 .30499269 .017990113 .29599 .0309906 .2869873 .04399109 .2829895 .05999756 .2829895 .07699585 .2829895 .08799744 .2849884 .099990848 .28799439 .11299133 .29100038 .12599182 .29499818 .14299011 .2999878 .16499329L.33399964 .3019867Z" />

<path id="font_14_4" d="M.48599244 .3809967C.48799134 .3880005 .4889984 .3929901 .48999024 .3959961 .48999024 .397995 .48999024 .40098573 .48999024 .4039917 .48999024 .41299439 .4869995 .41999818 .48098756 .4249878 .47499085 .42900086 .46798707 .43099977 .46099855 .43099977 .45599366 .43099977 .44999696 .42900086 .44299317 .42599488 .43598939 .4229889 .43099977 .4169922 .42599488 .4099884 .4249878 .40699769 .4229889 .3999939 .41999818 .3880005 .4169922 .37599183 .4139862 .36499024 .4119873 .35598756 .40899659 .34298707 .40499879 .32899476 .4019928 .31599427 .39898683 .30299378 .394989 .2889862 .3919983 .27598573L.34700013 .09599304C.34599305 .09199524 .34199525 .084991458 .33699037 .07598877 .33099366 .066986087 .32299806 .056991579 .31399537 .04798889 .3039856 .037994386 .2919922 .0289917 .2789917 .021987915 .2659912 .01499939 .25099183 .010986328 .23399353 .010986328 .22099304 .010986328 .21099854 .01399231 .20298767 .018997193 .19499207 .023986817 .18899536 .02999878 .18399048 .037994386 .1789856 .04499817 .17599488 .053985597 .1749878 .06399536 .17298889 .07299805 .17199707 .08299255 .17199707 .09199524 .17199707 .114990238 .17599488 .14299011 .18499756 .1749878 .19299317 .20599365 .20599365 .24398804 .22299195 .28799439 .22698975 .2979889 .22999573 .30699159 .23298645 .31399537 .23599243 .32099916 .23799134 .32699586 .23899842 .33198548 .23999024 .33699037 .24099732 .34199525 .24198914 .34599305 .24299622 .34999085 .24299622 .35499574 .24299622 .3600006 .24299622 .3829956 .23599243 .4019928 .22099304 .41799928 .20599365 .43399049 .18598938 .44198609 .16099549 .44198609 .14498902 .44198609 .1309967 .43798829 .117996219 .43099977 .10499573 .42399598 .09399414 .4149933 .084991458 .4039917 .07499695 .3929901 .066986087 .38198854 .05999756 .36898805 .052993776 .35598756 .04699707 .34298707 .041992189 .33198548 .036987306 .32099916 .033996583 .31098939 .03199768 .30299378 .02999878 .2939911 .0289917 .2889862 .0289917 .28799439 .0289917 .2829895 .0309906 .27999879 .033996583 .2789917 .036987306 .27799989 .039993287 .27799989 .040985109 .27799989 .04598999 .27799989 .049987794 .2789917 .050994874 .2809906 .051986696 .2829895 .053985597 .28799439 .056991579 .29599 .069992069 .34298707 .085998538 .375 .10499573 .3929901 .12298584 .41099549 .14099121 .41999818 .1579895 .41999818 .1619873 .41999818 .16699219 .4189911 .17399597 .41600038 .17999268 .41299439 .18299866 .4039917 .18299866 .3880005 .18299866 .375 .18099976 .36299134 .1769867 .35099793 .17298889 .33799745 .16899109 .32699586 .1659851 .31799317 .1559906 .29100038 .14698792 .2679901 .13999939 .24699402 .1329956 .22599793 .1269989 .20799256 .12199402 .19099427 .116989139 .17399597 .11399841 .15899658 .11199951 .1459961 .10899353 .1329956 .10798645 .11999512 .10798645 .10798645 .10798645 .085998538 .11199951 .066986087 .11898804 .051986696 .12599182 .036987306 .13598633 .023986817 .14698792 .01499939 .1579895 .005996704 .17098999-.0010070801 .18598938-.005004883 .20098877-.009002686 .21499634-.011001587 .22999573-.011001587 .24899292-.011001587 .2679901-.007003784 .2849884 .0009918213 .3019867 .008987427 .31698609 .019989014 .33099366 .033996583 .32398988 .0079956059 .31698609-.018005372 .30899049-.043014528 .2999878-.06800842 .28599549-.09300232 .2659912-.120010379 .25299073-.13700867 .23699951-.15200806 .21899414-.16500855 .19999695-.17700196 .1789856-.18301392 .1559906-.18301392 .15299988-.18301392 .147995-.18301392 .14099121-.18200684 .13398743-.18101502 .12599182-.18000794 .11898804-.17700196 .11199951-.17401123 .10398865-.16900635 .09700012-.16400147 .08999634-.15901184 .083999637-.15100098 .07998657-.14100647 .08799744-.14100647 .09498596-.14100647 .101989749-.14001465 .10899353-.13900757 .115997318-.13500977 .12298584-.12901306 .12799073-.12400818 .1329956-.119003299 .13699341-.11201477 .14099121-.10501099 .14299011-.09701538 .14299011-.088012699 .14299011-.08000183 .14199829-.07400513 .13899231-.070007327 .13598633-.06500244 .13198853-.06201172 .12799073-.059005739 .12399292-.056015016 .11999512-.055007936 .115997318-.054000856 .11199951-.053009035 .10899353-.053009035 .10598755-.053009035 .099990848-.053009035 .09399414-.054000856 .08799744-.057006837 .08099365-.059005739 .07499695-.06300354 .069992069-.06800842 .06399536-.073013309 .05899048-.07901001 .055999757-.088012699 .051986696-.0960083 .049987794-.10600281 .049987794-.118011478 .049987794-.14300537 .05999756-.16400147 .07998657-.18101502 .09899902-.19700623 .125-.20500183 .1559906-.20500183 .18199158-.20500183 .20799256-.2000122 .23298645-.18901062 .2579956-.17800904 .2809906-.16400147 .3019867-.14601135 .32299806-.12701416 .34098817-.10600281 .35598756-.08100891 .37098695-.056015016 .3829956-.029006958 .3899994-.0010070801L.48599244 .3809967Z" />

</defs>
<g clip-path="url(#clip_13)">
<path transform="matrix(.1,0,0,-.1,151.272,476.30003)" stroke-width="11.3386" stroke-linecap="butt" stroke-miterlimit="22.9256" stroke-linejoin="miter" fill="none" stroke="#231f20" d="M63.6992 407.438H360.1992V589.899H63.6992Z" />
<path transform="matrix(.1,0,0,-.1,151.272,476.30003)" stroke-width="5.6693" stroke-linecap="butt" stroke-miterlimit="22.9256" stroke-linejoin="miter" fill="none" stroke="#231f20" d="M538.828 498.668 558.73 451.293M578.629 498.668 558.73 451.293M618.426 498.668 598.527 546.043M578.629 498.668 598.527 546.043M618.426 498.668 638.324 451.293M658.227 498.668 638.324 451.293M538.828 498.668 518.93 546.043M499.031 498.668 518.93 546.043M698.023 498.668 678.125 546.043M658.227 498.668 678.125 546.043M698.023 498.668 717.922 451.293M737.82 498.668 717.922 451.293M777.621 498.668 757.723 546.043M737.82 498.668 757.723 546.043M778.176 498.668H917.008M499.031 498.668H360.199" />
<use data-text="c" xlink:href="#font_14_5" transform="matrix(11.9997,0,0,-11.9997,211.5947,414.83714)" fill="#231f20" />
<use data-text="1" xlink:href="#font_15_2" transform="matrix(7.99952,0,0,-7.99952,216.77869,417.47697)" fill="#231f20" />
<use data-text="m" xlink:href="#font_14_6" transform="matrix(11.9997,0,0,-11.9997,166.78958,428.86647)" fill="#231f20" />
<use data-text="1" xlink:href="#font_15_2" transform="matrix(7.99952,0,0,-7.99952,177.32509,431.5063)" fill="#231f20" />
<path transform="matrix(.1,0,0,-.1,151.272,476.30003)" stroke-width="11.3386" stroke-linecap="butt" stroke-miterlimit="22.9256" stroke-linejoin="miter" fill="none" stroke="#231f20" d="M917.246 407.438H1213.746V589.899H917.246Z" />
<use data-text="c" xlink:href="#font_14_5" transform="matrix(11.9997,0,0,-11.9997,296.949,414.83714)" fill="#231f20" />
<use data-text="2" xlink:href="#font_15_3" transform="matrix(7.99952,0,0,-7.99952,302.133,417.47697)" fill="#231f20" />
<use data-text="m" xlink:href="#font_14_6" transform="matrix(11.9997,0,0,-11.9997,251.57678,428.86647)" fill="#231f20" />
<use data-text="2" xlink:href="#font_15_3" transform="matrix(7.99952,0,0,-7.99952,262.11228,431.5063)" fill="#231f20" />
<path transform="matrix(.1,0,0,-.1,151.272,476.30003)" stroke-width="11.3386" stroke-linecap="butt" stroke-miterlimit="22.9256" stroke-linejoin="miter" fill="none" stroke="#231f20" d="M2645.14 407.438H2941.636V589.899H2645.14Z" />
<path transform="matrix(.1,0,0,-.1,151.272,476.30003)" stroke-width="5.6693" stroke-linecap="butt" stroke-miterlimit="22.9256" stroke-linejoin="miter" fill="none" stroke="#231f20" d="M1392.38 498.668 1412.27 451.293M1432.18 498.668 1412.27 451.293M1471.97 498.668 1452.07 546.043M1432.18 498.668 1452.07 546.043M1471.97 498.668 1491.87 451.293M1511.77 498.668 1491.87 451.293M1392.38 498.668 1372.48 546.043M1352.58 498.668 1372.48 546.043M1551.57 498.668 1531.67 546.043M1511.77 498.668 1531.67 546.043M1551.57 498.668 1571.47 451.293M1591.37 498.668 1571.47 451.293M1631.17 498.668 1611.27 546.043M1591.37 498.668 1611.27 546.043M1352.58 498.668H1213.75" />
<path transform="matrix(.1,0,0,-.1,151.272,476.30003)" stroke-width="5.6693" stroke-linecap="butt" stroke-miterlimit="22.9256" stroke-linejoin="miter" fill="none" stroke="#231f20" d="M2266 498.668 2285.9 451.293M2305.8 498.668 2285.9 451.293M2345.6 498.668 2325.7 546.043M2305.8 498.668 2325.7 546.043M2345.6 498.668 2365.5 451.293M2385.4 498.668 2365.5 451.293M2266 498.668 2246.1 546.043M2226.2 498.668 2246.1 546.043M2425.2 498.668 2405.3 546.043M2385.4 498.668 2405.3 546.043M2425.2 498.668 2445.09 451.293M2465 498.668 2445.09 451.293M2504.79 498.668 2484.89 546.043M2465 498.668 2484.89 546.043M2505.35 498.668H2644.18" />
<use data-text="c" xlink:href="#font_14_5" transform="matrix(11.9997,0,0,-11.9997,378.491,414.83714)" fill="#231f20" />
<use data-text="n" xlink:href="#font_14_1" transform="matrix(7.99952,0,0,-7.99952,383.675,417.47697)" fill="#231f20" />
<use data-text="{" xlink:href="#font_15_1" transform="matrix(7.99952,0,0,-7.99952,388.47459,417.47697)" fill="#231f20" />
<use data-text="1" xlink:href="#font_15_2" transform="matrix(7.99952,0,0,-7.99952,392.47434,417.47697)" fill="#231f20" />
<use data-text="m" xlink:href="#font_14_6" transform="matrix(11.9997,0,0,-11.9997,424.36637,428.86647)" fill="#231f20" />
<use data-text="n" xlink:href="#font_14_1" transform="matrix(7.99952,0,0,-7.99952,434.90187,431.5063)" fill="#231f20" />
<path transform="matrix(.1,0,0,-.1,151.272,476.30003)" d="M1810.38 509.738C1816.49 512.609 1823.77 509.984 1826.64 503.871 1829.52 497.758 1826.89 490.473 1820.78 487.598 1814.67 484.723 1807.38 487.352 1804.51 493.465 1801.64 499.578 1804.26 506.863 1810.38 509.738" fill="#231f20" fill-rule="evenodd" />
<path transform="matrix(.1,0,0,-.1,151.272,476.30003)" stroke-width="5.6693" stroke-linecap="butt" stroke-miterlimit="22.9256" stroke-linejoin="miter" fill="none" stroke="#231f20" d="M1810.38 509.738C1816.49 512.609 1823.77 509.984 1826.64 503.871 1829.52 497.758 1826.89 490.473 1820.78 487.598 1814.67 484.723 1807.38 487.352 1804.51 493.465 1801.64 499.578 1804.26 506.863 1810.38 509.738Z" />
<path transform="matrix(.1,0,0,-.1,151.272,476.30003)" d="M1923.76 509.738C1929.87 512.609 1937.16 509.984 1940.03 503.871 1942.91 497.758 1940.28 490.473 1934.17 487.598 1928.05 484.723 1920.77 487.352 1917.9 493.465 1915.02 499.578 1917.65 506.863 1923.76 509.738" fill="#231f20" fill-rule="evenodd" />
<path transform="matrix(.1,0,0,-.1,151.272,476.30003)" stroke-width="5.6693" stroke-linecap="butt" stroke-miterlimit="22.9256" stroke-linejoin="miter" fill="none" stroke="#231f20" d="M1923.76 509.738C1929.87 512.609 1937.16 509.984 1940.03 503.871 1942.91 497.758 1940.28 490.473 1934.17 487.598 1928.05 484.723 1920.77 487.352 1917.9 493.465 1915.02 499.578 1917.65 506.863 1923.76 509.738Z" />
<path transform="matrix(.1,0,0,-.1,151.272,476.30003)" d="M2037.15 509.738C2043.26 512.609 2050.54 509.984 2053.42 503.871 2056.29 497.758 2053.67 490.473 2047.55 487.598 2041.44 484.723 2034.15 487.352 2031.28 493.465 2028.41 499.578 2031.03 506.863 2037.15 509.738" fill="#231f20" fill-rule="evenodd" />
<path transform="matrix(.1,0,0,-.1,151.272,476.30003)" stroke-width="5.6693" stroke-linecap="butt" stroke-miterlimit="22.9256" stroke-linejoin="miter" fill="none" stroke="#231f20" d="M2037.15 509.738C2043.26 512.609 2050.54 509.984 2053.42 503.871 2056.29 497.758 2053.67 490.473 2047.55 487.598 2041.44 484.723 2034.15 487.352 2031.28 493.465 2028.41 499.578 2031.03 506.863 2037.15 509.738Z" />
<use data-text="q" xlink:href="#font_14_2" transform="matrix(11.9997,0,0,-11.9997,242.87,452.67503)" fill="#231f20" />
<use data-text="2" xlink:href="#font_15_3" transform="matrix(7.99952,0,0,-7.99952,248.22235,455.31486)" fill="#231f20" />
<path transform="matrix(.1,0,0,-.1,151.272,476.30003)" stroke-width="5.6693" stroke-linecap="butt" stroke-miterlimit="22.9256" stroke-linejoin="miter" fill="none" stroke="#000000" d="M7.01172 341.715V299.195" />
<path transform="matrix(.1,0,0,-.1,151.272,476.30003)" stroke-width="5.6693" stroke-linecap="butt" stroke-miterlimit="22.9256" stroke-linejoin="miter" fill="none" stroke="#231f20" d="M7.01172 320.457H166.359" />
<path transform="matrix(.1,0,0,-.1,151.272,476.30003)" d="M156.121 320.457C156.125 326.875 153.742 333.289 149.504 338.055L211.668 320.457 149.504 302.855C153.742 307.621 156.121 314.043 156.121 320.457" fill="#231f20" fill-rule="evenodd" />
<use data-text="q" xlink:href="#font_14_2" transform="matrix(11.9997,0,0,-11.9997,157.62825,452.67503)" fill="#231f20" />
<use data-text="1" xlink:href="#font_15_2" transform="matrix(7.99952,0,0,-7.99952,162.98021,455.31486)" fill="#231f20" />
<use data-text="q" xlink:href="#font_14_2" transform="matrix(11.9997,0,0,-11.9997,415.1642,452.6309)" fill="#231f20" />
<use data-text="n" xlink:href="#font_14_1" transform="matrix(7.99952,0,0,-7.99952,420.51618,455.27113)" fill="#231f20" />
<use data-text="x" xlink:href="#font_14_3" transform="matrix(11.9997,0,0,-11.9997,158.88419,473.31523)" fill="#231f20" />
<use data-text="y" xlink:href="#font_14_4" transform="matrix(11.9997,0,0,-11.9997,417.25019,473.31523)" fill="#231f20" />
<path transform="matrix(.1,0,0,-.1,151.272,476.30003)" stroke-width="5.6693" stroke-linecap="butt" stroke-miterlimit="22.9256" stroke-linejoin="miter" fill="none" stroke="#231f20" d="M211.949 379.098V92.3555" />
<path transform="matrix(.1,0,0,-.1,151.272,476.30003)" stroke-width="5.6693" stroke-linecap="butt" stroke-miterlimit="22.9256" stroke-linejoin="miter" fill="none" stroke="#000000" d="M7.01172 134.875V92.3555" />
<path transform="matrix(.1,0,0,-.1,151.272,476.30003)" stroke-width="5.6693" stroke-linecap="butt" stroke-miterlimit="22.9256" stroke-linejoin="miter" fill="none" stroke="#231f20" d="M7.01172 113.613H166.359" />
<path transform="matrix(.1,0,0,-.1,151.272,476.30003)" d="M156.121 113.613C156.125 120.031 153.742 126.445 149.504 131.215L211.668 113.613 149.504 96.0156C153.742 100.781 156.121 107.199 156.121 113.613" fill="#231f20" fill-rule="evenodd" />
<path transform="matrix(.1,0,0,-.1,151.272,476.30003)" stroke-width="5.6693" stroke-linecap="butt" stroke-miterlimit="22.9256" stroke-linejoin="miter" fill="none" stroke="#000000" d="M860.555 341.715V299.195" />
<path transform="matrix(.1,0,0,-.1,151.272,476.30003)" stroke-width="5.6693" stroke-linecap="butt" stroke-miterlimit="22.9256" stroke-linejoin="miter" fill="none" stroke="#231f20" d="M860.555 320.457H1019.9" />
<path transform="matrix(.1,0,0,-.1,151.272,476.30003)" d="M1009.66 320.457C1009.66 326.875 1007.29 333.289 1003.04 338.055L1065.21 320.457 1003.04 302.855C1007.29 307.621 1009.66 314.043 1009.66 320.457" fill="#231f20" fill-rule="evenodd" />
<path transform="matrix(.1,0,0,-.1,151.272,476.30003)" stroke-width="5.6693" stroke-linecap="butt" stroke-miterlimit="22.9256" stroke-linejoin="miter" fill="none" stroke="#231f20" d="M1065.5 379.098V299.195" />
<path transform="matrix(.1,0,0,-.1,151.272,476.30003)" stroke-width="5.6693" stroke-linecap="butt" stroke-miterlimit="22.9256" stroke-linejoin="miter" fill="none" stroke="#000000" d="M2588.45 341.715V299.195" />
<path transform="matrix(.1,0,0,-.1,151.272,476.30003)" stroke-width="5.6693" stroke-linecap="butt" stroke-miterlimit="22.9256" stroke-linejoin="miter" fill="none" stroke="#231f20" d="M2588.45 320.457H2747.79" />
<path transform="matrix(.1,0,0,-.1,151.272,476.30003)" d="M2737.56 320.457C2737.56 326.875 2735.18 333.289 2730.94 338.055L2793.1 320.457 2730.94 302.855C2735.18 307.621 2737.56 314.043 2737.56 320.457" fill="#231f20" fill-rule="evenodd" />
<path transform="matrix(.1,0,0,-.1,151.272,476.30003)" stroke-width="5.6693" stroke-linecap="butt" stroke-miterlimit="22.9256" stroke-linejoin="miter" fill="none" stroke="#231f20" d="M2793.39 379.098V92.3555" />
<path transform="matrix(.1,0,0,-.1,151.272,476.30003)" stroke-width="5.6693" stroke-linecap="butt" stroke-miterlimit="22.9256" stroke-linejoin="miter" fill="none" stroke="#000000" d="M2588.45 134.875V92.3555" />
<path transform="matrix(.1,0,0,-.1,151.272,476.30003)" stroke-width="5.6693" stroke-linecap="butt" stroke-miterlimit="22.9256" stroke-linejoin="miter" fill="none" stroke="#231f20" d="M2588.45 113.613H2747.79" />
<path transform="matrix(.1,0,0,-.1,151.272,476.30003)" d="M2737.56 113.613C2737.56 120.031 2735.18 126.445 2730.94 131.215L2793.1 113.613 2730.94 96.0156C2735.18 100.781 2737.56 107.199 2737.56 113.613" fill="#231f20" fill-rule="evenodd" />
</g>

</svg>