<svg xmlns="http://www.w3.org/2000/svg" xmlns:xlink="http://www.w3.org/1999/xlink" version="1.1" width="234.000" height="120.000" viewBox="294.441 88.821 234.000 120.000">
<defs>
<clipPath id="clip_2">
<path transform="matrix(1,0,0,-1,304.441,198.82105)" d="M0 0H214V100H0Z" />
</clipPath>

</defs>
<g clip-path="url(#clip_2)">
<path transform="matrix(.1,0,0,-.1,304.441,198.82105)" d="M1794.51 365.359C1821.15 378.563 1847.79 391.762 1874.44 404.965 1901.08 418.164 1927.72 431.367 1954.41 444.602 1966.66 419.691 1976.11 393.711 1982.47 367.777 1988.84 341.852 1992.2 315.867 1992.2 290.809 1959.19 303.246 1926.22 315.68 1893.29 328.102 1860.37 340.52 1827.44 352.941 1794.51 365.359" fill="#bbbdc0" fill-rule="evenodd" />
<path transform="matrix(.1,0,0,-.1,304.441,198.82105)" d="M1794.51 365.359C1784.31 406.816 1774.07 448.332 1763.91 489.77 1753.75 531.207 1743.55 572.707 1733.39 614.191 1753.12 614.441 1773.75 610.645 1794.51 602.816 1815.22 595.008 1835.86 583.242 1855.58 568.113 1845.39 534.305 1835.19 500.496 1825.03 466.719 1814.87 432.941 1804.67 399.137 1794.51 365.359" fill="#bbbdc0" fill-rule="evenodd" />
<path transform="matrix(.1,0,0,-.1,304.441,198.82105)" d="M1794.51 365.359C1761.54 377.793 1728.57 390.23 1695.64 402.645 1662.71 415.063 1629.79 427.488 1596.89 439.906 1596.89 464.961 1600.14 488.457 1606.5 509.586 1612.87 530.707 1622.31 549.566 1634.57 565.23 1661.21 531.883 1687.86 498.582 1714.5 465.289 1741.14 431.988 1767.83 398.676 1794.51 365.359" fill="#bbbdc0" fill-rule="evenodd" />
<path transform="matrix(.1,0,0,-.1,304.441,198.82105)" d="M1794.51 365.359C1784.31 331.551 1774.07 297.758 1763.91 263.984 1753.75 230.207 1743.55 196.449 1733.39 162.719 1693.71 193.109 1659.12 236.355 1634.57 286.137 1661.21 299.336 1687.86 312.539 1714.5 325.738 1741.14 338.941 1767.83 352.125 1794.51 365.359" fill="#bbbdc0" fill-rule="evenodd" />
<path transform="matrix(.1,0,0,-.1,304.441,198.82105)" d="M1794.51 365.359C1821.15 332.012 1847.8 298.715 1874.44 265.418 1901.08 232.117 1927.72 198.813 1954.41 165.5 1929.86 134.234 1895.27 117.082 1855.58 116.629 1845.39 158.039 1835.19 199.496 1825.03 240.934 1814.87 282.371 1804.67 323.875 1794.51 365.359" fill="#bbbdc0" fill-rule="evenodd" />
<path transform="matrix(.1,0,0,-.1,304.441,198.82105)" stroke-width="11.3386" stroke-linecap="butt" stroke-miterlimit="22.9256" stroke-linejoin="miter" fill="none" stroke="#231f20" d="M1171.82 773.699 1061.35 852.27 348.367 852.262 459.309 773.355V646.043H306.543L7.11328 858.949 7.14453 986.285 1025.65 986.309 1324.6 773.738V646.383H1296.91" />
<path transform="matrix(.1,0,0,-.1,304.441,198.82105)" stroke-width="11.3386" stroke-linecap="butt" stroke-miterlimit="22.9256" stroke-linejoin="miter" fill="none" stroke="#231f20" d="M306.527 773.41 7.14063 986.285" />
<path transform="matrix(.1,0,0,-.1,304.441,198.82105)" stroke-width="11.3386" stroke-linecap="butt" stroke-miterlimit="22.9256" stroke-linejoin="miter" fill="none" stroke="#231f20" d="M306.527 773.355V646.039" />
<path transform="matrix(.1,0,0,-.1,304.441,198.82105)" stroke-width="11.3386" stroke-linecap="butt" stroke-miterlimit="22.9256" stroke-linejoin="miter" fill="none" stroke="#231f20" d="M306.527 773.355H459.305" />
<path transform="matrix(.1,0,0,-.1,304.441,198.82105)" stroke-width="11.3386" stroke-linecap="butt" stroke-miterlimit="22.9256" stroke-linejoin="miter" fill="none" stroke="#231f20" d="M1171.82 773.699H1324.6" />
<path transform="matrix(.1,0,0,-.1,304.441,198.82105)" stroke-width="11.3386" stroke-linecap="butt" stroke-miterlimit="22.9256" stroke-linejoin="miter" fill="none" stroke="#231f20" d="M1171.82 773.699V695.148" />
<path transform="matrix(.1,0,0,-.1,304.441,198.82105)" stroke-width="11.3386" stroke-linecap="butt" stroke-miterlimit="22.9256" stroke-linejoin="miter" fill="none" stroke="#231f20" d="M816.57 724.961H459.305" />
<path transform="matrix(.1,0,0,-.1,304.441,198.82105)" stroke-width="11.3386" stroke-linecap="butt" stroke-miterlimit="22.9256" stroke-linejoin="miter" fill="none" stroke="#231f20" d="M1061.36 852.277V738.211" />
<path transform="matrix(.1,0,0,-.1,304.441,198.82105)" stroke-width="11.3386" stroke-linecap="butt" stroke-miterlimit="22.9256" stroke-linejoin="miter" fill="none" stroke="#231f20" d="M917.156 809.348C937.941 809.348 960.875 806.41 981.121 801.691 1001.37 796.973 1019.02 790.438 1029.16 783.238 1039.29 776.023 1040.02 769.488 1033.05 764.77 1026.08 760.047 1011.36 757.129 990.598 757.129 969.789 757.129 946.844 760.047 926.598 764.77 906.348 769.488 888.742 776.023 878.602 783.238 868.465 790.438 867.691 796.973 874.664 801.691 881.633 806.41 896.375 809.348 917.156 809.348Z" />
<path transform="matrix(.1,0,0,-.1,304.441,198.82105)" stroke-width="11.3386" stroke-linecap="butt" stroke-miterlimit="22.9256" stroke-linejoin="miter" fill="none" stroke="#231f20" d="M939.477 793.477C947.625 793.477 956.613 792.324 964.551 790.473 972.488 788.621 979.406 786.063 983.379 783.238 987.355 780.41 987.637 777.848 984.906 775.996 982.172 774.148 976.402 773.004 968.266 773.004 960.109 773.004 951.109 774.148 943.176 775.996 935.234 777.848 928.336 780.41 924.359 783.238 920.387 786.063 920.086 788.621 922.816 790.473 925.547 792.324 931.328 793.477 939.477 793.477Z" />
<path transform="matrix(.1,0,0,-.1,304.441,198.82105)" stroke-width="11.3386" stroke-linecap="butt" stroke-miterlimit="22.9256" stroke-linejoin="miter" fill="none" stroke="#231f20" d="M907.578 809.125 841.766 835.602" />
<path transform="matrix(.1,0,0,-.1,304.441,198.82105)" stroke-width="11.3386" stroke-linecap="butt" stroke-miterlimit="22.9256" stroke-linejoin="miter" fill="none" stroke="#231f20" d="M927.43 809.121 918.738 835.598" />
<path transform="matrix(.1,0,0,-.1,304.441,198.82105)" stroke-width="11.3386" stroke-linecap="butt" stroke-miterlimit="22.9256" stroke-linejoin="miter" fill="none" stroke="#231f20" d="M841.766 708.281H816.57V835.602H943.887V807.906" />
<path transform="matrix(.1,0,0,-.1,304.441,198.82105)" stroke-width="11.3386" stroke-linecap="butt" stroke-miterlimit="22.9256" stroke-linejoin="miter" fill="none" stroke="#231f20" d="M841.766 835.602V708.281" />
<path transform="matrix(.1,0,0,-.1,304.441,198.82105)" stroke-width="11.3386" stroke-linecap="butt" stroke-miterlimit="22.9256" stroke-linejoin="miter" fill="none" stroke="#231f20" d="M1020.75 632.648C1012.79 630.781 1002.46 629.813 990.598 629.813 969.789 629.813 946.844 632.73 926.598 637.453 906.348 642.172 888.742 648.707 878.602 655.922 872.371 660.348 869.469 664.699 870.203 668.574" />
<path transform="matrix(.1,0,0,-.1,304.441,198.82105)" stroke-width="11.3386" stroke-linecap="butt" stroke-miterlimit="22.9256" stroke-linejoin="miter" fill="none" stroke="#231f20" d="M870.094 696.887 841.766 708.281" />
<path transform="matrix(.1,0,0,-.1,304.441,198.82105)" stroke-width="11.3386" stroke-linecap="butt" stroke-miterlimit="22.9256" stroke-linejoin="miter" fill="none" stroke="#231f20" d="M870.094 667.363V794.672" />
<path transform="matrix(.1,0,0,-.1,304.441,198.82105)" stroke-width="11.3386" stroke-linecap="butt" stroke-miterlimit="22.9256" stroke-linejoin="miter" fill="none" stroke="#231f20" d="M1037.64 771.813V747.145" />
<path transform="matrix(.1,0,0,-.1,304.441,198.82105)" stroke-width="11.3386" stroke-linecap="butt" stroke-miterlimit="22.9256" stroke-linejoin="miter" fill="none" stroke="#231f20" d="M1037.42 749.805C1036.37 745.762 1031.37 742.5 1023.29 740.246 1015.21 737.996 1004.03 736.758 990.598 736.758 984.879 736.758 978.895 736.973 972.707 737.418" />
<path transform="matrix(.1,0,0,-.1,304.441,198.82105)" stroke-width="11.3386" stroke-linecap="butt" stroke-miterlimit="22.9256" stroke-linejoin="miter" fill="none" stroke="#231f20" d="M1037.42 747.547 1356.73 623.059" />
<path transform="matrix(.1,0,0,-.1,304.441,198.82105)" stroke-width="11.3386" stroke-linecap="butt" stroke-miterlimit="22.9256" stroke-linejoin="miter" fill="none" stroke="#231f20" d="M1454.18 482.512 1533.09 483.566" />
<path transform="matrix(.1,0,0,-.1,304.441,198.82105)" stroke-width="11.3386" stroke-linecap="butt" stroke-miterlimit="22.9256" stroke-linejoin="miter" fill="none" stroke="#231f20" d="M1356.73 623.059 1554.64 599.281" />
<path transform="matrix(.1,0,0,-.1,304.441,198.82105)" stroke-width="5.6693" stroke-linecap="butt" stroke-miterlimit="22.9256" stroke-linejoin="miter" fill="none" stroke="#231f20" d="M1540.7 442.125C1540.29 449.367 1540.14 456.539 1540.14 463.75 1540.14 548.027 1568.35 613.453 1613.96 650.914 1659.58 688.375 1722.71 698.113 1792.39 670.949 1862.04 643.805 1925.16 584.844 1970.78 511.816 2016.39 438.785 2044.75 351.297 2044.75 267.023 2044.75 182.566 2016.39 117.148 1970.78 79.6875 1925.16 42.2266 1862.04 32.6797 1792.39 59.8281 1744.16 78.6406 1697.93 113.223 1658.63 158.305 1619.32 203.391 1586.71 259.063 1565.62 319.781" />
<path transform="matrix(.1,0,0,-.1,304.441,198.82105)" stroke-width="5.6693" stroke-linecap="butt" stroke-miterlimit="22.9256" stroke-linejoin="miter" fill="none" stroke="#231f20" d="M1664.74 713.922C1689.74 727.828 1717.7 735.211 1747.31 736.004 1776.91 736.809 1808.29 731.129 1840.06 718.742 1918.64 688.109 1989.88 621.582 2041.35 539.18 2092.82 456.777 2124.82 358.047 2124.82 262.957 2124.82 182.551 2101.82 116.469 2062.81 72.2969 2023.81 28.1367 1968.64 5.78516 1904.07 12.9648" />
<path transform="matrix(.1,0,0,-.1,304.441,198.82105)" stroke-width="11.3386" stroke-linecap="butt" stroke-miterlimit="22.9256" stroke-linejoin="miter" fill="none" stroke="#231f20" d="M1294.55 611.945V525.371" />
<path transform="matrix(.1,0,0,-.1,304.441,198.82105)" stroke-width="11.3386" stroke-linecap="butt" stroke-miterlimit="22.9256" stroke-linejoin="miter" fill="none" stroke="#231f20" d="M1311.36 505.07V418.492" />
<path transform="matrix(.1,0,0,-.1,304.441,198.82105)" stroke-width="11.3386" stroke-linecap="butt" stroke-miterlimit="22.9256" stroke-linejoin="miter" fill="none" stroke="#231f20" d="M1454.18 567.402V480.828" />
<path transform="matrix(.1,0,0,-.1,304.441,198.82105)" stroke-width="5.6693" stroke-linecap="butt" stroke-miterlimit="22.9256" stroke-linejoin="miter" fill="none" stroke="#231f20" d="M1533.83 442.711C1533.18 452.414 1532.91 461.988 1532.91 471.574 1532.91 561.465 1563 631.258 1611.66 671.215 1660.31 711.172 1727.65 721.559 1801.98 692.582 1876.26 663.629 1943.6 600.738 1992.26 522.844 2040.91 444.945 2071.17 351.621 2071.17 261.73 2071.17 171.641 2040.92 101.863 1992.26 61.9063 1943.6 21.9453 1876.26 11.7656 1801.98 40.7227 1749.66 61.125 1699.66 98.875 1657.3 148.043 1614.95 197.215 1580.12 257.855 1558.05 323.883" />
<path transform="matrix(.1,0,0,-.1,304.441,198.82105)" stroke-width="5.6693" stroke-linecap="butt" stroke-miterlimit="22.9256" stroke-linejoin="miter" fill="none" stroke="#231f20" d="M1665.93 714.078C1689.6 724.914 1715.52 730.301 1742.73 730.063 1769.95 729.828 1798.57 724.199 1827.54 712.91 1905.3 682.594 1975.79 616.758 2026.73 535.211 2077.66 453.66 2109.34 355.965 2109.34 261.859 2109.34 184.543 2087.81 120.438 2051.02 76.7031 2014.22 32.9766 1961.98 9.60156 1900.45 13.5977" />
<path transform="matrix(.1,0,0,-.1,304.441,198.82105)" stroke-width="5.6693" stroke-linecap="butt" stroke-miterlimit="22.9256" stroke-linejoin="miter" fill="none" stroke="#231f20" d="M1533.97 496.094C1537.89 584.512 1570.55 652.043 1620.77 690.168 1671 728.297 1738.89 737.254 1813.27 708.258 1890.46 678.168 1960.42 612.824 2010.98 531.887 2061.54 450.949 2092.98 353.977 2092.98 260.574 2092.98 166.969 2061.54 94.4648 2010.98 52.9453 1960.42 11.4258 1890.46 .847656 1813.27 30.9375 1792.08 39.2031 1771 50.1992 1750.36 64.0703" />
<path transform="matrix(.1,0,0,-.1,304.441,198.82105)" stroke-width="5.6693" stroke-linecap="butt" stroke-miterlimit="22.9256" stroke-linejoin="miter" fill="none" stroke="#231f20" d="M1851.3 715.453C1929.06 685.141 1999.55 619.305 2050.49 537.758 2101.43 456.207 2133.1 358.512 2133.1 264.406 2133.1 195.82 2116.08 137.191 2086.22 94.1719 2056.36 51.1602 2013.36 23.6289 1961.35 17.1563" />
<path transform="matrix(.1,0,0,-.1,304.441,198.82105)" stroke-width="11.3386" stroke-linecap="butt" stroke-miterlimit="22.9256" stroke-linejoin="miter" fill="none" stroke="#231f20" d="M1597.16 474.637C1603.98 530.902 1628.23 572.875 1663.04 595.922 1697.86 618.973 1743.24 623.293 1792.41 604.133 1846.82 582.922 1896.14 536.855 1931.78 479.793 1967.43 422.73 1989.59 354.371 1989.59 288.523 1989.59 222.535 1967.43 171.422 1931.78 142.148 1896.14 112.879 1846.82 105.418 1792.41 126.633 1773.91 133.844 1755.61 144.082 1738.04 157 1720.45 169.918 1703.57 185.621 1687.92 203.563" />
<path transform="matrix(.1,0,0,-.1,304.441,198.82105)" d="M1735.24 520.695C1772.99 505.98 1807.19 474.031 1831.91 434.457 1856.63 394.883 1872 347.465 1872 301.797 1872 256.027 1856.63 220.574 1831.91 200.273 1807.19 179.973 1772.97 174.801 1735.24 189.512 1697.47 204.234 1663.26 236.086 1638.54 275.66 1613.82 315.238 1598.53 362.641 1598.53 408.41 1598.53 454.078 1613.82 489.543 1638.54 509.84 1663.26 530.141 1697.48 535.41 1735.24 520.695" fill="#ffffff" fill-rule="evenodd" />
<path transform="matrix(.1,0,0,-.1,304.441,198.82105)" stroke-width="11.3386" stroke-linecap="butt" stroke-miterlimit="22.9256" stroke-linejoin="miter" fill="none" stroke="#231f20" d="M1666.84 525.133C1677.23 528.336 1688.34 529.574 1699.82 528.805 1711.3 528.035 1723.23 525.375 1735.24 520.695 1772.97 505.984 1807.19 474.031 1831.91 434.457 1856.63 394.883 1872 347.465 1872 301.797 1872 267.984 1863.46 239.207 1848.56 218.254 1833.66 197.305 1812.27 184.117 1786.46 181.563" />
<path transform="matrix(.1,0,0,-.1,304.441,198.82105)" d="M1720.2 518C1757.95 503.281 1792.15 471.336 1816.88 431.762 1841.59 392.184 1856.96 344.77 1856.96 299.098 1856.96 253.328 1841.59 217.875 1816.88 197.574 1792.15 177.27 1757.94 172.102 1720.2 186.813 1682.44 201.535 1648.22 233.387 1623.5 272.965 1598.78 312.539 1583.5 359.941 1583.5 405.711 1583.5 451.383 1598.78 486.844 1623.5 507.141 1648.22 527.441 1682.45 532.715 1720.2 518" fill="#ffffff" fill-rule="evenodd" />
<path transform="matrix(.1,0,0,-.1,304.441,198.82105)" d="M1414.36 378.34 1463.2 473.02 1721.01 372.512V285.934L1673.33 277.375 1414.36 378.34" fill="#ffffff" fill-rule="evenodd" />
<path transform="matrix(.1,0,0,-.1,304.441,198.82105)" stroke-width="11.3386" stroke-linecap="butt" stroke-miterlimit="22.9256" stroke-linejoin="miter" fill="none" stroke="#231f20" d="M1294.55 525.371 1311.36 418.492 1673.33 277.375 1721.01 285.934V372.512L1358.22 513.945 1456.17 568.508 1545.21 568.66" />
<path transform="matrix(.1,0,0,-.1,304.441,198.82105)" stroke-width="11.3386" stroke-linecap="butt" stroke-miterlimit="22.9256" stroke-linejoin="miter" fill="none" stroke="#231f20" d="M1721.01 372.512 1673.33 363.953 1311.36 505.07 1294.55 611.945 972.707 737.418V650.848L1294.55 525.371" />
<path transform="matrix(.1,0,0,-.1,304.441,198.82105)" stroke-width="11.3386" stroke-linecap="butt" stroke-miterlimit="22.9256" stroke-linejoin="miter" fill="none" stroke="#231f20" d="M1673.33 277.375V363.953" />
<path transform="matrix(.1,0,0,-.1,304.441,198.82105)" d="M1632.39 357.813C1637.22 355.926 1641.6 351.84 1644.76 346.777 1647.92 341.715 1649.89 335.648 1649.89 329.805 1649.89 323.949 1647.92 319.414 1644.76 316.816 1641.6 314.223 1637.22 313.559 1632.39 315.441 1627.56 317.324 1623.18 321.398 1620.02 326.461 1616.86 331.527 1614.9 337.59 1614.9 343.445 1614.9 349.289 1616.86 353.824 1620.02 356.422 1623.18 359.02 1627.56 359.695 1632.39 357.813" fill="#231f20" fill-rule="evenodd" />
<path transform="matrix(.1,0,0,-.1,304.441,198.82105)" stroke-width="11.3386" stroke-linecap="butt" stroke-miterlimit="22.9256" stroke-linejoin="miter" fill="none" stroke="#231f20" d="M1584.48 425.453C1588.69 465.309 1605.34 495.18 1629.57 511.695 1653.8 528.215 1685.66 531.461 1720.2 518 1757.94 503.285 1792.15 471.336 1816.88 431.762 1841.59 392.184 1856.96 344.77 1856.96 299.098 1856.96 253.328 1841.59 217.875 1816.88 197.574 1792.15 177.27 1757.94 172.102 1720.2 186.813 1697.88 195.516 1676.26 210.504 1657.03 230.09 1637.8 249.668 1620.96 273.926 1608.19 301.059" />
<path transform="matrix(.1,0,0,-.1,304.441,198.82105)" d="M490.309 618.219H779.79299V764.754H490.309Z" fill="#ffffff" fill-rule="evenodd" />
<path transform="matrix(.1,0,0,-.1,304.441,198.82105)" stroke-width="11.3386" stroke-linecap="butt" stroke-miterlimit="22.9256" stroke-linejoin="miter" fill="none" stroke="#231f20" d="M793.563 709.246 768.715 708.871 753.176 668.762 722.742 750.266 692.121 668.91 662.063 750.129 631.723 668.953 601.344 750.371 570.785 669.098 540.48 750.418 509.844 669.246 495.047 709.082 459.305 709.211" />
<path transform="matrix(.1,0,0,-.1,304.441,198.82105)" stroke-width="11.3386" stroke-linecap="butt" stroke-miterlimit="22.9256" stroke-linejoin="miter" fill="none" stroke="#231f20" d="M784.438 709.234H901.5" />
<path transform="matrix(.1,0,0,-.1,304.441,198.82105)" d="M901.496 723.527C904.758 722.258 907.707 719.5 909.84 716.086 911.973 712.672 913.301 708.578 913.301 704.637 913.301 700.688 911.973 697.629 909.84 695.875 907.707 694.125 904.754 693.68 901.496 694.949 898.238 696.219 895.285 698.965 893.152 702.379 891.02 705.801 889.699 709.887 889.699 713.836 889.699 717.777 891.02 720.84 893.152 722.594 895.285 724.344 898.238 724.797 901.496 723.527" fill="#231f20" fill-rule="evenodd" />
</g>

</svg>