<svg xmlns="http://www.w3.org/2000/svg" xmlns:xlink="http://www.w3.org/1999/xlink" version="1.1" width="177.000" height="205.000" viewBox="356.803 336.412 177.000 205.000">
<defs>
<clipPath id="clip_7">
<path transform="matrix(1,0,0,-1,366.803,531.412)" d="M0 0H157V185H0Z" />
</clipPath>

</defs>
<g clip-path="url(#clip_7)">
<path transform="matrix(.1,0,0,-.1,366.803,531.412)" d="M53.125 187.898 1123.38 590.055C1137.97 595.543 1154.4 588.082 1159.88 573.492 1165.36 558.895 1157.91 542.469 1143.32 536.984L73.0664 134.828C58.4688 129.348 42.043 136.801 36.5625 151.391 31.0742 165.988 38.5313 182.414 53.125 187.898" fill="#ffffff" fill-rule="evenodd" />
<path transform="matrix(.1,0,0,-.1,366.803,531.412)" stroke-width="11.3386" stroke-linecap="butt" stroke-miterlimit="2.6131" stroke-linejoin="miter" fill="none" stroke="#231f20" d="M53.125 187.898 1123.38 590.055C1137.97 595.543 1154.4 588.082 1159.88 573.492 1165.36 558.895 1157.91 542.469 1143.32 536.984L73.0664 134.828C58.4688 129.348 42.043 136.801 36.5625 151.391 31.0742 165.988 38.5313 182.414 53.125 187.898Z" />
<path transform="matrix(.1,0,0,-.1,366.803,531.412)" d="M454.734 388.594 485.758 402.266 511.762 343.254 480.734 329.582 454.734 388.594" fill="#ffffff" fill-rule="evenodd" />
<path transform="matrix(.1,0,0,-.1,366.803,531.412)" stroke-width="5.6693" stroke-linecap="butt" stroke-miterlimit="2.6131" stroke-linejoin="miter" fill="none" stroke="#231f20" d="M865.918 1320.51 1131.71 1706.3" />
<path transform="matrix(.1,0,0,-.1,366.803,531.412)" stroke-width="5.6693" stroke-linecap="butt" stroke-miterlimit="2.6131" stroke-linejoin="miter" fill="none" stroke="#231f20" d="M495.602 783.012 468.25 841.93 598.199 830.789 542.316 949.426 672.262 938.285 615.563 1055.74 746.324 1045.79 690.441 1164.42 820.391 1153.28 763.691 1270.74 894.453 1260.79 865.914 1320.51" />
<path transform="matrix(.1,0,0,-.1,366.803,531.412)" stroke-width="5.6693" stroke-linecap="butt" stroke-miterlimit="2.6131" stroke-linejoin="miter" fill="none" stroke="#231f20" d="M67.6875 161.93 495.602 783.012" />
<path transform="matrix(.1,0,0,-.1,366.803,531.412)" stroke-width="11.3386" stroke-linecap="butt" stroke-miterlimit="2.6131" stroke-linejoin="miter" fill="none" stroke="#231f20" d="M144.199 1705.08V1400.43" />
<path transform="matrix(.1,0,0,-.1,366.803,531.412)" d="M144.199 1448.56C151.422 1448.56 158.637 1451.24 163.996 1456.02L144.199 1386.08 124.402 1456.02C129.766 1451.24 136.984 1448.56 144.199 1448.56" fill="#231f20" fill-rule="evenodd" />
<path transform="matrix(.1,0,0,-.1,366.803,531.412)" d="M230.863 1614.66C230.988 1615.02 230.988 1615.38 231.105 1615.74 231.227 1616.1 231.227 1616.46 231.227 1616.82 231.227 1617.9 230.863 1618.62 230.266 1619.22 229.664 1619.82 228.828 1620.06 227.746 1620.06 227.387 1620.06 227.027 1620.06 226.543 1619.94 226.066 1619.82 225.586 1619.46 225.105 1619.1 224.508 1618.74 224.023 1618.14 223.664 1617.54 223.188 1616.82 222.945 1615.98 222.824 1614.9 221.746 1617.18 220.188 1618.98 218.266 1620.42 216.227 1621.74 214.066 1622.46 211.664 1622.46 208.188 1622.46 204.824 1621.5 201.465 1619.58 197.984 1617.66 194.988 1615.14 192.227 1611.9 189.469 1608.66 187.309 1605.06 185.625 1600.98 183.949 1596.9 183.105 1592.7 183.105 1588.38 183.105 1585.38 183.59 1582.74 184.426 1580.46 185.266 1578.06 186.348 1576.02 187.91 1574.46 189.348 1572.9 191.027 1571.58 192.945 1570.74 194.867 1569.9 196.906 1569.42 199.066 1569.42 200.867 1569.42 202.547 1569.78 204.105 1570.38 205.668 1570.98 206.984 1571.58 208.305 1572.42 209.504 1573.27 210.465 1573.98 211.305 1574.82 212.148 1575.54 212.625 1576.02 212.988 1576.38L213.105 1576.26C211.789 1570.86 210.828 1566.9 210.227 1564.38 209.504 1561.86 209.145 1560.54 209.145 1560.42 209.027 1560.18 208.668 1559.34 208.066 1557.9 207.469 1556.58 206.508 1555.02 205.188 1553.46 203.867 1551.91 202.066 1550.58 199.906 1549.26 197.746 1548.06 195.105 1547.46 191.867 1547.46 190.785 1547.46 189.348 1547.46 187.547 1547.59 185.75 1547.7 183.949 1548.06 182.266 1548.66 184.066 1549.26 185.387 1550.11 186.109 1551.42 186.828 1552.74 187.188 1553.82 187.188 1554.9 187.188 1555.86 186.828 1556.82 186.109 1557.66 185.387 1558.62 184.188 1559.1 182.629 1559.1 182.027 1559.1 181.305 1558.98 180.586 1558.62 179.746 1558.38 179.027 1558.02 178.426 1557.43 177.828 1556.82 177.227 1556.1 176.867 1555.27 176.387 1554.42 176.148 1553.34 176.148 1552.14 176.148 1549.63 177.348 1547.82 179.867 1546.63 182.266 1545.43 186.348 1544.82 192.105 1544.82 195.824 1544.82 199.188 1545.3 202.188 1546.38 205.188 1547.46 207.707 1548.79 209.867 1550.34 211.906 1552.02 213.586 1553.82 214.906 1555.74 216.227 1557.66 217.066 1559.59 217.547 1561.38L230.863 1614.66ZM215.266 1584.78C214.906 1583.22 214.066 1581.66 212.988 1580.22 211.789 1578.79 210.465 1577.46 209.145 1576.38 207.828 1575.3 206.387 1574.22 204.707 1573.38 202.906 1572.54 201.227 1572.06 199.426 1572.06 197.867 1572.06 196.668 1572.42 195.707 1573.14 194.625 1573.74 193.906 1574.7 193.305 1575.79 192.707 1576.86 192.227 1578.06 191.988 1579.38 191.746 1580.7 191.629 1581.9 191.629 1583.1 191.629 1584.54 191.867 1586.46 192.227 1588.74 192.586 1591.02 193.188 1593.54 193.789 1596.06 194.387 1598.58 195.105 1600.98 195.949 1603.38 196.785 1605.66 197.508 1607.58 198.344 1609.14 199.906 1612.14 201.945 1614.66 204.348 1616.7 206.746 1618.74 209.266 1619.82 211.789 1619.82 213.824 1619.82 215.387 1619.34 216.707 1618.38 217.906 1617.3 218.867 1616.22 219.586 1614.9 220.305 1613.58 220.785 1612.5 221.027 1611.42 221.266 1610.34 221.387 1609.62 221.387 1609.5 221.387 1609.14 221.387 1608.9 221.266 1608.54 221.145 1608.18 221.145 1607.94 221.027 1607.7L215.266 1584.78" fill="#231f20" fill-rule="evenodd" />
<path transform="matrix(.1,0,0,-.1,366.803,531.412)" d="M762.039 629.949C763.363 629.949 764.441 630.07 765.043 630.43 765.641 630.668 765.883 631.629 765.883 633.188 765.883 634.148 765.883 635.348 765.762 636.91 765.641 638.348 765.281 639.91 764.801 641.59 764.324 643.266 763.602 644.949 762.762 646.75 761.922 648.551 760.723 650.109 759.16 651.668 754.723 655.988 748.363 658.148 740.082 658.148 735.281 658.148 731.082 657.426 727.363 655.988 723.641 654.547 720.645 652.629 718.125 650.109 715.602 647.586 713.684 644.707 712.363 641.469 711.043 638.109 710.445 634.508 710.445 630.789 710.445 626.828 711.164 623.109 712.605 619.75 714.043 616.27 716.082 613.391 718.844 610.871 721.605 608.352 724.84 606.43 728.801 605.109 732.641 603.789 736.961 603.07 741.762 603.07 746.441 603.07 750.402 603.789 753.523 605.109 756.641 606.43 759.16 607.992 760.961 609.789 762.762 611.469 764.082 613.148 764.801 614.707 765.52 616.27 765.883 617.352 765.883 617.828 765.883 618.91 765.52 619.508 764.684 619.75 763.84 619.867 763.363 619.988 763 619.988 761.922 619.988 761.32 619.867 761.082 619.508 760.723 619.148 760.363 618.43 760.004 617.469 758.68 614.59 756.52 612.309 753.402 610.512 750.281 608.711 746.801 607.867 742.84 607.867 738.645 607.867 735.402 608.711 733.121 610.512 730.844 612.188 729.16 614.23 728.082 616.629 727 619.027 726.281 621.43 726.164 623.949 725.922 626.469 725.801 628.387 725.801 629.949H762.039ZM725.801 633.906C725.922 636.191 726.164 638.59 726.402 640.988 726.641 643.391 727.363 645.551 728.684 647.586 730.242 649.988 732.164 651.668 734.324 652.508 736.363 653.348 738.285 653.828 740.082 653.828 743.563 653.828 746.324 652.988 748.242 651.309 750.164 649.629 751.602 647.711 752.563 645.426 753.402 643.148 754 640.988 754.242 638.828 754.363 636.551 754.48 634.988 754.48 633.906H725.801" fill="#231f20" fill-rule="evenodd" />
<path transform="matrix(.1,0,0,-.1,366.803,531.412)" d="M796.563 601.551C796.641 602.109 796.883 602.906 797.203 603.949 797.52 604.988 798 606.027 798.641 607.07 799.199 608.109 800 608.988 800.961 609.789 801.922 610.59 803.121 610.988 804.48 610.988 804.719 610.988 805.199 610.988 806 610.91 806.801 610.828 807.598 610.508 808.48 609.949 807.359 609.707 806.48 609.23 805.758 608.352 805.039 607.469 804.641 606.59 804.641 605.629 804.641 604.988 804.879 604.348 805.359 603.789 805.84 603.148 806.641 602.828 807.68 602.828 808.082 602.828 808.559 602.906 809.121 603.148 809.602 603.309 810.078 603.551 810.48 603.949 810.879 604.348 811.277 604.828 811.598 605.387 811.84 605.949 812 606.668 812 607.469 812 608.508 811.762 609.309 811.199 610.027 810.641 610.75 810 611.309 809.281 611.711 808.559 612.109 807.762 612.352 806.879 612.508 806 612.668 805.281 612.75 804.559 612.75 803.359 612.75 802.32 612.508 801.438 612.109 800.48 611.629 799.68 611.07 798.957 610.43 798.238 609.789 797.68 609.148 797.203 608.43 796.719 607.711 796.398 607.148 796.16 606.668 795.68 608.031 795.043 609.07 794.32 609.871 793.602 610.668 792.801 611.309 792 611.711 791.121 612.109 790.32 612.43 789.602 612.59 788.801 612.668 788.078 612.75 787.52 612.75 785.441 612.75 783.602 612.188 782.004 611.148 780.402 610.027 779.039 608.75 778.004 607.391 776.879 605.949 776.082 604.59 775.523 603.227 774.961 601.871 774.641 600.91 774.641 600.43 774.641 600.031 774.801 599.789 775.039 599.711 775.281 599.629 775.523 599.629 775.602 599.629 776.16 599.629 776.563 599.949 776.641 600.512 777.363 602.672 778.16 604.43 779.121 605.789 780 607.148 780.961 608.188 782.004 608.988 783.039 609.707 784 610.27 784.961 610.59 785.84 610.828 786.641 610.988 787.359 610.988 787.762 610.988 788.16 610.91 788.719 610.828 789.199 610.668 789.68 610.43 790.082 610.027 790.48 609.629 790.879 609.148 791.199 608.43 791.52 607.711 791.68 606.828 791.68 605.629 791.68 604.43 791.359 602.348 790.641 599.391 789.918 596.43 788.883 592.191 787.359 586.59 786.723 584.113 785.762 582.109 784.398 580.59 783.039 579.07 781.52 578.27 779.762 578.27 779.523 578.27 778.961 578.352 778.242 578.43 777.441 578.512 776.641 578.75 775.762 579.309 776.801 579.551 777.684 580.031 778.402 580.832 779.121 581.547 779.523 582.512 779.523 583.629 779.523 584.672 779.203 585.469 778.48 585.867 777.762 586.273 777.121 586.43 776.563 586.43 775.359 586.43 774.32 585.953 773.441 585.07 772.563 584.191 772.16 583.07 772.16 581.789 772.16 580.91 772.402 580.113 772.879 579.473 773.281 578.75 773.922 578.191 774.641 577.789 775.359 577.391 776.16 577.07 777.043 576.828 777.922 576.59 778.801 576.512 779.68 576.512 781.043 576.512 782.16 576.828 783.199 577.391 784.242 577.953 785.039 578.672 785.762 579.391 786.48 580.113 787.043 580.75 787.441 581.469 787.84 582.109 788 582.512 788.078 582.59 788.563 581.07 789.52 579.711 790.961 578.43 792.398 577.148 794.32 576.512 796.719 576.512 798.801 576.512 800.641 577.07 802.242 578.191 803.762 579.23 805.117 580.512 806.242 581.953 807.277 583.309 808.16 584.75 808.719 586.109 809.281 587.469 809.52 588.348 809.52 588.832 809.52 589.23 809.359 589.469 809.121 589.551 808.879 589.629 808.641 589.629 808.559 589.629 808.16 589.629 807.918 589.551 807.84 589.391 807.762 589.23 807.598 588.988 807.52 588.75 806.879 586.59 806.078 584.91 805.117 583.551 804.16 582.191 803.199 581.07 802.16 580.352 801.117 579.551 800.16 578.988 799.281 578.75 798.32 578.43 797.52 578.27 796.883 578.27 795.359 578.27 794.238 578.832 793.52 579.871 792.801 580.91 792.48 582.191 792.48 583.551 792.48 584.43 792.641 585.391 792.883 586.43 793.121 587.469 793.441 588.832 793.84 590.59L796.563 601.551" fill="#231f20" fill-rule="evenodd" />
<path transform="matrix(.1,0,0,-.1,366.803,531.412)" d="M809.441 692.266C809.602 692.988 809.762 693.547 810 694.027 810.16 694.508 810.48 694.906 810.961 695.227 811.441 695.469 812.16 695.707 813.043 695.789 813.922 695.867 815.121 695.945 816.723 695.945 817.68 695.945 818.32 696.027 818.719 696.188 819.117 696.266 819.281 696.746 819.281 697.465 819.281 697.949 819.117 698.27 818.801 698.348 818.48 698.426 818.238 698.426 818.082 698.426 817.52 698.426 816.723 698.426 815.758 698.426 814.797 698.348 813.84 698.348 812.801 698.348 811.762 698.27 810.801 698.27 809.84 698.27 808.879 698.188 808.082 698.188 807.52 698.188 806.961 698.188 806.16 698.188 805.199 698.27 804.238 698.27 803.281 698.27 802.242 698.348 801.199 698.348 800.16 698.348 799.199 698.426 798.242 698.426 797.441 698.426 796.883 698.426 796.641 698.426 796.32 698.348 795.922 698.27 795.52 698.105 795.281 697.629 795.281 696.828 795.281 696.426 795.441 696.188 795.84 696.109 796.242 696.027 796.801 695.945 797.523 695.945 799.199 695.945 800.559 695.867 801.602 695.789 802.563 695.625 803.039 695.148 803.039 694.426 803.039 694.188 803.039 694.027 803.039 693.867 803.039 693.785 802.961 693.547 802.883 693.145L792.082 650.027C791.922 649.309 791.762 648.668 791.602 648.188 791.363 647.711 791.043 647.309 790.559 647.07 790.082 646.75 789.441 646.512 788.563 646.43 787.684 646.348 786.402 646.27 784.801 646.27 783.922 646.27 783.281 646.191 782.879 646.109 782.48 645.949 782.242 645.469 782.242 644.668 782.242 644.27 782.402 644.031 782.801 643.949 783.121 643.867 783.363 643.789 783.441 643.789 784 643.789 784.801 643.789 785.762 643.867 786.641 643.867 787.684 643.867 788.719 643.949 789.762 643.949 790.723 643.949 791.684 644.031 792.563 644.031 793.359 644.031 793.922 644.031 794.48 644.031 795.281 644.031 796.242 644.031 797.203 643.949 798.242 643.949 799.281 643.949 800.32 643.867 801.281 643.867 802.32 643.867 803.281 643.789 804.082 643.789 804.641 643.789 804.961 643.789 805.281 643.867 805.68 644.031 806.078 644.109 806.242 644.59 806.242 645.309 806.242 645.789 806.078 646.109 805.758 646.191 805.359 646.27 804.723 646.27 803.84 646.27 803.121 646.27 802.563 646.27 802.16 646.27 801.758 646.27 801.199 646.348 800.402 646.43 799.52 646.512 799.039 646.668 798.801 646.91 798.563 647.07 798.402 647.391 798.402 647.789 798.402 648.109 798.402 648.43 798.48 648.75 798.563 649.07 798.641 649.387 798.723 649.629L809.441 692.266" fill="#231f20" fill-rule="evenodd" />
<path transform="matrix(.1,0,0,-.1,366.803,531.412)" d="M1056.27 72.082C1057.59 72.082 1058.68 72.2031 1059.28 72.5625 1059.88 72.8008 1060.11 73.7617 1060.11 75.3203 1060.11 76.2813 1060.11 77.4805 1060 79.043 1059.88 80.4844 1059.52 82.043 1059.04 83.7227 1058.55 85.4023 1057.84 87.082 1056.99 88.8828 1056.16 90.6836 1054.96 92.2422 1053.39 93.8008 1048.95 98.1211 1042.6 100.281 1034.32 100.281 1029.52 100.281 1025.32 99.5586 1021.59 98.1211 1017.88 96.6797 1014.88 94.7617 1012.36 92.2422 1009.84 89.7227 1007.92 86.8398 1006.6 83.6016 1005.28 80.2422 1004.68 76.6406 1004.68 72.9219 1004.68 68.9609 1005.4 65.2422 1006.84 61.8828 1008.28 58.4023 1010.32 55.5234 1013.08 53.0039 1015.84 50.4844 1019.07 48.5625 1023.04 47.2422 1026.88 45.9219 1031.2 45.2031 1036 45.2031 1040.68 45.2031 1044.64 45.9219 1047.76 47.2422 1050.88 48.5625 1053.39 50.125 1055.2 51.9219 1056.99 53.6016 1058.32 55.2813 1059.04 56.8398 1059.75 58.4023 1060.11 59.4844 1060.11 59.9648 1060.11 61.043 1059.75 61.6406 1058.91 61.8828 1058.07 62 1057.59 62.125 1057.23 62.125 1056.16 62.125 1055.55 62 1055.32 61.6406 1054.96 61.2813 1054.6 60.5625 1054.23 59.6016 1052.91 56.7227 1050.75 54.4453 1047.63 52.6445 1044.52 50.8438 1041.04 50.0039 1037.07 50.0039 1032.88 50.0039 1029.64 50.8438 1027.36 52.6445 1025.07 54.3203 1023.39 56.3633 1022.32 58.7656 1021.23 61.1602 1020.52 63.5625 1020.39 66.082 1020.16 68.6016 1020.04 70.5234 1020.04 72.082H1056.27ZM1020.04 76.0391C1020.16 78.3242 1020.39 80.7227 1020.64 83.1211 1020.88 85.5234 1021.59 87.6836 1022.91 89.7227 1024.48 92.1211 1026.4 93.8008 1028.56 94.6406 1030.59 95.4805 1032.52 95.9609 1034.32 95.9609 1037.79 95.9609 1040.55 95.1211 1042.48 93.4414 1044.4 91.7617 1045.84 89.8438 1046.79 87.5625 1047.63 85.2813 1048.23 83.1211 1048.48 80.9609 1048.59 78.6836 1048.71 77.1211 1048.71 76.0391H1020.04" fill="#231f20" fill-rule="evenodd" />
<path transform="matrix(.1,0,0,-.1,366.803,531.412)" d="M1102.95 50.0039C1103.11 50.5625 1103.19 50.9609 1103.27 51.2031 1103.27 51.3633 1103.27 51.6055 1103.27 51.8398 1103.27 52.5625 1103.04 53.1211 1102.55 53.5234 1102.07 53.8438 1101.51 54 1100.95 54 1100.55 54 1100.07 53.8438 1099.52 53.6016 1098.95 53.3594 1098.55 52.8828 1098.15 52.3242 1098.07 52.082 1097.91 51.5195 1097.67 50.5625 1097.43 49.6016 1097.19 48.7227 1097.04 48.0039 1096.79 46.9648 1096.48 45.8438 1096.23 44.8047 1095.99 43.7617 1095.67 42.6445 1095.43 41.6016L1091.84 27.2031C1091.75 26.8828 1091.43 26.3242 1091.03 25.6055 1090.55 24.8828 1089.91 24.0859 1089.19 23.3633 1088.39 22.5625 1087.43 21.8438 1086.39 21.2852 1085.36 20.7227 1084.15 20.4023 1082.79 20.4023 1081.75 20.4023 1080.95 20.6445 1080.32 21.043 1079.68 21.4414 1079.2 21.9258 1078.8 22.5625 1078.39 23.125 1078.16 23.8438 1078.07 24.6445 1077.91 25.3633 1077.84 26.1641 1077.84 26.8828 1077.84 28.7227 1078.16 30.9648 1078.88 33.5234 1079.52 36.0039 1080.55 39.043 1081.91 42.5625 1082.23 43.3633 1082.47 44.082 1082.71 44.6406 1082.95 45.2031 1083.11 45.6836 1083.2 46.082 1083.27 46.4805 1083.35 46.8828 1083.43 47.2031 1083.52 47.5234 1083.52 47.9219 1083.52 48.3242 1083.52 50.1641 1082.95 51.6836 1081.75 52.9609 1080.55 54.2422 1078.95 54.8828 1076.96 54.8828 1075.68 54.8828 1074.55 54.5625 1073.52 54 1072.47 53.4414 1071.59 52.7227 1070.88 51.8398 1070.07 50.9609 1069.43 50.082 1068.88 49.043 1068.32 48.0039 1067.83 46.9648 1067.43 46.082 1067.04 45.2031 1066.8 44.4023 1066.63 43.7617 1066.48 43.043 1066.39 42.6445 1066.39 42.5625 1066.39 42.1641 1066.55 41.9219 1066.8 41.8438 1067.04 41.7617 1067.27 41.7617 1067.36 41.7617 1067.75 41.7617 1068.07 41.8438 1068.15 42.0039 1068.23 42.1641 1068.39 42.5625 1068.64 43.2031 1069.67 46.9648 1070.95 49.5234 1072.47 50.9609 1073.91 52.4023 1075.36 53.1211 1076.71 53.1211 1077.04 53.1211 1077.43 53.043 1077.99 52.8008 1078.48 52.5625 1078.71 51.8398 1078.71 50.5625 1078.71 49.5234 1078.55 48.5625 1078.23 47.6055 1077.91 46.5625 1077.59 45.6836 1077.36 44.9609 1076.55 42.8008 1075.83 40.9609 1075.27 39.2852 1074.71 37.6016 1074.23 36.1641 1073.84 34.8008 1073.43 33.4414 1073.2 32.2422 1073.04 31.2031 1072.79 30.1602 1072.71 29.125 1072.71 28.1641 1072.71 26.4023 1073.04 24.8828 1073.59 23.6836 1074.16 22.4844 1074.95 21.4414 1075.83 20.7227 1076.71 20.0039 1077.75 19.4453 1078.95 19.125 1080.15 18.8047 1081.28 18.6445 1082.47 18.6445 1083.99 18.6445 1085.51 18.9609 1086.88 19.6016 1088.23 20.2422 1089.43 21.1211 1090.55 22.2461 1090 20.1641 1089.43 18.082 1088.79 16.082 1088.07 14.0859 1086.95 12.082 1085.36 9.92188 1084.31 8.56641 1083.03 7.36328 1081.59 6.32422 1080.07 5.36328 1078.39 4.88672 1076.55 4.88672 1076.32 4.88672 1075.91 4.88672 1075.36 4.96484 1074.8 5.04297 1074.16 5.125 1073.59 5.36328 1073.04 5.60547 1072.39 6.00391 1071.83 6.40625 1071.27 6.80469 1070.8 7.44531 1070.48 8.24609 1071.11 8.24609 1071.68 8.24609 1072.23 8.32422 1072.79 8.40234 1073.36 8.72266 1073.91 9.20313 1074.31 9.60547 1074.71 10.0039 1075.04 10.5625 1075.36 11.125 1075.52 11.7656 1075.52 12.4844 1075.52 13.1211 1075.43 13.6055 1075.2 13.9258 1074.95 14.3242 1074.63 14.5625 1074.31 14.8047 1073.99 15.043 1073.68 15.125 1073.36 15.2031 1073.04 15.2813 1072.79 15.2813 1072.55 15.2813 1072.07 15.2813 1071.59 15.2031 1071.11 14.9648 1070.55 14.8047 1070.07 14.4844 1069.67 14.0859 1069.2 13.6836 1068.79 13.207 1068.55 12.4844 1068.23 11.8438 1068.07 11.0469 1068.07 10.0859 1068.07 8.08203 1068.88 6.40625 1070.48 5.04297 1072 3.76172 1074.07 3.125 1076.55 3.125 1078.63 3.125 1080.71 3.52344 1082.71 4.40234 1084.71 5.28516 1086.55 6.40625 1088.23 7.84375 1089.91 9.36328 1091.35 11.0469 1092.55 13.043 1093.75 15.043 1094.71 17.2031 1095.27 19.4453L1102.95 50.0039" fill="#231f20" fill-rule="evenodd" />
<path transform="matrix(.1,0,0,-.1,366.803,531.412)" d="M1101.2 134.398C1101.35 135.121 1101.52 135.68 1101.75 136.16 1101.91 136.641 1102.23 137.039 1102.71 137.359 1103.19 137.602 1103.91 137.84 1104.79 137.922 1105.67 138 1106.87 138.082 1108.47 138.082 1109.43 138.082 1110.07 138.16 1110.47 138.32 1110.87 138.402 1111.04 138.879 1111.04 139.598 1111.04 140.082 1110.87 140.402 1110.55 140.48 1110.23 140.563 1109.99 140.563 1109.84 140.563 1109.27 140.563 1108.47 140.563 1107.51 140.563 1106.55 140.48 1105.59 140.48 1104.55 140.48 1103.51 140.402 1102.55 140.402 1101.59 140.402 1100.63 140.32 1099.83 140.32 1099.27 140.32 1098.71 140.32 1097.91 140.32 1096.95 140.402 1095.99 140.402 1095.04 140.402 1094 140.48 1092.95 140.48 1091.91 140.48 1090.95 140.563 1090 140.563 1089.2 140.563 1088.63 140.563 1088.39 140.563 1088.07 140.48 1087.67 140.402 1087.27 140.238 1087.04 139.762 1087.04 138.961 1087.04 138.559 1087.2 138.32 1087.59 138.242 1087.99 138.16 1088.55 138.082 1089.27 138.082 1090.95 138.082 1092.31 138 1093.36 137.922 1094.32 137.758 1094.79 137.281 1094.79 136.559 1094.79 136.32 1094.79 136.16 1094.79 136 1094.79 135.922 1094.71 135.68 1094.64 135.277L1083.84 92.1602C1083.67 91.4414 1083.52 90.8008 1083.35 90.3203 1083.11 89.8438 1082.79 89.4414 1082.31 89.2031 1081.83 88.8828 1081.2 88.6445 1080.32 88.5625 1079.44 88.4805 1078.16 88.4023 1076.55 88.4023 1075.68 88.4023 1075.04 88.3242 1074.63 88.2422 1074.23 88.082 1074 87.6016 1074 86.8008 1074 86.4023 1074.16 86.1641 1074.55 86.082 1074.88 86 1075.12 85.9219 1075.2 85.9219 1075.75 85.9219 1076.55 85.9219 1077.52 86 1078.39 86 1079.44 86 1080.47 86.082 1081.51 86.082 1082.47 86.082 1083.43 86.1641 1084.31 86.1641 1085.11 86.1641 1085.68 86.1641 1086.23 86.1641 1087.04 86.1641 1087.99 86.1641 1088.95 86.082 1090 86.082 1091.04 86.082 1092.07 86 1093.04 86 1094.07 86 1095.04 85.9219 1095.84 85.9219 1096.39 85.9219 1096.71 85.9219 1097.04 86 1097.43 86.1641 1097.83 86.2422 1098 86.7227 1098 87.4414 1098 87.9258 1097.83 88.2422 1097.51 88.3242 1097.11 88.4023 1096.48 88.4023 1095.59 88.4023 1094.88 88.4023 1094.32 88.4023 1093.91 88.4023 1093.51 88.4023 1092.95 88.4805 1092.16 88.5625 1091.27 88.6445 1090.79 88.8047 1090.55 89.043 1090.32 89.2031 1090.15 89.5234 1090.15 89.9219 1090.15 90.2422 1090.15 90.5625 1090.23 90.8828 1090.32 91.2031 1090.39 91.5195 1090.47 91.7617L1101.2 134.398" fill="#231f20" fill-rule="evenodd" />
<path transform="matrix(.1,0,0,-.1,366.803,531.412)" stroke-width="11.3386" stroke-linecap="butt" stroke-miterlimit="2.6131" stroke-linejoin="miter" fill="none" stroke="#231f20" d="M1131.95 563.031 1210.16 517.871 1288.38 472.711V653.348L1210.16 608.188 1131.95 563.031Z" />
<path transform="matrix(.1,0,0,-.1,366.803,531.412)" stroke-width="5.04" stroke-linecap="butt" stroke-miterlimit="2.6131" stroke-linejoin="miter" fill="none" stroke="#231f20" d="M1319.46 45.2656 1288.38 76.3555" />
<path transform="matrix(.1,0,0,-.1,366.803,531.412)" stroke-width="5.04" stroke-linecap="butt" stroke-miterlimit="2.6131" stroke-linejoin="miter" fill="none" stroke="#231f20" d="M1365.02 45.5352 1288.38 122.176" />
<path transform="matrix(.1,0,0,-.1,366.803,531.412)" stroke-width="5.04" stroke-linecap="butt" stroke-miterlimit="2.6131" stroke-linejoin="miter" fill="none" stroke="#231f20" d="M1365.02 91.3516 1288.38 167.992" />
<path transform="matrix(.1,0,0,-.1,366.803,531.412)" stroke-width="5.04" stroke-linecap="butt" stroke-miterlimit="2.6131" stroke-linejoin="miter" fill="none" stroke="#231f20" d="M1365.02 137.172 1288.38 213.813" />
<path transform="matrix(.1,0,0,-.1,366.803,531.412)" stroke-width="5.04" stroke-linecap="butt" stroke-miterlimit="2.6131" stroke-linejoin="miter" fill="none" stroke="#231f20" d="M1365.02 182.996 1288.38 259.637" />
<path transform="matrix(.1,0,0,-.1,366.803,531.412)" stroke-width="5.04" stroke-linecap="butt" stroke-miterlimit="2.6131" stroke-linejoin="miter" fill="none" stroke="#231f20" d="M1365.02 228.816 1288.38 305.453" />
<path transform="matrix(.1,0,0,-.1,366.803,531.412)" stroke-width="5.04" stroke-linecap="butt" stroke-miterlimit="2.6131" stroke-linejoin="miter" fill="none" stroke="#231f20" d="M1365.02 274.637 1288.38 351.277" />
<path transform="matrix(.1,0,0,-.1,366.803,531.412)" stroke-width="5.04" stroke-linecap="butt" stroke-miterlimit="2.6131" stroke-linejoin="miter" fill="none" stroke="#231f20" d="M1365.02 320.457 1288.38 397.098" />
<path transform="matrix(.1,0,0,-.1,366.803,531.412)" stroke-width="5.04" stroke-linecap="butt" stroke-miterlimit="2.6131" stroke-linejoin="miter" fill="none" stroke="#231f20" d="M1365.02 366.277 1288.38 442.918" />
<path transform="matrix(.1,0,0,-.1,366.803,531.412)" stroke-width="5.04" stroke-linecap="butt" stroke-miterlimit="2.6131" stroke-linejoin="miter" fill="none" stroke="#231f20" d="M1365.02 412.098 1288.38 488.738" />
<path transform="matrix(.1,0,0,-.1,366.803,531.412)" stroke-width="5.04" stroke-linecap="butt" stroke-miterlimit="2.6131" stroke-linejoin="miter" fill="none" stroke="#231f20" d="M1365.02 457.918 1288.38 534.563" />
<path transform="matrix(.1,0,0,-.1,366.803,531.412)" stroke-width="5.04" stroke-linecap="butt" stroke-miterlimit="2.6131" stroke-linejoin="miter" fill="none" stroke="#231f20" d="M1365.02 503.742 1288.38 580.383" />
<path transform="matrix(.1,0,0,-.1,366.803,531.412)" stroke-width="5.04" stroke-linecap="butt" stroke-miterlimit="2.6131" stroke-linejoin="miter" fill="none" stroke="#231f20" d="M1365.02 549.559 1288.38 626.203" />
<path transform="matrix(.1,0,0,-.1,366.803,531.412)" stroke-width="5.04" stroke-linecap="butt" stroke-miterlimit="2.6131" stroke-linejoin="miter" fill="none" stroke="#231f20" d="M1365.02 595.379 1288.38 672.023" />
<path transform="matrix(.1,0,0,-.1,366.803,531.412)" stroke-width="5.04" stroke-linecap="butt" stroke-miterlimit="2.6131" stroke-linejoin="miter" fill="none" stroke="#231f20" d="M1365.02 641.203 1288.38 717.84" />
<path transform="matrix(.1,0,0,-.1,366.803,531.412)" stroke-width="5.04" stroke-linecap="butt" stroke-miterlimit="2.6131" stroke-linejoin="miter" fill="none" stroke="#231f20" d="M1365.02 687.023 1288.38 763.664" />
<path transform="matrix(.1,0,0,-.1,366.803,531.412)" stroke-width="5.04" stroke-linecap="butt" stroke-miterlimit="2.6131" stroke-linejoin="miter" fill="none" stroke="#231f20" d="M1365.02 732.844 1288.38 809.484" />
<path transform="matrix(.1,0,0,-.1,366.803,531.412)" stroke-width="5.04" stroke-linecap="butt" stroke-miterlimit="2.6131" stroke-linejoin="miter" fill="none" stroke="#231f20" d="M1365.02 778.66 1288.38 855.301" />
<path transform="matrix(.1,0,0,-.1,366.803,531.412)" stroke-width="5.04" stroke-linecap="butt" stroke-miterlimit="2.6131" stroke-linejoin="miter" fill="none" stroke="#231f20" d="M1365.02 824.488 1288.38 901.129" />
<path transform="matrix(.1,0,0,-.1,366.803,531.412)" stroke-width="5.04" stroke-linecap="butt" stroke-miterlimit="2.6131" stroke-linejoin="miter" fill="none" stroke="#231f20" d="M1365.02 870.305 1288.38 946.949" />
<path transform="matrix(.1,0,0,-.1,366.803,531.412)" stroke-width="5.04" stroke-linecap="butt" stroke-miterlimit="2.6131" stroke-linejoin="miter" fill="none" stroke="#231f20" d="M1365.02 916.129 1288.38 992.77" />
<path transform="matrix(.1,0,0,-.1,366.803,531.412)" stroke-width="5.04" stroke-linecap="butt" stroke-miterlimit="2.6131" stroke-linejoin="miter" fill="none" stroke="#231f20" d="M1365.02 961.949 1288.38 1038.59" />
<path transform="matrix(.1,0,0,-.1,366.803,531.412)" stroke-width="5.04" stroke-linecap="butt" stroke-miterlimit="2.6131" stroke-linejoin="miter" fill="none" stroke="#231f20" d="M1365.02 1007.77 1288.38 1084.41" />
<path transform="matrix(.1,0,0,-.1,366.803,531.412)" stroke-width="5.04" stroke-linecap="butt" stroke-miterlimit="2.6131" stroke-linejoin="miter" fill="none" stroke="#231f20" d="M1365.02 1053.59 1288.38 1130.23" />
<path transform="matrix(.1,0,0,-.1,366.803,531.412)" stroke-width="5.04" stroke-linecap="butt" stroke-miterlimit="2.6131" stroke-linejoin="miter" fill="none" stroke="#231f20" d="M1365.02 1099.41 1288.38 1176.05" />
<path transform="matrix(.1,0,0,-.1,366.803,531.412)" stroke-width="5.04" stroke-linecap="butt" stroke-miterlimit="2.6131" stroke-linejoin="miter" fill="none" stroke="#231f20" d="M1365.02 1145.23 1288.38 1221.87" />
<path transform="matrix(.1,0,0,-.1,366.803,531.412)" stroke-width="5.04" stroke-linecap="butt" stroke-miterlimit="2.6131" stroke-linejoin="miter" fill="none" stroke="#231f20" d="M1365.02 1191.05 1288.38 1267.69" />
<path transform="matrix(.1,0,0,-.1,366.803,531.412)" stroke-width="5.04" stroke-linecap="butt" stroke-miterlimit="2.6131" stroke-linejoin="miter" fill="none" stroke="#231f20" d="M1365.02 1236.87 1288.38 1313.51" />
<path transform="matrix(.1,0,0,-.1,366.803,531.412)" stroke-width="5.04" stroke-linecap="butt" stroke-miterlimit="2.6131" stroke-linejoin="miter" fill="none" stroke="#231f20" d="M1365.02 1282.69 1288.38 1359.33" />
<path transform="matrix(.1,0,0,-.1,366.803,531.412)" stroke-width="5.04" stroke-linecap="butt" stroke-miterlimit="2.6131" stroke-linejoin="miter" fill="none" stroke="#231f20" d="M1365.02 1328.51 1288.38 1405.15" />
<path transform="matrix(.1,0,0,-.1,366.803,531.412)" stroke-width="5.04" stroke-linecap="butt" stroke-miterlimit="2.6131" stroke-linejoin="miter" fill="none" stroke="#231f20" d="M1365.02 1374.33 1288.38 1450.97" />
<path transform="matrix(.1,0,0,-.1,366.803,531.412)" stroke-width="5.04" stroke-linecap="butt" stroke-miterlimit="2.6131" stroke-linejoin="miter" fill="none" stroke="#231f20" d="M1365.02 1420.15 1288.38 1496.79" />
<path transform="matrix(.1,0,0,-.1,366.803,531.412)" stroke-width="5.04" stroke-linecap="butt" stroke-miterlimit="2.6131" stroke-linejoin="miter" fill="none" stroke="#231f20" d="M1365.02 1465.97 1288.38 1542.61" />
<path transform="matrix(.1,0,0,-.1,366.803,531.412)" stroke-width="5.04" stroke-linecap="butt" stroke-miterlimit="2.6131" stroke-linejoin="miter" fill="none" stroke="#231f20" d="M1365.02 1511.79 1288.38 1588.43" />
<path transform="matrix(.1,0,0,-.1,366.803,531.412)" stroke-width="5.04" stroke-linecap="butt" stroke-miterlimit="2.6131" stroke-linejoin="miter" fill="none" stroke="#231f20" d="M1365.02 1557.61 1288.38 1634.25" />
<path transform="matrix(.1,0,0,-.1,366.803,531.412)" stroke-width="5.04" stroke-linecap="butt" stroke-miterlimit="2.6131" stroke-linejoin="miter" fill="none" stroke="#231f20" d="M1365.02 1603.43 1288.38 1680.07" />
<path transform="matrix(.1,0,0,-.1,366.803,531.412)" stroke-width="5.04" stroke-linecap="butt" stroke-miterlimit="2.6131" stroke-linejoin="miter" fill="none" stroke="#231f20" d="M1365.02 1649.25 1288.38 1725.89" />
<path transform="matrix(.1,0,0,-.1,366.803,531.412)" stroke-width="5.04" stroke-linecap="butt" stroke-miterlimit="2.6131" stroke-linejoin="miter" fill="none" stroke="#231f20" d="M1365.02 1695.07 1288.38 1771.71" />
<path transform="matrix(.1,0,0,-.1,366.803,531.412)" stroke-width="5.04" stroke-linecap="butt" stroke-miterlimit="2.6131" stroke-linejoin="miter" fill="none" stroke="#231f20" d="M1365.02 1740.89 1288.38 1817.53" />
<path transform="matrix(.1,0,0,-.1,366.803,531.412)" stroke-width="5.04" stroke-linecap="butt" stroke-miterlimit="2.6131" stroke-linejoin="miter" fill="none" stroke="#231f20" d="M1365.02 1786.71 1308.78 1842.95" />
<path transform="matrix(.1,0,0,-.1,366.803,531.412)" stroke-width="5.04" stroke-linecap="butt" stroke-miterlimit="2.6131" stroke-linejoin="miter" fill="none" stroke="#231f20" d="M1365.02 1832.53 1354.6 1842.95" />
<path transform="matrix(.1,0,0,-.1,366.803,531.412)" stroke-width="11.3386" stroke-linecap="butt" stroke-miterlimit="2.6131" stroke-linejoin="miter" fill="none" stroke="#231f20" d="M1288.38 1842.95V44.6289" />
<path transform="matrix(.1,0,0,-.1,366.803,531.412)" d="M42.3398 216.539C72.7383 227.965 106.84 212.488 118.262 182.098 129.68 151.699 114.207 117.594 83.8125 106.172 53.4141 94.75 19.3125 110.223 7.89063 140.621-3.53125 171.016 11.9453 205.121 42.3398 216.539" fill="#231f20" fill-rule="evenodd" />
<path transform="matrix(.1,0,0,-.1,366.803,531.412)" stroke-width="2.16" stroke-linecap="butt" stroke-miterlimit="2.6131" stroke-linejoin="miter" fill="none" stroke="#231f20" d="M42.3398 216.539C72.7383 227.965 106.84 212.488 118.262 182.098 129.68 151.699 114.207 117.594 83.8125 106.172 53.4141 94.75 19.3125 110.223 7.89063 140.621-3.53125 171.016 11.9453 205.121 42.3398 216.539" />
<path transform="matrix(.1,0,0,-.1,366.803,531.412)" d="M1118.77 567.848C1116.13 560.504 1119.95 552.355 1127.29 549.703 1134.64 547.051 1142.79 550.883 1145.43 558.219 1148.08 565.563 1144.27 573.711 1136.91 576.363 1129.58 579.016 1121.43 575.188 1118.77 567.848" fill="#231f20" fill-rule="evenodd" />
<path transform="matrix(.1,0,0,-.1,366.803,531.412)" stroke-width="5.6693" stroke-linecap="butt" stroke-dasharray="96.0379,16.8066,12.0047,16.8066" stroke-miterlimit="2.6131" stroke-linejoin="miter" fill="none" stroke="#231f20" d="M1219.2 595.773 44.5742 154.406" />
<path transform="matrix(.1,0,0,-.1,366.803,531.412)" stroke-width="5.6693" stroke-linecap="butt" stroke-miterlimit="2.6131" stroke-linejoin="miter" fill="none" stroke="#231f20" d="M662.738 563.047 409.5 563.051" />
<path transform="matrix(.1,0,0,-.1,366.803,531.412)" d="M1141.27 573.832C1135.33 578.891 1126.36 578.176 1121.29 572.242 1116.23 566.297 1116.95 557.32 1122.88 552.258 1128.82 547.195 1137.79 547.906 1142.86 553.848 1147.92 559.789 1147.21 568.762 1141.27 573.832" fill="#231f20" fill-rule="evenodd" />
<path transform="matrix(.1,0,0,-.1,366.803,531.412)" stroke-width="11.3386" stroke-linecap="butt" stroke-miterlimit="2.6131" stroke-linejoin="miter" fill="none" stroke="#231f20" d="M1131.95 1705.08 1210.16 1659.92 1288.38 1614.76V1795.39L1210.16 1750.23 1131.95 1705.08Z" />
<path transform="matrix(.1,0,0,-.1,366.803,531.412)" d="M1141.27 1715.87C1135.33 1720.94 1126.36 1720.22 1121.29 1714.28 1116.23 1708.34 1116.95 1699.38 1122.88 1694.3 1128.82 1689.24 1137.79 1689.95 1142.86 1695.89 1147.92 1701.83 1147.21 1710.81 1141.27 1715.87" fill="#231f20" fill-rule="evenodd" />
<path transform="matrix(.1,0,0,-.1,366.803,531.412)" stroke-width="5.6693" stroke-linecap="butt" stroke-miterlimit="2.6131" stroke-linejoin="miter" fill="none" stroke="#231f20" d="M1132.23 562.684C1137.18 548.93 1151.16 541.363 1163.44 545.789 1175.72 550.219 1181.66 564.965 1176.7 578.719 1166.78 606.23 1138.83 621.355 1114.27 612.5 1089.7 603.648 1077.84 574.164 1087.75 546.656 1102.63 505.387 1144.57 482.695 1181.4 495.973 1218.24 509.254 1236.04 553.477 1221.17 594.746 1201.34 649.777 1145.43 680.027 1096.31 662.32 1047.18 644.613 1023.45 585.648 1043.28 530.621" />
<path transform="matrix(.1,0,0,-.1,366.803,531.412)" d="M505.371 436.625C505.133 435.781 505.012 435.305 504.895 435.063 504.773 434.824 504.773 434.586 504.773 434.223 504.773 432.902 505.254 431.945 506.094 431.461 506.934 431.102 507.652 430.863 508.25 430.863 508.613 430.863 509.211 430.984 510.293 431.344 511.254 431.703 512.094 432.664 512.695 433.984 512.813 434.223 512.934 434.703 513.055 435.422 513.172 436.145 513.414 437.344 513.773 438.902 514.012 440.465 514.371 442.621 514.973 445.383 515.453 448.141 516.051 451.742 516.891 455.941 517.492 455.824 517.973 455.824 518.574 455.703 519.051 455.703 519.773 455.703 520.852 455.703 525.773 455.703 530.57 456.781 535.25 458.941 539.934 461.102 544.012 463.98 547.609 467.465 551.094 470.945 553.973 475.023 556.133 479.582 558.172 484.141 559.254 488.82 559.254 493.5 559.254 495.781 559.012 498.063 558.41 500.102 557.813 502.141 556.852 503.82 555.773 505.383 554.691 506.82 553.25 508.02 551.57 508.859 549.77 509.703 547.852 510.063 545.574 510.063 541.254 510.063 537.531 508.742 534.289 506.102 531.051 503.34 528.293 499.863 525.891 495.543 523.371 491.102 521.211 486.184 519.293 480.543 517.375 474.902 515.574 469.262 513.773 463.383 507.293 464.582 502.371 466.742 499.133 469.984 495.773 473.102 494.094 476.824 494.094 481.145 494.094 481.98 494.332 483.305 494.695 485.223 495.055 487.141 495.531 489.301 496.375 491.703 497.215 494.102 498.176 496.625 499.492 499.145 500.691 501.664 502.254 503.941 504.055 505.98 504.531 506.582 504.773 506.941 504.895 507.059 505.012 507.184 505.012 507.422 505.012 507.543 505.012 507.781 504.895 508.02 504.773 508.383 504.652 508.621 504.172 508.742 503.57 508.742 502.734 508.742 501.535 507.781 500.211 505.859 498.773 503.941 497.332 501.539 496.016 498.66 494.695 495.66 493.496 492.543 492.535 489.184 491.453 485.824 490.973 482.703 490.973 479.82 490.973 474.18 492.773 469.262 496.492 465.184 500.211 461.102 505.254 458.344 511.734 456.781L505.371 436.625ZM521.934 462.664C521.453 462.664 521.094 462.664 520.852 462.664 520.613 462.664 520.254 462.664 519.773 462.781 519.051 462.781 518.574 462.781 518.453 462.902 518.332 463.023 518.211 463.145 518.211 463.262 518.211 463.383 518.332 463.98 518.574 465.184 518.691 466.266 518.934 467.582 519.293 469.145 519.535 470.703 519.773 472.145 520.133 473.461 520.371 474.781 520.492 475.742 520.613 476.223 521.57 480.063 522.895 483.664 524.453 486.902 526.012 490.145 527.813 493.023 529.852 495.422 531.895 497.82 534.172 499.742 536.691 501.063 539.211 502.379 541.73 503.102 544.371 503.102 546.41 503.102 548.211 502.738 549.652 502.023 551.094 501.305 552.289 500.344 553.25 499.145 554.09 497.941 554.813 496.625 555.293 495.184 555.652 493.742 555.891 492.305 555.891 490.863 555.891 487.5 555.051 484.141 553.25 480.781 551.453 477.422 548.934 474.422 545.934 471.781 542.813 469.023 539.211 466.863 535.133 465.184 530.934 463.504 526.613 462.664 521.934 462.664" fill="#231f20" fill-rule="evenodd" />
<path transform="matrix(.1,0,0,-.1,366.803,531.412)" d="M1027.44 675.48C1026.48 675.48 1025.64 675.48 1024.8 675.363 1023.96 675.238 1023 674.641 1022.16 673.805 1021.2 672.961 1020.6 672.004 1020.36 671.16 1020.12 670.203 1020 669.484 1020 669.121 1020 667.684 1020.48 666.602 1021.44 666 1022.28 665.281 1023.36 664.922 1024.44 664.922 1026.24 664.922 1027.8 665.641 1029.12 666.961 1030.44 668.281 1031.16 670.203 1031.16 672.602 1031.16 675.602 1029.84 678 1027.32 680.043 1024.8 681.961 1021.32 682.922 1017 682.922 1012.92 682.922 1008.96 681.961 1005.12 680.043 1001.28 678 997.922 675.48 994.922 672.242 991.922 669 989.402 665.402 987.602 661.32 985.801 657.242 984.844 653.043 984.844 648.84 984.844 646.082 985.324 643.563 986.16 641.16 987.004 638.641 988.203 636.48 989.883 634.684 991.563 632.762 993.602 631.324 996 630.242 998.402 629.043 1001.16 628.563 1004.28 628.563 1008.6 628.563 1012.44 629.164 1015.8 630.602 1019.16 631.922 1022.04 633.363 1024.32 635.043 1026.6 636.723 1028.4 638.281 1029.72 639.844 1030.92 641.402 1031.52 642.363 1031.52 642.723 1031.52 643.082 1031.4 643.441 1031.16 643.805 1030.8 644.164 1030.44 644.281 1030.08 644.281 1029.72 644.281 1029.48 644.164 1029.36 644.043 1029.24 643.922 1028.88 643.563 1028.52 643.082 1026.12 640.082 1023.6 637.801 1020.96 636.242 1018.32 634.684 1015.8 633.48 1013.52 632.762 1011.24 631.922 1009.2 631.563 1007.52 631.441 1005.84 631.324 1004.88 631.203 1004.52 631.203 1000.8 631.203 998.043 632.523 996.359 635.043 994.563 637.563 993.723 640.684 993.723 644.281 993.723 645.48 993.844 647.039 994.203 649.082 994.441 651 994.801 653.043 995.402 655.32 996 657.602 996.602 659.883 997.441 662.16 998.281 664.441 999.121 666.48 1000.2 668.281 1002 671.762 1004.52 674.641 1007.52 676.922 1010.52 679.199 1013.76 680.281 1017.12 680.281 1019.16 680.281 1021.2 679.918 1023.24 679.082 1025.16 678.242 1026.6 677.039 1027.44 675.48" fill="#231f20" fill-rule="evenodd" />
<path transform="matrix(.1,0,0,-.1,366.803,531.412)" d="M546.691 1149.79C546.691 1149.9 546.691 1150.14 546.574 1150.5 546.453 1150.86 545.973 1151.1 545.133 1151.1 544.414 1151.1 543.453 1151.1 542.133 1150.98 540.813 1150.86 539.375 1150.74 537.934 1150.63 536.492 1150.5 535.055 1150.38 533.734 1150.27 532.414 1150.14 531.336 1150.02 530.492 1149.9 530.012 1149.79 529.535 1149.66 529.051 1149.54 528.453 1149.3 528.215 1148.58 528.215 1147.5 528.215 1146.78 528.453 1146.42 529.051 1146.3 529.535 1146.18 530.254 1146.06 531.094 1146.06 533.973 1146.06 535.652 1145.95 536.254 1145.58 536.852 1145.22 537.094 1144.63 537.094 1144.02L536.734 1141.63 519.336 1072.51C519.094 1071.67 518.977 1071.07 518.977 1070.82 518.852 1070.59 518.852 1070.23 518.852 1069.87 518.852 1068.55 519.336 1067.59 520.176 1067.11 521.012 1066.75 521.734 1066.51 522.336 1066.51 523.172 1066.51 523.895 1066.75 524.734 1067.23 525.457 1067.71 526.055 1068.3 526.414 1069.03 526.535 1069.15 526.773 1069.87 527.133 1071.19 527.492 1072.39 527.852 1073.83 528.332 1075.63 528.691 1077.43 529.176 1079.35 529.773 1081.51 530.254 1083.54 530.734 1085.59 531.211 1087.5 531.695 1089.3 532.055 1090.98 532.414 1092.43 532.773 1093.87 533.012 1094.83 533.133 1095.3 534.215 1095.19 535.531 1095.07 537.094 1094.7 538.652 1094.34 540.094 1093.87 541.652 1093.14 543.094 1092.31 544.414 1091.34 545.492 1090.02 546.574 1088.71 547.051 1087.14 547.051 1085.11 547.051 1084.75 547.051 1084.39 547.051 1084.03 546.934 1083.67 546.813 1083.18 546.691 1082.59 546.574 1081.87 546.453 1081.15 546.332 1080.43 546.215 1079.71 546.215 1078.99 546.215 1078.39 546.215 1074.79 547.293 1071.91 549.453 1069.75 551.496 1067.59 554.133 1066.51 557.254 1066.51 560.973 1066.51 564.215 1068.67 566.734 1072.87 567.453 1074.19 568.051 1075.5 568.652 1076.95 569.254 1078.39 569.734 1079.71 570.094 1080.91 570.453 1081.98 570.691 1082.95 570.813 1083.79 570.93 1084.51 571.055 1084.87 571.055 1084.98 571.055 1085.59 570.813 1085.95 570.453 1086.07 570.094 1086.19 569.734 1086.19 569.613 1086.19 569.012 1086.19 568.535 1086.07 568.41 1085.83 568.293 1085.46 568.051 1084.87 567.934 1084.03 566.734 1079.59 565.414 1076.11 563.852 1073.34 562.293 1070.59 560.133 1069.15 557.492 1069.15 556.414 1069.15 555.453 1069.51 554.734 1070.35 554.016 1071.19 553.656 1072.63 553.656 1074.79 553.656 1075.87 553.773 1076.95 554.016 1078.27 554.133 1079.46 554.375 1080.55 554.613 1081.51 554.852 1082.59 554.973 1083.3 555.094 1083.67 555.094 1084.03 555.094 1084.63 555.094 1085.23 555.094 1087.14 554.613 1088.82 553.773 1090.27 552.934 1091.71 551.613 1092.91 550.055 1093.98 548.492 1094.95 546.574 1095.79 544.414 1096.39 542.254 1096.99 539.852 1097.46 537.332 1097.82 539.133 1098.91 541.055 1100.35 542.855 1102.03 544.656 1103.71 546.332 1105.27 547.652 1106.71 550.535 1109.95 553.414 1112.59 556.176 1114.86 558.934 1117.14 561.813 1118.22 564.813 1118.22 565.414 1118.22 565.773 1118.22 565.891 1118.11 566.613 1117.98 567.094 1117.86 567.332 1117.86 567.574 1117.75 567.934 1117.5 568.41 1117.14 568.535 1117.02 568.652 1117.02 568.652 1116.91 568.652 1116.91 568.773 1116.79 568.895 1116.66 567.453 1116.55 566.25 1116.3 565.414 1115.7 564.574 1115.11 563.852 1114.5 563.371 1113.9 562.773 1113.18 562.414 1112.46 562.293 1111.75 562.172 1111.03 562.055 1110.54 562.055 1110.18 562.055 1109.23 562.414 1108.27 563.133 1107.43 563.852 1106.46 565.051 1105.99 566.613 1105.99 568.172 1105.99 569.734 1106.59 571.172 1107.91 572.492 1109.23 573.215 1111.03 573.215 1113.3 573.215 1115.11 572.492 1116.91 571.172 1118.46 569.852 1120.02 567.813 1120.87 565.051 1120.87 564.215 1120.87 563.133 1120.74 562.055 1120.63 560.973 1120.38 559.652 1119.91 558.211 1119.18 556.773 1118.46 555.215 1117.39 553.414 1116.06 551.613 1114.63 549.695 1112.7 547.535 1110.31 545.492 1108.02 543.332 1105.75 541.055 1103.71 538.773 1101.55 536.492 1099.98 534.215 1099.15L546.691 1149.79" fill="#231f20" fill-rule="evenodd" />
<path transform="matrix(.1,0,0,-.1,366.803,531.412)" d="M1025.87 1720.48C1023.47 1716.52 1021.07 1713.88 1018.68 1712.56 1016.27 1711.24 1013.75 1710.52 1011.12 1710.4 1010.39 1710.28 1009.79 1710.16 1009.32 1710.04 1008.83 1709.8 1008.59 1709.08 1008.59 1708 1008.59 1707.16 1009.07 1706.68 1010.15 1706.68 1011.71 1706.68 1013.51 1706.8 1015.31 1706.92 1017.11 1707.04 1018.79 1707.04 1020.47 1707.04 1022.51 1707.04 1024.55 1707.04 1026.59 1706.92 1028.63 1706.8 1030.55 1706.68 1032.47 1706.68 1032.84 1706.68 1033.31 1706.8 1033.91 1707.04 1034.51 1707.16 1034.75 1707.88 1034.75 1708.96 1034.75 1709.56 1034.51 1710.04 1034.15 1710.16 1033.67 1710.28 1033.2 1710.4 1032.84 1710.4 1031.51 1710.52 1030.19 1710.88 1028.99 1711.48 1027.79 1712.08 1027.19 1713.04 1027.19 1714.6 1027.19 1715.32 1027.31 1716.04 1027.67 1716.76 1028.03 1717.36 1028.39 1718.2 1028.88 1719.04 1029.11 1719.4 1029.35 1719.76 1029.59 1720.12 1029.71 1720.48 1030.07 1721.08 1030.68 1722.04 1031.27 1723 1032.11 1724.44 1033.2 1726.36 1034.27 1728.16 1035.95 1730.92 1037.99 1734.4H1068.11C1068.23 1733.8 1068.35 1732.48 1068.59 1730.44 1068.71 1728.4 1068.95 1726.24 1069.19 1723.96 1069.43 1721.68 1069.67 1719.52 1069.79 1717.72 1069.91 1715.8 1070.03 1714.72 1070.03 1714.36 1070.03 1713.52 1069.67 1712.8 1069.07 1712.32 1068.35 1711.72 1067.51 1711.36 1066.67 1711.12 1065.71 1710.76 1064.75 1710.64 1063.79 1710.52 1062.71 1710.4 1061.99 1710.4 1061.39 1710.4 1060.55 1710.4 1059.83 1710.28 1059.35 1710.16 1058.75 1709.92 1058.51 1709.2 1058.51 1708 1058.51 1707.4 1058.75 1707.04 1059.23 1706.92 1059.71 1706.8 1060.07 1706.68 1060.19 1706.68 1062.71 1706.68 1065.23 1706.8 1067.75 1706.92 1070.27 1707.04 1072.67 1707.04 1075.19 1707.04 1075.91 1707.04 1076.88 1707.04 1078.19 1707.04 1079.39 1706.92 1080.71 1706.92 1082.03 1706.92 1083.35 1706.8 1084.55 1706.8 1085.87 1706.8 1087.07 1706.68 1088.03 1706.68 1088.75 1706.68 1089.11 1706.68 1089.59 1706.8 1090.19 1707.04 1090.67 1707.16 1090.91 1707.88 1090.91 1709.08 1090.91 1709.68 1090.67 1710.16 1090.19 1710.28 1089.59 1710.4 1088.99 1710.4 1088.15 1710.4 1086.35 1710.4 1084.91 1710.52 1083.83 1710.64 1082.75 1710.76 1082.03 1710.88 1081.55 1711.24 1081.07 1711.6 1080.83 1711.96 1080.71 1712.56 1080.59 1713.16 1080.47 1713.88 1080.35 1714.72L1073.03 1789.72C1072.91 1790.92 1072.67 1791.76 1072.55 1792.12 1072.43 1792.48 1071.83 1792.6 1070.75 1792.6 1069.79 1792.6 1069.19 1792.48 1068.83 1792.12 1068.47 1791.76 1067.99 1791.16 1067.63 1790.56L1025.87 1720.48ZM1040.27 1738.12 1063.91 1777.72 1067.75 1738.12H1040.27" fill="#231f20" fill-rule="evenodd" />
<path transform="matrix(.1,0,0,-.1,366.803,531.412)" d="M1174.59 441.125C1174.59 445.922 1173.87 450.363 1172.31 454.32 1170.75 458.281 1168.71 461.762 1166.07 464.52 1163.31 467.281 1160.07 469.563 1156.35 471.121 1152.63 472.68 1148.43 473.402 1143.99 473.402 1139.67 473.402 1135.35 472.68 1131.15 471.242 1126.83 469.801 1122.75 467.883 1118.91 465.363 1115.07 462.844 1111.47 459.844 1108.11 456.363 1104.75 452.883 1101.87 449.043 1099.47 444.961 1097.07 440.883 1095.15 436.563 1093.83 432.004 1092.39 427.445 1091.67 422.883 1091.67 418.203 1091.67 413.285 1092.52 408.844 1094.07 404.883 1095.63 400.926 1097.79 397.563 1100.55 394.805 1103.31 392.043 1106.55 389.883 1110.27 388.324 1113.99 386.887 1118.07 386.164 1122.39 386.164 1126.59 386.164 1130.91 386.887 1135.11 388.203 1139.31 389.645 1143.39 391.566 1147.23 394.086 1151.07 396.605 1154.67 399.484 1158.03 402.965 1161.39 406.324 1164.27 410.043 1166.79 414.125 1169.19 418.203 1171.11 422.523 1172.55 427.082 1173.87 431.645 1174.59 436.32 1174.59 441.125ZM1123.11 389.281C1120.11 389.281 1117.47 389.883 1114.95 391.082 1112.43 392.164 1110.39 393.844 1108.59 396.125 1106.79 398.406 1105.35 401.043 1104.39 404.164 1103.31 407.285 1102.83 410.883 1102.83 414.844 1102.83 416.164 1102.95 418.082 1103.31 420.844 1103.55 423.602 1104.03 426.605 1104.88 430.082 1105.59 433.445 1106.67 437.043 1108.11 440.762 1109.55 444.484 1111.47 448.203 1113.75 451.684 1115.79 454.805 1118.07 457.563 1120.59 459.844 1122.99 462.121 1125.51 464.16 1128.03 465.723 1130.55 467.281 1133.19 468.363 1135.83 469.199 1138.35 470.043 1140.87 470.402 1143.27 470.402 1145.79 470.402 1148.19 469.922 1150.71 469.082 1153.11 468.242 1155.27 466.801 1157.31 464.879 1159.23 462.844 1160.79 460.324 1162.11 457.203 1163.31 454.082 1163.91 450.242 1163.91 445.805 1163.91 443.645 1163.67 440.883 1163.19 437.641 1162.71 434.402 1161.87 430.801 1160.79 427.082 1159.71 423.242 1158.15 419.281 1156.23 415.324 1154.19 411.242 1151.79 407.402 1148.79 403.684 1147.35 401.883 1145.67 400.082 1143.75 398.406 1141.83 396.605 1139.79 395.043 1137.63 393.727 1135.35 392.406 1133.07 391.324 1130.55 390.484 1128.03 389.645 1125.63 389.281 1123.11 389.281" fill="#231f20" fill-rule="evenodd" />
<path transform="matrix(.1,0,0,-.1,366.803,531.412)" d="M43.0625 260.605C42.7031 259.406 42.4609 258.445 42.2266 257.727 41.8633 257.004 41.3828 256.402 40.7852 256.043 40.0664 255.684 39.1055 255.324 37.7852 255.203 36.4648 255.086 34.5469 254.965 32.1445 254.965 31.0664 254.965 30.3438 254.844 29.7422 254.727 29.1445 254.484 28.9063 253.766 28.9063 252.566 28.9063 251.965 29.1445 251.605 29.7422 251.484 30.2266 251.363 31.0664 251.246 32.1445 251.246H74.9805C79.6602 251.246 84.1055 252.086 88.1836 253.645 92.1445 255.203 95.625 257.363 98.6211 259.887 101.621 262.406 103.902 265.164 105.582 268.164 107.262 271.164 108.102 274.164 108.102 277.164 108.102 281.484 106.422 285.203 103.18 288.445 99.9414 291.566 95.3828 293.484 89.5039 294.086 92.6211 294.684 95.7422 295.645 98.7422 296.961 101.742 298.281 104.383 299.965 106.781 302 109.063 303.922 110.98 306.082 112.422 308.605 113.863 311.125 114.582 313.762 114.582 316.645 114.582 318.922 114.102 320.961 113.141 323.004 112.18 325.043 110.742 326.723 108.82 328.281 106.902 329.84 104.621 331.043 101.863 331.883 99.1016 332.719 95.8633 333.203 92.2617 333.203H51.9453C50.8633 333.203 50.0234 333.082 49.4258 332.961 48.8242 332.719 48.4648 332 48.4648 330.801 48.4648 330.199 48.7031 329.84 49.3047 329.723 49.9023 329.602 50.7422 329.48 51.8242 329.48 51.9453 329.48 52.543 329.48 53.3828 329.48 54.3438 329.48 55.3047 329.363 56.3828 329.242 57.4648 329.121 58.3047 328.883 58.9023 328.762 59.3828 328.641 59.625 328.164 59.625 327.32 59.625 327.082 59.625 326.84 59.5039 326.602 59.3828 326.242 59.2656 325.762 59.1445 325.043L43.0625 260.605ZM61.1836 295.164 68.625 324.922C68.8633 326.004 69.1016 326.84 69.3438 327.441 69.582 328.043 69.9414 328.402 70.3008 328.762 70.6602 329.121 71.2617 329.242 72.1016 329.363 72.8203 329.48 73.7813 329.48 75.1055 329.48H90.582C93.2227 329.48 95.3828 329.121 97.0625 328.281 98.7422 327.441 100.063 326.48 101.145 325.281 102.102 324.082 102.82 322.762 103.18 321.324 103.539 319.766 103.664 318.441 103.664 317.121 103.664 314.484 103.063 311.844 101.863 309.324 100.543 306.684 98.8633 304.285 96.7031 302.242 94.4219 300.082 91.7813 298.402 88.7852 297.086 85.7813 295.762 82.4219 295.164 78.7031 295.164H61.1836ZM55.7813 254.965C54.9453 254.965 54.3438 254.965 54.1055 254.965 53.8633 254.965 53.5039 254.965 53.1445 255.086 52.543 255.203 52.0625 255.324 51.9453 255.445 51.7031 255.566 51.5859 255.805 51.5859 256.285 51.5859 256.402 51.5859 256.645 51.7031 257.004 51.7031 257.246 51.8242 257.965 52.1836 259.047L60.4609 292.523H83.1445C86.0234 292.523 88.4219 292.043 90.2227 291.082 92.0234 290.125 93.3398 288.922 94.4219 287.484 95.3828 286.043 96.1016 284.484 96.4609 282.926 96.8242 281.242 96.9414 279.805 96.9414 278.484 96.9414 275.484 96.3438 272.605 95.0234 269.844 93.7031 266.961 92.0234 264.445 89.8633 262.285 87.582 260.004 84.9414 258.324 81.9453 257.004 78.9414 255.684 75.582 254.965 72.1016 254.965H55.7813" fill="#231f20" fill-rule="evenodd" />
<path transform="matrix(.1,0,0,-.1,366.803,531.412)" d="M234.453 51.3594C234.336 50.5195 234.094 49.4375 233.855 48.3594 233.496 47.2773 233.375 46.5586 233.375 46.1992 233.375 45.1172 233.734 44.2773 234.453 43.6758 235.172 43.1992 236.016 42.957 236.855 42.957 237.574 42.957 238.414 43.1992 239.375 43.6758 240.215 44.2773 240.934 45.1172 241.293 46.3203 241.293 46.4375 241.414 46.7969 241.652 47.3984 241.773 47.9961 242.012 48.8398 242.254 49.7969 242.492 50.6406 242.734 51.5977 242.973 52.6797 243.211 53.6367 243.453 54.4766 243.574 55.1992 243.934 56.9961 244.414 58.7969 244.895 60.5977 245.371 62.3984 245.855 64.1992 246.215 65.9961 246.574 67.3203 246.934 68.7578 247.293 70.0781 247.656 71.3984 247.891 72.7188 248.254 74.0352 248.492 75.1172 248.852 76.3203 249.215 77.6367 249.574 78.957 249.691 79.7969 249.813 80.0391 250.293 81 251.012 82.3164 252.094 84 253.055 85.5586 254.371 87.2383 256.055 88.7969 257.613 90.3555 259.535 91.7969 261.813 92.9961 263.973 94.0781 266.492 94.6758 269.375 94.6758 270.691 94.6758 271.895 94.4375 272.73 93.957 273.57 93.3594 274.172 92.7578 274.652 91.918 275.133 91.0742 275.492 90.2383 275.613 89.2773 275.73 88.1992 275.852 87.2383 275.852 86.2773 275.852 84.7188 275.73 83.1602 275.371 81.5977 275.012 79.918 274.531 78.1172 274.055 76.3203 273.695 74.7578 273.332 73.4375 273.094 72.3594 272.852 71.1563 272.613 70.0781 272.371 69.1172 272.133 68.0391 271.895 67.0781 271.652 65.9961 271.293 64.918 271.051 63.7188 270.691 62.3984 270.332 61.3164 270.094 60.3555 269.973 59.6367 269.852 58.9219 269.613 58.3203 269.492 57.7188 269.375 57.1211 269.133 56.3984 269.012 55.7969 268.773 55.0781 268.535 54.2383 268.293 53.2773 268.176 52.6797 267.934 51.957 267.813 51.2383 267.691 50.5195 267.453 49.7969 267.332 49.0781 267.215 48.3594 267.094 47.7578 266.973 47.2773 266.852 46.6797 266.734 46.3203 266.734 46.1992 266.734 45.1172 267.094 44.2773 267.813 43.6758 268.535 43.1992 269.375 42.957 270.211 42.957 272.012 42.957 273.332 43.5586 273.93 45 274.531 46.3203 275.133 47.8789 275.613 49.7969 275.973 51.4805 276.574 53.7578 277.293 56.5195 278.012 59.2813 278.734 62.1563 279.453 65.0352 280.172 67.918 280.895 70.6797 281.492 73.1992 282.094 75.7188 282.57 77.5195 282.813 78.7148 282.93 79.0781 283.414 80.1563 284.254 81.957 285.09 83.6367 286.293 85.4375 287.973 87.3555 289.535 89.1563 291.57 90.8359 294.09 92.3984 296.492 93.957 299.371 94.6758 302.613 94.6758 305.133 94.6758 306.934 93.8359 307.77 92.1563 308.609 90.3555 309.094 88.4375 309.094 86.2773 309.094 84.5977 308.852 82.5586 308.25 80.1563 307.652 77.6367 307.051 75.2383 306.332 72.7188 305.492 70.1992 304.652 67.6797 303.813 65.3984 302.973 63 302.254 60.957 301.652 59.3984 301.051 57.957 300.691 56.7617 300.453 55.918 300.211 55.0781 300.094 54 300.094 52.8008 300.094 50.0391 301.051 47.6367 302.973 45.8359 304.773 43.918 307.172 42.957 309.93 42.957 312.691 42.957 315.09 43.918 317.133 45.7188 319.172 47.5195 320.73 49.5586 322.051 51.8398 323.25 54.1172 324.211 56.1602 324.809 58.1992 325.41 60.1172 325.652 61.1992 325.652 61.4375 325.652 62.0391 325.41 62.3984 325.051 62.5156 324.691 62.6406 324.332 62.6406 324.211 62.6406 323.613 62.6406 323.25 62.5156 323.133 62.2773 323.012 61.918 322.773 61.3164 322.414 60.4805 321.93 58.9219 321.332 57.2383 320.73 55.4375 320.012 53.6367 319.172 52.0781 318.094 50.6406 317.012 49.1992 315.934 47.9961 314.613 47.0391 313.289 46.0781 311.852 45.6016 310.172 45.6016 308.25 45.6016 307.293 46.918 307.293 49.5586 307.293 51.1172 307.531 52.5586 308.012 54 308.371 55.3203 308.852 56.7617 309.453 58.0781 310.051 59.6367 310.77 61.5586 311.613 63.8359 312.453 66.1172 313.172 68.5195 314.012 71.0391 314.73 73.5586 315.332 75.957 315.934 78.3555 316.531 80.7578 316.77 82.7969 316.77 84.4766 316.77 88.4375 315.574 91.5586 313.289 93.8359 311.012 96.1172 307.531 97.3164 302.973 97.3164 298.41 97.3164 294.574 96.2383 291.453 93.957 288.332 91.6758 285.691 88.918 283.414 85.6797 283.293 86.5195 283.055 87.7188 282.691 89.5156 282.332 91.1992 281.254 92.7578 279.574 94.1953 278.012 95.5195 276.453 96.3555 274.652 96.7148 272.852 97.0781 271.293 97.3164 269.734 97.3164 266.973 97.3164 264.574 96.957 262.535 96.1172 260.492 95.2773 258.691 94.1953 257.133 93.1172 255.574 92.0352 254.254 90.8359 253.293 89.7578 252.211 88.5586 251.492 87.5977 251.012 86.8789 250.652 90.3555 249.453 92.875 247.293 94.6758 245.133 96.4766 242.734 97.3164 239.973 97.3164 238.656 97.3164 237.457 97.0781 236.496 96.5977 235.414 95.9961 234.574 95.3945 233.855 94.6758 233.137 93.957 232.535 93.2344 232.176 92.5156 231.695 91.6758 231.336 91.0742 231.094 90.4766 230.492 89.3984 230.016 88.3164 229.656 86.9961 229.176 85.6797 228.816 84.3594 228.457 83.2773 228.094 82.0781 227.855 81.1172 227.734 80.2773 227.496 79.4375 227.375 78.957 227.375 78.8398 227.375 78.2383 227.613 77.8789 227.973 77.7578 228.332 77.6367 228.695 77.6367 228.816 77.6367 229.414 77.6367 229.895 77.7578 230.016 77.9961 230.133 78.2383 230.492 79.0781 230.852 80.3984 231.934 84.7188 233.137 88.1992 234.453 90.8359 235.773 93.3594 237.457 94.6758 239.613 94.6758 240.574 94.6758 241.414 94.3164 242.254 93.7188 242.973 92.9961 243.336 91.4375 243.336 89.1563 243.336 88.5586 243.336 87.957 243.336 87.4805 243.211 86.8789 243.094 86.2773 242.973 85.5586 242.852 84.8359 242.613 84 242.375 82.918 242.133 81.8398 241.773 80.6406 241.414 79.0781L234.453 51.3594" fill="#231f20" fill-rule="evenodd" />
<path transform="matrix(.1,0,0,-.1,366.803,531.412)" stroke-width="5.6693" stroke-linecap="butt" stroke-miterlimit="2.6131" stroke-linejoin="miter" fill="none" stroke="#231f20" d="M832.32 295.875 683.133 380.418" />
<path transform="matrix(.1,0,0,-.1,366.803,531.412)" stroke-width="5.6693" stroke-linecap="butt" stroke-miterlimit="2.6131" stroke-linejoin="miter" fill="none" stroke="#231f20" d="M205.875 74.5859 56.6914 159.121" />
<path transform="matrix(.1,0,0,-.1,366.803,531.412)" stroke-width="5.6693" stroke-linecap="butt" stroke-miterlimit="2.6131" stroke-linejoin="miter" fill="none" stroke="#231f20" d="M1384.73 1705.08H1553.53" />
<path transform="matrix(.1,0,0,-.1,366.803,531.412)" stroke-width="5.6693" stroke-linecap="butt" stroke-miterlimit="2.6131" stroke-linejoin="miter" fill="none" stroke="#231f20" d="M1384.73 563.047H1553.53" />
<path transform="matrix(.1,0,0,-.1,366.803,531.412)" stroke-width="5.6693" stroke-linecap="butt" stroke-miterlimit="2.6131" stroke-linejoin="miter" fill="none" stroke="#231f20" d="M1504.02 1659.48V608.641" />
<path transform="matrix(.1,0,0,-.1,366.803,531.412)" d="M1504.02 1649.25C1510.43 1649.25 1516.85 1646.88 1521.63 1642.63L1504.02 1704.79 1486.41 1642.63C1491.18 1646.88 1497.6 1649.25 1504.02 1649.25" fill="#231f20" fill-rule="evenodd" />
<path transform="matrix(.1,0,0,-.1,366.803,531.412)" d="M1504.02 618.875C1510.43 618.875 1516.85 621.254 1521.63 625.496L1504.02 563.332 1486.41 625.496C1491.18 621.254 1497.6 618.875 1504.02 618.875" fill="#231f20" fill-rule="evenodd" />
<path transform="matrix(.1,0,0,-.1,366.803,531.412)" d="M1563.32 1161.91C1563.32 1162.03 1563.32 1162.27 1563.2 1162.63 1563.08 1162.99 1562.61 1163.23 1561.76 1163.23 1561.04 1163.23 1560.09 1163.23 1558.76 1163.11 1557.44 1162.99 1556 1162.87 1554.56 1162.75 1553.12 1162.63 1551.68 1162.51 1550.36 1162.39 1549.04 1162.27 1547.96 1162.15 1547.13 1162.03 1546.64 1161.91 1546.16 1161.79 1545.68 1161.55 1545.08 1161.31 1544.84 1160.59 1544.84 1159.51 1544.84 1158.91 1545.08 1158.55 1545.68 1158.43 1546.29 1158.31 1547 1158.19 1547.84 1158.19 1549.29 1158.19 1550.36 1158.19 1551.2 1158.07 1552.04 1157.95 1552.64 1157.71 1553 1157.59 1553.36 1157.35 1553.48 1157.11 1553.61 1156.87 1553.72 1156.63 1553.72 1156.39 1553.72 1156.15L1553.36 1153.75 1538.24 1093.75C1538.13 1093.16 1538 1092.55 1537.88 1091.95 1537.77 1091.36 1537.64 1090.63 1537.64 1089.67 1537.64 1087.99 1538 1086.43 1538.6 1085.11 1539.2 1083.79 1539.93 1082.59 1541 1081.63 1542.08 1080.67 1543.16 1079.95 1544.48 1079.35 1545.8 1078.88 1547.13 1078.63 1548.56 1078.63 1552.52 1078.63 1555.52 1080.91 1557.56 1085.36 1558.16 1086.43 1558.64 1087.75 1559.13 1089.07 1559.48 1090.39 1559.84 1091.71 1560.2 1092.91 1560.56 1093.99 1560.8 1094.95 1560.92 1095.79 1561.04 1096.63 1561.16 1096.99 1561.16 1097.11 1561.16 1097.71 1560.92 1098.07 1560.56 1098.19 1560.2 1098.31 1559.84 1098.31 1559.72 1098.31 1559.13 1098.31 1558.64 1098.19 1558.52 1097.95 1558.4 1097.59 1558.16 1096.99 1558.04 1096.15 1557.56 1094.23 1557.08 1092.43 1556.48 1090.63 1555.88 1088.84 1555.28 1087.15 1554.56 1085.83 1553.84 1084.39 1553 1083.31 1552.16 1082.47 1551.2 1081.63 1550.12 1081.27 1548.93 1081.27 1548.08 1081.27 1547.36 1081.51 1546.88 1081.87 1546.4 1082.23 1546.04 1082.83 1545.8 1083.43 1545.57 1084.03 1545.44 1084.63 1545.44 1085.23 1545.32 1085.83 1545.32 1086.43 1545.32 1086.79 1545.32 1088.23 1545.32 1089.31 1545.44 1089.91 1545.57 1090.51 1545.68 1091.47 1546.04 1092.55L1563.32 1161.91" fill="#231f20" fill-rule="evenodd" />
<path transform="matrix(.1,0,0,-.1,366.803,531.412)" stroke-width="5.6693" stroke-linecap="butt" stroke-miterlimit="2.6131" stroke-linejoin="miter" fill="none" stroke="#231f20" d="M1132.09 355.426V91.0156" />
<path transform="matrix(.1,0,0,-.1,366.803,531.412)" d="M1132.09 101.254C1138.51 101.254 1144.93 103.633 1149.69 107.871L1132.09 45.707 1114.5 107.871C1119.25 103.633 1125.68 101.254 1132.09 101.254" fill="#231f20" fill-rule="evenodd" />
<path transform="matrix(.1,0,0,-.1,366.803,531.412)" stroke-width="5.6693" stroke-linecap="butt" stroke-miterlimit="2.6131" stroke-linejoin="miter" fill="none" stroke="#231f20" d="M1010.54 563.047H730.324" />
<path transform="matrix(.1,0,0,-.1,366.803,531.412)" d="M740.559 563.047C740.559 556.629 742.938 550.215 747.18 545.449L685.016 563.047 747.18 580.648C742.938 575.887 740.559 569.461 740.559 563.047" fill="#231f20" fill-rule="evenodd" />
<path transform="matrix(.1,0,0,-.1,366.803,531.412)" d="M607.418 373.34C601.477 378.402 592.504 377.688 587.438 371.75 582.375 365.809 583.09 356.832 589.027 351.766 594.969 346.703 603.945 347.418 609.008 353.359 614.07 359.301 613.355 368.273 607.418 373.34" fill="#231f20" fill-rule="evenodd" />
<path transform="matrix(.1,0,0,-.1,366.803,531.412)" d="M633.512 297.531C633.512 297.652 633.395 297.891 633.27 298.25 633.152 298.613 632.793 298.73 632.191 298.73 631.832 298.73 631.594 298.613 631.473 298.488 631.234 298.371 630.754 297.77 630.035 296.93L624.273 290.09C622.711 292.852 620.434 295.012 617.434 296.57 614.434 298.012 611.074 298.73 607.113 298.73 603.273 298.73 599.555 297.891 596.074 296.328 592.477 294.77 589.355 292.609 586.594 289.973 583.836 287.332 581.555 284.332 579.992 280.973 578.313 277.492 577.473 274.012 577.473 270.414 577.473 268.012 577.832 265.852 578.555 263.934 579.273 262.012 580.234 260.332 581.434 259.012 582.633 257.57 583.953 256.371 585.512 255.535 586.953 254.574 588.395 253.852 589.953 253.375L602.793 250.012C603.871 249.773 605.07 249.414 606.395 249.055 607.715 248.57 608.914 247.852 609.992 247.012 611.074 246.051 612.035 244.852 612.754 243.293 613.473 241.73 613.832 239.813 613.832 237.293 613.832 234.531 613.234 231.891 612.152 229.254 610.953 226.613 609.391 224.215 607.473 222.172 605.434 220.133 603.152 218.453 600.633 217.133 597.992 215.816 595.234 215.215 592.234 215.215 590.316 215.215 588.156 215.453 585.754 215.934 583.234 216.293 580.953 217.133 578.914 218.453 576.754 219.652 574.953 221.453 573.516 223.734 571.953 226.012 571.234 229.012 571.234 232.73 571.234 234.172 571.355 235.492 571.594 236.813 571.715 238.012 571.832 238.852 571.953 239.211 572.074 239.453 572.074 239.57 572.191 239.691 572.191 239.813 572.191 239.93 572.191 240.055 572.191 240.652 572.074 241.133 571.715 241.254 571.355 241.371 571.117 241.371 570.754 241.371 570.273 241.371 569.914 241.254 569.555 240.895 569.434 240.773 569.195 240.055 568.832 238.734 568.473 237.293 567.996 235.492 567.516 233.453 566.914 231.414 566.438 229.133 565.836 226.734 565.234 224.332 564.637 222.172 564.152 220.133 563.555 218.094 563.195 216.293 562.836 214.973 562.477 213.531 562.355 212.813 562.355 212.695 562.355 211.855 562.836 211.496 563.676 211.496 564.035 211.496 564.277 211.613 564.516 211.734 564.637 211.855 565.113 212.453 565.836 213.293L571.715 220.133C573.035 218.336 574.477 216.895 576.152 215.816 577.715 214.734 579.395 213.773 581.191 213.172 582.992 212.574 584.793 212.094 586.594 211.855 588.395 211.613 590.191 211.496 591.992 211.496 596.074 211.496 599.914 212.332 603.633 214.254 607.355 216.051 610.594 218.336 613.352 221.332 616.113 224.332 618.391 227.574 620.074 231.293 621.633 234.891 622.473 238.613 622.473 242.332 622.473 244.375 622.234 246.293 621.871 247.852 621.395 249.414 620.793 250.73 620.191 251.813 619.594 252.891 618.875 253.852 618.273 254.691 617.672 255.41 617.074 256.012 616.594 256.371 615.871 257.094 615.152 257.695 614.555 258.172 613.953 258.531 613.113 259.012 612.035 259.371 610.953 259.73 609.516 260.211 607.832 260.691 606.152 261.051 603.992 261.652 601.352 262.371 600.035 262.73 598.473 263.211 596.793 263.691 594.996 264.051 593.914 264.41 593.313 264.531 592.477 264.77 591.633 265.25 590.793 265.852 589.953 266.453 589.113 267.172 588.395 268.012 587.672 268.852 587.074 269.93 586.715 271.25 586.234 272.449 585.996 273.891 585.996 275.453 585.996 277.852 586.594 280.25 587.672 282.652 588.754 285.051 590.316 287.211 592.234 289.133 594.152 290.93 596.434 292.492 598.953 293.691 601.473 294.77 604.113 295.371 606.992 295.371 609.516 295.371 611.793 295.012 613.953 294.41 615.992 293.691 617.793 292.609 619.352 291.172 620.91 289.613 622.113 287.691 622.953 285.41 623.793 283.012 624.273 280.133 624.273 276.77 624.273 274.852 624.152 273.41 624.031 272.332 623.914 271.25 623.793 270.414 623.793 270.055 623.793 269.93 623.914 269.813 624.031 269.453 624.152 269.09 624.512 268.852 625.23 268.852 625.832 268.852 626.313 268.973 626.434 269.332 626.555 269.57 626.793 270.172 627.031 271.25L633.512 297.531" fill="#231f20" fill-rule="evenodd" />
<path transform="matrix(.1,0,0,-.1,366.803,531.412)" stroke-width="5.6693" stroke-linecap="butt" stroke-miterlimit="2.6131" stroke-linejoin="miter" fill="none" stroke="#231f20" d="M484.332 369.777C468.5 430.461 457.949 499.063 457.949 562.383" />
<path transform="matrix(.1,0,0,-.1,366.803,531.412)" d="M481.746 379.684C475.539 378.063 468.73 378.746 463.047 381.645L495.77 325.938 497.109 390.535C493.566 385.227 487.957 381.301 481.746 379.684" fill="#231f20" fill-rule="evenodd" />
<path transform="matrix(.1,0,0,-.1,366.803,531.412)" d="M835.992 256.547C836.23 257.266 839.219 263.242 843.641 267.07 846.75 269.938 850.816 271.852 855.48 271.852 860.262 271.852 861.934 268.266 861.934 263.48 861.934 262.766 861.934 260.375 860.5 254.758L857.512 242.441C856.555 238.855 854.281 230.008 854.043 228.691 853.566 226.902 852.848 223.793 852.848 223.316 852.848 221.641 854.164 220.324 855.953 220.324 859.543 220.324 860.141 223.074 861.215 227.379L868.387 255.949C868.629 256.91 874.844 271.852 887.996 271.852 892.777 271.852 894.453 268.266 894.453 263.48 894.453 256.789 889.789 243.758 887.16 236.586 886.082 233.715 885.484 232.164 885.484 230.008 885.484 224.629 889.191 220.324 894.93 220.324 906.051 220.324 910.234 237.898 910.234 238.617 910.234 239.215 909.754 239.691 909.035 239.691 907.961 239.691 907.84 239.332 907.242 237.301 904.492 227.738 900.07 222.719 895.289 222.719 894.094 222.719 892.18 222.836 892.18 226.664 892.18 229.77 893.613 233.598 894.094 234.91 896.242 240.648 901.625 254.758 901.625 261.691 901.625 268.863 897.441 274.242 888.355 274.242 880.344 274.242 873.891 269.703 869.109 262.645 868.746 269.102 864.801 274.242 855.836 274.242 845.199 274.242 839.578 266.711 837.426 263.723 837.066 270.539 832.164 274.242 826.906 274.242 823.438 274.242 820.688 272.57 818.414 268.027 816.266 263.723 814.594 256.43 814.594 255.949 814.594 255.473 815.066 254.875 815.906 254.875 816.863 254.875 816.98 254.996 817.699 257.746 819.492 264.797 821.766 271.852 826.547 271.852 829.297 271.852 830.254 269.938 830.254 266.352 830.254 263.723 829.059 259.059 828.223 255.355L824.875 242.441C824.395 240.172 823.078 234.789 822.48 232.637 821.645 229.531 820.328 223.91 820.328 223.316 820.328 221.641 821.645 220.324 823.438 220.324 824.875 220.324 826.547 221.043 827.504 222.836 827.742 223.434 828.82 227.617 829.414 230.008L832.043 240.77 835.992 256.547ZM937.012 221.043C937.012 227.977 934.742 233.117 929.84 233.117 926.012 233.117 924.102 230.008 924.102 227.379 924.102 224.75 925.895 221.52 929.961 221.52 931.512 221.52 932.828 222 933.906 223.074 934.145 223.316 934.262 223.316 934.383 223.316 934.621 223.316 934.621 221.641 934.621 221.043 934.621 217.074 933.906 209.246 926.969 201.438 925.652 200.004 925.652 199.762 925.652 199.523 925.652 198.926 926.25 198.328 926.848 198.328 927.809 198.328 937.012 207.215 937.012 221.043ZM996.547 301.5C996.668 301.98 996.906 302.695 996.906 303.293 996.906 304.488 995.711 304.488 995.473 304.488 995.355 304.488 991.047 304.129 988.898 303.891 986.863 303.77 985.074 303.531 982.918 303.414 980.051 303.176 979.215 303.055 979.215 300.902 979.215 299.707 980.41 299.707 981.605 299.707 987.699 299.707 987.699 298.633 987.699 297.438 987.699 296.957 987.699 296.719 987.105 294.566L972.281 235.27C971.922 233.953 971.684 233 971.684 231.086 971.684 225.105 976.105 220.324 982.203 220.324 986.148 220.324 988.777 222.953 990.691 226.664 992.723 230.605 994.395 238.137 994.395 238.617 994.395 239.215 993.922 239.691 993.203 239.691 992.125 239.691 992.008 239.094 991.527 237.301 989.375 229.051 987.227 222.719 982.441 222.719 978.855 222.719 978.855 226.539 978.855 228.215 978.855 228.691 978.855 231.203 979.691 234.551L996.547 301.5" />
</g>

</svg>